<svg width="32" height="32" viewBox="0 0 32 32" fill="none" xmlns="http://www.w3.org/2000/svg">
<path d="M29 13C28.998 11.1441 28.2599 9.36477 26.9476 8.05245C25.6352 6.74012 23.8559 6.00199 22 6H17C17 5.20435 17.3161 4.44129 17.8787 3.87868C18.4413 3.31607 19.2044 3 20 3C20.2652 3 20.5196 2.89464 20.7071 2.70711C20.8946 2.51957 21 2.26522 21 2C21 1.73478 20.8946 1.48043 20.7071 1.29289C20.5196 1.10536 20.2652 1 20 1C18.6739 1 17.4021 1.52678 16.4645 2.46447C15.5268 3.40215 15 4.67392 15 6H10C8.14409 6.00199 6.36477 6.74012 5.05245 8.05245C3.74012 9.36477 3.00199 11.1441 3 13C3.00058 13.3505 3.09327 13.6947 3.26877 13.9981C3.44428 14.3015 3.69645 14.5535 4 14.7288V16C4 20.4412 8.14 23.765 11.4675 26.4363C12.9575 27.6338 15 29.2725 15 30C15 30.2652 15.1054 30.5196 15.2929 30.7071C15.4804 30.8946 15.7348 31 16 31C16.2652 31 16.5196 30.8946 16.7071 30.7071C16.8946 30.5196 17 30.2652 17 30C17 29.2725 19.0425 27.6338 20.5325 26.4363C23.86 23.765 28 20.4412 28 16V14.7288C28.3036 14.5535 28.5557 14.3015 28.7312 13.9981C28.9067 13.6947 28.9994 13.3505 29 13ZM10 8H22C23.3255 8.00198 24.5961 8.52941 25.5333 9.46666C26.4706 10.4039 26.998 11.6745 27 13H5C5 11.6739 5.52678 10.4021 6.46447 9.46447C7.40215 8.52678 8.67392 8 10 8ZM19.2812 24.875C17.9537 25.94 16.7812 26.875 16 27.7962C15.2188 26.8812 14.0463 25.94 12.7188 24.875C9.725 22.4738 6 19.4825 6 16V15H26V16C26 19.4825 22.275 22.4738 19.2812 24.875Z" fill="#343330"/>
</svg>
