<svg width="32" height="32" viewBox="0 0 32 32" fill="none" xmlns="http://www.w3.org/2000/svg">
<path d="M26 4H6C5.46957 4 4.96086 4.21071 4.58579 4.58579C4.21071 4.96086 4 5.46957 4 6V26C4 26.5304 4.21071 27.0391 4.58579 27.4142C4.96086 27.7893 5.46957 28 6 28H26C26.5304 28 27.0391 27.7893 27.4142 27.4142C27.7893 27.0391 28 26.5304 28 26V6C28 5.46957 27.7893 4.96086 27.4142 4.58579C27.0391 4.21071 26.5304 4 26 4ZM24 13H26V19H24V13ZM26 11H24V6H26V11ZM6 6H22V26H6V6ZM26 26H24V21H26V26ZM18.9688 20.75C18.6452 19.5418 17.8779 18.5 16.82 17.8325C17.3818 17.274 17.7651 16.5614 17.9214 15.7848C18.0777 15.0082 17.9998 14.2027 17.6978 13.4704C17.3957 12.7381 16.8831 12.112 16.2248 11.6714C15.5664 11.2309 14.7921 10.9957 14 10.9957C13.2079 10.9957 12.4336 11.2309 11.7752 11.6714C11.1169 12.112 10.6043 12.7381 10.3022 13.4704C10.0002 14.2027 9.92234 15.0082 10.0786 15.7848C10.2349 16.5614 10.6182 17.274 11.18 17.8325C10.1228 18.5007 9.35575 19.5422 9.03125 20.75C8.96495 21.0069 9.00342 21.2797 9.13821 21.5082C9.27301 21.7368 9.49307 21.9024 9.75 21.9688C10.0069 22.0351 10.2797 21.9966 10.5082 21.8618C10.7368 21.727 10.9024 21.5069 10.9688 21.25C11.2987 19.9688 12.6012 19 14 19C15.3988 19 16.7025 19.9662 17.0312 21.25C17.0976 21.5069 17.2632 21.727 17.4918 21.8618C17.7203 21.9966 17.9931 22.0351 18.25 21.9688C18.5069 21.9024 18.727 21.7368 18.8618 21.5082C18.9966 21.2797 19.0351 21.0069 18.9688 20.75ZM12 15C12 14.6044 12.1173 14.2178 12.3371 13.8889C12.5568 13.56 12.8692 13.3036 13.2346 13.1522C13.6001 13.0009 14.0022 12.9613 14.3902 13.0384C14.7781 13.1156 15.1345 13.3061 15.4142 13.5858C15.6939 13.8655 15.8844 14.2219 15.9616 14.6098C16.0387 14.9978 15.9991 15.3999 15.8478 15.7654C15.6964 16.1308 15.44 16.4432 15.1111 16.6629C14.7822 16.8827 14.3956 17 14 17C13.4696 17 12.9609 16.7893 12.5858 16.4142C12.2107 16.0391 12 15.5304 12 15Z" fill="#343330"/>
</svg>
