<svg width="32" height="32" viewBox="0 0 32 32" fill="none" xmlns="http://www.w3.org/2000/svg">
<path d="M32 27C32 27.2652 31.8946 27.5196 31.7071 27.7071C31.5196 27.8946 31.2652 28 31 28H13C12.7348 28 12.4804 27.8946 12.2929 27.7071C12.1054 27.5196 12 27.2652 12 27C12 26.7348 12.1054 26.4804 12.2929 26.2929C12.4804 26.1054 12.7348 26 13 26H31C31.2652 26 31.5196 26.1054 31.7071 26.2929C31.8946 26.4804 32 26.7348 32 27ZM28.73 23.9625L6.65125 17.78C5.60193 17.4835 4.67784 16.853 4.01898 15.9842C3.36012 15.1153 3.0024 14.0554 3 12.965V6C2.99998 5.68308 3.07527 5.37069 3.21967 5.08858C3.36407 4.80647 3.57344 4.56271 3.83054 4.3774C4.08763 4.19208 4.38509 4.07052 4.69838 4.02273C5.01168 3.97493 5.33185 4.00227 5.6325 4.1025L6.31625 4.33C6.45965 4.37765 6.59039 4.45718 6.69864 4.56262C6.80689 4.66806 6.88984 4.79665 6.94125 4.93875L8.26625 8.61L12 9.67375V6C12 5.68308 12.0753 5.37069 12.2197 5.08858C12.3641 4.80647 12.5734 4.56271 12.8305 4.3774C13.0876 4.19208 13.3851 4.07052 13.6984 4.02273C14.0117 3.97493 14.3318 4.00227 14.6325 4.1025L15.3162 4.33C15.4516 4.3751 15.5757 4.44862 15.6802 4.54564C15.7848 4.64266 15.8674 4.76093 15.9225 4.8925L18.735 11.5962L26.34 13.7212C27.3915 14.0165 28.3178 14.6469 28.9784 15.5166C29.639 16.3863 29.9977 17.4479 30 18.54V23C29.9999 23.1543 29.9642 23.3066 29.8955 23.4448C29.8268 23.583 29.727 23.7034 29.604 23.7966C29.481 23.8898 29.3381 23.9533 29.1865 23.9821C29.0348 24.0109 28.8786 24.0042 28.73 23.9625ZM28 18.54C27.9983 17.8846 27.7827 17.2476 27.3861 16.7258C26.9895 16.204 26.4335 15.8259 25.8025 15.6488L17.7313 13.3988C17.5859 13.3583 17.4515 13.2854 17.3383 13.1856C17.2251 13.0858 17.1359 12.9617 17.0775 12.8225L14.25 6.08375L14 6V11C14.0001 11.1548 13.9643 11.3074 13.8954 11.446C13.8265 11.5846 13.7263 11.7052 13.6029 11.7985C13.4794 11.8918 13.336 11.9552 13.1839 11.9837C13.0317 12.0121 12.8751 12.0049 12.7262 11.9625L7.22625 10.395C7.07354 10.3512 6.93345 10.2717 6.81759 10.163C6.70173 10.0543 6.61343 9.91961 6.56 9.77L5.22375 6.07375L5 6V12.965C5.00162 13.6194 5.21637 14.2554 5.61174 14.7769C6.00711 15.2983 6.56159 15.6768 7.19125 15.855L28 21.6812V18.54Z" fill="#343330"/>
</svg>
