<svg width="32" height="32" viewBox="0 0 32 32" fill="none" xmlns="http://www.w3.org/2000/svg">
<path d="M23.1663 14.2763L26.8088 10.8488L26.83 10.8275C27.5802 10.0773 28.0017 9.05974 28.0017 7.99875C28.0017 6.93776 27.5802 5.92023 26.83 5.17C26.0798 4.41977 25.0622 3.99829 24.0013 3.99829C22.9403 3.99829 21.9227 4.41977 21.1725 5.17C21.1725 5.1775 21.1588 5.18375 21.1513 5.19125L17.7238 8.83375L7.34875 5.05875C7.16993 4.99371 6.97627 4.98104 6.79051 5.02223C6.60474 5.06341 6.43458 5.15674 6.3 5.29125L3.3 8.29125C3.19546 8.39587 3.11543 8.52238 3.06568 8.66166C3.01592 8.80094 2.99768 8.94952 3.01227 9.0967C3.02685 9.24388 3.0739 9.38599 3.15003 9.51279C3.22615 9.6396 3.32946 9.74793 3.4525 9.83L11.4388 15.1538L9.58625 17H7C6.73514 17.0001 6.48114 17.1053 6.29375 17.2925L3.29375 20.2925C3.17675 20.4092 3.0905 20.5531 3.04272 20.7113C2.99493 20.8695 2.98709 21.0371 3.0199 21.199C3.05272 21.361 3.12516 21.5123 3.23076 21.6394C3.33635 21.7666 3.4718 21.8655 3.625 21.9275L8.2275 23.7688L10.065 28.3625L10.0725 28.3825C10.1361 28.5364 10.237 28.6719 10.3663 28.7769C10.4955 28.8819 10.6489 28.9529 10.8125 28.9836C10.9762 29.0142 11.1449 29.0036 11.3033 28.9525C11.4618 28.9015 11.605 28.8117 11.72 28.6913L14.7038 25.7063C14.7971 25.6138 14.8713 25.5038 14.9222 25.3826C14.973 25.2614 14.9994 25.1314 15 25V22.4138L16.845 20.5688L22.1688 28.555C22.2508 28.678 22.3592 28.7813 22.486 28.8575C22.6128 28.9336 22.7549 28.9807 22.9021 28.9952C23.0492 29.0098 23.1978 28.9916 23.3371 28.9418C23.4764 28.8921 23.6029 28.812 23.7075 28.7075L26.7075 25.7075C26.842 25.5729 26.9353 25.4028 26.9765 25.217C27.0177 25.0312 27.005 24.8376 26.94 24.6588L23.1663 14.2763ZM23.1575 26.43L17.8338 18.445C17.7521 18.321 17.644 18.2168 17.517 18.1398C17.3901 18.0628 17.2477 18.0151 17.1 18C17.0663 18 17.0338 18 17.0013 18C16.8698 18.0001 16.7397 18.026 16.6183 18.0764C16.4969 18.1268 16.3866 18.2007 16.2938 18.2938L13.2938 21.2938C13.1061 21.4809 13.0005 21.735 13 22V24.5863L11.3663 26.22L9.92875 22.625C9.87846 22.5002 9.80349 22.3868 9.70834 22.2917C9.61319 22.1965 9.49981 22.1215 9.375 22.0713L5.7825 20.6338L7.415 19H10C10.1314 19.0001 10.2615 18.9743 10.3829 18.9241C10.5042 18.874 10.6146 18.8003 10.7075 18.7075L13.7075 15.7075C13.8123 15.6029 13.8925 15.4763 13.9424 15.3369C13.9923 15.1975 14.0106 15.0487 13.996 14.9014C13.9814 14.754 13.9343 14.6118 13.858 14.4849C13.7817 14.3579 13.6783 14.2495 13.555 14.1675L5.57 8.8425L7.2575 7.15625L17.66 10.9388C17.8433 11.0061 18.0423 11.0183 18.2324 10.9739C18.4226 10.9295 18.5955 10.8303 18.73 10.6888L22.5975 6.575C22.9745 6.20906 23.4803 6.00614 24.0056 6.0101C24.531 6.01405 25.0337 6.22456 25.4051 6.59614C25.7765 6.96771 25.9868 7.47051 25.9905 7.99587C25.9943 8.52122 25.7911 9.02695 25.425 9.40375L21.3163 13.27C21.1747 13.4045 21.0755 13.5774 21.0311 13.7676C20.9867 13.9577 20.9989 14.1567 21.0663 14.34L24.8488 24.7425L23.1575 26.43Z" fill="#343330"/>
</svg>
