<svg width="32" height="32" viewBox="0 0 32 32" fill="none" xmlns="http://www.w3.org/2000/svg">
<path d="M26 12H18.415L12.7075 6.2925C12.6146 6.19967 12.5042 6.12605 12.3829 6.07586C12.2615 6.02568 12.1314 5.9999 12 6H11C10.6832 6.00017 10.3709 6.07561 10.089 6.2201C9.80704 6.36458 9.56345 6.57398 9.37828 6.83105C9.19311 7.08811 9.07166 7.38549 9.02393 7.69869C8.9762 8.01189 9.00356 8.33195 9.10375 8.6325L10.2288 12H7.415L4.7075 9.2925C4.61456 9.19967 4.50425 9.12605 4.38285 9.07586C4.26146 9.02568 4.13136 8.9999 4 9H3C2.68834 9.00028 2.38106 9.0734 2.10268 9.21351C1.82429 9.35362 1.5825 9.55685 1.39659 9.80699C1.21069 10.0571 1.08581 10.3473 1.03193 10.6542C0.978047 10.9612 0.996649 11.2765 1.08625 11.575L2.845 17.4363C3.1494 18.4689 3.78094 19.3747 4.64457 20.0174C5.50821 20.6601 6.55722 21.0049 7.63375 21H30C30.2652 21 30.5196 20.8946 30.7071 20.7071C30.8946 20.5196 31 20.2652 31 20V17C31 15.6739 30.4732 14.4021 29.5355 13.4645C28.5979 12.5268 27.3261 12 26 12ZM29 19H7.63375C6.98763 19.0034 6.3579 18.7968 5.83937 18.4113C5.32085 18.0257 4.94161 17.4822 4.75875 16.8625L3 11H3.585L6.2925 13.7075C6.38544 13.8003 6.49576 13.8739 6.61715 13.9241C6.73855 13.9743 6.86864 14.0001 7 14H11.6125C11.771 14 11.9272 13.9624 12.0682 13.8902C12.2093 13.818 12.3311 13.7133 12.4238 13.5847C12.5165 13.4562 12.5772 13.3075 12.6011 13.1508C12.625 12.9942 12.6114 12.8341 12.5613 12.6838L11 8H11.585L17.2925 13.7075C17.3854 13.8003 17.4958 13.8739 17.6172 13.9241C17.7385 13.9743 17.8686 14.0001 18 14H26C26.7957 14 27.5587 14.3161 28.1213 14.8787C28.6839 15.4413 29 16.2044 29 17V19ZM28 25C28 25.3956 27.8827 25.7822 27.6629 26.1111C27.4432 26.44 27.1308 26.6964 26.7654 26.8478C26.3999 26.9991 25.9978 27.0387 25.6098 26.9616C25.2219 26.8844 24.8655 26.6939 24.5858 26.4142C24.3061 26.1345 24.1156 25.7781 24.0384 25.3902C23.9613 25.0022 24.0009 24.6001 24.1522 24.2346C24.3036 23.8692 24.56 23.5568 24.8889 23.3371C25.2178 23.1173 25.6044 23 26 23C26.5304 23 27.0391 23.2107 27.4142 23.5858C27.7893 23.9609 28 24.4696 28 25ZM16 25C16 25.3956 15.8827 25.7822 15.6629 26.1111C15.4432 26.44 15.1308 26.6964 14.7654 26.8478C14.3999 26.9991 13.9978 27.0387 13.6098 26.9616C13.2219 26.8844 12.8655 26.6939 12.5858 26.4142C12.3061 26.1345 12.1156 25.7781 12.0384 25.3902C11.9613 25.0022 12.0009 24.6001 12.1522 24.2346C12.3036 23.8692 12.56 23.5568 12.8889 23.3371C13.2178 23.1173 13.6044 23 14 23C14.5304 23 15.0391 23.2107 15.4142 23.5858C15.7893 23.9609 16 24.4696 16 25Z" fill="#343330"/>
</svg>
