<svg width="32" height="32" viewBox="0 0 32 32" fill="none" xmlns="http://www.w3.org/2000/svg">
<path d="M22 27C22 27.2652 21.8946 27.5196 21.7071 27.7071C21.5196 27.8946 21.2652 28 21 28H3C2.73478 28 2.48043 27.8946 2.29289 27.7071C2.10536 27.5196 2 27.2652 2 27C2 26.7348 2.10536 26.4804 2.29289 26.2929C2.48043 26.1054 2.73478 26 3 26H21C21.2652 26 21.5196 26.1054 21.7071 26.2929C21.8946 26.4804 22 26.7348 22 27ZM30.9825 11.6437C30.9563 11.7829 30.9009 11.915 30.8199 12.0311C30.7389 12.1473 30.6341 12.2449 30.5125 12.3175L12.0862 23.3175C11.3182 23.7679 10.4442 24.0061 9.55375 24.0075C8.28539 24.0061 7.06552 23.52 6.14375 22.6487L6.12875 22.6337L1.625 18.225C1.38671 17.9987 1.20785 17.7172 1.10424 17.4054C1.00062 17.0935 0.975443 16.7609 1.03093 16.437C1.08641 16.1131 1.22085 15.8079 1.42236 15.5483C1.62387 15.2887 1.88623 15.0828 2.18625 14.9487L2.56125 14.765C2.79807 14.6487 3.07124 14.6308 3.32125 14.715L6.85375 15.9075L9.375 14.3825L6.64625 11.7337C6.40085 11.5077 6.21591 11.2238 6.10829 10.9079C6.00066 10.5921 5.97377 10.2544 6.03005 9.92547C6.08634 9.59658 6.22401 9.287 6.43054 9.02492C6.63707 8.76285 6.90588 8.55661 7.2125 8.425L7.2525 8.40875L8.14625 8.07C8.37159 7.98598 8.61966 7.98598 8.845 8.07L15.5875 10.5475L22.0338 6.7C23.061 6.08861 24.274 5.86735 25.451 6.07667C26.628 6.28599 27.6903 6.91191 28.4438 7.84L28.4587 7.85875L30.7887 10.845C30.8758 10.9568 30.9381 11.0858 30.9715 11.2235C31.0049 11.3613 31.0086 11.5045 30.9825 11.6437ZM28.515 11.1812L26.89 9.0975C26.4377 8.54421 25.8019 8.17154 25.0982 8.04721C24.3945 7.92289 23.6695 8.05516 23.055 8.42L16.205 12.51C16.0767 12.5861 15.9331 12.6327 15.7846 12.6465C15.6361 12.6604 15.4864 12.6411 15.3462 12.59L8.5 10.0725L8 10.2637L8.02625 10.2887L11.6962 13.85C11.8059 13.9565 11.8896 14.0867 11.941 14.2306C11.9925 14.3745 12.0102 14.5283 11.993 14.6801C11.9757 14.832 11.9239 14.9779 11.8415 15.1065C11.759 15.2352 11.6482 15.3433 11.5175 15.4225L7.49125 17.8587C7.3667 17.934 7.22723 17.9811 7.08258 17.9969C6.93793 18.0126 6.79158 17.9966 6.65375 17.95L3.07 16.7412L3.04625 16.7537L3 16.775C3.00602 16.7793 3.01148 16.7843 3.01625 16.79L7.51625 21.1975C7.98588 21.6388 8.58586 21.9161 9.22631 21.9877C9.86677 22.0594 10.5132 21.9216 11.0687 21.595L28.515 11.1812Z" fill="#343330"/>
</svg>
