<svg width="32" height="32" viewBox="0 0 32 32" fill="none" xmlns="http://www.w3.org/2000/svg">
<path d="M28 27C28 27.2652 27.8946 27.5196 27.7071 27.7071C27.5196 27.8946 27.2652 28 27 28H9C8.73479 28 8.48043 27.8946 8.2929 27.7071C8.10536 27.5196 8 27.2652 8 27C8 26.7348 8.10536 26.4804 8.2929 26.2929C8.48043 26.1054 8.73479 26 9 26H27C27.2652 26 27.5196 26.1054 27.7071 26.2929C27.8946 26.4804 28 26.7348 28 27ZM31 17V20C31 20.2652 30.8946 20.5196 30.7071 20.7071C30.5196 20.8946 30.2652 21 30 21H7.63375C6.55722 21.0049 5.50821 20.6601 4.64458 20.0174C3.78094 19.3747 3.1494 18.4689 2.845 17.4363L1.08625 11.575C0.996653 11.2765 0.978051 10.9612 1.03193 10.6542C1.08581 10.3473 1.21069 10.0571 1.39659 9.80699C1.5825 9.55685 1.82429 9.35362 2.10268 9.21351C2.38107 9.0734 2.68835 9.00028 3 9H4.00001C4.26487 9.00012 4.51886 9.10532 4.70626 9.2925L7.415 12H10.2263L9.10125 8.6325C9.00099 8.33175 8.97367 8.01147 9.02153 7.69807C9.06939 7.38468 9.19106 7.08715 9.37652 6.83003C9.56197 6.57291 9.80589 6.36356 10.0882 6.21924C10.3704 6.07492 10.683 5.99978 11 6H12C12.1314 5.9999 12.2615 6.02568 12.3829 6.07586C12.5042 6.12605 12.6146 6.19967 12.7075 6.2925L18.415 12H26C27.3261 12 28.5979 12.5268 29.5355 13.4645C30.4732 14.4021 31 15.6739 31 17ZM29 17C29 16.2044 28.6839 15.4413 28.1213 14.8787C27.5587 14.3161 26.7957 14 26 14H18C17.7351 13.9999 17.4811 13.8947 17.2938 13.7075L11.5863 8H11L12.5613 12.6838C12.6113 12.834 12.625 12.994 12.6012 13.1505C12.5774 13.3071 12.5167 13.4557 12.4242 13.5842C12.3317 13.7127 12.2099 13.8175 12.069 13.8897C11.9282 13.962 11.7721 13.9998 11.6138 14H7C6.86864 14.0001 6.73855 13.9743 6.61716 13.9241C6.49576 13.8739 6.38544 13.8003 6.2925 13.7075L3.58626 11H3L4.75875 16.8625C4.94161 17.4822 5.32086 18.0257 5.83938 18.4113C6.3579 18.7968 6.98763 19.0034 7.63375 19H29V17Z" fill="#343330"/>
</svg>
