<svg width="32" height="32" viewBox="0 0 32 32" fill="none" xmlns="http://www.w3.org/2000/svg">
<path d="M28.6387 8.8525C28.4543 8.58913 28.209 8.37413 27.9237 8.22572C27.6384 8.07732 27.3216 7.99989 27 8H17V4H19C19.2652 4 19.5196 3.89464 19.7071 3.70711C19.8946 3.51957 20 3.26522 20 3C20 2.73478 19.8946 2.48043 19.7071 2.29289C19.5196 2.10536 19.2652 2 19 2H13C12.7348 2 12.4804 2.10536 12.2929 2.29289C12.1054 2.48043 12 2.73478 12 3C12 3.26522 12.1054 3.51957 12.2929 3.70711C12.4804 3.89464 12.7348 4 13 4H15V8H5C4.67888 8.00072 4.36266 8.07875 4.07807 8.2275C3.79348 8.37624 3.54889 8.59132 3.36498 8.85456C3.18107 9.11779 3.06325 9.42144 3.02148 9.73983C2.97971 10.0582 3.01521 10.382 3.125 10.6838L6.39875 19.6838C6.53882 20.0688 6.79377 20.4015 7.12912 20.6369C7.46447 20.8723 7.86402 20.9991 8.27375 21H12V29C12 29.2652 12.1054 29.5196 12.2929 29.7071C12.4804 29.8946 12.7348 30 13 30C13.2652 30 13.5196 29.8946 13.7071 29.7071C13.8946 29.5196 14 29.2652 14 29V21H18V29C18 29.2652 18.1054 29.5196 18.2929 29.7071C18.4804 29.8946 18.7348 30 19 30C19.2652 30 19.5196 29.8946 19.7071 29.7071C19.8946 29.5196 20 29.2652 20 29V21H23.7275C24.1372 20.9991 24.5368 20.8723 24.8721 20.6369C25.2075 20.4015 25.4624 20.0688 25.6025 19.6838L28.8762 10.6838C28.9867 10.3819 29.0228 10.0578 28.9815 9.73907C28.9402 9.4203 28.8226 9.11619 28.6387 8.8525ZM13.835 19L12.1975 10H19.8025L18.165 19H13.835ZM5 10H10.165L11.8012 19H8.2725L5 10ZM23.7275 19H20.1987L21.835 10H27L23.7275 19Z" fill="#343330"/>
</svg>
