<svg width="32" height="32" viewBox="0 0 32 32" fill="none" xmlns="http://www.w3.org/2000/svg">
<path d="M15.9999 5.00001C13.6266 5.00001 11.3065 5.70379 9.3331 7.02237C7.35971 8.34095 5.82164 10.2151 4.91339 12.4078C4.00514 14.6005 3.7675 17.0133 4.23052 19.3411C4.69354 21.6689 5.83643 23.8071 7.51466 25.4853C9.19289 27.1635 11.3311 28.3064 13.6589 28.7694C15.9866 29.2325 18.3994 28.9948 20.5921 28.0866C22.7849 27.1783 24.659 25.6402 25.9776 23.6669C27.2962 21.6935 27.9999 19.3734 27.9999 17C27.9963 13.8185 26.7309 10.7684 24.4812 8.51874C22.2316 6.2691 19.1814 5.00365 15.9999 5.00001ZM15.9999 27C14.0221 27 12.0887 26.4135 10.4442 25.3147C8.79975 24.2159 7.51803 22.6541 6.76115 20.8268C6.00427 18.9996 5.80624 16.9889 6.19209 15.0491C6.57795 13.1093 7.53035 11.3275 8.92888 9.92894C10.3274 8.53041 12.1092 7.57801 14.049 7.19215C15.9889 6.8063 17.9995 7.00433 19.8268 7.76121C21.654 8.51809 23.2158 9.79981 24.3146 11.4443C25.4135 13.0888 25.9999 15.0222 25.9999 17C25.997 19.6513 24.9424 22.1931 23.0677 24.0678C21.193 25.9425 18.6512 26.997 15.9999 27ZM7.70745 4.70751L3.70745 8.70751C3.51981 8.89515 3.26531 9.00056 2.99995 9.00056C2.73458 9.00056 2.48009 8.89515 2.29245 8.70751C2.10481 8.51987 1.99939 8.26537 1.99939 8.00001C1.99939 7.73464 2.10481 7.48015 2.29245 7.29251L6.29245 3.29251C6.48009 3.10487 6.73458 2.99945 6.99995 2.99945C7.26531 2.99945 7.5198 3.10487 7.70745 3.29251C7.89509 3.48015 8.0005 3.73464 8.0005 4.00001C8.0005 4.26537 7.89509 4.51987 7.70745 4.70751ZM29.7074 8.70751C29.6146 8.80048 29.5043 8.87424 29.3829 8.92457C29.2615 8.97489 29.1314 9.00079 28.9999 9.00079C28.8685 9.00079 28.7384 8.97489 28.617 8.92457C28.4956 8.87424 28.3853 8.80048 28.2924 8.70751L24.2924 4.70751C24.1048 4.51987 23.9994 4.26537 23.9994 4.00001C23.9994 3.73464 24.1048 3.48015 24.2924 3.29251C24.4801 3.10487 24.7346 2.99945 24.9999 2.99945C25.2653 2.99945 25.5198 3.10487 25.7074 3.29251L29.7074 7.29251C29.8004 7.38538 29.8742 7.49567 29.9245 7.61707C29.9748 7.73846 30.0007 7.86859 30.0007 8.00001C30.0007 8.13142 29.9748 8.26155 29.9245 8.38295C29.8742 8.50434 29.8004 8.61463 29.7074 8.70751ZM22.9999 16C23.2652 16 23.5195 16.1054 23.7071 16.2929C23.8946 16.4804 23.9999 16.7348 23.9999 17C23.9999 17.2652 23.8946 17.5196 23.7071 17.7071C23.5195 17.8947 23.2652 18 22.9999 18H15.9999C15.7347 18 15.4804 17.8947 15.2928 17.7071C15.1053 17.5196 14.9999 17.2652 14.9999 17V10C14.9999 9.73479 15.1053 9.48044 15.2928 9.2929C15.4804 9.10536 15.7347 9.00001 15.9999 9.00001C16.2652 9.00001 16.5195 9.10536 16.7071 9.2929C16.8946 9.48044 16.9999 9.73479 16.9999 10V16H22.9999Z" fill="#343330"/>
</svg>
