<svg width="32" height="32" viewBox="0 0 32 32" fill="none" xmlns="http://www.w3.org/2000/svg">
<path d="M10 15C10 14.7348 10.1054 14.4804 10.2929 14.2929C10.4804 14.1054 10.7348 14 11 14H13V12C13 11.7348 13.1054 11.4804 13.2929 11.2929C13.4804 11.1054 13.7348 11 14 11C14.2652 11 14.5196 11.1054 14.7071 11.2929C14.8946 11.4804 15 11.7348 15 12V14H17C17.2652 14 17.5196 14.1054 17.7071 14.2929C17.8946 14.4804 18 14.7348 18 15C18 15.2652 17.8946 15.5196 17.7071 15.7071C17.5196 15.8946 17.2652 16 17 16H15V18C15 18.2652 14.8946 18.5196 14.7071 18.7071C14.5196 18.8946 14.2652 19 14 19C13.7348 19 13.4804 18.8946 13.2929 18.7071C13.1054 18.5196 13 18.2652 13 18V16H11C10.7348 16 10.4804 15.8946 10.2929 15.7071C10.1054 15.5196 10 15.2652 10 15ZM32 15V23C32 23.5304 31.7893 24.0391 31.4142 24.4142C31.0391 24.7893 30.5304 25 30 25H27.875C27.6547 25.8604 27.1543 26.623 26.4527 27.1676C25.7511 27.7122 24.8882 28.0078 24 28.0078C23.1118 28.0078 22.2489 27.7122 21.5473 27.1676C20.8457 26.623 20.3453 25.8604 20.125 25H13.875C13.6547 25.8604 13.1543 26.623 12.4527 27.1676C11.7511 27.7122 10.8882 28.0078 10 28.0078C9.11183 28.0078 8.24892 27.7122 7.54731 27.1676C6.8457 26.623 6.3453 25.8604 6.125 25H4C3.46957 25 2.96086 24.7893 2.58579 24.4142C2.21071 24.0391 2 23.5304 2 23V9C2 8.46957 2.21071 7.96086 2.58579 7.58579C2.96086 7.21071 3.46957 7 4 7H23C23.2652 7 23.5196 7.10536 23.7071 7.29289C23.8946 7.48043 24 7.73478 24 8V9H28.3225C28.7226 8.99872 29.1138 9.11801 29.4452 9.34231C29.7765 9.56662 30.0326 9.88554 30.18 10.2575L31.93 14.6325C31.9765 14.7494 32.0002 14.8742 32 15ZM24 11V14H29.5225L28.3225 11H24ZM4 23H6.125C6.3453 22.1396 6.8457 21.377 7.54731 20.8324C8.24892 20.2878 9.11183 19.9922 10 19.9922C10.8882 19.9922 11.7511 20.2878 12.4527 20.8324C13.1543 21.377 13.6547 22.1396 13.875 23H20.125C20.2591 22.4861 20.4939 22.0039 20.8158 21.5814C21.1377 21.159 21.5402 20.8045 22 20.5387V9H4V23ZM12 24C12 23.6044 11.8827 23.2178 11.6629 22.8889C11.4432 22.56 11.1308 22.3036 10.7654 22.1522C10.3999 22.0009 9.99778 21.9613 9.60982 22.0384C9.22186 22.1156 8.86549 22.3061 8.58579 22.5858C8.30608 22.8655 8.1156 23.2219 8.03843 23.6098C7.96126 23.9978 8.00087 24.3999 8.15224 24.7654C8.30362 25.1308 8.55996 25.4432 8.88886 25.6629C9.21776 25.8827 9.60444 26 10 26C10.5304 26 11.0391 25.7893 11.4142 25.4142C11.7893 25.0391 12 24.5304 12 24ZM26 24C26 23.6044 25.8827 23.2178 25.6629 22.8889C25.4432 22.56 25.1308 22.3036 24.7654 22.1522C24.3999 22.0009 23.9978 21.9613 23.6098 22.0384C23.2219 22.1156 22.8655 22.3061 22.5858 22.5858C22.3061 22.8655 22.1156 23.2219 22.0384 23.6098C21.9613 23.9978 22.0009 24.3999 22.1522 24.7654C22.3036 25.1308 22.56 25.4432 22.8889 25.6629C23.2178 25.8827 23.6044 26 24 26C24.5304 26 25.0391 25.7893 25.4142 25.4142C25.7893 25.0391 26 24.5304 26 24ZM30 23V16H24V20C24.8868 20.0008 25.7483 20.2958 26.4495 20.8387C27.1507 21.3815 27.6521 22.1417 27.875 23H30Z" fill="#343330"/>
</svg>
