<svg width="32" height="32" viewBox="0 0 32 32" fill="none" xmlns="http://www.w3.org/2000/svg">
<path d="M28 14H25C24.7348 14 24.4804 14.1054 24.2929 14.2929C24.1054 14.4804 24 14.7348 24 15C24 15.2652 24.1054 15.5196 24.2929 15.7071C24.4804 15.8946 24.7348 16 25 16H26.955C26.7175 18.5599 25.5923 20.9561 23.7743 22.7739C21.9563 24.5917 19.5599 25.7166 17 25.9537V11.875C17.9427 11.6316 18.7642 11.0528 19.3106 10.247C19.857 9.44121 20.0908 8.46381 19.9681 7.498C19.8454 6.53218 19.3747 5.64426 18.6442 5.00068C17.9137 4.35709 16.9736 4.00201 16 4.00201C15.0264 4.00201 14.0863 4.35709 13.3558 5.00068C12.6253 5.64426 12.1546 6.53218 12.0319 7.498C11.9092 8.46381 12.143 9.44121 12.6894 10.247C13.2358 11.0528 14.0573 11.6316 15 11.875V25.9537C12.4401 25.7166 10.0437 24.5917 8.22568 22.7739C6.40768 20.9561 5.28252 18.5599 5.045 16H7C7.26522 16 7.51957 15.8946 7.70711 15.7071C7.89464 15.5196 8 15.2652 8 15C8 14.7348 7.89464 14.4804 7.70711 14.2929C7.51957 14.1054 7.26522 14 7 14H4C3.73478 14 3.48043 14.1054 3.29289 14.2929C3.10536 14.4804 3 14.7348 3 15C3 18.4478 4.36964 21.7544 6.80761 24.1924C9.24558 26.6304 12.5522 28 16 28C19.4478 28 22.7544 26.6304 25.1924 24.1924C27.6304 21.7544 29 18.4478 29 15C29 14.7348 28.8946 14.4804 28.7071 14.2929C28.5196 14.1054 28.2652 14 28 14ZM14 8C14 7.60443 14.1173 7.21776 14.3371 6.88886C14.5568 6.55996 14.8692 6.30361 15.2346 6.15224C15.6001 6.00086 16.0022 5.96126 16.3902 6.03843C16.7781 6.1156 17.1345 6.30608 17.4142 6.58578C17.6939 6.86549 17.8844 7.22185 17.9616 7.60982C18.0387 7.99778 17.9991 8.39991 17.8478 8.76536C17.6964 9.13082 17.44 9.44317 17.1111 9.66294C16.7822 9.8827 16.3956 10 16 10C15.4696 10 14.9609 9.78928 14.5858 9.41421C14.2107 9.03914 14 8.53043 14 8Z" fill="#343330"/>
</svg>
