<svg width="32" height="32" viewBox="0 0 32 32" fill="none" xmlns="http://www.w3.org/2000/svg">
<path d="M27 17C26.7348 17 26.4804 17.1054 26.2929 17.2929C26.1054 17.4804 26 17.7348 26 18C26 21.0863 24.2787 21.705 21.2375 22.535C19.8175 22.9225 18.2225 23.36 17 24.3275V16H21C21.2652 16 21.5196 15.8946 21.7071 15.7071C21.8946 15.5196 22 15.2652 22 15C22 14.7348 21.8946 14.4804 21.7071 14.2929C21.5196 14.1054 21.2652 14 21 14H17V10.875C17.9427 10.6316 18.7642 10.0528 19.3106 9.24699C19.857 8.44122 20.0908 7.46382 19.9681 6.498C19.8454 5.53219 19.3747 4.64427 18.6442 4.00068C17.9137 3.35709 16.9736 3.00202 16 3.00202C15.0264 3.00202 14.0863 3.35709 13.3558 4.00068C12.6253 4.64427 12.1546 5.53219 12.0319 6.498C11.9092 7.46382 12.143 8.44122 12.6894 9.24699C13.2358 10.0528 14.0573 10.6316 15 10.875V14H11C10.7348 14 10.4804 14.1054 10.2929 14.2929C10.1054 14.4804 10 14.7348 10 15C10 15.2652 10.1054 15.5196 10.2929 15.7071C10.4804 15.8946 10.7348 16 11 16H15V24.3275C13.7775 23.36 12.1825 22.9225 10.7625 22.535C7.72125 21.705 6 21.0863 6 18C6 17.7348 5.89464 17.4804 5.70711 17.2929C5.51957 17.1054 5.26522 17 5 17C4.73478 17 4.48043 17.1054 4.29289 17.2929C4.10536 17.4804 4 17.7348 4 18C4 22.7638 7.45875 23.7075 10.2375 24.465C13.2788 25.295 15 25.9138 15 29C15 29.2652 15.1054 29.5196 15.2929 29.7071C15.4804 29.8946 15.7348 30 16 30C16.2652 30 16.5196 29.8946 16.7071 29.7071C16.8946 29.5196 17 29.2652 17 29C17 25.9138 18.7213 25.295 21.7625 24.465C24.5413 23.7075 28 22.7638 28 18C28 17.7348 27.8946 17.4804 27.7071 17.2929C27.5196 17.1054 27.2652 17 27 17ZM14 7C14 6.60444 14.1173 6.21776 14.3371 5.88886C14.5568 5.55996 14.8692 5.30362 15.2346 5.15224C15.6001 5.00087 16.0022 4.96126 16.3902 5.03843C16.7781 5.1156 17.1345 5.30608 17.4142 5.58579C17.6939 5.86549 17.8844 6.22186 17.9616 6.60982C18.0387 6.99778 17.9991 7.39992 17.8478 7.76537C17.6964 8.13082 17.44 8.44318 17.1111 8.66294C16.7822 8.8827 16.3956 9 16 9C15.4696 9 14.9609 8.78929 14.5858 8.41421C14.2107 8.03914 14 7.53043 14 7Z" fill="#343330"/>
</svg>
