<svg width="32" height="32" viewBox="0 0 32 32" fill="none" xmlns="http://www.w3.org/2000/svg">
<path d="M28.385 8.0775L16.385 3.0775C16.2632 3.02614 16.1323 2.99968 16 2.99968C15.8678 2.99968 15.7369 3.02614 15.615 3.0775L3.61501 8.0775C3.41199 8.16219 3.24256 8.31146 3.13296 8.50218C3.02336 8.69291 2.97971 8.91445 3.00876 9.1325L5.00876 24.1325C5.03027 24.2943 5.09108 24.4484 5.18586 24.5813C5.28064 24.7143 5.40652 24.8219 5.55251 24.895L15.5525 29.895C15.6914 29.9645 15.8447 30.0007 16 30.0007C16.1554 30.0007 16.3086 29.9645 16.4475 29.895L26.4475 24.895C26.5935 24.8219 26.7194 24.7143 26.8142 24.5813C26.9089 24.4484 26.9697 24.2943 26.9913 24.1325L28.9913 9.1325C29.0203 8.91445 28.9767 8.69291 28.8671 8.50218C28.7575 8.31146 28.588 8.16219 28.385 8.0775ZM25.0788 23.3425L16 27.8825L6.92126 23.3425L5.09251 9.625L16 5.08375L26.9075 9.625L25.0788 23.3425ZM15.125 10.515L10.125 19.515C10.0613 19.6299 10.0209 19.7562 10.006 19.8868C9.99115 20.0173 10.0021 20.1495 10.0383 20.2758C10.0746 20.4021 10.1353 20.52 10.2171 20.6228C10.2989 20.7256 10.4001 20.8113 10.515 20.875C10.6299 20.9387 10.7562 20.9791 10.8868 20.994C11.0173 21.0089 11.1495 20.9979 11.2758 20.9617C11.4021 20.9255 11.52 20.8647 11.6228 20.7829C11.7256 20.7011 11.8113 20.5999 11.875 20.485L13.25 18H18.75L20.125 20.485C20.1887 20.5999 20.2744 20.7011 20.3772 20.7829C20.48 20.8647 20.598 20.9255 20.7242 20.9617C20.8505 20.9979 20.9827 21.0089 21.1132 20.994C21.2438 20.9791 21.3701 20.9387 21.485 20.875C21.5999 20.8113 21.7012 20.7256 21.7829 20.6228C21.8647 20.52 21.9255 20.4021 21.9617 20.2758C21.9979 20.1495 22.0089 20.0173 21.994 19.8868C21.9791 19.7562 21.9387 19.6299 21.875 19.515L16.875 10.515C16.7885 10.3587 16.6618 10.2284 16.5079 10.1377C16.354 10.047 16.1786 9.99912 16 9.99912C15.8214 9.99912 15.646 10.047 15.4921 10.1377C15.3383 10.2284 15.2115 10.3587 15.125 10.515ZM17.6338 16H14.3663L16 13.0588L17.6338 16Z" fill="#343330"/>
</svg>
