<svg width="32" height="32" viewBox="0 0 32 32" fill="none" xmlns="http://www.w3.org/2000/svg">
<path d="M25.1925 6.80751C22.7545 4.3695 19.4479 2.99985 16 2.99985C12.5521 2.99985 9.24551 4.3695 6.80751 6.80751C4.3695 9.24551 2.99985 12.5521 2.99985 16C2.99985 19.4479 4.3695 22.7545 6.80751 25.1925C9.24551 27.6305 12.5521 29.0002 16 29.0002C19.4479 29.0002 22.7545 27.6305 25.1925 25.1925C27.6305 22.7545 29.0002 19.4479 29.0002 16C29.0002 12.5521 27.6305 9.24551 25.1925 6.80751ZM23.7788 8.22251C24.2915 8.73747 24.7521 9.30189 25.1538 9.90751L20.9438 14.875L17.4538 5.09751C19.8498 5.41049 22.0744 6.50957 23.7788 8.22251ZM19.4488 16.625L17.1788 19.2963L13.73 18.6713L12.5513 15.375L14.8213 12.7038L18.27 13.3288L19.4488 16.625ZM8.22126 8.22251C10.1098 6.32366 12.6305 5.18522 15.3038 5.02376L17.4925 11.1488L7.28751 9.29001C7.57547 8.91446 7.88737 8.55788 8.22126 8.22251ZM5.83126 20.1925C5.23784 18.7434 4.95916 17.1847 5.01368 15.6198C5.06821 14.0548 5.45468 12.5193 6.14751 11.115L12.5488 12.2838L5.83126 20.1925ZM8.22126 23.7775C7.7085 23.2625 7.24792 22.6981 6.84626 22.0925L11.0563 17.125L14.5463 26.8975C12.1508 26.5859 9.92636 25.4886 8.22126 23.7775ZM23.7788 23.7775C21.8902 25.6764 19.3695 26.8148 16.6963 26.9763L14.5075 20.8513L24.7125 22.715C24.4244 23.0888 24.1125 23.4437 23.7788 23.7775ZM19.4513 19.7163L26.1688 11.8075C26.7622 13.2566 27.0408 14.8153 26.9863 16.3802C26.9318 17.9452 26.5453 19.4807 25.8525 20.885L19.4513 19.7163Z" fill="#343330"/>
</svg>
