<svg width="32" height="32" viewBox="0 0 32 32" fill="none" xmlns="http://www.w3.org/2000/svg">
<path d="M27.77 19.1574C27.9395 19.3607 28.0215 19.6228 27.998 19.8864C27.9746 20.15 27.8477 20.3935 27.645 20.5637C25.475 22.3612 23.5375 22.9999 21.77 22.9999C19.4475 22.9999 17.4175 21.8987 15.5287 20.8749C12.36 19.1562 9.62375 17.6712 5.645 20.9674C5.54471 21.0563 5.42758 21.1242 5.30057 21.1669C5.17355 21.2096 5.03924 21.2264 4.90562 21.2162C4.77199 21.206 4.64178 21.1691 4.52271 21.1076C4.40365 21.0461 4.29816 20.9613 4.21252 20.8582C4.12687 20.7551 4.06282 20.6359 4.02416 20.5076C3.98551 20.3793 3.97304 20.2445 3.98749 20.1112C4.00195 19.978 4.04304 19.849 4.10832 19.732C4.1736 19.615 4.26174 19.5122 4.3675 19.4299C9.38875 15.2712 13.1575 17.3149 16.4837 19.1199C19.6525 20.8387 22.3887 22.3224 26.3675 19.0262C26.5713 18.8586 26.8331 18.7784 27.0958 18.803C27.3585 18.8276 27.6008 18.955 27.77 19.1574ZM5.645 12.9749C9.62375 9.67869 12.36 11.1624 15.5287 12.8812C17.4175 13.9062 19.4475 15.0062 21.77 15.0062C23.5375 15.0062 25.475 14.3674 27.645 12.5699C27.7508 12.4876 27.8389 12.3849 27.9042 12.2679C27.9695 12.1508 28.0105 12.0219 28.025 11.8886C28.0395 11.7554 28.027 11.6206 27.9883 11.4923C27.9497 11.364 27.8856 11.2448 27.8 11.1417C27.7143 11.0386 27.6088 10.9538 27.4898 10.8923C27.3707 10.8308 27.2405 10.7938 27.1069 10.7837C26.9732 10.7735 26.8389 10.7902 26.7119 10.833C26.5849 10.8757 26.4678 10.9435 26.3675 11.0324C22.3887 14.3287 19.6525 12.8437 16.4837 11.1249C13.1575 9.32119 9.38875 7.27619 4.3675 11.4349C4.17971 11.6084 4.06546 11.8471 4.04821 12.1021C4.03096 12.3571 4.11202 12.6091 4.27474 12.8062C4.43746 13.0033 4.66949 13.1307 4.92316 13.162C5.17684 13.1934 5.4329 13.1265 5.63875 12.9749H5.645Z" fill="#343330"/>
</svg>
