<svg width="32" height="32" viewBox="0 0 32 32" fill="none" xmlns="http://www.w3.org/2000/svg">
<path d="M8.0425 24.5087L6.86125 26.5087C6.79444 26.6219 6.70601 26.7207 6.601 26.7996C6.496 26.8785 6.37647 26.936 6.24926 26.9687C5.99233 27.0348 5.71967 26.9962 5.49125 26.8612C5.26283 26.7263 5.09737 26.5062 5.03126 26.2493C4.96516 25.9923 5.00382 25.7197 5.13875 25.4912L6.32125 23.4912C6.38646 23.3751 6.47421 23.2732 6.57936 23.1914C6.68451 23.1096 6.80493 23.0497 6.93356 23.0151C7.06219 22.9805 7.19644 22.972 7.32842 22.99C7.46039 23.008 7.58744 23.0522 7.70211 23.1199C7.81677 23.1877 7.91674 23.2777 7.99614 23.3847C8.07554 23.4916 8.13278 23.6134 8.16448 23.7427C8.19619 23.8721 8.20174 24.0065 8.18079 24.1381C8.15984 24.2696 8.11282 24.3956 8.0425 24.5087ZM29 19H23.025L19.1838 12.5C19.1185 12.3839 19.0308 12.2819 18.9256 12.2001C18.8205 12.1184 18.7001 12.0584 18.5714 12.0238C18.4428 11.9893 18.3086 11.9807 18.1766 11.9987C18.0446 12.0167 17.9176 12.0609 17.8029 12.1287C17.6882 12.1965 17.5883 12.2865 17.5089 12.3934C17.4295 12.5004 17.3722 12.6221 17.3405 12.7515C17.3088 12.8809 17.3033 13.0153 17.3242 13.1468C17.3452 13.2783 17.3922 13.4044 17.4625 13.5175L25.1388 26.5087C25.2737 26.7372 25.4938 26.9026 25.7507 26.9687C26.0077 27.0348 26.2803 26.9962 26.5088 26.8612C26.7372 26.7263 26.9026 26.5062 26.9687 26.2493C27.0348 25.9923 26.9962 25.7197 26.8612 25.4912L24.2075 21H29C29.2652 21 29.5196 20.8946 29.7071 20.7071C29.8946 20.5196 30 20.2652 30 20C30 19.7348 29.8946 19.4804 29.7071 19.2929C29.5196 19.1054 29.2652 19 29 19ZM17.8088 19H11.2975L19.8612 4.50875C19.9962 4.28033 20.0348 4.00767 19.9687 3.75074C19.9026 3.49382 19.7372 3.27368 19.5088 3.13875C19.2803 3.00382 19.0077 2.96516 18.7507 3.03126C18.4938 3.09737 18.2737 3.26283 18.1388 3.49125L16 7.11125L13.8612 3.48625C13.7944 3.37315 13.706 3.27431 13.601 3.19539C13.496 3.11647 13.3765 3.059 13.2493 3.02626C12.9923 2.96016 12.7197 2.99882 12.4913 3.13375C12.2628 3.26868 12.0974 3.48882 12.0313 3.74574C11.9652 4.00267 12.0038 4.27533 12.1388 4.50375L14.8387 9.0725L8.975 19H3C2.73478 19 2.48043 19.1054 2.29289 19.2929C2.10536 19.4804 2 19.7348 2 20C2 20.2652 2.10536 20.5196 2.29289 20.7071C2.48043 20.8946 2.73478 21 3 21H17.8088C18.074 21 18.3283 20.8946 18.5159 20.7071C18.7034 20.5196 18.8088 20.2652 18.8088 20C18.8088 19.7348 18.7034 19.4804 18.5159 19.2929C18.3283 19.1054 18.074 19 17.8088 19Z" fill="#343330"/>
</svg>
