<svg width="32" height="32" viewBox="0 0 32 32" fill="none" xmlns="http://www.w3.org/2000/svg">
<path d="M30 11V19C30 19.2652 29.8946 19.5196 29.7071 19.7071C29.5196 19.8946 29.2652 20 29 20H21C20.7348 20 20.4804 19.8946 20.2929 19.7071C20.1054 19.5196 20 19.2652 20 19C20 18.7348 20.1054 18.4804 20.2929 18.2929C20.4804 18.1053 20.7348 18 21 18H26.575L23.78 15.2237C22.2418 13.6848 20.2818 12.6367 18.1479 12.2118C16.014 11.787 13.802 12.0045 11.7917 12.8369C9.78144 13.6693 8.06317 15.0792 6.85423 16.8882C5.6453 18.6973 5.00002 20.8242 5 23C5 23.2652 4.89464 23.5196 4.70711 23.7071C4.51957 23.8946 4.26522 24 4 24C3.73478 24 3.48043 23.8946 3.29289 23.7071C3.10536 23.5196 3 23.2652 3 23C2.99996 20.4288 3.76237 17.9153 5.19082 15.7775C6.61928 13.6396 8.64962 11.9733 11.0251 10.9893C13.4006 10.0054 16.0145 9.74794 18.5362 10.2496C21.058 10.7512 23.3744 11.9894 25.1925 13.8075L28 16.5962V11C28 10.7348 28.1054 10.4804 28.2929 10.2929C28.4804 10.1053 28.7348 9.99999 29 9.99999C29.2652 9.99999 29.5196 10.1053 29.7071 10.2929C29.8946 10.4804 30 10.7348 30 11Z" fill="#343330"/>
</svg>
