<svg width="32" height="32" viewBox="0 0 32 32" fill="none" xmlns="http://www.w3.org/2000/svg">
<path d="M29.0001 18C28.9977 20.121 28.1541 22.1545 26.6544 23.6543C25.1546 25.1541 23.1211 25.9977 21.0001 26H10.0001C9.73484 26 9.48048 25.8947 9.29295 25.7071C9.10541 25.5196 9.00005 25.2652 9.00005 25C9.00005 24.7348 9.10541 24.4804 9.29295 24.2929C9.48048 24.1054 9.73484 24 10.0001 24H21.0001C22.5914 24 24.1175 23.3679 25.2427 22.2426C26.3679 21.1174 27.0001 19.5913 27.0001 18C27.0001 16.4087 26.3679 14.8826 25.2427 13.7574C24.1175 12.6321 22.5914 12 21.0001 12H6.4138L10.7076 16.2925C10.8952 16.4801 11.0006 16.7346 11.0006 17C11.0006 17.2654 10.8952 17.5199 10.7076 17.7075C10.5199 17.8951 10.2654 18.0006 10.0001 18.0006C9.73469 18.0006 9.48019 17.8951 9.29255 17.7075L3.29255 11.7075C3.19958 11.6146 3.12582 11.5043 3.07549 11.3829C3.02517 11.2615 2.99927 11.1314 2.99927 11C2.99927 10.8686 3.02517 10.7385 3.07549 10.6171C3.12582 10.4957 3.19958 10.3854 3.29255 10.2925L9.29255 4.29251C9.48019 4.10487 9.73469 3.99945 10.0001 3.99945C10.2654 3.99945 10.5199 4.10487 10.7076 4.29251C10.8952 4.48015 11.0006 4.73464 11.0006 5.00001C11.0006 5.26537 10.8952 5.51987 10.7076 5.70751L6.4138 10H21.0001C23.1211 10.0023 25.1546 10.8459 26.6544 12.3457C28.1541 13.8455 28.9977 15.879 29.0001 18Z" fill="#343330"/>
</svg>
