<svg width="32" height="32" viewBox="0 0 32 32" fill="none" xmlns="http://www.w3.org/2000/svg">
<path d="M21.2925 16.2925L25.5863 12H11C9.4087 12 7.88258 12.6321 6.75736 13.7574C5.63214 14.8826 5 16.4087 5 18C5 19.5913 5.63214 21.1174 6.75736 22.2426C7.88258 23.3679 9.4087 24 11 24H22C22.2652 24 22.5196 24.1054 22.7071 24.2929C22.8946 24.4804 23 24.7348 23 25C23 25.2652 22.8946 25.5196 22.7071 25.7071C22.5196 25.8947 22.2652 26 22 26H11C8.87827 26 6.84344 25.1572 5.34315 23.6569C3.84285 22.1566 3 20.1217 3 18C3 15.8783 3.84285 13.8434 5.34315 12.3432C6.84344 10.8429 8.87827 10 11 10H25.5863L21.2925 5.70751C21.1996 5.6146 21.1259 5.5043 21.0756 5.3829C21.0253 5.26151 20.9994 5.1314 20.9994 5.00001C20.9994 4.86861 21.0253 4.7385 21.0756 4.61711C21.1259 4.49572 21.1996 4.38542 21.2925 4.29251C21.3854 4.1996 21.4957 4.1259 21.6171 4.07561C21.7385 4.02533 21.8686 3.99945 22 3.99945C22.1314 3.99945 22.2615 4.02533 22.3829 4.07561C22.5043 4.1259 22.6146 4.1996 22.7075 4.29251L28.7075 10.2925C28.8005 10.3854 28.8742 10.4957 28.9246 10.6171C28.9749 10.7385 29.0008 10.8686 29.0008 11C29.0008 11.1314 28.9749 11.2615 28.9246 11.3829C28.8742 11.5043 28.8005 11.6146 28.7075 11.7075L22.7075 17.7075C22.5199 17.8951 22.2654 18.0006 22 18.0006C21.7346 18.0006 21.4801 17.8951 21.2925 17.7075C21.1049 17.5199 20.9994 17.2654 20.9994 17C20.9994 16.7346 21.1049 16.4801 21.2925 16.2925Z" fill="#343330"/>
</svg>
