<svg width="32" height="32" viewBox="0 0 32 32" fill="none" xmlns="http://www.w3.org/2000/svg">
<path d="M11.2926 7.70749C11.1996 7.61462 11.1258 7.50433 11.0755 7.38293C11.0252 7.26154 10.9993 7.13141 10.9993 6.99999C10.9993 6.86858 11.0252 6.73845 11.0755 6.61705C11.1258 6.49566 11.1996 6.38537 11.2926 6.29249L15.2926 2.29249C15.3854 2.19952 15.4957 2.12576 15.6171 2.07543C15.7385 2.02511 15.8686 1.99921 16.0001 1.99921C16.1315 1.99921 16.2616 2.02511 16.383 2.07543C16.5044 2.12576 16.6147 2.19952 16.7076 2.29249L20.7076 6.29249C20.8952 6.48013 21.0006 6.73463 21.0006 6.99999C21.0006 7.26536 20.8952 7.51985 20.7076 7.70749C20.5199 7.89513 20.2654 8.00055 20.0001 8.00055C19.7347 8.00055 19.4802 7.89513 19.2926 7.70749L17.0001 5.41374V12C17.0001 12.2652 16.8947 12.5196 16.7072 12.7071C16.5196 12.8946 16.2653 13 16.0001 13C15.7348 13 15.4805 12.8946 15.2929 12.7071C15.1054 12.5196 15.0001 12.2652 15.0001 12V5.41374L12.7076 7.70749C12.6147 7.80047 12.5044 7.87423 12.383 7.92455C12.2616 7.97488 12.1315 8.00078 12.0001 8.00078C11.8686 8.00078 11.7385 7.97488 11.6171 7.92455C11.4957 7.87423 11.3854 7.80047 11.2926 7.70749ZM19.2926 24.2925L17.0001 26.5862V20C17.0001 19.7348 16.8947 19.4804 16.7072 19.2929C16.5196 19.1053 16.2653 19 16.0001 19C15.7348 19 15.4805 19.1053 15.2929 19.2929C15.1054 19.4804 15.0001 19.7348 15.0001 20V26.5862L12.7076 24.2925C12.5199 24.1049 12.2654 23.9994 12.0001 23.9994C11.7347 23.9994 11.4802 24.1049 11.2926 24.2925C11.1049 24.4801 10.9995 24.7346 10.9995 25C10.9995 25.2654 11.1049 25.5199 11.2926 25.7075L15.2926 29.7075C15.3854 29.8005 15.4957 29.8742 15.6171 29.9246C15.7385 29.9749 15.8686 30.0008 16.0001 30.0008C16.1315 30.0008 16.2616 29.9749 16.383 29.9246C16.5044 29.8742 16.6147 29.8005 16.7076 29.7075L20.7076 25.7075C20.8952 25.5199 21.0006 25.2654 21.0006 25C21.0006 24.7346 20.8952 24.4801 20.7076 24.2925C20.5199 24.1049 20.2654 23.9994 20.0001 23.9994C19.7347 23.9994 19.4802 24.1049 19.2926 24.2925ZM29.7076 15.2925L25.7076 11.2925C25.5199 11.1049 25.2654 10.9994 25.0001 10.9994C24.7347 10.9994 24.4802 11.1049 24.2926 11.2925C24.1049 11.4801 23.9995 11.7346 23.9995 12C23.9995 12.2654 24.1049 12.5199 24.2926 12.7075L26.5863 15H20.0001C19.7348 15 19.4805 15.1054 19.2929 15.2929C19.1054 15.4804 19.0001 15.7348 19.0001 16C19.0001 16.2652 19.1054 16.5196 19.2929 16.7071C19.4805 16.8946 19.7348 17 20.0001 17H26.5863L24.2926 19.2925C24.1049 19.4801 23.9995 19.7346 23.9995 20C23.9995 20.2654 24.1049 20.5199 24.2926 20.7075C24.4802 20.8951 24.7347 21.0005 25.0001 21.0005C25.2654 21.0005 25.5199 20.8951 25.7076 20.7075L29.7076 16.7075C29.8005 16.6146 29.8743 16.5043 29.9246 16.3829C29.9749 16.2615 30.0008 16.1314 30.0008 16C30.0008 15.8686 29.9749 15.7385 29.9246 15.6171C29.8743 15.4957 29.8005 15.3854 29.7076 15.2925ZM5.4138 17H12.0001C12.2653 17 12.5196 16.8946 12.7072 16.7071C12.8947 16.5196 13.0001 16.2652 13.0001 16C13.0001 15.7348 12.8947 15.4804 12.7072 15.2929C12.5196 15.1054 12.2653 15 12.0001 15H5.4138L7.70755 12.7075C7.8952 12.5199 8.00061 12.2654 8.00061 12C8.00061 11.7346 7.8952 11.4801 7.70755 11.2925C7.51991 11.1049 7.26542 10.9994 7.00005 10.9994C6.73469 10.9994 6.4802 11.1049 6.29255 11.2925L2.29255 15.2925C2.19958 15.3854 2.12582 15.4957 2.07549 15.6171C2.02517 15.7385 1.99927 15.8686 1.99927 16C1.99927 16.1314 2.02517 16.2615 2.07549 16.3829C2.12582 16.5043 2.19958 16.6146 2.29255 16.7075L6.29255 20.7075C6.4802 20.8951 6.73469 21.0005 7.00005 21.0005C7.26542 21.0005 7.51991 20.8951 7.70755 20.7075C7.8952 20.5199 8.00061 20.2654 8.00061 20C8.00061 19.7346 7.8952 19.4801 7.70755 19.2925L5.4138 17Z" fill="#343330"/>
</svg>
