<svg width="32" height="32" viewBox="0 0 32 32" fill="none" xmlns="http://www.w3.org/2000/svg">
<path d="M24.9999 10V28C24.9999 28.2652 24.8946 28.5196 24.707 28.7071C24.5195 28.8947 24.2651 29 23.9999 29C23.7347 29 23.4804 28.8947 23.2928 28.7071C23.1053 28.5196 22.9999 28.2652 22.9999 28V11H8.41368L12.7074 15.2925C12.8951 15.4801 13.0005 15.7346 13.0005 16C13.0005 16.2654 12.8951 16.5199 12.7074 16.7075C12.5198 16.8951 12.2653 17.0006 11.9999 17.0006C11.7346 17.0006 11.4801 16.8951 11.2924 16.7075L5.29243 10.7075L5.28493 10.6988C5.26493 10.6788 5.24493 10.6563 5.22618 10.6338L5.19743 10.595C5.18715 10.5822 5.17755 10.5688 5.16868 10.555L5.13993 10.5088C5.13211 10.4967 5.12502 10.4842 5.11868 10.4713C5.10993 10.4563 5.10243 10.44 5.09493 10.4238C5.08743 10.4075 5.08243 10.3975 5.07618 10.3825C5.06993 10.3675 5.06493 10.3513 5.05868 10.3363L5.04243 10.2913L5.03118 10.2425C5.03118 10.2263 5.02243 10.2113 5.01868 10.1963C5.01493 10.1813 5.01868 10.1575 5.01118 10.1388C5.00368 10.12 5.01118 10.1125 5.00493 10.0988C4.99868 10.0331 4.99868 9.96694 5.00493 9.90126C5.00493 9.88751 5.00493 9.87501 5.01118 9.86126C5.01743 9.84751 5.01118 9.82251 5.01868 9.80376C5.02618 9.78501 5.02618 9.77376 5.03118 9.75751L5.04243 9.70876L5.05868 9.66376C5.06493 9.64876 5.06993 9.63251 5.07618 9.61751C5.08243 9.60251 5.08868 9.59001 5.09493 9.57626C5.10118 9.56251 5.10993 9.54376 5.11868 9.52876C5.12502 9.51585 5.13211 9.50333 5.13993 9.49126L5.16868 9.44501C5.17755 9.43117 5.18715 9.41782 5.19743 9.40501L5.22618 9.36626C5.24493 9.34376 5.26493 9.32126 5.28493 9.30126L5.29243 9.29251L11.2924 3.29251C11.4801 3.10487 11.7346 2.99945 11.9999 2.99945C12.2653 2.99945 12.5198 3.10487 12.7074 3.29251C12.8951 3.48015 13.0005 3.73464 13.0005 4.00001C13.0005 4.26537 12.8951 4.51987 12.7074 4.70751L8.41368 9.00001H23.9999C24.2651 9.00001 24.5195 9.10536 24.707 9.2929C24.8946 9.48044 24.9999 9.73479 24.9999 10Z" fill="#343330"/>
</svg>
