<svg width="32" height="32" viewBox="0 0 32 32" fill="none" xmlns="http://www.w3.org/2000/svg">
<path d="M24.7075 8.70745L10.4137 22.9999H21C21.2652 22.9999 21.5196 23.1053 21.7071 23.2928C21.8946 23.4804 22 23.7347 22 23.9999C22 24.2652 21.8946 24.5195 21.7071 24.7071C21.5196 24.8946 21.2652 24.9999 21 24.9999H8C7.73478 24.9999 7.48043 24.8946 7.29289 24.7071C7.10536 24.5195 7 24.2652 7 23.9999V10.9999C7 10.7347 7.10536 10.4804 7.29289 10.2928C7.48043 10.1053 7.73478 9.99995 8 9.99995C8.26522 9.99995 8.51957 10.1053 8.70711 10.2928C8.89464 10.4804 9 10.7347 9 10.9999V21.5862L23.2925 7.29245C23.3854 7.19954 23.4957 7.12584 23.6171 7.07555C23.7385 7.02527 23.8686 6.99939 24 6.99939C24.1314 6.99939 24.2615 7.02527 24.3829 7.07555C24.5043 7.12584 24.6146 7.19954 24.7075 7.29245C24.8004 7.38536 24.8741 7.49566 24.9244 7.61705C24.9747 7.73844 25.0006 7.86855 25.0006 7.99995C25.0006 8.13134 24.9747 8.26145 24.9244 8.38284C24.8741 8.50424 24.8004 8.61454 24.7075 8.70745Z" fill="#343330"/>
</svg>
