<svg width="32" height="32" viewBox="0 0 32 32" fill="none" xmlns="http://www.w3.org/2000/svg">
<path d="M29 23C29 23.2652 28.8946 23.5196 28.7071 23.7071C28.5196 23.8946 28.2652 24 28 24C27.7348 24 27.4804 23.8946 27.2929 23.7071C27.1054 23.5196 27 23.2652 27 23C26.9997 20.8246 26.3545 18.6981 25.1457 16.8894C23.937 15.0807 22.2192 13.671 20.2093 12.8386C18.1995 12.0061 15.988 11.7883 13.8544 12.2126C11.7208 12.6369 9.76087 13.6844 8.2225 15.2225L5.425 18H11C11.2652 18 11.5196 18.1053 11.7071 18.2929C11.8946 18.4804 12 18.7348 12 19C12 19.2652 11.8946 19.5196 11.7071 19.7071C11.5196 19.8946 11.2652 20 11 20H3C2.73478 20 2.48043 19.8946 2.29289 19.7071C2.10536 19.5196 2 19.2652 2 19V11C2 10.7348 2.10536 10.4804 2.29289 10.2929C2.48043 10.1053 2.73478 9.99999 3 9.99999C3.26522 9.99999 3.51957 10.1053 3.70711 10.2929C3.89464 10.4804 4 10.7348 4 11V16.5962L6.81 13.805C8.62837 11.9876 10.9448 10.7501 13.4664 10.249C15.988 9.74799 18.6015 10.0059 20.9765 10.99C23.3516 11.9742 25.3815 13.6405 26.8097 15.7782C28.2378 17.9159 29 20.4291 29 23Z" fill="#343330"/>
</svg>
