<svg width="32" height="32" viewBox="0 0 32 32" fill="none" xmlns="http://www.w3.org/2000/svg">
<path d="M25.9999 9.99999V21C25.9999 23.1217 25.1571 25.1566 23.6568 26.6568C22.1565 28.1571 20.1217 29 17.9999 29C15.8782 29 13.8434 28.1571 12.3431 26.6568C10.8428 25.1566 9.99995 23.1217 9.99995 21V6.41374L5.70745 10.7075C5.5198 10.8951 5.26531 11.0005 4.99995 11.0005C4.73458 11.0005 4.48009 10.8951 4.29245 10.7075C4.1048 10.5199 3.99939 10.2654 3.99939 9.99999C3.99939 9.73463 4.10481 9.48013 4.29245 9.29249L10.2924 3.29249C10.3853 3.19952 10.4956 3.12576 10.617 3.07543C10.7384 3.02511 10.8685 2.99921 10.9999 2.99921C11.1314 2.99921 11.2615 3.02511 11.3829 3.07543C11.5043 3.12576 11.6146 3.19952 11.7074 3.29249L17.7074 9.29249C17.8951 9.48013 18.0005 9.73463 18.0005 9.99999C18.0005 10.2654 17.8951 10.5199 17.7074 10.7075C17.5198 10.8951 17.2653 11.0005 16.9999 11.0005C16.7346 11.0005 16.4801 10.8951 16.2924 10.7075L11.9999 6.41374V21C11.9999 22.5913 12.6321 24.1174 13.7573 25.2426C14.8825 26.3679 16.4086 27 17.9999 27C19.5912 27 21.1174 26.3679 22.2426 25.2426C23.3678 24.1174 23.9999 22.5913 23.9999 21V9.99999C23.9999 9.73478 24.1053 9.48042 24.2928 9.29289C24.4804 9.10535 24.7347 8.99999 24.9999 8.99999C25.2652 8.99999 25.5195 9.10535 25.7071 9.29289C25.8946 9.48042 25.9999 9.73478 25.9999 9.99999Z" fill="#343330"/>
</svg>
