<svg width="32" height="32" viewBox="0 0 32 32" fill="none" xmlns="http://www.w3.org/2000/svg">
<path d="M11 13H5C4.73478 13 4.48043 12.8946 4.29289 12.7071C4.10536 12.5195 4 12.2652 4 12V5.99997C4 5.73475 4.10536 5.4804 4.29289 5.29286C4.48043 5.10533 4.73478 4.99997 5 4.99997C5.26522 4.99997 5.51957 5.10533 5.70711 5.29286C5.89464 5.4804 6 5.73475 6 5.99997V9.58622L7.82875 7.75747C10.059 5.51598 13.088 4.2517 16.25 4.24247H16.3162C19.4514 4.23439 22.4634 5.46177 24.7 7.65872C24.8826 7.84555 24.9849 8.09642 24.9849 8.35768C24.9849 8.61893 24.8827 8.86982 24.7001 9.05666C24.5175 9.24351 24.269 9.35148 24.0078 9.35747C23.7466 9.36346 23.4935 9.267 23.3025 9.08872C21.4382 7.25882 18.9285 6.23635 16.3162 6.24247H16.26C13.6252 6.25058 11.1013 7.30392 9.2425 9.17122L7.41375 11H11C11.2652 11 11.5196 11.1053 11.7071 11.2929C11.8946 11.4804 12 11.7348 12 12C12 12.2652 11.8946 12.5195 11.7071 12.7071C11.5196 12.8946 11.2652 13 11 13ZM27 19H21C20.7348 19 20.4804 19.1053 20.2929 19.2929C20.1054 19.4804 20 19.7348 20 20C20 20.2652 20.1054 20.5195 20.2929 20.7071C20.4804 20.8946 20.7348 21 21 21H24.5863L22.7575 22.8287C20.899 24.6957 18.3756 25.749 15.7413 25.7575H15.685C13.0727 25.7636 10.563 24.7411 8.69875 22.9112C8.60561 22.8159 8.49436 22.7402 8.37155 22.6885C8.24874 22.6368 8.11683 22.6102 7.98358 22.6102C7.85034 22.6102 7.71843 22.6369 7.59563 22.6886C7.47282 22.7403 7.36158 22.816 7.26845 22.9113C7.17532 23.0066 7.10217 23.1195 7.05331 23.2435C7.00444 23.3675 6.98084 23.5 6.9839 23.6332C6.98696 23.7664 7.0166 23.8976 7.0711 24.0192C7.1256 24.1408 7.20385 24.2503 7.30125 24.3412C9.53783 26.5382 12.5499 27.7655 15.685 27.7575H15.75C18.9116 27.7479 21.94 26.4837 24.17 24.2425L26 22.4137V26C26 26.2652 26.1054 26.5195 26.2929 26.7071C26.4804 26.8946 26.7348 27 27 27C27.2652 27 27.5196 26.8946 27.7071 26.7071C27.8946 26.5195 28 26.2652 28 26V20C28 19.7348 27.8946 19.4804 27.7071 19.2929C27.5196 19.1053 27.2652 19 27 19Z" fill="#343330"/>
</svg>
