<svg width="32" height="32" viewBox="0 0 32 32" fill="none" xmlns="http://www.w3.org/2000/svg">
<path d="M26.0001 8.99999H16.0001V3.99999C16.0002 3.8021 15.9416 3.60861 15.8318 3.44401C15.7219 3.27942 15.5657 3.15112 15.3828 3.07537C15.2 2.99962 14.9988 2.97981 14.8047 3.01846C14.6107 3.05712 14.4324 3.15248 14.2926 3.29249L2.29255 15.2925C2.19958 15.3854 2.12582 15.4957 2.07549 15.6171C2.02517 15.7385 1.99927 15.8686 1.99927 16C1.99927 16.1314 2.02517 16.2615 2.07549 16.3829C2.12582 16.5043 2.19958 16.6146 2.29255 16.7075L14.2926 28.7075C14.4324 28.8475 14.6107 28.9429 14.8047 28.9815C14.9988 29.0202 15.2 29.0004 15.3828 28.9246C15.5657 28.8489 15.7219 28.7206 15.8318 28.556C15.9416 28.3914 16.0002 28.1979 16.0001 28V23H26.0001C26.5305 23 27.0392 22.7893 27.4143 22.4142C27.7893 22.0391 28.0001 21.5304 28.0001 21V11C28.0001 10.4696 27.7893 9.96085 27.4143 9.58578C27.0392 9.21071 26.5305 8.99999 26.0001 8.99999ZM26.0001 21H15.0001C14.7348 21 14.4805 21.1054 14.2929 21.2929C14.1054 21.4804 14.0001 21.7348 14.0001 22V25.5862L4.4138 16L14.0001 6.41374V9.99999C14.0001 10.2652 14.1054 10.5196 14.2929 10.7071C14.4805 10.8946 14.7348 11 15.0001 11H26.0001V21Z" fill="#343330"/>
</svg>
