<svg width="32" height="32" viewBox="0 0 32 32" fill="none" xmlns="http://www.w3.org/2000/svg">
<path d="M10.7076 18.2924C10.8952 18.4801 11.0006 18.7346 11.0006 18.9999C11.0006 19.2653 10.8952 19.5198 10.7076 19.7074C10.5199 19.8951 10.2654 20.0005 10.0001 20.0005C9.73469 20.0005 9.48019 19.8951 9.29255 19.7074L3.29255 13.7074C3.19958 13.6146 3.12582 13.5043 3.07549 13.3829C3.02517 13.2615 2.99927 13.1314 2.99927 12.9999C2.99927 12.8685 3.02517 12.7384 3.07549 12.617C3.12582 12.4956 3.19958 12.3853 3.29255 12.2924L9.29255 6.29245C9.48019 6.1048 9.73469 5.99939 10.0001 5.99939C10.2654 5.99939 10.5199 6.1048 10.7076 6.29245C10.8952 6.48009 11.0006 6.73458 11.0006 6.99995C11.0006 7.26531 10.8952 7.5198 10.7076 7.70745L5.4138 12.9999L10.7076 18.2924ZM16.0001 11.9999H12.4138L16.7076 7.70745C16.8952 7.5198 17.0006 7.26531 17.0006 6.99995C17.0006 6.73458 16.8952 6.48009 16.7076 6.29245C16.5199 6.1048 16.2654 5.99939 16.0001 5.99939C15.7347 5.99939 15.4802 6.1048 15.2926 6.29245L9.29255 12.2924C9.19958 12.3853 9.12582 12.4956 9.07549 12.617C9.02517 12.7384 8.99927 12.8685 8.99927 12.9999C8.99927 13.1314 9.02517 13.2615 9.07549 13.3829C9.12582 13.5043 9.19958 13.6146 9.29255 13.7074L15.2926 19.7074C15.3855 19.8004 15.4958 19.8741 15.6172 19.9243C15.7386 19.9746 15.8687 20.0005 16.0001 20.0005C16.1314 20.0005 16.2616 19.9746 16.383 19.9243C16.5043 19.8741 16.6146 19.8004 16.7076 19.7074C16.8005 19.6145 16.8742 19.5042 16.9244 19.3828C16.9747 19.2614 17.0006 19.1313 17.0006 18.9999C17.0006 18.8686 16.9747 18.7384 16.9244 18.617C16.8742 18.4957 16.8005 18.3854 16.7076 18.2924L12.4138 13.9999H16.0001C18.9164 14.0033 21.7124 15.1632 23.7746 17.2254C25.8368 19.2876 26.9967 22.0836 27.0001 24.9999C27.0001 25.2652 27.1054 25.5195 27.2929 25.7071C27.4805 25.8946 27.7348 25.9999 28.0001 25.9999C28.2653 25.9999 28.5196 25.8946 28.7072 25.7071C28.8947 25.5195 29.0001 25.2652 29.0001 24.9999C28.9964 21.5532 27.6256 18.2488 25.1884 15.8116C22.7512 13.3744 19.4468 12.0036 16.0001 11.9999Z" fill="#343330"/>
</svg>
