<svg width="32" height="32" viewBox="0 0 32 32" fill="none" xmlns="http://www.w3.org/2000/svg">
<path d="M18.0001 13V8.00001C18.0001 7.73479 18.1054 7.48044 18.293 7.2929C18.4805 7.10536 18.7349 7.00001 19.0001 7.00001C19.2653 7.00001 19.5196 7.10536 19.7072 7.2929C19.8947 7.48044 20.0001 7.73479 20.0001 8.00001V10.5863L25.2926 5.29251C25.4802 5.10487 25.7347 4.99945 26.0001 4.99945C26.2654 4.99945 26.5199 5.10487 26.7076 5.29251C26.8952 5.48015 27.0006 5.73464 27.0006 6.00001C27.0006 6.26537 26.8952 6.51987 26.7076 6.70751L21.4138 12H24.0001C24.2653 12 24.5196 12.1054 24.7072 12.2929C24.8947 12.4804 25.0001 12.7348 25.0001 13C25.0001 13.2652 24.8947 13.5196 24.7072 13.7071C24.5196 13.8946 24.2653 14 24.0001 14H19.0001C18.7349 14 18.4805 13.8946 18.293 13.7071C18.1054 13.5196 18.0001 13.2652 18.0001 13ZM13.0001 18H8.00007C7.73485 18 7.4805 18.1054 7.29296 18.2929C7.10542 18.4804 7.00007 18.7348 7.00007 19C7.00007 19.2652 7.10542 19.5196 7.29296 19.7071C7.4805 19.8947 7.73485 20 8.00007 20H10.5863L5.29257 25.2925C5.10493 25.4801 4.99951 25.7346 4.99951 26C4.99951 26.2654 5.10493 26.5199 5.29257 26.7075C5.48021 26.8951 5.7347 27.0006 6.00007 27.0006C6.26543 27.0006 6.51993 26.8951 6.70757 26.7075L12.0001 21.4138V24C12.0001 24.2652 12.1054 24.5196 12.293 24.7071C12.4805 24.8947 12.7349 25 13.0001 25C13.2653 25 13.5196 24.8947 13.7072 24.7071C13.8947 24.5196 14.0001 24.2652 14.0001 24V19C14.0001 18.7348 13.8947 18.4804 13.7072 18.2929C13.5196 18.1054 13.2653 18 13.0001 18ZM21.4138 20H24.0001C24.2653 20 24.5196 19.8947 24.7072 19.7071C24.8947 19.5196 25.0001 19.2652 25.0001 19C25.0001 18.7348 24.8947 18.4804 24.7072 18.2929C24.5196 18.1054 24.2653 18 24.0001 18H19.0001C18.7349 18 18.4805 18.1054 18.293 18.2929C18.1054 18.4804 18.0001 18.7348 18.0001 19V24C18.0001 24.2652 18.1054 24.5196 18.293 24.7071C18.4805 24.8947 18.7349 25 19.0001 25C19.2653 25 19.5196 24.8947 19.7072 24.7071C19.8947 24.5196 20.0001 24.2652 20.0001 24V21.4138L25.2926 26.7075C25.3855 26.8004 25.4958 26.8741 25.6172 26.9244C25.7386 26.9747 25.8687 27.0006 26.0001 27.0006C26.1315 27.0006 26.2616 26.9747 26.383 26.9244C26.5044 26.8741 26.6147 26.8004 26.7076 26.7075C26.8005 26.6146 26.8742 26.5043 26.9245 26.3829C26.9747 26.2615 27.0006 26.1314 27.0006 26C27.0006 25.8686 26.9747 25.7385 26.9245 25.6171C26.8742 25.4957 26.8005 25.3854 26.7076 25.2925L21.4138 20ZM13.0001 7.00001C12.7349 7.00001 12.4805 7.10536 12.293 7.2929C12.1054 7.48044 12.0001 7.73479 12.0001 8.00001V10.5863L6.70757 5.29251C6.51993 5.10487 6.26543 4.99945 6.00007 4.99945C5.7347 4.99945 5.48021 5.10487 5.29257 5.29251C5.10493 5.48015 4.99951 5.73464 4.99951 6.00001C4.99951 6.26537 5.10493 6.51987 5.29257 6.70751L10.5863 12H8.00007C7.73485 12 7.4805 12.1054 7.29296 12.2929C7.10542 12.4804 7.00007 12.7348 7.00007 13C7.00007 13.2652 7.10542 13.5196 7.29296 13.7071C7.4805 13.8946 7.73485 14 8.00007 14H13.0001C13.2653 14 13.5196 13.8946 13.7072 13.7071C13.8947 13.5196 14.0001 13.2652 14.0001 13V8.00001C14.0001 7.73479 13.8947 7.48044 13.7072 7.2929C13.5196 7.10536 13.2653 7.00001 13.0001 7.00001Z" fill="#343330"/>
</svg>
