<svg width="32" height="32" viewBox="0 0 32 32" fill="none" xmlns="http://www.w3.org/2000/svg">
<path d="M27.7075 10.7075C27.6146 10.8005 27.5043 10.8742 27.3829 10.9246C27.2615 10.9749 27.1314 11.0008 27 11.0008C26.8686 11.0008 26.7385 10.9749 26.6171 10.9246C26.4957 10.8742 26.3854 10.8005 26.2925 10.7075L22 6.41374V21C22 23.1217 21.1571 25.1566 19.6569 26.6568C18.1566 28.1571 16.1217 29 14 29C11.8783 29 9.84344 28.1571 8.34315 26.6568C6.84285 25.1566 6 23.1217 6 21V9.99999C6 9.73478 6.10536 9.48042 6.29289 9.29289C6.48043 9.10535 6.73478 8.99999 7 8.99999C7.26522 8.99999 7.51957 9.10535 7.70711 9.29289C7.89464 9.48042 8 9.73478 8 9.99999V21C8 22.5913 8.63214 24.1174 9.75736 25.2426C10.8826 26.3679 12.4087 27 14 27C15.5913 27 17.1174 26.3679 18.2426 25.2426C19.3679 24.1174 20 22.5913 20 21V6.41374L15.7075 10.7075C15.5199 10.8951 15.2654 11.0005 15 11.0005C14.7346 11.0005 14.4801 10.8951 14.2925 10.7075C14.1049 10.5199 13.9994 10.2654 13.9994 9.99999C13.9994 9.73463 14.1049 9.48013 14.2925 9.29249L20.2925 3.29249C20.3854 3.19952 20.4957 3.12576 20.6171 3.07543C20.7385 3.02511 20.8686 2.99921 21 2.99921C21.1314 2.99921 21.2615 3.02511 21.3829 3.07543C21.5043 3.12576 21.6146 3.19952 21.7075 3.29249L27.7075 9.29249C27.8005 9.38537 27.8742 9.49566 27.9246 9.61705C27.9749 9.73845 28.0008 9.86858 28.0008 9.99999C28.0008 10.1314 27.9749 10.2615 27.9246 10.3829C27.8742 10.5043 27.8005 10.6146 27.7075 10.7075Z" fill="#343330"/>
</svg>
