<svg width="32" height="32" viewBox="0 0 32 32" fill="none" xmlns="http://www.w3.org/2000/svg">
<path d="M25.0001 11V24C25.0001 24.2652 24.8947 24.5196 24.7072 24.7071C24.5196 24.8947 24.2653 25 24.0001 25H11.0001C10.7349 25 10.4805 24.8947 10.293 24.7071C10.1054 24.5196 10.0001 24.2652 10.0001 24C10.0001 23.7348 10.1054 23.4804 10.293 23.2929C10.4805 23.1054 10.7349 23 11.0001 23H21.5863L7.29257 8.70751C7.10493 8.51987 6.99951 8.26537 6.99951 8.00001C6.99951 7.73464 7.10493 7.48015 7.29257 7.29251C7.48021 7.10487 7.7347 6.99945 8.00007 6.99945C8.26543 6.99945 8.51993 7.10487 8.70757 7.29251L23.0001 21.5863V11C23.0001 10.7348 23.1054 10.4804 23.293 10.2929C23.4805 10.1054 23.7349 10 24.0001 10C24.2653 10 24.5196 10.1054 24.7072 10.2929C24.8947 10.4804 25.0001 10.7348 25.0001 11Z" fill="#343330"/>
</svg>
