<svg width="32" height="32" viewBox="0 0 32 32" fill="none" xmlns="http://www.w3.org/2000/svg">
<path d="M25.7075 10.7076C25.6146 10.8005 25.5043 10.8743 25.3829 10.9246C25.2615 10.9749 25.1314 11.0008 25 11.0008C24.8686 11.0008 24.7385 10.9749 24.6171 10.9246C24.4957 10.8743 24.3854 10.8005 24.2925 10.7076L20 6.4138V16.0001C19.9964 19.4468 18.6256 22.7512 16.1884 25.1884C13.7512 27.6256 10.4467 28.9964 7 29.0001C6.73478 29.0001 6.48043 28.8947 6.29289 28.7072C6.10536 28.5196 6 28.2653 6 28.0001C6 27.7348 6.10536 27.4805 6.29289 27.2929C6.48043 27.1054 6.73478 27.0001 7 27.0001C9.91637 26.9967 12.7123 25.8368 14.7745 23.7746C16.8367 21.7124 17.9967 18.9164 18 16.0001V6.4138L13.7075 10.7076C13.5199 10.8952 13.2654 11.0006 13 11.0006C12.7346 11.0006 12.4801 10.8952 12.2925 10.7076C12.1049 10.5199 11.9994 10.2654 11.9994 10.0001C11.9994 9.73469 12.1049 9.48019 12.2925 9.29255L18.2925 3.29255C18.3854 3.19958 18.4957 3.12582 18.6171 3.07549C18.7385 3.02517 18.8686 2.99927 19 2.99927C19.1314 2.99927 19.2615 3.02517 19.3829 3.07549C19.5043 3.12582 19.6146 3.19958 19.7075 3.29255L25.7075 9.29255C25.8005 9.38543 25.8742 9.49572 25.9246 9.61711C25.9749 9.73851 26.0008 9.86864 26.0008 10.0001C26.0008 10.1315 25.9749 10.2616 25.9246 10.383C25.8742 10.5044 25.8005 10.6147 25.7075 10.7076Z" fill="#343330"/>
</svg>
