<svg width="32" height="32" viewBox="0 0 32 32" fill="none" xmlns="http://www.w3.org/2000/svg">
<path d="M29 26C29 26.2652 28.8946 26.5196 28.7071 26.7071C28.5196 26.8946 28.2652 27 28 27H6C5.73478 27 5.48043 26.8946 5.29289 26.7071C5.10536 26.5196 5 26.2652 5 26C5 25.7348 5.10536 25.4804 5.29289 25.2929C5.48043 25.1054 5.73478 25 6 25H28C28.2652 25 28.5196 25.1054 28.7071 25.2929C28.8946 25.4804 29 25.7348 29 26ZM9 19C9.26522 19 9.51957 18.8946 9.70711 18.7071C9.89464 18.5196 10 18.2652 10 18V8.41375L22.2925 20.7075C22.3854 20.8004 22.4957 20.8741 22.6171 20.9244C22.7385 20.9747 22.8686 21.0006 23 21.0006C23.1314 21.0006 23.2615 20.9747 23.3829 20.9244C23.5043 20.8741 23.6146 20.8004 23.7075 20.7075C23.8004 20.6146 23.8741 20.5043 23.9244 20.3829C23.9747 20.2615 24.0006 20.1314 24.0006 20C24.0006 19.8686 23.9747 19.7385 23.9244 19.6171C23.8741 19.4957 23.8004 19.3854 23.7075 19.2925L11.4137 7H21C21.2652 7 21.5196 6.89464 21.7071 6.70711C21.8946 6.51957 22 6.26522 22 6C22 5.73478 21.8946 5.48043 21.7071 5.29289C21.5196 5.10536 21.2652 5 21 5H9C8.73478 5 8.48043 5.10536 8.29289 5.29289C8.10536 5.48043 8 5.73478 8 6V18C8 18.2652 8.10536 18.5196 8.29289 18.7071C8.48043 18.8946 8.73478 19 9 19Z" fill="#343330"/>
</svg>
