<svg width="32" height="32" viewBox="0 0 32 32" fill="none" xmlns="http://www.w3.org/2000/svg">
<path d="M28.7075 13.7074L22.7075 19.7074C22.5199 19.8951 22.2654 20.0005 22 20.0005C21.7346 20.0005 21.4801 19.8951 21.2925 19.7074C21.1049 19.5198 20.9994 19.2653 20.9994 18.9999C20.9994 18.7346 21.1049 18.4801 21.2925 18.2924L25.5863 13.9999H16C13.0836 14.0033 10.2877 15.1632 8.22548 17.2254C6.1633 19.2876 5.00331 22.0836 5 24.9999C5 25.2652 4.89464 25.5195 4.70711 25.7071C4.51957 25.8946 4.26522 25.9999 4 25.9999C3.73478 25.9999 3.48043 25.8946 3.29289 25.7071C3.10536 25.5195 3 25.2652 3 24.9999C3.00364 21.5532 4.37445 18.2488 6.81163 15.8116C9.24882 13.3744 12.5533 12.0036 16 11.9999H25.5863L21.2925 7.70745C21.1996 7.61454 21.1259 7.50424 21.0756 7.38284C21.0253 7.26145 20.9994 7.13134 20.9994 6.99995C20.9994 6.86855 21.0253 6.73844 21.0756 6.61705C21.1259 6.49566 21.1996 6.38536 21.2925 6.29245C21.4801 6.1048 21.7346 5.99939 22 5.99939C22.1314 5.99939 22.2615 6.02527 22.3829 6.07555C22.5043 6.12584 22.6146 6.19954 22.7075 6.29245L28.7075 12.2924C28.8005 12.3853 28.8742 12.4956 28.9246 12.617C28.9749 12.7384 29.0008 12.8685 29.0008 12.9999C29.0008 13.1314 28.9749 13.2615 28.9246 13.3829C28.8742 13.5043 28.8005 13.6146 28.7075 13.7074Z" fill="#343330"/>
</svg>
