<svg width="32" height="32" viewBox="0 0 32 32" fill="none" xmlns="http://www.w3.org/2000/svg">
<path d="M28.7076 14.2925L16.7076 2.29249C16.6147 2.19952 16.5044 2.12576 16.383 2.07543C16.2616 2.02511 16.1315 1.99921 16.0001 1.99921C15.8686 1.99921 15.7385 2.02511 15.6171 2.07543C15.4957 2.12576 15.3854 2.19952 15.2926 2.29249L3.29256 14.2925C3.15254 14.4323 3.05718 14.6106 3.01853 14.8047C2.97988 14.9988 2.99968 15.2 3.07543 15.3828C3.15119 15.5656 3.27948 15.7218 3.44407 15.8317C3.60867 15.9416 3.80216 16.0001 4.00006 16H9.00006V26C9.00006 26.5304 9.21077 27.0391 9.58584 27.4142C9.96092 27.7893 10.4696 28 11.0001 28H21.0001C21.5305 28 22.0392 27.7893 22.4143 27.4142C22.7893 27.0391 23.0001 26.5304 23.0001 26V16H28.0001C28.198 16.0001 28.3914 15.9416 28.556 15.8317C28.7206 15.7218 28.8489 15.5656 28.9247 15.3828C29.0004 15.2 29.0202 14.9988 28.9816 14.8047C28.9429 14.6106 28.8476 14.4323 28.7076 14.2925ZM22.0001 14C21.7348 14 21.4805 14.1054 21.2929 14.2929C21.1054 14.4804 21.0001 14.7348 21.0001 15V26H11.0001V15C11.0001 14.7348 10.8947 14.4804 10.7072 14.2929C10.5196 14.1054 10.2653 14 10.0001 14H6.41381L16.0001 4.41374L25.5863 14H22.0001Z" fill="#343330"/>
</svg>
