<svg width="32" height="32" viewBox="0 0 32 32" fill="none" xmlns="http://www.w3.org/2000/svg">
<path d="M26.7074 6.70751L20.4137 13H23.9999C24.2652 13 24.5195 13.1054 24.7071 13.2929C24.8946 13.4804 24.9999 13.7348 24.9999 14C24.9999 14.2652 24.8946 14.5196 24.7071 14.7071C24.5195 14.8946 24.2652 15 23.9999 15H17.9999C17.7347 15 17.4804 14.8946 17.2928 14.7071C17.1053 14.5196 16.9999 14.2652 16.9999 14V8.00001C16.9999 7.73479 17.1053 7.48044 17.2928 7.2929C17.4804 7.10536 17.7347 7.00001 17.9999 7.00001C18.2652 7.00001 18.5195 7.10536 18.7071 7.2929C18.8946 7.48044 18.9999 7.73479 18.9999 8.00001V11.5863L25.2924 5.29251C25.4801 5.10487 25.7346 4.99945 25.9999 4.99945C26.2653 4.99945 26.5198 5.10487 26.7074 5.29251C26.8951 5.48015 27.0005 5.73464 27.0005 6.00001C27.0005 6.26537 26.8951 6.51987 26.7074 6.70751ZM13.9999 17H7.99995C7.73473 17 7.48038 17.1054 7.29284 17.2929C7.1053 17.4804 6.99995 17.7348 6.99995 18C6.99995 18.2652 7.1053 18.5196 7.29284 18.7071C7.48038 18.8947 7.73473 19 7.99995 19H11.5862L5.29245 25.2925C5.10481 25.4801 4.99939 25.7346 4.99939 26C4.99939 26.2654 5.1048 26.5199 5.29245 26.7075C5.48009 26.8951 5.73458 27.0006 5.99995 27.0006C6.26531 27.0006 6.5198 26.8951 6.70745 26.7075L12.9999 20.4138V24C12.9999 24.2652 13.1053 24.5196 13.2928 24.7071C13.4804 24.8947 13.7347 25 13.9999 25C14.2652 25 14.5195 24.8947 14.7071 24.7071C14.8946 24.5196 14.9999 24.2652 14.9999 24V18C14.9999 17.7348 14.8946 17.4804 14.7071 17.2929C14.5195 17.1054 14.2652 17 13.9999 17Z" fill="#343330"/>
</svg>
