<svg width="32" height="32" viewBox="0 0 32 32" fill="none" xmlns="http://www.w3.org/2000/svg">
<path d="M29 6C29 6.26522 28.8946 6.51957 28.7071 6.70711C28.5196 6.89464 28.2652 7 28 7H6C5.73478 7 5.48043 6.89464 5.29289 6.70711C5.10536 6.51957 5 6.26522 5 6C5 5.73478 5.10536 5.48043 5.29289 5.29289C5.48043 5.10536 5.73478 5 6 5H28C28.2652 5 28.5196 5.10536 28.7071 5.29289C28.8946 5.48043 29 5.73478 29 6ZM22.2925 11.2925L10 23.5863V14C10 13.7348 9.89464 13.4804 9.70711 13.2929C9.51957 13.1054 9.26522 13 9 13C8.73478 13 8.48043 13.1054 8.29289 13.2929C8.10536 13.4804 8 13.7348 8 14V26C8 26.2652 8.10536 26.5196 8.29289 26.7071C8.48043 26.8946 8.73478 27 9 27H21C21.2652 27 21.5196 26.8946 21.7071 26.7071C21.8946 26.5196 22 26.2652 22 26C22 25.7348 21.8946 25.4804 21.7071 25.2929C21.5196 25.1054 21.2652 25 21 25H11.4137L23.7075 12.7075C23.8004 12.6146 23.8741 12.5043 23.9244 12.3829C23.9747 12.2615 24.0006 12.1314 24.0006 12C24.0006 11.8686 23.9747 11.7385 23.9244 11.6171C23.8741 11.4957 23.8004 11.3854 23.7075 11.2925C23.6146 11.1996 23.5043 11.1259 23.3829 11.0756C23.2615 11.0253 23.1314 10.9994 23 10.9994C22.8686 10.9994 22.7385 11.0253 22.6171 11.0756C22.4957 11.1259 22.3854 11.1996 22.2925 11.2925Z" fill="#343330"/>
</svg>
