<svg width="32" height="32" viewBox="0 0 32 32" fill="none" xmlns="http://www.w3.org/2000/svg">
<path d="M27.7075 12.7075C27.6146 12.8005 27.5043 12.8742 27.3829 12.9246C27.2615 12.9749 27.1314 13.0008 27 13.0008C26.8686 13.0008 26.7385 12.9749 26.6171 12.9246C26.4957 12.8742 26.3854 12.8005 26.2925 12.7075L22 8.41374V24C22 24.2652 21.8946 24.5196 21.7071 24.7071C21.5196 24.8946 21.2652 25 21 25H3C2.73478 25 2.48043 24.8946 2.29289 24.7071C2.10536 24.5196 2 24.2652 2 24C2 23.7348 2.10536 23.4804 2.29289 23.2929C2.48043 23.1053 2.73478 23 3 23H20V8.41374L15.7075 12.7075C15.5199 12.8951 15.2654 13.0005 15 13.0005C14.7346 13.0005 14.4801 12.8951 14.2925 12.7075C14.1049 12.5199 13.9994 12.2654 13.9994 12C13.9994 11.7346 14.1049 11.4801 14.2925 11.2925L20.2925 5.29249C20.3854 5.19952 20.4957 5.12576 20.6171 5.07543C20.7385 5.02511 20.8686 4.99921 21 4.99921C21.1314 4.99921 21.2615 5.02511 21.3829 5.07543C21.5043 5.12576 21.6146 5.19952 21.7075 5.29249L27.7075 11.2925C27.8005 11.3854 27.8742 11.4957 27.9246 11.6171C27.9749 11.7385 28.0008 11.8686 28.0008 12C28.0008 12.1314 27.9749 12.2615 27.9246 12.3829C27.8742 12.5043 27.8005 12.6146 27.7075 12.7075Z" fill="#343330"/>
</svg>
