<svg width="32" height="32" viewBox="0 0 32 32" fill="none" xmlns="http://www.w3.org/2000/svg">
<path d="M29.9999 6.99997V13C29.9999 13.2652 29.8946 13.5195 29.707 13.7071C29.5195 13.8946 29.2651 14 28.9999 14H22.9999C22.7347 14 22.4804 13.8946 22.2928 13.7071C22.1053 13.5195 21.9999 13.2652 21.9999 13C21.9999 12.7348 22.1053 12.4804 22.2928 12.2929C22.4804 12.1053 22.7347 12 22.9999 12H26.4249L23.1012 8.95497L23.0699 8.92497C21.68 7.53559 19.9115 6.58654 17.9854 6.19641C16.0592 5.80627 14.0608 5.99233 12.2398 6.73135C10.4188 7.47037 8.85588 8.72958 7.74635 10.3517C6.63682 11.9738 6.02985 13.8868 6.00126 15.8519C5.97267 17.817 6.52373 19.7469 7.58559 21.4006C8.64746 23.0543 10.1731 24.3584 11.9718 25.1501C13.7706 25.9418 15.7627 26.1859 17.6994 25.852C19.6361 25.518 21.4314 24.6208 22.8612 23.2725C23.054 23.0901 23.3113 22.9918 23.5765 22.9992C23.8418 23.0066 24.0932 23.1191 24.2756 23.3118C24.4579 23.5046 24.5562 23.7619 24.5488 24.0272C24.5414 24.2924 24.429 24.5439 24.2362 24.7262C22.013 26.8346 19.0639 28.0069 15.9999 28H15.8349C13.8696 27.9731 11.941 27.4638 10.2186 26.517C8.49613 25.5701 7.03266 24.2147 5.95675 22.5698C4.88085 20.9249 4.22545 19.0409 4.04818 17.0834C3.8709 15.1259 4.17717 13.1548 4.94007 11.3434C5.70296 9.532 6.89912 7.93571 8.42342 6.69484C9.94771 5.45397 11.7535 4.60652 13.682 4.22697C15.6105 3.84741 17.6027 3.94738 19.4836 4.51808C21.3644 5.08878 23.0763 6.11275 24.4687 7.49997L27.9999 10.725V6.99997C27.9999 6.73476 28.1053 6.4804 28.2928 6.29287C28.4804 6.10533 28.7347 5.99997 28.9999 5.99997C29.2651 5.99997 29.5195 6.10533 29.707 6.29287C29.8946 6.4804 29.9999 6.73476 29.9999 6.99997Z" fill="#343330"/>
</svg>
