<svg width="32" height="32" viewBox="0 0 32 32" fill="none" xmlns="http://www.w3.org/2000/svg">
<path d="M30.0001 9C30.0001 9.26522 29.8947 9.51957 29.7072 9.70711C29.5196 9.89464 29.2653 10 29.0001 10H12.0001V24.5863L16.2926 20.2925C16.4802 20.1049 16.7347 19.9994 17.0001 19.9994C17.2654 19.9994 17.5199 20.1049 17.7076 20.2925C17.8952 20.4801 18.0006 20.7346 18.0006 21C18.0006 21.2654 17.8952 21.5199 17.7076 21.7075L11.7076 27.7075C11.6147 27.8005 11.5044 27.8742 11.383 27.9246C11.2616 27.9749 11.1315 28.0008 11.0001 28.0008C10.8687 28.0008 10.7385 27.9749 10.6171 27.9246C10.4957 27.8742 10.3854 27.8005 10.2926 27.7075L4.29257 21.7075C4.19966 21.6146 4.12596 21.5043 4.07567 21.3829C4.02539 21.2615 3.99951 21.1314 3.99951 21C3.99951 20.8686 4.02539 20.7385 4.07567 20.6171C4.12596 20.4957 4.19966 20.3854 4.29257 20.2925C4.48021 20.1049 4.7347 19.9994 5.00007 19.9994C5.13146 19.9994 5.26157 20.0253 5.38296 20.0756C5.50436 20.1259 5.61466 20.1996 5.70757 20.2925L10.0001 24.5863V9C10.0001 8.73478 10.1054 8.48043 10.293 8.29289C10.4805 8.10536 10.7349 8 11.0001 8H29.0001C29.2653 8 29.5196 8.10536 29.7072 8.29289C29.8947 8.48043 30.0001 8.73478 30.0001 9Z" fill="#343330"/>
</svg>
