<svg width="32" height="32" viewBox="0 0 32 32" fill="none" xmlns="http://www.w3.org/2000/svg">
<path d="M29.7076 16.7075L25.7076 20.7075C25.5199 20.8951 25.2654 21.0006 25.0001 21.0006C24.7347 21.0006 24.4802 20.8951 24.2926 20.7075C24.1049 20.5199 23.9995 20.2654 23.9995 20C23.9995 19.7346 24.1049 19.4801 24.2926 19.2925L26.5863 17H5.4138L7.70755 19.2925C7.8952 19.4801 8.00061 19.7346 8.00061 20C8.00061 20.2654 7.8952 20.5199 7.70755 20.7075C7.51991 20.8951 7.26542 21.0006 7.00005 21.0006C6.73469 21.0006 6.4802 20.8951 6.29255 20.7075L2.29255 16.7075C2.19958 16.6146 2.12582 16.5043 2.07549 16.3829C2.02517 16.2615 1.99927 16.1314 1.99927 16C1.99927 15.8686 2.02517 15.7385 2.07549 15.6171C2.12582 15.4957 2.19958 15.3854 2.29255 15.2925L6.29255 11.2925C6.4802 11.1049 6.73469 10.9995 7.00005 10.9995C7.26542 10.9995 7.51991 11.1049 7.70755 11.2925C7.8952 11.4801 8.00061 11.7346 8.00061 12C8.00061 12.2654 7.8952 12.5199 7.70755 12.7075L5.4138 15H26.5863L24.2926 12.7075C24.1049 12.5199 23.9995 12.2654 23.9995 12C23.9995 11.7346 24.1049 11.4801 24.2926 11.2925C24.4802 11.1049 24.7347 10.9995 25.0001 10.9995C25.2654 10.9995 25.5199 11.1049 25.7076 11.2925L29.7076 15.2925C29.8005 15.3854 29.8743 15.4957 29.9246 15.6171C29.9749 15.7385 30.0008 15.8686 30.0008 16C30.0008 16.1314 29.9749 16.2615 29.9246 16.3829C29.8743 16.5043 29.8005 16.6146 29.7076 16.7075Z" fill="#343330"/>
</svg>
