<svg width="32" height="32" viewBox="0 0 32 32" fill="none" xmlns="http://www.w3.org/2000/svg">
<path d="M27.7075 10.7075L21.7075 16.7075C21.5199 16.8951 21.2654 17.0006 21 17.0006C20.7346 17.0006 20.4801 16.8951 20.2925 16.7075C20.1049 16.5199 19.9994 16.2654 19.9994 16C19.9994 15.7346 20.1049 15.4801 20.2925 15.2925L24.5863 11H10V28C10 28.2652 9.89464 28.5196 9.70711 28.7071C9.51957 28.8947 9.26522 29 9 29C8.73478 29 8.48043 28.8947 8.29289 28.7071C8.10536 28.5196 8 28.2652 8 28V10C8 9.73479 8.10536 9.48044 8.29289 9.2929C8.48043 9.10536 8.73478 9.00001 9 9.00001H24.5863L20.2925 4.70751C20.1996 4.6146 20.1259 4.5043 20.0756 4.3829C20.0253 4.26151 19.9994 4.1314 19.9994 4.00001C19.9994 3.86861 20.0253 3.7385 20.0756 3.61711C20.1259 3.49572 20.1996 3.38542 20.2925 3.29251C20.4801 3.10487 20.7346 2.99945 21 2.99945C21.1314 2.99945 21.2615 3.02533 21.3829 3.07561C21.5043 3.1259 21.6146 3.1996 21.7075 3.29251L27.7075 9.29251C27.8005 9.38538 27.8742 9.49567 27.9246 9.61707C27.9749 9.73846 28.0008 9.86859 28.0008 10C28.0008 10.1314 27.9749 10.2615 27.9246 10.3829C27.8742 10.5043 27.8005 10.6146 27.7075 10.7075Z" fill="#343330"/>
</svg>
