<svg width="32" height="32" viewBox="0 0 32 32" fill="none" xmlns="http://www.w3.org/2000/svg">
<path d="M29.9999 24C29.9999 24.2652 29.8946 24.5196 29.7071 24.7071C29.5195 24.8946 29.2652 25 28.9999 25H10.9999C10.7347 25 10.4804 24.8946 10.2928 24.7071C10.1053 24.5196 9.99995 24.2652 9.99995 24V8.41374L5.70745 12.7075C5.5198 12.8951 5.26531 13.0005 4.99995 13.0005C4.73458 13.0005 4.48009 12.8951 4.29245 12.7075C4.1048 12.5199 3.99939 12.2654 3.99939 12C3.99939 11.7346 4.1048 11.4801 4.29245 11.2925L10.2924 5.29249C10.3853 5.19952 10.4956 5.12576 10.617 5.07543C10.7384 5.02511 10.8685 4.99921 10.9999 4.99921C11.1314 4.99921 11.2615 5.02511 11.3829 5.07543C11.5043 5.12576 11.6146 5.19952 11.7074 5.29249L17.7074 11.2925C17.8004 11.3854 17.8741 11.4957 17.9243 11.6171C17.9746 11.7385 18.0005 11.8686 18.0005 12C18.0005 12.1314 17.9746 12.2615 17.9243 12.3829C17.8741 12.5043 17.8004 12.6146 17.7074 12.7075C17.6145 12.8004 17.5042 12.8741 17.3828 12.9244C17.2614 12.9747 17.1313 13.0005 16.9999 13.0005C16.8686 13.0005 16.7384 12.9747 16.617 12.9244C16.4957 12.8741 16.3854 12.8004 16.2924 12.7075L11.9999 8.41374V23H28.9999C29.2652 23 29.5195 23.1053 29.7071 23.2929C29.8946 23.4804 29.9999 23.7348 29.9999 24Z" fill="#343330"/>
</svg>
