<svg width="32" height="32" viewBox="0 0 32 32" fill="none" xmlns="http://www.w3.org/2000/svg">
<path d="M28 16C28 16.2652 27.8946 16.5196 27.7071 16.7071C27.5196 16.8946 27.2652 17 27 17H5C4.73478 17 4.48043 16.8946 4.29289 16.7071C4.10536 16.5196 4 16.2652 4 16C4 15.7348 4.10536 15.4804 4.29289 15.2929C4.48043 15.1054 4.73478 15 5 15H27C27.2652 15 27.5196 15.1054 27.7071 15.2929C27.8946 15.4804 28 15.7348 28 16ZM12.7075 6.70749L15 4.41374V12C15 12.2652 15.1054 12.5196 15.2929 12.7071C15.4804 12.8946 15.7348 13 16 13C16.2652 13 16.5196 12.8946 16.7071 12.7071C16.8946 12.5196 17 12.2652 17 12V4.41374L19.2925 6.70749C19.4801 6.89513 19.7346 7.00055 20 7.00055C20.2654 7.00055 20.5199 6.89513 20.7075 6.70749C20.8951 6.51985 21.0006 6.26536 21.0006 5.99999C21.0006 5.73463 20.8951 5.48013 20.7075 5.29249L16.7075 1.29249C16.6146 1.19952 16.5043 1.12576 16.3829 1.07543C16.2615 1.02511 16.1314 0.999207 16 0.999207C15.8686 0.999207 15.7385 1.02511 15.6171 1.07543C15.4957 1.12576 15.3854 1.19952 15.2925 1.29249L11.2925 5.29249C11.1049 5.48013 10.9994 5.73463 10.9994 5.99999C10.9994 6.26536 11.1049 6.51985 11.2925 6.70749C11.4801 6.89513 11.7346 7.00055 12 7.00055C12.2654 7.00055 12.5199 6.89513 12.7075 6.70749ZM19.2925 25.2925L17 27.5862V20C17 19.7348 16.8946 19.4804 16.7071 19.2929C16.5196 19.1053 16.2652 19 16 19C15.7348 19 15.4804 19.1053 15.2929 19.2929C15.1054 19.4804 15 19.7348 15 20V27.5862L12.7075 25.2925C12.5199 25.1049 12.2654 24.9994 12 24.9994C11.7346 24.9994 11.4801 25.1049 11.2925 25.2925C11.1049 25.4801 10.9994 25.7346 10.9994 26C10.9994 26.2654 11.1049 26.5199 11.2925 26.7075L15.2925 30.7075C15.3854 30.8005 15.4957 30.8742 15.6171 30.9246C15.7385 30.9749 15.8686 31.0008 16 31.0008C16.1314 31.0008 16.2615 30.9749 16.3829 30.9246C16.5043 30.8742 16.6146 30.8005 16.7075 30.7075L20.7075 26.7075C20.8951 26.5199 21.0006 26.2654 21.0006 26C21.0006 25.7346 20.8951 25.4801 20.7075 25.2925C20.5199 25.1049 20.2654 24.9994 20 24.9994C19.7346 24.9994 19.4801 25.1049 19.2925 25.2925Z" fill="#343330"/>
</svg>
