<svg width="32" height="32" viewBox="0 0 32 32" fill="none" xmlns="http://www.w3.org/2000/svg">
<path d="M20.7074 24.2925C20.8004 24.3854 20.8742 24.4957 20.9245 24.6171C20.9748 24.7385 21.0007 24.8686 21.0007 25C21.0007 25.1314 20.9748 25.2615 20.9245 25.3829C20.8742 25.5043 20.8004 25.6146 20.7074 25.7075L16.7074 29.7075C16.6146 29.8005 16.5043 29.8742 16.3829 29.9246C16.2615 29.9749 16.1314 30.0008 15.9999 30.0008C15.8685 30.0008 15.7384 29.9749 15.617 29.9246C15.4956 29.8742 15.3853 29.8005 15.2924 29.7075L11.2924 25.7075C11.1048 25.5199 10.9994 25.2654 10.9994 25C10.9994 24.7346 11.1048 24.4801 11.2924 24.2925C11.4801 24.1049 11.7346 23.9994 11.9999 23.9994C12.2653 23.9994 12.5198 24.1049 12.7074 24.2925L14.9999 26.5862V5.41374L12.7074 7.70749C12.5198 7.89513 12.2653 8.00055 11.9999 8.00055C11.7346 8.00055 11.4801 7.89513 11.2924 7.70749C11.1048 7.51985 10.9994 7.26536 10.9994 6.99999C10.9994 6.73463 11.1048 6.48013 11.2924 6.29249L15.2924 2.29249C15.3853 2.19952 15.4956 2.12576 15.617 2.07543C15.7384 2.02511 15.8685 1.99921 15.9999 1.99921C16.1314 1.99921 16.2615 2.02511 16.3829 2.07543C16.5043 2.12576 16.6146 2.19952 16.7074 2.29249L20.7074 6.29249C20.8951 6.48013 21.0005 6.73463 21.0005 6.99999C21.0005 7.26536 20.8951 7.51985 20.7074 7.70749C20.5198 7.89513 20.2653 8.00055 19.9999 8.00055C19.7346 8.00055 19.4801 7.89513 19.2924 7.70749L16.9999 5.41374V26.5862L19.2924 24.2925C19.3853 24.1995 19.4956 24.1258 19.617 24.0754C19.7384 24.0251 19.8685 23.9992 19.9999 23.9992C20.1314 23.9992 20.2615 24.0251 20.3829 24.0754C20.5043 24.1258 20.6146 24.1995 20.7074 24.2925Z" fill="#343330"/>
</svg>
