<svg width="32" height="32" viewBox="0 0 32 32" fill="none" xmlns="http://www.w3.org/2000/svg">
<path d="M26.7076 22.7075L22.7076 26.7075C22.5199 26.8951 22.2654 27.0006 22.0001 27.0006C21.7347 27.0006 21.4802 26.8951 21.2926 26.7075C21.1049 26.5199 20.9995 26.2654 20.9995 26C20.9995 25.7346 21.1049 25.4801 21.2926 25.2925L23.5863 23H6.00005C5.73484 23 5.48048 22.8947 5.29295 22.7071C5.10541 22.5196 5.00005 22.2652 5.00005 22C5.00005 21.7348 5.10541 21.4804 5.29295 21.2929C5.48048 21.1054 5.73484 21 6.00005 21H23.5863L21.2926 18.7075C21.1049 18.5199 20.9995 18.2654 20.9995 18C20.9995 17.7346 21.1049 17.4801 21.2926 17.2925C21.4802 17.1049 21.7347 16.9994 22.0001 16.9994C22.2654 16.9994 22.5199 17.1049 22.7076 17.2925L26.7076 21.2925C26.8005 21.3854 26.8743 21.4957 26.9246 21.6171C26.9749 21.7385 27.0008 21.8686 27.0008 22C27.0008 22.1314 26.9749 22.2615 26.9246 22.3829C26.8743 22.5043 26.8005 22.6146 26.7076 22.7075ZM9.29255 14.7075C9.48019 14.8951 9.73469 15.0006 10.0001 15.0006C10.2654 15.0006 10.5199 14.8951 10.7076 14.7075C10.8952 14.5199 11.0006 14.2654 11.0006 14C11.0006 13.7346 10.8952 13.4801 10.7076 13.2925L8.4138 11H26.0001C26.2653 11 26.5196 10.8946 26.7072 10.7071C26.8947 10.5196 27.0001 10.2652 27.0001 10C27.0001 9.73479 26.8947 9.48044 26.7072 9.2929C26.5196 9.10536 26.2653 9.00001 26.0001 9.00001H8.4138L10.7076 6.70751C10.8952 6.51987 11.0006 6.26537 11.0006 6.00001C11.0006 5.73464 10.8952 5.48015 10.7076 5.29251C10.5199 5.10487 10.2654 4.99945 10.0001 4.99945C9.73469 4.99945 9.48019 5.10487 9.29255 5.29251L5.29255 9.29251C5.19958 9.38538 5.12582 9.49567 5.07549 9.61707C5.02517 9.73846 4.99927 9.86859 4.99927 10C4.99927 10.1314 5.02517 10.2615 5.07549 10.3829C5.12582 10.5043 5.19958 10.6146 5.29255 10.7075L9.29255 14.7075Z" fill="#343330"/>
</svg>
