<svg width="32" height="32" viewBox="0 0 32 32" fill="none" xmlns="http://www.w3.org/2000/svg">
<path d="M25.9999 28.0001C25.9999 28.2653 25.8946 28.5196 25.7071 28.7072C25.5195 28.8947 25.2652 29.0001 24.9999 29.0001C21.5532 28.9964 18.2488 27.6256 15.8116 25.1884C13.3744 22.7512 12.0036 19.4468 11.9999 16.0001V6.4138L7.70745 10.7076C7.5198 10.8952 7.26531 11.0006 6.99995 11.0006C6.73458 11.0006 6.48009 10.8952 6.29245 10.7076C6.1048 10.5199 5.99939 10.2654 5.99939 10.0001C5.99939 9.73469 6.1048 9.48019 6.29245 9.29255L12.2924 3.29255C12.3853 3.19958 12.4956 3.12582 12.617 3.07549C12.7384 3.02517 12.8685 2.99927 12.9999 2.99927C13.1314 2.99927 13.2615 3.02517 13.3829 3.07549C13.5043 3.12582 13.6146 3.19958 13.7074 3.29255L19.7074 9.29255C19.8951 9.48019 20.0005 9.73469 20.0005 10.0001C20.0005 10.2654 19.8951 10.5199 19.7074 10.7076C19.5198 10.8952 19.2653 11.0006 18.9999 11.0006C18.7346 11.0006 18.4801 10.8952 18.2924 10.7076L13.9999 6.4138V16.0001C14.0033 18.9164 15.1632 21.7124 17.2254 23.7746C19.2876 25.8368 22.0836 26.9967 24.9999 27.0001C25.2652 27.0001 25.5195 27.1054 25.7071 27.2929C25.8946 27.4805 25.9999 27.7348 25.9999 28.0001Z" fill="#343330"/>
</svg>
