<svg width="32" height="32" viewBox="0 0 32 32" fill="none" xmlns="http://www.w3.org/2000/svg">
<path d="M27.7075 22.7075L21.7075 28.7075C21.5199 28.8951 21.2654 29.0006 21 29.0006C20.7346 29.0006 20.4801 28.8951 20.2925 28.7075C20.1049 28.5199 19.9994 28.2654 19.9994 28C19.9994 27.7346 20.1049 27.4801 20.2925 27.2925L24.5863 23H9C8.73478 23 8.48043 22.8946 8.29289 22.7071C8.10536 22.5196 8 22.2652 8 22V4C8 3.73478 8.10536 3.48043 8.29289 3.29289C8.48043 3.10536 8.73478 3 9 3C9.26522 3 9.51957 3.10536 9.70711 3.29289C9.89464 3.48043 10 3.73478 10 4V21H24.5863L20.2925 16.7075C20.1049 16.5199 19.9994 16.2654 19.9994 16C19.9994 15.7346 20.1049 15.4801 20.2925 15.2925C20.4801 15.1049 20.7346 14.9994 21 14.9994C21.2654 14.9994 21.5199 15.1049 21.7075 15.2925L27.7075 21.2925C27.8005 21.3854 27.8742 21.4957 27.9246 21.6171C27.9749 21.7385 28.0008 21.8686 28.0008 22C28.0008 22.1314 27.9749 22.2615 27.9246 22.3829C27.8742 22.5043 27.8005 22.6146 27.7075 22.7075Z" fill="#343330"/>
</svg>
