<svg width="32" height="32" viewBox="0 0 32 32" fill="none" xmlns="http://www.w3.org/2000/svg">
<path d="M29.0001 24.9999C29.0001 25.2652 28.8947 25.5195 28.7072 25.7071C28.5196 25.8946 28.2653 25.9999 28.0001 25.9999C27.7348 25.9999 27.4805 25.8946 27.2929 25.7071C27.1054 25.5195 27.0001 25.2652 27.0001 24.9999C26.9967 22.0836 25.8368 19.2876 23.7746 17.2254C21.7124 15.1632 18.9164 14.0033 16.0001 13.9999H6.4138L10.7076 18.2924C10.8952 18.4801 11.0006 18.7346 11.0006 18.9999C11.0006 19.2653 10.8952 19.5198 10.7076 19.7074C10.5199 19.8951 10.2654 20.0005 10.0001 20.0005C9.73469 20.0005 9.48019 19.8951 9.29255 19.7074L3.29255 13.7074C3.19958 13.6146 3.12582 13.5043 3.07549 13.3829C3.02517 13.2615 2.99927 13.1314 2.99927 12.9999C2.99927 12.8685 3.02517 12.7384 3.07549 12.617C3.12582 12.4956 3.19958 12.3853 3.29255 12.2924L9.29255 6.29245C9.48019 6.1048 9.73469 5.99939 10.0001 5.99939C10.2654 5.99939 10.5199 6.1048 10.7076 6.29245C10.8952 6.48009 11.0006 6.73458 11.0006 6.99995C11.0006 7.26531 10.8952 7.5198 10.7076 7.70745L6.4138 11.9999H16.0001C19.4468 12.0036 22.7512 13.3744 25.1884 15.8116C27.6256 18.2488 28.9964 21.5532 29.0001 24.9999Z" fill="#343330"/>
</svg>
