<svg width="32" height="32" viewBox="0 0 32 32" fill="none" xmlns="http://www.w3.org/2000/svg">
<path d="M29.7075 15.2925L17.7075 3.29249C17.5676 3.15248 17.3894 3.05712 17.1953 3.01846C17.0012 2.97981 16.8 2.99962 16.6172 3.07537C16.4344 3.15112 16.2782 3.27942 16.1683 3.44401C16.0584 3.60861 15.9998 3.8021 16 3.99999V8.99999H9C8.73478 8.99999 8.48043 9.10535 8.29289 9.29289C8.10536 9.48042 8 9.73478 8 9.99999V22C8 22.2652 8.10536 22.5196 8.29289 22.7071C8.48043 22.8946 8.73478 23 9 23H16V28C15.9998 28.1979 16.0584 28.3914 16.1683 28.556C16.2782 28.7206 16.4344 28.8489 16.6172 28.9246C16.8 29.0004 17.0012 29.0202 17.1953 28.9815C17.3894 28.9429 17.5676 28.8475 17.7075 28.7075L29.7075 16.7075C29.8005 16.6146 29.8742 16.5043 29.9246 16.3829C29.9749 16.2615 30.0008 16.1314 30.0008 16C30.0008 15.8686 29.9749 15.7385 29.9246 15.6171C29.8742 15.4957 29.8005 15.3854 29.7075 15.2925ZM18 25.5862V22C18 21.7348 17.8946 21.4804 17.7071 21.2929C17.5196 21.1054 17.2652 21 17 21H10V11H17C17.2652 11 17.5196 10.8946 17.7071 10.7071C17.8946 10.5196 18 10.2652 18 9.99999V6.41374L27.5863 16L18 25.5862ZM6 9.99999V22C6 22.2652 5.89464 22.5196 5.70711 22.7071C5.51957 22.8946 5.26522 23 5 23C4.73478 23 4.48043 22.8946 4.29289 22.7071C4.10536 22.5196 4 22.2652 4 22V9.99999C4 9.73478 4.10536 9.48042 4.29289 9.29289C4.48043 9.10535 4.73478 8.99999 5 8.99999C5.26522 8.99999 5.51957 9.10535 5.70711 9.29289C5.89464 9.48042 6 9.73478 6 9.99999Z" fill="#343330"/>
</svg>
