<svg width="32" height="32" viewBox="0 0 32 32" fill="none" xmlns="http://www.w3.org/2000/svg">
<path d="M14.7076 21.2925C14.8005 21.3854 14.8743 21.4957 14.9246 21.6171C14.975 21.7385 15.0009 21.8686 15.0009 22C15.0009 22.1314 14.975 22.2615 14.9246 22.3829C14.8743 22.5043 14.8005 22.6146 14.7076 22.7075L10.7076 26.7075C10.6147 26.8005 10.5044 26.8742 10.383 26.9246C10.2616 26.9749 10.1315 27.0008 10.0001 27.0008C9.86865 27.0008 9.73853 26.9749 9.61713 26.9246C9.49573 26.8742 9.38544 26.8005 9.29257 26.7075L5.29257 22.7075C5.19966 22.6146 5.12596 22.5043 5.07567 22.3829C5.02539 22.2615 4.99951 22.1314 4.99951 22C4.99951 21.8686 5.02539 21.7385 5.07567 21.6171C5.12596 21.4957 5.19966 21.3854 5.29257 21.2925C5.48021 21.1049 5.7347 20.9994 6.00007 20.9994C6.13146 20.9994 6.26157 21.0253 6.38296 21.0756C6.50436 21.1259 6.61466 21.1996 6.70757 21.2925L9.00007 23.5862V5.99999C9.00007 5.73478 9.10542 5.48042 9.29296 5.29289C9.4805 5.10535 9.73485 4.99999 10.0001 4.99999C10.2653 4.99999 10.5196 5.10535 10.7072 5.29289C10.8947 5.48042 11.0001 5.73478 11.0001 5.99999V23.5862L13.2926 21.2925C13.3854 21.1995 13.4957 21.1258 13.6171 21.0754C13.7385 21.0251 13.8687 20.9992 14.0001 20.9992C14.1315 20.9992 14.2616 21.0251 14.383 21.0754C14.5044 21.1258 14.6147 21.1995 14.7076 21.2925ZM26.7076 9.29249L22.7076 5.29249C22.6147 5.19952 22.5044 5.12576 22.383 5.07543C22.2616 5.02511 22.1315 4.99921 22.0001 4.99921C21.8687 4.99921 21.7385 5.02511 21.6171 5.07543C21.4957 5.12576 21.3854 5.19952 21.2926 5.29249L17.2926 9.29249C17.1049 9.48013 16.9995 9.73463 16.9995 9.99999C16.9995 10.2654 17.1049 10.5199 17.2926 10.7075C17.4802 10.8951 17.7347 11.0005 18.0001 11.0005C18.2654 11.0005 18.5199 10.8951 18.7076 10.7075L21.0001 8.41374V26C21.0001 26.2652 21.1054 26.5196 21.293 26.7071C21.4805 26.8946 21.7349 27 22.0001 27C22.2653 27 22.5196 26.8946 22.7072 26.7071C22.8947 26.5196 23.0001 26.2652 23.0001 26V8.41374L25.2926 10.7075C25.4802 10.8951 25.7347 11.0005 26.0001 11.0005C26.2654 11.0005 26.5199 10.8951 26.7076 10.7075C26.8952 10.5199 27.0006 10.2654 27.0006 9.99999C27.0006 9.73463 26.8952 9.48013 26.7076 9.29249Z" fill="#343330"/>
</svg>
