<svg width="32" height="32" viewBox="0 0 32 32" fill="none" xmlns="http://www.w3.org/2000/svg">
<path d="M27 9.875V10C27 11.3261 26.4732 12.5979 25.5355 13.5355C24.5979 14.4732 23.3261 15 22 15H17V25H18C18.4052 25.0002 18.8009 24.8773 19.1347 24.6476C19.4685 24.4179 19.7247 24.0923 19.8693 23.7137C20.0139 23.3352 20.0402 22.9217 19.9445 22.5279C19.8489 22.1342 19.6359 21.7788 19.3337 21.5088C19.1461 21.3295 19.0355 21.0843 19.0253 20.825C19.0151 20.5657 19.1062 20.3125 19.2792 20.1191C19.4522 19.9257 19.6936 19.8071 19.9524 19.7883C20.2112 19.7696 20.4672 19.8522 20.6663 20.0187C21.27 20.5588 21.6955 21.2694 21.8865 22.0566C22.0776 22.8438 22.0251 23.6704 21.7361 24.4271C21.4471 25.1838 20.9352 25.835 20.2681 26.2944C19.6009 26.7538 18.81 26.9999 18 27H17V29C17 29.2652 16.8946 29.5196 16.7071 29.7071C16.5196 29.8946 16.2652 30 16 30C15.7348 30 15.4804 29.8946 15.2929 29.7071C15.1054 29.5196 15 29.2652 15 29V27H12C11.7348 27 11.4804 26.8946 11.2929 26.7071C11.1054 26.5196 11 26.2652 11 26C11 25.7348 11.1054 25.4804 11.2929 25.2929C11.4804 25.1054 11.7348 25 12 25H15V15H12C11.4696 15 10.9609 15.2107 10.5858 15.5858C10.2107 15.9609 10 16.4696 10 17C10 17.5304 10.2107 18.0391 10.5858 18.4142C10.9609 18.7893 11.4696 19 12 19C12.2652 19 12.5196 19.1054 12.7071 19.2929C12.8946 19.4804 13 19.7348 13 20C13 20.2652 12.8946 20.5196 12.7071 20.7071C12.5196 20.8946 12.2652 21 12 21C10.9391 21 9.92172 20.5786 9.17157 19.8284C8.42143 19.0783 8 18.0609 8 17C8 15.9391 8.42143 14.9217 9.17157 14.1716C9.92172 13.4214 10.9391 13 12 13H15V3C15 2.73478 15.1054 2.48043 15.2929 2.29289C15.4804 2.10536 15.7348 2 16 2C16.2652 2 16.5196 2.10536 16.7071 2.29289C16.8946 2.48043 17 2.73478 17 3V13H22C22.7956 13 23.5587 12.6839 24.1213 12.1213C24.6839 11.5587 25 10.7956 25 10V9.875C25 9.1125 24.6971 8.38124 24.1579 7.84207C23.6188 7.3029 22.8875 7 22.125 7H20C19.7348 7 19.4804 6.89464 19.2929 6.70711C19.1054 6.51957 19 6.26522 19 6C19 5.73478 19.1054 5.48043 19.2929 5.29289C19.4804 5.10536 19.7348 5 20 5H22.125C23.4179 5 24.6579 5.51361 25.5721 6.42785C26.4864 7.34209 27 8.58207 27 9.875ZM7 12H4C3.73478 12 3.48043 11.8946 3.29289 11.7071C3.10536 11.5196 3 11.2652 3 11V10C3 8.67392 3.52678 7.40215 4.46447 6.46447C5.40215 5.52678 6.67392 5 8 5H12C12.2652 5 12.5196 5.10536 12.7071 5.29289C12.8946 5.48043 13 5.73478 13 6C13 6.26522 12.8946 6.51957 12.7071 6.70711C12.5196 6.89464 12.2652 7 12 7C12 7.65661 11.8707 8.30679 11.6194 8.91342C11.3681 9.52004 10.9998 10.0712 10.5355 10.5355C10.0712 10.9998 9.52004 11.3681 8.91342 11.6194C8.30679 11.8707 7.65661 12 7 12ZM10 7H8C7.20435 7 6.44129 7.31607 5.87868 7.87868C5.31607 8.44129 5 9.20435 5 10H7C7.79565 10 8.55871 9.68393 9.12132 9.12132C9.68393 8.55871 10 7.79565 10 7Z" fill="#343330"/>
</svg>
