<svg width="32" height="32" viewBox="0 0 32 32" fill="none" xmlns="http://www.w3.org/2000/svg">
<path d="M26.8575 22.515C26.7899 22.628 26.7007 22.7265 26.5949 22.8049C26.4891 22.8833 26.3689 22.94 26.2412 22.9718C26.1134 23.0036 25.9806 23.0099 25.8505 22.9903C25.7203 22.9707 25.5952 22.9256 25.4825 22.8575L17 17.7663V27C17 27.2652 16.8947 27.5196 16.7071 27.7071C16.5196 27.8946 16.2652 28 16 28C15.7348 28 15.4805 27.8946 15.2929 27.7071C15.1054 27.5196 15 27.2652 15 27V17.7663L6.51503 22.8575C6.40238 22.9267 6.27712 22.9729 6.1465 22.9934C6.01589 23.0139 5.88251 23.0082 5.75408 22.9768C5.62565 22.9454 5.50472 22.8889 5.39829 22.8104C5.29186 22.732 5.20204 22.6332 5.13403 22.5198C5.06602 22.4065 5.02117 22.2807 5.00207 22.1499C4.98297 22.0191 4.99 21.8858 5.02276 21.7577C5.05552 21.6296 5.11335 21.5093 5.19291 21.4037C5.27248 21.2981 5.37219 21.2093 5.48628 21.1425L14.0563 16L5.48628 10.8575C5.37219 10.7907 5.27248 10.7019 5.19291 10.5963C5.11335 10.4907 5.05552 10.3704 5.02276 10.2423C4.99 10.1142 4.98297 9.98092 5.00207 9.85009C5.02117 9.71927 5.06602 9.59353 5.13403 9.48015C5.20204 9.36677 5.29186 9.268 5.39829 9.18956C5.50472 9.11112 5.62565 9.05457 5.75408 9.02317C5.88251 8.99177 6.01589 8.98614 6.1465 9.00663C6.27712 9.02711 6.40238 9.07329 6.51503 9.1425L15 14.2338V5C15 4.73478 15.1054 4.48043 15.2929 4.29289C15.4805 4.10536 15.7348 4 16 4C16.2652 4 16.5196 4.10536 16.7071 4.29289C16.8947 4.48043 17 4.73478 17 5V14.2338L25.485 9.1425C25.5977 9.07329 25.7229 9.02711 25.8536 9.00663C25.9842 8.98614 26.1176 8.99177 26.246 9.02317C26.3744 9.05457 26.4953 9.11112 26.6018 9.18956C26.7082 9.268 26.798 9.36677 26.866 9.48015C26.934 9.59353 26.9789 9.71927 26.998 9.85009C27.0171 9.98092 27.0101 10.1142 26.9773 10.2423C26.9445 10.3704 26.8867 10.4907 26.8071 10.5963C26.7276 10.7019 26.6279 10.7907 26.5138 10.8575L17.9438 16L26.5138 21.1425C26.6265 21.21 26.7248 21.2991 26.8031 21.4046C26.8814 21.5101 26.9382 21.63 26.9701 21.7575C27.002 21.885 27.0085 22.0175 26.9892 22.1475C26.9699 22.2774 26.9251 22.4023 26.8575 22.515Z" fill="#343330"/>
</svg>
