<svg width="32" height="32" viewBox="0 0 32 32" fill="none" xmlns="http://www.w3.org/2000/svg">
<path d="M26.375 12.9288L17.6088 16.4287L23.7925 24.38C23.8753 24.4835 23.9367 24.6023 23.9732 24.7297C24.0096 24.8571 24.0204 24.9905 24.0049 25.1221C23.9894 25.2537 23.9478 25.3809 23.8827 25.4963C23.8176 25.6117 23.7302 25.713 23.6256 25.7943C23.521 25.8756 23.4013 25.9354 23.2734 25.97C23.1455 26.0047 23.012 26.0136 22.8806 25.9962C22.7492 25.9788 22.6226 25.9355 22.5082 25.8688C22.3937 25.8021 22.2936 25.7132 22.2138 25.6075L16 17.625L9.79001 25.6138C9.62581 25.8189 9.38746 25.9512 9.12649 25.982C8.86552 26.0128 8.60292 25.9396 8.39547 25.7783C8.18801 25.617 8.05239 25.3806 8.01792 25.1201C7.98345 24.8596 8.0529 24.596 8.21126 24.3862L14.395 16.435L5.62501 12.9288C5.37869 12.8293 5.18197 12.6361 5.07812 12.3916C4.97427 12.1471 4.97181 11.8713 5.07126 11.625C5.17072 11.3787 5.36395 11.182 5.60845 11.0781C5.85295 10.9743 6.12869 10.9718 6.37501 11.0712L15 14.5225V5C15 4.73478 15.1054 4.48043 15.2929 4.29289C15.4804 4.10536 15.7348 4 16 4C16.2652 4 16.5196 4.10536 16.7071 4.29289C16.8947 4.48043 17 4.73478 17 5V14.5225L25.625 11.0712C25.747 11.022 25.8774 10.9973 26.009 10.9984C26.1405 10.9996 26.2705 11.0267 26.3916 11.0781C26.5126 11.1295 26.6224 11.2043 26.7146 11.2981C26.8067 11.392 26.8795 11.503 26.9288 11.625C26.978 11.747 27.0028 11.8774 27.0016 12.009C27.0004 12.1405 26.9733 12.2705 26.9219 12.3916C26.8705 12.5126 26.7957 12.6224 26.7019 12.7145C26.608 12.8067 26.497 12.8795 26.375 12.9288Z" fill="#343330"/>
</svg>
