<svg width="32" height="32" viewBox="0 0 32 32" fill="none" xmlns="http://www.w3.org/2000/svg">
<path d="M24.5151 16C27.5963 11.6737 29.1676 7.2025 26.9826 5.0175C24.7976 2.8325 20.3263 4.40375 16.0001 7.485C11.6738 4.40375 7.20256 2.8325 5.01756 5.0175C2.83256 7.2025 4.40381 11.6737 7.48506 16C4.40381 20.3262 2.83256 24.7975 5.01756 26.9825C5.72131 27.6862 6.66131 28 7.75631 28C10.0663 28 13.0663 26.6037 16.0063 24.515C18.9338 26.6037 21.9338 28 24.2501 28C25.3451 28 26.2863 27.685 26.9888 26.9825C29.1676 24.7975 27.5963 20.3262 24.5151 16ZM25.5688 6.43125C26.5238 7.38625 25.8788 10.4812 23.2538 14.3412C22.4234 13.3132 21.5392 12.3298 20.6051 11.395C19.6702 10.4621 18.6867 9.57923 17.6588 8.75C21.5188 6.125 24.6138 5.475 25.5688 6.43125ZM22.0363 16C21.1518 17.119 20.2018 18.1846 19.1913 19.1912C18.1846 20.2017 17.119 21.1517 16.0001 22.0362C14.8811 21.1517 13.8155 20.2017 12.8088 19.1912C11.7983 18.1846 10.8483 17.119 9.96381 16C11.7384 13.7637 13.7638 11.7384 16.0001 9.96375C17.119 10.8483 18.1846 11.7983 19.1913 12.8087C20.2018 13.8154 21.1518 14.881 22.0363 16ZM6.43131 6.43125C6.70631 6.155 7.16006 6.0125 7.75881 6.0125C9.23631 6.0125 11.5951 6.875 14.3401 8.75C13.3131 9.5799 12.3301 10.4628 11.3951 11.395C10.4622 12.3299 9.57929 13.3133 8.75006 14.3412C6.12506 10.4812 5.47631 7.38625 6.43131 6.43125ZM6.43131 25.5687C5.47631 24.6137 6.12506 21.5187 8.75006 17.6587C9.5805 18.6868 10.4647 19.6702 11.3988 20.605C12.3331 21.5371 13.3152 22.42 14.3413 23.25C10.4813 25.875 7.38631 26.525 6.43131 25.5687ZM25.5688 25.5687C24.6138 26.525 21.5188 25.8787 17.6588 23.2537C18.6863 22.4226 19.6697 21.5385 20.6051 20.605C21.5379 19.6701 22.4208 18.6867 23.2501 17.6587C25.8751 21.5187 26.5238 24.6137 25.5688 25.5687ZM17.5001 16C17.5001 16.2967 17.4121 16.5867 17.2473 16.8334C17.0824 17.08 16.8482 17.2723 16.5741 17.3858C16.3 17.4993 15.9984 17.5291 15.7074 17.4712C15.4165 17.4133 15.1492 17.2704 14.9394 17.0607C14.7296 16.8509 14.5868 16.5836 14.5289 16.2926C14.471 16.0017 14.5007 15.7001 14.6142 15.426C14.7278 15.1519 14.92 14.9176 15.1667 14.7528C15.4134 14.588 15.7034 14.5 16.0001 14.5C16.3979 14.5 16.7794 14.658 17.0607 14.9393C17.342 15.2206 17.5001 15.6022 17.5001 16Z" fill="#343330"/>
</svg>
