<svg width="32" height="32" viewBox="0 0 32 32" fill="none" xmlns="http://www.w3.org/2000/svg">
<path d="M16 13.9999C14.8133 13.9999 13.6533 14.3518 12.6666 15.0111C11.6799 15.6704 10.9108 16.6075 10.4567 17.7038C10.0026 18.8002 9.88377 20.0066 10.1153 21.1705C10.3468 22.3344 10.9182 23.4035 11.7573 24.2426C12.5965 25.0817 13.6656 25.6531 14.8294 25.8847C15.9933 26.1162 17.1997 25.9973 18.2961 25.5432C19.3924 25.0891 20.3295 24.3201 20.9888 23.3334C21.6481 22.3467 22 21.1866 22 19.9999C21.9983 18.4092 21.3657 16.884 20.2408 15.7591C19.1159 14.6343 17.5908 14.0016 16 13.9999ZM16 23.9999C15.2089 23.9999 14.4355 23.7653 13.7777 23.3258C13.1199 22.8863 12.6072 22.2616 12.3045 21.5307C12.0017 20.7998 11.9225 19.9955 12.0768 19.2196C12.2312 18.4437 12.6122 17.7309 13.1716 17.1715C13.731 16.6121 14.4437 16.2311 15.2196 16.0768C15.9956 15.9225 16.7998 16.0017 17.5307 16.3044C18.2616 16.6072 18.8863 17.1199 19.3259 17.7777C19.7654 18.4355 20 19.2088 20 19.9999C20 21.0608 19.5786 22.0782 18.8284 22.8284C18.0783 23.5785 17.0609 23.9999 16 23.9999ZM26.375 16.3324L22.65 5.80869C22.1934 4.42094 21.314 3.21084 20.1351 2.34796C18.9562 1.48509 17.5368 1.0127 16.076 0.996987C14.6151 0.981276 13.1859 1.42303 11.9888 2.26035C10.7916 3.09767 9.88636 4.28858 9.39999 5.66619L5.71124 16.1037C5.0859 17.7589 4.86907 19.5405 5.07915 21.2974C5.28923 23.0542 5.92002 24.7345 6.918 26.1956C7.91597 27.6567 9.25168 28.8555 10.8118 29.6902C12.3719 30.525 14.1103 30.9711 15.8796 30.9907C17.6489 31.0102 19.3967 30.6027 20.9749 29.8027C22.5531 29.0027 23.915 27.8338 24.9451 26.3952C25.9752 24.9565 26.643 23.2906 26.8919 21.5388C27.1409 19.7871 26.9635 18.0011 26.375 16.3324ZM16 28.9999C14.5428 28.999 13.1075 28.6444 11.8175 27.9667C10.5275 27.2889 9.42114 26.3083 8.59349 25.1089C7.76584 23.9095 7.24158 22.5272 7.0657 21.0807C6.88983 19.6341 7.06759 18.1664 7.58374 16.8037C7.58611 16.796 7.58904 16.7885 7.59249 16.7812L11.285 6.33244C11.6325 5.34755 12.2798 4.49622 13.1358 3.89793C13.9919 3.29964 15.0138 2.98445 16.0581 2.99658C17.1025 3.00871 18.1168 3.34757 18.9587 3.96559C19.8007 4.5836 20.4279 5.44975 20.7525 6.44244L20.76 6.46494L24.4875 16.9999C24.966 18.3576 25.1121 19.8102 24.9135 21.2359C24.715 22.6617 24.1776 24.0191 23.3463 25.1944C22.5151 26.3696 21.4142 27.3285 20.136 27.9906C18.8578 28.6528 17.4395 28.9989 16 28.9999Z" fill="#343330"/>
</svg>
