<svg width="32" height="32" viewBox="0 0 32 32" fill="none" xmlns="http://www.w3.org/2000/svg">
<path d="M31.8937 12.215C31.774 11.8587 31.5564 11.5432 31.2656 11.3049C30.9749 11.0665 30.6229 10.915 30.2499 10.8675C27.9681 10.561 25.7719 9.79558 23.7937 8.61754L25.0824 7.33004C25.6254 6.73623 25.9184 5.95587 25.9004 5.15145C25.8824 4.34704 25.5548 3.58056 24.9859 3.01161C24.4169 2.44265 23.6505 2.11508 22.846 2.0971C22.0416 2.07911 21.2613 2.37209 20.6674 2.91504L19.0174 4.56629C18.7262 4.21629 18.5412 3.96129 18.4662 3.85504C18.2988 3.6159 18.0811 3.41631 17.8284 3.27026C17.5756 3.12422 17.294 3.03527 17.0032 3.00966C16.7124 2.98405 16.4196 3.0224 16.1452 3.12201C15.8708 3.22163 15.6216 3.3801 15.4149 3.58629L10.5849 8.42004C10.3789 8.62656 10.2205 8.87566 10.121 9.14986C10.0214 9.42406 9.98298 9.71672 10.0085 10.0073C10.034 10.2979 10.1227 10.5795 10.2685 10.8321C10.4143 11.0848 10.6136 11.3025 10.8524 11.47C10.9599 11.545 11.2149 11.73 11.5649 12.0213L0.913698 22.6713C0.370748 23.2651 0.0777649 24.0455 0.0957525 24.8499C0.11374 25.6543 0.441312 26.4208 1.01026 26.9897C1.57921 27.5587 2.34569 27.8862 3.15011 27.9042C3.95453 27.9222 4.73488 27.6292 5.3287 27.0863L15.6162 16.7975C16.7937 18.776 17.559 20.972 17.8662 23.2538C17.9142 23.6259 18.0659 23.977 18.3039 24.267C18.542 24.557 18.8568 24.7742 19.2124 24.8938C19.4199 24.9637 19.6373 24.9996 19.8562 25C20.1179 24.9999 20.3769 24.9481 20.6185 24.8474C20.86 24.7468 21.0793 24.5995 21.2637 24.4138L31.4112 14.265C31.6761 14.0032 31.8618 13.672 31.9472 13.3094C32.0325 12.9468 32.014 12.5676 31.8937 12.215ZM22.0862 4.32879C22.1865 4.20937 22.3105 4.1121 22.4504 4.04317C22.5903 3.97424 22.743 3.93515 22.8989 3.92838C23.0547 3.92162 23.2102 3.94732 23.3555 4.00386C23.5009 4.06041 23.6329 4.14655 23.7432 4.25683C23.8534 4.36711 23.9396 4.49911 23.9961 4.64446C24.0527 4.78981 24.0784 4.94533 24.0716 5.10114C24.0648 5.25695 24.0257 5.40965 23.9568 5.54955C23.8879 5.68945 23.7906 5.81349 23.6712 5.91379L22.1024 7.48254C21.5026 7.03131 20.9299 6.54505 20.3874 6.02629L22.0862 4.32879ZM3.9137 25.6713C3.81339 25.7907 3.68936 25.888 3.54946 25.9569C3.40956 26.0258 3.25686 26.0649 3.10104 26.0717C2.94523 26.0785 2.78972 26.0528 2.64437 25.9962C2.49902 25.9397 2.36702 25.8535 2.25674 25.7432C2.14646 25.633 2.06031 25.501 2.00377 25.3556C1.94723 25.2103 1.92152 25.0548 1.92829 24.8989C1.93506 24.7431 1.97415 24.5904 2.04308 24.4505C2.11201 24.3106 2.20927 24.1866 2.3287 24.0863L13.0262 13.3888C13.5453 13.9306 14.0315 14.5028 14.4824 15.1025L3.9137 25.6713ZM19.8499 22.99C18.7499 14.7863 12.6899 10.315 11.9999 9.83379L16.8324 5.00004C17.3149 5.68754 21.7862 11.75 29.9887 12.8475L19.8499 22.99Z" fill="#343330"/>
</svg>
