<svg width="32" height="32" viewBox="0 0 32 32" fill="none" xmlns="http://www.w3.org/2000/svg">
<path d="M26.9999 5H8.56619C8.22099 5.00099 7.88186 5.09088 7.58148 5.26099C7.2811 5.43111 7.02959 5.67571 6.85119 5.97125L1.14244 15.485C1.049 15.6405 0.999634 15.8186 0.999634 16C0.999634 16.1814 1.049 16.3595 1.14244 16.515L6.85119 26.0287C7.02959 26.3243 7.2811 26.5689 7.58148 26.739C7.88186 26.9091 8.22099 26.999 8.56619 27H26.9999C27.5304 27 28.0391 26.7893 28.4142 26.4142C28.7892 26.0391 28.9999 25.5304 28.9999 25V7C28.9999 6.46957 28.7892 5.96086 28.4142 5.58579C28.0391 5.21071 27.5304 5 26.9999 5ZM26.9999 25H8.56619L3.16619 16L8.56619 7H26.9999V25ZM13.2924 18.2925L15.5862 16L13.2924 13.7075C13.1048 13.5199 12.9994 13.2654 12.9994 13C12.9994 12.7346 13.1048 12.4801 13.2924 12.2925C13.4801 12.1049 13.7346 11.9994 13.9999 11.9994C14.2653 11.9994 14.5198 12.1049 14.7074 12.2925L16.9999 14.5863L19.2924 12.2925C19.3854 12.1996 19.4957 12.1259 19.617 12.0756C19.7384 12.0253 19.8685 11.9994 19.9999 11.9994C20.1313 11.9994 20.2614 12.0253 20.3828 12.0756C20.5042 12.1259 20.6145 12.1996 20.7074 12.2925C20.8004 12.3854 20.8741 12.4957 20.9243 12.6171C20.9746 12.7385 21.0005 12.8686 21.0005 13C21.0005 13.1314 20.9746 13.2615 20.9243 13.3829C20.8741 13.5043 20.8004 13.6146 20.7074 13.7075L18.4137 16L20.7074 18.2925C20.8004 18.3854 20.8741 18.4957 20.9243 18.6171C20.9746 18.7385 21.0005 18.8686 21.0005 19C21.0005 19.1314 20.9746 19.2615 20.9243 19.3829C20.8741 19.5043 20.8004 19.6146 20.7074 19.7075C20.6145 19.8004 20.5042 19.8741 20.3828 19.9244C20.2614 19.9747 20.1313 20.0006 19.9999 20.0006C19.8685 20.0006 19.7384 19.9747 19.617 19.9244C19.4957 19.8741 19.3854 19.8004 19.2924 19.7075L16.9999 17.4137L14.7074 19.7075C14.6145 19.8004 14.5042 19.8741 14.3828 19.9244C14.2614 19.9747 14.1313 20.0006 13.9999 20.0006C13.8685 20.0006 13.7384 19.9747 13.617 19.9244C13.4957 19.8741 13.3854 19.8004 13.2924 19.7075C13.1995 19.6146 13.1258 19.5043 13.0756 19.3829C13.0253 19.2615 12.9994 19.1314 12.9994 19C12.9994 18.8686 13.0253 18.7385 13.0756 18.6171C13.1258 18.4957 13.1995 18.3854 13.2924 18.2925Z" fill="#343330"/>
</svg>
