<svg width="32" height="32" viewBox="0 0 32 32" fill="none" xmlns="http://www.w3.org/2000/svg">
<path d="M30 24H29V16.3213L29.1862 16.5813C29.2599 16.6945 29.3556 16.7917 29.4678 16.8669C29.58 16.9421 29.7063 16.9939 29.8391 17.0189C29.9718 17.044 30.1082 17.0419 30.2401 17.0128C30.372 16.9837 30.4967 16.9282 30.6065 16.8496C30.7164 16.771 30.8092 16.671 30.8793 16.5556C30.9495 16.4401 30.9955 16.3117 31.0146 16.1779C31.0338 16.0442 31.0256 15.908 30.9906 15.7775C30.9557 15.6471 30.8947 15.525 30.8112 15.4188L25.8112 8.41877C25.7427 8.32394 25.6581 8.24186 25.5612 8.17627L17.125 2.34627L17.1125 2.33752C16.7838 2.11824 16.3976 2.00122 16.0025 2.00122C15.6074 2.00122 15.2212 2.11824 14.8925 2.33752L14.88 2.34627L6.43124 8.17752C6.33437 8.24311 6.24975 8.32519 6.18124 8.42002L1.18124 15.42C1.09782 15.5263 1.0368 15.6483 1.00184 15.7788C0.966882 15.9093 0.958722 16.0455 0.977852 16.1792C0.996982 16.3129 1.04301 16.4414 1.11314 16.5568C1.18328 16.6723 1.27608 16.7723 1.38594 16.8509C1.49581 16.9295 1.62045 16.985 1.75236 17.0141C1.88427 17.0432 2.0207 17.0453 2.15344 17.0202C2.28617 16.9951 2.41244 16.9434 2.52464 16.8682C2.63684 16.793 2.73263 16.6958 2.80624 16.5825L2.99999 16.3213V24H1.99999C1.73478 24 1.48042 24.1054 1.29289 24.2929C1.10535 24.4804 0.999993 24.7348 0.999993 25C0.999993 25.2652 1.10535 25.5196 1.29289 25.7071C1.48042 25.8947 1.73478 26 1.99999 26H30C30.2652 26 30.5196 25.8947 30.7071 25.7071C30.8946 25.5196 31 25.2652 31 25C31 24.7348 30.8946 24.4804 30.7071 24.2929C30.5196 24.1054 30.2652 24 30 24ZM4.99999 13.5213L7.71249 9.72377L16 4.00002L24.2875 9.72252L27 13.5213V24H24V15C24 14.7348 23.8946 14.4804 23.7071 14.2929C23.5196 14.1054 23.2652 14 23 14H8.99999C8.73478 14 8.48042 14.1054 8.29289 14.2929C8.10535 14.4804 7.99999 14.7348 7.99999 15V24H4.99999V13.5213ZM16 18.7713L12.125 16H19.875L16 18.7713ZM22 16.9438V23.0575L17.72 20L22 16.9438ZM14.28 20L9.99999 23.0575V16.9438L14.28 20ZM16 21.2288L19.875 24H12.125L16 21.2288ZM13 11C13 10.7348 13.1053 10.4804 13.2929 10.2929C13.4804 10.1054 13.7348 10 14 10H18C18.2652 10 18.5196 10.1054 18.7071 10.2929C18.8946 10.4804 19 10.7348 19 11C19 11.2652 18.8946 11.5196 18.7071 11.7071C18.5196 11.8947 18.2652 12 18 12H14C13.7348 12 13.4804 11.8947 13.2929 11.7071C13.1053 11.5196 13 11.2652 13 11Z" fill="#343330"/>
</svg>
