<svg width="32" height="32" viewBox="0 0 32 32" fill="none" xmlns="http://www.w3.org/2000/svg">
<path d="M16 3C13.4288 3 10.9154 3.76244 8.77759 5.1909C6.63975 6.61935 4.9735 8.64968 3.98956 11.0251C3.00563 13.4006 2.74818 16.0144 3.24979 18.5362C3.7514 21.0579 4.98953 23.3743 6.80761 25.1924C8.62569 27.0105 10.9421 28.2486 13.4638 28.7502C15.9856 29.2518 18.5994 28.9944 20.9749 28.0104C23.3503 27.0265 25.3806 25.3603 26.8091 23.2224C28.2376 21.0846 29 18.5712 29 16C28.9964 12.5533 27.6255 9.24882 25.1884 6.81163C22.7512 4.37445 19.4467 3.00364 16 3ZM7.5 9.02125C8.9035 10.7203 9.75903 12.8049 9.95375 15H5.04625C5.24358 12.8055 6.0988 10.7217 7.5 9.02125ZM17 15V5.04625C19.2419 5.24929 21.3666 6.1384 23.085 7.5925C21.3078 9.67511 20.2404 12.2697 20.0375 15H17ZM15 15H11.9625C11.7596 12.2697 10.6921 9.67511 8.915 7.5925C10.6334 6.1384 12.7581 5.24929 15 5.04625V15ZM9.95375 17C9.75903 19.1951 8.9035 21.2797 7.5 22.9788C6.0988 21.2783 5.24358 19.1945 5.04625 17H9.95375ZM11.9625 17H15V26.9538C12.7581 26.7507 10.6334 25.8616 8.915 24.4075C10.6919 22.3248 11.7593 19.7302 11.9625 17ZM17 17H20.0375C20.2407 19.7302 21.3081 22.3248 23.085 24.4075C21.3666 25.8616 19.2419 26.7507 17 26.9538V17ZM22.0462 17H26.9537C26.7564 19.1945 25.9012 21.2783 24.5 22.9788C23.0965 21.2797 22.241 19.1951 22.0462 17ZM22.0462 15C22.241 12.8049 23.0965 10.7203 24.5 9.02125C25.9012 10.7217 26.7564 12.8055 26.9537 15H22.0462Z" fill="#343330"/>
</svg>
