<svg width="32" height="32" viewBox="0 0 32 32" fill="none" xmlns="http://www.w3.org/2000/svg">
<path d="M16 3C13.4288 3 10.9154 3.76244 8.77759 5.1909C6.63975 6.61935 4.97351 8.64968 3.98957 11.0251C3.00563 13.4006 2.74818 16.0144 3.24979 18.5362C3.7514 21.0579 4.98953 23.3743 6.80761 25.1924C8.62569 27.0105 10.9421 28.2486 13.4638 28.7502C15.9856 29.2518 18.5994 28.9944 20.9749 28.0104C23.3503 27.0265 25.3806 25.3603 26.8091 23.2224C28.2376 21.0846 29 18.5712 29 16C28.9964 12.5533 27.6256 9.24882 25.1884 6.81163C22.7512 4.37445 19.4467 3.00364 16 3ZM26.2125 11.9125C24.5465 11.399 22.8313 11.0613 21.095 10.905C20.9387 9.16867 20.601 7.45349 20.0875 5.7875C21.4677 6.34433 22.7215 7.17373 23.7739 8.22612C24.8263 9.27851 25.6557 10.5323 26.2125 11.9125ZM27 16C27.0005 17.1511 26.8199 18.295 26.465 19.39C25.5583 17.1442 24.3305 15.0419 22.82 13.1488C24.1968 13.3893 25.5487 13.7554 26.8587 14.2425C26.9527 14.8236 26.9999 15.4113 27 16ZM17.7575 5.14125C18.2446 6.45128 18.6107 7.80318 18.8512 9.18C16.9581 7.6695 14.8558 6.44171 12.61 5.535C14.2703 4.9975 16.0347 4.86254 17.7575 5.14125ZM10.055 6.75C12.8429 7.61167 15.4413 8.99633 17.7113 10.83C13.1979 11.0313 8.82314 12.4507 5.05125 14.9375C5.2136 13.2837 5.74807 11.6881 6.61462 10.2702C7.48117 8.85228 8.65733 7.64883 10.055 6.75ZM5.08375 17.3575C9.15614 14.3252 14.1171 12.7251 19.1938 12.8062C19.2749 17.8829 17.6748 22.8439 14.6425 26.9163C12.2141 26.6104 9.9565 25.505 8.22577 23.7742C6.49504 22.0435 5.3896 19.7859 5.08375 17.3575ZM17.0625 26.9487C19.5497 23.177 20.9695 18.8023 21.1712 14.2887C23.0045 16.5588 24.3887 19.1572 25.25 21.945C24.3512 23.3427 23.1477 24.5188 21.7298 25.3854C20.3119 26.2519 18.7163 26.7864 17.0625 26.9487Z" fill="#343330"/>
</svg>
