<svg width="32" height="32" viewBox="0 0 32 32" fill="none" xmlns="http://www.w3.org/2000/svg">
<path d="M28 20.27V18C27.995 15.3339 27.1041 12.7452 25.4672 10.6408C23.8303 8.5364 21.5404 7.0358 18.9575 6.37498C19.2925 5.84564 19.4793 5.23609 19.4984 4.60994C19.5175 3.98379 19.3681 3.364 19.066 2.81523C18.7639 2.26647 18.32 1.80885 17.7807 1.49014C17.2414 1.17143 16.6264 1.0033 16 1.0033C15.3736 1.0033 14.7586 1.17143 14.2193 1.49014C13.68 1.80885 13.2361 2.26647 12.934 2.81523C12.6319 3.364 12.4825 3.98379 12.5016 4.60994C12.5207 5.23609 12.7075 5.84564 13.0425 6.37498C10.4596 7.0358 8.16971 8.5364 6.53282 10.6408C4.89593 12.7452 4.00495 15.3339 4 18V20.27C3.69626 20.4453 3.44398 20.6975 3.26846 21.0011C3.09294 21.3048 3.00036 21.6493 3 22V26C3 26.5304 3.21071 27.0391 3.58579 27.4142C3.96086 27.7893 4.46957 28 5 28H27C27.5304 28 28.0391 27.7893 28.4142 27.4142C28.7893 27.0391 29 26.5304 29 26V22C28.9996 21.6493 28.9071 21.3048 28.7315 21.0011C28.556 20.6975 28.3037 20.4453 28 20.27ZM14.5 4.49998C14.5 4.20331 14.588 3.9133 14.7528 3.66662C14.9176 3.41995 15.1519 3.22769 15.426 3.11416C15.7001 3.00063 16.0017 2.97092 16.2926 3.0288C16.5836 3.08668 16.8509 3.22954 17.0607 3.43932C17.2704 3.6491 17.4133 3.91637 17.4712 4.20734C17.5291 4.49831 17.4993 4.79991 17.3858 5.074C17.2723 5.34809 17.08 5.58236 16.8334 5.74718C16.5867 5.912 16.2967 5.99998 16 5.99998C15.6022 5.99998 15.2206 5.84194 14.9393 5.56064C14.658 5.27933 14.5 4.8978 14.5 4.49998ZM16 7.99998C18.6513 8.00296 21.1931 9.05748 23.0678 10.9322C24.9425 12.8069 25.997 15.3487 26 18V20H6V18C6.00298 15.3487 7.0575 12.8069 8.93222 10.9322C10.8069 9.05748 13.3487 8.00296 16 7.99998ZM15 22V26H10V22H15ZM17 22H22V26H17V22ZM5 22H8V26H5V22ZM27 26H24V22H27V26Z" fill="#343330"/>
</svg>
