<svg width="32" height="32" viewBox="0 0 32 32" fill="none" xmlns="http://www.w3.org/2000/svg">
<path d="M30.7074 5.29245L26.7074 1.29245C26.5198 1.10481 26.2653 0.99939 25.9999 0.99939C25.7346 0.99939 25.4801 1.10481 25.2924 1.29245C25.1048 1.48009 24.9994 1.73458 24.9994 1.99995C24.9994 2.26531 25.1048 2.51981 25.2924 2.70745L25.4774 2.8912L18.5812 8.0637L13.8037 9.01995C13.6103 9.0587 13.4325 9.15346 13.2924 9.29245L2.87495 19.7074C2.31238 20.2701 1.99634 21.0331 1.99634 21.8287C1.99634 22.6243 2.31238 23.3873 2.87495 23.9499L8.04995 29.1249C8.61255 29.6875 9.37558 30.0036 10.1712 30.0036C10.9668 30.0036 11.7298 29.6875 12.2924 29.1249L22.7074 18.7112C22.8467 18.5714 22.9415 18.3935 22.9799 18.1999L23.9362 13.4224L29.1087 6.5262L29.2924 6.7112C29.3854 6.80411 29.4957 6.87781 29.6171 6.92809C29.7384 6.97837 29.8686 7.00425 29.9999 7.00425C30.1313 7.00425 30.2614 6.97837 30.3828 6.92809C30.5042 6.87781 30.6145 6.80411 30.7074 6.7112C30.8004 6.61829 30.8741 6.50799 30.9243 6.38659C30.9746 6.2652 31.0005 6.13509 31.0005 6.0037C31.0005 5.8723 30.9746 5.74219 30.9243 5.6208C30.8741 5.49941 30.8004 5.38911 30.7074 5.2962V5.29245ZM11.9999 13.4137L18.5862 19.9999L12.9999 25.5862L6.4137 18.9999L11.9999 13.4137ZM10.1712 27.9999C10.04 28.0003 9.91001 27.9746 9.78878 27.9244C9.66756 27.8742 9.55749 27.8005 9.46495 27.7074L4.29245 22.5349C4.10505 22.3474 3.99979 22.0932 3.99979 21.8281C3.99979 21.563 4.10505 21.3087 4.29245 21.1212L4.99995 20.4137L11.5862 26.9999L10.8749 27.7074C10.6882 27.894 10.4352 27.9992 10.1712 27.9999ZM22.1999 12.3999C22.1103 12.5192 22.0487 12.6573 22.0199 12.8037L21.0787 17.5074L19.9999 18.5862L13.4137 11.9999L14.4924 10.9212L19.1962 9.97995C19.3426 9.95114 19.4806 9.88961 19.5999 9.79995L26.9062 4.31995L27.6799 5.0937L22.1999 12.3999Z" fill="#343330"/>
</svg>
