<svg width="32" height="32" viewBox="0 0 32 32" fill="none" xmlns="http://www.w3.org/2000/svg">
<path d="M20.9999 27.9999C20.9999 28.2652 20.8946 28.5195 20.7071 28.7071C20.5195 28.8946 20.2652 28.9999 19.9999 28.9999H11.9999C11.7347 28.9999 11.4804 28.8946 11.2928 28.7071C11.1053 28.5195 10.9999 28.2652 10.9999 27.9999C10.9999 27.7347 11.1053 27.4804 11.2928 27.2928C11.4804 27.1053 11.7347 26.9999 11.9999 26.9999H19.9999C20.2652 26.9999 20.5195 27.1053 20.7071 27.2928C20.8946 27.4804 20.9999 27.7347 20.9999 27.9999ZM28.4237 7.53994C27.2998 5.34326 25.6122 3.48481 23.5337 2.15494C23.4226 2.08401 23.2987 2.03572 23.1689 2.01285C23.0391 1.98998 22.9061 1.99299 22.7775 2.02171C22.6489 2.05042 22.5272 2.10427 22.4195 2.18016C22.3117 2.25605 22.2201 2.35249 22.1497 2.46392C22.0794 2.57536 22.0318 2.6996 22.0096 2.8295C21.9874 2.9594 21.9912 3.0924 22.0206 3.22085C22.05 3.34931 22.1045 3.47068 22.181 3.578C22.2574 3.68532 22.3544 3.77646 22.4662 3.84619C24.2494 4.98057 25.6942 6.57431 26.6487 8.45994C26.7748 8.68786 26.9849 8.85757 27.2343 8.93295C27.4836 9.00833 27.7525 8.98343 27.9838 8.86356C28.2151 8.74369 28.3905 8.5383 28.4726 8.2911C28.5548 8.0439 28.5372 7.7744 28.4237 7.53994ZM4.46369 8.99994C4.6469 8.99987 4.82656 8.94946 4.98307 8.85424C5.13958 8.75901 5.26692 8.62261 5.35119 8.45994C6.3057 6.57431 7.75047 4.98057 9.53369 3.84619C9.64551 3.77646 9.74244 3.68532 9.81891 3.578C9.89538 3.47068 9.94989 3.34931 9.9793 3.22085C10.0087 3.0924 10.0124 2.9594 9.99028 2.8295C9.96811 2.6996 9.9205 2.57536 9.85016 2.46392C9.77982 2.35249 9.68815 2.25605 9.58042 2.18016C9.47269 2.10427 9.35102 2.05042 9.22241 2.02171C9.0938 1.99299 8.96078 1.98998 8.831 2.01285C8.70123 2.03572 8.57725 2.08401 8.46619 2.15494C6.38772 3.48481 4.7001 5.34326 3.57619 7.53994C3.49724 7.69234 3.45884 7.8625 3.46469 8.03404C3.47054 8.20557 3.52045 8.37272 3.6096 8.51938C3.69876 8.66605 3.82416 8.78729 3.97374 8.87146C4.12333 8.95563 4.29206 8.99987 4.46369 8.99994ZM27.7262 21.9924C27.9034 22.2962 27.9973 22.6414 27.9985 22.9931C27.9997 23.3448 27.9081 23.6905 27.7331 23.9956C27.558 24.3006 27.3056 24.554 27.0013 24.7304C26.697 24.9067 26.3516 24.9997 25.9999 24.9999H5.99994C5.64847 24.9993 5.30339 24.9059 4.99945 24.7294C4.69552 24.5529 4.44347 24.2994 4.26869 23.9945C4.09392 23.6895 4.00259 23.3439 4.0039 22.9925C4.00522 22.641 4.09914 22.2961 4.27619 21.9924C5.40244 20.0487 5.99994 17.2849 5.99994 13.9999C5.99994 11.3478 7.05351 8.80424 8.92887 6.92888C10.8042 5.05351 13.3478 3.99994 15.9999 3.99994C18.6521 3.99994 21.1956 5.05351 23.071 6.92888C24.9464 8.80424 25.9999 11.3478 25.9999 13.9999C25.9999 17.2837 26.5974 20.0474 27.7262 21.9924ZM25.9999 22.9999C24.6699 20.7162 23.9999 17.6887 23.9999 13.9999C23.9999 11.8782 23.1571 9.84338 21.6568 8.34309C20.1565 6.8428 18.1217 5.99994 15.9999 5.99994C13.8782 5.99994 11.8434 6.8428 10.3431 8.34309C8.8428 9.84338 7.99994 11.8782 7.99994 13.9999C7.99994 17.6899 7.32744 20.7174 5.99994 22.9999H25.9999Z" fill="#343330"/>
</svg>
