<svg width="32" height="32" viewBox="0 0 32 32" fill="none" xmlns="http://www.w3.org/2000/svg">
<path d="M6.74002 4.3275C6.6522 4.22851 6.54561 4.14793 6.42642 4.09044C6.30723 4.03295 6.17781 3.99968 6.04567 3.99257C5.91353 3.98546 5.7813 4.00465 5.65663 4.04903C5.53196 4.0934 5.41734 4.16208 5.3194 4.25108C5.22147 4.34007 5.14218 4.44763 5.08612 4.5675C5.03006 4.68737 4.99835 4.81717 4.99282 4.94938C4.9873 5.0816 5.00807 5.2136 5.05394 5.33773C5.0998 5.46185 5.16985 5.57564 5.26002 5.6725L7.35252 7.975C6.46384 9.50034 5.99704 11.2347 6.00002 13C6.00002 17.4175 4.96752 20.7975 4.27377 21.9925C4.0966 22.2963 4.00268 22.6415 4.00148 22.9931C4.00027 23.3448 4.09182 23.6906 4.26689 23.9956C4.44196 24.3006 4.69437 24.5541 4.99865 24.7304C5.30293 24.9068 5.64833 24.9997 6.00002 25H22.83L25.26 27.6725C25.3478 27.7715 25.4544 27.8521 25.5736 27.9096C25.6928 27.9671 25.8222 28.0003 25.9544 28.0074C26.0865 28.0145 26.2187 27.9954 26.3434 27.951C26.4681 27.9066 26.5827 27.8379 26.6806 27.7489C26.7786 27.6599 26.8579 27.5524 26.9139 27.4325C26.97 27.3126 27.0017 27.1828 27.0072 27.0506C27.0127 26.9184 26.992 26.7864 26.9461 26.6623C26.9002 26.5382 26.8302 26.4244 26.74 26.3275L6.74002 4.3275ZM6.00002 23C6.96252 21.345 8.00002 17.51 8.00002 13C7.99826 11.805 8.26572 10.625 8.78252 9.5475L21.0113 23H6.00002ZM21 28C21 28.2652 20.8947 28.5196 20.7071 28.7071C20.5196 28.8946 20.2652 29 20 29H12C11.7348 29 11.4804 28.8946 11.2929 28.7071C11.1054 28.5196 11 28.2652 11 28C11 27.7348 11.1054 27.4804 11.2929 27.2929C11.4804 27.1054 11.7348 27 12 27H20C20.2652 27 20.5196 27.1054 20.7071 27.2929C20.8947 27.4804 21 27.7348 21 28ZM26.75 22.4063C26.6332 22.4515 26.509 22.4749 26.3838 22.475C26.1829 22.4748 25.9868 22.4141 25.8209 22.3009C25.655 22.1876 25.5271 22.027 25.4538 21.84C24.5438 19.5238 24 16.2188 24 13C24.0004 11.6008 23.6338 10.2259 22.9368 9.01262C22.2398 7.79934 21.2367 6.7901 20.0278 6.08562C18.8188 5.38114 17.4462 5.00607 16.047 4.99785C14.6478 4.98963 13.2709 5.34853 12.0538 6.03875C11.8236 6.16346 11.5537 6.19295 11.3021 6.12089C11.0505 6.04884 10.8371 5.88099 10.7078 5.65337C10.5785 5.42576 10.5437 5.15653 10.6107 4.90349C10.6777 4.65046 10.8413 4.43379 11.0663 4.3C12.5876 3.43706 14.3087 2.98824 16.0577 2.99834C17.8067 3.00843 19.5225 3.47708 21.0338 4.35752C22.5451 5.23796 23.7991 6.49939 24.6705 8.0159C25.5419 9.5324 26.0003 11.251 26 13C26 17.4188 27.0063 20.3238 27.315 21.11C27.412 21.3568 27.4069 21.632 27.3009 21.8751C27.195 22.1182 26.9968 22.3093 26.75 22.4063Z" fill="#343330"/>
</svg>
