<svg width="32" height="32" viewBox="0 0 32 32" fill="none" xmlns="http://www.w3.org/2000/svg">
<path d="M31 20H24V12H31C31.2652 12 31.5196 11.8946 31.7071 11.7071C31.8946 11.5196 32 11.2652 32 11C32 10.7348 31.8946 10.4804 31.7071 10.2929C31.5196 10.1054 31.2652 10 31 10H23.7288C23.5535 9.69645 23.3015 9.44428 22.9981 9.26877C22.6947 9.09327 22.3505 9.00058 22 9H14C13.6495 9.00058 13.3053 9.09327 13.0019 9.26877C12.6985 9.44428 12.4465 9.69645 12.2712 10H8C8 9.73478 7.89464 9.48043 7.70711 9.29289C7.51957 9.10536 7.26522 9 7 9C6.73478 9 6.48043 9.10536 6.29289 9.29289C6.10536 9.48043 6 9.73478 6 10H1C0.734784 10 0.48043 10.1054 0.292893 10.2929C0.105357 10.4804 0 10.7348 0 11C0 11.2652 0.105357 11.5196 0.292893 11.7071C0.48043 11.8946 0.734784 12 1 12H6V20H1C0.734784 20 0.48043 20.1054 0.292893 20.2929C0.105357 20.4804 0 20.7348 0 21C0 21.2652 0.105357 21.5196 0.292893 21.7071C0.48043 21.8946 0.734784 22 1 22H6C6 22.2652 6.10536 22.5196 6.29289 22.7071C6.48043 22.8946 6.73478 23 7 23C7.26522 23 7.51957 22.8946 7.70711 22.7071C7.89464 22.5196 8 22.2652 8 22H12.2712C12.4465 22.3036 12.6985 22.5557 13.0019 22.7312C13.3053 22.9067 13.6495 22.9994 14 23H22C22.3505 22.9994 22.6947 22.9067 22.9981 22.7312C23.3015 22.5557 23.5535 22.3036 23.7288 22H31C31.2652 22 31.5196 21.8946 31.7071 21.7071C31.8946 21.5196 32 21.2652 32 21C32 20.7348 31.8946 20.4804 31.7071 20.2929C31.5196 20.1054 31.2652 20 31 20ZM8 12H12V20H8V12ZM14 21V11H22V15H18C17.7348 15 17.4804 15.1054 17.2929 15.2929C17.1054 15.4804 17 15.7348 17 16C17 16.2652 17.1054 16.5196 17.2929 16.7071C17.4804 16.8946 17.7348 17 18 17H22V20.975C22 20.9838 22 20.9913 22 21H14Z" fill="#343330"/>
</svg>
