<svg width="32" height="32" viewBox="0 0 32 32" fill="none" xmlns="http://www.w3.org/2000/svg">
<path d="M27.6338 18.0513C26.8912 15.1634 25.1073 12.652 22.625 11H30C30.2652 11 30.5196 10.8947 30.7071 10.7071C30.8946 10.5196 31 10.2652 31 10C31 9.73481 30.8946 9.48046 30.7071 9.29292C30.5196 9.10539 30.2652 9.00003 30 9.00003H19.875C19.6547 8.13962 19.1543 7.37699 18.4527 6.83239C17.7511 6.28779 16.8882 5.99219 16 5.99219C15.1118 5.99219 14.2489 6.28779 13.5473 6.83239C12.8457 7.37699 12.3453 8.13962 12.125 9.00003H2C1.73479 9.00003 1.48043 9.10539 1.2929 9.29292C1.10536 9.48046 1 9.73481 1 10C1 10.2652 1.10536 10.5196 1.2929 10.7071C1.48043 10.8947 1.73479 11 2 11H9.375C6.8927 12.652 5.10877 15.1634 4.36625 18.0513C3.40609 18.2045 2.53461 18.7022 1.91475 19.4513C1.2949 20.2004 0.969119 21.1496 0.998328 22.1215C1.02754 23.0933 1.40974 24.0213 2.07346 24.7318C2.73718 25.4424 3.63698 25.8868 4.60461 25.9821C5.57224 26.0773 6.54143 25.8169 7.33098 25.2494C8.12052 24.682 8.67634 23.8464 8.89452 22.8989C9.1127 21.9514 8.97828 20.9568 8.51642 20.1012C8.05455 19.2456 7.29685 18.5875 6.385 18.25C6.81435 16.7697 7.57763 15.4076 8.6161 14.2686C9.65456 13.1295 10.9405 12.244 12.375 11.68C12.6959 12.3721 13.2081 12.9579 13.851 13.3684C14.494 13.779 15.2409 13.9971 16.0038 13.9971C16.7666 13.9971 17.5135 13.779 18.1565 13.3684C18.7994 12.9579 19.3116 12.3721 19.6325 11.68C21.0656 12.2449 22.3501 13.1309 23.3872 14.2699C24.4243 15.4088 25.1864 16.7704 25.615 18.25C24.7027 18.5864 23.9442 19.2435 23.4812 20.0986C23.0183 20.9536 22.8827 21.948 23.0997 22.8958C23.3167 23.8436 23.8714 24.6799 24.6603 25.2483C25.4492 25.8167 26.418 26.0784 27.3858 25.9843C28.3535 25.8902 29.2539 25.4469 29.9185 24.7371C30.5831 24.0274 30.9664 23.0999 30.9968 22.1281C31.0272 21.1562 30.7026 20.2066 30.0836 19.4567C29.4646 18.7069 28.5937 18.2081 27.6338 18.0538V18.0513ZM7 22C7 22.3956 6.8827 22.7823 6.66294 23.1112C6.44318 23.4401 6.13082 23.6964 5.76537 23.8478C5.39992 23.9992 4.99778 24.0388 4.60982 23.9616C4.22186 23.8844 3.86549 23.6939 3.58579 23.4142C3.30608 23.1345 3.1156 22.7782 3.03843 22.3902C2.96126 22.0022 3.00087 21.6001 3.15224 21.2347C3.30362 20.8692 3.55996 20.5569 3.88886 20.3371C4.21776 20.1173 4.60444 20 5 20C5.53044 20 6.03914 20.2107 6.41422 20.5858C6.78929 20.9609 7 21.4696 7 22ZM16 12C15.6044 12 15.2178 11.8827 14.8889 11.663C14.56 11.4432 14.3036 11.1308 14.1522 10.7654C14.0009 10.3999 13.9613 9.99781 14.0384 9.60985C14.1156 9.22189 14.3061 8.86552 14.5858 8.58582C14.8655 8.30611 15.2219 8.11563 15.6098 8.03846C15.9978 7.96129 16.3999 8.0009 16.7654 8.15227C17.1308 8.30365 17.4432 8.55999 17.6629 8.88889C17.8827 9.21779 18 9.60447 18 10C18 10.5305 17.7893 11.0392 17.4142 11.4142C17.0391 11.7893 16.5304 12 16 12ZM27 24C26.6044 24 26.2178 23.8827 25.8889 23.663C25.56 23.4432 25.3036 23.1308 25.1522 22.7654C25.0009 22.3999 24.9613 21.9978 25.0384 21.6098C25.1156 21.2219 25.3061 20.8655 25.5858 20.5858C25.8655 20.3061 26.2219 20.1156 26.6098 20.0385C26.9978 19.9613 27.3999 20.0009 27.7654 20.1523C28.1308 20.3036 28.4432 20.56 28.6629 20.8889C28.8827 21.2178 29 21.6045 29 22C29 22.5305 28.7893 23.0392 28.4142 23.4142C28.0391 23.7893 27.5304 24 27 24Z" fill="#343330"/>
</svg>
