<svg width="33" height="32" viewBox="0 0 33 32" fill="none" xmlns="http://www.w3.org/2000/svg">
<path d="M26.0324 14C25.3095 13.9997 24.5924 14.1306 23.9162 14.3862L20.7737 9H24.0324C24.2977 9 24.552 9.10536 24.7396 9.29289C24.9271 9.48043 25.0324 9.73478 25.0324 10C25.0324 10.2652 25.1378 10.5196 25.3253 10.7071C25.5129 10.8946 25.7672 11 26.0324 11C26.2977 11 26.552 10.8946 26.7396 10.7071C26.9271 10.5196 27.0324 10.2652 27.0324 10C27.0324 9.20435 26.7164 8.44129 26.1538 7.87868C25.5912 7.31607 24.8281 7 24.0324 7H19.0324C18.8571 7.0004 18.6849 7.0469 18.5332 7.13483C18.3815 7.22276 18.2556 7.34903 18.1681 7.50098C18.0806 7.65294 18.0346 7.82522 18.0347 8.00057C18.0348 8.17591 18.081 8.34815 18.1687 8.5L19.6249 11H12.4399L10.3962 7.5C10.3086 7.34831 10.1827 7.22229 10.0312 7.13454C9.87957 7.04679 9.7076 7.0004 9.53245 7H6.03245C5.76723 7 5.51288 7.10536 5.32534 7.29289C5.1378 7.48043 5.03245 7.73478 5.03245 8C5.03245 8.26522 5.1378 8.51957 5.32534 8.70711C5.51288 8.89464 5.76723 9 6.03245 9H8.9587L10.6724 11.9388L8.7087 14.6325C7.35947 13.9573 5.8058 13.8137 4.35567 14.2301C2.90553 14.6466 1.6648 15.5927 0.879419 16.8809C0.094036 18.1691 -0.178662 19.7054 0.11538 21.1852C0.409423 22.665 1.24874 23.9803 2.46696 24.8704C3.68517 25.7605 5.19335 26.1604 6.69254 25.9908C8.19172 25.8212 9.57246 25.0945 10.5611 23.9548C11.5496 22.815 12.0739 21.3455 12.03 19.8374C11.986 18.3292 11.377 16.8927 10.3237 15.8125L11.7724 13.825L15.6687 20.5C15.7296 20.6223 15.8149 20.7308 15.9193 20.8189C16.0238 20.9069 16.1451 20.9726 16.276 21.012C16.4068 21.0513 16.5443 21.0634 16.68 21.0475C16.8156 21.0317 16.9466 20.9882 17.0649 20.9198C17.1831 20.8513 17.286 20.7594 17.3674 20.6496C17.4487 20.5399 17.5067 20.4146 17.5377 20.2816C17.5688 20.1485 17.5722 20.0105 17.5479 19.8761C17.5235 19.7417 17.4719 19.6137 17.3962 19.5L13.6062 13H20.7912L22.1899 15.3962C21.107 16.3013 20.3778 17.5592 20.1306 18.9487C19.8833 20.3382 20.1337 21.7704 20.8379 22.9936C21.542 24.2167 22.6548 25.1525 23.9806 25.6363C25.3064 26.1202 26.7604 26.1212 28.0869 25.6392C29.4134 25.1572 30.5275 24.2231 31.2334 23.0009C31.9392 21.7788 32.1917 20.3469 31.9464 18.9571C31.7011 17.5672 30.9737 16.3083 29.892 15.4017C28.8104 14.4951 27.4438 13.9988 26.0324 14ZM10.0324 20C10.0327 20.8556 9.75859 21.6887 9.25043 22.3769C8.74226 23.0652 8.02679 23.5725 7.20908 23.8241C6.39137 24.0758 5.51452 24.0587 4.70727 23.7752C3.90003 23.4918 3.20493 22.957 2.72406 22.2493C2.24318 21.5417 2.00187 20.6985 2.03555 19.8436C2.06923 18.9888 2.37613 18.1672 2.91118 17.4996C3.44624 16.832 4.18125 16.3535 5.00829 16.1344C5.83533 15.9154 6.71082 15.9673 7.5062 16.2825L5.22495 19.4075C5.14189 19.5131 5.08098 19.6344 5.04585 19.7641C5.01071 19.8938 5.00208 20.0293 5.02047 20.1624C5.03886 20.2955 5.08388 20.4236 5.15286 20.5389C5.22183 20.6542 5.31334 20.7544 5.42193 20.8336C5.53051 20.9128 5.65393 20.9692 5.78482 20.9996C5.91572 21.03 6.05139 21.0338 6.18375 21.0106C6.31611 20.9873 6.44243 20.9377 6.55518 20.8646C6.66792 20.7915 6.76477 20.6964 6.83995 20.585L9.1212 17.46C9.71109 18.1749 10.0333 19.0731 10.0324 20ZM26.0324 24C25.2402 23.9994 24.4659 23.7635 23.8079 23.3223C23.1499 22.8811 22.6377 22.2544 22.3363 21.5217C22.0349 20.7891 21.9578 19.9834 22.1149 19.2068C22.272 18.4303 22.6562 17.7179 23.2187 17.16L25.1687 20.5C25.2296 20.6223 25.3149 20.7308 25.4193 20.8189C25.5238 20.9069 25.6451 20.9726 25.776 21.012C25.9068 21.0513 26.0443 21.0634 26.18 21.0475C26.3156 21.0317 26.4466 20.9882 26.5649 20.9198C26.6831 20.8513 26.786 20.7594 26.8674 20.6496C26.9487 20.5399 27.0067 20.4146 27.0377 20.2816C27.0688 20.1485 27.0722 20.0105 27.0479 19.8761C27.0235 19.7417 26.9719 19.6137 26.8962 19.5L24.9449 16.1513C25.4952 15.9955 26.0724 15.9595 26.6377 16.0457C27.203 16.132 27.7432 16.3384 28.222 16.6511C28.7007 16.9639 29.1069 17.3756 29.413 17.8586C29.7191 18.3416 29.9182 18.8846 29.9966 19.451C30.0751 20.0174 30.0312 20.5941 29.868 21.1421C29.7047 21.6902 29.4258 22.1968 29.0501 22.6279C28.6744 23.0591 28.2107 23.4046 27.6901 23.6413C27.1695 23.878 26.6043 24.0003 26.0324 24Z" fill="#343330"/>
</svg>
