<svg width="32" height="32" viewBox="0 0 32 32" fill="none" xmlns="http://www.w3.org/2000/svg">
<path d="M11.75 3C8.95375 3 7 5.4675 7 9C7 12.5325 8.95375 15 11.75 15C14.5463 15 16.5 12.5325 16.5 9C16.5 5.4675 14.5463 3 11.75 3ZM11.75 13C9.57875 13 9 10.4862 9 9C9 7.51375 9.57875 5 11.75 5C13.9213 5 14.5 7.51375 14.5 9C14.5 10.4862 13.9213 13 11.75 13ZM20.75 17C17.9537 17 16 19.4675 16 23C16 26.5325 17.9537 29 20.75 29C23.5462 29 25.5 26.5325 25.5 23C25.5 19.4675 23.5462 17 20.75 17ZM20.75 27C18.5787 27 18 24.4862 18 23C18 21.5138 18.5787 19 20.75 19C22.9213 19 23.5 21.5138 23.5 23C23.5 24.4862 22.9213 27 20.75 27ZM18.125 6.1525C18.0612 6.03768 18.0207 5.91142 18.0057 5.78092C17.9907 5.65043 18.0015 5.51826 18.0376 5.39197C18.0737 5.26567 18.1344 5.14773 18.2161 5.04487C18.2978 4.94201 18.3989 4.85626 18.5138 4.7925L21.5138 3.12625C21.666 3.04155 21.8377 2.99808 22.0118 3.00014C22.186 3.0022 22.3566 3.04973 22.5068 3.13801C22.657 3.22628 22.7815 3.35226 22.868 3.50345C22.9545 3.65464 23 3.82581 23 4V14C23 14.2652 22.8946 14.5196 22.7071 14.7071C22.5196 14.8946 22.2652 15 22 15C21.7348 15 21.4804 14.8946 21.2929 14.7071C21.1054 14.5196 21 14.2652 21 14V5.7L19.485 6.54125C19.3702 6.60505 19.2439 6.6456 19.1134 6.66059C18.9829 6.67558 18.8508 6.66471 18.7245 6.62861C18.5982 6.59251 18.4802 6.53188 18.3774 6.45019C18.2745 6.3685 18.1888 6.26734 18.125 6.1525ZM13 18V28C13 28.2652 12.8946 28.5196 12.7071 28.7071C12.5196 28.8946 12.2652 29 12 29C11.7348 29 11.4804 28.8946 11.2929 28.7071C11.1054 28.5196 11 28.2652 11 28V19.7L9.485 20.5413C9.25294 20.6699 8.97928 20.7011 8.72423 20.6279C8.46918 20.5548 8.25363 20.3833 8.125 20.1513C7.99637 19.9192 7.9652 19.6455 8.03833 19.3905C8.11147 19.1354 8.28294 18.9199 8.515 18.7913L11.515 17.125C11.6673 17.0406 11.8389 16.9973 12.013 16.9996C12.1872 17.0019 12.3576 17.0496 12.5077 17.138C12.6577 17.2263 12.782 17.3524 12.8684 17.5036C12.9547 17.6548 13.0001 17.8259 13 18Z" fill="#343330"/>
</svg>
