<svg width="32" height="32" viewBox="0 0 32 32" fill="none" xmlns="http://www.w3.org/2000/svg">
<path d="M23.21 13.035C23.0933 12.795 22.9658 12.5616 22.8275 12.335C23.6201 10.5878 23.713 8.60329 23.0871 6.78971C22.4612 4.97612 21.164 3.47136 19.4625 2.58497C19.2273 2.46231 18.953 2.43811 18.6999 2.51769C18.4469 2.59728 18.2358 2.77413 18.1131 3.00935C17.9905 3.24456 17.9663 3.51887 18.0458 3.77192C18.1254 4.02498 18.3023 4.23606 18.5375 4.35872C19.6307 4.92754 20.5012 5.84703 21.0094 6.96971C21.5176 8.09239 21.634 9.35322 21.34 10.55C19.8742 9.22982 17.9714 8.49927 15.9987 8.49927C14.0261 8.49927 12.1233 9.22982 10.6575 10.55C10.3637 9.35293 10.4805 8.0919 10.9891 6.96918C11.4978 5.84647 12.3688 4.92715 13.4625 4.35872C13.579 4.29799 13.6823 4.2149 13.7667 4.11422C13.851 4.01354 13.9147 3.89723 13.9542 3.77192C13.9936 3.64662 14.0079 3.51479 13.9964 3.38394C13.9848 3.2531 13.9476 3.12581 13.8869 3.00935C13.8261 2.89288 13.7431 2.78952 13.6424 2.70516C13.5417 2.6208 13.4254 2.5571 13.3001 2.51769C13.1748 2.47829 13.0429 2.46395 12.9121 2.47549C12.7813 2.48703 12.654 2.52424 12.5375 2.58497C10.8358 3.47115 9.53835 4.97581 8.91219 6.78942C8.28603 8.60303 8.37874 10.5876 9.17125 12.335C9.03243 12.5609 8.90518 12.7937 8.79 13.0325C6.93272 13.2111 5.20847 14.0748 3.95323 15.4553C2.69799 16.8357 2.00168 18.6341 2 20.5C2 20.7652 2.10536 21.0195 2.29289 21.2071C2.48043 21.3946 2.73478 21.5 3 21.5C3.26522 21.5 3.51957 21.3946 3.70711 21.2071C3.89464 21.0195 4 20.7652 4 20.5C4.00176 19.2834 4.40598 18.1017 5.14964 17.1389C5.89331 16.1762 6.93462 15.4865 8.11125 15.1775C7.78987 17.0855 8.17158 19.0454 9.18556 20.6934C10.1995 22.3413 11.7769 23.5655 13.625 24.1387C12.7577 25.1222 11.5675 25.7634 10.2691 25.9468C8.97069 26.1301 7.6495 25.8435 6.54375 25.1387C6.43324 25.063 6.30863 25.0102 6.17733 24.9836C6.04603 24.9569 5.91071 24.9569 5.77942 24.9836C5.64812 25.0103 5.52352 25.063 5.41301 25.1388C5.30251 25.2145 5.20835 25.3117 5.13614 25.4246C5.06392 25.5374 5.01512 25.6636 4.99263 25.7957C4.97013 25.9278 4.97441 26.063 5.0052 26.1934C5.03599 26.3238 5.09267 26.4467 5.17187 26.5547C5.25107 26.6628 5.35118 26.7539 5.46625 26.8225C6.29933 27.3537 7.22917 27.7152 8.20235 27.886C9.17553 28.0568 10.1729 28.0336 11.1371 27.8178C12.1013 27.602 13.0133 27.1978 13.8208 26.6284C14.6283 26.059 15.3154 25.3357 15.8425 24.5H16H16.1575C16.6845 25.3365 17.3717 26.0605 18.1796 26.6304C18.9875 27.2004 19.9 27.605 20.8648 27.8209C21.8296 28.0369 22.8276 28.06 23.8014 27.8888C24.7751 27.7177 25.7054 27.3557 26.5387 26.8237C26.6538 26.7551 26.7539 26.6641 26.8331 26.556C26.9123 26.4479 26.969 26.3251 26.9998 26.1947C27.0306 26.0643 27.0349 25.929 27.0124 25.797C26.9899 25.6649 26.9411 25.5387 26.8689 25.4258C26.7966 25.313 26.7025 25.2158 26.592 25.14C26.4815 25.0643 26.3569 25.0115 26.2256 24.9848C26.0943 24.9582 25.959 24.9582 25.8277 24.9848C25.6964 25.0115 25.5718 25.0642 25.4613 25.14C24.3555 25.8448 23.0343 26.1314 21.7359 25.948C20.4375 25.7646 19.2473 25.1234 18.38 24.14C20.2271 23.5658 21.8034 22.3412 22.8164 20.6933C23.8294 19.0455 24.2104 17.0861 23.8888 15.1787C25.0652 15.4877 26.1063 16.1772 26.85 17.1397C27.5936 18.1022 27.998 19.2837 28 20.5C28 20.7652 28.1054 21.0195 28.2929 21.2071C28.4804 21.3946 28.7348 21.5 29 21.5C29.2652 21.5 29.5196 21.3946 29.7071 21.2071C29.8946 21.0195 30 20.7652 30 20.5C29.9977 18.6346 29.3011 16.8368 28.0459 15.4568C26.7908 14.0769 25.0668 13.2135 23.21 13.035ZM16 10.5C16.8377 10.4998 17.6662 10.6753 18.4319 11.0153C19.1975 11.3553 19.8834 11.8521 20.445 12.4737C19.9346 13.1744 19.2659 13.7445 18.4933 14.1375C17.7207 14.5306 16.8662 14.7354 15.9994 14.7354C15.1326 14.7354 14.278 14.5306 13.5054 14.1375C12.7329 13.7445 12.0641 13.1744 11.5538 12.4737C12.1154 11.8519 12.8014 11.3548 13.5673 11.0148C14.3333 10.6748 15.162 10.4994 16 10.5ZM16.015 16.74L16 16.765L15.985 16.74H16.015ZM10 16.5C9.99969 16.009 10.0601 15.5199 10.18 15.0437C10.9975 15.1455 11.7817 15.4297 12.4746 15.8752C13.1676 16.3207 13.7516 16.9161 14.1836 17.6176C14.6156 18.3191 14.8844 19.1086 14.9704 19.9279C15.0563 20.7472 14.957 21.5754 14.68 22.3512C13.3525 22.0502 12.1665 21.3074 11.3163 20.2444C10.4661 19.1814 10.002 17.8612 10 16.5ZM17.3213 22.3512C17.0442 21.5754 16.945 20.7472 17.0309 19.9279C17.1168 19.1086 17.3857 18.3191 17.8177 17.6176C18.2496 16.9161 18.8337 16.3207 19.5266 15.8752C20.2196 15.4297 21.0038 15.1455 21.8213 15.0437C22.0151 15.8194 22.052 16.6259 21.9297 17.416C21.8074 18.2061 21.5285 18.9638 21.1093 19.6446C20.69 20.3254 20.139 20.9155 19.4885 21.3803C18.838 21.8451 18.1011 22.1752 17.3213 22.3512Z" fill="#343330"/>
</svg>
