<svg width="32" height="32" viewBox="0 0 32 32" fill="none" xmlns="http://www.w3.org/2000/svg">
<path d="M22 8.5C22 8.79667 21.912 9.08668 21.7472 9.33336C21.5824 9.58003 21.3481 9.77229 21.074 9.88582C20.7999 9.99935 20.4983 10.0291 20.2074 9.97118C19.9164 9.9133 19.6491 9.77044 19.4393 9.56066C19.2296 9.35088 19.0867 9.08361 19.0288 8.79264C18.9709 8.50167 19.0007 8.20006 19.1142 7.92598C19.2277 7.65189 19.42 7.41762 19.6666 7.2528C19.9133 7.08797 20.2033 7 20.5 7C20.8978 7 21.2794 7.15804 21.5607 7.43934C21.842 7.72064 22 8.10218 22 8.5ZM30 10C30.0001 10.1647 29.9595 10.3268 29.8819 10.4721C29.8043 10.6173 29.692 10.7411 29.555 10.8325L27 12.535V15C26.9964 18.4467 25.6256 21.7512 23.1884 24.1884C20.7512 26.6256 17.4467 27.9964 14 28H3C2.6232 28 2.25407 27.8936 1.93512 27.6929C1.61617 27.4923 1.36038 27.2057 1.19723 26.866C1.03407 26.5264 0.970172 26.1476 1.0129 25.7732C1.05563 25.3988 1.20325 25.0441 1.43875 24.75L1.45125 24.735L12 12.0787V9.61125C12 5.43375 15.3488 2.02 19.4638 2H19.5C21.0932 1.99953 22.6452 2.50642 23.931 3.44722C25.2168 4.38802 26.1696 5.71384 26.6513 7.2325L29.555 9.1675C29.692 9.2589 29.8043 9.38271 29.8819 9.52794C29.9595 9.67317 30.0001 9.83532 30 10ZM27.1975 10L25.2375 8.6925C25.0331 8.55652 24.8858 8.35007 24.8238 8.1125C24.5166 6.93448 23.8274 5.89164 22.8639 5.14742C21.9005 4.40319 20.7174 3.99964 19.5 4H19.4725C16.455 4.015 14 6.53125 14 9.61125V12.44C14.0004 12.6742 13.9186 12.9012 13.7688 13.0813L3 26H6.3625L15.23 15.36C15.3131 15.2562 15.4161 15.17 15.5329 15.1065C15.6497 15.0429 15.778 15.0033 15.9103 14.99C16.0426 14.9766 16.1762 14.9898 16.3034 15.0287C16.4305 15.0677 16.5486 15.1316 16.6508 15.2167C16.753 15.3018 16.8371 15.4064 16.8983 15.5245C16.9596 15.6425 16.9966 15.7716 17.0074 15.9041C17.0181 16.0366 17.0024 16.17 16.961 16.2963C16.9195 16.4227 16.8534 16.5395 16.7663 16.64L8.96875 26H14C16.9164 25.9967 19.7123 24.8367 21.7745 22.7745C23.8367 20.7123 24.9967 17.9164 25 15V12C24.9999 11.8353 25.0405 11.6732 25.1181 11.5279C25.1957 11.3827 25.308 11.2589 25.445 11.1675L27.1975 10Z" fill="#343330"/>
</svg>
