<svg width="32" height="32" viewBox="0 0 32 32" fill="none" xmlns="http://www.w3.org/2000/svg">
<path d="M27.74 26.3275L7.73999 4.3275C7.5607 4.1349 7.31271 4.02073 7.0498 4.00975C6.78689 3.99876 6.53025 4.09185 6.33551 4.26882C6.14077 4.44579 6.02364 4.69239 6.0095 4.95515C5.99537 5.21791 6.08537 5.47566 6.25999 5.6725L15.115 15.4137L7.39999 21.2C7.29494 21.2788 7.20643 21.3775 7.13952 21.4905C7.07261 21.6035 7.02862 21.7286 7.01004 21.8586C6.97254 22.1211 7.04086 22.3878 7.19999 22.6C7.35912 22.8122 7.59602 22.9524 7.85857 22.99C8.12112 23.0275 8.38782 22.9591 8.59999 22.8L15 18V28C15 28.1857 15.0517 28.3678 15.1493 28.5257C15.247 28.6837 15.3867 28.8114 15.5528 28.8944C15.7189 28.9775 15.9048 29.0126 16.0898 28.996C16.2748 28.9793 16.4514 28.9114 16.6 28.8L22.9537 24.035L26.26 27.6725C26.3478 27.7715 26.4544 27.8521 26.5736 27.9096C26.6928 27.9671 26.8222 28.0003 26.9543 28.0074C27.0865 28.0145 27.2187 27.9953 27.3434 27.951C27.4681 27.9066 27.5827 27.8379 27.6806 27.7489C27.7785 27.6599 27.8578 27.5524 27.9139 27.4325C27.9699 27.3126 28.0017 27.1828 28.0072 27.0506C28.0127 26.9184 27.9919 26.7864 27.9461 26.6623C27.9002 26.5381 27.8302 26.4244 27.74 26.3275ZM17 26V18L18.4662 19.1L21.6012 22.5487L17 26ZM15 8.95375V4C15 3.81429 15.0517 3.63225 15.1493 3.47427C15.247 3.31629 15.3867 3.18863 15.5528 3.10557C15.7189 3.02252 15.9048 2.98736 16.0898 3.00404C16.2748 3.02072 16.4514 3.08857 16.6 3.2L24.6 9.2C24.7242 9.29315 24.825 9.41393 24.8944 9.55279C24.9638 9.69164 25 9.84476 25 10C25 10.1552 24.9638 10.3084 24.8944 10.4472C24.825 10.5861 24.7242 10.7069 24.6 10.8L20.4087 13.9438C20.1966 14.1029 19.9299 14.1712 19.6673 14.1337C19.4048 14.0962 19.1679 13.9559 19.0087 13.7437C18.8496 13.5316 18.7813 13.2649 18.8188 13.0023C18.8563 12.7398 18.9966 12.5029 19.2087 12.3438L22.3337 10L17 6V8.95375C17 9.21897 16.8946 9.47332 16.7071 9.66086C16.5196 9.84839 16.2652 9.95375 16 9.95375C15.7348 9.95375 15.4804 9.84839 15.2929 9.66086C15.1054 9.47332 15 9.21897 15 8.95375Z" fill="#343330"/>
</svg>
