<svg width="32" height="32" viewBox="0 0 32 32" fill="none" xmlns="http://www.w3.org/2000/svg">
<path d="M24.6 21.2L17.6663 16L24.6 10.8C24.7242 10.7069 24.825 10.5861 24.8944 10.4472C24.9639 10.3084 25 10.1552 25 10C25 9.84476 24.9639 9.69164 24.8944 9.55279C24.825 9.41393 24.7242 9.29315 24.6 9.2L16.6 3.2C16.4514 3.08857 16.2748 3.02072 16.0898 3.00404C15.9048 2.98736 15.7189 3.02252 15.5528 3.10557C15.3867 3.18863 15.247 3.31629 15.1494 3.47427C15.0517 3.63225 15 3.81429 15 4V14L8.6 9.2C8.38783 9.04087 8.12113 8.97254 7.85858 9.01005C7.59603 9.04756 7.35913 9.18783 7.2 9.4C7.04087 9.61217 6.97255 9.87887 7.01005 10.1414C7.04756 10.404 7.18783 10.6409 7.4 10.8L14.3338 16L7.4 21.2C7.29495 21.2788 7.20644 21.3775 7.13953 21.4905C7.07262 21.6035 7.02863 21.7286 7.01005 21.8586C6.97255 22.1211 7.04087 22.3878 7.2 22.6C7.35913 22.8122 7.59603 22.9524 7.85858 22.99C8.12113 23.0275 8.38783 22.9591 8.6 22.8L15 18V28C15 28.1857 15.0517 28.3678 15.1494 28.5257C15.247 28.6837 15.3867 28.8114 15.5528 28.8944C15.7189 28.9775 15.9048 29.0126 16.0898 28.996C16.2748 28.9793 16.4514 28.9114 16.6 28.8L24.6 22.8C24.7242 22.7069 24.825 22.5861 24.8944 22.4472C24.9639 22.3084 25 22.1552 25 22C25 21.8448 24.9639 21.6916 24.8944 21.5528C24.825 21.4139 24.7242 21.2931 24.6 21.2ZM17 6L22.3338 10L17 14V6ZM17 26V18L22.3338 22L17 26Z" fill="#343330"/>
</svg>
