<svg width="32" height="32" viewBox="0 0 32 32" fill="none" xmlns="http://www.w3.org/2000/svg">
<path d="M22.6 21.2L15.6663 16L18.6 13.8C18.8122 13.6409 18.9524 13.404 18.99 13.1414C19.0275 12.8789 18.9591 12.6122 18.8 12.4C18.6409 12.1878 18.404 12.0476 18.1414 12.0101C17.8789 11.9725 17.6122 12.0409 17.4 12.2L15 14V6L17.4 7.8C17.5051 7.87879 17.6246 7.93612 17.7518 7.96871C17.879 8.00131 18.0114 8.00852 18.1414 7.98995C18.2714 7.97138 18.3965 7.92738 18.5095 7.86048C18.6225 7.79357 18.7212 7.70506 18.8 7.6C18.8788 7.49494 18.9361 7.37539 18.9687 7.24818C19.0013 7.12097 19.0085 6.98858 18.99 6.85858C18.9714 6.72858 18.9274 6.60351 18.8605 6.49051C18.7936 6.37751 18.7051 6.27879 18.6 6.2L14.6 3.2C14.4514 3.08857 14.2748 3.02072 14.0898 3.00404C13.9048 2.98736 13.7189 3.02252 13.5528 3.10557C13.3867 3.18863 13.247 3.31629 13.1494 3.47427C13.0517 3.63225 13 3.81429 13 4V14L6.6 9.2C6.38783 9.04087 6.12113 8.97254 5.85858 9.01005C5.59603 9.04756 5.35913 9.18783 5.2 9.4C5.04087 9.61217 4.97255 9.87887 5.01005 10.1414C5.04756 10.404 5.18783 10.6409 5.4 10.8L12.3338 16L5.4 21.2C5.29495 21.2788 5.20644 21.3775 5.13953 21.4905C5.07262 21.6035 5.02863 21.7286 5.01005 21.8586C4.97255 22.1211 5.04087 22.3878 5.2 22.6C5.35913 22.8122 5.59603 22.9524 5.85858 22.99C6.12113 23.0275 6.38783 22.9591 6.6 22.8L13 18V28C13 28.1857 13.0517 28.3678 13.1494 28.5257C13.247 28.6837 13.3867 28.8114 13.5528 28.8944C13.7189 28.9775 13.9048 29.0126 14.0898 28.996C14.2748 28.9793 14.4514 28.9114 14.6 28.8L22.6 22.8C22.7242 22.7069 22.825 22.5861 22.8944 22.4472C22.9639 22.3084 23 22.1552 23 22C23 21.8448 22.9639 21.6916 22.8944 21.5528C22.825 21.4139 22.7242 21.2931 22.6 21.2ZM15 26V18L20.3338 22L15 26ZM29.7075 12.2925C29.8004 12.3854 29.8741 12.4957 29.9244 12.6171C29.9747 12.7385 30.0006 12.8686 30.0006 13C30.0006 13.1314 29.9747 13.2615 29.9244 13.3829C29.8741 13.5043 29.8004 13.6146 29.7075 13.7075C29.6146 13.8004 29.5043 13.8741 29.3829 13.9244C29.2615 13.9747 29.1314 14.0006 29 14.0006C28.8686 14.0006 28.7385 13.9747 28.6171 13.9244C28.4957 13.8741 28.3854 13.8004 28.2925 13.7075L26 11.4137L23.7075 13.7075C23.5199 13.8951 23.2654 14.0006 23 14.0006C22.7346 14.0006 22.4801 13.8951 22.2925 13.7075C22.1049 13.5199 21.9994 13.2654 21.9994 13C21.9994 12.7346 22.1049 12.4801 22.2925 12.2925L24.5863 10L22.2925 7.7075C22.1996 7.61459 22.1259 7.50429 22.0756 7.3829C22.0253 7.2615 21.9994 7.1314 21.9994 7C21.9994 6.86861 22.0253 6.7385 22.0756 6.6171C22.1259 6.49571 22.1996 6.38541 22.2925 6.2925C22.4801 6.10486 22.7346 5.99944 23 5.99944C23.1314 5.99944 23.2615 6.02532 23.3829 6.07561C23.5043 6.12589 23.6146 6.19959 23.7075 6.2925L26 8.58625L28.2925 6.2925C28.3854 6.19959 28.4957 6.12589 28.6171 6.07561C28.7385 6.02532 28.8686 5.99944 29 5.99944C29.1314 5.99944 29.2615 6.02532 29.3829 6.07561C29.5043 6.12589 29.6146 6.19959 29.7075 6.2925C29.8004 6.38541 29.8741 6.49571 29.9244 6.6171C29.9747 6.7385 30.0006 6.86861 30.0006 7C30.0006 7.1314 29.9747 7.2615 29.9244 7.3829C29.8741 7.50429 29.8004 7.61459 29.7075 7.7075L27.4138 10L29.7075 12.2925Z" fill="#343330"/>
</svg>
