<svg width="32" height="32" viewBox="0 0 32 32" fill="none" xmlns="http://www.w3.org/2000/svg">
<path d="M27.6325 13.8237L26 13.2788V7C26 6.46957 25.7893 5.96086 25.4142 5.58579C25.0391 5.21071 24.5304 5 24 5H17V3C17 2.73478 16.8946 2.48043 16.7071 2.29289C16.5196 2.10536 16.2652 2 16 2C15.7348 2 15.4804 2.10536 15.2929 2.29289C15.1054 2.48043 15 2.73478 15 3V5H8C7.46957 5 6.96086 5.21071 6.58579 5.58579C6.21071 5.96086 6 6.46957 6 7V13.2788L4.3675 13.8237C3.96926 13.9565 3.62289 14.2112 3.37746 14.5518C3.13202 14.8923 2.99997 15.3015 3 15.7212V19C3 26.6925 15.2362 29.84 15.7575 29.97C15.9167 30.0098 16.0833 30.0098 16.2425 29.97C16.7638 29.84 29 26.6925 29 19V15.7212C29 15.3015 28.868 14.8923 28.6225 14.5518C28.3771 14.2112 28.0307 13.9565 27.6325 13.8237ZM8 7H24V12.6125L16.3162 10.0513C16.111 9.98282 15.889 9.98282 15.6838 10.0513L8 12.6125V7ZM27 19C27 22.1138 24.04 24.375 21.5562 25.7288C19.7878 26.6671 17.9254 27.4167 16 27.965C14.0862 27.4225 12.2347 26.68 10.4762 25.75C5.95 23.2938 5 20.7237 5 19V15.7212L15 12.3875V21C15 21.2652 15.1054 21.5196 15.2929 21.7071C15.4804 21.8946 15.7348 22 16 22C16.2652 22 16.5196 21.8946 16.7071 21.7071C16.8946 21.5196 17 21.2652 17 21V12.3875L27 15.7212V19Z" fill="#343330"/>
</svg>
