<svg width="32" height="32" viewBox="0 0 32 32" fill="none" xmlns="http://www.w3.org/2000/svg">
<path d="M31 4C30.7348 4 30.4804 4.10536 30.2929 4.29289C30.1054 4.48043 30 4.73478 30 5C29.9753 5.74462 29.8244 6.47964 29.5537 7.17375C29.0475 8.4025 28.2125 9 27 9C25.6175 9 24.6437 7.78 23.3137 5.91875C22 4.0825 20.515 2 18 2C15.9513 2 14.375 3.11125 13.5713 5.125C13.3358 5.72871 13.1721 6.35804 13.0838 7H11C10.4696 7 9.96086 7.21071 9.58579 7.58579C9.21071 7.96086 9 8.46957 9 9V10.1987C6.79793 11.3207 5.03782 13.1514 4.00342 15.3959C2.96901 17.6404 2.72058 20.1679 3.29818 22.5708C3.87578 24.9738 5.24575 27.1122 7.18724 28.6414C9.12872 30.1706 11.5286 31.0015 14 31H14.1988C16.6533 30.9578 19.0233 30.0957 20.9313 28.551C22.8393 27.0062 24.1757 24.8676 24.7278 22.4755C25.28 20.0835 25.016 17.5755 23.9781 15.3508C22.9401 13.1261 21.1878 11.3125 19 10.1987V9C19 8.46957 18.7893 7.96086 18.4142 7.58579C18.0391 7.21071 17.5304 7 17 7H15.11C15.181 6.59893 15.2937 6.20639 15.4463 5.82875C15.9525 4.5975 16.7875 4 18 4C19.3825 4 20.3563 5.22 21.6863 7.08125C23 8.9175 24.485 11 27 11C29.0487 11 30.625 9.88875 31.4287 7.875C31.7825 6.95649 31.9758 5.98399 32 5C32 4.73478 31.8946 4.48043 31.7071 4.29289C31.5196 4.10536 31.2652 4 31 4ZM17.6 11.75C19.495 12.5771 21.0475 14.0314 21.9964 15.8685C22.9452 17.7056 23.2326 19.8134 22.8102 21.8374C22.3877 23.8615 21.2812 25.6783 19.6767 26.9825C18.0723 28.2867 16.0677 28.9986 14 28.9986C11.9323 28.9986 9.92773 28.2867 8.32325 26.9825C6.71878 25.6783 5.61229 23.8615 5.18984 21.8374C4.7674 19.8134 5.05477 17.7056 6.00363 15.8685C6.95248 14.0314 8.50496 12.5771 10.4 11.75C10.5785 11.6721 10.7303 11.5438 10.8369 11.3808C10.9435 11.2178 11.0002 11.0272 11 10.8325V9H17V10.8325C16.9998 11.0272 17.0565 11.2178 17.1631 11.3808C17.2697 11.5438 17.4215 11.6721 17.6 11.75ZM13.9863 26.165C13.9472 26.3984 13.8267 26.6103 13.6461 26.7632C13.4655 26.9161 13.2366 27 13 27C12.9443 26.9998 12.8887 26.9952 12.8338 26.9862C11.384 26.729 10.0483 26.0327 9.00713 24.9916C7.966 23.9505 7.26974 22.6147 7.0125 21.165C6.9895 21.0349 6.99249 20.9016 7.02132 20.7726C7.05015 20.6437 7.10423 20.5218 7.18045 20.4139C7.25666 20.306 7.3535 20.2143 7.46537 20.144C7.57724 20.0738 7.70192 20.0264 7.83221 20.0046C7.96251 19.9828 8.09582 19.987 8.22447 20.017C8.35312 20.047 8.47454 20.1023 8.58173 20.1795C8.68891 20.2567 8.77974 20.3544 8.84896 20.4669C8.91817 20.5794 8.96441 20.7045 8.985 20.835C9.16989 21.8756 9.66978 22.8343 10.4171 23.5816C11.1644 24.329 12.1232 24.8289 13.1638 25.0138C13.2934 25.0353 13.4175 25.0821 13.529 25.1517C13.6405 25.2212 13.7372 25.312 13.8136 25.4189C13.89 25.5258 13.9445 25.6468 13.9742 25.7748C14.0038 25.9028 14.0079 26.0354 13.9863 26.165Z" fill="#343330"/>
</svg>
