<svg width="32" height="32" viewBox="0 0 32 32" fill="none" xmlns="http://www.w3.org/2000/svg">
<path d="M28.9587 7.61128C28.2121 6.71221 27.1435 6.14069 25.9812 6.01878C25.9074 5.34729 25.6834 4.70103 25.3258 4.12793C24.9681 3.55484 24.4861 3.06962 23.9153 2.70826C23.3445 2.3469 22.6998 2.11869 22.0288 2.04053C21.3578 1.96238 20.6778 2.0363 20.0392 2.25681C19.4007 2.47731 18.82 2.83875 18.3403 3.31431C17.8605 3.78986 17.4939 4.36734 17.2678 5.00389C17.0416 5.64045 16.9617 6.31975 17.0339 6.99141C17.1062 7.66307 17.3287 8.30985 17.685 8.88378C17.6855 8.88709 17.6855 8.89047 17.685 8.89378L8.89622 17.6888C8.89622 17.6888 8.89622 17.6888 8.88372 17.6888C8.30979 17.3325 7.66301 17.11 6.99135 17.0377C6.31969 16.9655 5.64039 17.0454 5.00383 17.2716C4.36728 17.4977 3.7898 17.8643 3.31425 18.3441C2.83869 18.8238 2.47725 19.4045 2.25674 20.0431C2.03624 20.6816 1.96232 21.3616 2.04047 22.0326C2.11862 22.7036 2.34684 23.3484 2.7082 23.9191C3.06956 24.4899 3.55478 24.9719 4.12787 25.3296C4.70097 25.6872 5.34723 25.9112 6.01872 25.985C6.09251 26.6565 6.31653 27.3028 6.67417 27.8759C7.0318 28.449 7.51388 28.9342 8.08464 29.2955C8.6554 29.6569 9.30018 29.8851 9.97118 29.9633C10.6422 30.0414 11.3222 29.9675 11.9607 29.747C12.5992 29.5265 13.1799 29.1651 13.6597 28.6895C14.1395 28.2139 14.506 27.6365 14.7322 26.9999C14.9583 26.3634 15.0382 25.6841 14.966 25.0124C14.8938 24.3407 14.6713 23.694 14.315 23.12C14.3147 23.1167 14.3147 23.1134 14.315 23.11L23.1087 14.315C23.1087 14.315 23.1087 14.315 23.1212 14.315C24.0293 14.887 25.112 15.1156 26.1738 14.9595C27.2357 14.8035 28.2068 14.2731 28.9119 13.464C29.6171 12.6549 30.0098 11.6204 30.0193 10.5472C30.0288 9.47399 29.6544 8.43272 28.9637 7.61128H28.9587ZM27.3875 12.145C26.9964 12.5928 26.4586 12.8865 25.8706 12.9736C25.2825 13.0606 24.6827 12.9353 24.1787 12.62C23.795 12.3766 23.3399 12.271 22.8882 12.3208C22.4365 12.3705 22.0152 12.5726 21.6937 12.8938L12.8937 21.6938C12.5733 22.0159 12.3722 22.4375 12.3233 22.8891C12.2745 23.3408 12.3809 23.7956 12.625 24.1788C12.8378 24.5211 12.9647 24.9099 12.9948 25.3119C13.0249 25.7139 12.9574 26.1172 12.7979 26.4875C12.6385 26.8578 12.3919 27.184 12.0791 27.4383C11.7663 27.6926 11.3967 27.8676 11.0017 27.9482C10.6067 28.0288 10.1981 28.0127 9.81066 27.9013C9.42324 27.7898 9.06852 27.5863 8.77674 27.3081C8.48496 27.03 8.26477 26.6854 8.13496 26.3037C8.00515 25.9221 7.96955 25.5147 8.03122 25.1163C8.05361 24.9735 8.04481 24.8276 8.0054 24.6886C7.966 24.5496 7.89694 24.4207 7.80297 24.311C7.70899 24.2012 7.59235 24.1131 7.46106 24.0527C7.32978 23.9924 7.18697 23.9612 7.04247 23.9613C6.99098 23.9617 6.9396 23.9659 6.88872 23.9738C6.49074 24.035 6.08387 23.9991 5.70272 23.8693C5.32157 23.7395 4.97741 23.5195 4.69953 23.2281C4.42165 22.9367 4.21827 22.5825 4.10669 22.1956C3.9951 21.8087 3.97862 21.4006 4.05864 21.006C4.13866 20.6114 4.31281 20.2419 4.56628 19.9291C4.81976 19.6162 5.14505 19.3692 5.51449 19.209C5.88393 19.0489 6.28658 18.9804 6.6882 19.0093C7.08982 19.0382 7.47851 19.1636 7.82122 19.375C8.20491 19.6185 8.66007 19.724 9.11176 19.6743C9.56345 19.6245 9.98472 19.4224 10.3062 19.1013L19.1062 10.3013C19.4254 9.97951 19.6258 9.55888 19.6746 9.10831C19.7234 8.65774 19.6178 8.20395 19.375 7.82128C19.1621 7.47891 19.0352 7.09015 19.0051 6.68815C18.975 6.28614 19.0426 5.88282 19.202 5.51256C19.3614 5.1423 19.6081 4.81609 19.9208 4.56175C20.2336 4.30741 20.6032 4.13247 20.9982 4.05186C21.3932 3.97125 21.8019 3.98736 22.1893 4.09881C22.5767 4.21025 22.9314 4.41374 23.2232 4.69191C23.515 4.97008 23.7352 5.31468 23.865 5.69634C23.9948 6.078 24.0304 6.48539 23.9687 6.88378C23.9444 7.03937 23.9571 7.1985 24.006 7.34823C24.0548 7.49796 24.1382 7.63404 24.2496 7.74539C24.361 7.85675 24.497 7.94023 24.6468 7.98904C24.7965 8.03785 24.9556 8.05061 25.1112 8.02628C25.6203 7.9439 26.1424 8.02097 26.6059 8.24691C27.0695 8.47286 27.4518 8.83662 27.7005 9.28836C27.9493 9.7401 28.0522 10.2577 27.9953 10.7702C27.9383 11.2828 27.7243 11.7652 27.3825 12.1513L27.3875 12.145Z" fill="#343330"/>
</svg>
