<svg width="32" height="32" viewBox="0 0 32 32" fill="none" xmlns="http://www.w3.org/2000/svg">
<path d="M29 9H20C19.2238 9 18.4582 9.18073 17.7639 9.52786C17.0697 9.875 16.4657 10.379 16 11C15.5343 10.379 14.9303 9.875 14.2361 9.52786C13.5418 9.18073 12.7762 9 12 9H3C2.73478 9 2.48043 9.10536 2.29289 9.29289C2.10536 9.48043 2 9.73478 2 10V25C2 25.2652 2.10536 25.5196 2.29289 25.7071C2.48043 25.8946 2.73478 26 3 26H12C12.7956 26 13.5587 26.3161 14.1213 26.8787C14.6839 27.4413 15 28.2043 15 29C15 29.2652 15.1054 29.5196 15.2929 29.7071C15.4804 29.8946 15.7348 30 16 30C16.2652 30 16.5196 29.8946 16.7071 29.7071C16.8946 29.5196 17 29.2652 17 29C17 28.2043 17.3161 27.4413 17.8787 26.8787C18.4413 26.3161 19.2044 26 20 26H29C29.2652 26 29.5196 25.8946 29.7071 25.7071C29.8946 25.5196 30 25.2652 30 25V10C30 9.73478 29.8946 9.48043 29.7071 9.29289C29.5196 9.10536 29.2652 9 29 9ZM12 24H4V11H12C12.7956 11 13.5587 11.3161 14.1213 11.8787C14.6839 12.4413 15 13.2043 15 14V25C14.1353 24.3493 13.0821 23.9983 12 24ZM28 24H20C18.9179 23.9983 17.8647 24.3493 17 25V14C17 13.2043 17.3161 12.4413 17.8787 11.8787C18.4413 11.3161 19.2044 11 20 11H28V24ZM11.2 5.39875C11.7589 4.65357 12.4836 4.04875 13.3167 3.63219C14.1499 3.21562 15.0685 2.99875 16 2.99875C16.9315 2.99875 17.8501 3.21562 18.6833 3.63219C19.5164 4.04875 20.2411 4.65357 20.8 5.39875C20.9595 5.61076 21.0282 5.87743 20.991 6.14009C20.9539 6.40276 20.8139 6.63991 20.6019 6.79937C20.3899 6.95884 20.1232 7.02755 19.8605 6.99039C19.5979 6.95323 19.3607 6.81326 19.2013 6.60125C18.8287 6.10399 18.3455 5.70035 17.7898 5.42234C17.2341 5.14433 16.6213 4.99958 16 4.99958C15.3787 4.99958 14.7659 5.14433 14.2102 5.42234C13.6545 5.70035 13.1713 6.10399 12.7987 6.60125C12.7198 6.70622 12.6209 6.79462 12.5078 6.86139C12.3947 6.92816 12.2695 6.97199 12.1395 6.99039C12.0094 7.00879 11.877 7.00139 11.7498 6.96861C11.6226 6.93584 11.5031 6.87833 11.3981 6.79937C11.2931 6.72042 11.2048 6.62156 11.138 6.50844C11.0712 6.39532 11.0274 6.27015 11.009 6.14009C10.9906 6.01003 10.998 5.87762 11.0308 5.75042C11.0635 5.62322 11.121 5.50372 11.2 5.39875Z" fill="#343330"/>
</svg>
