<svg width="32" height="32" viewBox="0 0 32 32" fill="none" xmlns="http://www.w3.org/2000/svg">
<path d="M16 3C13.4288 3 10.9154 3.76244 8.77759 5.1909C6.63975 6.61935 4.9735 8.64968 3.98956 11.0251C3.00563 13.4006 2.74818 16.0144 3.24979 18.5362C3.7514 21.0579 4.98953 23.3743 6.80761 25.1924C8.62569 27.0105 10.9421 28.2486 13.4638 28.7502C15.9856 29.2518 18.5994 28.9944 20.9749 28.0104C23.3503 27.0265 25.3806 25.3603 26.8091 23.2224C28.2376 21.0846 29 18.5712 29 16C28.9964 12.5533 27.6255 9.24882 25.1884 6.81163C22.7512 4.37445 19.4467 3.00364 16 3ZM23.035 7.55125L7.55 23.035C7.06092 22.4483 6.63405 21.8124 6.27625 21.1375L21.1375 6.27625C21.8127 6.63404 22.4486 7.06135 23.035 7.55125ZM24.4487 8.965C24.9386 9.55139 25.366 10.1873 25.7237 10.8625L10.8625 25.7237C10.1873 25.366 9.55139 24.9386 8.965 24.4487L24.4487 8.965ZM16 5C17.0602 4.99964 18.115 5.1529 19.1312 5.455L5.455 19.1313C4.9676 17.4899 4.8701 15.7574 5.17025 14.0717C5.47041 12.386 6.15993 10.7936 7.18394 9.42136C8.20794 8.0491 9.53815 6.93483 11.0687 6.16725C12.5992 5.39968 14.2878 4.99999 16 5ZM16 27C14.9418 26.9998 13.8893 26.8465 12.875 26.545L26.545 12.875C27.0312 14.516 27.1278 16.2478 26.8271 17.9327C26.5264 19.6176 25.8367 21.209 24.8128 22.5805C23.7889 23.952 22.4592 25.0656 20.9292 25.8329C19.3993 26.6001 17.7115 26.9997 16 27Z" fill="#343330"/>
</svg>
