<svg width="32" height="32" viewBox="0 0 32 32" fill="none" xmlns="http://www.w3.org/2000/svg">
<path d="M28 14H4C3.73478 14 3.48043 14.1054 3.29289 14.2929C3.10536 14.4804 3 14.7348 3 15C3.00439 17.3782 3.65887 19.7099 4.89264 21.7429C6.12641 23.776 7.89253 25.4331 10 26.535V27C10 27.5304 10.2107 28.0392 10.5858 28.4142C10.9609 28.7893 11.4696 29 12 29H20C20.5304 29 21.0391 28.7893 21.4142 28.4142C21.7893 28.0392 22 27.5304 22 27V26.535C24.1075 25.4331 25.8736 23.776 27.1074 21.7429C28.3411 19.7099 28.9956 17.3782 29 15C29 14.7348 28.8946 14.4804 28.7071 14.2929C28.5196 14.1054 28.2652 14 28 14ZM20.5825 25C20.4086 25.0799 20.2614 25.208 20.1581 25.369C20.0549 25.5301 20 25.7174 20 25.9088V27H12V25.9113C12.0005 25.7195 11.9458 25.5317 11.8426 25.3701C11.7393 25.2085 11.5917 25.0801 11.4175 25C9.6589 24.1908 8.1441 22.9332 7.02513 21.3535C5.90617 19.7737 5.22242 17.9275 5.0425 16H26.9538C26.7742 17.9271 26.091 19.7731 24.9727 21.3528C23.8544 22.9324 22.3404 24.1903 20.5825 25ZM10.2212 6.87501C10.89 6.04251 11.055 5.48001 10.9862 5.23251C10.9338 5.04626 10.685 4.95001 10.6825 4.95001C10.4561 4.87562 10.2638 4.72285 10.1401 4.51922C10.0164 4.31559 9.96941 4.07447 10.0077 3.8393C10.046 3.60412 10.167 3.39035 10.3489 3.23648C10.5308 3.08261 10.7617 2.99875 11 3.00001C11.1009 3.00013 11.2011 3.0153 11.2975 3.04501C11.4225 3.08376 12.5363 3.46126 12.8962 4.64001C13.2037 5.64876 12.8275 6.82126 11.7788 8.12626C11.11 8.95876 10.945 9.52126 11.0138 9.76876C11.0662 9.95501 11.31 10.0488 11.3125 10.05C11.5384 10.1243 11.7305 10.2766 11.8543 10.4797C11.978 10.6829 12.0253 10.9234 11.9877 11.1583C11.95 11.3931 11.8299 11.6068 11.6489 11.7611C11.4679 11.9154 11.2378 12.0001 11 12C10.8991 11.9999 10.7989 11.9847 10.7025 11.955C10.5775 11.9163 9.46375 11.5388 9.10375 10.36C8.79625 9.35126 9.1725 8.17876 10.2212 6.87501ZM15.2212 6.87501C15.89 6.04251 16.055 5.48001 15.9862 5.23251C15.9338 5.04626 15.685 4.95001 15.6825 4.95001C15.4561 4.87562 15.2638 4.72285 15.1401 4.51922C15.0164 4.31559 14.9694 4.07447 15.0077 3.8393C15.046 3.60412 15.167 3.39035 15.3489 3.23648C15.5308 3.08261 15.7617 2.99875 16 3.00001C16.1009 3.00013 16.2011 3.0153 16.2975 3.04501C16.4225 3.08376 17.5363 3.46126 17.8962 4.64001C18.2037 5.64876 17.8275 6.82126 16.7787 8.12626C16.11 8.95876 15.945 9.52126 16.0138 9.76876C16.0662 9.95501 16.31 10.0488 16.3125 10.05C16.5384 10.1243 16.7305 10.2766 16.8543 10.4797C16.978 10.6829 17.0253 10.9234 16.9877 11.1583C16.95 11.3931 16.8299 11.6068 16.6489 11.7611C16.4679 11.9154 16.2378 12.0001 16 12C15.8991 11.9999 15.7989 11.9847 15.7025 11.955C15.5775 11.9163 14.4637 11.5388 14.1038 10.36C13.7963 9.35126 14.1725 8.17876 15.2212 6.87501ZM20.2213 6.87501C20.89 6.04251 21.055 5.48001 20.9862 5.23251C20.9338 5.04626 20.685 4.95001 20.6825 4.95001C20.4561 4.87562 20.2638 4.72285 20.1401 4.51922C20.0164 4.31559 19.9694 4.07447 20.0077 3.8393C20.046 3.60412 20.167 3.39035 20.3489 3.23648C20.5308 3.08261 20.7617 2.99875 21 3.00001C21.1009 3.00013 21.2011 3.0153 21.2975 3.04501C21.4225 3.08376 22.5362 3.46126 22.8962 4.64001C23.2038 5.64876 22.8275 6.82126 21.7787 8.12626C21.11 8.95876 20.945 9.52126 21.0138 9.76876C21.0662 9.95501 21.31 10.0488 21.3125 10.05C21.5384 10.1243 21.7305 10.2766 21.8543 10.4797C21.978 10.6829 22.0253 10.9234 21.9877 11.1583C21.95 11.3931 21.8299 11.6068 21.6489 11.7611C21.4679 11.9154 21.2378 12.0001 21 12C20.8991 11.9999 20.7989 11.9847 20.7025 11.955C20.5775 11.9163 19.4638 11.5388 19.1038 10.36C18.7963 9.35126 19.1725 8.17876 20.2213 6.87501Z" fill="#343330"/>
</svg>
