<svg width="32" height="32" viewBox="0 0 32 32" fill="none" xmlns="http://www.w3.org/2000/svg">
<path d="M16 3C13.4288 3 10.9154 3.76244 8.77759 5.1909C6.63975 6.61935 4.97351 8.64968 3.98957 11.0251C3.00563 13.4006 2.74819 16.0144 3.2498 18.5362C3.75141 21.0579 4.98953 23.3743 6.80762 25.1924C8.6257 27.0105 10.9421 28.2486 13.4638 28.7502C15.9856 29.2518 18.5995 28.9944 20.9749 28.0104C23.3503 27.0265 25.3807 25.3603 26.8091 23.2224C28.2376 21.0846 29 18.5712 29 16C28.9964 12.5533 27.6256 9.24882 25.1884 6.81163C22.7512 4.37445 19.4467 3.00364 16 3ZM16 27C13.8244 27 11.6977 26.3549 9.88873 25.1462C8.07979 23.9375 6.66989 22.2195 5.83733 20.2095C5.00477 18.1995 4.78693 15.9878 5.21137 13.854C5.63581 11.7202 6.68345 9.7602 8.22183 8.22183C9.76021 6.68345 11.7202 5.6358 13.854 5.21136C15.9878 4.78692 18.1995 5.00476 20.2095 5.83733C22.2195 6.66989 23.9375 8.07979 25.1462 9.88873C26.3549 11.6977 27 13.8244 27 16C26.9967 18.9164 25.8367 21.7123 23.7745 23.7745C21.7123 25.8367 18.9164 26.9967 16 27ZM18 14.5C18 14.7967 17.912 15.0867 17.7472 15.3334C17.5824 15.58 17.3481 15.7723 17.074 15.8858C16.7999 15.9994 16.4983 16.0291 16.2074 15.9712C15.9164 15.9133 15.6491 15.7704 15.4393 15.5607C15.2296 15.3509 15.0867 15.0836 15.0288 14.7926C14.971 14.5017 15.0007 14.2001 15.1142 13.926C15.2277 13.6519 15.42 13.4176 15.6667 13.2528C15.9133 13.088 16.2033 13 16.5 13C16.8978 13 17.2794 13.158 17.5607 13.4393C17.842 13.7206 18 14.1022 18 14.5ZM20.5 13C20.2033 13 19.9133 12.912 19.6667 12.7472C19.42 12.5824 19.2277 12.3481 19.1142 12.074C19.0007 11.7999 18.971 11.4983 19.0288 11.2074C19.0867 10.9164 19.2296 10.6491 19.4393 10.4393C19.6491 10.2296 19.9164 10.0867 20.2074 10.0288C20.4983 9.97094 20.7999 10.0006 21.074 10.1142C21.3481 10.2277 21.5824 10.42 21.7472 10.6666C21.912 10.9133 22 11.2033 22 11.5C22 11.8978 21.842 12.2794 21.5607 12.5607C21.2794 12.842 20.8978 13 20.5 13ZM23 16.5C23 16.7967 22.912 17.0867 22.7472 17.3334C22.5824 17.58 22.3481 17.7723 22.074 17.8858C21.7999 17.9993 21.4983 18.0291 21.2074 17.9712C20.9164 17.9133 20.6491 17.7704 20.4393 17.5607C20.2296 17.3509 20.0867 17.0836 20.0288 16.7926C19.9709 16.5017 20.0007 16.2001 20.1142 15.926C20.2277 15.6519 20.42 15.4176 20.6667 15.2528C20.9133 15.088 21.2033 15 21.5 15C21.8978 15 22.2794 15.158 22.5607 15.4393C22.842 15.7206 23 16.1022 23 16.5Z" fill="#343330"/>
</svg>
