<svg width="32" height="32" viewBox="0 0 32 32" fill="none" xmlns="http://www.w3.org/2000/svg">
<path d="M28 13H26.9538C26.7025 10.2686 25.4398 7.72964 23.4134 5.88106C21.3869 4.03248 18.7429 3.00769 16 3.00769C13.2571 3.00769 10.6131 4.03248 8.58664 5.88106C6.5602 7.72964 5.29752 10.2686 5.04625 13H4C3.73478 13 3.48043 13.1054 3.29289 13.2929C3.10536 13.4805 3 13.7348 3 14C3.00439 16.3782 3.65887 18.7099 4.89264 20.743C6.12641 22.776 7.89253 24.4331 10 25.535V26C10 26.5305 10.2107 27.0392 10.5858 27.4143C10.9609 27.7893 11.4696 28 12 28H20C20.5304 28 21.0391 27.7893 21.4142 27.4143C21.7893 27.0392 22 26.5305 22 26V25.535C24.1075 24.4331 25.8736 22.776 27.1074 20.743C28.3411 18.7099 28.9956 16.3782 29 14C29 13.7348 28.8946 13.4805 28.7071 13.2929C28.5196 13.1054 28.2652 13 28 13ZM24.9425 13H18.515C19.7274 11.1811 21.5616 9.86693 23.6737 9.30379C24.3643 10.4271 24.7976 11.6894 24.9425 13ZM21.685 7.02879C21.9142 7.21629 22.1338 7.41421 22.3438 7.62254C19.6817 8.55898 17.4819 10.4835 16.2 12.9975H12.5125C13.1375 11.2456 14.2882 9.7293 15.8073 8.65585C17.3264 7.5824 19.1399 7.00413 21 7.00004C21.2288 7.00004 21.4575 7.01129 21.685 7.02879ZM16 5.00004C16.8025 5.00057 17.6012 5.10861 18.375 5.32129C16.4905 5.78876 14.7626 6.74471 13.3653 8.09282C11.9681 9.44092 10.9509 11.1335 10.4163 13H7.0575C7.30556 10.8011 8.35415 8.77038 10.0034 7.29497C11.6526 5.81956 13.7871 5.00267 16 5.00004ZM20.5825 24C20.4081 24.0802 20.2604 24.2088 20.1571 24.3706C20.0538 24.5325 19.9993 24.7206 20 24.9125V26H12V24.9125C12.0007 24.7206 11.9462 24.5325 11.8429 24.3706C11.7396 24.2088 11.5919 24.0802 11.4175 24C9.6589 23.1908 8.1441 21.9332 7.02513 20.3535C5.90617 18.7738 5.22242 16.9275 5.0425 15H26.9538C26.7742 16.9271 26.091 18.7731 24.9727 20.3528C23.8544 21.9325 22.3404 23.1903 20.5825 24Z" fill="#343330"/>
</svg>
