<svg width="32" height="32" viewBox="0 0 32 32" fill="none" xmlns="http://www.w3.org/2000/svg">
<path d="M5.3975 16C5.82128 16.3486 6.16276 16.7865 6.3975 17.2825C6.9975 18.52 6.9975 20.0325 6.9975 21.5C6.9975 24.5387 7.1225 26 9.9975 26C10.2627 26 10.5171 26.1054 10.7046 26.2929C10.8921 26.4804 10.9975 26.7348 10.9975 27C10.9975 27.2652 10.8921 27.5196 10.7046 27.7071C10.5171 27.8946 10.2627 28 9.9975 28C7.8125 28 6.3325 27.2325 5.5975 25.7175C4.9975 24.48 4.9975 22.9675 4.9975 21.5C4.9975 18.4613 4.8725 17 1.9975 17C1.73228 17 1.47793 16.8946 1.29039 16.7071C1.10285 16.5196 0.997498 16.2652 0.997498 16C0.997498 15.7348 1.10285 15.4804 1.29039 15.2929C1.47793 15.1054 1.73228 15 1.9975 15C4.8725 15 4.9975 13.5387 4.9975 10.5C4.9975 9.035 4.9975 7.52 5.5975 6.2825C6.335 4.7675 7.815 4 10 4C10.2652 4 10.5196 4.10536 10.7071 4.29289C10.8946 4.48043 11 4.73478 11 5C11 5.26522 10.8946 5.51957 10.7071 5.70711C10.5196 5.89464 10.2652 6 10 6C7.125 6 7 7.46125 7 10.5C7 11.965 7 13.48 6.4 14.7175C6.16454 15.2137 5.82219 15.6517 5.3975 16ZM30 15C27.125 15 27 13.5387 27 10.5C27 9.035 27 7.52 26.4 6.2825C25.665 4.7675 24.185 4 22 4C21.7348 4 21.4804 4.10536 21.2929 4.29289C21.1054 4.48043 21 4.73478 21 5C21 5.26522 21.1054 5.51957 21.2929 5.70711C21.4804 5.89464 21.7348 6 22 6C24.875 6 25 7.46125 25 10.5C25 11.965 25 13.48 25.6 14.7175C25.8347 15.2135 26.1762 15.6514 26.6 16C26.1762 16.3486 25.8347 16.7865 25.6 17.2825C25 18.52 25 20.0325 25 21.5C25 24.5387 24.875 26 22 26C21.7348 26 21.4804 26.1054 21.2929 26.2929C21.1054 26.4804 21 26.7348 21 27C21 27.2652 21.1054 27.5196 21.2929 27.7071C21.4804 27.8946 21.7348 28 22 28C24.185 28 25.665 27.2325 26.4 25.7175C27 24.48 27 22.9675 27 21.5C27 18.4613 27.125 17 30 17C30.2652 17 30.5196 16.8946 30.7071 16.7071C30.8946 16.5196 31 16.2652 31 16C31 15.7348 30.8946 15.4804 30.7071 15.2929C30.5196 15.1054 30.2652 15 30 15Z" fill="#343330"/>
</svg>
