<svg width="32" height="32" viewBox="0 0 32 32" fill="none" xmlns="http://www.w3.org/2000/svg">
<path d="M5 16C5 23.2863 9.33375 26.0313 9.51875 26.145C9.74584 26.2821 9.90918 26.5038 9.97282 26.7613C10.0365 27.0188 9.99521 27.291 9.85812 27.5181C9.72104 27.7452 9.49936 27.9086 9.24185 27.9722C8.98434 28.0358 8.71209 27.9946 8.485 27.8575C8.26125 27.7225 3 24.4688 3 16C3 7.53125 8.26125 4.2775 8.485 4.1425C8.71186 4.01122 8.9812 3.97425 9.23504 4.03955C9.48888 4.10486 9.70694 4.26722 9.84227 4.49168C9.97761 4.71615 10.0194 4.98478 9.95866 5.23976C9.89792 5.49473 9.7395 5.71566 9.5175 5.855C9.3175 5.97875 5 8.7275 5 16ZM23.515 4.1425C23.2879 4.00542 23.0157 3.96416 22.7582 4.02781C22.5006 4.09145 22.279 4.25479 22.1419 4.48188C22.0048 4.70897 21.9635 4.98122 22.0272 5.23873C22.0908 5.49624 22.2542 5.71792 22.4813 5.855C22.6663 5.96875 27 8.71375 27 16C27 23.2863 22.6663 26.0313 22.485 26.1425C22.2576 26.2791 22.0937 26.5004 22.0295 26.7578C21.9653 27.0152 22.0059 27.2876 22.1425 27.515C22.2791 27.7424 22.5004 27.9063 22.7578 27.9705C23.0152 28.0347 23.2876 27.9941 23.515 27.8575C23.7387 27.7225 29 24.4688 29 16C29 7.53125 23.7387 4.2775 23.515 4.1425Z" fill="#343330"/>
</svg>
