<svg width="32" height="32" viewBox="0 0 32 32" fill="none" xmlns="http://www.w3.org/2000/svg">
<path d="M10.8437 5.5375L4.185 16L10.8437 26.4625C10.9143 26.5734 10.9624 26.6971 10.9851 26.8265C11.0079 26.9559 11.0049 27.0886 10.9763 27.2169C10.9477 27.3451 10.8942 27.4665 10.8187 27.5741C10.7432 27.6817 10.6472 27.7733 10.5362 27.8438C10.3762 27.9463 10.19 28.0005 10 28C9.83148 28.0002 9.66566 27.9577 9.51793 27.8767C9.3702 27.7956 9.24536 27.6785 9.15499 27.5363L2.155 16.5363C2.05289 16.3758 1.99866 16.1896 1.99866 15.9994C1.99866 15.8092 2.05289 15.623 2.155 15.4625L9.15499 4.4625C9.29738 4.23872 9.52283 4.08068 9.78175 4.02313C10.0407 3.96558 10.3118 4.01324 10.5356 4.15563C10.7594 4.29801 10.9174 4.52347 10.975 4.78238C11.0325 5.0413 10.9849 5.31247 10.8425 5.53625L10.8437 5.5375ZM29.8437 15.4638L22.8437 4.46375C22.7732 4.35295 22.6816 4.25712 22.5741 4.18173C22.4665 4.10634 22.3452 4.05287 22.217 4.02438C21.9581 3.96683 21.6869 4.01449 21.4631 4.15688C21.2393 4.29926 21.0813 4.52472 21.0237 4.78363C20.9662 5.04255 21.0139 5.31372 21.1562 5.5375L27.815 16L21.1562 26.4625C21.0857 26.5734 21.0376 26.6971 21.0149 26.8265C20.9921 26.9559 20.9951 27.0886 21.0237 27.2169C21.0522 27.3451 21.1058 27.4665 21.1813 27.5741C21.2568 27.6817 21.3528 27.7733 21.4637 27.8438C21.6238 27.9463 21.8099 28.0005 22 28C22.1685 28.0002 22.3343 27.9577 22.4821 27.8767C22.6298 27.7956 22.7546 27.6785 22.845 27.5363L29.845 16.5363C29.9467 16.3758 30.0005 16.1898 30.0003 15.9998C30.0001 15.8099 29.9458 15.6239 29.8437 15.4638Z" fill="#343330"/>
</svg>
