<svg width="32" height="32" viewBox="0 0 32 32" fill="none" xmlns="http://www.w3.org/2000/svg">
<path d="M31 15.5C30.9987 14.1754 30.6223 12.8783 29.9144 11.7587C29.2065 10.6391 28.1961 9.74291 27 9.17375V9C26.9988 7.71152 26.5829 6.45764 25.8138 5.42389C25.0447 4.39014 23.9633 3.63143 22.7295 3.26003C21.4957 2.88863 20.1751 2.92427 18.9632 3.36168C17.7512 3.79909 16.7122 4.61502 16 5.68875C15.2878 4.61502 14.2488 3.79909 13.0368 3.36168C11.8249 2.92427 10.5043 2.88863 9.27052 3.26003C8.03673 3.63143 6.95527 4.39014 6.18616 5.42389C5.41705 6.45764 5.00115 7.71152 5 9V9.17375C3.80292 9.74136 2.79149 10.637 2.08326 11.7567C1.37502 12.8763 0.999062 14.1739 0.999062 15.4987C0.999062 16.8236 1.37502 18.1212 2.08326 19.2408C2.79149 20.3605 3.80292 21.2561 5 21.8237V22C5.00115 23.2885 5.41705 24.5424 6.18616 25.5761C6.95527 26.6099 8.03673 27.3686 9.27052 27.74C10.5043 28.1114 11.8249 28.0757 13.0368 27.6383C14.2488 27.2009 15.2878 26.385 16 25.3113C16.7122 26.385 17.7512 27.2009 18.9632 27.6383C20.1751 28.0757 21.4957 28.1114 22.7295 27.74C23.9633 27.3686 25.0447 26.6099 25.8138 25.5761C26.5829 24.5424 26.9988 23.2885 27 22V21.8237C28.1959 21.255 29.2062 20.3592 29.9141 19.2401C30.622 18.121 30.9985 16.8242 31 15.5ZM11 26C10.0137 25.9999 9.06219 25.6353 8.32828 24.9764C7.59437 24.3175 7.12978 23.4106 7.02375 22.43C7.34713 22.4761 7.67335 22.4995 8 22.5H9C9.26522 22.5 9.51957 22.3946 9.70711 22.2071C9.89464 22.0196 10 21.7652 10 21.5C10 21.2348 9.89464 20.9804 9.70711 20.7929C9.51957 20.6054 9.26522 20.5 9 20.5H8C6.81945 20.5014 5.67649 20.085 4.77347 19.3246C3.87046 18.5641 3.26564 17.5087 3.0661 16.3451C2.86656 15.1816 3.08516 13.9849 3.68322 12.9671C4.28127 11.9492 5.22019 11.1758 6.33375 10.7838C6.52859 10.7148 6.69727 10.5871 6.81658 10.4183C6.93589 10.2495 6.99997 10.0479 7 9.84125V9C7 7.93913 7.42143 6.92172 8.17157 6.17157C8.92172 5.42143 9.93913 5 11 5C12.0609 5 13.0783 5.42143 13.8284 6.17157C14.5786 6.92172 15 7.93913 15 9V17.5325C13.9019 16.5449 12.4769 15.9989 11 16C10.7348 16 10.4804 16.1054 10.2929 16.2929C10.1054 16.4804 10 16.7348 10 17C10 17.2652 10.1054 17.5196 10.2929 17.7071C10.4804 17.8946 10.7348 18 11 18C12.0609 18 13.0783 18.4214 13.8284 19.1716C14.5786 19.9217 15 20.9391 15 22C15 23.0609 14.5786 24.0783 13.8284 24.8284C13.0783 25.5786 12.0609 26 11 26ZM24 20.5H23C22.7348 20.5 22.4804 20.6054 22.2929 20.7929C22.1054 20.9804 22 21.2348 22 21.5C22 21.7652 22.1054 22.0196 22.2929 22.2071C22.4804 22.3946 22.7348 22.5 23 22.5H24C24.3267 22.4995 24.6529 22.4761 24.9762 22.43C24.8932 23.1983 24.5893 23.9262 24.1014 24.5255C23.6134 25.1248 22.9624 25.5699 22.2268 25.807C21.4913 26.0442 20.7028 26.0632 19.9567 25.8617C19.2106 25.6603 18.5389 25.247 18.0227 24.6719C17.5065 24.0967 17.1679 23.3844 17.0479 22.621C16.928 21.8575 17.0317 21.0757 17.3466 20.3699C17.6616 19.6642 18.1742 19.0648 18.8225 18.6442C19.4709 18.2237 20.2272 17.9999 21 18C21.2652 18 21.5196 17.8946 21.7071 17.7071C21.8946 17.5196 22 17.2652 22 17C22 16.7348 21.8946 16.4804 21.7071 16.2929C21.5196 16.1054 21.2652 16 21 16C19.5231 15.9989 18.0981 16.5449 17 17.5325V9C17 7.93913 17.4214 6.92172 18.1716 6.17157C18.9217 5.42143 19.9391 5 21 5C22.0609 5 23.0783 5.42143 23.8284 6.17157C24.5786 6.92172 25 7.93913 25 9V9.84125C25 10.0479 25.0641 10.2495 25.1834 10.4183C25.3027 10.5871 25.4714 10.7148 25.6663 10.7838C26.7798 11.1758 27.7187 11.9492 28.3168 12.9671C28.9148 13.9849 29.1334 15.1816 28.9339 16.3451C28.7344 17.5087 28.1295 18.5641 27.2265 19.3246C26.3235 20.085 25.1805 20.5014 24 20.5ZM26 14C26 14.2652 25.8946 14.5196 25.7071 14.7071C25.5196 14.8946 25.2652 15 25 15H24.5C23.3065 15 22.1619 14.5259 21.318 13.682C20.4741 12.8381 20 11.6935 20 10.5V10C20 9.73478 20.1054 9.48043 20.2929 9.29289C20.4804 9.10536 20.7348 9 21 9C21.2652 9 21.5196 9.10536 21.7071 9.29289C21.8946 9.48043 22 9.73478 22 10V10.5C22 11.163 22.2634 11.7989 22.7322 12.2678C23.2011 12.7366 23.837 13 24.5 13H25C25.2652 13 25.5196 13.1054 25.7071 13.2929C25.8946 13.4804 26 13.7348 26 14ZM7.5 15H7C6.73478 15 6.48043 14.8946 6.29289 14.7071C6.10536 14.5196 6 14.2652 6 14C6 13.7348 6.10536 13.4804 6.29289 13.2929C6.48043 13.1054 6.73478 13 7 13H7.5C8.16304 13 8.79892 12.7366 9.26777 12.2678C9.73661 11.7989 10 11.163 10 10.5V10C10 9.73478 10.1054 9.48043 10.2929 9.29289C10.4804 9.10536 10.7348 9 11 9C11.2652 9 11.5196 9.10536 11.7071 9.29289C11.8946 9.48043 12 9.73478 12 10V10.5C12 11.6935 11.5259 12.8381 10.682 13.682C9.83807 14.5259 8.69347 15 7.5 15Z" fill="#343330"/>
</svg>
