<svg width="32" height="32" viewBox="0 0 32 32" fill="none" xmlns="http://www.w3.org/2000/svg">
<path d="M30 10C30 8.67392 29.4732 7.40215 28.5356 6.46447C27.5979 5.52678 26.3261 5 25 5H6.00003C4.85187 5.0007 3.73893 5.39652 2.84819 6.12098C1.95744 6.84544 1.34317 7.85438 1.10856 8.97832C0.873945 10.1022 1.0333 11.2727 1.55984 12.293C2.08638 13.3133 2.94803 14.1213 4.00003 14.5813V25C4.00003 25.5304 4.21074 26.0391 4.58581 26.4142C4.96089 26.7893 5.46959 27 6.00003 27H25C25.5305 27 26.0392 26.7893 26.4142 26.4142C26.7893 26.0391 27 25.5304 27 25V14.5813C27.8909 14.1914 28.649 13.5506 29.1817 12.737C29.7145 11.9235 29.9988 10.9724 30 10ZM6.00003 15C6.26524 15 6.5196 14.8946 6.70713 14.7071C6.89467 14.5196 7.00003 14.2652 7.00003 14C7.00003 13.7348 6.89467 13.4804 6.70713 13.2929C6.5196 13.1054 6.26524 13 6.00003 13C5.20438 13 4.44131 12.6839 3.87871 12.1213C3.3161 11.5587 3.00003 10.7956 3.00003 10C3.00003 9.20435 3.3161 8.44129 3.87871 7.87868C4.44131 7.31607 5.20438 7 6.00003 7H18C18.7957 7 19.5587 7.31607 20.1213 7.87868C20.684 8.44129 21 9.20435 21 10C21 10.7956 20.684 11.5587 20.1213 12.1213C19.5587 12.6839 18.7957 13 18 13C17.7348 13 17.4805 13.1054 17.2929 13.2929C17.1054 13.4804 17 13.7348 17 14C17 14.2652 17.1054 14.5196 17.2929 14.7071C17.4805 14.8946 17.7348 15 18 15V25H6.00003V15ZM25 13C24.7348 13 24.4805 13.1054 24.2929 13.2929C24.1054 13.4804 24 13.7348 24 14C24 14.2652 24.1054 14.5196 24.2929 14.7071C24.4805 14.8946 24.7348 15 25 15V25H20V14.5813C20.6912 14.2795 21.3051 13.8252 21.7959 13.2526C22.2866 12.6799 22.6415 12.0036 22.8339 11.2744C23.0263 10.5452 23.0512 9.78188 22.9068 9.04165C22.7624 8.30143 22.4524 7.60346 22 7H25C25.7957 7 26.5587 7.31607 27.1213 7.87868C27.684 8.44129 28 9.20435 28 10C28 10.7956 27.684 11.5587 27.1213 12.1213C26.5587 12.6839 25.7957 13 25 13Z" fill="#343330"/>
</svg>
