<svg width="32" height="32" viewBox="0 0 32 32" fill="none" xmlns="http://www.w3.org/2000/svg">
<path d="M15.9999 11C15.011 11 14.0443 11.2933 13.2221 11.8427C12.3998 12.3921 11.759 13.173 11.3805 14.0866C11.0021 15.0002 10.9031 16.0056 11.096 16.9755C11.2889 17.9454 11.7651 18.8363 12.4644 19.5355C13.1637 20.2348 14.0546 20.711 15.0245 20.9039C15.9944 21.0969 16.9997 20.9979 17.9134 20.6194C18.827 20.241 19.6079 19.6001 20.1573 18.7779C20.7067 17.9556 20.9999 16.9889 20.9999 16C20.9999 14.6739 20.4732 13.4022 19.5355 12.4645C18.5978 11.5268 17.326 11 15.9999 11ZM15.9999 19C15.4066 19 14.8266 18.8241 14.3332 18.4944C13.8399 18.1648 13.4554 17.6962 13.2283 17.1481C13.0012 16.5999 12.9418 15.9967 13.0576 15.4147C13.1733 14.8328 13.4591 14.2983 13.8786 13.8787C14.2982 13.4591 14.8327 13.1734 15.4147 13.0577C15.9966 12.9419 16.5998 13.0013 17.148 13.2284C17.6962 13.4554 18.1647 13.84 18.4944 14.3333C18.824 14.8267 18.9999 15.4067 18.9999 16C18.9999 16.7957 18.6839 17.5587 18.1213 18.1213C17.5587 18.6839 16.7956 19 15.9999 19ZM25.2137 19.8925C24.7841 20.9082 24.1894 21.8459 23.4537 22.6675C23.2756 22.8603 23.0288 22.9753 22.7666 22.9877C22.5044 23.0001 22.2479 22.9089 22.0523 22.7339C21.8568 22.5588 21.7379 22.3139 21.7213 22.052C21.7047 21.79 21.7918 21.5321 21.9637 21.3338C23.2767 19.8677 24.0028 17.9688 24.0028 16.0006C24.0028 14.0325 23.2767 12.1336 21.9637 10.6675C21.8737 10.5701 21.8039 10.4557 21.7585 10.3311C21.7131 10.2064 21.6929 10.074 21.6992 9.94148C21.7055 9.80897 21.7381 9.67903 21.7951 9.55924C21.852 9.43944 21.9323 9.33218 22.0311 9.2437C22.13 9.15522 22.2454 9.08729 22.3708 9.04387C22.4961 9.00045 22.6289 8.98241 22.7613 8.99079C22.8937 8.99917 23.0231 9.03382 23.142 9.0927C23.2608 9.15158 23.3668 9.23353 23.4537 9.33376C24.7164 10.7467 25.5521 12.489 25.8636 14.3581C26.1752 16.2272 25.9498 18.1464 25.2137 19.8925ZM8.62495 12.8863C8.03492 14.283 7.85396 15.8186 8.10315 17.3142C8.35235 18.8098 9.02143 20.2038 10.0324 21.3338C10.2044 21.5321 10.2914 21.79 10.2748 22.052C10.2583 22.3139 10.1394 22.5588 9.9438 22.7339C9.74824 22.9089 9.4917 23.0001 9.22953 22.9877C8.96736 22.9753 8.72058 22.8603 8.54244 22.6675C6.90068 20.835 5.99283 18.4611 5.99283 16.0006C5.99283 13.5402 6.90068 11.1663 8.54244 9.33376C8.71931 9.13568 8.96762 9.01597 9.23275 9.00097C9.49788 8.98596 9.75811 9.0769 9.95619 9.25376C10.1543 9.43063 10.274 9.67894 10.289 9.94407C10.304 10.2092 10.2131 10.4694 10.0362 10.6675C9.44619 11.3239 8.96929 12.0737 8.62495 12.8863ZM30.9999 16C31.006 19.9272 29.4663 23.699 26.7137 26.5C26.6226 26.5974 26.513 26.6756 26.3913 26.7299C26.2696 26.7843 26.1382 26.8138 26.0049 26.8167C25.8716 26.8196 25.7391 26.7958 25.6152 26.7467C25.4912 26.6976 25.3783 26.6242 25.2832 26.5309C25.188 26.4375 25.1124 26.3261 25.0609 26.2031C25.0095 26.0801 24.9831 25.9481 24.9834 25.8148C24.9836 25.6815 25.0106 25.5496 25.0626 25.4268C25.1146 25.3041 25.1906 25.193 25.2862 25.1C27.6696 22.6717 29.0049 19.4051 29.0049 16.0025C29.0049 12.6 27.6696 9.33331 25.2862 6.90501C25.0999 6.71572 24.9964 6.46016 24.9985 6.19456C25.0006 5.92896 25.1081 5.67508 25.2974 5.48876C25.4867 5.30245 25.7423 5.19896 26.0079 5.20107C26.2735 5.20318 26.5274 5.31072 26.7137 5.50001C29.4663 8.30105 31.006 12.0728 30.9999 16ZM6.7137 25.0975C6.80578 25.1912 6.87851 25.3022 6.92772 25.424C6.97693 25.5459 7.00166 25.6762 7.0005 25.8076C6.99934 25.939 6.97231 26.0689 6.92096 26.1898C6.8696 26.3108 6.79493 26.4204 6.7012 26.5125C6.60746 26.6046 6.49651 26.6773 6.37468 26.7265C6.25284 26.7758 6.1225 26.8005 5.99111 26.7993C5.85971 26.7982 5.72983 26.7711 5.60888 26.7198C5.48793 26.6684 5.37828 26.5937 5.2862 26.5C2.53393 23.6981 0.991821 19.9276 0.991821 16C0.991821 12.0725 2.53393 8.30192 5.2862 5.50001C5.37726 5.40265 5.48688 5.32448 5.6086 5.27009C5.73031 5.21571 5.86168 5.18621 5.99496 5.18334C6.12825 5.18046 6.26076 5.20427 6.38471 5.25335C6.50866 5.30244 6.62154 5.37581 6.71672 5.46916C6.81191 5.5625 6.88746 5.67394 6.93895 5.79691C6.99043 5.91988 7.01681 6.05191 7.01653 6.18522C7.01624 6.31854 6.98931 6.45045 6.9373 6.5732C6.8853 6.69596 6.80927 6.80707 6.7137 6.90001C4.33028 9.32831 2.99499 12.595 2.99499 15.9975C2.99499 19.4001 4.33028 22.6667 6.7137 25.095V25.0975Z" fill="#343330"/>
</svg>
