<svg width="32" height="32" viewBox="0 0 32 32" fill="none" xmlns="http://www.w3.org/2000/svg">
<path d="M29.4375 27.1013C26.6175 25.7263 25 22.7788 25 19.0013V16.8413C25.0011 16.4405 24.8813 16.0488 24.6563 15.7172C24.4313 15.3856 24.1115 15.1296 23.7388 14.9825L20.625 13.75C20.3801 13.652 20.1837 13.4612 20.0788 13.2191C19.9739 12.977 19.969 12.7033 20.065 12.4575L22.73 5.83252C22.9109 5.3977 23.0021 4.93084 22.9983 4.45992C22.9945 3.98899 22.8957 3.52368 22.7078 3.09185C22.5199 2.66002 22.2467 2.27056 21.9048 1.94677C21.5628 1.62299 21.159 1.37155 20.7175 1.20752C19.8577 0.892476 18.9089 0.925163 18.0728 1.29863C17.2367 1.67211 16.5792 2.35692 16.24 3.20752C16.2395 3.21251 16.2395 3.21753 16.24 3.22252L13.6125 9.87502C13.5148 10.1211 13.3235 10.3184 13.0804 10.4237C12.8374 10.5289 12.5626 10.5334 12.3163 10.4363L9.13878 9.14252C8.77242 8.99407 8.3701 8.9583 7.98331 9.03981C7.59651 9.12131 7.24283 9.31637 6.96753 9.60002C4.33503 12.3063 3.00003 15.4688 3.00003 19C2.99311 22.6137 4.39061 26.0886 6.89753 28.6913C6.99145 28.7895 7.1044 28.8675 7.22948 28.9206C7.35456 28.9736 7.48915 29.0007 7.62503 29H29C29.226 28.9998 29.4453 28.923 29.6221 28.7822C29.7989 28.6414 29.9228 28.4448 29.9735 28.2246C30.0243 28.0043 29.9989 27.7733 29.9016 27.5694C29.8042 27.3654 29.6407 27.2004 29.4375 27.1013ZM8.39253 11L11.5688 12.2875C11.9354 12.4342 12.3274 12.507 12.7223 12.5019C13.1171 12.4967 13.5071 12.4137 13.8698 12.2575C14.2324 12.1013 14.5607 11.875 14.8358 11.5917C15.1108 11.3083 15.3272 10.9734 15.4725 10.6063L18.0975 3.98127C18.4175 3.21752 19.2813 2.82252 20.0263 3.10627C20.2162 3.17674 20.3899 3.28496 20.5369 3.42439C20.6838 3.56382 20.801 3.73158 20.8814 3.91754C20.9618 4.10351 21.0036 4.30382 21.0045 4.50641C21.0053 4.70899 20.9651 4.90965 20.8863 5.09627L18.2113 11.72C17.9184 12.4589 17.9307 13.2837 18.2454 14.0135C18.5602 14.7433 19.1517 15.3184 19.89 15.6125L23 16.8413V19C23 19.0413 23 19.0825 23 19.125L6.97128 12.7138C7.39741 12.1047 7.87275 11.5315 8.39253 11ZM14.3925 27C12.9037 25.5719 11.8489 23.7519 11.35 21.75C11.2805 21.4968 11.1142 21.2811 10.887 21.1495C10.6598 21.0179 10.3899 20.9809 10.1357 21.0466C9.88147 21.1122 9.66326 21.2752 9.52819 21.5004C9.39312 21.7256 9.35202 21.9948 9.41378 22.25C9.84994 23.9722 10.6307 25.588 11.7088 27H8.05503C6.08276 24.8027 4.99439 21.9527 5.00003 19C4.98779 17.4356 5.31757 15.8874 5.96628 14.4638L23.1913 21.3538C23.5663 23.6038 24.5113 25.5388 25.9275 26.9988L14.3925 27Z" fill="#343330"/>
</svg>
