<svg width="32" height="32" viewBox="0 0 32 32" fill="none" xmlns="http://www.w3.org/2000/svg">
<path d="M26 19H28C28.2652 19 28.5196 18.8946 28.7071 18.7071C28.8946 18.5196 29 18.2652 29 18C29 17.7348 28.8946 17.4804 28.7071 17.2929C28.5196 17.1054 28.2652 17 28 17H26V15H28C28.2652 15 28.5196 14.8946 28.7071 14.7071C28.8946 14.5196 29 14.2652 29 14C29 13.7348 28.8946 13.4804 28.7071 13.2929C28.5196 13.1054 28.2652 13 28 13H25.95C25.7291 10.8052 24.7866 8.7456 23.27 7.14375L25.7075 4.7075C25.8951 4.51986 26.0006 4.26536 26.0006 4C26.0006 3.73464 25.8951 3.48014 25.7075 3.2925C25.5199 3.10486 25.2654 2.99944 25 2.99944C24.7346 2.99944 24.4801 3.10486 24.2925 3.2925L21.7563 5.83C20.073 4.63927 18.0619 3.99986 16 3.99986C13.9381 3.99986 11.927 4.63927 10.2437 5.83L7.7075 3.2925C7.51986 3.10486 7.26536 2.99944 7 2.99944C6.73464 2.99944 6.48014 3.10486 6.2925 3.2925C6.10486 3.48014 5.99944 3.73464 5.99944 4C5.99944 4.26536 6.10486 4.51986 6.2925 4.7075L8.73 7.14375C7.21341 8.7456 6.27088 10.8052 6.05 13H4C3.73478 13 3.48043 13.1054 3.29289 13.2929C3.10536 13.4804 3 13.7348 3 14C3 14.2652 3.10536 14.5196 3.29289 14.7071C3.48043 14.8946 3.73478 15 4 15H6V17H4C3.73478 17 3.48043 17.1054 3.29289 17.2929C3.10536 17.4804 3 17.7348 3 18C3 18.2652 3.10536 18.5196 3.29289 18.7071C3.48043 18.8946 3.73478 19 4 19H6V20C6 20.3375 6.0175 20.6712 6.05 21H4C3.73478 21 3.48043 21.1054 3.29289 21.2929C3.10536 21.4804 3 21.7348 3 22C3 22.2652 3.10536 22.5196 3.29289 22.7071C3.48043 22.8946 3.73478 23 4 23H6.46C7.09808 25.0304 8.36733 26.8043 10.0831 28.0636C11.7989 29.3229 13.8717 30.0019 16 30.0019C18.1283 30.0019 20.2011 29.3229 21.9169 28.0636C23.6327 26.8043 24.9019 25.0304 25.54 23H28C28.2652 23 28.5196 22.8946 28.7071 22.7071C28.8946 22.5196 29 22.2652 29 22C29 21.7348 28.8946 21.4804 28.7071 21.2929C28.5196 21.1054 28.2652 21 28 21H25.95C25.9825 20.6712 26 20.3375 26 20V19ZM16 6C17.9476 6.00242 19.8276 6.71449 21.2882 8.00293C22.7487 9.29137 23.6897 11.0679 23.935 13H8.06C8.30542 11.067 9.24712 9.28983 10.7087 8.00128C12.1703 6.71272 14.0515 6.00121 16 6ZM17 27.935V18C17 17.7348 16.8946 17.4804 16.7071 17.2929C16.5196 17.1054 16.2652 17 16 17C15.7348 17 15.4804 17.1054 15.2929 17.2929C15.1054 17.4804 15 17.7348 15 18V27.935C13.0679 27.6897 11.2914 26.7487 10.0029 25.2882C8.71449 23.8276 8.00242 21.9476 8 20V15H24V20C23.9976 21.9476 23.2855 23.8276 21.9971 25.2882C20.7086 26.7487 18.9321 27.6897 17 27.935Z" fill="#343330"/>
</svg>
