<svg width="32" height="32" viewBox="0 0 32 32" fill="none" xmlns="http://www.w3.org/2000/svg">
<path d="M23.9788 6.435L25.7075 4.7075C25.8951 4.51986 26.0006 4.26536 26.0006 4C26.0006 3.73464 25.8951 3.48014 25.7075 3.2925C25.5199 3.10486 25.2654 2.99944 25 2.99944C24.7346 2.99944 24.4801 3.10486 24.2925 3.2925L22.4738 5.1125C20.5943 3.73987 18.3273 3.00014 16 3.00014C13.6727 3.00014 11.4057 3.73987 9.52625 5.1125L7.7075 3.2925C7.51986 3.10486 7.26537 2.99944 7 2.99944C6.73464 2.99944 6.48014 3.10486 6.2925 3.2925C6.10486 3.48014 5.99945 3.73464 5.99945 4C5.99945 4.26536 6.10486 4.51986 6.2925 4.7075L8.02125 6.435C6.0801 8.47514 4.99828 11.1839 5 14V19C5 21.9174 6.15893 24.7153 8.22183 26.7782C10.2847 28.8411 13.0826 30 16 30C18.9174 30 21.7153 28.8411 23.7782 26.7782C25.8411 24.7153 27 21.9174 27 19V14C27.0017 11.1839 25.9199 8.47514 23.9788 6.435ZM16 5C18.3861 5.00265 20.6738 5.95171 22.361 7.63896C24.0483 9.32622 24.9974 11.6139 25 14V15H7V14C7.00265 11.6139 7.95171 9.32622 9.63896 7.63896C11.3262 5.95171 13.6139 5.00265 16 5ZM16 28C13.6139 27.9974 11.3262 27.0483 9.63896 25.361C7.95171 23.6738 7.00265 21.3861 7 19V17H25V19C24.9974 21.3861 24.0483 23.6738 22.361 25.361C20.6738 27.0483 18.3861 27.9974 16 28ZM18 11.5C18 11.2033 18.088 10.9133 18.2528 10.6666C18.4176 10.42 18.6519 10.2277 18.926 10.1142C19.2001 10.0006 19.5017 9.97094 19.7926 10.0288C20.0836 10.0867 20.3509 10.2296 20.5607 10.4393C20.7704 10.6491 20.9133 10.9164 20.9712 11.2074C21.0291 11.4983 20.9994 11.7999 20.8858 12.074C20.7723 12.3481 20.58 12.5824 20.3334 12.7472C20.0867 12.912 19.7967 13 19.5 13C19.1022 13 18.7206 12.842 18.4393 12.5607C18.158 12.2794 18 11.8978 18 11.5ZM11 11.5C11 11.2033 11.088 10.9133 11.2528 10.6666C11.4176 10.42 11.6519 10.2277 11.926 10.1142C12.2001 10.0006 12.5017 9.97094 12.7926 10.0288C13.0836 10.0867 13.3509 10.2296 13.5607 10.4393C13.7704 10.6491 13.9133 10.9164 13.9712 11.2074C14.0291 11.4983 13.9994 11.7999 13.8858 12.074C13.7723 12.3481 13.58 12.5824 13.3334 12.7472C13.0867 12.912 12.7967 13 12.5 13C12.1022 13 11.7206 12.842 11.4393 12.5607C11.158 12.2794 11 11.8978 11 11.5Z" fill="#343330"/>
</svg>
