<svg width="32" height="32" viewBox="0 0 32 32" fill="none" xmlns="http://www.w3.org/2000/svg">
<path d="M30 26H29V9C29 8.73478 28.8946 8.48043 28.7071 8.29289C28.5196 8.10536 28.2652 8 28 8H23V5C23 4.73478 22.8946 4.48043 22.7071 4.29289C22.5196 4.10536 22.2652 4 22 4H10C9.73478 4 9.48043 4.10536 9.29289 4.29289C9.10536 4.48043 9 4.73478 9 5V12H4C3.73478 12 3.48043 12.1054 3.29289 12.2929C3.10536 12.4804 3 12.7348 3 13V26H2C1.73478 26 1.48043 26.1054 1.29289 26.2929C1.10536 26.4804 1 26.7348 1 27C1 27.2652 1.10536 27.5196 1.29289 27.7071C1.48043 27.8946 1.73478 28 2 28H30C30.2652 28 30.5196 27.8946 30.7071 27.7071C30.8946 27.5196 31 27.2652 31 27C31 26.7348 30.8946 26.4804 30.7071 26.2929C30.5196 26.1054 30.2652 26 30 26ZM5 14H10C10.2652 14 10.5196 13.8946 10.7071 13.7071C10.8946 13.5196 11 13.2652 11 13V6H21V9C21 9.26522 21.1054 9.51957 21.2929 9.70711C21.4804 9.89464 21.7348 10 22 10H27V26H19V21C19 20.7348 18.8946 20.4804 18.7071 20.2929C18.5196 20.1054 18.2652 20 18 20H14C13.7348 20 13.4804 20.1054 13.2929 20.2929C13.1054 20.4804 13 20.7348 13 21V26H5V14ZM17 26H15V22H17V26ZM14 9C14 8.73478 14.1054 8.48043 14.2929 8.29289C14.4804 8.10536 14.7348 8 15 8H17C17.2652 8 17.5196 8.10536 17.7071 8.29289C17.8946 8.48043 18 8.73478 18 9C18 9.26522 17.8946 9.51957 17.7071 9.70711C17.5196 9.89464 17.2652 10 17 10H15C14.7348 10 14.4804 9.89464 14.2929 9.70711C14.1054 9.51957 14 9.26522 14 9ZM14 13C14 12.7348 14.1054 12.4804 14.2929 12.2929C14.4804 12.1054 14.7348 12 15 12H17C17.2652 12 17.5196 12.1054 17.7071 12.2929C17.8946 12.4804 18 12.7348 18 13C18 13.2652 17.8946 13.5196 17.7071 13.7071C17.5196 13.8946 17.2652 14 17 14H15C14.7348 14 14.4804 13.8946 14.2929 13.7071C14.1054 13.5196 14 13.2652 14 13ZM21 13C21 12.7348 21.1054 12.4804 21.2929 12.2929C21.4804 12.1054 21.7348 12 22 12H24C24.2652 12 24.5196 12.1054 24.7071 12.2929C24.8946 12.4804 25 12.7348 25 13C25 13.2652 24.8946 13.5196 24.7071 13.7071C24.5196 13.8946 24.2652 14 24 14H22C21.7348 14 21.4804 13.8946 21.2929 13.7071C21.1054 13.5196 21 13.2652 21 13ZM11 17C11 17.2652 10.8946 17.5196 10.7071 17.7071C10.5196 17.8946 10.2652 18 10 18H8C7.73478 18 7.48043 17.8946 7.29289 17.7071C7.10536 17.5196 7 17.2652 7 17C7 16.7348 7.10536 16.4804 7.29289 16.2929C7.48043 16.1054 7.73478 16 8 16H10C10.2652 16 10.5196 16.1054 10.7071 16.2929C10.8946 16.4804 11 16.7348 11 17ZM11 21C11 21.2652 10.8946 21.5196 10.7071 21.7071C10.5196 21.8946 10.2652 22 10 22H8C7.73478 22 7.48043 21.8946 7.29289 21.7071C7.10536 21.5196 7 21.2652 7 21C7 20.7348 7.10536 20.4804 7.29289 20.2929C7.48043 20.1054 7.73478 20 8 20H10C10.2652 20 10.5196 20.1054 10.7071 20.2929C10.8946 20.4804 11 20.7348 11 21ZM14 17C14 16.7348 14.1054 16.4804 14.2929 16.2929C14.4804 16.1054 14.7348 16 15 16H17C17.2652 16 17.5196 16.1054 17.7071 16.2929C17.8946 16.4804 18 16.7348 18 17C18 17.2652 17.8946 17.5196 17.7071 17.7071C17.5196 17.8946 17.2652 18 17 18H15C14.7348 18 14.4804 17.8946 14.2929 17.7071C14.1054 17.5196 14 17.2652 14 17ZM21 17C21 16.7348 21.1054 16.4804 21.2929 16.2929C21.4804 16.1054 21.7348 16 22 16H24C24.2652 16 24.5196 16.1054 24.7071 16.2929C24.8946 16.4804 25 16.7348 25 17C25 17.2652 24.8946 17.5196 24.7071 17.7071C24.5196 17.8946 24.2652 18 24 18H22C21.7348 18 21.4804 17.8946 21.2929 17.7071C21.1054 17.5196 21 17.2652 21 17ZM21 21C21 20.7348 21.1054 20.4804 21.2929 20.2929C21.4804 20.1054 21.7348 20 22 20H24C24.2652 20 24.5196 20.1054 24.7071 20.2929C24.8946 20.4804 25 20.7348 25 21C25 21.2652 24.8946 21.5196 24.7071 21.7071C24.5196 21.8946 24.2652 22 24 22H22C21.7348 22 21.4804 21.8946 21.2929 21.7071C21.1054 21.5196 21 21.2652 21 21Z" fill="#343330"/>
</svg>
