<svg width="32" height="32" viewBox="0 0 32 32" fill="none" xmlns="http://www.w3.org/2000/svg">
<path d="M31 26H29V12C29.2652 12 29.5196 11.8946 29.7071 11.7071C29.8946 11.5196 30 11.2652 30 11C30 10.7348 29.8946 10.4804 29.7071 10.2929C29.5196 10.1054 29.2652 10 29 10H23V6C23.2652 6 23.5196 5.89464 23.7071 5.70711C23.8946 5.51957 24 5.26522 24 5C24 4.73478 23.8946 4.48043 23.7071 4.29289C23.5196 4.10536 23.2652 4 23 4H5C4.73478 4 4.48043 4.10536 4.29289 4.29289C4.10536 4.48043 4 4.73478 4 5C4 5.26522 4.10536 5.51957 4.29289 5.70711C4.48043 5.89464 4.73478 6 5 6V26H3C2.73478 26 2.48043 26.1054 2.29289 26.2929C2.10536 26.4804 2 26.7348 2 27C2 27.2652 2.10536 27.5196 2.29289 27.7071C2.48043 27.8946 2.73478 28 3 28H31C31.2652 28 31.5196 27.8946 31.7071 27.7071C31.8946 27.5196 32 27.2652 32 27C32 26.7348 31.8946 26.4804 31.7071 26.2929C31.5196 26.1054 31.2652 26 31 26ZM27 12V26H23V12H27ZM7 6H21V26H18V20C18 19.7348 17.8946 19.4804 17.7071 19.2929C17.5196 19.1054 17.2652 19 17 19H11C10.7348 19 10.4804 19.1054 10.2929 19.2929C10.1054 19.4804 10 19.7348 10 20V26H7V6ZM16 26H12V21H16V26ZM9 10C9 9.73478 9.10536 9.48043 9.29289 9.29289C9.48043 9.10536 9.73478 9 10 9H12C12.2652 9 12.5196 9.10536 12.7071 9.29289C12.8946 9.48043 13 9.73478 13 10C13 10.2652 12.8946 10.5196 12.7071 10.7071C12.5196 10.8946 12.2652 11 12 11H10C9.73478 11 9.48043 10.8946 9.29289 10.7071C9.10536 10.5196 9 10.2652 9 10ZM15 10C15 9.73478 15.1054 9.48043 15.2929 9.29289C15.4804 9.10536 15.7348 9 16 9H18C18.2652 9 18.5196 9.10536 18.7071 9.29289C18.8946 9.48043 19 9.73478 19 10C19 10.2652 18.8946 10.5196 18.7071 10.7071C18.5196 10.8946 18.2652 11 18 11H16C15.7348 11 15.4804 10.8946 15.2929 10.7071C15.1054 10.5196 15 10.2652 15 10ZM9 15C9 14.7348 9.10536 14.4804 9.29289 14.2929C9.48043 14.1054 9.73478 14 10 14H12C12.2652 14 12.5196 14.1054 12.7071 14.2929C12.8946 14.4804 13 14.7348 13 15C13 15.2652 12.8946 15.5196 12.7071 15.7071C12.5196 15.8946 12.2652 16 12 16H10C9.73478 16 9.48043 15.8946 9.29289 15.7071C9.10536 15.5196 9 15.2652 9 15ZM15 15C15 14.7348 15.1054 14.4804 15.2929 14.2929C15.4804 14.1054 15.7348 14 16 14H18C18.2652 14 18.5196 14.1054 18.7071 14.2929C18.8946 14.4804 19 14.7348 19 15C19 15.2652 18.8946 15.5196 18.7071 15.7071C18.5196 15.8946 18.2652 16 18 16H16C15.7348 16 15.4804 15.8946 15.2929 15.7071C15.1054 15.5196 15 15.2652 15 15Z" fill="#343330"/>
</svg>
