<svg width="32" height="32" viewBox="0 0 32 32" fill="none" xmlns="http://www.w3.org/2000/svg">
<path d="M31 25H30C29.7348 25 29.4804 24.8946 29.2929 24.7071C29.1054 24.5196 29 24.2652 29 24V20C29 19.7348 29.1054 19.4804 29.2929 19.2929C29.4804 19.1054 29.7348 19 30 19H31C31.2652 19 31.5196 18.8946 31.7071 18.7071C31.8946 18.5196 32 18.2652 32 18C32 17.7348 31.8946 17.4804 31.7071 17.2929C31.5196 17.1054 31.2652 17 31 17H30C29.2044 17 28.4413 17.3161 27.8787 17.8787C27.3161 18.4413 27 19.2044 27 20V21H24.9C24.6912 19.9871 24.1741 19.0636 23.4197 18.3561C22.6653 17.6487 21.7105 17.192 20.6863 17.0487L16.18 6.23125C16.0282 5.86667 15.7719 5.55519 15.4433 5.33607C15.1147 5.11696 14.7287 5.00002 14.3338 5H3C2.46957 5 1.96086 5.21071 1.58579 5.58579C1.21072 5.96086 1 6.46957 1 7V19C0.442867 19.7428 0.103596 20.6262 0.0202058 21.551C-0.0631841 22.4758 0.112602 23.4055 0.527866 24.2361C0.943131 25.0666 1.58147 25.7651 2.37135 26.2533C3.16123 26.7414 4.07144 27 5 27H20C21.1522 26.9986 22.2687 26.6 23.1613 25.8713C24.0539 25.1427 24.6679 24.1286 24.9 23H27V24C27 24.7956 27.3161 25.5587 27.8787 26.1213C28.4413 26.6839 29.2044 27 30 27H31C31.2652 27 31.5196 26.8946 31.7071 26.7071C31.8946 26.5196 32 26.2652 32 26C32 25.7348 31.8946 25.4804 31.7071 25.2929C31.5196 25.1054 31.2652 25 31 25ZM18.5 17H8V7H14.3338L18.5 17ZM6 7V17H5C4.31151 16.9994 3.63042 17.142 3 17.4188V7H6ZM20 25H5C4.20435 25 3.44129 24.6839 2.87868 24.1213C2.31607 23.5587 2 22.7956 2 22C2 21.2044 2.31607 20.4413 2.87868 19.8787C3.44129 19.3161 4.20435 19 5 19H20C20.7957 19 21.5587 19.3161 22.1213 19.8787C22.6839 20.4413 23 21.2044 23 22C23 22.7956 22.6839 23.5587 22.1213 24.1213C21.5587 24.6839 20.7957 25 20 25ZM21 22C21 22.2652 20.8946 22.5196 20.7071 22.7071C20.5196 22.8946 20.2652 23 20 23H5C4.73479 23 4.48043 22.8946 4.2929 22.7071C4.10536 22.5196 4 22.2652 4 22C4 21.7348 4.10536 21.4804 4.2929 21.2929C4.48043 21.1054 4.73479 21 5 21H20C20.2652 21 20.5196 21.1054 20.7071 21.2929C20.8946 21.4804 21 21.7348 21 22Z" fill="#343330"/>
</svg>
