<svg width="32" height="32" viewBox="0 0 32 32" fill="none" xmlns="http://www.w3.org/2000/svg">
<path d="M30.9837 3.82375C30.9369 3.56292 30.7884 3.33137 30.5709 3.17996C30.3533 3.02855 30.0846 2.96967 29.8237 3.01625L1.82375 8.01625C1.57847 8.06101 1.35875 8.19579 1.20769 8.39415C1.05663 8.59251 0.985122 8.84015 1.00719 9.08851C1.02925 9.33686 1.1433 9.56802 1.32697 9.73664C1.51063 9.90526 1.75067 9.99919 2 10C2.05948 9.99992 2.11885 9.9949 2.1775 9.985L15 7.69375V12H8C6.93913 12 5.92172 12.4214 5.17157 13.1716C4.42143 13.9217 4 14.9391 4 16V24C4 25.0609 4.42143 26.0783 5.17157 26.8284C5.92172 27.5786 6.93913 28 8 28H24C25.0609 28 26.0783 27.5786 26.8284 26.8284C27.5786 26.0783 28 25.0609 28 24V16C28 14.9391 27.5786 13.9217 26.8284 13.1716C26.0783 12.4214 25.0609 12 24 12H17V7.3375L30.175 4.985C30.3044 4.96194 30.428 4.91359 30.5387 4.84273C30.6493 4.77187 30.745 4.67988 30.8201 4.57203C30.8952 4.46418 30.9483 4.34258 30.9764 4.21418C31.0045 4.08579 31.007 3.95311 30.9837 3.82375ZM13 20V14H19V20H13ZM8 14H11V20H6V16C6 15.4696 6.21071 14.9609 6.58579 14.5858C6.96086 14.2107 7.46957 14 8 14ZM24 26H8C7.46957 26 6.96086 25.7893 6.58579 25.4142C6.21071 25.0391 6 24.5304 6 24V22H26V24C26 24.5304 25.7893 25.0391 25.4142 25.4142C25.0391 25.7893 24.5304 26 24 26ZM26 16V20H21V14H24C24.5304 14 25.0391 14.2107 25.4142 14.5858C25.7893 14.9609 26 15.4696 26 16Z" fill="#343330"/>
</svg>
