<svg width="32" height="32" viewBox="0 0 32 32" fill="none" xmlns="http://www.w3.org/2000/svg">
<path d="M26 4H23V3C23 2.73478 22.8946 2.48043 22.7071 2.29289C22.5196 2.10536 22.2652 2 22 2C21.7348 2 21.4804 2.10536 21.2929 2.29289C21.1054 2.48043 21 2.73478 21 3V4H11V3C11 2.73478 10.8946 2.48043 10.7071 2.29289C10.5196 2.10536 10.2652 2 10 2C9.73478 2 9.48043 2.10536 9.29289 2.29289C9.10536 2.48043 9 2.73478 9 3V4H6C5.46957 4 4.96086 4.21071 4.58579 4.58579C4.21071 4.96086 4 5.46957 4 6V26C4 26.5304 4.21071 27.0391 4.58579 27.4142C4.96086 27.7893 5.46957 28 6 28H26C26.5304 28 27.0391 27.7893 27.4142 27.4142C27.7893 27.0391 28 26.5304 28 26V6C28 5.46957 27.7893 4.96086 27.4142 4.58579C27.0391 4.21071 26.5304 4 26 4ZM26 26H6V6H9V7C9 7.26522 9.10536 7.51957 9.29289 7.70711C9.48043 7.89464 9.73478 8 10 8C10.2652 8 10.5196 7.89464 10.7071 7.70711C10.8946 7.51957 11 7.26522 11 7V6H21V7C21 7.26522 21.1054 7.51957 21.2929 7.70711C21.4804 7.89464 21.7348 8 22 8C22.2652 8 22.5196 7.89464 22.7071 7.70711C22.8946 7.51957 23 7.26522 23 7V6H26V26ZM19 11C18.4321 10.9997 17.8707 11.1206 17.3534 11.3547C16.836 11.5888 16.3746 11.9307 16 12.3575C15.4628 11.7483 14.7528 11.3172 13.9646 11.1213C13.1764 10.9254 12.3472 10.9742 11.5873 11.261C10.8274 11.5479 10.1729 12.0592 9.71073 12.7271C9.24856 13.395 9.00066 14.1878 9 15C9 19.565 15.285 22.76 15.5525 22.895C15.6914 22.9645 15.8446 23.0007 16 23.0007C16.1554 23.0007 16.3086 22.9645 16.4475 22.895C16.715 22.76 23 19.565 23 15C23 13.9391 22.5786 12.9217 21.8284 12.1716C21.0783 11.4214 20.0609 11 19 11ZM16 20.8662C14.2762 19.8925 11 17.5225 11 15C11 14.4696 11.2107 13.9609 11.5858 13.5858C11.9609 13.2107 12.4696 13 13 13C13.5304 13 14.0391 13.2107 14.4142 13.5858C14.7893 13.9609 15 14.4696 15 15C15 15.2652 15.1054 15.5196 15.2929 15.7071C15.4804 15.8946 15.7348 16 16 16C16.2652 16 16.5196 15.8946 16.7071 15.7071C16.8946 15.5196 17 15.2652 17 15C17 14.4696 17.2107 13.9609 17.5858 13.5858C17.9609 13.2107 18.4696 13 19 13C19.5304 13 20.0391 13.2107 20.4142 13.5858C20.7893 13.9609 21 14.4696 21 15C21 17.5238 17.7238 19.8937 16 20.8662Z" fill="#343330"/>
</svg>
