<svg width="32" height="32" viewBox="0 0 32 32" fill="none" xmlns="http://www.w3.org/2000/svg">
<path d="M6.74 4.32749C6.65218 4.2285 6.54559 4.14792 6.4264 4.09043C6.30721 4.03294 6.1778 3.99967 6.04566 3.99256C5.91352 3.98545 5.78128 4.00464 5.65661 4.04902C5.53194 4.09339 5.41732 4.16207 5.31939 4.25107C5.22146 4.34007 5.14216 4.44762 5.0861 4.56749C5.03004 4.68736 4.99833 4.81716 4.99281 4.94938C4.98728 5.08159 5.00806 5.21359 5.05392 5.33772C5.09979 5.46184 5.16983 5.57563 5.26 5.67249L6.46625 6.99999H6C5.20435 6.99999 4.44129 7.31606 3.87868 7.87867C3.31607 8.44128 3 9.20434 3 9.99999V24C3 24.7956 3.31607 25.5587 3.87868 26.1213C4.44129 26.6839 5.20435 27 6 27H24.6488L25.26 27.6725C25.3478 27.7715 25.4544 27.8521 25.5736 27.9096C25.6928 27.967 25.8222 28.0003 25.9543 28.0074C26.0865 28.0145 26.2187 27.9953 26.3434 27.951C26.4681 27.9066 26.5827 27.8379 26.6806 27.7489C26.7785 27.6599 26.8578 27.5524 26.9139 27.4325C26.97 27.3126 27.0017 27.1828 27.0072 27.0506C27.0127 26.9184 26.9919 26.7864 26.9461 26.6623C26.9002 26.5381 26.8302 26.4243 26.74 26.3275L6.74 4.32749ZM13.1975 14.4037L17.8225 19.49C17.2741 19.8259 16.6431 20.0025 16 20C15.3504 19.9999 14.7137 19.8191 14.161 19.4778C13.6084 19.1364 13.1617 18.648 12.8708 18.0672C12.5799 17.4864 12.4564 16.8361 12.5141 16.1891C12.5718 15.5421 12.8085 14.9239 13.1975 14.4037ZM6 25C5.73478 25 5.48043 24.8946 5.29289 24.7071C5.10536 24.5196 5 24.2652 5 24V9.99999C5 9.73478 5.10536 9.48042 5.29289 9.29289C5.48043 9.10535 5.73478 8.99999 6 8.99999H8.285L11.8363 12.9075C11.1483 13.705 10.7038 14.6833 10.5556 15.7261C10.4074 16.7689 10.5617 17.8323 11.0002 18.7899C11.4388 19.7476 12.143 20.5591 13.0294 21.1282C13.9157 21.6972 14.9467 21.9998 16 22C17.1393 21.9975 18.25 21.643 19.18 20.985L22.83 25H6ZM29 9.99999V23.25C29 23.5152 28.8946 23.7696 28.7071 23.9571C28.5196 24.1446 28.2652 24.25 28 24.25C27.7348 24.25 27.4804 24.1446 27.2929 23.9571C27.1054 23.7696 27 23.5152 27 23.25V9.99999C27 9.73478 26.8946 9.48042 26.7071 9.29289C26.5196 9.10535 26.2652 8.99999 26 8.99999H22C21.8355 8.99989 21.6736 8.95923 21.5286 8.88161C21.3836 8.80399 21.26 8.6918 21.1688 8.55499L19.4638 5.99999H12.53C12.3688 6.19995 12.1368 6.33019 11.8821 6.36372C11.6274 6.39726 11.3696 6.3315 11.1621 6.1801C10.9546 6.02869 10.8133 5.80324 10.7676 5.55049C10.7218 5.29773 10.775 5.03705 10.9163 4.82249L11.1663 4.44749C11.2575 4.30987 11.3814 4.19697 11.5268 4.11889C11.6723 4.0408 11.8349 3.99995 12 3.99999H20C20.1647 3.99989 20.3268 4.04045 20.4721 4.11808C20.6173 4.19571 20.7411 4.30801 20.8325 4.44499L22.535 6.99999H26C26.7956 6.99999 27.5587 7.31606 28.1213 7.87867C28.6839 8.44128 29 9.20434 29 9.99999Z" fill="#343330"/>
</svg>
