<svg width="32" height="32" viewBox="0 0 32 32" fill="none" xmlns="http://www.w3.org/2000/svg">
<path d="M27.9525 28.3025C27.9127 28.4277 27.8486 28.5438 27.7639 28.6442C27.6793 28.7446 27.5756 28.8274 27.459 28.8878C27.3423 28.9481 27.2149 28.9849 27.084 28.996C26.9532 29.0071 26.8214 28.9924 26.6962 28.9525L16 25.5488L5.30371 28.9525C5.17854 28.9923 5.04676 29.0071 4.91589 28.996C4.78502 28.9849 4.65762 28.9481 4.54097 28.8877C4.42431 28.8273 4.32069 28.7446 4.23601 28.6442C4.15134 28.5438 4.08727 28.4277 4.04746 28.3025C4.00765 28.1774 3.99289 28.0456 4.00401 27.9147C4.01513 27.7838 4.05192 27.6564 4.11228 27.5398C4.17264 27.4231 4.25538 27.3195 4.35579 27.2348C4.45619 27.1502 4.57229 27.0861 4.69746 27.0463L12.6975 24.5L4.69746 21.9525C4.56884 21.9157 4.44891 21.8535 4.34478 21.7694C4.24065 21.6854 4.15444 21.5814 4.09124 21.4635C4.02805 21.3456 3.98916 21.2162 3.97688 21.0829C3.9646 20.9497 3.97917 20.8154 4.01975 20.6879C4.06032 20.5604 4.12606 20.4423 4.21308 20.3407C4.3001 20.2391 4.40662 20.156 4.52635 20.0963C4.64607 20.0365 4.77656 20.0015 4.91009 19.9931C5.04362 19.9847 5.17746 20.0032 5.30371 20.0475L16 23.45L26.6962 20.0475C26.8225 20.0032 26.9563 19.9847 27.0898 19.9931C27.2234 20.0015 27.3538 20.0365 27.4736 20.0963C27.5933 20.156 27.6998 20.2391 27.7868 20.3407C27.8739 20.4423 27.9396 20.5604 27.9802 20.6879C28.0207 20.8154 28.0353 20.9497 28.023 21.0829C28.0108 21.2162 27.9719 21.3456 27.9087 21.4635C27.8455 21.5814 27.7593 21.6854 27.6551 21.7694C27.551 21.8535 27.4311 21.9157 27.3025 21.9525L19.3025 24.5L27.3025 27.0463C27.4276 27.0861 27.5438 27.1501 27.6442 27.2348C27.7446 27.3195 27.8273 27.4231 27.8877 27.5397C27.9481 27.6564 27.9848 27.7838 27.996 27.9147C28.0071 28.0456 27.9923 28.1774 27.9525 28.3025ZM8.49996 13.5C8.49996 10.9875 9.72121 8.39127 12.03 6.00003C13.0659 4.92276 14.2222 3.96816 15.4762 3.15503C15.6337 3.05817 15.815 3.0069 16 3.0069C16.1849 3.0069 16.3662 3.05817 16.5237 3.15503C16.8087 3.32377 23.5 7.51003 23.5 13.5C23.5 15.4891 22.7098 17.3968 21.3033 18.8033C19.8967 20.2098 17.9891 21 16 21C14.0108 21 12.1032 20.2098 10.6967 18.8033C9.29014 17.3968 8.49996 15.4891 8.49996 13.5ZM16 19C16.5304 19 17.0391 18.7893 17.4142 18.4142C17.7892 18.0392 18 17.5305 18 17C18 15.3038 16.75 13.9425 16 13.2763C15.25 13.9425 14 15.3038 14 17C14 17.5305 14.2107 18.0392 14.5857 18.4142C14.9608 18.7893 15.4695 19 16 19ZM10.5 13.5C10.4995 14.9074 11.0407 16.2609 12.0112 17.28C12.0112 17.1875 12 17.0938 12 17C12 13.5 15.305 11.2613 15.445 11.1675C15.6093 11.0579 15.8024 10.9994 16 10.9994C16.1975 10.9994 16.3906 11.0579 16.555 11.1675C16.695 11.2613 20 13.5 20 17C20 17.0938 20 17.1875 19.9887 17.28C20.9592 16.2609 21.5004 14.9074 21.5 13.5C21.5 9.50002 17.4675 6.25003 16 5.20753C14.5337 6.25003 10.5 9.50002 10.5 13.5Z" fill="#343330"/>
</svg>
