<svg width="32" height="32" viewBox="0 0 32 32" fill="none" xmlns="http://www.w3.org/2000/svg">
<path d="M5.29245 9.70751C5.10481 9.51987 4.99939 9.26537 4.99939 9.00001C4.99939 8.73464 5.1048 8.48015 5.29245 8.29251C5.48009 8.10487 5.73458 7.99945 5.99995 7.99945C6.26531 7.99945 6.5198 8.10487 6.70745 8.29251L15.9999 17.5863L25.2924 8.29251C25.4801 8.10487 25.7346 7.99945 25.9999 7.99945C26.2653 7.99945 26.5198 8.10487 26.7074 8.29251C26.8951 8.48015 27.0005 8.73464 27.0005 9.00001C27.0005 9.26537 26.8951 9.51987 26.7074 9.70751L16.7074 19.7075C16.6146 19.8005 16.5043 19.8742 16.3829 19.9246C16.2615 19.9749 16.1314 20.0008 15.9999 20.0008C15.8685 20.0008 15.7384 19.9749 15.617 19.9246C15.4956 19.8742 15.3853 19.8005 15.2924 19.7075L5.29245 9.70751ZM25.9999 23H5.99995C5.73473 23 5.48038 23.1054 5.29284 23.2929C5.1053 23.4804 4.99995 23.7348 4.99995 24C4.99995 24.2652 5.1053 24.5196 5.29284 24.7071C5.48038 24.8947 5.73473 25 5.99995 25H25.9999C26.2652 25 26.5195 24.8947 26.7071 24.7071C26.8946 24.5196 26.9999 24.2652 26.9999 24C26.9999 23.7348 26.8946 23.4804 26.7071 23.2929C26.5195 23.1054 26.2652 23 25.9999 23Z" fill="#343330"/>
</svg>
