<svg width="32" height="32" viewBox="0 0 32 32" fill="none" xmlns="http://www.w3.org/2000/svg">
<path d="M22.7074 21.2925C22.8004 21.3854 22.8742 21.4957 22.9245 21.6171C22.9748 21.7385 23.0007 21.8686 23.0007 22C23.0007 22.1314 22.9748 22.2615 22.9245 22.3829C22.8742 22.5043 22.8004 22.6146 22.7074 22.7075L16.7074 28.7075C16.6146 28.8005 16.5043 28.8742 16.3829 28.9246C16.2615 28.9749 16.1314 29.0008 15.9999 29.0008C15.8685 29.0008 15.7384 28.9749 15.617 28.9246C15.4956 28.8742 15.3853 28.8005 15.2924 28.7075L9.29245 22.7075C9.1048 22.5199 8.99939 22.2654 8.99939 22C8.99939 21.7346 9.1048 21.4801 9.29245 21.2925C9.48009 21.1049 9.73458 20.9994 9.99995 20.9994C10.2653 20.9994 10.5198 21.1049 10.7074 21.2925L15.9999 26.5862L21.2924 21.2925C21.3853 21.1995 21.4956 21.1258 21.617 21.0754C21.7384 21.0251 21.8685 20.9992 21.9999 20.9992C22.1314 20.9992 22.2615 21.0251 22.3829 21.0754C22.5043 21.1258 22.6146 21.1995 22.7074 21.2925ZM10.7074 10.7075L15.9999 5.41374L21.2924 10.7075C21.4801 10.8951 21.7346 11.0005 21.9999 11.0005C22.2653 11.0005 22.5198 10.8951 22.7074 10.7075C22.8951 10.5199 23.0005 10.2654 23.0005 9.99999C23.0005 9.73463 22.8951 9.48013 22.7074 9.29249L16.7074 3.29249C16.6146 3.19952 16.5043 3.12576 16.3829 3.07543C16.2615 3.02511 16.1314 2.99921 15.9999 2.99921C15.8685 2.99921 15.7384 3.02511 15.617 3.07543C15.4956 3.12576 15.3853 3.19952 15.2924 3.29249L9.29245 9.29249C9.1048 9.48013 8.99939 9.73463 8.99939 9.99999C8.99939 10.2654 9.10481 10.5199 9.29245 10.7075C9.48009 10.8951 9.73458 11.0005 9.99995 11.0005C10.2653 11.0005 10.5198 10.8951 10.7074 10.7075Z" fill="#343330"/>
</svg>
