<svg width="32" height="32" viewBox="0 0 32 32" fill="none" xmlns="http://www.w3.org/2000/svg">
<path d="M18.7076 15.2925C18.8005 15.3854 18.8743 15.4957 18.9246 15.6171C18.975 15.7385 19.0009 15.8686 19.0009 16C19.0009 16.1314 18.975 16.2615 18.9246 16.3829C18.8743 16.5043 18.8005 16.6146 18.7076 16.7075L8.70757 26.7075C8.51993 26.8951 8.26543 27.0006 8.00007 27.0006C7.7347 27.0006 7.48021 26.8951 7.29257 26.7075C7.10493 26.5199 6.99951 26.2654 6.99951 26C6.99951 25.7346 7.10493 25.4801 7.29257 25.2925L16.5863 16L7.29257 6.70751C7.10493 6.51987 6.99951 6.26537 6.99951 6.00001C6.99951 5.73464 7.10493 5.48015 7.29257 5.29251C7.48021 5.10487 7.7347 4.99945 8.00007 4.99945C8.26543 4.99945 8.51993 5.10487 8.70757 5.29251L18.7076 15.2925ZM23.0001 5.00001C22.7349 5.00001 22.4805 5.10536 22.293 5.2929C22.1054 5.48044 22.0001 5.73479 22.0001 6.00001V26C22.0001 26.2652 22.1054 26.5196 22.293 26.7071C22.4805 26.8947 22.7349 27 23.0001 27C23.2653 27 23.5196 26.8947 23.7072 26.7071C23.8947 26.5196 24.0001 26.2652 24.0001 26V6.00001C24.0001 5.73479 23.8947 5.48044 23.7072 5.2929C23.5196 5.10536 23.2653 5.00001 23.0001 5.00001Z" fill="#343330"/>
</svg>
