<svg width="32" height="32" viewBox="0 0 32 32" fill="none" xmlns="http://www.w3.org/2000/svg">
<path d="M26.7076 24.2925C26.8005 24.3854 26.8742 24.4957 26.9245 24.6171C26.9747 24.7385 27.0006 24.8686 27.0006 25C27.0006 25.1314 26.9747 25.2615 26.9245 25.3829C26.8742 25.5043 26.8005 25.6146 26.7076 25.7075C26.6147 25.8004 26.5044 25.8741 26.383 25.9244C26.2616 25.9747 26.1315 26.0005 26.0001 26.0005C25.8687 26.0005 25.7386 25.9747 25.6172 25.9244C25.4958 25.8741 25.3855 25.8004 25.2926 25.7075L16.0001 16.4137L6.70757 25.7075C6.51993 25.8951 6.26543 26.0005 6.00007 26.0005C5.7347 26.0005 5.48021 25.8951 5.29257 25.7075C5.10493 25.5199 4.99951 25.2654 4.99951 25C4.99951 24.7346 5.10493 24.4801 5.29257 24.2925L15.2926 14.2925C15.3854 14.1995 15.4957 14.1258 15.6171 14.0754C15.7385 14.0251 15.8687 13.9992 16.0001 13.9992C16.1315 13.9992 16.2616 14.0251 16.383 14.0754C16.5044 14.1258 16.6147 14.1995 16.7076 14.2925L26.7076 24.2925ZM6.70757 15.7075L16.0001 6.41374L25.2926 15.7075C25.3855 15.8004 25.4958 15.8741 25.6172 15.9244C25.7386 15.9747 25.8687 16.0006 26.0001 16.0006C26.1315 16.0006 26.2616 15.9747 26.383 15.9244C26.5044 15.8741 26.6147 15.8004 26.7076 15.7075C26.8005 15.6146 26.8742 15.5043 26.9245 15.3829C26.9747 15.2615 27.0006 15.1314 27.0006 15C27.0006 14.8686 26.9747 14.7385 26.9245 14.6171C26.8742 14.4957 26.8005 14.3854 26.7076 14.2925L16.7076 4.29249C16.6147 4.19952 16.5044 4.12576 16.383 4.07543C16.2616 4.02511 16.1315 3.99921 16.0001 3.99921C15.8687 3.99921 15.7385 4.02511 15.6171 4.07543C15.4957 4.12576 15.3854 4.19952 15.2926 4.29249L5.29257 14.2925C5.10493 14.4801 4.99951 14.7346 4.99951 15C4.99951 15.2654 5.10493 15.5199 5.29257 15.7075C5.48021 15.8951 5.7347 16.0006 6.00007 16.0006C6.26543 16.0006 6.51993 15.8951 6.70757 15.7075Z" fill="#343330"/>
</svg>
