<svg width="32" height="32" viewBox="0 0 32 32" fill="none" xmlns="http://www.w3.org/2000/svg">
<path d="M26.7076 24.7075C26.6147 24.8005 26.5044 24.8742 26.383 24.9246C26.2616 24.9749 26.1315 25.0008 26.0001 25.0008C25.8687 25.0008 25.7385 24.9749 25.6171 24.9246C25.4957 24.8742 25.3854 24.8005 25.2926 24.7075L16.0001 15.4137L6.70757 24.7075C6.51993 24.8951 6.26543 25.0006 6.00007 25.0006C5.7347 25.0006 5.48021 24.8951 5.29257 24.7075C5.10493 24.5199 4.99951 24.2654 4.99951 24C4.99951 23.7346 5.10493 23.4801 5.29257 23.2925L15.2926 13.2925C15.3854 13.1995 15.4957 13.1258 15.6171 13.0754C15.7385 13.0251 15.8687 12.9992 16.0001 12.9992C16.1315 12.9992 16.2616 13.0251 16.383 13.0754C16.5044 13.1258 16.6147 13.1995 16.7076 13.2925L26.7076 23.2925C26.8005 23.3854 26.8743 23.4957 26.9246 23.6171C26.975 23.7385 27.0009 23.8686 27.0009 24C27.0009 24.1314 26.975 24.2615 26.9246 24.3829C26.8743 24.5043 26.8005 24.6146 26.7076 24.7075ZM6.00007 10H26.0001C26.2653 10 26.5196 9.89464 26.7072 9.70711C26.8947 9.51957 27.0001 9.26522 27.0001 9C27.0001 8.73478 26.8947 8.48043 26.7072 8.29289C26.5196 8.10536 26.2653 8 26.0001 8H6.00007C5.73485 8 5.4805 8.10536 5.29296 8.29289C5.10542 8.48043 5.00007 8.73478 5.00007 9C5.00007 9.26522 5.10542 9.51957 5.29296 9.70711C5.4805 9.89464 5.73485 10 6.00007 10Z" fill="#343330"/>
</svg>
