<svg width="32" height="32" viewBox="0 0 32 32" fill="none" xmlns="http://www.w3.org/2000/svg">
<path d="M24.7075 25.2925C24.8004 25.3854 24.8741 25.4957 24.9244 25.6171C24.9747 25.7385 25.0006 25.8686 25.0006 26C25.0006 26.1314 24.9747 26.2615 24.9244 26.3829C24.8741 26.5043 24.8004 26.6146 24.7075 26.7075C24.6146 26.8004 24.5043 26.8741 24.3829 26.9244C24.2615 26.9747 24.1314 27.0006 24 27.0006C23.8686 27.0006 23.7385 26.9747 23.6171 26.9244C23.4957 26.8741 23.3854 26.8004 23.2925 26.7075L13.2925 16.7075C13.1995 16.6146 13.1258 16.5043 13.0754 16.3829C13.0251 16.2615 12.9992 16.1314 12.9992 16C12.9992 15.8686 13.0251 15.7385 13.0754 15.6171C13.1258 15.4957 13.1995 15.3854 13.2925 15.2925L23.2925 5.29251C23.4801 5.10487 23.7346 4.99945 24 4.99945C24.2654 4.99945 24.5199 5.10487 24.7075 5.29251C24.8951 5.48015 25.0006 5.73464 25.0006 6.00001C25.0006 6.26537 24.8951 6.51987 24.7075 6.70751L15.4137 16L24.7075 25.2925ZM9 5.00001C8.73478 5.00001 8.48043 5.10536 8.29289 5.2929C8.10536 5.48044 8 5.73479 8 6.00001V26C8 26.2652 8.10536 26.5196 8.29289 26.7071C8.48043 26.8947 8.73478 27 9 27C9.26522 27 9.51957 26.8947 9.70711 26.7071C9.89464 26.5196 10 26.2652 10 26V6.00001C10 5.73479 9.89464 5.48044 9.70711 5.2929C9.51957 5.10536 9.26522 5.00001 9 5.00001Z" fill="#343330"/>
</svg>
