<svg width="32" height="32" viewBox="0 0 32 32" fill="none" xmlns="http://www.w3.org/2000/svg">
<path d="M25.1924 6.80751C22.7544 4.3695 19.4478 2.99985 15.9999 2.99985C12.5521 2.99985 9.24542 4.3695 6.80741 6.80751C4.36941 9.24551 2.99976 12.5521 2.99976 16C2.99976 19.4479 4.36941 22.7545 6.80741 25.1925C9.24542 27.6305 12.5521 29.0002 15.9999 29.0002C19.4478 29.0002 22.7544 27.6305 25.1924 25.1925C27.6304 22.7545 29.0001 19.4479 29.0001 16C29.0001 12.5521 27.6304 9.24551 25.1924 6.80751ZM23.7787 23.7788C22.2402 25.317 20.2802 26.3645 18.1465 26.7888C16.0127 27.2131 13.8011 26.9951 11.7912 26.1625C9.78128 25.3299 8.06341 23.92 6.85479 22.1111C5.64616 20.3022 5.00107 18.1755 5.00107 16C5.00107 13.8245 5.64616 11.6978 6.85479 9.8889C8.06341 8.08 9.78128 6.6701 11.7912 5.83749C13.8011 5.00487 16.0127 4.78694 18.1465 5.21125C20.2802 5.63555 22.2402 6.68304 23.7787 8.22126C25.8386 10.286 26.9954 13.0835 26.9954 16C26.9954 18.9166 25.8386 21.714 23.7787 23.7788ZM20.7074 20.2925C20.8951 20.4801 21.0005 20.7346 21.0005 21C21.0005 21.2654 20.8951 21.5199 20.7074 21.7075C20.5198 21.8951 20.2653 22.0006 19.9999 22.0006C19.7346 22.0006 19.4801 21.8951 19.2924 21.7075L15.9999 18.4138L12.7074 21.7075C12.6145 21.8004 12.5042 21.8741 12.3828 21.9244C12.2614 21.9747 12.1313 22.0006 11.9999 22.0006C11.8685 22.0006 11.7384 21.9747 11.617 21.9244C11.4956 21.8741 11.3853 21.8004 11.2924 21.7075C11.1995 21.6146 11.1258 21.5043 11.0755 21.3829C11.0252 21.2615 10.9994 21.1314 10.9994 21C10.9994 20.8686 11.0252 20.7385 11.0755 20.6171C11.1258 20.4957 11.1995 20.3854 11.2924 20.2925L15.2924 16.2925C15.3853 16.1995 15.4956 16.1258 15.617 16.0754C15.7384 16.0251 15.8685 15.9992 15.9999 15.9992C16.1313 15.9992 16.2615 16.0251 16.3829 16.0754C16.5043 16.1258 16.6145 16.1995 16.7074 16.2925L20.7074 20.2925ZM20.7074 13.2925C20.8003 13.3854 20.874 13.4957 20.9243 13.6171C20.9746 13.7385 21.0005 13.8686 21.0005 14C21.0005 14.1314 20.9746 14.2615 20.9243 14.3829C20.874 14.5043 20.8003 14.6146 20.7074 14.7075C20.6145 14.8004 20.5042 14.8741 20.3828 14.9244C20.2614 14.9747 20.1313 15.0006 19.9999 15.0006C19.8685 15.0006 19.7384 14.9747 19.617 14.9244C19.4956 14.8741 19.3853 14.8004 19.2924 14.7075L15.9999 11.4138L12.7074 14.7075C12.5198 14.8951 12.2653 15.0006 11.9999 15.0006C11.7346 15.0006 11.4801 14.8951 11.2924 14.7075C11.1048 14.5199 10.9994 14.2654 10.9994 14C10.9994 13.7346 11.1048 13.4801 11.2924 13.2925L15.2924 9.29251C15.3853 9.19953 15.4956 9.12577 15.617 9.07545C15.7384 9.02512 15.8685 8.99922 15.9999 8.99922C16.1313 8.99922 16.2615 9.02512 16.3829 9.07545C16.5043 9.12577 16.6145 9.19953 16.7074 9.29251L20.7074 13.2925Z" fill="#343330"/>
</svg>
