<svg width="32" height="32" viewBox="0 0 32 32" fill="none" xmlns="http://www.w3.org/2000/svg">
<path d="M25.1924 6.80751C22.7544 4.3695 19.4478 2.99985 15.9999 2.99985C12.5521 2.99985 9.24542 4.3695 6.80741 6.80751C4.36941 9.24551 2.99976 12.5521 2.99976 16C2.99976 19.4479 4.36941 22.7545 6.80741 25.1925C9.24542 27.6305 12.5521 29.0002 15.9999 29.0002C19.4478 29.0002 22.7544 27.6305 25.1924 25.1925C27.6304 22.7545 29.0001 19.4479 29.0001 16C29.0001 12.5521 27.6304 9.24551 25.1924 6.80751ZM23.7787 23.7788C22.2402 25.317 20.2802 26.3645 18.1465 26.7888C16.0127 27.2131 13.8011 26.9951 11.7912 26.1625C9.78128 25.3299 8.06341 23.92 6.85479 22.1111C5.64616 20.3022 5.00107 18.1755 5.00107 16C5.00107 13.8245 5.64616 11.6978 6.85479 9.8889C8.06341 8.08 9.78128 6.6701 11.7912 5.83749C13.8011 5.00487 16.0127 4.78694 18.1465 5.21125C20.2802 5.63555 22.2402 6.68304 23.7787 8.22126C25.8386 10.286 26.9954 13.0835 26.9954 16C26.9954 18.9166 25.8386 21.714 23.7787 23.7788ZM15.7074 15.2925C15.8004 15.3854 15.8741 15.4957 15.9245 15.6171C15.9748 15.7385 16.0007 15.8686 16.0007 16C16.0007 16.1314 15.9748 16.2615 15.9245 16.3829C15.8741 16.5043 15.8004 16.6146 15.7074 16.7075L11.7074 20.7075C11.6145 20.8004 11.5042 20.8741 11.3828 20.9244C11.2614 20.9747 11.1313 21.0006 10.9999 21.0006C10.8685 21.0006 10.7384 20.9747 10.617 20.9244C10.4956 20.8741 10.3853 20.8004 10.2924 20.7075C10.1995 20.6146 10.1258 20.5043 10.0755 20.3829C10.0252 20.2615 9.99936 20.1314 9.99936 20C9.99936 19.8686 10.0252 19.7385 10.0755 19.6171C10.1258 19.4957 10.1995 19.3854 10.2924 19.2925L13.5862 16L10.2924 12.7075C10.1048 12.5199 9.99936 12.2654 9.99936 12C9.99936 11.7346 10.1048 11.4801 10.2924 11.2925C10.4801 11.1049 10.7345 10.9994 10.9999 10.9994C11.2653 10.9994 11.5198 11.1049 11.7074 11.2925L15.7074 15.2925ZM22.7074 15.2925C22.8004 15.3854 22.8742 15.4957 22.9245 15.6171C22.9748 15.7385 23.0007 15.8686 23.0007 16C23.0007 16.1314 22.9748 16.2615 22.9245 16.3829C22.8742 16.5043 22.8004 16.6146 22.7074 16.7075L18.7074 20.7075C18.5198 20.8951 18.2653 21.0006 17.9999 21.0006C17.7346 21.0006 17.4801 20.8951 17.2924 20.7075C17.1048 20.5199 16.9994 20.2654 16.9994 20C16.9994 19.7346 17.1048 19.4801 17.2924 19.2925L20.5862 16L17.2924 12.7075C17.1048 12.5199 16.9994 12.2654 16.9994 12C16.9994 11.7346 17.1048 11.4801 17.2924 11.2925C17.4801 11.1049 17.7346 10.9994 17.9999 10.9994C18.2653 10.9994 18.5198 11.1049 18.7074 11.2925L22.7074 15.2925Z" fill="#343330"/>
</svg>
