<svg width="32" height="32" viewBox="0 0 32 32" fill="none" xmlns="http://www.w3.org/2000/svg">
<path d="M26.7076 16.2925C26.8005 16.3854 26.8743 16.4957 26.9246 16.6171C26.975 16.7385 27.0009 16.8686 27.0009 17C27.0009 17.1314 26.975 17.2615 26.9246 17.3829C26.8743 17.5043 26.8005 17.6146 26.7076 17.7075L16.7076 27.7075C16.6147 27.8005 16.5044 27.8742 16.383 27.9246C16.2616 27.9749 16.1315 28.0008 16.0001 28.0008C15.8687 28.0008 15.7385 27.9749 15.6171 27.9246C15.4957 27.8742 15.3854 27.8005 15.2926 27.7075L5.29257 17.7075C5.10493 17.5199 4.99951 17.2654 4.99951 17C4.99951 16.7346 5.10493 16.4801 5.29257 16.2925C5.48021 16.1049 5.7347 15.9995 6.00007 15.9995C6.26543 15.9995 6.51993 16.1049 6.70757 16.2925L16.0001 25.5863L25.2926 16.2925C25.3854 16.1995 25.4957 16.1258 25.6171 16.0754C25.7385 16.0251 25.8687 15.9992 26.0001 15.9992C26.1315 15.9992 26.2616 16.0251 26.383 16.0754C26.5044 16.1258 26.6147 16.1995 26.7076 16.2925ZM15.2926 17.7075C15.3854 17.8005 15.4957 17.8742 15.6171 17.9246C15.7385 17.9749 15.8687 18.0008 16.0001 18.0008C16.1315 18.0008 16.2616 17.9749 16.383 17.9246C16.5044 17.8742 16.6147 17.8005 16.7076 17.7075L26.7076 7.70751C26.8952 7.51987 27.0006 7.26537 27.0006 7.00001C27.0006 6.73464 26.8952 6.48015 26.7076 6.29251C26.5199 6.10487 26.2654 5.99945 26.0001 5.99945C25.7347 5.99945 25.4802 6.10487 25.2926 6.29251L16.0001 15.5863L6.70757 6.29251C6.51993 6.10487 6.26543 5.99945 6.00007 5.99945C5.7347 5.99945 5.48021 6.10487 5.29257 6.29251C5.10493 6.48015 4.99951 6.73464 4.99951 7.00001C4.99951 7.26537 5.10493 7.51987 5.29257 7.70751L15.2926 17.7075Z" fill="#343330"/>
</svg>
