<svg width="32" height="32" viewBox="0 0 32 32" fill="none" xmlns="http://www.w3.org/2000/svg">
<path d="M25.1924 6.80751C22.7544 4.3695 19.4478 2.99985 15.9999 2.99985C12.5521 2.99985 9.24542 4.3695 6.80741 6.80751C4.36941 9.24551 2.99976 12.5521 2.99976 16C2.99976 19.4479 4.36941 22.7545 6.80741 25.1925C9.24542 27.6305 12.5521 29.0002 15.9999 29.0002C19.4478 29.0002 22.7544 27.6305 25.1924 25.1925C27.6304 22.7545 29.0001 19.4479 29.0001 16C29.0001 12.5521 27.6304 9.24551 25.1924 6.80751ZM23.7787 23.7788C22.2402 25.317 20.2802 26.3645 18.1465 26.7888C16.0127 27.2131 13.8011 26.9951 11.7912 26.1625C9.78128 25.3299 8.06341 23.92 6.85479 22.1111C5.64616 20.3022 5.00107 18.1755 5.00107 16C5.00107 13.8245 5.64616 11.6978 6.85479 9.8889C8.06341 8.08 9.78128 6.6701 11.7912 5.83749C13.8011 5.00487 16.0127 4.78694 18.1465 5.21125C20.2802 5.63555 22.2402 6.68304 23.7787 8.22126C25.8386 10.286 26.9954 13.0835 26.9954 16C26.9954 18.9166 25.8386 21.714 23.7787 23.7788ZM21.7074 12.7075L18.4137 16L21.7074 19.2925C21.8003 19.3854 21.874 19.4957 21.9243 19.6171C21.9746 19.7385 22.0005 19.8686 22.0005 20C22.0005 20.1314 21.9746 20.2615 21.9243 20.3829C21.874 20.5043 21.8003 20.6146 21.7074 20.7075C21.6145 20.8004 21.5042 20.8741 21.3828 20.9244C21.2614 20.9747 21.1313 21.0006 20.9999 21.0006C20.8685 21.0006 20.7384 20.9747 20.617 20.9244C20.4956 20.8741 20.3853 20.8004 20.2924 20.7075L16.2924 16.7075C16.1994 16.6146 16.1257 16.5043 16.0754 16.3829C16.025 16.2615 15.9991 16.1314 15.9991 16C15.9991 15.8686 16.025 15.7385 16.0754 15.6171C16.1257 15.4957 16.1994 15.3854 16.2924 15.2925L20.2924 11.2925C20.3853 11.1996 20.4956 11.1259 20.617 11.0756C20.7384 11.0253 20.8685 10.9994 20.9999 10.9994C21.1313 10.9994 21.2614 11.0253 21.3828 11.0756C21.5042 11.1259 21.6145 11.1996 21.7074 11.2925C21.8003 11.3854 21.874 11.4957 21.9243 11.6171C21.9746 11.7385 22.0005 11.8686 22.0005 12C22.0005 12.1314 21.9746 12.2615 21.9243 12.3829C21.874 12.5043 21.8003 12.6146 21.7074 12.7075ZM14.7074 12.7075L11.4137 16L14.7074 19.2925C14.8003 19.3854 14.874 19.4957 14.9243 19.6171C14.9746 19.7385 15.0005 19.8686 15.0005 20C15.0005 20.1314 14.9746 20.2615 14.9243 20.3829C14.874 20.5043 14.8003 20.6146 14.7074 20.7075C14.6145 20.8004 14.5042 20.8741 14.3828 20.9244C14.2614 20.9747 14.1313 21.0006 13.9999 21.0006C13.8685 21.0006 13.7384 20.9747 13.617 20.9244C13.4956 20.8741 13.3853 20.8004 13.2924 20.7075L9.29241 16.7075C9.19944 16.6146 9.12568 16.5043 9.07535 16.3829C9.02503 16.2615 8.99913 16.1314 8.99913 16C8.99913 15.8686 9.02503 15.7385 9.07535 15.6171C9.12568 15.4957 9.19944 15.3854 9.29241 15.2925L13.2924 11.2925C13.4801 11.1049 13.7346 10.9994 13.9999 10.9994C14.2653 10.9994 14.5198 11.1049 14.7074 11.2925C14.8951 11.4801 15.0005 11.7346 15.0005 12C15.0005 12.2654 14.8951 12.5199 14.7074 12.7075Z" fill="#343330"/>
</svg>
