<svg width="32" height="32" viewBox="0 0 32 32" fill="none" xmlns="http://www.w3.org/2000/svg">
<path d="M30 13H28.65L25.1775 5.1875C25.0204 4.83403 24.7641 4.53372 24.4397 4.32296C24.1153 4.11219 23.7368 4 23.35 4H8.65C8.26317 4 7.88465 4.11219 7.56029 4.32296C7.23593 4.53372 6.97965 4.83403 6.8225 5.1875L3.35 13H2C1.73478 13 1.48043 13.1054 1.29289 13.2929C1.10536 13.4804 1 13.7348 1 14C1 14.2652 1.10536 14.5196 1.29289 14.7071C1.48043 14.8946 1.73478 15 2 15H3V25C3 25.5304 3.21071 26.0391 3.58579 26.4142C3.96086 26.7893 4.46957 27 5 27H8C8.53043 27 9.03914 26.7893 9.41421 26.4142C9.78929 26.0391 10 25.5304 10 25V23H22V25C22 25.5304 22.2107 26.0391 22.5858 26.4142C22.9609 26.7893 23.4696 27 24 27H27C27.5304 27 28.0391 26.7893 28.4142 26.4142C28.7893 26.0391 29 25.5304 29 25V15H30C30.2652 15 30.5196 14.8946 30.7071 14.7071C30.8946 14.5196 31 14.2652 31 14C31 13.7348 30.8946 13.4804 30.7071 13.2929C30.5196 13.1054 30.2652 13 30 13ZM8.65 6H23.35L26.4613 13H5.53875L8.65 6ZM27 25H24V22C24 21.7348 23.8946 21.4804 23.7071 21.2929C23.5196 21.1054 23.2652 21 23 21H9C8.73478 21 8.48043 21.1054 8.29289 21.2929C8.10536 21.4804 8 21.7348 8 22V25H5V15H27V25Z" fill="#343330"/>
</svg>
