<svg width="32" height="32" viewBox="0 0 32 32" fill="none" xmlns="http://www.w3.org/2000/svg">
<path d="M27 27H25V14.4137L26.4137 13C26.6003 12.815 26.7482 12.5947 26.8488 12.352C26.9494 12.1093 27.0008 11.849 27 11.5863V6C27 5.46957 26.7893 4.96086 26.4142 4.58579C26.0391 4.21071 25.5304 4 25 4H22C21.7348 4 21.4804 4.10536 21.2929 4.29289C21.1054 4.48043 21 4.73478 21 5V8H19V5C19 4.73478 18.8946 4.48043 18.7071 4.29289C18.5196 4.10536 18.2652 4 18 4H14C13.7348 4 13.4804 4.10536 13.2929 4.29289C13.1054 4.48043 13 4.73478 13 5V8H11V5C11 4.73478 10.8946 4.48043 10.7071 4.29289C10.5196 4.10536 10.2652 4 10 4H7C6.46957 4 5.96086 4.21071 5.58579 4.58579C5.21071 4.96086 5 5.46957 5 6V11.5863C4.99916 11.849 5.05056 12.1093 5.1512 12.352C5.25184 12.5947 5.39972 12.815 5.58625 13L7 14.4137V27H5C4.73478 27 4.48043 27.1054 4.29289 27.2929C4.10536 27.4804 4 27.7348 4 28C4 28.2652 4.10536 28.5196 4.29289 28.7071C4.48043 28.8946 4.73478 29 5 29H27C27.2652 29 27.5196 28.8946 27.7071 28.7071C27.8946 28.5196 28 28.2652 28 28C28 27.7348 27.8946 27.4804 27.7071 27.2929C27.5196 27.1054 27.2652 27 27 27ZM8.7075 13.2925L7 11.5863V6H9V9C9 9.26522 9.10536 9.51957 9.29289 9.70711C9.48043 9.89464 9.73478 10 10 10H14C14.2652 10 14.5196 9.89464 14.7071 9.70711C14.8946 9.51957 15 9.26522 15 9V6H17V9C17 9.26522 17.1054 9.51957 17.2929 9.70711C17.4804 9.89464 17.7348 10 18 10H22C22.2652 10 22.5196 9.89464 22.7071 9.70711C22.8946 9.51957 23 9.26522 23 9V6H25V11.5863L23.2925 13.2925C23.1997 13.3854 23.1261 13.4958 23.0759 13.6172C23.0257 13.7385 22.9999 13.8686 23 14V27H20V21C20 19.9391 19.5786 18.9217 18.8284 18.1716C18.0783 17.4214 17.0609 17 16 17C14.9391 17 13.9217 17.4214 13.1716 18.1716C12.4214 18.9217 12 19.9391 12 21V27H9V14C9.0001 13.8686 8.97432 13.7385 8.92414 13.6172C8.87395 13.4958 8.80033 13.3854 8.7075 13.2925ZM18 27H14V21C14 20.4696 14.2107 19.9609 14.5858 19.5858C14.9609 19.2107 15.4696 19 16 19C16.5304 19 17.0391 19.2107 17.4142 19.5858C17.7893 19.9609 18 20.4696 18 21V27Z" fill="#343330"/>
</svg>
