<svg width="32" height="32" viewBox="0 0 32 32" fill="none" xmlns="http://www.w3.org/2000/svg">
<path d="M12 17.5C12 17.7967 11.912 18.0867 11.7472 18.3333C11.5824 18.58 11.3481 18.7723 11.074 18.8858C10.7999 18.9993 10.4983 19.029 10.2074 18.9712C9.91639 18.9133 9.64912 18.7704 9.43934 18.5606C9.22956 18.3509 9.0867 18.0836 9.02882 17.7926C8.97094 17.5017 9.00065 17.2001 9.11418 16.926C9.22771 16.6519 9.41997 16.4176 9.66665 16.2528C9.91332 16.088 10.2033 16 10.5 16C10.8978 16 11.2794 16.158 11.5607 16.4393C11.842 16.7206 12 17.1022 12 17.5ZM21.5 16C21.2033 16 20.9133 16.088 20.6666 16.2528C20.42 16.4176 20.2277 16.6519 20.1142 16.926C20.0007 17.2001 19.9709 17.5017 20.0288 17.7926C20.0867 18.0836 20.2296 18.3509 20.4393 18.5606C20.6491 18.7704 20.9164 18.9133 21.2074 18.9712C21.4983 19.029 21.7999 18.9993 22.074 18.8858C22.3481 18.7723 22.5824 18.58 22.7472 18.3333C22.912 18.0867 23 17.7967 23 17.5C23 17.1022 22.842 16.7206 22.5607 16.4393C22.2794 16.158 21.8978 16 21.5 16ZM29 5.99999V17C29 23.6162 23.1688 29 16 29C8.83125 29 3 23.6162 3 17V5.99999C3.00018 5.60456 3.11758 5.21806 3.33736 4.88933C3.55713 4.56061 3.86942 4.3044 4.23476 4.15311C4.6001 4.00181 5.00209 3.9622 5.38993 4.0393C5.77777 4.11639 6.13405 4.30672 6.41375 4.58624C6.43125 4.60374 6.44625 4.61999 6.46125 4.63749L8.625 7.12499C10.8374 5.73884 13.3955 5.00369 16.0063 5.00369C18.617 5.00369 21.1751 5.73884 23.3875 7.12499L25.5387 4.63749C25.5537 4.61999 25.5688 4.60374 25.5863 4.58624C25.866 4.30672 26.2222 4.11639 26.6101 4.0393C26.9979 3.9622 27.3999 4.00181 27.7652 4.15311C28.1306 4.3044 28.4429 4.56061 28.6626 4.88933C28.8824 5.21806 28.9998 5.60456 29 5.99999ZM27 5.99999L24.305 9.09999C24.1401 9.29071 23.9093 9.41213 23.6588 9.43994C23.4082 9.46775 23.1564 9.39991 22.9538 9.24999C22.3437 8.79886 21.689 8.41142 21 8.09374V11C21 11.2652 20.8946 11.5196 20.7071 11.7071C20.5196 11.8946 20.2652 12 20 12C19.7348 12 19.4804 11.8946 19.2929 11.7071C19.1054 11.5196 19 11.2652 19 11V7.38124C18.3439 7.21248 17.675 7.09875 17 7.04124V11C17 11.2652 16.8946 11.5196 16.7071 11.7071C16.5196 11.8946 16.2652 12 16 12C15.7348 12 15.4804 11.8946 15.2929 11.7071C15.1054 11.5196 15 11.2652 15 11V7.04124C14.325 7.09875 13.6561 7.21248 13 7.38124V11C13 11.2652 12.8946 11.5196 12.7071 11.7071C12.5196 11.8946 12.2652 12 12 12C11.7348 12 11.4804 11.8946 11.2929 11.7071C11.1054 11.5196 11 11.2652 11 11V8.09374C10.311 8.41142 9.6563 8.79886 9.04625 9.24999C8.84403 9.40035 8.59249 9.46882 8.34196 9.44171C8.09143 9.41459 7.86037 9.29389 7.695 9.10374L5 5.99999V17C5 22.2075 9.40125 26.5 15 26.9587V24.4137L13.2925 22.7062C13.1997 22.6133 13.1261 22.503 13.0758 22.3817C13.0256 22.2603 12.9998 22.1303 12.9999 21.9989C12.9999 21.8676 13.0259 21.7375 13.0762 21.6162C13.1265 21.4949 13.2002 21.3847 13.2931 21.2919C13.4808 21.1044 13.7352 20.9991 14.0004 20.9993C14.1318 20.9993 14.2618 21.0252 14.3831 21.0756C14.5045 21.1259 14.6147 21.1996 14.7075 21.2925L16 22.585L17.2925 21.2925C17.3853 21.1996 17.4955 21.1259 17.6169 21.0756C17.7382 21.0252 17.8682 20.9993 17.9996 20.9993C18.1309 20.9992 18.261 21.025 18.3823 21.0752C18.5037 21.1254 18.614 21.199 18.7069 21.2919C18.7998 21.3847 18.8735 21.4949 18.9238 21.6162C18.9741 21.7375 19.0001 21.8676 19.0001 21.9989C19.0002 22.1303 18.9744 22.2603 18.9242 22.3817C18.8739 22.503 18.8003 22.6133 18.7075 22.7062L17 24.4137V26.9587C22.5988 26.4975 27 22.2087 27 17V5.99999Z" fill="#343330"/>
</svg>
