<svg width="32" height="32" viewBox="0 0 32 32" fill="none" xmlns="http://www.w3.org/2000/svg">
<path d="M16.895 10.5525C16.812 10.3861 16.6843 10.2461 16.5263 10.1483C16.3682 10.0504 16.1859 9.99858 16 9.99858C15.814 9.99858 15.6318 10.0504 15.4737 10.1483C15.3156 10.2461 15.1879 10.3861 15.105 10.5525L6.10497 28.5525C5.98629 28.7897 5.9667 29.0644 6.0505 29.316C6.13431 29.5676 6.31465 29.7757 6.55185 29.8944C6.78905 30.0131 7.06369 30.0327 7.31534 29.9489C7.56699 29.8651 7.77504 29.6847 7.89373 29.4475L9.62497 26H22.3875L24.1112 29.4475C24.1939 29.6127 24.3207 29.7518 24.4776 29.8493C24.6344 29.9468 24.8153 29.999 25 30C25.1704 29.9999 25.338 29.9563 25.4868 29.8732C25.6357 29.7901 25.7608 29.6704 25.8503 29.5254C25.9399 29.3804 25.9909 29.2149 25.9984 29.0446C26.006 28.8743 25.97 28.7049 25.8937 28.5525L16.895 10.5525ZM16 13.2363L19.3825 20H12.6175L16 13.2363ZM10.625 24L11.625 22H20.3875L21.3875 24H10.625ZM19.9425 11.7175C20.0455 11.1417 20.0209 10.5503 19.8706 9.98507C19.7203 9.41979 19.4478 8.89436 19.0723 8.44582C18.6969 7.99727 18.2277 7.63652 17.6977 7.38899C17.1677 7.14146 16.5899 7.01317 16.005 7.01317C15.42 7.01317 14.8422 7.14146 14.3123 7.38899C13.7823 7.63652 13.313 7.99727 12.9376 8.44582C12.5622 8.89436 12.2897 9.41979 12.1394 9.98507C11.989 10.5503 11.9645 11.1417 12.0675 11.7175C12.0942 11.848 12.0945 11.9826 12.0685 12.1132C12.0424 12.2439 11.9906 12.368 11.9159 12.4783C11.8412 12.5886 11.7453 12.6829 11.6336 12.7557C11.522 12.8284 11.397 12.8781 11.2659 12.9018C11.1348 12.9255 11.0003 12.9228 10.8703 12.8939C10.7403 12.8649 10.6173 12.8102 10.5087 12.7331C10.4001 12.656 10.308 12.5579 10.2378 12.4447C10.1676 12.3315 10.1208 12.2053 10.1 12.0738C9.94324 11.2093 9.97827 10.3209 10.2026 9.47144C10.4269 8.62198 10.835 7.83214 11.3982 7.15775C11.9613 6.48335 12.6656 5.94085 13.4615 5.56859C14.2573 5.19632 15.1251 5.00337 16.0037 5.00337C16.8823 5.00337 17.7502 5.19632 18.546 5.56859C19.3418 5.94085 20.0462 6.48335 20.6093 7.15775C21.1724 7.83214 21.5805 8.62198 21.8049 9.47144C22.0292 10.3209 22.0642 11.2093 21.9075 12.0738C21.8659 12.3042 21.7448 12.5127 21.5653 12.663C21.3857 12.8133 21.1591 12.8959 20.925 12.8963C20.865 12.8958 20.8053 12.8903 20.7462 12.88C20.6166 12.8571 20.4928 12.8088 20.3818 12.7379C20.2709 12.6671 20.1751 12.575 20.0998 12.467C20.0246 12.359 19.9714 12.2372 19.9433 12.1085C19.9152 11.9799 19.9128 11.8471 19.9362 11.7175H19.9425ZM8.01873 17.0263C6.89823 15.5419 6.21386 13.7745 6.04251 11.9227C5.87116 10.0708 6.21962 8.20788 7.04874 6.54316C7.87786 4.87844 9.15478 3.47791 10.736 2.49894C12.3173 1.51996 14.1402 1.00134 16 1.00134C17.8597 1.00134 19.6827 1.51996 21.2639 2.49894C22.8452 3.47791 24.1221 4.87844 24.9512 6.54316C25.7803 8.20788 26.1288 10.0708 25.9574 11.9227C25.7861 13.7745 25.1017 15.5419 23.9812 17.0263C23.8197 17.2332 23.5832 17.3684 23.3228 17.4025C23.0625 17.4366 22.7992 17.3669 22.5898 17.2085C22.3803 17.0501 22.2416 16.8158 22.2035 16.556C22.1654 16.2962 22.2311 16.0318 22.3862 15.82C23.2822 14.6325 23.8293 13.2186 23.9661 11.7373C24.1029 10.2559 23.8239 8.76579 23.1605 7.43426C22.4971 6.10272 21.4756 4.98254 20.2107 4.19953C18.9458 3.41653 17.4876 3.00173 16 3.00173C14.5123 3.00173 13.0542 3.41653 11.7893 4.19953C10.5244 4.98254 9.50284 6.10272 8.83945 7.43426C8.17606 8.76579 7.89708 10.2559 8.03386 11.7373C8.17063 13.2186 8.71774 14.6325 9.61373 15.82C9.76888 16.0318 9.83451 16.2962 9.79643 16.556C9.75834 16.8158 9.61962 17.0501 9.41019 17.2085C9.20077 17.3669 8.93746 17.4366 8.67712 17.4025C8.41677 17.3684 8.18029 17.2332 8.01873 17.0263Z" fill="#343330"/>
</svg>
