<svg width="32" height="32" viewBox="0 0 32 32" fill="none" xmlns="http://www.w3.org/2000/svg">
<path d="M12.5 14.5538C12.6521 14.466 12.7783 14.3397 12.8661 14.1876C12.9539 14.0356 13 13.8631 13 13.6875V4.6875C12.9991 4.52807 12.9601 4.37116 12.8863 4.22986C12.8124 4.08857 12.7058 3.96698 12.5754 3.87524C12.445 3.7835 12.2946 3.72426 12.1367 3.70248C11.9787 3.68069 11.8179 3.69699 11.6675 3.75C8.74872 4.78302 6.29415 6.8233 4.74502 9.50409C3.1959 12.1849 2.65382 15.3303 3.21625 18.375C3.2454 18.5324 3.31194 18.6806 3.41026 18.807C3.50858 18.9333 3.63581 19.0343 3.78125 19.1012C3.91232 19.1625 4.05531 19.1941 4.2 19.1938C4.37552 19.1938 4.54796 19.1477 4.7 19.06L12.5 14.5538ZM11 6.2025V13.11L5.015 16.5637C5 16.375 5 16.185 5 16C5.00177 13.973 5.56286 11.9857 6.62149 10.2571C7.68012 8.5284 9.19523 7.12539 11 6.2025ZM16 3C15.7348 3 15.4804 3.10536 15.2929 3.29289C15.1054 3.48043 15 3.73478 15 4V15.4775L5.14875 21.2162C5.03443 21.2825 4.93438 21.3708 4.85438 21.4759C4.77438 21.5811 4.71601 21.7011 4.68266 21.8289C4.6493 21.9568 4.64161 22.09 4.66003 22.2208C4.67846 22.3517 4.72263 22.4776 4.79 22.5912C5.94463 24.5541 7.59463 26.1793 9.57482 27.304C11.555 28.4286 13.7959 29.0134 16.0732 28.9998C18.3504 28.9861 20.5841 28.3745 22.5507 27.2261C24.5172 26.0777 26.1476 24.4329 27.2786 22.4563C28.4096 20.4797 29.0015 18.2407 28.9951 15.9634C28.9887 13.6861 28.3842 11.4505 27.2421 9.48029C26.1 7.51009 24.4604 5.87448 22.4874 4.73719C20.5144 3.5999 18.2773 3.00085 16 3ZM16 27C14.2543 26.9953 12.5345 26.5774 10.9813 25.7805C9.42814 24.9836 8.08567 23.8303 7.06375 22.415L16.5037 16.915C16.6556 16.8273 16.7818 16.7012 16.8695 16.5494C16.9573 16.3976 17.0036 16.2254 17.0037 16.05V5.045C19.8243 5.3009 22.4374 6.6348 24.2991 8.769C26.1609 10.9032 27.1277 13.6732 26.9984 16.5024C26.869 19.3315 25.6535 22.0018 23.6048 23.9572C21.5561 25.9126 18.8321 27.0025 16 27Z" fill="#343330"/>
</svg>
