<svg width="32" height="32" viewBox="0 0 32 32" fill="none" xmlns="http://www.w3.org/2000/svg">
<path d="M6.74003 4.32752C6.65222 4.22853 6.54562 4.14795 6.42643 4.09046C6.30725 4.03297 6.17783 3.9997 6.04569 3.99259C5.91355 3.98549 5.78132 4.00467 5.65665 4.04905C5.53198 4.09342 5.41735 4.1621 5.31942 4.2511C5.22149 4.3401 5.1422 4.44765 5.08614 4.56752C5.03008 4.68739 4.99837 4.81719 4.99284 4.94941C4.98732 5.08162 5.00809 5.21362 5.05396 5.33775C5.09982 5.46187 5.16987 5.57567 5.26004 5.67252L5.55753 6.00002H5.00003C4.4696 6.00002 3.96089 6.21074 3.58582 6.58581C3.21075 6.96088 3.00003 7.46959 3.00003 8.00002V28C2.99778 28.3812 3.10554 28.755 3.31041 29.0765C3.51528 29.398 3.80855 29.6535 4.15504 29.8125C4.41981 29.9355 4.70812 29.9994 5.00003 30C5.46987 29.9987 5.92411 29.8313 6.28253 29.5275L6.29253 29.5188L10.375 26H23.74L25.26 27.6725C25.3479 27.7715 25.4544 27.8521 25.5736 27.9096C25.6928 27.9671 25.8222 28.0003 25.9544 28.0075C26.0865 28.0146 26.2188 27.9954 26.3434 27.951C26.4681 27.9066 26.5827 27.8379 26.6806 27.7489C26.7786 27.66 26.8579 27.5524 26.9139 27.4325C26.97 27.3127 27.0017 27.1829 27.0072 27.0506C27.0128 26.9184 26.992 26.7864 26.9461 26.6623C26.9002 26.5382 26.8302 26.4244 26.74 26.3275L6.74003 4.32752ZM10 24C9.75992 24.0002 9.52787 24.0867 9.34628 24.2438L5.00003 28V8.00002H7.37503L21.9213 24H10ZM29 8.00002V23.25C29 23.5152 28.8947 23.7696 28.7071 23.9571C28.5196 24.1447 28.2653 24.25 28 24.25C27.7348 24.25 27.4805 24.1447 27.2929 23.9571C27.1054 23.7696 27 23.5152 27 23.25V8.00002H13.2238C12.9586 8.00002 12.7042 7.89467 12.5167 7.70713C12.3291 7.51959 12.2238 7.26524 12.2238 7.00002C12.2238 6.73481 12.3291 6.48045 12.5167 6.29292C12.7042 6.10538 12.9586 6.00002 13.2238 6.00002H27C27.5305 6.00002 28.0392 6.21074 28.4142 6.58581C28.7893 6.96088 29 7.46959 29 8.00002Z" fill="#343330"/>
</svg>
