<svg width="32" height="32" viewBox="0 0 32 32" fill="none" xmlns="http://www.w3.org/2000/svg">
<path d="M21.1963 9.07375C20.2913 6.95494 18.6824 5.21364 16.6416 4.14422C14.6009 3.0748 12.2534 2.74287 9.99616 3.20455C7.73891 3.66623 5.71031 4.8932 4.25334 6.67802C2.79637 8.46284 2.0004 10.696 2 13V21C2 21.5304 2.21071 22.0391 2.58579 22.4142C2.96086 22.7893 3.46957 23 4 23H10.8337C11.6141 24.7821 12.8964 26.2984 14.5241 27.3638C16.1519 28.4293 18.0546 28.9978 20 29H28C28.5304 29 29.0391 28.7893 29.4142 28.4142C29.7893 28.0391 30 27.5304 30 27V19C29.9995 16.5553 29.1036 14.1955 27.4814 12.3666C25.8593 10.5376 23.6234 9.36619 21.1963 9.07375ZM4 13C4 11.4177 4.46919 9.87103 5.34824 8.55544C6.22729 7.23984 7.47672 6.21446 8.93853 5.60896C10.4003 5.00346 12.0089 4.84504 13.5607 5.15372C15.1126 5.4624 16.538 6.22432 17.6569 7.34314C18.7757 8.46197 19.5376 9.88743 19.8463 11.4393C20.155 12.9911 19.9965 14.5997 19.391 16.0615C18.7855 17.5233 17.7602 18.7727 16.4446 19.6518C15.129 20.5308 13.5823 21 12 21H4V13ZM28 27H20C18.5854 26.9984 17.1964 26.6225 15.974 25.9106C14.7516 25.1986 13.7394 24.1759 13.04 22.9463C14.4096 22.8041 15.7351 22.3804 16.9333 21.7017C18.1314 21.023 19.1763 20.104 20.0024 19.0023C20.8284 17.9006 21.4179 16.6401 21.7337 15.2998C22.0495 13.9595 22.0848 12.5684 21.8375 11.2137C23.5916 11.6277 25.1545 12.6218 26.273 14.035C27.3915 15.4482 28 17.1977 28 19V27Z" fill="#343330"/>
</svg>
