<svg width="32" height="32" viewBox="0 0 32 32" fill="none" xmlns="http://www.w3.org/2000/svg">
<path d="M6.74 4.32752C6.60424 4.17816 6.42647 4.07338 6.23005 4.02694C6.03363 3.98051 5.82776 3.9946 5.63949 4.06737C5.45123 4.14013 5.28939 4.26815 5.17526 4.43462C5.06112 4.60108 5.00002 4.79818 5 5.00002C4.46957 5.00002 3.96086 5.21073 3.58579 5.5858C3.21071 5.96087 3 6.46958 3 7.00002V23C3 23.5304 3.21071 24.0392 3.58579 24.4142C3.96086 24.7893 4.46957 25 5 25H12.5538L14.2638 27.9925C14.4387 28.2985 14.6914 28.5529 14.9964 28.7298C15.3013 28.9067 15.6475 28.9998 16 28.9998C16.3525 28.9998 16.6987 28.9067 17.0036 28.7298C17.3086 28.5529 17.5613 28.2985 17.7362 27.9925L19.4463 25H22.83L25.26 27.6725C25.3478 27.7715 25.4544 27.8521 25.5736 27.9096C25.6928 27.9671 25.8222 28.0003 25.9543 28.0074C26.0865 28.0146 26.2187 27.9954 26.3434 27.951C26.4681 27.9066 26.5827 27.8379 26.6806 27.7489C26.7785 27.6599 26.8578 27.5524 26.9139 27.4325C26.97 27.3127 27.0017 27.1828 27.0072 27.0506C27.0127 26.9184 26.9919 26.7864 26.9461 26.6623C26.9002 26.5382 26.8302 26.4244 26.74 26.3275L6.74 4.32752ZM18.865 23C18.6879 22.9984 18.5136 23.0439 18.3599 23.1317C18.2062 23.2196 18.0785 23.3467 17.99 23.5L15.99 27L13.99 23.5C13.9015 23.3467 13.7738 23.2196 13.6201 23.1317C13.4664 23.0439 13.2921 22.9984 13.115 23H5V7.00002H6.46625L21.0125 23H18.865ZM29 7.00002V23.25C29 23.5152 28.8946 23.7696 28.7071 23.9571C28.5196 24.1447 28.2652 24.25 28 24.25C27.7348 24.25 27.4804 24.1447 27.2929 23.9571C27.1054 23.7696 27 23.5152 27 23.25V7.00002H12.315C12.0498 7.00002 11.7954 6.89466 11.6079 6.70712C11.4204 6.51959 11.315 6.26523 11.315 6.00002C11.315 5.7348 11.4204 5.48045 11.6079 5.29291C11.7954 5.10537 12.0498 5.00002 12.315 5.00002H27C27.5304 5.00002 28.0391 5.21073 28.4142 5.5858C28.7893 5.96087 29 6.46958 29 7.00002Z" fill="#343330"/>
</svg>
