<svg width="32" height="32" viewBox="0 0 32 32" fill="none" xmlns="http://www.w3.org/2000/svg">
<path d="M6.73998 4.32751C6.65216 4.22852 6.54557 4.14794 6.42638 4.09045C6.30719 4.03296 6.17778 3.99969 6.04564 3.99258C5.9135 3.98548 5.78126 4.00466 5.65659 4.04904C5.53192 4.09341 5.4173 4.16209 5.31937 4.25109C5.22144 4.34009 5.14215 4.44764 5.08609 4.56751C5.03003 4.68738 4.99831 4.81718 4.99279 4.9494C4.98727 5.08161 5.00804 5.21361 5.0539 5.33774C5.09977 5.46186 5.16982 5.57566 5.25998 5.67251L6.54123 7.08251C4.6759 9.06186 3.47793 11.5761 3.11582 14.2717C2.7537 16.9673 3.24565 19.7086 4.52248 22.11L3.10373 26.3663C2.98621 26.7187 2.96916 27.0968 3.05448 27.4584C3.1398 27.8199 3.32413 28.1505 3.5868 28.4132C3.84947 28.6759 4.1801 28.8602 4.54164 28.9455C4.90318 29.0308 5.28134 29.0138 5.63373 28.8963L9.88998 27.4775C12.1051 28.6559 14.6138 29.168 17.1136 28.9522C19.6133 28.7364 21.9971 27.8018 23.9775 26.2613L25.26 27.6725C25.3478 27.7715 25.4544 27.8521 25.5736 27.9096C25.6928 27.9671 25.8222 28.0003 25.9543 28.0074C26.0865 28.0146 26.2187 27.9954 26.3434 27.951C26.468 27.9066 26.5827 27.8379 26.6806 27.7489C26.7785 27.6599 26.8578 27.5524 26.9139 27.4325C26.9699 27.3127 27.0017 27.1828 27.0072 27.0506C27.0127 26.9184 26.9919 26.7864 26.9461 26.6623C26.9002 26.5382 26.8301 26.4244 26.74 26.3275L6.73998 4.32751ZM16 27C14.0662 27.0013 12.1664 26.4921 10.4925 25.5238C10.3698 25.4529 10.2335 25.4089 10.0926 25.3947C9.95166 25.3804 9.80932 25.3963 9.67498 25.4413L4.99998 27L6.55873 22.325C6.60366 22.1907 6.61954 22.0483 6.60532 21.9074C6.5911 21.7665 6.5471 21.6302 6.47623 21.5075C5.30454 19.4806 4.81009 17.1328 5.0648 14.8055C5.31952 12.4783 6.31011 10.293 7.89248 8.56751L22.625 24.7788C20.7177 26.2214 18.3914 27.0014 16 27ZM29 16C29 18.1483 28.4684 20.2633 27.4525 22.1563C27.3257 22.3877 27.1125 22.5596 26.8595 22.6345C26.6065 22.7094 26.3342 22.6813 26.1018 22.5563C25.8694 22.4313 25.6959 22.2195 25.619 21.9671C25.5421 21.7147 25.568 21.4421 25.6912 21.2088C26.7701 19.2046 27.2007 16.9152 26.9237 14.656C26.6467 12.3969 25.6758 10.2793 24.1447 8.59515C22.6136 6.91102 20.5978 5.74331 18.3752 5.25299C16.1525 4.76266 13.8325 4.97388 11.735 5.85751C11.4905 5.96045 11.2151 5.96205 10.9694 5.86195C10.7238 5.76185 10.5279 5.56826 10.425 5.32376C10.322 5.07927 10.3205 4.80389 10.4205 4.55822C10.5206 4.31255 10.7142 4.1167 10.9587 4.01376C12.9353 3.18423 15.0862 2.85602 17.2202 3.05835C19.3542 3.26067 21.4051 3.98725 23.1906 5.17346C24.976 6.35968 26.4406 7.96875 27.4542 9.85758C28.4677 11.7464 28.9987 13.8564 29 16Z" fill="#343330"/>
</svg>
