<svg width="32" height="32" viewBox="0 0 32 32" fill="none" xmlns="http://www.w3.org/2000/svg">
<path d="M6.74003 4.3275C6.65221 4.22851 6.54562 4.14793 6.42643 4.09044C6.30724 4.03295 6.17783 3.99968 6.04569 3.99257C5.91355 3.98547 5.78131 4.00465 5.65664 4.04903C5.53197 4.0934 5.41735 4.16208 5.31942 4.25108C5.22149 4.34008 5.14219 4.44763 5.08613 4.5675C5.03007 4.68737 4.99836 4.81717 4.99284 4.94939C4.98732 5.0816 5.00809 5.2136 5.05395 5.33773C5.09982 5.46186 5.16987 5.57565 5.26003 5.6725L6.90753 7.485C5.02326 9.73006 3.99341 12.569 4.00003 15.5V26C4.00003 26.5304 4.21075 27.0391 4.58582 27.4142C4.96089 27.7893 5.4696 28 6.00003 28H16.5C19.0222 27.9968 21.4848 27.2331 23.5663 25.8088L25.26 27.6725C25.3479 27.7715 25.4544 27.8521 25.5736 27.9096C25.6928 27.9671 25.8222 28.0003 25.9544 28.0074C26.0865 28.0145 26.2188 27.9954 26.3434 27.951C26.4681 27.9066 26.5827 27.8379 26.6806 27.7489C26.7786 27.6599 26.8579 27.5524 26.9139 27.4325C26.97 27.3126 27.0017 27.1828 27.0072 27.0506C27.0127 26.9184 26.992 26.7864 26.9461 26.6623C26.9002 26.5382 26.8302 26.4244 26.74 26.3275L6.74003 4.3275ZM16.5 26H6.00003V15.5C5.99474 13.1326 6.7948 10.8338 8.26878 8.98125L22.2075 24.3138C20.5105 25.4211 18.5264 26.0074 16.5 26ZM29 15.5C29.0017 17.7753 28.3814 20.0079 27.2063 21.9563C27.069 22.1833 26.8472 22.3466 26.5896 22.4101C26.3319 22.4737 26.0596 22.4323 25.8325 22.295C25.6054 22.1578 25.4422 21.9359 25.3786 21.6783C25.3151 21.4207 25.3565 21.1483 25.4938 20.9213C26.6619 18.9857 27.1741 16.7248 26.9543 14.4747C26.7344 12.2247 25.7942 10.1057 24.2734 8.43285C22.7527 6.76002 20.7327 5.62269 18.5137 5.18999C16.2947 4.7573 13.9954 5.05234 11.9575 6.03125C11.7185 6.14629 11.4436 6.16166 11.1932 6.07399C10.9428 5.98632 10.7376 5.80278 10.6225 5.56375C10.5075 5.32473 10.4921 5.04979 10.5798 4.79943C10.6675 4.54907 10.851 4.34379 11.09 4.22875C12.9957 3.31384 15.1023 2.89717 17.2128 3.01772C19.3233 3.13826 21.3688 3.79208 23.1579 4.91803C24.947 6.04397 26.4214 7.60527 27.4431 9.4559C28.4648 11.3065 29.0005 13.3861 29 15.5Z" fill="#343330"/>
</svg>
