<svg width="32" height="32" viewBox="0 0 32 32" fill="none" xmlns="http://www.w3.org/2000/svg">
<path d="M11 13C11 12.7348 11.1054 12.4804 11.2929 12.2929C11.4804 12.1054 11.7348 12 12 12H20C20.2652 12 20.5196 12.1054 20.7071 12.2929C20.8946 12.4804 21 12.7348 21 13C21 13.2652 20.8946 13.5196 20.7071 13.7071C20.5196 13.8946 20.2652 14 20 14H12C11.7348 14 11.4804 13.8946 11.2929 13.7071C11.1054 13.5196 11 13.2652 11 13ZM12 18H20C20.2652 18 20.5196 17.8946 20.7071 17.7071C20.8946 17.5196 21 17.2652 21 17C21 16.7348 20.8946 16.4804 20.7071 16.2929C20.5196 16.1054 20.2652 16 20 16H12C11.7348 16 11.4804 16.1054 11.2929 16.2929C11.1054 16.4804 11 16.7348 11 17C11 17.2652 11.1054 17.5196 11.2929 17.7071C11.4804 17.8946 11.7348 18 12 18ZM29 7V23C29 23.5304 28.7893 24.0391 28.4142 24.4142C28.0391 24.7893 27.5304 25 27 25H19.4463L17.7362 27.9925C17.5613 28.2985 17.3086 28.5529 17.0036 28.7297C16.6987 28.9066 16.3525 28.9998 16 28.9998C15.6475 28.9998 15.3013 28.9066 14.9964 28.7297C14.6914 28.5529 14.4387 28.2985 14.2638 27.9925L12.5538 25H5C4.46957 25 3.96086 24.7893 3.58579 24.4142C3.21071 24.0391 3 23.5304 3 23V7C3 6.46957 3.21071 5.96086 3.58579 5.58579C3.96086 5.21071 4.46957 5 5 5H27C27.5304 5 28.0391 5.21071 28.4142 5.58579C28.7893 5.96086 29 6.46957 29 7ZM27 7H5V23H13.1337C13.3108 22.9984 13.4851 23.0439 13.6388 23.1317C13.7926 23.2196 13.9202 23.3467 14.0087 23.5L16.0088 27L18.0088 23.5C18.0973 23.3467 18.2249 23.2196 18.3787 23.1317C18.5324 23.0439 18.7067 22.9984 18.8838 23H27V7Z" fill="#343330"/>
</svg>
