<svg width="32" height="32" viewBox="0 0 32 32" fill="none" xmlns="http://www.w3.org/2000/svg">
<path d="M27 5H5C4.46957 5 3.96086 5.21071 3.58579 5.58579C3.21071 5.96086 3 6.46957 3 7V23C3 23.5304 3.21071 24.0391 3.58579 24.4142C3.96086 24.7893 4.46957 25 5 25H12.5538L14.2638 27.9925C14.4387 28.2985 14.6914 28.5529 14.9964 28.7297C15.3013 28.9066 15.6475 28.9998 16 28.9998C16.3525 28.9998 16.6987 28.9066 17.0036 28.7297C17.3086 28.5529 17.5613 28.2985 17.7362 27.9925L19.4463 25H27C27.5304 25 28.0391 24.7893 28.4142 24.4142C28.7893 24.0391 29 23.5304 29 23V7C29 6.46957 28.7893 5.96086 28.4142 5.58579C28.0391 5.21071 27.5304 5 27 5ZM27 23H18.8662C18.6892 22.9984 18.5149 23.0439 18.3612 23.1317C18.2074 23.2196 18.0798 23.3467 17.9912 23.5L15.9913 27L13.9913 23.5C13.9027 23.3467 13.7751 23.2196 13.6213 23.1317C13.4676 23.0439 13.2933 22.9984 13.1163 23H5V7H27V23Z" fill="#343330"/>
</svg>
