<svg width="32" height="32" viewBox="0 0 32 32" fill="none" xmlns="http://www.w3.org/2000/svg">
<path d="M29.0088 23.345C29.6998 21.9118 30.0388 20.3345 29.9977 18.744C29.9567 17.1535 29.5367 15.5958 28.7727 14.2002C28.0087 12.8046 26.9228 11.6114 25.6051 10.7198C24.2873 9.82821 22.7759 9.26389 21.1963 9.07373C20.6707 7.85169 19.9065 6.74679 18.9486 5.82376C17.9907 4.90072 16.8582 4.17809 15.6175 3.69818C14.3768 3.21827 13.0528 2.99074 11.7231 3.0289C10.3933 3.06705 9.08458 3.37014 7.87345 3.92041C6.66231 4.47068 5.57314 5.25706 4.66971 6.23352C3.76628 7.20997 3.06676 8.35686 2.6121 9.60704C2.15745 10.8572 1.9568 12.1855 2.02191 13.5142C2.08702 14.8429 2.41657 16.1452 2.99128 17.345L2.08253 20.4337C1.98093 20.7785 1.97413 21.1444 2.06287 21.4927C2.1516 21.8411 2.33258 22.1591 2.58676 22.4132C2.84095 22.6674 3.15894 22.8484 3.50729 22.9371C3.85564 23.0259 4.22147 23.0191 4.56628 22.9175L7.65503 22.0087C8.64682 22.4852 9.71014 22.7956 10.8025 22.9275C11.3333 24.171 12.1106 25.294 13.0877 26.2285C14.0647 27.1631 15.2211 27.8898 16.4869 28.3647C17.7528 28.8397 19.1018 29.053 20.4525 28.9918C21.8031 28.9306 23.1273 28.5962 24.345 28.0087L27.4338 28.9175C27.7785 29.019 28.1441 29.0257 28.4923 28.937C28.8405 28.8484 29.1584 28.6675 29.4125 28.4135C29.6667 28.1595 29.8477 27.8417 29.9366 27.4935C30.0254 27.1454 30.0188 26.7797 29.9175 26.435L29.0088 23.345ZM7.75003 19.9375C7.65447 19.9377 7.5594 19.9512 7.46753 19.9775L4.00003 21L5.02128 17.53C5.09392 17.2793 5.06565 17.0101 4.94253 16.78C4.03792 15.0882 3.77137 13.1277 4.19149 11.2558C4.6116 9.38393 5.6904 7.72535 7.23121 6.58241C8.77203 5.43948 10.6723 4.8883 12.5855 5.02935C14.4988 5.17041 16.2976 5.9943 17.6542 7.35084C19.0107 8.70739 19.8346 10.5062 19.9757 12.4195C20.1167 14.3327 19.5655 16.233 18.4226 17.7738C17.2797 19.3146 15.6211 20.3934 13.7492 20.8135C11.8773 21.2336 9.91681 20.9671 8.22503 20.0625C8.07955 19.982 7.9163 19.939 7.75003 19.9375ZM26.9738 23.5287L28 27L24.53 25.9787C24.2793 25.9061 24.0102 25.9344 23.78 26.0575C21.9386 27.0408 19.7859 27.2659 17.7808 26.685C15.7757 26.104 14.0768 24.7629 13.0463 22.9475C14.4155 22.8046 15.7404 22.3802 16.9379 21.7011C18.1354 21.022 19.1796 20.1027 20.0051 19.001C20.8305 17.8993 21.4194 16.6388 21.7347 15.2988C22.0501 13.9587 22.0851 12.568 21.8375 11.2137C23.0305 11.4949 24.1429 12.0465 25.0889 12.8259C26.0349 13.6052 26.7892 14.5915 27.2935 15.7086C27.7978 16.8258 28.0387 18.0438 27.9976 19.2688C27.9565 20.4938 27.6344 21.693 27.0563 22.7737C26.9318 23.0053 26.9035 23.2765 26.9775 23.5287H26.9738Z" fill="#343330"/>
</svg>
