<svg width="32" height="32" viewBox="0 0 32 32" fill="none" xmlns="http://www.w3.org/2000/svg">
<path d="M14.5 16C14.5 15.7033 14.588 15.4133 14.7528 15.1666C14.9177 14.92 15.1519 14.7277 15.426 14.6142C15.7001 14.5006 16.0017 14.4709 16.2927 14.5288C16.5836 14.5867 16.8509 14.7296 17.0607 14.9393C17.2705 15.1491 17.4133 15.4164 17.4712 15.7074C17.5291 15.9983 17.4994 16.2999 17.3859 16.574C17.2723 16.8481 17.0801 17.0824 16.8334 17.2472C16.5867 17.412 16.2967 17.5 16 17.5C15.6022 17.5 15.2207 17.342 14.9394 17.0607C14.6581 16.7794 14.5 16.3978 14.5 16ZM10.5 17.5C10.7967 17.5 11.0867 17.412 11.3334 17.2472C11.5801 17.0824 11.7723 16.8481 11.8859 16.574C11.9994 16.2999 12.0291 15.9983 11.9712 15.7074C11.9133 15.4164 11.7705 15.1491 11.5607 14.9393C11.3509 14.7296 11.0836 14.5867 10.7927 14.5288C10.5017 14.4709 10.2001 14.5006 9.92601 14.6142C9.65192 14.7277 9.41765 14.92 9.25283 15.1666C9.08801 15.4133 9.00003 15.7033 9.00003 16C9.00003 16.3978 9.15807 16.7794 9.43937 17.0607C9.72068 17.342 10.1022 17.5 10.5 17.5ZM21.5 17.5C21.7967 17.5 22.0867 17.412 22.3334 17.2472C22.5801 17.0824 22.7723 16.8481 22.8859 16.574C22.9994 16.2999 23.0291 15.9983 22.9712 15.7074C22.9133 15.4164 22.7705 15.1491 22.5607 14.9393C22.3509 14.7296 22.0836 14.5867 21.7927 14.5288C21.5017 14.4709 21.2001 14.5006 20.926 14.6142C20.6519 14.7277 20.4177 14.92 20.2528 15.1666C20.088 15.4133 20 15.7033 20 16C20 16.3978 20.1581 16.7794 20.4394 17.0607C20.7207 17.342 21.1022 17.5 21.5 17.5ZM29 8V24C29 24.5304 28.7893 25.0391 28.4142 25.4142C28.0392 25.7893 27.5305 26 27 26H10.375L6.30003 29.52L6.28878 29.5287C5.92883 29.8339 5.47196 30.001 5.00003 30C4.70624 29.9994 4.41614 29.9345 4.15003 29.81C3.80487 29.6505 3.5129 29.395 3.30899 29.074C3.10507 28.7531 2.99782 28.3802 3.00003 28V8C3.00003 7.46957 3.21075 6.96086 3.58582 6.58579C3.96089 6.21071 4.4696 6 5.00003 6H27C27.5305 6 28.0392 6.21071 28.4142 6.58579C28.7893 6.96086 29 7.46957 29 8ZM27 8H5.00003V28L9.34628 24.25C9.52697 24.0906 9.75912 24.0019 10 24H27V8Z" fill="#343330"/>
</svg>
