<svg width="32" height="32" viewBox="0 0 32 32" fill="none" xmlns="http://www.w3.org/2000/svg">
<path d="M26 4H6C5.46957 4 4.96086 4.21071 4.58579 4.58579C4.21071 4.96086 4 5.46957 4 6V26C4 26.5304 4.21071 27.0391 4.58579 27.4142C4.96086 27.7893 5.46957 28 6 28H26C26.5304 28 27.0391 27.7893 27.4142 27.4142C27.7893 27.0391 28 26.5304 28 26V6C28 5.46957 27.7893 4.96086 27.4142 4.58579C27.0391 4.21071 26.5304 4 26 4ZM24.4137 15L17 7.58625V6H18.5863L26 13.415V15H24.4137ZM17 10.4137L21.5863 15H17V10.4137ZM26 10.5863L21.4137 6H26V10.5863ZM15 6V15H6V6H15ZM13.4137 26L6 18.5863V17H7.58625L15 24.4137V26H13.4137ZM15 21.5863L10.4137 17H15V21.5863ZM6 21.4137L10.5863 26H6V21.4137ZM26 26H17V17H26V26Z" fill="#343330"/>
</svg>
