<svg width="32" height="32" viewBox="0 0 32 32" fill="none" xmlns="http://www.w3.org/2000/svg">
<path d="M30.41 8.52998L27.41 5.58498C27.0352 5.21133 26.5275 5.00153 25.9982 5.00153C25.4689 5.00153 24.9612 5.21133 24.5863 5.58498L13 17.0287L8.41379 12.5787C8.03814 12.2063 7.53023 11.9978 7.00125 11.999C6.47227 12.0002 5.96529 12.2109 5.59129 12.585L2.59129 15.585C2.21688 15.96 2.00659 16.4682 2.00659 16.9981C2.00659 17.528 2.21688 18.0362 2.59129 18.4112L11.5438 27.4112C11.7295 27.597 11.95 27.7444 12.1927 27.8449C12.4354 27.9454 12.6955 27.9972 12.9582 27.9972C13.2208 27.9972 13.481 27.9454 13.7236 27.8449C13.9663 27.7444 14.1868 27.597 14.3725 27.4112L30.4163 11.3637C30.6024 11.1775 30.7499 10.9564 30.8503 10.713C30.9508 10.4696 31.0022 10.2088 31.0016 9.94555C31.001 9.68228 30.9485 9.4217 30.847 9.17878C30.7454 8.93587 30.597 8.71538 30.41 8.52998ZM12.9525 26L4.00004 17L7.00004 14C7.00368 14.003 7.00703 14.0063 7.01004 14.01L12.3038 19.1462C12.4907 19.3291 12.7417 19.4315 13.0032 19.4315C13.2646 19.4315 13.5157 19.3291 13.7025 19.1462L26.0075 6.99998L29 9.94998L12.9525 26Z" fill="#343330"/>
</svg>
