<svg width="32" height="32" viewBox="0 0 32 32" fill="none" xmlns="http://www.w3.org/2000/svg">
<path d="M23 4C22.9026 3.99975 22.8057 4.01407 22.7125 4.0425L2.7125 10.0425C2.50659 10.1043 2.32608 10.2308 2.19774 10.4033C2.0694 10.5758 2.00006 10.785 2 11V14C2 14.2652 2.10536 14.5196 2.29289 14.7071C2.48043 14.8946 2.73478 15 3 15H4C4.52301 15.0025 5.02448 15.2087 5.3979 15.5749C5.77133 15.9411 5.98732 16.4384 6 16.9613C6.00447 17.2233 5.95608 17.4835 5.85771 17.7264C5.75935 17.9693 5.61303 18.1899 5.4275 18.375C5.23175 18.5743 4.99835 18.7328 4.74085 18.8412C4.48335 18.9495 4.20688 19.0056 3.9275 19.0063H3C2.73478 19.0063 2.48043 19.1116 2.29289 19.2991C2.10536 19.4867 2 19.741 2 20.0063V24.0063C2 24.2715 2.10536 24.5258 2.29289 24.7134C2.48043 24.9009 2.73478 25.0063 3 25.0063H28C28.5304 25.0063 29.0391 24.7955 29.4142 24.4205C29.7893 24.0454 30 23.5367 30 23.0063V11C29.998 9.1441 29.2599 7.36477 27.9476 6.05245C26.6352 4.74012 24.8559 4.00199 23 4ZM23.14 6C24.2679 6.03308 25.3515 6.44611 26.2152 7.17214C27.079 7.89816 27.6722 8.89463 27.8988 10H9.81375L23.14 6ZM24 13C24.0004 13.4371 23.9052 13.8691 23.7212 14.2656C23.5372 14.6621 23.2687 15.0136 22.9346 15.2955C22.6005 15.5774 22.2089 15.7829 21.7871 15.8975C21.3652 16.0122 20.9235 16.0333 20.4926 15.9594C20.0618 15.8855 19.6523 15.7183 19.2929 15.4695C18.9334 15.2208 18.6326 14.8965 18.4116 14.5193C18.1906 14.1422 18.0547 13.7213 18.0134 13.2861C17.9721 12.8509 18.0264 12.412 18.1725 12H23.8275C23.9417 12.321 24 12.6593 24 13ZM11 23C11 22.2044 11.3161 21.4413 11.8787 20.8787C12.4413 20.3161 13.2044 20 14 20C14.7956 20 15.5587 20.3161 16.1213 20.8787C16.6839 21.4413 17 22.2044 17 23H11ZM28 23H19C19 21.6739 18.4732 20.4022 17.5355 19.4645C16.5979 18.5268 15.3261 18 14 18C12.6739 18 11.4021 18.5268 10.4645 19.4645C9.52678 20.4022 9 21.6739 9 23H4V21C5.07583 20.9777 6.10036 20.5358 6.855 19.7688C7.22725 19.3956 7.52048 18.9512 7.71721 18.4622C7.91393 17.9732 8.01011 17.4495 8 16.9225C7.97496 15.8767 7.54308 14.8818 6.79615 14.1494C6.04923 13.4169 5.04612 13.0046 4 13V12H16.1012C15.9528 12.7265 15.9678 13.477 16.1451 14.197C16.3225 14.917 16.6577 15.5885 17.1267 16.163C17.5956 16.7374 18.1864 17.2003 18.8563 17.5183C19.5262 17.8362 20.2585 18.0011 21 18.0011C21.7415 18.0011 22.4738 17.8362 23.1437 17.5183C23.8136 17.2003 24.4044 16.7374 24.8733 16.163C25.3423 15.5885 25.6775 14.917 25.8549 14.197C26.0322 13.477 26.0472 12.7265 25.8988 12H28V23Z" fill="#343330"/>
</svg>
