<svg width="32" height="32" viewBox="0 0 32 32" fill="none" xmlns="http://www.w3.org/2000/svg">
<path d="M26.7412 26.7425L24.535 27.3338L23.2325 22.4725C24.2627 21.9566 25.0835 21.1012 25.5565 20.0505C26.0294 18.9999 26.1256 17.8183 25.8288 16.705C24.2537 10.83 20.9813 5.67751 20.8425 5.46126C20.7296 5.28478 20.5641 5.14822 20.3695 5.07084C20.1748 4.99346 19.9607 4.97918 19.7575 5.03001L17.025 5.71376C17.025 4.68251 17.0025 4.03501 16.9988 3.95376C16.9888 3.73893 16.9098 3.53305 16.7736 3.36665C16.6374 3.20025 16.4511 3.08219 16.2425 3.03001L12.2425 2.03001C12.0393 1.97918 11.8252 1.99346 11.6305 2.07084C11.4359 2.14822 11.2704 2.28478 11.1575 2.46126C11.0188 2.67751 7.74625 7.82751 6.17125 13.7113C5.87442 14.8245 5.97059 16.0061 6.44353 17.0568C6.91648 18.1074 7.73728 18.9628 8.7675 19.4788L7.465 24.3338L5.25875 23.7425C5.00248 23.6739 4.72945 23.7099 4.49972 23.8426C4.26999 23.9752 4.10237 24.1937 4.03375 24.45C3.96513 24.7063 4.00111 24.9793 4.13379 25.209C4.26648 25.4388 4.48498 25.6064 4.74125 25.675L10.7413 27.2825C10.8257 27.3047 10.9127 27.316 11 27.3163C11.2428 27.3165 11.4774 27.2285 11.6601 27.0685C11.8427 26.9085 11.9609 26.6875 11.9926 26.4467C12.0243 26.206 11.9673 25.9619 11.8323 25.7601C11.6972 25.5583 11.4934 25.4126 11.2587 25.35L9.39625 24.85L10.6987 19.9888C10.8 19.995 10.9 19.9988 11 19.9988C11.9921 19.996 12.961 19.699 13.7843 19.1454C14.6076 18.5918 15.2482 17.8065 15.625 16.8888C15.7725 17.685 15.95 18.4913 16.1637 19.2913C16.4499 20.3552 17.0788 21.2951 17.9531 21.9656C18.8273 22.636 19.8982 22.9996 21 23C21.1 23 21.2 23 21.3013 22.99L22.6038 27.8513L20.7412 28.3513C20.5077 28.4147 20.3051 28.5607 20.171 28.7622C20.0369 28.9636 19.9804 29.2069 20.012 29.4468C20.0436 29.6867 20.1612 29.9071 20.3428 30.067C20.5245 30.2268 20.758 30.3154 21 30.3163C21.0873 30.316 21.1743 30.3047 21.2588 30.2825L27.2588 28.675C27.515 28.6064 27.7335 28.4388 27.8662 28.209C27.9989 27.9793 28.0349 27.7063 27.9662 27.45C27.8976 27.1937 27.73 26.9752 27.5003 26.8426C27.2705 26.7099 26.9975 26.6739 26.7412 26.7425ZM19.5275 7.14876C19.875 7.73626 20.4312 8.71626 21.0525 9.95626L17 10.9713C16.9475 9.72125 16.9525 8.69001 16.9688 7.99751C16.9688 7.92751 16.975 7.85751 16.9788 7.78751L19.5275 7.14876ZM12.4725 4.14876L15.0188 4.78501C15.0262 5.32001 15.0188 6.11876 14.9925 7.09376C14.985 7.24501 14.9725 7.49251 14.9637 7.82376C14.9637 7.94876 14.9513 8.07375 14.9438 8.19875L10.8363 7.17876C11.5 5.83376 12.105 4.77 12.4725 4.14876ZM13.8962 15.785C13.6813 16.5444 13.1757 17.1884 12.4892 17.5776C11.8026 17.9668 10.9903 18.0698 10.2284 17.8643C9.46641 17.6588 8.81612 17.1613 8.41843 16.4796C8.02074 15.7979 7.90768 14.987 8.10375 14.2225C8.59613 12.4446 9.22294 10.7067 9.97875 9.02376L14.8013 10.2288C14.633 12.1001 14.3305 13.957 13.8962 15.785ZM18.1012 18.775C17.6115 16.8814 17.2849 14.9493 17.125 13L21.9263 11.8C22.7241 13.5533 23.3824 15.3669 23.895 17.2238C24.0035 17.6063 24.0349 18.0067 23.9873 18.4015C23.9397 18.7963 23.8141 19.1777 23.6178 19.5235C23.4215 19.8693 23.1584 20.1727 22.8438 20.4159C22.5291 20.6591 22.1693 20.8373 21.7852 20.9402C21.4011 21.0432 21.0003 21.0687 20.6063 21.0153C20.2122 20.9619 19.8327 20.8308 19.4898 20.6294C19.1469 20.428 18.8474 20.1605 18.6088 19.8424C18.3702 19.5242 18.1973 19.1618 18.1 18.7763L18.1012 18.775ZM23.1012 5.44751C23.0424 5.32999 23.0073 5.20202 22.9979 5.07093C22.9886 4.93983 23.0051 4.80818 23.0467 4.68349C23.0883 4.55881 23.154 4.44354 23.2401 4.34427C23.3263 4.24501 23.4312 4.16371 23.5487 4.10501L25.5487 3.10501C25.6663 3.04624 25.7942 3.0112 25.9253 3.00188C26.0564 2.99257 26.188 3.00916 26.3127 3.05071C26.4373 3.09227 26.5526 3.15797 26.6519 3.24407C26.7511 3.33016 26.8325 3.43497 26.8913 3.55251C26.95 3.67004 26.9851 3.798 26.9944 3.92907C27.0037 4.06015 26.9871 4.19177 26.9455 4.31644C26.904 4.4411 26.8383 4.55636 26.7522 4.65563C26.6661 4.7549 26.5613 4.83624 26.4438 4.89501L24.4438 5.89501C24.3262 5.95386 24.1983 5.98897 24.0672 5.99833C23.9361 6.00769 23.8044 5.99111 23.6797 5.94955C23.555 5.90799 23.4398 5.84225 23.3405 5.75611C23.2413 5.66996 23.16 5.5651 23.1012 5.44751ZM29 9.00001C29 9.26522 28.8946 9.51958 28.7071 9.70711C28.5196 9.89465 28.2652 10 28 10H26C25.7348 10 25.4804 9.89465 25.2929 9.70711C25.1054 9.51958 25 9.26522 25 9.00001C25 8.73479 25.1054 8.48043 25.2929 8.2929C25.4804 8.10536 25.7348 8.00001 26 8.00001H28C28.2652 8.00001 28.5196 8.10536 28.7071 8.2929C28.8946 8.48043 29 8.73479 29 9.00001ZM4.105 2.55251C4.1637 2.43491 4.24501 2.33005 4.34427 2.2439C4.44353 2.15776 4.5588 2.09202 4.68349 2.05046C4.80817 2.0089 4.93983 1.99233 5.07092 2.00168C5.20202 2.01104 5.32998 2.04615 5.4475 2.10501L7.4475 3.10501C7.56503 3.16377 7.66984 3.24511 7.75594 3.34438C7.84203 3.44366 7.90774 3.55891 7.94929 3.68357C7.99085 3.80824 8.00744 3.93986 7.99812 4.07094C7.98881 4.20201 7.95377 4.32997 7.895 4.44751C7.83623 4.56504 7.75489 4.66985 7.65562 4.75594C7.55635 4.84204 7.44109 4.90774 7.31643 4.9493C7.06466 5.03322 6.78987 5.01369 6.5525 4.89501L4.5525 3.89501C4.43491 3.8363 4.33004 3.755 4.2439 3.65574C4.15775 3.55647 4.09202 3.4412 4.05046 3.31652C4.0089 3.19183 3.99232 3.06018 4.00168 2.92908C4.01104 2.79799 4.04615 2.67002 4.105 2.55251ZM5 9.00001H3C2.73478 9.00001 2.48043 8.89465 2.29289 8.70711C2.10536 8.51958 2 8.26522 2 8.00001C2 7.73479 2.10536 7.48043 2.29289 7.2929C2.48043 7.10536 2.73478 7.00001 3 7.00001H5C5.26522 7.00001 5.51957 7.10536 5.70711 7.2929C5.89464 7.48043 6 7.73479 6 8.00001C6 8.26522 5.89464 8.51958 5.70711 8.70711C5.51957 8.89465 5.26522 9.00001 5 9.00001Z" fill="#343330"/>
</svg>
