<svg width="32" height="32" viewBox="0 0 32 32" fill="none" xmlns="http://www.w3.org/2000/svg">
<path d="M30 14C29.998 12.1441 29.2599 10.3648 27.9476 9.05244C26.6353 7.74011 24.8559 7.00198 23 6.99999C22.7788 6.99999 22.5575 7.01249 22.3388 7.03249C21.7744 5.82784 20.8784 4.80897 19.7557 4.09521C18.6331 3.38146 17.3303 3.00238 16 3.00238C14.6697 3.00238 13.3669 3.38146 12.2443 4.09521C11.1217 4.80897 10.2257 5.82784 9.66127 7.03249C9.44252 7.01249 9.22127 6.99999 9.00002 6.99999C7.411 7.00038 5.86939 7.54139 4.62861 8.5341C3.38783 9.52681 2.52173 10.9121 2.17268 12.4624C1.82364 14.0126 2.01241 15.6354 2.70798 17.0641C3.40354 18.4928 4.56451 19.6423 6.00002 20.3237V26C6.00002 26.5304 6.21073 27.0391 6.58581 27.4142C6.96088 27.7893 7.46959 28 8.00002 28H24C24.5305 28 25.0392 27.7893 25.4142 27.4142C25.7893 27.0391 26 26.5304 26 26V20.3237C27.1959 19.755 28.2063 18.8592 28.9141 17.7401C29.622 16.6209 29.9985 15.3242 30 14ZM24 26H8.00002V20.9275C8.33117 20.9757 8.66537 21 9.00002 21H23C23.3347 21 23.6689 20.9757 24 20.9275V26ZM23 19H21.2813L21.97 16.2425C22.0293 15.987 21.9858 15.7185 21.8489 15.4948C21.7121 15.2711 21.4928 15.1101 21.2384 15.0465C20.984 14.9829 20.7148 15.0218 20.4887 15.1547C20.2627 15.2877 20.098 15.5042 20.03 15.7575L19.2188 19H17V16C17 15.7348 16.8947 15.4804 16.7071 15.2929C16.5196 15.1053 16.2652 15 16 15C15.7348 15 15.4804 15.1053 15.2929 15.2929C15.1054 15.4804 15 15.7348 15 16V19H12.7813L11.97 15.7575C11.94 15.6282 11.8846 15.5061 11.8069 15.3984C11.7293 15.2907 11.6309 15.1996 11.5177 15.1303C11.4044 15.061 11.2785 15.015 11.1473 14.9949C11.0161 14.9748 10.8821 14.981 10.7533 15.0132C10.6245 15.0454 10.5034 15.1029 10.3971 15.1824C10.2908 15.2619 10.2013 15.3618 10.134 15.4762C10.0667 15.5907 10.0228 15.7173 10.0049 15.8489C9.98709 15.9805 9.99562 16.1143 10.03 16.2425L10.7188 19H9.00002C7.67394 19 6.40217 18.4732 5.46449 17.5355C4.5268 16.5978 4.00002 15.3261 4.00002 14C4.00002 12.6739 4.5268 11.4021 5.46449 10.4645C6.40217 9.52677 7.67394 8.99999 9.00002 8.99999H9.07252C9.02414 9.33112 8.99991 9.66534 9.00002 9.99999C9.00002 10.2652 9.10538 10.5196 9.29291 10.7071C9.48045 10.8946 9.7348 11 10 11C10.2652 11 10.5196 10.8946 10.7071 10.7071C10.8947 10.5196 11 10.2652 11 9.99999C11 8.67391 11.5268 7.40214 12.4645 6.46446C13.4022 5.52677 14.6739 4.99999 16 4.99999C17.3261 4.99999 18.5979 5.52677 19.5356 6.46446C20.4732 7.40214 21 8.67391 21 9.99999C21 10.2652 21.1054 10.5196 21.2929 10.7071C21.4804 10.8946 21.7348 11 22 11C22.2652 11 22.5196 10.8946 22.7071 10.7071C22.8947 10.5196 23 10.2652 23 9.99999C23.0001 9.66534 22.9759 9.33112 22.9275 8.99999H23C24.3261 8.99999 25.5979 9.52677 26.5356 10.4645C27.4732 11.4021 28 12.6739 28 14C28 15.3261 27.4732 16.5978 26.5356 17.5355C25.5979 18.4732 24.3261 19 23 19Z" fill="#343330"/>
</svg>
