<svg width="32" height="32" viewBox="0 0 32 32" fill="none" xmlns="http://www.w3.org/2000/svg">
<path d="M22.0001 8.99999C21.676 9.0003 21.3522 9.01825 21.0301 9.05374C20.3271 7.85218 19.4114 6.78859 18.3276 5.91499C13.5976 2.09874 7.13131 2.97124 6.85881 3.00999C6.65816 3.03844 6.4709 3.12719 6.32182 3.26446C6.17275 3.40174 6.0689 3.58107 6.02403 3.77869C5.97917 3.97631 5.99541 4.1829 6.07059 4.37109C6.14578 4.55928 6.27637 4.72018 6.44506 4.83249C8.63256 6.28999 9.63381 8.70749 10.0513 11.05C8.59393 11.202 7.19571 11.7076 5.97813 12.5228C4.76054 13.338 3.76041 14.4382 3.06462 15.7278C2.36883 17.0173 1.99842 18.4573 1.98558 19.9225C1.97273 21.3877 2.31783 22.8339 2.9909 24.1355C3.66397 25.437 4.64466 26.5546 5.84776 27.391C7.05087 28.2274 8.44 28.7575 9.89449 28.9351C11.349 29.1126 12.8248 28.9324 14.1938 28.41C15.5628 27.8876 16.7836 27.0389 17.7501 25.9375C18.9563 26.5822 20.2936 26.9434 21.6604 26.9939C23.0272 27.0443 24.3874 26.7826 25.6379 26.2285C26.8884 25.6745 27.9961 24.8428 28.877 23.7965C29.7579 22.7502 30.3887 21.517 30.7216 20.1904C31.0545 18.8638 31.0806 17.4788 30.7981 16.1406C30.5155 14.8024 29.9317 13.5462 29.0909 12.4674C28.2501 11.3887 27.1745 10.5157 25.9459 9.91489C24.7172 9.31407 23.3678 9.00118 22.0001 8.99999ZM9.50006 4.92124C11.5838 5.01124 14.6551 5.51874 17.0801 7.48124C17.803 8.06804 18.4349 8.7589 18.9551 9.53124C17.5221 10.0478 16.2433 10.9186 15.2376 12.0625C14.2577 11.5357 13.1882 11.1965 12.0838 11.0625C11.6926 8.57374 10.8201 6.49999 9.50006 4.92124ZM11.0001 27C9.20657 26.9991 7.48185 26.3098 6.18173 25.0744C4.88162 23.8389 4.10529 22.1516 4.01293 20.3605C3.92057 18.5694 4.51922 16.8111 5.68536 15.4485C6.8515 14.0859 8.49617 13.2229 10.2801 13.0375C10.3528 14.3336 10.3109 15.6337 10.1551 16.9225C9.20755 16.7437 8.73631 16.3162 8.71131 16.2975C8.6184 16.2046 8.50809 16.1309 8.3867 16.0806C8.26531 16.0303 8.1352 16.0044 8.00381 16.0044C7.87241 16.0044 7.7423 16.0303 7.62091 16.0806C7.49952 16.1309 7.38922 16.2046 7.29631 16.2975C7.20339 16.3904 7.12969 16.5007 7.07941 16.6221C7.02913 16.7435 7.00325 16.8736 7.00325 17.005C7.00325 17.1364 7.02913 17.2665 7.07941 17.3879C7.12969 17.5093 7.20339 17.6196 7.29631 17.7125C7.42506 17.8387 8.65005 19 10.9901 19H11.0213C13.3538 18.9937 14.5751 17.84 14.7076 17.7087C14.8005 17.6158 14.8742 17.5055 14.9244 17.3841C14.9747 17.2627 15.0006 17.1326 15.0006 17.0012C15.0006 16.8698 14.9747 16.7397 14.9244 16.6183C14.8742 16.4969 14.8005 16.3866 14.7076 16.2937C14.6146 16.2008 14.5043 16.1271 14.383 16.0768C14.2616 16.0266 14.1315 16.0007 14.0001 16.0007C13.8687 16.0007 13.7386 16.0266 13.6172 16.0768C13.4958 16.1271 13.3855 16.2008 13.2926 16.2937C12.9671 16.5606 12.5855 16.7503 12.1763 16.8487C12.3123 15.6124 12.3512 14.3674 12.2926 13.125C14.0014 13.4523 15.5272 14.4043 16.5723 15.7953C17.6174 17.1864 18.107 18.9169 17.9456 20.6493C17.7843 22.3817 16.9835 23.992 15.6994 25.1661C14.4153 26.3402 12.74 26.994 11.0001 27ZM18.1251 14.5137C17.76 14.04 17.3488 13.6037 16.8976 13.2112C17.7264 12.3291 18.7694 11.6763 19.9251 11.3162C20.3974 12.4502 20.7169 13.6418 20.8751 14.86C20.1138 14.66 19.7301 14.3137 19.7088 14.2925C19.5994 14.1825 19.4659 14.0996 19.3188 14.0501C19.1718 14.0006 19.0153 13.9861 18.8617 14.0075C18.708 14.029 18.5615 14.0859 18.4337 14.1738C18.3058 14.2616 18.2002 14.378 18.1251 14.5137ZM22.0001 25C20.93 25.0013 19.8739 24.7562 18.9138 24.2837C19.5697 23.0746 19.939 21.7309 19.9931 20.3564C20.0473 18.9819 19.785 17.6133 19.2263 16.3562C20.0725 16.7863 21.0096 17.0071 21.9588 17H22.0001C24.3463 17 25.5751 15.84 25.7076 15.7075C25.8005 15.6146 25.8742 15.5043 25.9244 15.3829C25.9747 15.2615 26.0006 15.1314 26.0006 15C26.0006 14.8686 25.9747 14.7385 25.9244 14.6171C25.8742 14.4957 25.8005 14.3854 25.7076 14.2925C25.6146 14.1996 25.5043 14.1259 25.383 14.0756C25.2616 14.0253 25.1315 13.9994 25.0001 13.9994C24.8687 13.9994 24.7386 14.0253 24.6172 14.0756C24.4958 14.1259 24.3855 14.1996 24.2926 14.2925C24.2688 14.3162 23.8126 14.7287 22.8988 14.9175C22.7483 13.5782 22.4339 12.2626 21.9626 11H22.0001C23.8566 11 25.637 11.7375 26.9498 13.0502C28.2626 14.363 29.0001 16.1435 29.0001 18C29.0001 19.8565 28.2626 21.637 26.9498 22.9497C25.637 24.2625 23.8566 25 22.0001 25Z" fill="#343330"/>
</svg>
