<svg width="32" height="32" viewBox="0 0 32 32" fill="none" xmlns="http://www.w3.org/2000/svg">
<path d="M25.125 7.51001C26.125 5.73126 26.0525 4.79626 25.92 4.39626C25.862 4.20542 25.7468 4.037 25.59 3.91376C25.4694 3.86081 25.3604 3.78456 25.2694 3.68938C25.1783 3.59421 25.107 3.48198 25.0594 3.35915C25.0119 3.23632 24.989 3.1053 24.9923 2.97363C24.9955 2.84195 25.0247 2.71221 25.0782 2.59185C25.1317 2.4715 25.2085 2.3629 25.3041 2.27229C25.3997 2.18169 25.5122 2.11086 25.6353 2.06388C25.7584 2.0169 25.8895 1.99469 26.0211 1.99853C26.1528 2.00237 26.2824 2.03219 26.4025 2.08626C26.7387 2.25745 27.0372 2.49433 27.2802 2.7829C27.5233 3.07146 27.706 3.40584 27.8175 3.76626C28.2375 5.03376 27.9188 6.62251 26.8675 8.49001C25.8675 10.2688 25.94 11.205 26.0725 11.605C26.1307 11.7954 26.2459 11.9633 26.4025 12.0863C26.5231 12.1392 26.6321 12.2155 26.7231 12.3106C26.8142 12.4058 26.8855 12.518 26.9331 12.6409C26.9806 12.7637 27.0034 12.8947 27.0002 13.0264C26.997 13.1581 26.9678 13.2878 26.9143 13.4082C26.8608 13.5285 26.784 13.6371 26.6884 13.7277C26.5928 13.8183 26.4803 13.8892 26.3572 13.9361C26.2341 13.9831 26.103 14.0053 25.9714 14.0015C25.8397 13.9976 25.7101 13.9678 25.59 13.9138C25.2536 13.7428 24.955 13.506 24.712 13.2174C24.4689 12.9288 24.2863 12.5943 24.175 12.2338C23.7587 10.9663 24.0775 9.37501 25.125 7.51001ZM19.175 12.2338C19.2863 12.5943 19.4689 12.9288 19.712 13.2174C19.955 13.506 20.2536 13.7428 20.59 13.9138C20.7101 13.9678 20.8397 13.9976 20.9714 14.0015C21.103 14.0053 21.2341 13.9831 21.3572 13.9361C21.4803 13.8892 21.5928 13.8183 21.6884 13.7277C21.784 13.6371 21.8608 13.5285 21.9143 13.4082C21.9678 13.2878 21.997 13.1581 22.0002 13.0264C22.0034 12.8947 21.9806 12.7637 21.9331 12.6409C21.8855 12.518 21.8142 12.4058 21.7231 12.3106C21.6321 12.2155 21.5231 12.1392 21.4025 12.0863C21.2459 11.9633 21.1307 11.7954 21.0725 11.605C20.94 11.205 20.8675 10.2688 21.8675 8.49001C22.9188 6.62251 23.2425 5.03376 22.8175 3.76626C22.706 3.40584 22.5233 3.07146 22.2802 2.7829C22.0372 2.49433 21.7387 2.25745 21.4025 2.08626C21.2824 2.03219 21.1528 2.00237 21.0211 1.99853C20.8895 1.99469 20.7584 2.0169 20.6353 2.06388C20.5122 2.11086 20.3997 2.18169 20.3041 2.27229C20.2085 2.3629 20.1317 2.4715 20.0782 2.59185C20.0247 2.71221 19.9955 2.84195 19.9923 2.97363C19.989 3.1053 20.0119 3.23632 20.0594 3.35915C20.107 3.48198 20.1783 3.59421 20.2694 3.68938C20.3604 3.78456 20.4694 3.86081 20.59 3.91376C20.7468 4.037 20.862 4.20542 20.92 4.39626C21.0525 4.79626 21.125 5.73126 20.125 7.51001C19.0775 9.37501 18.7587 10.9663 19.1787 12.2338H19.175ZM26.7362 26.3275C26.8264 26.4244 26.8965 26.5382 26.9423 26.6623C26.9882 26.7864 27.009 26.9184 27.0034 27.0506C26.9979 27.1828 26.9662 27.3126 26.9101 27.4325C26.8541 27.5524 26.7748 27.6599 26.6769 27.7489C26.5789 27.8379 26.4643 27.9066 26.3396 27.951C26.215 27.9954 26.0827 28.0145 25.9506 28.0074C25.8185 28.0003 25.689 27.9671 25.5698 27.9096C25.4507 27.8521 25.3441 27.7715 25.2563 27.6725L21.9212 24H4C3.46957 24 2.96086 23.7893 2.58579 23.4142C2.21071 23.0391 2 22.5304 2 22V18C2 17.4696 2.21071 16.9609 2.58579 16.5858C2.96086 16.2107 3.46957 16 4 16H14.6488L5.26 5.67251C5.16983 5.57565 5.09979 5.46186 5.05392 5.33773C5.00806 5.2136 4.98728 5.08161 4.99281 4.94939C4.99833 4.81718 5.03004 4.68737 5.0861 4.5675C5.14216 4.44763 5.22146 4.34008 5.31939 4.25108C5.41732 4.16208 5.53194 4.09341 5.65661 4.04903C5.78128 4.00466 5.91352 3.98547 6.04566 3.99258C6.1778 3.99969 6.30721 4.03295 6.4264 4.09045C6.54559 4.14794 6.65218 4.22852 6.74 4.32751L26.7362 26.3275ZM4 22H10V18H4V22ZM20.1025 22L16.4662 18H12V22H20.1025ZM28 16H22.315C22.0498 16 21.7954 16.1054 21.6079 16.2929C21.4204 16.4804 21.315 16.7348 21.315 17C21.315 17.2652 21.4204 17.5196 21.6079 17.7071C21.7954 17.8947 22.0498 18 22.315 18H28V22H27.77C27.5048 22 27.2504 22.1054 27.0629 22.2929C26.8754 22.4804 26.77 22.7348 26.77 23C26.77 23.2652 26.8754 23.5196 27.0629 23.7071C27.2504 23.8947 27.5048 24 27.77 24H28C28.5304 24 29.0391 23.7893 29.4142 23.4142C29.7893 23.0391 30 22.5304 30 22V18C30 17.4696 29.7893 16.9609 29.4142 16.5858C29.0391 16.2107 28.5304 16 28 16Z" fill="#343330"/>
</svg>
