<svg width="32" height="32" viewBox="0 0 32 32" fill="none" xmlns="http://www.w3.org/2000/svg">
<path d="M28 16H4C3.46957 16 2.96086 16.2107 2.58579 16.5858C2.21071 16.9609 2 17.4696 2 18V22C2 22.5304 2.21071 23.0391 2.58579 23.4142C2.96086 23.7893 3.46957 24 4 24H28C28.5304 24 29.0391 23.7893 29.4142 23.4142C29.7893 23.0391 30 22.5304 30 22V18C30 17.4696 29.7893 16.9609 29.4142 16.5858C29.0391 16.2107 28.5304 16 28 16ZM4 18H10V22H4V18ZM28 22H12V18H28V22ZM25.125 7.51001C26.125 5.73126 26.0525 4.79626 25.92 4.39626C25.862 4.20542 25.7468 4.037 25.59 3.91376C25.4694 3.86081 25.3604 3.78456 25.2694 3.68938C25.1783 3.59421 25.107 3.48198 25.0594 3.35915C25.0119 3.23632 24.989 3.1053 24.9923 2.97363C24.9955 2.84195 25.0247 2.71221 25.0782 2.59185C25.1317 2.4715 25.2085 2.3629 25.3041 2.27229C25.3997 2.18169 25.5122 2.11086 25.6353 2.06388C25.7584 2.0169 25.8895 1.99469 26.0211 1.99853C26.1528 2.00237 26.2824 2.03219 26.4025 2.08626C26.7387 2.25745 27.0372 2.49433 27.2802 2.7829C27.5233 3.07146 27.706 3.40584 27.8175 3.76626C28.2375 5.03376 27.9188 6.62251 26.8675 8.49001C25.8675 10.2688 25.94 11.205 26.0725 11.6038C26.1305 11.7946 26.2457 11.963 26.4025 12.0863C26.5231 12.1392 26.6321 12.2155 26.7231 12.3106C26.8142 12.4058 26.8855 12.518 26.9331 12.6409C26.9806 12.7637 27.0034 12.8947 27.0002 13.0264C26.997 13.1581 26.9678 13.2878 26.9143 13.4082C26.8608 13.5285 26.784 13.6371 26.6884 13.7277C26.5928 13.8183 26.4803 13.8892 26.3572 13.9361C26.2341 13.9831 26.103 14.0053 25.9714 14.0015C25.8397 13.9976 25.7101 13.9678 25.59 13.9138C25.2538 13.7426 24.9553 13.5057 24.7123 13.2171C24.4692 12.9286 24.2865 12.5942 24.175 12.2338C23.7587 10.9663 24.0775 9.37501 25.125 7.51001ZM20.125 7.51001C21.125 5.73126 21.0525 4.79626 20.92 4.39626C20.862 4.20542 20.7468 4.037 20.59 3.91376C20.4694 3.86081 20.3604 3.78456 20.2694 3.68938C20.1783 3.59421 20.107 3.48198 20.0594 3.35915C20.0119 3.23632 19.989 3.1053 19.9923 2.97363C19.9955 2.84195 20.0247 2.71221 20.0782 2.59185C20.1317 2.4715 20.2085 2.3629 20.3041 2.27229C20.3997 2.18169 20.5122 2.11086 20.6353 2.06388C20.7584 2.0169 20.8895 1.99469 21.0211 1.99853C21.1528 2.00237 21.2824 2.03219 21.4025 2.08626C21.7387 2.25745 22.0372 2.49433 22.2802 2.7829C22.5233 3.07146 22.706 3.40584 22.8175 3.76626C23.2375 5.03376 22.9188 6.62251 21.8675 8.49001C20.8675 10.2688 20.94 11.205 21.0725 11.6038C21.1305 11.7946 21.2457 11.963 21.4025 12.0863C21.5231 12.1392 21.6321 12.2155 21.7231 12.3106C21.8142 12.4058 21.8855 12.518 21.9331 12.6409C21.9806 12.7637 22.0034 12.8947 22.0002 13.0264C21.997 13.1581 21.9678 13.2878 21.9143 13.4082C21.8608 13.5285 21.784 13.6371 21.6884 13.7277C21.5928 13.8183 21.4803 13.8892 21.3572 13.9361C21.2341 13.9831 21.103 14.0053 20.9714 14.0015C20.8397 13.9976 20.7101 13.9678 20.59 13.9138C20.2538 13.7426 19.9553 13.5057 19.7123 13.2171C19.4692 12.9286 19.2865 12.5942 19.175 12.2338C18.7587 10.9663 19.0775 9.37501 20.125 7.51001Z" fill="#343330"/>
</svg>
