<svg width="32" height="32" viewBox="0 0 32 32" fill="none" xmlns="http://www.w3.org/2000/svg">
<path d="M25.1925 6.80754C22.7545 4.36953 19.4478 2.99988 16 2.99988C12.5521 2.99988 9.24548 4.36953 6.80748 6.80754C4.36947 9.24554 2.99982 12.5522 2.99982 16C2.99982 19.4479 4.36947 22.7545 6.80747 25.1925C9.24548 27.6305 12.5521 29.0002 16 29.0002C19.4478 29.0002 22.7545 27.6305 25.1925 25.1925C27.6305 22.7545 29.0001 19.4479 29.0001 16C29.0001 12.5522 27.6305 9.24554 25.1925 6.80754ZM23 24.4838C22.3835 24.9934 21.7128 25.4335 21 25.7963V12.4138L23 10.4138V24.4838ZM13 20.4138L15 18.4138V26.9488C14.3232 26.8856 13.6537 26.7601 13 26.5738V20.4138ZM11 25.7963C10.2725 25.4258 9.589 24.9747 8.96247 24.4513L11 22.4138V25.7963ZM17 16.4138L19 14.4138V26.5788C18.3463 26.7651 17.6768 26.8906 17 26.9538V16.4138ZM4.99997 16C5.00054 13.9101 5.59649 11.8635 6.71806 10.0999C7.83963 8.33639 9.44039 6.92886 11.3329 6.04213C13.2255 5.1554 15.3315 4.82618 17.4044 5.09301C19.4772 5.35984 21.4312 6.21167 23.0375 7.54879L7.54747 23.0388C5.89536 21.0661 4.99312 18.5732 4.99997 16ZM25 22.3238V9.67629C26.3012 11.5283 26.9994 13.7366 26.9994 16C26.9994 18.2635 26.3012 20.4718 25 22.3238Z" fill="#343330"/>
</svg>
