<svg width="32" height="32" viewBox="0 0 32 32" fill="none" xmlns="http://www.w3.org/2000/svg">
<path d="M29 15.9999C29 19.4478 27.6304 22.7544 25.1924 25.1923C22.7544 27.6303 19.4478 28.9999 16 28.9999C12.5522 28.9999 9.24558 27.6303 6.80761 25.1923C4.36964 22.7544 3 19.4478 3 15.9999C3 10.8749 5.97625 6.20494 10.5825 4.09119C10.7018 4.03637 10.8308 4.00558 10.962 4.0006C11.0933 3.99561 11.2242 4.01653 11.3474 4.06214C11.4705 4.10776 11.5835 4.17719 11.6798 4.26646C11.7761 4.35573 11.8539 4.46311 11.9087 4.58244C11.9636 4.70178 11.9944 4.83075 11.9993 4.96199C12.0043 5.09322 11.9834 5.22416 11.9378 5.34731C11.8922 5.47046 11.8228 5.58343 11.7335 5.67975C11.6442 5.77607 11.5368 5.85387 11.4175 5.90869C7.51875 7.69869 5 11.6587 5 15.9999C5 18.9173 6.15893 21.7152 8.22183 23.7781C10.2847 25.841 13.0826 26.9999 16 26.9999C18.9174 26.9999 21.7153 25.841 23.7782 23.7781C25.8411 21.7152 27 18.9173 27 15.9999C27 11.6587 24.4813 7.69869 20.5825 5.90869C20.3415 5.79797 20.1543 5.59603 20.0622 5.34731C19.9701 5.09859 19.9805 4.82346 20.0912 4.58244C20.202 4.34143 20.4039 4.15427 20.6526 4.06214C20.9014 3.97002 21.1765 3.98047 21.4175 4.09119C26.0238 6.20494 29 10.8749 29 15.9999Z" fill="#343330"/>
</svg>
