<svg width="32" height="32" viewBox="0 0 32 32" fill="none" xmlns="http://www.w3.org/2000/svg">
<path d="M25 3.99994H20.4675C19.9056 3.37085 19.2172 2.86751 18.4473 2.52289C17.6775 2.17826 16.8435 2.00012 16 2.00012C15.1565 2.00012 14.3225 2.17826 13.5527 2.52289C12.7828 2.86751 12.0944 3.37085 11.5325 3.99994H7C6.46957 3.99994 5.96086 4.21065 5.58579 4.58573C5.21071 4.9608 5 5.46951 5 5.99994V26.9999C5 27.5304 5.21071 28.0391 5.58579 28.4142C5.96086 28.7892 6.46957 28.9999 7 28.9999H25C25.5304 28.9999 26.0391 28.7892 26.4142 28.4142C26.7893 28.0391 27 27.5304 27 26.9999V5.99994C27 5.46951 26.7893 4.9608 26.4142 4.58573C26.0391 4.21065 25.5304 3.99994 25 3.99994ZM16 3.99994C17.0609 3.99994 18.0783 4.42137 18.8284 5.17151C19.5786 5.92166 20 6.93907 20 7.99994H12C12 6.93907 12.4214 5.92166 13.1716 5.17151C13.9217 4.42137 14.9391 3.99994 16 3.99994ZM25 26.9999H7V5.99994H10.3438C10.1163 6.64221 10 7.31858 10 7.99994V8.99994C10 9.26516 10.1054 9.51951 10.2929 9.70705C10.4804 9.89458 10.7348 9.99994 11 9.99994H21C21.2652 9.99994 21.5196 9.89458 21.7071 9.70705C21.8946 9.51951 22 9.26516 22 8.99994V7.99994C22 7.31858 21.8837 6.64221 21.6562 5.99994H25V26.9999Z" fill="#343330"/>
</svg>
