<svg width="32" height="32" viewBox="0 0 32 32" fill="none" xmlns="http://www.w3.org/2000/svg">
<path d="M17 9.00001V14.3813L21.5525 12.105C21.7897 11.9863 22.0643 11.9667 22.316 12.0505C22.5676 12.1343 22.7757 12.3147 22.8944 12.5519C23.0131 12.7891 23.0327 13.0637 22.9489 13.3154C22.865 13.567 22.6847 13.7751 22.4475 13.8938L16.4475 16.8938C16.2951 16.97 16.1257 17.0061 15.9554 16.9985C15.7852 16.9909 15.6197 16.9399 15.4746 16.8503C15.3296 16.7608 15.2099 16.6357 15.1268 16.4869C15.0437 16.338 15.0001 16.1704 15 16V9.00001C15 8.73479 15.1054 8.48044 15.2929 8.2929C15.4804 8.10536 15.7348 8.00001 16 8.00001C16.2652 8.00001 16.5196 8.10536 16.7071 8.2929C16.8946 8.48044 17 8.73479 17 9.00001ZM16 27C13.8244 27 11.6977 26.3549 9.88873 25.1462C8.07979 23.9375 6.66989 22.2195 5.83733 20.2095C5.00477 18.1995 4.78693 15.9878 5.21137 13.854C5.63581 11.7202 6.68345 9.76021 8.22183 8.22183C9.76021 6.68345 11.7202 5.63581 13.854 5.21137C15.9878 4.78693 18.1995 5.00477 20.2095 5.83733C22.2195 6.66989 23.9375 8.07979 25.1462 9.88873C26.3549 11.6977 27 13.8244 27 16C27 16.2652 27.1054 16.5196 27.2929 16.7071C27.4804 16.8946 27.7348 17 28 17C28.2652 17 28.5196 16.8946 28.7071 16.7071C28.8946 16.5196 29 16.2652 29 16C29 13.4288 28.2376 10.9154 26.8091 8.77759C25.3807 6.63975 23.3503 4.97351 20.9749 3.98957C18.5995 3.00563 15.9856 2.74819 13.4638 3.2498C10.9421 3.75141 8.6257 4.98953 6.80762 6.80762C4.98953 8.6257 3.75141 10.9421 3.2498 13.4638C2.74819 15.9856 3.00563 18.5995 3.98957 20.9749C4.97351 23.3503 6.63975 25.3807 8.77759 26.8091C10.9154 28.2376 13.4288 29 16 29C16.2652 29 16.5196 28.8946 16.7071 28.7071C16.8946 28.5196 17 28.2652 17 28C17 27.7348 16.8946 27.4804 16.7071 27.2929C16.5196 27.1054 16.2652 27 16 27ZM28.9663 27.7425C29.0029 27.8703 29.0137 28.0041 28.998 28.1362C28.9823 28.2682 28.9404 28.3958 28.8749 28.5114C28.8093 28.6271 28.7213 28.7285 28.616 28.8097C28.5108 28.891 28.3904 28.9504 28.2619 28.9846C28.1334 29.0187 27.9994 29.0269 27.8677 29.0087C27.736 28.9904 27.6093 28.9461 27.4949 28.8783C27.3806 28.8104 27.2809 28.7205 27.2017 28.6137C27.1225 28.5069 27.0654 28.3854 27.0338 28.2563C26.68 26.9275 25.4325 26 24 26C22.5675 26 21.32 26.9275 20.9663 28.2563C20.9097 28.4694 20.7844 28.6579 20.6096 28.7924C20.4349 28.927 20.2205 28.9999 20 29C19.9131 28.9998 19.8265 28.9884 19.7425 28.9663C19.4862 28.898 19.2676 28.7307 19.1347 28.5012C19.0018 28.2717 18.9655 27.9988 19.0338 27.7425C19.3581 26.5381 20.1209 25.4984 21.1725 24.8275C20.6127 24.2683 20.2313 23.5555 20.0766 22.7795C19.9219 22.0035 20.0008 21.199 20.3034 20.4678C20.6061 19.7366 21.1188 19.1117 21.7766 18.672C22.4345 18.2322 23.2081 17.9975 23.9994 17.9975C24.7907 17.9975 25.5642 18.2322 26.2221 18.672C26.88 19.1117 27.3927 19.7366 27.6953 20.4678C27.9979 21.199 28.0769 22.0035 27.9222 22.7795C27.7675 23.5555 27.3861 24.2683 26.8263 24.8275C27.8783 25.4982 28.6416 26.5379 28.9663 27.7425ZM22 22C22 22.3956 22.1173 22.7822 22.3371 23.1111C22.5568 23.44 22.8692 23.6964 23.2346 23.8478C23.6001 23.9991 24.0022 24.0387 24.3902 23.9616C24.7781 23.8844 25.1345 23.6939 25.4142 23.4142C25.6939 23.1345 25.8844 22.7781 25.9616 22.3902C26.0387 22.0022 25.9991 21.6001 25.8478 21.2346C25.6964 20.8692 25.44 20.5568 25.1111 20.3371C24.7822 20.1173 24.3956 20 24 20C23.4696 20 22.9609 20.2107 22.5858 20.5858C22.2107 20.9609 22 21.4696 22 22Z" fill="#343330"/>
</svg>
