<svg width="32" height="32" viewBox="0 0 32 32" fill="none" xmlns="http://www.w3.org/2000/svg">
<path d="M17 10V15.4338L21.515 18.1425C21.7424 18.2791 21.9063 18.5004 21.9705 18.7578C22.0348 19.0152 21.9941 19.2876 21.8575 19.515C21.7209 19.7424 21.4996 19.9063 21.2422 19.9705C20.9848 20.0347 20.7124 19.9941 20.485 19.8575L15.485 16.8575C15.337 16.7686 15.2146 16.6429 15.1296 16.4926C15.0446 16.3424 15 16.1727 15 16V10C15 9.7348 15.1054 9.48044 15.2929 9.29291C15.4804 9.10537 15.7348 9.00001 16 9.00001C16.2652 9.00001 16.5196 9.10537 16.7071 9.29291C16.8947 9.48044 17 9.7348 17 10ZM28 7.00001C27.7348 7.00001 27.4804 7.10537 27.2929 7.29291C27.1054 7.48044 27 7.7348 27 8.00001V10.25C26.2063 9.33001 25.3963 8.44376 24.485 7.52126C22.8173 5.85339 20.6951 4.71396 18.3836 4.24533C16.072 3.7767 13.6736 3.99966 11.488 4.88635C9.30242 5.77303 7.42661 7.28413 6.09493 9.23082C4.76326 11.1775 4.03479 13.4735 4.00053 15.8318C3.96628 18.1901 4.62777 20.5063 5.90234 22.4908C7.17692 24.4754 9.00805 26.0403 11.167 26.9901C13.3259 27.9399 15.7168 28.2324 18.041 27.8311C20.3652 27.4298 22.5196 26.3525 24.235 24.7338C24.3306 24.6435 24.4074 24.5353 24.4611 24.4153C24.5148 24.2953 24.5444 24.1659 24.5481 24.0345C24.5518 23.9032 24.5296 23.7723 24.4827 23.6495C24.4359 23.5267 24.3653 23.4143 24.275 23.3188C24.1847 23.2232 24.0765 23.1464 23.9565 23.0927C23.8366 23.039 23.7072 23.0094 23.5758 23.0057C23.4444 23.002 23.3136 23.0242 23.1908 23.071C23.0679 23.1179 22.9556 23.1885 22.86 23.2788C21.4301 24.6264 19.6348 25.5228 17.6984 25.8562C15.762 26.1896 13.7703 25.9452 11.972 25.1534C10.1737 24.3617 8.64854 23.0577 7.58691 21.4043C6.52527 19.7509 5.97426 17.8214 6.00266 15.8567C6.03106 13.892 6.63762 11.9792 7.7466 10.3572C8.85559 8.73522 10.4178 7.47585 12.2383 6.7364C14.0587 5.99695 16.0566 5.81018 17.9826 6.19942C19.9085 6.58865 21.6771 7.53665 23.0675 8.92501C24.085 9.95501 24.9763 10.9475 25.875 12H23C22.7348 12 22.4804 12.1054 22.2929 12.2929C22.1054 12.4804 22 12.7348 22 13C22 13.2652 22.1054 13.5196 22.2929 13.7071C22.4804 13.8947 22.7348 14 23 14H28C28.2652 14 28.5196 13.8947 28.7071 13.7071C28.8947 13.5196 29 13.2652 29 13V8.00001C29 7.7348 28.8947 7.48044 28.7071 7.29291C28.5196 7.10537 28.2652 7.00001 28 7.00001Z" fill="#343330"/>
</svg>
