<svg width="32" height="32" viewBox="0 0 32 32" fill="none" xmlns="http://www.w3.org/2000/svg">
<path d="M28.9999 17.0825C28.7875 19.5525 27.874 21.9104 26.367 23.8788C24.86 25.8473 22.8221 27.3444 20.4932 28.194C18.1642 29.0436 15.641 29.2103 13.2205 28.6746C10.8 28.139 8.58281 26.9231 6.82983 25.1701C5.07685 23.4171 3.86099 21.2 3.3253 18.7794C2.78962 16.3589 2.95638 13.8358 3.80598 11.5068C4.65558 9.17784 6.15267 7.13997 8.12112 5.63296C10.0896 4.12594 12.4475 3.21247 14.9174 3.00001C15.0488 2.98918 15.1809 3.00431 15.3064 3.04456C15.4319 3.0848 15.5482 3.14937 15.6487 3.23457C15.7492 3.31976 15.832 3.42393 15.8923 3.54111C15.9525 3.65829 15.9891 3.78619 15.9999 3.91751C16.0108 4.04883 15.9956 4.181 15.9554 4.30647C15.9151 4.43194 15.8506 4.54826 15.7654 4.64878C15.6802 4.7493 15.576 4.83205 15.4588 4.89232C15.3417 4.95258 15.2138 4.98918 15.0824 5.00001C12.9919 5.17963 10.9962 5.95259 9.33008 7.22796C7.66396 8.50333 6.39677 10.228 5.6776 12.1992C4.95843 14.1703 4.81721 16.3058 5.27055 18.3545C5.72389 20.4031 6.75293 22.2797 8.2366 23.7634C9.72026 25.247 11.5968 26.2761 13.6455 26.7294C15.6941 27.1827 17.8297 27.0415 19.8008 26.3224C21.7719 25.6032 23.4966 24.336 24.772 22.6699C26.0474 21.0038 26.8203 19.008 26.9999 16.9175C27.0218 16.6523 27.1482 16.4066 27.3512 16.2346C27.5542 16.0625 27.8172 15.9781 28.0824 16C28.3477 16.0219 28.5933 16.1482 28.7654 16.3512C28.9375 16.5542 29.0218 16.8173 28.9999 17.0825ZM14.9999 9.00001V16C14.9999 16.2652 15.1053 16.5196 15.2928 16.7071C15.4804 16.8947 15.7347 17 15.9999 17H22.9999C23.2652 17 23.5195 16.8947 23.7071 16.7071C23.8946 16.5196 23.9999 16.2652 23.9999 16C23.9999 15.7348 23.8946 15.4804 23.7071 15.2929C23.5195 15.1054 23.2652 15 22.9999 15H16.9999V9.00001C16.9999 8.73479 16.8946 8.48044 16.7071 8.2929C16.5195 8.10537 16.2652 8.00001 15.9999 8.00001C15.7347 8.00001 15.4804 8.10537 15.2928 8.2929C15.1053 8.48044 14.9999 8.73479 14.9999 9.00001ZM19.9999 6.00001C20.2966 6.00001 20.5866 5.91204 20.8333 5.74721C21.08 5.58239 21.2722 5.34812 21.3858 5.07404C21.4993 4.79995 21.529 4.49835 21.4711 4.20737C21.4132 3.9164 21.2704 3.64913 21.0606 3.43935C20.8508 3.22957 20.5835 3.08671 20.2926 3.02883C20.0016 2.97095 19.7 3.00066 19.4259 3.11419C19.1518 3.22772 18.9176 3.41998 18.7527 3.66665C18.5879 3.91333 18.4999 4.20334 18.4999 4.50001C18.4999 4.89783 18.658 5.27937 18.9393 5.56067C19.2206 5.84197 19.6021 6.00001 19.9999 6.00001ZM24.4999 9.00001C24.7966 9.00001 25.0866 8.91204 25.3333 8.74721C25.58 8.58239 25.7722 8.34812 25.8858 8.07404C25.9993 7.79995 26.029 7.49835 25.9711 7.20737C25.9132 6.9164 25.7704 6.64913 25.5606 6.43935C25.3508 6.22957 25.0835 6.08671 24.7926 6.02883C24.5016 5.97095 24.2 6.00066 23.9259 6.11419C23.6518 6.22772 23.4176 6.41998 23.2527 6.66665C23.0879 6.91333 22.9999 7.20334 22.9999 7.50001C22.9999 7.89783 23.158 8.27937 23.4393 8.56067C23.7206 8.84197 24.1021 9.00001 24.4999 9.00001ZM27.4999 13.5C27.7966 13.5 28.0866 13.412 28.3333 13.2472C28.58 13.0824 28.7722 12.8481 28.8858 12.574C28.9993 12.2999 29.029 11.9983 28.9711 11.7074C28.9132 11.4164 28.7704 11.1491 28.5606 10.9393C28.3508 10.7296 28.0835 10.5867 27.7926 10.5288C27.5016 10.471 27.2 10.5007 26.9259 10.6142C26.6518 10.7277 26.4176 10.92 26.2527 11.1667C26.0879 11.4133 25.9999 11.7033 25.9999 12C25.9999 12.3978 26.158 12.7794 26.4393 13.0607C26.7206 13.342 27.1021 13.5 27.4999 13.5Z" fill="#343330"/>
</svg>
