<svg width="32" height="32" viewBox="0 0 32 32" fill="none" xmlns="http://www.w3.org/2000/svg">
<path d="M15 26H9C8.73478 26 8.48043 25.8947 8.29289 25.7071C8.10536 25.5196 8 25.2652 8 25C8 24.7348 8.10536 24.4804 8.29289 24.2929C8.48043 24.1054 8.73478 24 9 24H15C15.2652 24 15.5196 24.1054 15.7071 24.2929C15.8946 24.4804 16 24.7348 16 25C16 25.2652 15.8946 25.5196 15.7071 25.7071C15.5196 25.8947 15.2652 26 15 26ZM23 24H20C19.7348 24 19.4804 24.1054 19.2929 24.2929C19.1054 24.4804 19 24.7348 19 25C19 25.2652 19.1054 25.5196 19.2929 25.7071C19.4804 25.8947 19.7348 26 20 26H23C23.2652 26 23.5196 25.8947 23.7071 25.7071C23.8946 25.5196 24 25.2652 24 25C24 24.7348 23.8946 24.4804 23.7071 24.2929C23.5196 24.1054 23.2652 24 23 24ZM20 28H13C12.7348 28 12.4804 28.1054 12.2929 28.2929C12.1054 28.4804 12 28.7348 12 29C12 29.2652 12.1054 29.5196 12.2929 29.7071C12.4804 29.8947 12.7348 30 13 30H20C20.2652 30 20.5196 29.8947 20.7071 29.7071C20.8946 29.5196 21 29.2652 21 29C21 28.7348 20.8946 28.4804 20.7071 28.2929C20.5196 28.1054 20.2652 28 20 28ZM29 12.5C28.9974 15.0188 27.9956 17.4336 26.2146 19.2146C24.4336 20.9956 22.0187 21.9974 19.5 22H9.5C7.77609 22 6.12279 21.3152 4.90381 20.0962C3.68482 18.8772 3 17.2239 3 15.5C3 13.7761 3.68482 12.1228 4.90381 10.9038C6.12279 9.68483 7.77609 9.00001 9.5 9.00001C9.87367 9.00033 10.2467 9.03211 10.615 9.09501C11.4125 7.02347 12.9096 5.29617 14.8467 4.21238C16.7839 3.12858 19.0392 2.75657 21.2219 3.16081C23.4045 3.56505 25.377 4.72005 26.7975 6.42572C28.2181 8.1314 28.9973 10.2803 29 12.5ZM27 12.5C26.992 10.5526 26.2276 8.68447 24.8681 7.29005C23.5087 5.89563 21.6605 5.08404 19.7139 5.02662C17.7673 4.96919 15.8746 5.67043 14.4353 6.98228C12.996 8.29414 12.1228 10.1139 12 12.0575C11.9924 12.1888 11.9591 12.3174 11.9019 12.4358C11.8446 12.5543 11.7646 12.6603 11.6664 12.7478C11.4681 12.9245 11.2077 13.0153 10.9425 13C10.6773 12.9848 10.429 12.8648 10.2522 12.6665C10.0755 12.4681 9.98475 12.2077 10 11.9425C10.0175 11.6375 10.0496 11.3363 10.0962 11.0388C9.89851 11.0134 9.69937 11.0004 9.5 11C8.30653 11 7.16193 11.4741 6.31802 12.318C5.47411 13.1619 5 14.3065 5 15.5C5 16.6935 5.47411 17.8381 6.31802 18.682C7.16193 19.5259 8.30653 20 9.5 20H19.5C21.4884 19.9977 23.3947 19.2068 24.8007 17.8008C26.2068 16.3947 26.9977 14.4884 27 12.5Z" fill="#343330"/>
</svg>
