<svg width="32" height="32" viewBox="0 0 32 32" fill="none" xmlns="http://www.w3.org/2000/svg">
<path d="M20.4999 9.00001C19.6443 8.9995 18.7924 9.11428 17.9674 9.34126C17.6418 8.80989 17.2461 8.32471 16.7912 7.89876L17.9799 6.20251C18.0553 6.09491 18.1087 5.97352 18.1371 5.84528C18.1656 5.71703 18.1684 5.58444 18.1456 5.45508C18.1228 5.32572 18.0748 5.20211 18.0042 5.09132C17.9336 4.98054 17.8419 4.88473 17.7343 4.80939C17.6267 4.73404 17.5053 4.68063 17.3771 4.65219C17.2488 4.62376 17.1162 4.62087 16.9869 4.64368C16.8575 4.66648 16.7339 4.71455 16.6231 4.78513C16.5123 4.8557 16.4165 4.94741 16.3412 5.05501L15.1524 6.75001C14.1749 6.25644 13.095 5.99953 11.9999 6.00001C11.9274 6.00001 11.8549 6.00001 11.7824 6.00001L11.4212 3.96376C11.4022 3.83108 11.3568 3.70357 11.2876 3.5888C11.2183 3.47402 11.1268 3.37434 11.0183 3.29566C10.9098 3.21698 10.7865 3.16092 10.6559 3.1308C10.5253 3.10068 10.39 3.09712 10.258 3.12034C10.126 3.14356 10 3.19307 9.88754 3.26594C9.77505 3.33881 9.67836 3.43355 9.60321 3.54453C9.52806 3.65551 9.47599 3.78046 9.45009 3.91196C9.42418 4.04346 9.42498 4.17883 9.45243 4.31001L9.81243 6.35251C8.70337 6.71933 7.70352 7.3574 6.90368 8.20876L5.20118 7.01751C5.09366 6.94032 4.97189 6.88523 4.84292 6.85545C4.71396 6.82567 4.58036 6.82179 4.44988 6.84404C4.3194 6.86628 4.19464 6.91421 4.08282 6.98503C3.97101 7.05586 3.87437 7.14818 3.7985 7.25665C3.72264 7.36511 3.66906 7.48755 3.64087 7.61687C3.61269 7.7462 3.61046 7.87983 3.63431 8.01003C3.65816 8.14022 3.70763 8.26438 3.77983 8.37531C3.85203 8.48625 3.94554 8.58174 4.05493 8.65626L5.74993 9.84626C5.2546 10.8236 4.9976 11.9043 4.99993 13C4.99993 13.0713 4.99993 13.1438 4.99993 13.215L2.96368 13.575C2.71721 13.6182 2.49589 13.7522 2.34339 13.9506C2.1909 14.149 2.11832 14.3973 2.13999 14.6466C2.16165 14.8959 2.27598 15.128 2.46041 15.2971C2.64484 15.4662 2.88596 15.56 3.13618 15.56C3.19441 15.5599 3.25254 15.5549 3.30993 15.545L5.34993 15.185C5.52917 15.7307 5.7752 16.2522 6.08243 16.7375C5.12592 17.626 4.4591 18.7819 4.1688 20.0546C3.87851 21.3274 3.9782 22.6581 4.45489 23.8735C4.93158 25.0888 5.76318 26.1324 6.84139 26.8685C7.9196 27.6045 9.19445 27.9988 10.4999 28H20.4999C23.0195 28 25.4358 26.9991 27.2174 25.2175C28.999 23.4359 29.9999 21.0196 29.9999 18.5C29.9999 15.9805 28.999 13.5641 27.2174 11.7825C25.4358 10.0009 23.0195 9.00001 20.4999 9.00001ZM6.99993 13C7.00053 11.9411 7.33731 10.9097 7.96173 10.0545C8.58616 9.19922 9.46599 8.56431 10.4744 8.24123C11.4829 7.91816 12.5678 7.92358 13.573 8.25674C14.5782 8.5899 15.4516 9.23357 16.0674 10.095C14.0275 11.1685 12.4457 12.9448 11.6149 15.095C10.3004 14.8681 8.94781 15.05 7.73993 15.6163C7.25633 14.8293 7.0002 13.9237 6.99993 13ZM20.4999 26H10.4999C9.88446 25.9989 9.27576 25.8715 8.71148 25.6258C8.1472 25.38 7.63932 25.0211 7.21926 24.5713C6.79919 24.1215 6.47587 23.5903 6.26928 23.0105C6.06269 22.4307 5.97723 21.8148 6.01818 21.2006C6.05912 20.5865 6.22561 19.9874 6.50734 19.4402C6.78907 18.893 7.18006 18.4094 7.65612 18.0193C8.13219 17.6292 8.68321 17.3409 9.27513 17.1723C9.86704 17.0036 10.4873 16.9582 11.0974 17.0388C11.0512 17.335 11.0187 17.6375 11.0012 17.9425C10.9859 18.2077 11.0767 18.4681 11.2534 18.6665C11.4302 18.8648 11.6785 18.9848 11.9437 19C12.2089 19.0153 12.4693 18.9245 12.6676 18.7478C12.8659 18.571 12.9859 18.3227 13.0012 18.0575C13.0292 17.5587 13.108 17.0641 13.2362 16.5813C13.2362 16.5613 13.2474 16.5413 13.2512 16.5213C13.6187 15.1706 14.3566 13.9495 15.3814 12.996C16.4063 12.0425 17.6773 11.3946 19.0509 11.1253C20.4246 10.856 21.8462 10.9761 23.1552 11.472C24.4642 11.968 25.6085 12.82 26.4588 13.932C27.3091 15.0439 27.8317 16.3714 27.9674 17.7646C28.1031 19.1579 27.8466 20.5613 27.2269 21.8164C26.6071 23.0715 25.6488 24.1284 24.4601 24.8677C23.2714 25.6069 21.8997 25.9991 20.4999 26Z" fill="#343330"/>
</svg>
