<svg width="32" height="32" viewBox="0 0 32 32" fill="none" xmlns="http://www.w3.org/2000/svg">
<path d="M22.2924 20.7075L19.9999 18.4137V26C19.9999 26.2652 19.8945 26.5196 19.707 26.7071C19.5195 26.8946 19.2651 27 18.9999 27C18.7347 27 18.4803 26.8946 18.2928 26.7071C18.1052 26.5196 17.9999 26.2652 17.9999 26V18.4137L15.7074 20.7075C15.6145 20.8004 15.5042 20.8741 15.3828 20.9244C15.2614 20.9747 15.1313 21.0006 14.9999 21.0006C14.8685 21.0006 14.7384 20.9747 14.617 20.9244C14.4956 20.8741 14.3853 20.8004 14.2924 20.7075C14.1995 20.6146 14.1258 20.5043 14.0755 20.3829C14.0252 20.2615 13.9993 20.1314 13.9993 20C13.9993 19.8686 14.0252 19.7385 14.0755 19.6171C14.1258 19.4957 14.1995 19.3854 14.2924 19.2925L18.2924 15.2925C18.3853 15.1995 18.4955 15.1258 18.6169 15.0754C18.7383 15.0251 18.8685 14.9992 18.9999 14.9992C19.1313 14.9992 19.2614 15.0251 19.3828 15.0754C19.5042 15.1258 19.6145 15.1995 19.7074 15.2925L23.7074 19.2925C23.8003 19.3854 23.874 19.4957 23.9243 19.6171C23.9746 19.7385 24.0004 19.8686 24.0004 20C24.0004 20.1314 23.9746 20.2615 23.9243 20.3829C23.874 20.5043 23.8003 20.6146 23.7074 20.7075C23.6145 20.8004 23.5042 20.8741 23.3828 20.9244C23.2614 20.9747 23.1313 21.0006 22.9999 21.0006C22.8685 21.0006 22.7384 20.9747 22.617 20.9244C22.4956 20.8741 22.3853 20.8004 22.2924 20.7075ZM19.9999 5C17.9568 5.00154 15.9545 5.57152 14.2169 6.64617C12.4793 7.72082 11.075 9.25775 10.1611 11.085C9.07304 10.9251 7.96366 10.9913 6.90229 11.2794C5.84092 11.5675 4.85035 12.0714 3.99245 12.7595C3.13455 13.4476 2.42775 14.3053 1.91619 15.2788C1.40462 16.2524 1.09929 17.321 1.01926 18.4178C0.939225 19.5147 1.08621 20.6163 1.45103 21.6538C1.81585 22.6913 2.39068 23.6424 3.1396 24.4478C3.88853 25.2532 4.79546 25.8955 5.80377 26.3346C6.81208 26.7737 7.9001 27.0003 8.99988 27H13.9999C14.2651 27 14.5195 26.8946 14.707 26.7071C14.8945 26.5196 14.9999 26.2652 14.9999 26C14.9999 25.7348 14.8945 25.4804 14.707 25.2929C14.5195 25.1054 14.2651 25 13.9999 25H8.99988C7.40859 25 5.88246 24.3679 4.75724 23.2426C3.63203 22.1174 2.99988 20.5913 2.99988 19C2.99988 17.4087 3.63203 15.8826 4.75724 14.7574C5.88246 13.6321 7.40859 13 8.99988 13C9.13738 13 9.27489 13 9.41113 13.015C9.13778 13.9864 8.9994 14.9908 8.99988 16C8.99988 16.2652 9.10524 16.5196 9.29278 16.7071C9.48031 16.8946 9.73467 17 9.99988 17C10.2651 17 10.5195 16.8946 10.707 16.7071C10.8945 16.5196 10.9999 16.2652 10.9999 16C11.0001 14.3774 11.439 12.7851 12.2701 11.3916C13.1011 9.99803 14.2935 8.85506 15.7209 8.08363C17.1484 7.31221 18.7578 6.94102 20.3789 7.00935C22 7.07768 23.5725 7.58299 24.93 8.4718C26.2874 9.36061 27.3793 10.5999 28.0902 12.0584C28.801 13.517 29.1044 15.1405 28.9681 16.7574C28.8318 18.3742 28.2609 19.9241 27.3159 21.243C26.371 22.562 25.087 23.601 23.5999 24.25C23.3887 24.3415 23.2156 24.5031 23.1097 24.7075C23.0038 24.9118 22.9717 25.1464 23.0187 25.3717C23.0657 25.597 23.189 25.7992 23.3677 25.9442C23.5465 26.0891 23.7697 26.168 23.9999 26.1675C24.1377 26.1674 24.2739 26.1384 24.3999 26.0825C26.7166 25.0719 28.6146 23.2944 29.7746 21.0489C30.9347 18.8034 31.2862 16.2269 30.7698 13.7527C30.2534 11.2785 28.9008 9.05762 26.9393 7.46358C24.9779 5.86953 22.5274 4.99956 19.9999 5Z" fill="#343330"/>
</svg>
