<svg width="32" height="32" viewBox="0 0 32 32" fill="none" xmlns="http://www.w3.org/2000/svg">
<path d="M21.5 9.00001C20.9825 8.99977 20.4657 9.04157 19.955 9.12501C19.7733 7.24796 19.0061 5.47554 17.7617 4.0585C16.5174 2.64145 14.8591 1.65153 13.0212 1.22876C12.8562 1.19084 12.6842 1.19546 12.5214 1.24218C12.3586 1.28891 12.2104 1.37621 12.0906 1.49589C11.9708 1.61558 11.8833 1.76374 11.8364 1.92646C11.7895 2.08919 11.7847 2.26117 11.8225 2.42626C12.058 3.45234 12.0593 4.51831 11.8262 5.54495C11.5931 6.57159 11.1317 7.5325 10.4762 8.35629C9.82065 9.18007 8.98791 9.84553 8.03984 10.3032C7.09178 10.7609 6.05275 10.9991 4.99999 11C4.4704 11.0001 3.9425 10.9405 3.42624 10.8225C3.26106 10.7845 3.08893 10.7891 2.92602 10.8359C2.76311 10.8827 2.61477 10.9701 2.49492 11.0899C2.37507 11.2098 2.28765 11.3581 2.24087 11.521C2.19409 11.684 2.18948 11.8561 2.22749 12.0213C2.49613 13.1797 2.991 14.2736 3.68366 15.2402C4.37633 16.2068 5.25314 17.027 6.26374 17.6538C5.55299 18.622 5.12443 19.7683 5.02564 20.9654C4.92685 22.1624 5.16167 23.3635 5.70406 24.4352C6.24645 25.5069 7.07518 26.4073 8.09829 27.0366C9.12139 27.6659 10.2989 27.9993 11.5 28H21.5C24.0195 28 26.4359 26.9991 28.2175 25.2175C29.9991 23.4359 31 21.0196 31 18.5C31 15.9805 29.9991 13.5641 28.2175 11.7825C26.4359 10.0009 24.0195 9.00001 21.5 9.00001ZM4.67124 13C4.77999 13 4.88999 13 4.99999 13C7.38612 12.9974 9.67377 12.0483 11.361 10.361C13.0483 8.67379 13.9973 6.38614 14 4.00001C14 3.88876 14 3.77751 14 3.66626C15.1515 4.20513 16.1333 5.0494 16.8385 6.10725C17.5437 7.1651 17.9455 8.39605 18 9.66626C16.7786 10.1513 15.6706 10.8836 14.7456 11.8171C13.8207 12.7507 13.0987 13.8654 12.625 15.0913C11.7795 14.945 10.9135 14.9675 10.0768 15.1576C9.24005 15.3477 8.44925 15.7015 7.74999 16.1988C6.40504 15.4932 5.32487 14.3709 4.67124 13ZM21.5 26H11.5C10.8845 25.9989 10.2758 25.8715 9.71154 25.6258C9.14725 25.38 8.63938 25.0211 8.21932 24.5713C7.79925 24.1215 7.47593 23.5903 7.26934 23.0105C7.06275 22.4307 6.97729 21.8147 7.01823 21.2006C7.05918 20.5865 7.22567 19.9874 7.5074 19.4401C7.78913 18.8929 8.18011 18.4094 8.65618 18.0193C9.13225 17.6292 9.68327 17.3409 10.2752 17.1723C10.8671 17.0036 11.4873 16.9582 12.0975 17.0388C12.0512 17.335 12.0187 17.6375 12.0012 17.9425C11.9937 18.0738 12.0121 18.2054 12.0554 18.3296C12.0986 18.4538 12.166 18.5683 12.2535 18.6665C12.341 18.7647 12.447 18.8447 12.5654 18.9019C12.6839 18.9591 12.8124 18.9925 12.9437 19C13.0751 19.0076 13.2066 18.9892 13.3308 18.9459C13.455 18.9026 13.5695 18.8353 13.6677 18.7478C13.7659 18.6603 13.8459 18.5543 13.9031 18.4358C13.9603 18.3174 13.9937 18.1888 14.0012 18.0575C14.0293 17.5587 14.108 17.0641 14.2362 16.5813C14.2362 16.5613 14.2475 16.5413 14.2512 16.5213C14.6188 15.1706 15.3566 13.9495 16.3815 12.996C17.4063 12.0425 18.6773 11.3946 20.051 11.1253C21.4247 10.856 22.8463 10.9761 24.1553 11.472C25.4643 11.968 26.6085 12.82 27.4589 13.932C28.3092 15.0439 28.8317 16.3714 28.9674 17.7646C29.1032 19.1578 28.8467 20.5613 28.2269 21.8164C27.6072 23.0715 26.6488 24.1284 25.4602 24.8677C24.2715 25.6069 22.8998 25.9991 21.5 26Z" fill="#343330"/>
</svg>
