<svg width="32" height="32" viewBox="0 0 32 32" fill="none" xmlns="http://www.w3.org/2000/svg">
<path d="M30.9999 16C31.0062 18.3814 30.2336 20.6996 28.7999 22.6012C28.7209 22.7063 28.6221 22.7948 28.5089 22.8616C28.3958 22.9284 28.2705 22.9724 28.1404 22.9908C28.0103 23.0093 27.8778 23.0019 27.7505 22.9692C27.6233 22.9364 27.5037 22.8789 27.3986 22.8C27.2936 22.721 27.2051 22.6221 27.1383 22.509C27.0714 22.3958 27.0275 22.2706 27.0091 22.1405C26.9906 22.0104 26.9979 21.8779 27.0307 21.7506C27.0634 21.6234 27.1209 21.5038 27.1999 21.3987C28.3734 19.844 29.0056 17.9478 28.9999 16C28.9999 13.613 28.0517 11.3238 26.3638 9.63601C24.676 7.94819 22.3868 6.99997 19.9999 6.99997C17.6129 6.99997 15.3238 7.94819 13.6359 9.63601C11.9481 11.3238 10.9999 13.613 10.9999 16C10.9999 16.2652 10.8945 16.5195 10.707 16.7071C10.5195 16.8946 10.2651 17 9.99988 17C9.73467 17 9.48031 16.8946 9.29278 16.7071C9.10524 16.5195 8.99988 16.2652 8.99988 16C8.9994 14.9908 9.13778 13.9864 9.41113 13.015C9.27489 13 9.13738 13 8.99988 13C7.40859 13 5.88246 13.6321 4.75724 14.7573C3.63203 15.8826 2.99988 17.4087 2.99988 19C2.99988 20.5913 3.63203 22.1174 4.75724 23.2426C5.88246 24.3678 7.40859 25 8.99988 25H11.9999C12.2651 25 12.5195 25.1053 12.707 25.2929C12.8945 25.4804 12.9999 25.7348 12.9999 26C12.9999 26.2652 12.8945 26.5195 12.707 26.7071C12.5195 26.8946 12.2651 27 11.9999 27H8.99988C7.9001 27.0002 6.81208 26.7737 5.80377 26.3346C4.79546 25.8955 3.88853 25.2532 3.1396 24.4478C2.39068 23.6424 1.81585 22.6913 1.45103 21.6538C1.08621 20.6162 0.939225 19.5147 1.01926 18.4178C1.09929 17.3209 1.40462 16.2523 1.91619 15.2788C2.42775 14.3052 3.13455 13.4476 3.99245 12.7595C4.85035 12.0713 5.84092 11.5675 6.90229 11.2794C7.96366 10.9913 9.07304 10.9251 10.1611 11.085C11.2691 8.86892 13.0928 7.09182 15.3368 6.04151C17.5808 4.99121 20.1136 4.72922 22.525 5.29798C24.9365 5.86674 27.0853 7.23294 28.6234 9.17529C30.1616 11.1176 30.9989 13.5224 30.9999 16ZM22.2924 21.2925L19.9999 23.5862V16C19.9999 15.7348 19.8945 15.4804 19.707 15.2929C19.5195 15.1053 19.2651 15 18.9999 15C18.7347 15 18.4803 15.1053 18.2928 15.2929C18.1052 15.4804 17.9999 15.7348 17.9999 16V23.5862L15.7074 21.2925C15.5197 21.1048 15.2652 20.9994 14.9999 20.9994C14.7345 20.9994 14.48 21.1048 14.2924 21.2925C14.1047 21.4801 13.9993 21.7346 13.9993 22C13.9993 22.2653 14.1047 22.5198 14.2924 22.7075L18.2924 26.7075C18.3853 26.8005 18.4955 26.8742 18.6169 26.9245C18.7383 26.9749 18.8685 27.0008 18.9999 27.0008C19.1313 27.0008 19.2614 26.9749 19.3828 26.9245C19.5042 26.8742 19.6145 26.8005 19.7074 26.7075L23.7074 22.7075C23.895 22.5198 24.0004 22.2653 24.0004 22C24.0004 21.7346 23.895 21.4801 23.7074 21.2925C23.5197 21.1048 23.2652 20.9994 22.9999 20.9994C22.7345 20.9994 22.48 21.1048 22.2924 21.2925Z" fill="#343330"/>
</svg>
