<svg width="32" height="32" viewBox="0 0 32 32" fill="none" xmlns="http://www.w3.org/2000/svg">
<path d="M6.74 4.32752C6.65218 4.22853 6.54559 4.14795 6.4264 4.09046C6.30721 4.03297 6.1778 3.9997 6.04566 3.99259C5.91352 3.98549 5.78128 4.00467 5.65661 4.04905C5.53194 4.09342 5.41732 4.1621 5.31939 4.2511C5.22146 4.3401 5.14216 4.44765 5.0861 4.56752C5.03004 4.68739 4.99833 4.81719 4.99281 4.94941C4.98728 5.08162 5.00806 5.21362 5.05392 5.33775C5.09979 5.46187 5.16983 5.57567 5.26 5.67252L10.165 11.0688L10.1575 11.0838C9.77416 11.0283 9.38734 11.0003 9 11C6.87827 11 4.84344 11.8429 3.34315 13.3432C1.84285 14.8435 1 16.8783 1 19C1 21.1218 1.84285 23.1566 3.34315 24.6569C4.84344 26.1572 6.87827 27 9 27H20C21.3596 27.0026 22.7077 26.7512 23.975 26.2588L25.26 27.6725C25.3478 27.7715 25.4544 27.8521 25.5736 27.9096C25.6928 27.9671 25.8222 28.0003 25.9543 28.0075C26.0865 28.0146 26.2187 27.9954 26.3434 27.951C26.4681 27.9066 26.5827 27.8379 26.6806 27.7489C26.7785 27.66 26.8578 27.5524 26.9139 27.4325C26.97 27.3127 27.0017 27.1829 27.0072 27.0506C27.0127 26.9184 26.9919 26.7864 26.9461 26.6623C26.9002 26.5382 26.8302 26.4244 26.74 26.3275L6.74 4.32752ZM20 25H9C7.4087 25 5.88258 24.3679 4.75736 23.2427C3.63214 22.1174 3 20.5913 3 19C3 17.4087 3.63214 15.8826 4.75736 14.7574C5.88258 13.6322 7.4087 13 9 13C9.1375 13 9.275 13 9.4125 13.015C9.13934 13.9865 9.00055 14.9909 9 16C9 16.2652 9.10536 16.5196 9.29289 16.7071C9.48043 16.8947 9.73478 17 10 17C10.2652 17 10.5196 16.8947 10.7071 16.7071C10.8946 16.5196 11 16.2652 11 16C11.0004 14.8643 11.2149 13.7387 11.6325 12.6825L22.5075 24.645C21.6927 24.8815 20.8484 25.001 20 25ZM31 16C31.0016 18.7026 30.0069 21.3109 28.2062 23.3263C28.026 23.5068 27.7835 23.6117 27.5284 23.6193C27.2734 23.6269 27.0251 23.5367 26.8343 23.3672C26.6436 23.1977 26.5249 22.9618 26.5025 22.7076C26.48 22.4534 26.5556 22.2003 26.7138 22C28.1993 20.3409 29.0169 18.19 29.0086 15.963C29.0003 13.7361 28.1667 11.5913 26.6689 9.9433C25.171 8.2953 23.1154 7.26114 20.8994 7.04073C18.6834 6.82032 16.4643 7.42933 14.6713 8.75002C14.5655 8.82783 14.4454 8.88404 14.3178 8.91544C14.1903 8.94684 14.0579 8.95281 13.928 8.93302C13.7982 8.91323 13.6736 8.86806 13.5612 8.8001C13.4488 8.73213 13.3509 8.64269 13.2731 8.5369C13.116 8.32323 13.0502 8.0559 13.0901 7.7937C13.1301 7.5315 13.2726 7.29591 13.4862 7.13877C15.1249 5.93463 17.0652 5.20828 19.0917 5.04037C21.1182 4.87246 23.1516 5.26958 24.9661 6.18761C26.7805 7.10565 28.305 8.50867 29.3702 10.2408C30.4353 11.973 30.9995 13.9666 31 16Z" fill="#343330"/>
</svg>
