<svg width="32" height="32" viewBox="0 0 32 32" fill="none" xmlns="http://www.w3.org/2000/svg">
<path d="M11 24.5C11 24.7967 10.912 25.0867 10.7472 25.3334C10.5824 25.58 10.3481 25.7723 10.074 25.8858C9.79994 25.9994 9.49834 26.0291 9.20736 25.9712C8.91639 25.9133 8.64912 25.7705 8.43934 25.5607C8.22956 25.3509 8.0867 25.0836 8.02882 24.7926C7.97094 24.5017 8.00065 24.2001 8.11418 23.926C8.22771 23.6519 8.41997 23.4176 8.66665 23.2528C8.91332 23.088 9.20333 23 9.5 23C9.89782 23 10.2794 23.158 10.5607 23.4394C10.842 23.7207 11 24.1022 11 24.5ZM14.5 25C14.2033 25 13.9133 25.088 13.6666 25.2528C13.42 25.4176 13.2277 25.6519 13.1142 25.926C13.0006 26.2001 12.9709 26.5017 13.0288 26.7926C13.0867 27.0836 13.2296 27.3509 13.4393 27.5607C13.6491 27.7705 13.9164 27.9133 14.2074 27.9712C14.4983 28.0291 14.7999 27.9994 15.074 27.8858C15.3481 27.7723 15.5824 27.58 15.7472 27.3334C15.912 27.0867 16 26.7967 16 26.5C16 26.1022 15.842 25.7207 15.5607 25.4394C15.2794 25.158 14.8978 25 14.5 25ZM20.5 23C20.2033 23 19.9133 23.088 19.6666 23.2528C19.42 23.4176 19.2277 23.6519 19.1142 23.926C19.0007 24.2001 18.9709 24.5017 19.0288 24.7926C19.0867 25.0836 19.2296 25.3509 19.4393 25.5607C19.6491 25.7705 19.9164 25.9133 20.2074 25.9712C20.4983 26.0291 20.7999 25.9994 21.074 25.8858C21.3481 25.7723 21.5824 25.58 21.7472 25.3334C21.912 25.0867 22 24.7967 22 24.5C22 24.1022 21.842 23.7207 21.5607 23.4394C21.2794 23.158 20.8978 23 20.5 23ZM8.5 28C8.20333 28 7.91332 28.088 7.66664 28.2528C7.41997 28.4176 7.22771 28.6519 7.11418 28.926C7.00065 29.2001 6.97094 29.5017 7.02882 29.7926C7.0867 30.0836 7.22956 30.3509 7.43934 30.5607C7.64912 30.7705 7.91639 30.9133 8.20736 30.9712C8.49834 31.0291 8.79994 30.9994 9.07403 30.8858C9.34811 30.7723 9.58238 30.58 9.7472 30.3334C9.91203 30.0867 10 29.7967 10 29.5C10 29.1022 9.84196 28.7207 9.56066 28.4394C9.27936 28.158 8.89782 28 8.5 28ZM19.5 28C19.2033 28 18.9133 28.088 18.6666 28.2528C18.42 28.4176 18.2277 28.6519 18.1142 28.926C18.0007 29.2001 17.9709 29.5017 18.0288 29.7926C18.0867 30.0836 18.2296 30.3509 18.4393 30.5607C18.6491 30.7705 18.9164 30.9133 19.2074 30.9712C19.4983 31.0291 19.7999 30.9994 20.074 30.8858C20.3481 30.7723 20.5824 30.58 20.7472 30.3334C20.912 30.0867 21 29.7967 21 29.5C21 29.1022 20.842 28.7207 20.5607 28.4394C20.2794 28.158 19.8978 28 19.5 28ZM29 11.5C28.9974 14.0188 27.9956 16.4336 26.2146 18.2146C24.4336 19.9956 22.0187 20.9974 19.5 21H9.5C7.77609 21 6.12279 20.3152 4.90381 19.0962C3.68482 17.8772 3 16.2239 3 14.5C3 12.7761 3.68482 11.1228 4.90381 9.90382C6.12279 8.68483 7.77609 8.00001 9.5 8.00001C9.87367 8.00033 10.2467 8.03211 10.615 8.09501C11.4125 6.02347 12.9096 4.29617 14.8467 3.21238C16.7839 2.12858 19.0392 1.75657 21.2219 2.16081C23.4045 2.56505 25.377 3.72005 26.7975 5.42572C28.2181 7.1314 28.9973 9.28026 29 11.5ZM27 11.5C26.992 9.55259 26.2276 7.68447 24.8681 6.29005C23.5087 4.89563 21.6605 4.08404 19.7139 4.02662C17.7673 3.96919 15.8746 4.67043 14.4353 5.98228C12.996 7.29414 12.1228 9.11394 12 11.0575C11.9924 11.1888 11.9591 11.3174 11.9019 11.4358C11.8446 11.5543 11.7646 11.6603 11.6664 11.7478C11.4681 11.9245 11.2077 12.0153 10.9425 12C10.6773 11.9848 10.429 11.8648 10.2522 11.6665C10.0755 11.4681 9.98475 11.2077 10 10.9425C10.0175 10.6375 10.0496 10.3363 10.0962 10.0388C9.89851 10.0134 9.69937 10.0004 9.5 10C8.30653 10 7.16193 10.4741 6.31802 11.318C5.47411 12.1619 5 13.3065 5 14.5C5 15.6935 5.47411 16.8381 6.31802 17.682C7.16193 18.5259 8.30653 19 9.5 19H19.5C21.4884 18.9977 23.3947 18.2068 24.8007 16.8008C26.2068 15.3947 26.9977 13.4884 27 11.5Z" fill="#343330"/>
</svg>
