<svg width="32" height="32" viewBox="0 0 32 32" fill="none" xmlns="http://www.w3.org/2000/svg">
<path d="M26.4575 20.6925C28.145 19.9625 29 18.0462 29 15C29 11.9537 28.145 10.0375 26.4575 9.30625C25.0013 8.68125 23.0525 9.0275 20.65 10.35C21.9725 7.9475 22.3237 5.99875 21.6938 4.5425C20.9625 2.855 19.0462 2 16 2C12.9537 2 11.0375 2.855 10.3062 4.5425C9.68125 5.99875 10.0275 7.9475 11.35 10.3488C8.9475 9.0275 7 8.675 5.5425 9.30625C3.855 10.0375 3 11.9537 3 15C3 18.0462 3.855 19.9625 5.5425 20.6925C6.03488 20.9014 6.56518 21.0061 7.1 21C8.3 21 9.725 20.5475 11.35 19.6513C10.0275 22.0513 9.67625 24 10.3062 25.4562C11.0375 27.1437 12.9537 28 16 28C19.0462 28 20.9625 27.1437 21.6938 25.4562C21.9391 24.8634 22.0394 24.2206 21.9862 23.5812C23.2925 25.61 24.4412 27.8912 25.03 30.2475C25.085 30.4629 25.2103 30.6538 25.3859 30.7901C25.5616 30.9264 25.7777 31.0002 26 31C26.0822 30.9999 26.164 30.9898 26.2437 30.97C26.501 30.9056 26.7221 30.7418 26.8586 30.5144C26.995 30.287 27.0355 30.0148 26.9713 29.7575C26.1038 26.2875 24.1875 23.0325 22.2388 20.4088C23.2196 20.8029 24.1067 21 24.9 21C25.4348 21.0061 25.9651 20.9014 26.4575 20.6925ZM25.6612 11.1425C26.7675 11.625 27 13.5 27 15C27 16.5 26.7675 18.375 25.6625 18.8575C24.6175 19.3113 22.7225 18.6938 20.3275 17.1187C19.348 16.4655 18.4073 15.756 17.51 14.9937C19.8113 13.0462 23.8 10.335 25.6612 11.1425ZM12.1425 5.3375C12.625 4.2325 14.5 4 16 4C17.5 4 19.375 4.2325 19.8575 5.3375C20.3113 6.3825 19.6938 8.2775 18.1187 10.6725C17.4655 11.652 16.756 12.5927 15.9937 13.49C14.0462 11.1887 11.3363 7.19875 12.1425 5.3375ZM6.33875 18.8575C5.2325 18.375 5 16.5 5 15C5 13.5 5.2325 11.625 6.3375 11.1425C6.58737 11.0412 6.85548 10.9927 7.125 11C8.21875 11 9.7925 11.6462 11.675 12.8837C12.6545 13.537 13.5952 14.2465 14.4925 15.0087C12.1888 16.9525 8.19875 19.665 6.33875 18.8575ZM19.8575 24.6612C19.375 25.7675 17.5 26 16 26C14.5 26 12.625 25.7675 12.1425 24.6625C11.6888 23.6175 12.3063 21.7225 13.8813 19.3275C14.5345 18.348 15.244 17.4073 16.0063 16.51C17.9538 18.8113 20.6637 22.8012 19.8575 24.6612Z" fill="#343330"/>
</svg>
