<svg width="32" height="32" viewBox="0 0 32 32" fill="none" xmlns="http://www.w3.org/2000/svg">
<path d="M23 11C22.9025 11 22.805 11 22.7088 11C23.0199 9.95528 23.0828 8.85232 22.8924 7.77901C22.7019 6.70569 22.2635 5.69168 21.6119 4.81776C20.9604 3.94385 20.1137 3.23418 19.1394 2.7453C18.1651 2.25641 17.0901 2.00183 16 2.00183C14.9099 2.00183 13.8349 2.25641 12.8606 2.7453C11.8863 3.23418 11.0397 3.94385 10.3881 4.81776C9.73652 5.69168 9.29806 6.70569 9.10764 7.77901C8.91721 8.85232 8.98009 9.95528 9.29125 11C9.19375 11 9.0975 11 9 11C7.94727 11.0005 6.90821 11.2385 5.96017 11.6961C5.01213 12.1538 4.17952 12.8194 3.52434 13.6434C2.86915 14.4674 2.40825 15.4286 2.17595 16.4554C1.94365 17.4821 1.94594 18.5481 2.18263 19.5739C2.41933 20.5997 2.88434 21.5588 3.54305 22.38C4.20176 23.2012 5.03721 23.8632 5.9872 24.3168C6.9372 24.7705 7.97727 25.0039 9.02999 24.9999C10.0827 24.9959 11.121 24.7546 12.0675 24.2937L11.0425 27.7125C10.9977 27.8618 10.9884 28.0195 11.0154 28.173C11.0423 28.3266 11.1048 28.4717 11.1979 28.5968C11.2909 28.7218 11.4119 28.8234 11.5511 28.8935C11.6904 28.9635 11.8441 29 12 29H20C20.1559 29 20.3096 28.9635 20.4489 28.8935C20.5881 28.8234 20.7091 28.7218 20.8021 28.5968C20.8952 28.4717 20.9577 28.3266 20.9846 28.173C21.0116 28.0195 21.0023 27.8618 20.9575 27.7125L19.9325 24.2937C20.879 24.7546 21.9173 24.9959 22.97 24.9999C24.0227 25.0039 25.0628 24.7705 26.0128 24.3168C26.9628 23.8632 27.7982 23.2012 28.457 22.38C29.1157 21.5588 29.5807 20.5997 29.8174 19.5739C30.0541 18.5481 30.0563 17.4821 29.8241 16.4554C29.5918 15.4286 29.1309 14.4674 28.4757 13.6434C27.8205 12.8194 26.9879 12.1538 26.0398 11.6961C25.0918 11.2385 24.0527 11.0005 23 11ZM23 23C22.1722 22.9999 21.3574 22.7942 20.6288 22.4015C19.9001 22.0088 19.2803 21.4413 18.825 20.75C18.6924 20.5505 18.4926 20.4053 18.2619 20.3407C18.0313 20.2761 17.7851 20.2964 17.5682 20.398C17.3513 20.4996 17.178 20.6756 17.0799 20.8942C16.9818 21.1127 16.9655 21.3592 17.0338 21.5887L18.6588 26.9962H13.3463L14.9713 21.5887C15.0438 21.3576 15.03 21.1079 14.9323 20.8862C14.8347 20.6644 14.6598 20.4857 14.4403 20.3831C14.2207 20.2806 13.9714 20.2613 13.7387 20.3288C13.506 20.3963 13.3057 20.5459 13.175 20.75C12.6583 21.5326 11.932 22.154 11.079 22.5435C10.2259 22.9329 9.28054 23.0746 8.3508 22.9524C7.42107 22.8302 6.54443 22.449 5.82101 21.8524C5.09759 21.2557 4.55653 20.4676 4.25964 19.5781C3.96274 18.6886 3.92197 17.7336 4.14198 16.822C4.36198 15.9104 4.8339 15.0791 5.50384 14.423C6.17378 13.7668 7.01474 13.3123 7.93068 13.1113C8.84662 12.9103 9.80062 12.9709 10.6838 13.2862C10.8821 13.3572 11.0977 13.3636 11.2999 13.3048C11.5021 13.2459 11.6806 13.1247 11.8099 12.9584C11.9391 12.7922 12.0126 12.5893 12.0198 12.3788C12.027 12.1684 11.9676 11.961 11.85 11.7862C11.3444 11.0338 11.0528 10.158 11.0065 9.25266C10.9602 8.34728 11.161 7.44635 11.5873 6.64627C12.0136 5.84619 12.6494 5.17707 13.4267 4.71049C14.2039 4.24391 15.0934 3.99743 16 3.99743C16.9066 3.99743 17.7961 4.24391 18.5733 4.71049C19.3506 5.17707 19.9864 5.84619 20.4127 6.64627C20.839 7.44635 21.0398 8.34728 20.9935 9.25266C20.9472 10.158 20.6556 11.0338 20.15 11.7862C20.0324 11.961 19.973 12.1684 19.9802 12.3788C19.9874 12.5893 20.0609 12.7922 20.1901 12.9584C20.3194 13.1247 20.4979 13.2459 20.7001 13.3048C20.9023 13.3636 21.1179 13.3572 21.3163 13.2862C22.0021 13.0436 22.7327 12.9536 23.4569 13.0225C24.1812 13.0913 24.8817 13.3174 25.5095 13.6849C26.1374 14.0525 26.6775 14.5526 27.0921 15.1504C27.5068 15.7482 27.786 16.4292 27.9102 17.1461C28.0345 17.8629 28.0008 18.5982 27.8115 19.3007C27.6223 20.0032 27.282 20.6559 26.8145 21.2133C26.3469 21.7707 25.7634 22.2193 25.1046 22.5279C24.4457 22.8365 23.7275 22.9976 23 23Z" fill="#343330"/>
</svg>
