<svg width="32" height="32" viewBox="0 0 32 32" fill="none" xmlns="http://www.w3.org/2000/svg">
<path d="M7.29249 12.7075L3.29249 8.70751C3.19952 8.61463 3.12576 8.50434 3.07543 8.38295C3.02511 8.26155 2.99921 8.13142 2.99921 8.00001C2.99921 7.86859 3.02511 7.73846 3.07543 7.61707C3.12576 7.49567 3.19952 7.38538 3.29249 7.29251L7.29249 3.29251C7.48013 3.10487 7.73463 2.99945 7.99999 2.99945C8.26536 2.99945 8.51985 3.10487 8.70749 3.29251C8.89513 3.48015 9.00055 3.73464 9.00055 4.00001C9.00055 4.26537 8.89513 4.51987 8.70749 4.70751L5.41374 8.00001L8.70749 11.2925C8.89513 11.4801 9.00055 11.7346 9.00055 12C9.00055 12.2654 8.89513 12.5199 8.70749 12.7075C8.51985 12.8951 8.26536 13.0006 7.99999 13.0006C7.73463 13.0006 7.48013 12.8951 7.29249 12.7075ZM12.2925 12.7075C12.3854 12.8005 12.4957 12.8742 12.6171 12.9246C12.7385 12.9749 12.8686 13.0008 13 13.0008C13.1314 13.0008 13.2615 12.9749 13.3829 12.9246C13.5043 12.8742 13.6146 12.8005 13.7075 12.7075L17.7075 8.70751C17.8005 8.61463 17.8742 8.50434 17.9246 8.38295C17.9749 8.26155 18.0008 8.13142 18.0008 8.00001C18.0008 7.86859 17.9749 7.73846 17.9246 7.61707C17.8742 7.49567 17.8005 7.38538 17.7075 7.29251L13.7075 3.29251C13.5199 3.10487 13.2654 2.99945 13 2.99945C12.7346 2.99945 12.4801 3.10487 12.2925 3.29251C12.1049 3.48015 11.9994 3.73464 11.9994 4.00001C11.9994 4.26537 12.1049 4.51987 12.2925 4.70751L15.5862 8.00001L12.2925 11.2925C12.1995 11.3854 12.1258 11.4957 12.0754 11.6171C12.0251 11.7385 11.9992 11.8686 11.9992 12C11.9992 12.1314 12.0251 12.2615 12.0754 12.3829C12.1258 12.5043 12.1995 12.6146 12.2925 12.7075ZM25 5.00001H22C21.7348 5.00001 21.4804 5.10536 21.2929 5.2929C21.1053 5.48044 21 5.73479 21 6.00001C21 6.26522 21.1053 6.51958 21.2929 6.70711C21.4804 6.89465 21.7348 7.00001 22 7.00001H25V25H6.99999V17C6.99999 16.7348 6.89464 16.4804 6.7071 16.2929C6.51956 16.1054 6.26521 16 5.99999 16C5.73478 16 5.48042 16.1054 5.29289 16.2929C5.10535 16.4804 4.99999 16.7348 4.99999 17V25C4.99999 25.5304 5.21071 26.0391 5.58578 26.4142C5.96085 26.7893 6.46956 27 6.99999 27H25C25.5304 27 26.0391 26.7893 26.4142 26.4142C26.7893 26.0391 27 25.5304 27 25V7.00001C27 6.46957 26.7893 5.96087 26.4142 5.58579C26.0391 5.21072 25.5304 5.00001 25 5.00001Z" fill="#343330"/>
</svg>
