<svg width="32" height="32" viewBox="0 0 32 32" fill="none" xmlns="http://www.w3.org/2000/svg">
<path d="M8.64001 11.7688L3.56251 16L8.64001 20.2313C8.74381 20.3144 8.83 20.4173 8.89353 20.5341C8.95707 20.6509 8.99666 20.7793 9.01001 20.9116C9.02336 21.0438 9.01018 21.1775 8.97126 21.3046C8.93234 21.4318 8.86845 21.5499 8.78333 21.652C8.69821 21.7542 8.59358 21.8384 8.47554 21.8996C8.35751 21.9608 8.22845 21.9979 8.09591 22.0086C7.96338 22.0194 7.83003 22.0036 7.70367 21.9622C7.57731 21.9208 7.46048 21.8546 7.36001 21.7675L1.36001 16.7675C1.24742 16.6737 1.15684 16.5562 1.09468 16.4235C1.03253 16.2907 1.00031 16.1459 1.00031 15.9994C1.00031 15.8528 1.03253 15.708 1.09468 15.5753C1.15684 15.4426 1.24742 15.3251 1.36001 15.2313L7.36001 10.2313C7.56389 10.0615 7.82685 9.97972 8.09104 10.0039C8.35524 10.028 8.59902 10.1561 8.76876 10.36C8.93849 10.5639 9.02029 10.8268 8.99614 11.091C8.972 11.3552 8.84389 11.599 8.64001 11.7688ZM30.64 15.2313L24.64 10.2313C24.5391 10.1472 24.4225 10.0839 24.2971 10.0449C24.1717 10.0058 24.0398 9.99191 23.909 10.0039C23.7782 10.0158 23.651 10.0534 23.5347 10.1145C23.4184 10.1756 23.3153 10.259 23.2313 10.36C23.0615 10.5639 22.9797 10.8268 23.0039 11.091C23.028 11.3552 23.1561 11.599 23.36 11.7688L28.4375 16L23.36 20.2313C23.2562 20.3144 23.17 20.4173 23.1065 20.5341C23.0429 20.6509 23.0033 20.7793 22.99 20.9116C22.9767 21.0438 22.9898 21.1775 23.0287 21.3046C23.0677 21.4318 23.1316 21.5499 23.2167 21.652C23.3018 21.7542 23.4064 21.8384 23.5245 21.8996C23.6425 21.9608 23.7716 21.9979 23.9041 22.0086C24.0366 22.0194 24.17 22.0036 24.2963 21.9622C24.4227 21.9208 24.5395 21.8546 24.64 21.7675L30.64 16.7675C30.7526 16.6737 30.8432 16.5562 30.9053 16.4235C30.9675 16.2907 30.9997 16.1459 30.9997 15.9994C30.9997 15.8528 30.9675 15.708 30.9053 15.5753C30.8432 15.4426 30.7526 15.3251 30.64 15.2313ZM20.3413 4.06C20.2178 4.01519 20.0868 3.99512 19.9556 4.00096C19.8244 4.00679 19.6956 4.03841 19.5766 4.09401C19.4576 4.14961 19.3508 4.2281 19.2621 4.325C19.1735 4.4219 19.1048 4.53531 19.06 4.65875L11.06 26.6588C11.015 26.7823 10.9948 26.9134 11.0005 27.0448C11.0063 27.1761 11.0378 27.305 11.0935 27.4242C11.1491 27.5433 11.2276 27.6503 11.3246 27.739C11.4216 27.8277 11.5352 27.8964 11.6588 27.9413C11.7683 27.9802 11.8837 28.0001 12 28C12.2054 28 12.4058 27.9368 12.5739 27.8189C12.7421 27.7011 12.8699 27.5343 12.94 27.3413L20.94 5.34125C20.9848 5.21781 21.0049 5.08675 20.9991 4.95555C20.9932 4.82436 20.9616 4.69559 20.906 4.57662C20.8504 4.45764 20.7719 4.35078 20.675 4.26214C20.5781 4.1735 20.4647 4.10481 20.3413 4.06Z" fill="#343330"/>
</svg>
