<svg width="32" height="32" viewBox="0 0 32 32" fill="none" xmlns="http://www.w3.org/2000/svg">
<path d="M11.6637 8.75L3.49999 16L11.6587 23.25C11.7572 23.3372 11.8376 23.4429 11.8952 23.5611C11.9529 23.6793 11.9867 23.8077 11.9947 23.939C12.0027 24.0703 11.9847 24.2019 11.9419 24.3262C11.8991 24.4506 11.8322 24.5653 11.745 24.6637C11.6578 24.7622 11.5521 24.8426 11.4339 24.9002C11.3157 24.9579 11.1873 24.9917 11.056 24.9997C10.9247 25.0077 10.7931 24.9898 10.6688 24.9469C10.5444 24.9041 10.4297 24.8372 10.3312 24.75L1.33124 16.75C1.22483 16.6562 1.13961 16.5407 1.08124 16.4114C1.02286 16.2821 0.992676 16.1419 0.992676 16C0.992676 15.8581 1.02286 15.7179 1.08124 15.5886C1.13961 15.4593 1.22483 15.3438 1.33124 15.25L10.3312 7.25C10.4297 7.16251 10.5445 7.09527 10.669 7.05213C10.7934 7.00899 10.9252 6.99078 11.0567 6.99856C11.1882 7.00634 11.3169 7.03994 11.4354 7.09745C11.554 7.15497 11.66 7.23526 11.7475 7.33375C11.835 7.43224 11.9022 7.547 11.9454 7.67148C11.9885 7.79595 12.0067 7.92771 11.9989 8.05922C11.9911 8.19073 11.9575 8.31942 11.9 8.43795C11.8425 8.55647 11.7622 8.66251 11.6637 8.75ZM30.6637 15.25L21.6637 7.25C21.4648 7.07396 21.2041 6.98415 20.939 7.00033C20.6739 7.0165 20.426 7.13734 20.25 7.33625C20.074 7.53516 19.9841 7.79586 20.0003 8.06099C20.0165 8.32612 20.1373 8.57396 20.3362 8.75L28.5 16L20.3412 23.25C20.2427 23.3372 20.1624 23.4429 20.1048 23.5611C20.0471 23.6793 20.0133 23.8077 20.0053 23.939C19.9973 24.0703 20.0152 24.2019 20.0581 24.3262C20.1009 24.4506 20.1678 24.5653 20.255 24.6637C20.3422 24.7622 20.4479 24.8426 20.5661 24.9002C20.6843 24.9579 20.8127 24.9917 20.944 24.9997C21.0753 25.0077 21.2069 24.9898 21.3312 24.9469C21.4556 24.9041 21.5702 24.8372 21.6687 24.75L30.6687 16.75C30.7751 16.6562 30.8604 16.5407 30.9187 16.4114C30.9771 16.2821 31.0073 16.1419 31.0073 16C31.0073 15.8581 30.9771 15.7179 30.9187 15.5886C30.8604 15.4593 30.7751 15.3438 30.6687 15.25H30.6637Z" fill="#343330"/>
</svg>
