<svg width="32" height="32" viewBox="0 0 32 32" fill="none" xmlns="http://www.w3.org/2000/svg">
<path d="M29.4737 11.125L16.4737 4.125C16.3281 4.04666 16.1654 4.00566 16 4.00566C15.8346 4.00566 15.6719 4.04666 15.5262 4.125L2.52625 11.125C2.36801 11.2101 2.23564 11.3363 2.14303 11.4903C2.05043 11.6442 2.00102 11.8203 2 12V20C1.99989 20.1807 2.04877 20.3581 2.14143 20.5133C2.2341 20.6685 2.36708 20.7956 2.52625 20.8813L15.5262 27.8813C15.6719 27.9596 15.8346 28.0006 16 28.0006C16.1654 28.0006 16.3281 27.9596 16.4737 27.8813L29.4737 20.8813C29.6329 20.7956 29.7659 20.6685 29.8586 20.5133C29.9512 20.3581 30.0001 20.1807 30 20V12C29.999 11.8203 29.9496 11.6442 29.857 11.4903C29.7644 11.3363 29.632 11.2101 29.4737 11.125ZM28 18.3263L23.6812 16L28 13.6738V18.3263ZM21.5713 14.8638L17 12.4025V6.67375L26.8913 12L21.5713 14.8638ZM16 17.8638L12.5375 16L16 14.1363L19.4625 16L16 17.8638ZM15 6.67375V12.4025L10.4288 14.8638L5.10875 12L15 6.67375ZM4 13.6738L8.31875 16L4 18.3263V13.6738ZM10.4288 17.1363L15 19.5975V25.3263L5.10875 20L10.4288 17.1363ZM17 25.3263V19.5975L21.5713 17.1363L26.8913 20L17 25.3263Z" fill="#343330"/>
</svg>
