<svg width="32" height="32" viewBox="0 0 32 32" fill="none" xmlns="http://www.w3.org/2000/svg">
<path d="M27.96 8.26875L16.96 2.25C16.6659 2.08827 16.3357 2.00348 16 2.00348C15.6643 2.00348 15.3341 2.08827 15.04 2.25L4.04 8.2725C3.72586 8.44438 3.46363 8.69745 3.28069 9.00528C3.09775 9.31311 3.00081 9.66441 3 10.0225V21.9775C3.00081 22.3356 3.09775 22.6869 3.28069 22.9947C3.46363 23.3025 3.72586 23.5556 4.04 23.7275L15.04 29.7487C15.3339 29.9111 15.6642 29.9963 16 29.9963C16.3358 29.9963 16.6661 29.9111 16.96 29.7487L27.96 23.7275C28.2741 23.5556 28.5364 23.3025 28.7193 22.9947C28.9023 22.6869 28.9992 22.3356 29 21.9775V10.0225C28.9999 9.66377 28.9032 9.31169 28.7203 9.00314C28.5373 8.69459 28.2747 8.44093 27.96 8.26875ZM21 19V25.2612L17 27.4512V16.5925L27 11.1175V15.1175L21.52 18.1175C21.3618 18.204 21.23 18.3318 21.1384 18.4871C21.0469 18.6425 20.9991 18.8197 21 19ZM10.48 18.125L5 15.125V11.125L15 16.6V27.4587L11 25.2612V19C10.9996 18.821 10.9511 18.6453 10.8597 18.4914C10.7682 18.3375 10.6371 18.2109 10.48 18.125ZM10.3925 7.07375L15.5175 9.88C15.6647 9.96052 15.8297 10.0027 15.9975 10.0027C16.1653 10.0027 16.3303 9.96052 16.4775 9.88L21.6025 7.07375L25.9125 9.4325L16 14.86L6.0825 9.43L10.3925 7.07375ZM16 4L19.525 5.93L16 7.86125L12.475 5.93125L16 4ZM5 17.4025L9 19.5925V24.1662L5 21.9775V17.4025ZM23 24.1662V19.5925L27 17.4025V21.9775L23 24.1662Z" fill="#343330"/>
</svg>
