<svg width="32" height="32" viewBox="0 0 32 32" fill="none" xmlns="http://www.w3.org/2000/svg">
<path d="M26.4688 5.53127C24.375 3.43377 21.2963 2.59877 17.8075 3.18002C14.4438 3.74127 11.0738 5.56627 8.32004 8.32002C5.56629 11.0738 3.74129 14.445 3.18004 17.8075C2.59879 21.2963 3.43004 24.3713 5.53129 26.4688C7.19254 28.1313 9.46879 29 12.0775 29C12.7863 28.998 13.4937 28.9378 14.1925 28.82C17.5563 28.2588 20.9263 26.4338 23.68 23.68C26.4338 20.9263 28.2588 17.555 28.82 14.1925C29.4013 10.7038 28.5663 7.62502 26.4688 5.53127ZM9.73379 9.73377C12.82 6.64877 16.625 4.99127 19.8938 4.99127C21.1518 4.9721 22.3956 5.25818 23.5188 5.82502C22.1179 6.31377 20.8067 7.02911 19.6375 7.94252C17.2375 9.83752 15.6838 12.4825 15.02 15.8038C13.805 21.8763 9.43254 23.9513 6.58504 24.6588C3.58879 21.095 4.92504 14.5438 9.73379 9.73377ZM22.2663 22.2663C17.93 26.6013 12.1775 28.1138 8.47629 26.175C9.87871 25.6863 11.1915 24.971 12.3625 24.0575C14.7625 22.1625 16.3163 19.5175 16.98 16.1963C18.195 10.1238 22.5675 8.04877 25.415 7.34127C28.4113 10.905 27.075 17.4563 22.2663 22.2663Z" fill="#343330"/>
</svg>
