<svg width="32" height="32" viewBox="0 0 32 32" fill="none" xmlns="http://www.w3.org/2000/svg">
<path d="M10 4H7C6.46957 4 5.96086 4.21071 5.58579 4.58579C5.21071 4.96086 5 5.46957 5 6V26C5 26.5304 5.21071 27.0391 5.58579 27.4142C5.96086 27.7893 6.46957 28 7 28H10C10.5304 28 11.0391 27.7893 11.4142 27.4142C11.7893 27.0391 12 26.5304 12 26V6C12 5.46957 11.7893 4.96086 11.4142 4.58579C11.0391 4.21071 10.5304 4 10 4ZM10 26H7V6H10V26ZM19 4H16C15.4696 4 14.9609 4.21071 14.5858 4.58579C14.2107 4.96086 14 5.46957 14 6V26C14 26.5304 14.2107 27.0391 14.5858 27.4142C14.9609 27.7893 15.4696 28 16 28H19C19.5304 28 20.0391 27.7893 20.4142 27.4142C20.7893 27.0391 21 26.5304 21 26V6C21 5.46957 20.7893 4.96086 20.4142 4.58579C20.0391 4.21071 19.5304 4 19 4ZM19 26H16V6H19V26ZM31 16C31 16.2652 30.8946 16.5196 30.7071 16.7071C30.5196 16.8946 30.2652 17 30 17H28V19C28 19.2652 27.8946 19.5196 27.7071 19.7071C27.5196 19.8946 27.2652 20 27 20C26.7348 20 26.4804 19.8946 26.2929 19.7071C26.1054 19.5196 26 19.2652 26 19V17H24C23.7348 17 23.4804 16.8946 23.2929 16.7071C23.1054 16.5196 23 16.2652 23 16C23 15.7348 23.1054 15.4804 23.2929 15.2929C23.4804 15.1054 23.7348 15 24 15H26V13C26 12.7348 26.1054 12.4804 26.2929 12.2929C26.4804 12.1054 26.7348 12 27 12C27.2652 12 27.5196 12.1054 27.7071 12.2929C27.8946 12.4804 28 12.7348 28 13V15H30C30.2652 15 30.5196 15.1054 30.7071 15.2929C30.8946 15.4804 31 15.7348 31 16Z" fill="#343330"/>
</svg>
