<svg width="32" height="32" viewBox="0 0 32 32" fill="none" xmlns="http://www.w3.org/2000/svg">
<path d="M26.89 15.455C26.9544 15.3377 26.9946 15.2087 27.0083 15.0756C27.0219 14.9425 27.0087 14.808 26.9694 14.68C26.9301 14.5521 26.8655 14.4334 26.7795 14.3309C26.6935 14.2284 26.5878 14.1442 26.4687 14.0833C26.3495 14.0224 26.2194 13.986 26.0859 13.9763C25.9524 13.9666 25.8184 13.9838 25.6917 14.0268C25.565 14.0699 25.4482 14.1379 25.3483 14.2269C25.2484 14.316 25.1674 14.4241 25.11 14.545C24.1856 16.3259 22.7441 17.7857 20.975 18.7325L18.9025 14.0675C19.6946 13.5019 20.3044 12.7174 20.6571 11.8103C21.0098 10.9032 21.0901 9.91279 20.8881 8.96068C20.6861 8.00857 20.2106 7.13612 19.52 6.45033C18.8293 5.76455 17.9535 5.29525 17 5.1V3C17 2.73478 16.8947 2.48043 16.7071 2.29289C16.5196 2.10536 16.2652 2 16 2C15.7348 2 15.4804 2.10536 15.2929 2.29289C15.1054 2.48043 15 2.73478 15 3V5.1C14.0465 5.29525 13.1707 5.76455 12.48 6.45033C11.7894 7.13612 11.3139 8.00857 11.1119 8.96068C10.9099 9.91279 10.9902 10.9032 11.3429 11.8103C11.6956 12.7174 12.3054 13.5019 13.0975 14.0675L7.08626 27.5938C7.03219 27.7139 7.00237 27.8435 6.99853 27.9751C6.99469 28.1068 7.0169 28.2379 7.06388 28.361C7.11086 28.484 7.18169 28.5966 7.27229 28.6922C7.3629 28.7878 7.4715 28.8645 7.59185 28.918C7.71221 28.9715 7.84195 29.0007 7.97363 29.004C8.1053 29.0072 8.23632 28.9844 8.35915 28.9368C8.48198 28.8893 8.59421 28.8179 8.68938 28.7269C8.78456 28.6358 8.86081 28.5269 8.91376 28.4062L12.0563 21.3363C13.3242 21.7777 14.6574 22.0021 16 22C17.3433 21.9984 18.6773 21.7785 19.95 21.3487L23.0863 28.4062C23.1948 28.6473 23.3944 28.8356 23.6414 28.93C23.8884 29.0243 24.1628 29.0169 24.4044 28.9095C24.646 28.8021 24.8352 28.6033 24.9307 28.3568C25.0261 28.1102 25.02 27.8359 24.9138 27.5938L21.7888 20.5625C23.974 19.4252 25.7554 17.6416 26.89 15.455ZM16 7C16.5934 7 17.1734 7.17595 17.6667 7.50559C18.1601 7.83524 18.5446 8.30377 18.7716 8.85195C18.9987 9.40013 19.0581 10.0033 18.9424 10.5853C18.8266 11.1672 18.5409 11.7018 18.1213 12.1213C17.7018 12.5409 17.1672 12.8266 16.5853 12.9424C16.0033 13.0581 15.4001 12.9987 14.852 12.7716C14.3038 12.5446 13.8352 12.1601 13.5056 11.6667C13.176 11.1734 13 10.5933 13 10C13 9.20435 13.3161 8.44129 13.8787 7.87868C14.4413 7.31607 15.2044 7 16 7ZM16 20C14.9383 20.0013 13.8833 19.8325 12.875 19.5L14.9275 14.8825C15.6356 15.0392 16.3694 15.0392 17.0775 14.8825L19.1375 19.515C18.1227 19.8363 17.0645 19.9998 16 20Z" fill="#343330"/>
</svg>
