<svg width="32" height="32" viewBox="0 0 32 32" fill="none" xmlns="http://www.w3.org/2000/svg">
<path d="M31.2425 15.03L27.8612 14.185C27.4772 11.6579 26.2951 9.31979 24.4877 7.51233C22.6802 5.70488 20.3421 4.52278 17.815 4.13875L16.97 0.763746C16.9158 0.547519 16.7909 0.355598 16.6152 0.218465C16.4394 0.0813324 16.2229 0.0068512 16 0.0068512C15.7771 0.0068512 15.5606 0.0813324 15.3848 0.218465C15.2091 0.355598 15.0842 0.547519 15.03 0.763746L14.185 4.145C11.6579 4.52903 9.31979 5.71113 7.51234 7.51858C5.70488 9.32604 4.52278 11.6641 4.13875 14.1912L0.76375 15.0362C0.547523 15.0904 0.355602 15.2153 0.218469 15.3911C0.0813362 15.5668 0.00685501 15.7833 0.00685501 16.0062C0.00685501 16.2292 0.0813362 16.4457 0.218469 16.6214C0.355602 16.7972 0.547523 16.9221 0.76375 16.9762L4.145 17.8212C4.52903 20.3484 5.71113 22.6865 7.51859 24.4939C9.32604 26.3014 11.6641 27.4835 14.1912 27.8675L15.0363 31.2487C15.0904 31.465 15.2153 31.6569 15.3911 31.794C15.5668 31.9312 15.7833 32.0056 16.0063 32.0056C16.2292 32.0056 16.4457 31.9312 16.6214 31.794C16.7972 31.6569 16.9221 31.465 16.9762 31.2487L17.8213 27.8675C20.3484 27.4835 22.6865 26.3014 24.4939 24.4939C26.3014 22.6865 27.4835 20.3484 27.8675 17.8212L31.2488 16.9762C31.465 16.9221 31.6569 16.7972 31.794 16.6214C31.9312 16.4457 32.0056 16.2292 32.0056 16.0062C32.0056 15.7833 31.9312 15.5668 31.794 15.3911C31.6569 15.2153 31.465 15.0904 31.2488 15.0362L31.2425 15.03ZM19.3062 17.8925L17.4137 16L19.3062 14.1075L26.875 16L19.3062 17.8925ZM12.6938 17.8925L5.125 16L12.6962 14.1075L14.5863 16L12.6938 17.8925ZM25.7213 13.65L19.825 12.175L18.35 6.27875C20.1384 6.7092 21.7732 7.62533 23.0739 8.92606C24.3747 10.2268 25.2908 11.8616 25.7213 13.65ZM17.8925 12.6937L16 14.5862L14.1075 12.6937L16 5.125L17.8925 12.6937ZM13.65 6.27875L12.175 12.175L6.27875 13.65C6.7092 11.8616 7.62533 10.2268 8.92606 8.92606C10.2268 7.62533 11.8616 6.7092 13.65 6.27875ZM6.275 18.35L12.175 19.825L13.65 25.7212C11.8616 25.2908 10.2268 24.3747 8.92606 23.0739C7.62533 21.7732 6.7092 20.1384 6.27875 18.35H6.275ZM14.1038 19.3062L16 17.4137L17.8925 19.3062L16 26.875L14.1038 19.3062ZM18.3463 25.7212L19.8213 19.825L25.7175 18.35C25.2873 20.138 24.3718 21.7724 23.0718 23.0731C21.7717 24.3738 20.1377 25.2902 18.35 25.7212H18.3463Z" fill="#343330"/>
</svg>
