<svg width="32" height="32" viewBox="0 0 32 32" fill="none" xmlns="http://www.w3.org/2000/svg">
<path d="M13.9363 6.57875C13.7014 6.3445 13.4113 6.17318 13.0928 6.0806C12.7742 5.98802 12.4375 5.97716 12.1137 6.04903C11.7898 6.12089 11.4893 6.27317 11.2398 6.49181C10.9904 6.71044 10.8 6.98839 10.6863 7.3L4.125 25.3475C4.01721 25.6451 3.9824 25.9642 4.02347 26.2781C4.06455 26.5919 4.18032 26.8914 4.36106 27.1512C4.54181 27.4111 4.78225 27.6238 5.06221 27.7715C5.34217 27.9191 5.65348 27.9975 5.97 28C6.20305 27.9984 6.43402 27.9561 6.6525 27.875L24.6987 21.3125C25.0105 21.1989 25.2885 21.0086 25.5073 20.7592C25.7261 20.5098 25.8785 20.2093 25.9505 19.8855C26.0225 19.5616 26.0117 19.2248 25.9192 18.9062C25.8267 18.5876 25.6555 18.2975 25.4212 18.0625L13.9363 6.57875ZM12.895 23.48L8.52 19.105L10.165 14.5787L17.4213 21.835L12.895 23.48ZM6.02 25.98L7.77 21.1787L10.8263 24.235L6.02 25.98ZM19.5 21.08L10.92 12.5L12.545 8.01625L23.9737 19.445L19.5 21.08ZM20 9C20.0188 8.32396 20.1825 7.65983 20.48 7.0525C21.1425 5.72875 22.3925 5 24 5C24.8375 5 25.375 4.71375 25.7062 4.09875C25.8807 3.75468 25.9808 3.37777 26 2.9925C26.001 2.72728 26.1073 2.47332 26.2955 2.28649C26.4838 2.09966 26.7385 1.99526 27.0037 1.99625C27.269 1.99724 27.5229 2.10356 27.7098 2.29179C27.8966 2.48003 28.001 2.73478 28 3C28 4.6075 26.935 7 24 7C23.1625 7 22.625 7.28625 22.2938 7.90125C22.1193 8.24532 22.0192 8.62223 22 9.0075C21.9995 9.13882 21.9732 9.26876 21.9224 9.3899C21.8717 9.51103 21.7977 9.621 21.7045 9.71351C21.6112 9.80602 21.5007 9.87926 21.3792 9.92906C21.2577 9.97886 21.1276 10.0042 20.9963 10.0037C20.8649 10.0033 20.735 9.9769 20.6139 9.92619C20.4927 9.87548 20.3828 9.80141 20.2902 9.70821C20.1977 9.615 20.1245 9.50448 20.0747 9.38297C20.0249 9.26145 19.9995 9.13132 20 9ZM17 5V2C17 1.73478 17.1054 1.48043 17.2929 1.29289C17.4804 1.10536 17.7348 1 18 1C18.2652 1 18.5196 1.10536 18.7071 1.29289C18.8946 1.48043 19 1.73478 19 2V5C19 5.26522 18.8946 5.51957 18.7071 5.70711C18.5196 5.89464 18.2652 6 18 6C17.7348 6 17.4804 5.89464 17.2929 5.70711C17.1054 5.51957 17 5.26522 17 5ZM29.7075 15.2925C29.8003 15.3854 29.8739 15.4957 29.9242 15.6171C29.9744 15.7384 30.0002 15.8685 30.0001 15.9998C30.0001 16.1312 29.9741 16.2612 29.9238 16.3825C29.8735 16.5038 29.7998 16.614 29.7069 16.7069C29.614 16.7997 29.5037 16.8733 29.3823 16.9235C29.261 16.9737 29.1309 16.9995 28.9996 16.9995C28.8682 16.9994 28.7382 16.9735 28.6169 16.9232C28.4955 16.8729 28.3853 16.7992 28.2925 16.7062L26.2925 14.7063C26.1049 14.5186 25.9994 14.2641 25.9994 13.9987C25.9994 13.7334 26.1049 13.4789 26.2925 13.2913C26.4801 13.1036 26.7346 12.9982 27 12.9982C27.2654 12.9982 27.5199 13.1036 27.7075 13.2913L29.7075 15.2925ZM30.3162 9.94875L27.3162 10.9487C27.0646 11.0326 26.79 11.0131 26.5528 10.8945C26.3155 10.7759 26.1351 10.5679 26.0513 10.3162C25.9674 10.0646 25.9869 9.78999 26.1055 9.55276C26.2241 9.31552 26.4321 9.13513 26.6838 9.05125L29.6838 8.05125C29.9354 7.96738 30.21 7.98689 30.4472 8.10551C30.6845 8.22413 30.8649 8.43213 30.9487 8.68375C31.0326 8.93537 31.0131 9.21001 30.8945 9.44724C30.7759 9.68448 30.5679 9.86487 30.3162 9.94875Z" fill="#343330"/>
</svg>
