<svg width="32" height="32" viewBox="0 0 32 32" fill="none" xmlns="http://www.w3.org/2000/svg">
<path d="M25.7076 15.7075C25.6147 15.8005 25.5044 15.8742 25.383 15.9246C25.2616 15.9749 25.1315 16.0008 25.0001 16.0008C24.8687 16.0008 24.7385 15.9749 24.6171 15.9246C24.4957 15.8742 24.3854 15.8005 24.2926 15.7075L16.0001 7.41374L7.70757 15.7075C7.51993 15.8951 7.26543 16.0006 7.00007 16.0006C6.7347 16.0006 6.48021 15.8951 6.29257 15.7075C6.10493 15.5199 5.99951 15.2654 5.99951 15C5.99951 14.7346 6.10493 14.4801 6.29257 14.2925L15.2926 5.29249C15.3854 5.19952 15.4957 5.12576 15.6171 5.07543C15.7385 5.02511 15.8687 4.99921 16.0001 4.99921C16.1315 4.99921 16.2616 5.02511 16.383 5.07543C16.5044 5.12576 16.6147 5.19952 16.7076 5.29249L25.7076 14.2925C25.8005 14.3854 25.8743 14.4957 25.9246 14.6171C25.975 14.7385 26.0009 14.8686 26.0009 15C26.0009 15.1314 25.975 15.2615 25.9246 15.3829C25.8743 15.5043 25.8005 15.6146 25.7076 15.7075Z" fill="#343330"/>
</svg>
