<svg width="32" height="32" viewBox="0 0 32 32" fill="none" xmlns="http://www.w3.org/2000/svg">
<path d="M28 6H4C3.46957 6 2.96086 6.21071 2.58579 6.58579C2.21071 6.96086 2 7.46957 2 8V24C2 24.5304 2.21071 25.0391 2.58579 25.4142C2.96086 25.7893 3.46957 26 4 26H28C28.5304 26 29.0391 25.7893 29.4142 25.4142C29.7893 25.0391 30 24.5304 30 24V8C30 7.46957 29.7893 6.96086 29.4142 6.58579C29.0391 6.21071 28.5304 6 28 6ZM28 20H27C25.9391 20 24.9217 19.5786 24.1716 18.8284C23.4214 18.0783 23 17.0609 23 16C23 14.9391 23.4214 13.9217 24.1716 13.1716C24.9217 12.4214 25.9391 12 27 12H28V20ZM4 12H5C6.06087 12 7.07828 12.4214 7.82843 13.1716C8.57857 13.9217 9 14.9391 9 16C9 17.0609 8.57857 18.0783 7.82843 18.8284C7.07828 19.5786 6.06087 20 5 20H4V12ZM4 22H5C6.5913 22 8.11742 21.3679 9.24264 20.2426C10.3679 19.1174 11 17.5913 11 16C11 14.4087 10.3679 12.8826 9.24264 11.7574C8.11742 10.6321 6.5913 10 5 10H4V8H15V24H4V22ZM28 24H17V8H28V10H27C25.4087 10 23.8826 10.6321 22.7574 11.7574C21.6321 12.8826 21 14.4087 21 16C21 17.5913 21.6321 19.1174 22.7574 20.2426C23.8826 21.3679 25.4087 22 27 22H28V24Z" fill="#343330"/>
</svg>
