<svg width="32" height="32" viewBox="0 0 32 32" fill="none" xmlns="http://www.w3.org/2000/svg">
<path d="M13 24C13 24.2652 12.8947 24.5196 12.7071 24.7071C12.5196 24.8946 12.2652 25 12 25H10C9.7348 25 9.48045 24.8946 9.29291 24.7071C9.10537 24.5196 9.00002 24.2652 9.00002 24C9.00002 23.7348 9.10537 23.4804 9.29291 23.2929C9.48045 23.1054 9.7348 23 10 23H12C12.2652 23 12.5196 23.1054 12.7071 23.2929C12.8947 23.4804 13 23.7348 13 24ZM22 23H20C19.7348 23 19.4804 23.1054 19.2929 23.2929C19.1054 23.4804 19 23.7348 19 24C19 24.2652 19.1054 24.5196 19.2929 24.7071C19.4804 24.8946 19.7348 25 20 25H22C22.2652 25 22.5196 24.8946 22.7071 24.7071C22.8947 24.5196 23 24.2652 23 24C23 23.7348 22.8947 23.4804 22.7071 23.2929C22.5196 23.1054 22.2652 23 22 23ZM12.5 17C12.7967 17 13.0867 16.912 13.3334 16.7472C13.58 16.5824 13.7723 16.3481 13.8858 16.074C13.9994 15.7999 14.0291 15.4983 13.9712 15.2074C13.9133 14.9164 13.7705 14.6491 13.5607 14.4393C13.3509 14.2296 13.0836 14.0867 12.7927 14.0288C12.5017 13.9709 12.2001 14.0006 11.926 14.1142C11.6519 14.2277 11.4176 14.42 11.2528 14.6666C11.088 14.9133 11 15.2033 11 15.5C11 15.8978 11.1581 16.2794 11.4394 16.5607C11.7207 16.842 12.1022 17 12.5 17ZM19.5 17C19.7967 17 20.0867 16.912 20.3334 16.7472C20.58 16.5824 20.7723 16.3481 20.8858 16.074C20.9994 15.7999 21.0291 15.4983 20.9712 15.2074C20.9133 14.9164 20.7705 14.6491 20.5607 14.4393C20.3509 14.2296 20.0836 14.0867 19.7927 14.0288C19.5017 13.9709 19.2001 14.0006 18.926 14.1142C18.6519 14.2277 18.4176 14.42 18.2528 14.6666C18.088 14.9133 18 15.2033 18 15.5C18 15.8978 18.1581 16.2794 18.4394 16.5607C18.7207 16.842 19.1022 17 19.5 17ZM30.5488 15.265C30.3612 15.4947 30.125 15.6797 29.8571 15.8069C29.5893 15.934 29.2965 15.9999 29 16H25V20C25.8395 20.6296 26.4597 21.5075 26.7726 22.5092C27.0855 23.5108 27.0753 24.5856 26.7434 25.5811C26.4116 26.5767 25.7749 27.4426 24.9236 28.0562C24.0722 28.6698 23.0494 29 22 29H10C8.9506 29 7.92779 28.6698 7.07647 28.0562C6.22514 27.4426 5.58845 26.5767 5.2566 25.5811C4.92475 24.5856 4.91455 23.5108 5.22745 22.5092C5.54035 21.5075 6.16049 20.6296 7.00002 20V16H3.00002C2.70587 15.9995 2.41545 15.9342 2.14946 15.8086C1.88346 15.683 1.64844 15.5003 1.46115 15.2735C1.27385 15.0467 1.13889 14.7814 1.06588 14.4964C0.992872 14.2115 0.983614 13.9139 1.03877 13.625C1.35941 12.0401 2.21768 10.6145 3.46839 9.58953C4.7191 8.56454 6.28547 8.00304 7.90252 8H8.10752C7.44019 7.34951 6.9099 6.57196 6.54793 5.71321C6.18597 4.85446 5.99967 3.93191 6.00002 3C6.00002 2.73478 6.10537 2.48043 6.29291 2.29289C6.48045 2.10536 6.7348 2 7.00002 2C7.26523 2 7.51959 2.10536 7.70712 2.29289C7.89466 2.48043 8.00002 2.73478 8.00002 3C8.00002 4.32608 8.5268 5.59785 9.46448 6.53553C10.4022 7.47322 11.6739 8 13 8H19C19.6566 8 20.3068 7.87067 20.9134 7.6194C21.5201 7.36812 22.0713 6.99983 22.5356 6.53553C22.9998 6.07124 23.3681 5.52005 23.6194 4.91342C23.8707 4.30679 24 3.65661 24 3C24 2.73478 24.1054 2.48043 24.2929 2.29289C24.4804 2.10536 24.7348 2 25 2C25.2652 2 25.5196 2.10536 25.7071 2.29289C25.8947 2.48043 26 2.73478 26 3C26.0004 3.93191 25.8141 4.85446 25.4521 5.71321C25.0901 6.57196 24.5598 7.34951 23.8925 8H24.0975C25.7146 8.00304 27.2809 8.56454 28.5316 9.58953C29.7824 10.6145 30.6406 12.0401 30.9613 13.625C31.018 13.9119 31.0105 14.2077 30.9392 14.4913C30.8678 14.7749 30.7345 15.0391 30.5488 15.265ZM9.00002 19.1C9.32922 19.0336 9.6642 19.0001 10 19H22C22.3358 19.0001 22.6708 19.0336 23 19.1V13C23 12.2044 22.6839 11.4413 22.1213 10.8787C21.5587 10.3161 20.7957 10 20 10H12C11.2044 10 10.4413 10.3161 9.8787 10.8787C9.31609 11.4413 9.00002 12.2044 9.00002 13V19.1ZM7.00002 14V13C6.9983 11.9179 7.34936 10.8647 8.00002 10H7.90002C6.74792 10.0019 5.63166 10.4007 4.73918 11.1292C3.84669 11.8578 3.2325 12.8716 3.00002 14H7.00002ZM25 24C25 23.2044 24.6839 22.4413 24.1213 21.8787C23.5587 21.3161 22.7957 21 22 21H10C9.20437 21 8.44131 21.3161 7.8787 21.8787C7.31609 22.4413 7.00002 23.2044 7.00002 24C7.00002 24.7956 7.31609 25.5587 7.8787 26.1213C8.44131 26.6839 9.20437 27 10 27H22C22.7957 27 23.5587 26.6839 24.1213 26.1213C24.6839 25.5587 25 24.7956 25 24ZM29 14C28.7677 12.8715 28.1536 11.8575 27.2611 11.1289C26.3686 10.4003 25.2522 10.0016 24.1 10H24C24.6507 10.8647 25.0017 11.9179 25 13V14H29Z" fill="#343330"/>
</svg>
