<svg width="32" height="32" viewBox="0 0 32 32" fill="none" xmlns="http://www.w3.org/2000/svg">
<path d="M27 15C26.8305 15.0001 26.6638 15.0433 26.5155 15.1255C26.3673 15.2077 26.2423 15.3263 26.1525 15.47C25.6305 16.3087 25.0539 17.1121 24.4263 17.875L22.29 6.63376C22.2264 6.29437 22.0761 5.97722 21.8536 5.71317C21.6311 5.44912 21.344 5.24718 21.0203 5.12699C20.6967 5.0068 20.3474 4.97246 20.0065 5.02731C19.6655 5.08217 19.3447 5.22434 19.075 5.44001L19.0588 5.45251L16 8.00001L12.9412 5.45251L12.925 5.44001C12.6555 5.22436 12.3348 5.08213 11.9941 5.02714C11.6533 4.97214 11.3042 5.00627 10.9805 5.12619C10.6569 5.24611 10.3698 5.44774 10.1471 5.71148C9.92451 5.97521 9.77391 6.29208 9.71 6.63126L7.57375 17.875C6.94591 17.1119 6.36923 16.308 5.8475 15.4688C5.7575 15.3252 5.63252 15.2069 5.48428 15.1249C5.33604 15.0429 5.1694 15 5 15C3.67392 15 2.40215 15.5268 1.46447 16.4645C0.526784 17.4022 0 18.6739 0 20C0 21.3261 0.526784 22.5979 1.46447 23.5355C2.40215 24.4732 3.67392 25 5 25H27C28.3261 25 29.5979 24.4732 30.5355 23.5355C31.4732 22.5979 32 21.3261 32 20C32 18.6739 31.4732 17.4022 30.5355 16.4645C29.5979 15.5268 28.3261 15 27 15ZM11.6763 7.00001L14.735 9.55001L14.75 9.56251C15.1039 9.84824 15.5451 10.0041 16 10.0041C16.4549 10.0041 16.896 9.84824 17.25 9.56251L17.265 9.55001L20.3237 7.00001L22.0338 16H9.96625L11.6763 7.00001ZM5 23C4.24934 23 3.52597 22.7185 2.97269 22.2112C2.41941 21.7039 2.07642 21.0076 2.01143 20.2597C1.94644 19.5119 2.16417 18.7669 2.62165 18.1717C3.07913 17.5766 3.7431 17.1745 4.4825 17.045C6.41 19.9788 8.46625 21.8313 10.3 23H5ZM16 23C15.9587 23 12.8138 22.95 9.2675 19.675L9.585 18H22.4137L22.7313 19.6688C21.7149 20.6245 20.5629 21.4248 19.3125 22.0438C17.3875 22.9713 16.0075 23 16 23ZM27 23H21.7C23.5338 21.8313 25.59 19.9788 27.5175 17.045C28.2569 17.1745 28.9209 17.5766 29.3783 18.1717C29.8358 18.7669 30.0536 19.5119 29.9886 20.2597C29.9236 21.0076 29.5806 21.7039 29.0273 22.2112C28.474 22.7185 27.7507 23 27 23Z" fill="#343330"/>
</svg>
