<svg width="32" height="32" viewBox="0 0 32 32" fill="none" xmlns="http://www.w3.org/2000/svg">
<path d="M28.515 2.1425C28.3669 2.05364 28.1984 2.00464 28.0258 2.00026C27.8532 1.99588 27.6824 2.03627 27.53 2.1175L12.75 10H4C3.46957 10 2.96086 10.2107 2.58579 10.5858C2.21071 10.9609 2 11.4696 2 12V25C2 25.5304 2.21071 26.0391 2.58579 26.4142C2.96086 26.7893 3.46957 27 4 27H15C15.5304 27 16.0391 26.7893 16.4142 26.4142C16.7893 26.0391 17 25.5304 17 25V21C17.0003 20.9026 16.9859 20.8057 16.9575 20.7125L14.1925 11.5L27 4.66625V20H25V19C25 18.7348 24.8946 18.4804 24.7071 18.2929C24.5196 18.1054 24.2652 18 24 18C23.7348 18 23.4804 18.1054 23.2929 18.2929C23.1054 18.4804 23 18.7348 23 19V20C23 20.5304 23.2107 21.0391 23.5858 21.4142C23.9609 21.7893 24.4696 22 25 22H27C27.5304 22 28.0391 21.7893 28.4142 21.4142C28.7893 21.0391 29 20.5304 29 20V3C29.0001 2.82736 28.9554 2.65765 28.8704 2.50738C28.7854 2.35711 28.663 2.23141 28.515 2.1425ZM12.2563 12L14.6562 20H8V12H12.2563ZM6 12V20H4V12H6ZM4 25V22H15V25H4Z" fill="#343330"/>
</svg>
