<svg width="32" height="32" viewBox="0 0 32 32" fill="none" xmlns="http://www.w3.org/2000/svg">
<path d="M30.4137 10.1712L23.8288 3.58619C23.643 3.40043 23.4225 3.25307 23.1798 3.15253C22.9372 3.05199 22.6771 3.00024 22.4144 3.00024C22.1517 3.00024 21.8916 3.05199 21.6489 3.15253C21.4062 3.25307 21.1857 3.40043 21 3.58619L7.58625 16.9999C7.40048 17.1857 7.25312 17.4062 7.15259 17.6488C7.05205 17.8915 7.0003 18.1516 7.0003 18.4143C7.0003 18.677 7.05205 18.9371 7.15259 19.1798C7.25312 19.4225 7.40048 19.643 7.58625 19.8287L10.1713 22.4137L4.29625 28.2887C4.10861 28.4763 4.00319 28.7308 4.00319 28.9962C4.00319 29.2616 4.10861 29.5161 4.29625 29.7037C4.48389 29.8913 4.73839 29.9967 5.00375 29.9967C5.26911 29.9967 5.52361 29.8913 5.71125 29.7037L11.5863 23.8287L14.1713 26.4137C14.357 26.5995 14.5775 26.7468 14.8202 26.8474C15.0628 26.9479 15.3229 26.9996 15.5856 26.9996C15.8483 26.9996 16.1084 26.9479 16.3511 26.8474C16.5938 26.7468 16.8143 26.5995 17 26.4137L30.4137 12.9999C30.5995 12.8142 30.7469 12.5937 30.8474 12.351C30.948 12.1084 30.9997 11.8482 30.9997 11.5856C30.9997 11.3229 30.948 11.0628 30.8474 10.8201C30.7469 10.5774 30.5995 10.3569 30.4137 10.1712ZM15.5863 24.9999L13 22.4137L16.7075 18.7074C16.8951 18.5198 17.0006 18.2653 17.0006 17.9999C17.0006 17.7346 16.8951 17.4801 16.7075 17.2924C16.5199 17.1048 16.2654 16.9994 16 16.9994C15.7346 16.9994 15.4801 17.1048 15.2925 17.2924L11.5863 20.9999L9 18.4137L13.4137 13.9999H20V20.5862L15.5863 24.9999ZM29 11.5862L22 18.5862V12.9999C22 12.7347 21.8946 12.4804 21.7071 12.2928C21.5196 12.1053 21.2652 11.9999 21 11.9999H15.4137L22.4137 4.99994L29 11.5849V11.5862ZM7.5 10.9999C8.19223 10.9999 8.86892 10.7947 9.4445 10.4101C10.0201 10.0255 10.4687 9.47888 10.7336 8.83933C10.9985 8.19979 11.0678 7.49606 10.9327 6.81713C10.7977 6.13819 10.4644 5.51455 9.97487 5.02507C9.48539 4.53558 8.86175 4.20224 8.18282 4.06719C7.50388 3.93215 6.80015 4.00146 6.16061 4.26636C5.52107 4.53127 4.97444 4.97987 4.58986 5.55545C4.20527 6.13102 4 6.80771 4 7.49994C4 8.4282 4.36875 9.31844 5.02513 9.97482C5.6815 10.6312 6.57174 10.9999 7.5 10.9999ZM7.5 5.99994C7.79667 5.99994 8.08668 6.08792 8.33335 6.25274C8.58003 6.41756 8.77229 6.65183 8.88582 6.92592C8.99935 7.20001 9.02906 7.50161 8.97118 7.79258C8.9133 8.08355 8.77044 8.35082 8.56066 8.5606C8.35088 8.77038 8.08361 8.91324 7.79264 8.97112C7.50166 9.029 7.20006 8.99929 6.92597 8.88576C6.65189 8.77223 6.41762 8.57997 6.2528 8.3333C6.08797 8.08662 6 7.79661 6 7.49994C6 7.10212 6.15804 6.72059 6.43934 6.43928C6.72064 6.15798 7.10218 5.99994 7.5 5.99994Z" fill="#343330"/>
</svg>
