<svg width="32" height="32" viewBox="0 0 32 32" fill="none" xmlns="http://www.w3.org/2000/svg">
<path d="M16 3C13.4288 3 10.9154 3.76244 8.77759 5.1909C6.63975 6.61935 4.9735 8.64968 3.98956 11.0251C3.00563 13.4006 2.74818 16.0144 3.24979 18.5362C3.7514 21.0579 4.98953 23.3743 6.80761 25.1924C8.62569 27.0105 10.9421 28.2486 13.4638 28.7502C15.9856 29.2518 18.5994 28.9944 20.9749 28.0104C23.3503 27.0265 25.3806 25.3603 26.8091 23.2224C28.2376 21.0846 29 18.5712 29 16C28.9964 12.5533 27.6255 9.24882 25.1884 6.81163C22.7512 4.37445 19.4467 3.00364 16 3ZM17 26.9538V23C17 22.7348 16.8946 22.4804 16.7071 22.2929C16.5196 22.1054 16.2652 22 16 22C15.7348 22 15.4804 22.1054 15.2929 22.2929C15.1054 22.4804 15 22.7348 15 23V26.9538C12.4401 26.7167 10.0438 25.5919 8.22592 23.7741C6.40808 21.9562 5.28325 19.5599 5.04625 17H9C9.26521 17 9.51957 16.8946 9.7071 16.7071C9.89464 16.5196 10 16.2652 10 16C10 15.7348 9.89464 15.4804 9.7071 15.2929C9.51957 15.1054 9.26521 15 9 15H5.04625C5.28325 12.4401 6.40808 10.0438 8.22592 8.22592C10.0438 6.40808 12.4401 5.28325 15 5.04625V9C15 9.26522 15.1054 9.51957 15.2929 9.70711C15.4804 9.89464 15.7348 10 16 10C16.2652 10 16.5196 9.89464 16.7071 9.70711C16.8946 9.51957 17 9.26522 17 9V5.04625C19.5599 5.28325 21.9562 6.40808 23.7741 8.22592C25.5919 10.0438 26.7167 12.4401 26.9537 15H23C22.7348 15 22.4804 15.1054 22.2929 15.2929C22.1054 15.4804 22 15.7348 22 16C22 16.2652 22.1054 16.5196 22.2929 16.7071C22.4804 16.8946 22.7348 17 23 17H26.9537C26.7167 19.5599 25.5919 21.9562 23.7741 23.7741C21.9562 25.5919 19.5599 26.7167 17 26.9538Z" fill="#343330"/>
</svg>
