<svg width="32" height="32" viewBox="0 0 32 32" fill="none" xmlns="http://www.w3.org/2000/svg">
<path d="M31 9.99999C31.0005 9.45181 30.8722 8.91119 30.6255 8.42167C30.3787 7.93215 30.0205 7.50743 29.5796 7.18172C29.1386 6.85601 28.6274 6.63843 28.087 6.5465C27.5465 6.45457 26.9921 6.49086 26.4683 6.65246C25.9444 6.81405 25.4659 7.09643 25.0712 7.47683C24.6765 7.85724 24.3767 8.32504 24.1959 8.84254C24.0151 9.36004 23.9583 9.91278 24.0303 10.4562C24.1022 10.9997 24.3008 11.5186 24.61 11.9712L21.2612 16.0962L18.25 9.17499C18.7992 8.71277 19.193 8.09285 19.378 7.39928C19.563 6.70571 19.5303 5.97202 19.2843 5.29767C19.0383 4.62332 18.5909 4.04092 18.0027 3.62941C17.4145 3.2179 16.7141 2.99719 15.9963 2.99719C15.2784 2.99719 14.578 3.2179 13.9898 3.62941C13.4016 4.04092 12.9542 4.62332 12.7082 5.29767C12.4622 5.97202 12.4295 6.70571 12.6145 7.39928C12.7995 8.09285 13.1933 8.71277 13.7425 9.17499L10.7388 16.0925L7.39 11.9675C7.82018 11.3372 8.03256 10.5835 7.9948 9.82135C7.95705 9.05917 7.67122 8.3302 7.18086 7.74549C6.69049 7.16077 6.02246 6.75234 5.2785 6.5824C4.53455 6.41246 3.75543 6.49033 3.05982 6.80414C2.36421 7.11795 1.79022 7.6505 1.42527 8.3207C1.06032 8.9909 0.924415 9.76201 1.03825 10.5166C1.15208 11.2712 1.50941 11.9679 2.05582 12.5006C2.60223 13.0333 3.30777 13.3728 4.065 13.4675L5.875 24.3287C5.95281 24.7957 6.19374 25.2199 6.55491 25.5259C6.91609 25.8319 7.37411 25.9999 7.8475 26H24.1525C24.6259 25.9999 25.0839 25.8319 25.4451 25.5259C25.8063 25.2199 26.0472 24.7957 26.125 24.3287L27.9338 13.4725C28.7802 13.3668 29.5589 12.9556 30.1236 12.3161C30.6882 11.6767 30.9999 10.853 31 9.99999ZM16 4.99999C16.2967 4.99999 16.5867 5.08797 16.8334 5.25279C17.08 5.41761 17.2723 5.65188 17.3858 5.92597C17.4993 6.20006 17.5291 6.50166 17.4712 6.79263C17.4133 7.0836 17.2704 7.35087 17.0607 7.56065C16.8509 7.77043 16.5836 7.91329 16.2926 7.97117C16.0017 8.02905 15.7001 7.99934 15.426 7.88581C15.1519 7.77228 14.9176 7.58002 14.7528 7.33335C14.588 7.08667 14.5 6.79666 14.5 6.49999C14.5 6.10217 14.658 5.72064 14.9393 5.43933C15.2206 5.15803 15.6022 4.99999 16 4.99999ZM3 9.99999C3 9.70332 3.08797 9.41331 3.2528 9.16664C3.41762 8.91996 3.65189 8.7277 3.92597 8.61417C4.20006 8.50064 4.50166 8.47094 4.79263 8.52881C5.08361 8.58669 5.35088 8.72955 5.56066 8.93933C5.77044 9.14911 5.9133 9.41638 5.97118 9.70736C6.02906 9.99833 5.99935 10.2999 5.88582 10.574C5.77229 10.8481 5.58003 11.0824 5.33335 11.2472C5.08668 11.412 4.79667 11.5 4.5 11.5C4.10217 11.5 3.72064 11.342 3.43934 11.0607C3.15803 10.7793 3 10.3978 3 9.99999ZM24.1525 24H7.8475L6.1075 13.565L10.2238 18.625C10.317 18.7414 10.4351 18.8356 10.5694 18.9004C10.7037 18.9653 10.8508 18.9993 11 19C11.0451 19.0002 11.0903 18.9973 11.135 18.9912C11.3054 18.9681 11.4669 18.9014 11.6039 18.7976C11.741 18.6938 11.849 18.5564 11.9175 18.3987L15.58 9.97374C15.8589 10.0087 16.1411 10.0087 16.42 9.97374L20.0825 18.3987C20.151 18.5564 20.259 18.6938 20.3961 18.7976C20.5331 18.9014 20.6946 18.9681 20.865 18.9912C20.9097 18.9973 20.9549 19.0002 21 19C21.1492 18.9993 21.2963 18.9653 21.4306 18.9004C21.5649 18.8356 21.683 18.7414 21.7763 18.625L25.8925 13.56L24.1525 24ZM27.5 11.5C27.2033 11.5 26.9133 11.412 26.6666 11.2472C26.42 11.0824 26.2277 10.8481 26.1142 10.574C26.0007 10.2999 25.9709 9.99833 26.0288 9.70736C26.0867 9.41638 26.2296 9.14911 26.4393 8.93933C26.6491 8.72955 26.9164 8.58669 27.2074 8.52881C27.4983 8.47094 27.7999 8.50064 28.074 8.61417C28.3481 8.7277 28.5824 8.91996 28.7472 9.16664C28.912 9.41331 29 9.70332 29 9.99999C29 10.3978 28.842 10.7793 28.5607 11.0607C28.2794 11.342 27.8978 11.5 27.5 11.5Z" fill="#343330"/>
</svg>
