<svg width="32" height="32" viewBox="0 0 32 32" fill="none" xmlns="http://www.w3.org/2000/svg">
<path d="M28.8625 9.20001C28.4714 9.00831 28.028 8.95083 27.601 9.03647C27.1739 9.1221 26.787 9.34608 26.5 9.67376L22.2913 14.21L17.8163 4.17376C17.816 4.16959 17.816 4.16542 17.8163 4.16126C17.6562 3.81419 17.4001 3.52024 17.0782 3.3142C16.7564 3.10816 16.3822 2.99866 16 2.99866C15.6178 2.99866 15.2436 3.10816 14.9218 3.3142C14.5999 3.52024 14.3438 3.81419 14.1838 4.16126C14.184 4.16542 14.184 4.16959 14.1838 4.17376L9.70876 14.21L5.50001 9.67376C5.21121 9.34602 4.82307 9.12185 4.39487 9.03548C3.96667 8.94912 3.52197 9.00532 3.12872 9.1955C2.73547 9.38568 2.4153 9.69937 2.21712 10.0886C2.01895 10.4779 1.95367 10.9214 2.03126 11.3513C2.03126 11.365 2.03126 11.3775 2.04001 11.3913L4.87501 24.375C4.96228 24.8322 5.20628 25.2446 5.56496 25.5413C5.92365 25.8379 6.37456 26.0001 6.84001 26H25.1613C25.6265 25.9998 26.0771 25.8375 26.4355 25.5409C26.794 25.2443 27.0378 24.832 27.125 24.375L29.96 11.3913C29.96 11.3775 29.96 11.365 29.9688 11.3513C30.0478 10.9209 29.9822 10.4764 29.7821 10.0872C29.5819 9.69804 29.2586 9.38607 28.8625 9.20001ZM25.1688 23.96L25.1613 24H6.83876L6.83126 23.96L4.00001 11L4.01751 11.02L9.26751 16.675C9.37993 16.7965 9.52074 16.8882 9.67732 16.9418C9.83389 16.9955 10.0013 17.0094 10.1646 16.9824C10.3279 16.9554 10.482 16.8883 10.6129 16.7871C10.7439 16.6858 10.8477 16.5537 10.915 16.4025L16 5.00001L21.0863 16.4063C21.1536 16.5575 21.2574 16.6896 21.3883 16.7908C21.5193 16.892 21.6733 16.9591 21.8366 16.9861C21.9999 17.0132 22.1674 16.9992 22.3239 16.9456C22.4805 16.8919 22.6213 16.8002 22.7338 16.6788L27.9838 11.0238L28 11L25.1688 23.96Z" fill="#343330"/>
</svg>
