<svg width="32" height="32" viewBox="0 0 32 32" fill="none" xmlns="http://www.w3.org/2000/svg">
<path d="M22.5 7C20.2825 7 18.3487 7.81 17 9.145V5H19C19.2652 5 19.5196 4.89464 19.7071 4.70711C19.8946 4.51957 20 4.26522 20 4C20 3.73478 19.8946 3.48043 19.7071 3.29289C19.5196 3.10536 19.2652 3 19 3H17V1C17 0.734784 16.8946 0.48043 16.7071 0.292893C16.5196 0.105357 16.2652 0 16 0C15.7348 0 15.4804 0.105357 15.2929 0.292893C15.1054 0.48043 15 0.734784 15 1V3H13C12.7348 3 12.4804 3.10536 12.2929 3.29289C12.1054 3.48043 12 3.73478 12 4C12 4.26522 12.1054 4.51957 12.2929 4.70711C12.4804 4.89464 12.7348 5 13 5H15V9.145C13.6512 7.81 11.7175 7 9.5 7C7.51159 7.00232 5.60528 7.79324 4.19926 9.19926C2.79324 10.6053 2.00232 12.5116 2 14.5C2 18.2325 3.8175 20.6063 5.34125 21.94C6.14199 22.6378 7.03703 23.2194 8 23.6675V26C8 26.5304 8.21071 27.0391 8.58579 27.4142C8.96086 27.7893 9.46957 28 10 28H22C22.5304 28 23.0391 27.7893 23.4142 27.4142C23.7893 27.0391 24 26.5304 24 26V23.6675C24.963 23.2194 25.858 22.6378 26.6588 21.94C28.1825 20.6063 30 18.2325 30 14.5C29.9977 12.5116 29.2068 10.6053 27.8007 9.19926C26.3947 7.79324 24.4884 7.00232 22.5 7ZM22.6838 22.0513C22.4846 22.1176 22.3114 22.245 22.1887 22.4153C22.066 22.5855 22 22.7901 22 23V26H10V23C10 22.7901 9.93399 22.5855 9.81127 22.4153C9.68855 22.245 9.51537 22.1176 9.31625 22.0513C9.2625 22.0338 4 20.2125 4 14.5C4.00165 13.0418 4.58165 11.6438 5.61274 10.6127C6.64383 9.58165 8.04182 9.00165 9.5 9C12.6875 9 15 11.1025 15 14V22C15 22.2652 15.1054 22.5196 15.2929 22.7071C15.4804 22.8946 15.7348 23 16 23C16.2652 23 16.5196 22.8946 16.7071 22.7071C16.8946 22.5196 17 22.2652 17 22V14C17 11.1025 19.3125 9 22.5 9C23.9582 9.00165 25.3562 9.58165 26.3873 10.6127C27.4184 11.6438 27.9983 13.0418 28 14.5C28 20.175 22.8975 21.9788 22.6838 22.0513Z" fill="#343330"/>
</svg>
