<svg width="32" height="32" viewBox="0 0 32 32" fill="none" xmlns="http://www.w3.org/2000/svg">
<path d="M29 6V11C29 11.2652 28.8946 11.5196 28.7071 11.7071C28.5196 11.8946 28.2652 12 28 12C27.7348 12 27.4804 11.8946 27.2929 11.7071C27.1054 11.5196 27 11.2652 27 11V7H23C22.7348 7 22.4804 6.89464 22.2929 6.70711C22.1054 6.51957 22 6.26522 22 6C22 5.73478 22.1054 5.48043 22.2929 5.29289C22.4804 5.10536 22.7348 5 23 5H28C28.2652 5 28.5196 5.10536 28.7071 5.29289C28.8946 5.48043 29 5.73478 29 6ZM9 25H5V21C5 20.7348 4.89464 20.4804 4.70711 20.2929C4.51957 20.1054 4.26522 20 4 20C3.73478 20 3.48043 20.1054 3.29289 20.2929C3.10536 20.4804 3 20.7348 3 21V26C3 26.2652 3.10536 26.5196 3.29289 26.7071C3.48043 26.8946 3.73478 27 4 27H9C9.26522 27 9.51957 26.8946 9.70711 26.7071C9.89464 26.5196 10 26.2652 10 26C10 25.7348 9.89464 25.4804 9.70711 25.2929C9.51957 25.1054 9.26522 25 9 25ZM28 20C27.7348 20 27.4804 20.1054 27.2929 20.2929C27.1054 20.4804 27 20.7348 27 21V25H23C22.7348 25 22.4804 25.1054 22.2929 25.2929C22.1054 25.4804 22 25.7348 22 26C22 26.2652 22.1054 26.5196 22.2929 26.7071C22.4804 26.8946 22.7348 27 23 27H28C28.2652 27 28.5196 26.8946 28.7071 26.7071C28.8946 26.5196 29 26.2652 29 26V21C29 20.7348 28.8946 20.4804 28.7071 20.2929C28.5196 20.1054 28.2652 20 28 20ZM4 12C4.26522 12 4.51957 11.8946 4.70711 11.7071C4.89464 11.5196 5 11.2652 5 11V7H9C9.26522 7 9.51957 6.89464 9.70711 6.70711C9.89464 6.51957 10 6.26522 10 6C10 5.73478 9.89464 5.48043 9.70711 5.29289C9.51957 5.10536 9.26522 5 9 5H4C3.73478 5 3.48043 5.10536 3.29289 5.29289C3.10536 5.48043 3 5.73478 3 6V11C3 11.2652 3.10536 11.5196 3.29289 11.7071C3.48043 11.8946 3.73478 12 4 12ZM23.5 20.875L16.5 24.875C16.3489 24.9614 16.1778 25.0068 16.0037 25.0068C15.8297 25.0068 15.6586 24.9614 15.5075 24.875L8.5 20.875C8.34666 20.7865 8.21956 20.6588 8.13172 20.5051C8.04387 20.3514 7.99841 20.1771 8 20V12C7.99841 11.8229 8.04387 11.6486 8.13172 11.4949C8.21956 11.3412 8.34666 11.2135 8.5 11.125L15.5 7.125C15.6511 7.03862 15.8222 6.99318 15.9963 6.99318C16.1703 6.99318 16.3414 7.03862 16.4925 7.125L23.4925 11.125C23.6458 11.2135 23.7729 11.3412 23.8608 11.4949C23.9486 11.6486 23.9941 11.8229 23.9925 12V20C23.9948 20.1763 23.9505 20.3501 23.864 20.5038C23.7775 20.6575 23.6519 20.7855 23.5 20.875ZM11.015 12L16 14.8488L20.985 12L16 9.15125L11.015 12ZM10 19.42L15 22.2763V16.58L10 13.7238V19.42ZM22 19.42V13.7238L17 16.58V22.2763L22 19.42Z" fill="#343330"/>
</svg>
