<svg width="32" height="32" viewBox="0 0 32 32" fill="none" xmlns="http://www.w3.org/2000/svg">
<path d="M27 17H25V15H27C27.2652 15 27.5196 14.8946 27.7071 14.7071C27.8946 14.5196 28 14.2652 28 14C28 13.7348 27.8946 13.4804 27.7071 13.2929C27.5196 13.1053 27.2652 13 27 13H25V5.74998C25 5.48476 24.8946 5.23041 24.7071 5.04287C24.5196 4.85534 24.2652 4.74998 24 4.74998C23.7348 4.74998 23.4804 4.85534 23.2929 5.04287C23.1054 5.23041 23 5.48476 23 5.74998V13H14.9275L8.78875 5.13498C8.66069 4.97066 8.48451 4.85044 8.28481 4.79111C8.08511 4.73178 7.87187 4.73629 7.67486 4.80403C7.47786 4.87176 7.30692 4.99933 7.18593 5.16892C7.06494 5.33851 6.99994 5.54166 7 5.74998V13H5C4.73478 13 4.48043 13.1053 4.29289 13.2929C4.10536 13.4804 4 13.7348 4 14C4 14.2652 4.10536 14.5196 4.29289 14.7071C4.48043 14.8946 4.73478 15 5 15H7V17H5C4.73478 17 4.48043 17.1053 4.29289 17.2929C4.10536 17.4804 4 17.7348 4 18C4 18.2652 4.10536 18.5196 4.29289 18.7071C4.48043 18.8946 4.73478 19 5 19H7V26.25C7 26.5152 7.10536 26.7696 7.29289 26.9571C7.48043 27.1446 7.73478 27.25 8 27.25C8.26522 27.25 8.51957 27.1446 8.70711 26.9571C8.89464 26.7696 9 26.5152 9 26.25V19H17.0725L23.2113 26.865C23.3048 26.9849 23.4244 27.0819 23.5611 27.1486C23.6978 27.2154 23.8479 27.25 24 27.25C24.1107 27.2502 24.2206 27.2316 24.325 27.195C24.5219 27.1273 24.6927 26.9999 24.8137 26.8305C24.9347 26.6611 24.9999 26.4582 25 26.25V19H27C27.2652 19 27.5196 18.8946 27.7071 18.7071C27.8946 18.5196 28 18.2652 28 18C28 17.7348 27.8946 17.4804 27.7071 17.2929C27.5196 17.1053 27.2652 17 27 17ZM23 15V17H18.0487L16.4875 15H23ZM9 8.65623L12.39 13H9V8.65623ZM9 17V15H13.9513L15.5125 17H9ZM23 23.3437L19.61 19H23V23.3437Z" fill="#343330"/>
</svg>
