<svg width="32" height="32" viewBox="0 0 32 32" fill="none" xmlns="http://www.w3.org/2000/svg">
<path d="M25.7738 6.63373L18.11 16H22C22.2653 16 22.5196 16.1053 22.7072 16.2929C22.8947 16.4804 23 16.7348 23 17C23 17.2652 22.8947 17.5196 22.7072 17.7071C22.5196 17.8946 22.2653 18 22 18H17V20H22C22.2653 20 22.5196 20.1053 22.7072 20.2929C22.8947 20.4804 23 20.7348 23 21C23 21.2652 22.8947 21.5196 22.7072 21.7071C22.5196 21.8946 22.2653 22 22 22H17V27C17 27.2652 16.8947 27.5196 16.7072 27.7071C16.5196 27.8946 16.2653 28 16 28C15.7348 28 15.4805 27.8946 15.2929 27.7071C15.1054 27.5196 15 27.2652 15 27V22H10C9.73483 22 9.48047 21.8946 9.29294 21.7071C9.1054 21.5196 9.00004 21.2652 9.00004 21C9.00004 20.7348 9.1054 20.4804 9.29294 20.2929C9.48047 20.1053 9.73483 20 10 20H15V18H10C9.73483 18 9.48047 17.8946 9.29294 17.7071C9.1054 17.5196 9.00004 17.2652 9.00004 17C9.00004 16.7348 9.1054 16.4804 9.29294 16.2929C9.48047 16.1053 9.73483 16 10 16H13.89L6.2263 6.63373C6.05821 6.42852 5.97854 6.16495 6.00479 5.90099C6.03105 5.63703 6.16108 5.39431 6.36629 5.22623C6.57151 5.05815 6.83508 4.97848 7.09904 5.00473C7.363 5.03099 7.60571 5.16102 7.77379 5.36623L16 15.4212L24.2263 5.36623C24.3095 5.26462 24.4119 5.1804 24.5277 5.11837C24.6435 5.05635 24.7704 5.01773 24.9011 5.00473C25.0317 4.99173 25.1637 5.0046 25.2895 5.04261C25.4152 5.08061 25.5322 5.14301 25.6338 5.22623C25.7354 5.30946 25.8196 5.41188 25.8817 5.52766C25.9437 5.64343 25.9823 5.77029 25.9953 5.90099C26.0083 6.03169 25.9954 6.16367 25.9574 6.28939C25.9194 6.41512 25.857 6.53212 25.7738 6.63373Z" fill="#343330"/>
</svg>
