<svg width="32" height="32" viewBox="0 0 32 32" fill="none" xmlns="http://www.w3.org/2000/svg">
<path d="M30 16H27.2362L29.9263 9.37503C29.9814 9.25235 30.0113 9.1198 30.014 8.98532C30.0168 8.85083 29.9923 8.71718 29.9422 8.59235C29.8921 8.46752 29.8173 8.35409 29.7224 8.25883C29.6274 8.16358 29.5142 8.08847 29.3895 8.03799C29.2648 7.98751 29.1312 7.96271 28.9967 7.96506C28.8622 7.96741 28.7296 7.99687 28.6068 8.05168C28.4839 8.10649 28.3734 8.18551 28.2818 8.28403C28.1902 8.38254 28.1195 8.49852 28.0737 8.62503L25.0737 16H19.9225L16.9225 8.62503C16.8476 8.44085 16.7194 8.28319 16.5544 8.17221C16.3894 8.06122 16.1951 8.00194 15.9963 8.00194C15.7974 8.00194 15.6031 8.06122 15.4381 8.17221C15.2731 8.28319 15.1449 8.44085 15.07 8.62503L12.07 16H6.9225L3.9225 8.62503C3.81642 8.38913 3.62306 8.20351 3.38302 8.10714C3.14299 8.01078 2.87495 8.01117 2.6352 8.10824C2.39545 8.2053 2.20263 8.39149 2.09724 8.6277C1.99185 8.86391 1.98209 9.13177 2.07 9.37503L4.76 16H2C1.73478 16 1.48043 16.1054 1.29289 16.2929C1.10536 16.4805 1 16.7348 1 17C1 17.2652 1.10536 17.5196 1.29289 17.7071C1.48043 17.8947 1.73478 18 2 18H5.57625L8.57625 25.375C8.6512 25.5592 8.77935 25.7169 8.94434 25.8279C9.10933 25.9388 9.30365 25.9981 9.5025 25.9981C9.70134 25.9981 9.89567 25.9388 10.0607 25.8279C10.2256 25.7169 10.3538 25.5592 10.4288 25.375L13.4288 18H18.5837L21.5837 25.375C21.6587 25.5592 21.7868 25.7169 21.9518 25.8279C22.1168 25.9388 22.3112 25.9981 22.51 25.9981C22.7088 25.9981 22.9032 25.9388 23.0682 25.8279C23.2332 25.7169 23.3613 25.5592 23.4363 25.375L26.4363 18H30C30.2652 18 30.5196 17.8947 30.7071 17.7071C30.8946 17.5196 31 17.2652 31 17C31 16.7348 30.8946 16.4805 30.7071 16.2929C30.5196 16.1054 30.2652 16 30 16ZM9.5 22.3438L7.735 18H11.265L9.5 22.3438ZM14.235 16L16 11.6575L17.765 16H14.235ZM22.5 22.3438L20.735 18H24.265L22.5 22.3438Z" fill="#343330"/>
</svg>
