<svg width="32" height="32" viewBox="0 0 32 32" fill="none" xmlns="http://www.w3.org/2000/svg">
<path d="M27.7863 15.3825L16.7863 1.38252C16.6927 1.26346 16.5733 1.1672 16.4371 1.10101C16.3009 1.03482 16.1515 1.00043 16 1.00043C15.8486 1.00043 15.6992 1.03482 15.563 1.10101C15.4268 1.1672 15.3074 1.26346 15.2138 1.38252L4.2138 15.3825C4.07552 15.5587 4.00037 15.7761 4.00037 16C4.00037 16.2239 4.07552 16.4414 4.2138 16.6175L15.2138 30.6175C15.3074 30.7366 15.4268 30.8328 15.563 30.899C15.6992 30.9652 15.8486 30.9996 16 30.9996C16.1515 30.9996 16.3009 30.9652 16.4371 30.899C16.5733 30.8328 16.6927 30.7366 16.7863 30.6175L27.7863 16.6175C27.9246 16.4414 27.9997 16.2239 27.9997 16C27.9997 15.7761 27.9246 15.5587 27.7863 15.3825ZM17 4.89127L25.4275 15.6163L17 19.4475V4.89127ZM15 19.4475L6.57255 15.6163L15 4.89127V19.4475ZM15 21.6438V27.1088L8.3213 18.6088L15 21.6438ZM17 21.6438L23.6788 18.6075L17 27.1075V21.6438Z" fill="#343330"/>
</svg>
