<svg width="32" height="32" viewBox="0 0 32 32" fill="none" xmlns="http://www.w3.org/2000/svg">
<path d="M7 7C7 6.73478 7.10536 6.48043 7.29289 6.29289C7.48043 6.10536 7.73478 6 8 6H24C24.2652 6 24.5196 6.10536 24.7071 6.29289C24.8946 6.48043 25 6.73478 25 7C25 7.26522 24.8946 7.51957 24.7071 7.70711C24.5196 7.89464 24.2652 8 24 8H8C7.73478 8 7.48043 7.89464 7.29289 7.70711C7.10536 7.51957 7 7.26522 7 7ZM27 20C26.7348 20 26.4804 20.1054 26.2929 20.2929C26.1054 20.4804 26 20.7348 26 21V23H22C21.4696 23 20.9609 22.7893 20.5858 22.4142C20.2107 22.0391 20 21.5304 20 21V15H26C26.2652 15 26.5196 14.8946 26.7071 14.7071C26.8946 14.5196 27 14.2652 27 14C27 13.7348 26.8946 13.4804 26.7071 13.2929C26.5196 13.1054 26.2652 13 26 13H6C5.73478 13 5.48043 13.1054 5.29289 13.2929C5.10536 13.4804 5 13.7348 5 14C5 14.2652 5.10536 14.5196 5.29289 14.7071C5.48043 14.8946 5.73478 15 6 15H12V16C11.998 17.8559 11.2599 19.6352 9.94755 20.9476C8.63523 22.2599 6.85591 22.998 5 23C4.73478 23 4.48043 23.1054 4.29289 23.2929C4.10536 23.4804 4 23.7348 4 24C4 24.2652 4.10536 24.5196 4.29289 24.7071C4.48043 24.8946 4.73478 25 5 25C7.38614 24.9974 9.67378 24.0483 11.361 22.361C13.0483 20.6738 13.9974 18.3861 14 16V15H18V21C18 22.0609 18.4214 23.0783 19.1716 23.8284C19.9217 24.5786 20.9391 25 22 25H27C27.2652 25 27.5196 24.8946 27.7071 24.7071C27.8946 24.5196 28 24.2652 28 24V21C28 20.7348 27.8946 20.4804 27.7071 20.2929C27.5196 20.1054 27.2652 20 27 20Z" fill="#343330"/>
</svg>
