<svg width="32" height="32" viewBox="0 0 32 32" fill="none" xmlns="http://www.w3.org/2000/svg">
<path d="M22.31 14.4625C23.069 13.7317 23.6021 12.7983 23.8459 11.7732C24.0897 10.7482 24.034 9.67472 23.6853 8.68045C23.3366 7.68619 22.7097 6.813 21.8791 6.16474C21.0485 5.51649 20.0492 5.12046 19 5.02375V3C19 2.73478 18.8946 2.48043 18.7071 2.29289C18.5196 2.10536 18.2652 2 18 2C17.7348 2 17.4804 2.10536 17.2929 2.29289C17.1054 2.48043 17 2.73478 17 3V5H15V3C15 2.73478 14.8946 2.48043 14.7071 2.29289C14.5196 2.10536 14.2652 2 14 2C13.7348 2 13.4804 2.10536 13.2929 2.29289C13.1054 2.48043 13 2.73478 13 3V5H9C8.73478 5 8.48043 5.10536 8.29289 5.29289C8.10536 5.48043 8 5.73478 8 6C8 6.26522 8.10536 6.51957 8.29289 6.70711C8.48043 6.89464 8.73478 7 9 7H10V24H9C8.73478 24 8.48043 24.1054 8.29289 24.2929C8.10536 24.4804 8 24.7348 8 25C8 25.2652 8.10536 25.5196 8.29289 25.7071C8.48043 25.8946 8.73478 26 9 26H13V28C13 28.2652 13.1054 28.5196 13.2929 28.7071C13.4804 28.8946 13.7348 29 14 29C14.2652 29 14.5196 28.8946 14.7071 28.7071C14.8946 28.5196 15 28.2652 15 28V26H17V28C17 28.2652 17.1054 28.5196 17.2929 28.7071C17.4804 28.8946 17.7348 29 18 29C18.2652 29 18.5196 28.8946 18.7071 28.7071C18.8946 28.5196 19 28.2652 19 28V26H20C21.3868 26 22.7309 25.5196 23.8035 24.6404C24.876 23.7613 25.611 22.5378 25.8832 21.1779C26.1555 19.8181 25.9483 18.4059 25.2968 17.1816C24.6454 15.9573 23.5899 14.9964 22.31 14.4625ZM22 10.5C22 11.4283 21.6313 12.3185 20.9749 12.9749C20.3185 13.6313 19.4283 14 18.5 14H12V7H18.5C19.4283 7 20.3185 7.36875 20.9749 8.02513C21.6313 8.6815 22 9.57174 22 10.5ZM20 24H12V16H20C21.0609 16 22.0783 16.4214 22.8284 17.1716C23.5786 17.9217 24 18.9391 24 20C24 21.0609 23.5786 22.0783 22.8284 22.8284C22.0783 23.5786 21.0609 24 20 24Z" fill="#343330"/>
</svg>
