<svg width="32" height="32" viewBox="0 0 32 32" fill="none" xmlns="http://www.w3.org/2000/svg">
<path d="M31 14H27.51L21.5725 5.82375C21.3926 5.57671 21.1584 5.3742 20.888 5.23175C20.6176 5.08931 20.3182 5.01072 20.0127 5.00203C19.7072 4.99334 19.4038 5.05477 19.1258 5.18162C18.8477 5.30846 18.6024 5.49734 18.4088 5.73375L16.8025 7.59625L16.7775 7.625C16.6844 7.74192 16.5662 7.83635 16.4316 7.90125C16.297 7.96615 16.1494 7.99985 16 7.99985C15.8506 7.99985 15.703 7.96615 15.5684 7.90125C15.4338 7.83635 15.3156 7.74192 15.2225 7.625L15.1975 7.59625L13.5913 5.73375C13.3976 5.49734 13.1523 5.30846 12.8742 5.18162C12.5962 5.05477 12.2928 4.99334 11.9873 5.00203C11.6818 5.01072 11.3824 5.08931 11.112 5.23175C10.8416 5.3742 10.6074 5.57671 10.4275 5.82375L4.49 14H1C0.734784 14 0.48043 14.1054 0.292893 14.2929C0.105357 14.4804 0 14.7348 0 15C0 15.2652 0.105357 15.5196 0.292893 15.7071C0.48043 15.8946 0.734784 16 1 16H31C31.2652 16 31.5196 15.8946 31.7071 15.7071C31.8946 15.5196 32 15.2652 32 15C32 14.7348 31.8946 14.4804 31.7071 14.2929C31.5196 14.1054 31.2652 14 31 14ZM12.0425 7L12.0662 7.02875L13.6725 8.89C13.9538 9.23591 14.3087 9.51476 14.7113 9.70628C15.1139 9.89781 15.5541 9.99719 16 9.99719C16.4459 9.99719 16.8861 9.89781 17.2887 9.70628C17.6913 9.51476 18.0462 9.23591 18.3275 8.89L19.9338 7.02875C19.9412 7.01875 19.9462 7.01 19.955 7L25.0375 14H6.96125L12.0425 7ZM22.5 18C21.3933 18.0002 20.3254 18.4083 19.5006 19.1462C18.6757 19.8841 18.1517 20.9001 18.0287 22H13.9712C13.848 20.9011 13.3244 19.8861 12.5005 19.1486C11.6766 18.4111 10.61 18.0028 9.5042 18.0016C8.39843 18.0004 7.33092 18.4064 6.50539 19.1421C5.67985 19.8777 5.1541 20.8916 5.02844 21.9902C4.90279 23.0889 5.18604 24.1953 5.82413 25.0984C6.46223 26.0015 7.4105 26.638 8.48799 26.8865C9.56548 27.135 10.6967 26.9781 11.6659 26.4457C12.6351 25.9133 13.3743 25.0427 13.7425 24H18.2575C18.5325 24.7778 19.016 25.4651 19.6553 25.9866C20.2945 26.5082 21.0648 26.844 21.8819 26.9573C22.6991 27.0707 23.5317 26.9572 24.2888 26.6293C25.0458 26.3014 25.6981 25.7716 26.1744 25.098C26.6507 24.4244 26.9327 23.6328 26.9895 22.8098C27.0463 21.9867 26.8757 21.1639 26.4964 20.4313C26.1172 19.6986 25.5438 19.0843 24.839 18.6555C24.1341 18.2267 23.325 18 22.5 18ZM9.5 25C9.00555 25 8.5222 24.8534 8.11107 24.5787C7.69995 24.304 7.37952 23.9135 7.1903 23.4567C7.00108 22.9999 6.95157 22.4972 7.04804 22.0123C7.1445 21.5273 7.3826 21.0819 7.73223 20.7322C8.08186 20.3826 8.52732 20.1445 9.01227 20.048C9.49723 19.9516 9.99989 20.0011 10.4567 20.1903C10.9135 20.3795 11.304 20.7 11.5787 21.1111C11.8534 21.5222 12 22.0055 12 22.5C12 22.8283 11.9353 23.1534 11.8097 23.4567C11.6841 23.76 11.4999 24.0356 11.2678 24.2678C11.0356 24.4999 10.76 24.6841 10.4567 24.8097C10.1534 24.9353 9.8283 25 9.5 25ZM22.5 25C22.0055 25 21.5222 24.8534 21.1111 24.5787C20.7 24.304 20.3795 23.9135 20.1903 23.4567C20.0011 22.9999 19.9516 22.4972 20.048 22.0123C20.1445 21.5273 20.3826 21.0819 20.7322 20.7322C21.0819 20.3826 21.5273 20.1445 22.0123 20.048C22.4972 19.9516 22.9999 20.0011 23.4567 20.1903C23.9135 20.3795 24.304 20.7 24.5787 21.1111C24.8534 21.5222 25 22.0055 25 22.5C25 23.163 24.7366 23.7989 24.2678 24.2678C23.7989 24.7366 23.163 25 22.5 25Z" fill="#343330"/>
</svg>
