<svg width="32" height="32" viewBox="0 0 32 32" fill="none" xmlns="http://www.w3.org/2000/svg">
<path d="M25.7076 27.7075L22.7076 30.7075C22.5199 30.8951 22.2654 31.0006 22.0001 31.0006C21.7347 31.0006 21.4802 30.8951 21.2926 30.7075C21.1049 30.5199 20.9995 30.2654 20.9995 30C20.9995 29.7346 21.1049 29.4801 21.2926 29.2925L22.5863 28H10.0001C9.2044 28 8.44134 27.6839 7.87873 27.1213C7.31612 26.5587 7.00005 25.7957 7.00005 25V13C7.00005 12.7348 7.10541 12.4804 7.29295 12.2929C7.48048 12.1054 7.73484 12 8.00005 12C8.26527 12 8.51962 12.1054 8.70716 12.2929C8.8947 12.4804 9.00005 12.7348 9.00005 13V25C9.00005 25.2652 9.10541 25.5196 9.29295 25.7071C9.48048 25.8947 9.73484 26 10.0001 26H22.5863L21.2926 24.7075C21.1049 24.5199 20.9995 24.2654 20.9995 24C20.9995 23.7346 21.1049 23.4801 21.2926 23.2925C21.4802 23.1049 21.7347 22.9995 22.0001 22.9995C22.2654 22.9995 22.5199 23.1049 22.7076 23.2925L25.7076 26.2925C25.8005 26.3854 25.8743 26.4957 25.9246 26.6171C25.9749 26.7385 26.0008 26.8686 26.0008 27C26.0008 27.1314 25.9749 27.2615 25.9246 27.3829C25.8743 27.5043 25.8005 27.6146 25.7076 27.7075ZM10.0001 9.00001C10.1979 9.00016 10.3914 8.9416 10.556 8.83173C10.7206 8.72186 10.8489 8.56562 10.9247 8.3828C11.0004 8.19997 11.0202 7.99878 10.9816 7.8047C10.9429 7.61062 10.8476 7.43236 10.7076 7.29251L9.4138 6.00001H22.0001C22.2653 6.00001 22.5196 6.10536 22.7072 6.2929C22.8947 6.48044 23.0001 6.73479 23.0001 7.00001V19C23.0001 19.2652 23.1054 19.5196 23.2929 19.7071C23.4805 19.8947 23.7348 20 24.0001 20C24.2653 20 24.5196 19.8947 24.7072 19.7071C24.8947 19.5196 25.0001 19.2652 25.0001 19V7.00001C25.0001 6.20436 24.684 5.4413 24.1214 4.87869C23.5588 4.31608 22.7957 4.00001 22.0001 4.00001H9.4138L10.7076 2.70751C10.8952 2.51987 11.0006 2.26537 11.0006 2.00001C11.0006 1.73464 10.8952 1.48015 10.7076 1.29251C10.5199 1.10487 10.2654 0.999451 10.0001 0.999451C9.73469 0.999451 9.48019 1.10487 9.29255 1.29251L6.29255 4.29251C6.19958 4.38538 6.12582 4.49567 6.07549 4.61707C6.02517 4.73846 5.99927 4.86859 5.99927 5.00001C5.99927 5.13142 6.02517 5.26155 6.07549 5.38295C6.12582 5.50434 6.19958 5.61463 6.29255 5.70751L9.29255 8.70751C9.38549 8.80034 9.49581 8.87395 9.6172 8.92414C9.7386 8.97433 9.86869 9.00011 10.0001 9.00001Z" fill="#343330"/>
</svg>
