<svg width="32" height="32" viewBox="0 0 32 32" fill="none" xmlns="http://www.w3.org/2000/svg">
<path d="M26.74 26.3275L6.74001 4.3275C6.65219 4.22851 6.5456 4.14793 6.42641 4.09044C6.30722 4.03294 6.1778 3.99968 6.04566 3.99257C5.91352 3.98546 5.78129 4.00465 5.65662 4.04902C5.53195 4.0934 5.41733 4.16208 5.3194 4.25107C5.22146 4.34007 5.14217 4.44762 5.08611 4.56749C5.03005 4.68736 4.99834 4.81717 4.99282 4.94938C4.98729 5.0816 5.00806 5.2136 5.05393 5.33772C5.09979 5.46185 5.16984 5.57564 5.26001 5.6725L7.00001 7.58625V27C7.00001 27.7956 7.31608 28.5587 7.87869 29.1213C8.4413 29.6839 9.20436 30 10 30H22C22.733 29.9998 23.4405 29.7313 23.9891 29.2452C24.5376 28.759 24.8892 28.0889 24.9775 27.3612L25.26 27.6725C25.3478 27.7715 25.4544 27.8521 25.5736 27.9096C25.6928 27.9671 25.8222 28.0003 25.9544 28.0074C26.0865 28.0145 26.2187 27.9953 26.3434 27.951C26.4681 27.9066 26.5827 27.8379 26.6806 27.7489C26.7786 27.6599 26.8578 27.5524 26.9139 27.4325C26.97 27.3126 27.0017 27.1828 27.0072 27.0506C27.0127 26.9184 26.992 26.7864 26.9461 26.6623C26.9002 26.5381 26.8302 26.4244 26.74 26.3275ZM23 27C23 27.2652 22.8947 27.5196 22.7071 27.7071C22.5196 27.8946 22.2652 28 22 28H10C9.73479 28 9.48044 27.8946 9.2929 27.7071C9.10536 27.5196 9.00001 27.2652 9.00001 27V9.78625L23 25.1863V27ZM8.58751 3C8.58751 2.73478 8.69286 2.48043 8.8804 2.29289C9.06794 2.10536 9.32229 2 9.58751 2H22C22.7957 2 23.5587 2.31607 24.1213 2.87868C24.6839 3.44129 25 4.20435 25 5V18.8538C25 19.119 24.8947 19.3733 24.7071 19.5609C24.5196 19.7484 24.2652 19.8538 24 19.8538C23.7348 19.8538 23.4804 19.7484 23.2929 19.5609C23.1054 19.3733 23 19.119 23 18.8538V5C23 4.73478 22.8947 4.48043 22.7071 4.29289C22.5196 4.10536 22.2652 4 22 4H9.58751C9.32229 4 9.06794 3.89464 8.8804 3.70711C8.69286 3.51957 8.58751 3.26522 8.58751 3Z" fill="#343330"/>
</svg>
