<svg width="32" height="32" viewBox="0 0 32 32" fill="none" xmlns="http://www.w3.org/2000/svg">
<path d="M29.4163 14.5899L17.41 2.58244C17.0353 2.20994 16.5284 2.00085 16 2.00085C15.4716 2.00085 14.9647 2.20994 14.59 2.58244L2.59 14.5899C2.2175 14.9647 2.00842 15.4716 2.00842 15.9999C2.00842 16.5283 2.2175 17.0352 2.59 17.4099L14.5963 29.4174C14.971 29.7899 15.4779 29.999 16.0063 29.999C16.5346 29.999 17.0415 29.7899 17.4163 29.4174L29.4225 17.4099C29.795 17.0352 30.0041 16.5283 30.0041 15.9999C30.0041 15.4716 29.795 14.9647 29.4225 14.5899H29.4163ZM16 27.9999L4 15.9999L16 3.99994L28 15.9999L16 27.9999Z" fill="#343330"/>
</svg>
