<svg width="32" height="32" viewBox="0 0 32 32" fill="none" xmlns="http://www.w3.org/2000/svg">
<path d="M15.2925 13.7075C15.3854 13.8005 15.4957 13.8742 15.6171 13.9246C15.7385 13.9749 15.8686 14.0008 16 14.0008C16.1314 14.0008 16.2615 13.9749 16.3829 13.9246C16.5043 13.8742 16.6146 13.8005 16.7075 13.7075L21.7075 8.70749C21.8005 8.61462 21.8742 8.50433 21.9246 8.38293C21.9749 8.26154 22.0008 8.13141 22.0008 7.99999C22.0008 7.86858 21.9749 7.73845 21.9246 7.61705C21.8742 7.49566 21.8005 7.38537 21.7075 7.29249L16.7075 2.29249C16.6146 2.19952 16.5043 2.12576 16.3829 2.07543C16.2615 2.02511 16.1314 1.99921 16 1.99921C15.8686 1.99921 15.7385 2.02511 15.6171 2.07543C15.4957 2.12576 15.3854 2.19952 15.2925 2.29249L10.2925 7.29249C10.1995 7.38537 10.1258 7.49566 10.0754 7.61705C10.0251 7.73845 9.99921 7.86858 9.99921 7.99999C9.99921 8.13141 10.0251 8.26154 10.0754 8.38293C10.1258 8.50433 10.1995 8.61462 10.2925 8.70749L15.2925 13.7075ZM16 4.41374L19.5862 7.99999L16 11.5862L12.4137 7.99999L16 4.41374ZM16.7075 18.2887C16.6146 18.1958 16.5043 18.122 16.3829 18.0717C16.2615 18.0214 16.1314 17.9955 16 17.9955C15.8686 17.9955 15.7385 18.0214 15.6171 18.0717C15.4957 18.122 15.3854 18.1958 15.2925 18.2887L10.2925 23.2887C10.1995 23.3816 10.1258 23.4919 10.0754 23.6133C10.0251 23.7347 9.99921 23.8648 9.99921 23.9962C9.99921 24.1277 10.0251 24.2578 10.0754 24.3792C10.1258 24.5006 10.1995 24.6109 10.2925 24.7037L15.2925 29.7037C15.3854 29.7967 15.4957 29.8705 15.6171 29.9208C15.7385 29.9711 15.8686 29.997 16 29.997C16.1314 29.997 16.2615 29.9711 16.3829 29.9208C16.5043 29.8705 16.6146 29.7967 16.7075 29.7037L21.7075 24.7037C21.8005 24.6109 21.8742 24.5006 21.9246 24.3792C21.9749 24.2578 22.0008 24.1277 22.0008 23.9962C22.0008 23.8648 21.9749 23.7347 21.9246 23.6133C21.8742 23.4919 21.8005 23.3816 21.7075 23.2887L16.7075 18.2887ZM16 27.5862L12.4137 24L16 20.4137L19.5862 24L16 27.5862ZM29.7075 15.2925L24.7075 10.2925C24.6146 10.1995 24.5043 10.1258 24.3829 10.0754C24.2615 10.0251 24.1314 9.99921 24 9.99921C23.8686 9.99921 23.7385 10.0251 23.6171 10.0754C23.4957 10.1258 23.3854 10.1995 23.2925 10.2925L18.2925 15.2925C18.1995 15.3854 18.1258 15.4957 18.0754 15.6171C18.0251 15.7385 17.9992 15.8686 17.9992 16C17.9992 16.1314 18.0251 16.2615 18.0754 16.3829C18.1258 16.5043 18.1995 16.6146 18.2925 16.7075L23.2925 21.7075C23.3854 21.8005 23.4957 21.8742 23.6171 21.9246C23.7385 21.9749 23.8686 22.0008 24 22.0008C24.1314 22.0008 24.2615 21.9749 24.3829 21.9246C24.5043 21.8742 24.6146 21.8005 24.7075 21.7075L29.7075 16.7075C29.8005 16.6146 29.8742 16.5043 29.9246 16.3829C29.9749 16.2615 30.0008 16.1314 30.0008 16C30.0008 15.8686 29.9749 15.7385 29.9246 15.6171C29.8742 15.4957 29.8005 15.3854 29.7075 15.2925ZM24 19.5862L20.4137 16L24 12.4137L27.5862 16L24 19.5862ZM13.7075 15.2925L8.70749 10.2925C8.61462 10.1995 8.50433 10.1258 8.38293 10.0754C8.26154 10.0251 8.13141 9.99921 7.99999 9.99921C7.86858 9.99921 7.73845 10.0251 7.61705 10.0754C7.49566 10.1258 7.38537 10.1995 7.29249 10.2925L2.29249 15.2925C2.19952 15.3854 2.12576 15.4957 2.07543 15.6171C2.02511 15.7385 1.99921 15.8686 1.99921 16C1.99921 16.1314 2.02511 16.2615 2.07543 16.3829C2.12576 16.5043 2.19952 16.6146 2.29249 16.7075L7.29249 21.7075C7.38537 21.8005 7.49566 21.8742 7.61705 21.9246C7.73845 21.9749 7.86858 22.0008 7.99999 22.0008C8.13141 22.0008 8.26154 21.9749 8.38293 21.9246C8.50433 21.8742 8.61462 21.8005 8.70749 21.7075L13.7075 16.7075C13.8005 16.6146 13.8742 16.5043 13.9246 16.3829C13.9749 16.2615 14.0008 16.1314 14.0008 16C14.0008 15.8686 13.9749 15.7385 13.9246 15.6171C13.8742 15.4957 13.8005 15.3854 13.7075 15.2925ZM7.99999 19.5862L4.41374 16L7.99999 12.4137L11.5862 16L7.99999 19.5862Z" fill="#343330"/>
</svg>
