<svg width="32" height="32" viewBox="0 0 32 32" fill="none" xmlns="http://www.w3.org/2000/svg">
<path d="M15 8.04625V2C15 1.73478 14.8946 1.48043 14.7071 1.29289C14.5196 1.10536 14.2652 1 14 1C13.7348 1 13.4804 1.10536 13.2929 1.29289C13.1054 1.48043 13 1.73478 13 2V8.04625C10.181 8.30359 7.5697 9.63778 5.70929 11.7713C3.84889 13.9048 2.88259 16.6734 3.01139 19.5012C3.14019 22.329 4.35418 24.9983 6.40084 26.9539C8.4475 28.9094 11.1693 30.0007 14 30.0007C16.8307 30.0007 19.5525 28.9094 21.5991 26.9539C23.6458 24.9983 24.8598 22.329 24.9886 19.5012C25.1174 16.6734 24.1511 13.9048 22.2907 11.7713C20.4303 9.63778 17.819 8.30359 15 8.04625ZM22.9425 18H18.9712C18.7825 14.455 17.6225 11.955 16.5412 10.3675C18.2398 10.8705 19.7527 11.8626 20.8911 13.2199C22.0294 14.5773 22.7429 16.2398 22.9425 18ZM11.03 20H16.97C16.72 24.19 14.9537 26.6187 14 27.635C13.045 26.6163 11.2787 24.1887 11.03 20ZM11.03 18C11.28 13.81 13.0462 11.3812 14 10.365C14.955 11.3837 16.7212 13.8113 16.97 18H11.03ZM11.4587 10.3675C10.375 11.955 9.21749 14.455 9.02875 18H5.05749C5.25707 16.2398 5.97056 14.5773 7.10893 13.2199C8.2473 11.8626 9.76016 10.8705 11.4587 10.3675ZM5.05749 20H9.02875C9.21749 23.545 10.3775 26.045 11.4587 27.6325C9.76016 27.1295 8.2473 26.1374 7.10893 24.7801C5.97056 23.4227 5.25707 21.7602 5.05749 20ZM16.5412 27.6325C17.6225 26.045 18.7825 23.545 18.9712 20H22.9425C22.7429 21.7602 22.0294 23.4227 20.8911 24.7801C19.7527 26.1374 18.2398 27.1295 16.5412 27.6325ZM32 11C32 11.2652 31.8946 11.5196 31.7071 11.7071C31.5196 11.8946 31.2652 12 31 12H30V13C30 13.2652 29.8946 13.5196 29.7071 13.7071C29.5196 13.8946 29.2652 14 29 14C28.7348 14 28.4804 13.8946 28.2929 13.7071C28.1054 13.5196 28 13.2652 28 13V12H27C26.7348 12 26.4804 11.8946 26.2929 11.7071C26.1054 11.5196 26 11.2652 26 11C26 10.7348 26.1054 10.4804 26.2929 10.2929C26.4804 10.1054 26.7348 10 27 10H28V9C28 8.73478 28.1054 8.48043 28.2929 8.29289C28.4804 8.10536 28.7348 8 29 8C29.2652 8 29.5196 8.10536 29.7071 8.29289C29.8946 8.48043 30 8.73478 30 9V10H31C31.2652 10 31.5196 10.1054 31.7071 10.2929C31.8946 10.4804 32 10.7348 32 11ZM19 5C19 4.73478 19.1054 4.48043 19.2929 4.29289C19.4804 4.10536 19.7348 4 20 4H22V2C22 1.73478 22.1054 1.48043 22.2929 1.29289C22.4804 1.10536 22.7348 1 23 1C23.2652 1 23.5196 1.10536 23.7071 1.29289C23.8946 1.48043 24 1.73478 24 2V4H26C26.2652 4 26.5196 4.10536 26.7071 4.29289C26.8946 4.48043 27 4.73478 27 5C27 5.26522 26.8946 5.51957 26.7071 5.70711C26.5196 5.89464 26.2652 6 26 6H24V8C24 8.26522 23.8946 8.51957 23.7071 8.70711C23.5196 8.89464 23.2652 9 23 9C22.7348 9 22.4804 8.89464 22.2929 8.70711C22.1054 8.51957 22 8.26522 22 8V6H20C19.7348 6 19.4804 5.89464 19.2929 5.70711C19.1054 5.51957 19 5.26522 19 5Z" fill="#343330"/>
</svg>
