<svg width="32" height="32" viewBox="0 0 32 32" fill="none" xmlns="http://www.w3.org/2000/svg">
<path d="M29.9637 15.625L27.9112 4.62502C27.8611 4.35689 27.7566 4.10185 27.6042 3.8756C27.4519 3.64934 27.2548 3.45664 27.0252 3.30935C26.7956 3.16206 26.5383 3.0633 26.2691 3.01913C26 2.97496 25.7246 2.98632 25.46 3.05252L25.4212 3.06377L18.8562 5.00002H13.1437L6.57871 3.07002L6.53996 3.05877C6.27533 2.99257 5.99996 2.98121 5.73078 3.02538C5.4616 3.06955 5.2043 3.16831 4.97471 3.3156C4.74511 3.46289 4.54807 3.65559 4.3957 3.88185C4.24334 4.1081 4.13886 4.36314 4.08871 4.63127L2.03621 15.625C1.94844 16.0653 2.01359 16.5224 2.22089 16.9206C2.42819 17.3188 2.76521 17.6344 3.17621 17.815C3.43942 17.9357 3.72539 17.9988 4.01496 18C4.36155 17.9999 4.70173 17.9066 4.99996 17.73V23C4.99996 24.3261 5.52674 25.5979 6.46443 26.5356C7.40211 27.4732 8.67388 28 9.99996 28H22C23.326 28 24.5978 27.4732 25.5355 26.5356C26.4732 25.5979 27 24.3261 27 23V17.7313C27.2979 17.9075 27.6376 18.0008 27.9837 18.0013C28.2736 18.0004 28.56 17.9378 28.8237 17.8175C29.2352 17.6368 29.5726 17.3208 29.7799 16.9221C29.9873 16.5233 30.0521 16.0657 29.9637 15.625ZM3.99996 16L6.05371 5.00002L11.3125 6.54627L3.99996 16ZM22 26H17V24.4138L18.7075 22.7075C18.8951 22.5199 19.0005 22.2654 19.0005 22C19.0005 21.7347 18.8951 21.4802 18.7075 21.2925C18.5198 21.1049 18.2653 20.9995 18 20.9995C17.7346 20.9995 17.4801 21.1049 17.2925 21.2925L16 22.5863L14.7075 21.2925C14.5198 21.1049 14.2653 20.9995 14 20.9995C13.7346 20.9995 13.4801 21.1049 13.2925 21.2925C13.1048 21.4802 12.9994 21.7347 12.9994 22C12.9994 22.2654 13.1048 22.5199 13.2925 22.7075L15 24.4138V26H9.99996C9.20431 26 8.44125 25.684 7.87864 25.1213C7.31603 24.5587 6.99996 23.7957 6.99996 23V15.3888L13.49 7.00002H18.5087L25 15.3888V23C25 23.7957 24.6839 24.5587 24.1213 25.1213C23.5587 25.684 22.7956 26 22 26ZM28 16L20.6875 6.54627L25.9462 5.00002L28 16ZM13 17.5C13 17.7967 12.912 18.0867 12.7472 18.3334C12.5823 18.58 12.3481 18.7723 12.074 18.8858C11.7999 18.9994 11.4983 19.0291 11.2073 18.9712C10.9164 18.9133 10.6491 18.7705 10.4393 18.5607C10.2295 18.3509 10.0867 18.0836 10.0288 17.7927C9.9709 17.5017 10.0006 17.2001 10.1141 16.926C10.2277 16.6519 10.4199 16.4176 10.6666 16.2528C10.9133 16.088 11.2033 16 11.5 16C11.8978 16 12.2793 16.1581 12.5606 16.4394C12.8419 16.7207 13 17.1022 13 17.5ZM22 17.5C22 17.7967 21.912 18.0867 21.7472 18.3334C21.5823 18.58 21.3481 18.7723 21.074 18.8858C20.7999 18.9994 20.4983 19.0291 20.2073 18.9712C19.9164 18.9133 19.6491 18.7705 19.4393 18.5607C19.2295 18.3509 19.0867 18.0836 19.0288 17.7927C18.9709 17.5017 19.0006 17.2001 19.1141 16.926C19.2277 16.6519 19.4199 16.4176 19.6666 16.2528C19.9133 16.088 20.2033 16 20.5 16C20.8978 16 21.2793 16.1581 21.5606 16.4394C21.8419 16.7207 22 17.1022 22 17.5Z" fill="#343330"/>
</svg>
