<svg width="32" height="32" viewBox="0 0 32 32" fill="none" xmlns="http://www.w3.org/2000/svg">
<path d="M23.7075 8.29251C23.6146 8.19953 23.5043 8.12577 23.3829 8.07545C23.2615 8.02513 23.1314 7.99922 23 7.99922C22.8686 7.99922 22.7385 8.02513 22.6171 8.07545C22.4957 8.12577 22.3854 8.19953 22.2925 8.29251L18.5863 12H13.4138L9.7075 8.29251C9.51986 8.10487 9.26536 7.99945 9 7.99945C8.73464 7.99945 8.48014 8.10487 8.2925 8.29251C8.10486 8.48015 7.99944 8.73465 7.99944 9.00001C7.99944 9.26537 8.10486 9.51987 8.2925 9.70751L12 13.4138V18.5863L8.2925 22.2925C8.10486 22.4802 7.99944 22.7346 7.99944 23C7.99944 23.2654 8.10486 23.5199 8.2925 23.7075C8.48014 23.8952 8.73464 24.0006 9 24.0006C9.26536 24.0006 9.51986 23.8952 9.7075 23.7075L13.4138 20H18.5863L22.2925 23.7075C22.3854 23.8004 22.4957 23.8741 22.6171 23.9244C22.7385 23.9747 22.8686 24.0006 23 24.0006C23.1314 24.0006 23.2615 23.9747 23.3829 23.9244C23.5043 23.8741 23.6146 23.8004 23.7075 23.7075C23.8004 23.6146 23.8741 23.5043 23.9244 23.3829C23.9747 23.2615 24.0006 23.1314 24.0006 23C24.0006 22.8686 23.9747 22.7385 23.9244 22.6171C23.8741 22.4957 23.8004 22.3854 23.7075 22.2925L20 18.5863V13.4138L23.7075 9.70751C23.8005 9.61464 23.8742 9.50435 23.9246 9.38295C23.9749 9.26155 24.0008 9.13142 24.0008 9.00001C24.0008 8.86859 23.9749 8.73847 23.9246 8.61707C23.8742 8.49567 23.8005 8.38538 23.7075 8.29251ZM14 14H18V18H14V14ZM17.3138 7.66626C17.6237 6.79058 18.1504 6.00767 18.8447 5.39056C19.539 4.77345 20.3783 4.34225 21.2843 4.13718C22.1903 3.9321 23.1335 3.95984 24.0259 4.2178C24.9183 4.47576 25.7308 4.95554 26.3876 5.61239C27.0445 6.26923 27.5242 7.08174 27.7822 7.97412C28.0402 8.86651 28.0679 9.80969 27.8628 10.7157C27.6578 11.6217 27.2266 12.461 26.6094 13.1553C25.9923 13.8496 25.2094 14.3763 24.3337 14.6863C24.227 14.7267 24.1141 14.7483 24 14.75C23.7642 14.7499 23.5361 14.6665 23.3558 14.5145C23.1756 14.3625 23.0548 14.1517 23.0149 13.9193C22.975 13.687 23.0184 13.448 23.1376 13.2445C23.2568 13.0411 23.444 12.8863 23.6663 12.8075C24.2234 12.6102 24.7216 12.275 25.1143 11.8332C25.5069 11.3913 25.7813 10.8572 25.9117 10.2807C26.0422 9.7042 26.0245 9.10403 25.8603 8.53619C25.6962 7.96834 25.3909 7.45132 24.9729 7.03335C24.5549 6.61538 24.0379 6.31008 23.4701 6.14591C22.9022 5.98175 22.3021 5.96408 21.7255 6.09454C21.149 6.225 20.6149 6.49935 20.1731 6.892C19.7312 7.28465 19.396 7.78281 19.1988 8.34001C19.1566 8.46594 19.0898 8.58221 19.0023 8.68205C18.9147 8.78189 18.8082 8.86329 18.6888 8.9215C18.5695 8.97972 18.4397 9.01358 18.3071 9.0211C18.1745 9.02863 18.0418 9.00968 17.9166 8.96536C17.7914 8.92103 17.6764 8.85222 17.5781 8.76294C17.4798 8.67365 17.4002 8.56569 17.3441 8.44534C17.288 8.32499 17.2564 8.19467 17.2512 8.06198C17.246 7.92929 17.2672 7.79689 17.3138 7.67251V7.66626ZM28 22.5C28.0006 23.7979 27.5423 25.0541 26.706 26.0467C25.8697 27.0392 24.7094 27.704 23.4302 27.9235C22.151 28.143 20.8355 27.903 19.7161 27.2461C18.5968 26.5892 17.7458 25.5576 17.3138 24.3338C17.2306 24.0851 17.2483 23.8137 17.3633 23.5781C17.4782 23.3424 17.6811 23.1613 17.9283 23.0738C18.1754 22.9863 18.4471 22.9993 18.6847 23.1102C18.9223 23.221 19.1069 23.4207 19.1988 23.6663C19.396 24.2235 19.7312 24.7216 20.1731 25.1143C20.6149 25.5069 21.149 25.7813 21.7255 25.9117C22.3021 26.0422 22.9022 26.0245 23.4701 25.8604C24.0379 25.6962 24.5549 25.3909 24.9729 24.9729C25.3909 24.5549 25.6962 24.0379 25.8603 23.4701C26.0245 22.9022 26.0422 22.3021 25.9117 21.7255C25.7813 21.149 25.5069 20.6149 25.1143 20.1731C24.7216 19.7313 24.2234 19.3961 23.6663 19.1988C23.4207 19.1069 23.221 18.9223 23.1101 18.6847C22.9993 18.4471 22.9863 18.1754 23.0738 17.9283C23.1613 17.6811 23.3424 17.4782 23.5781 17.3633C23.8137 17.2484 24.0851 17.2306 24.3337 17.3138C25.4054 17.6941 26.3331 18.3968 26.9895 19.3253C27.646 20.2539 27.9989 21.3629 28 22.5ZM14.6863 24.3338C14.3763 25.2094 13.8496 25.9923 13.1553 26.6095C12.461 27.2266 11.6217 27.6578 10.7157 27.8628C9.80968 28.0679 8.8665 28.0402 7.97411 27.7822C7.08173 27.5243 6.26922 27.0445 5.61238 26.3876C4.95554 25.7308 4.47576 24.9183 4.21779 24.0259C3.95983 23.1335 3.9321 22.1903 4.13717 21.2843C4.34224 20.3783 4.77344 19.539 5.39055 18.8447C6.00766 18.1504 6.79057 17.6237 7.66625 17.3138C7.9149 17.2306 8.18627 17.2484 8.42192 17.3633C8.65758 17.4782 8.83867 17.6811 8.92619 17.9283C9.01371 18.1754 9.00066 18.4471 8.88985 18.6847C8.77904 18.9223 8.57934 19.1069 8.33375 19.1988C7.77655 19.3961 7.27839 19.7313 6.88574 20.1731C6.4931 20.6149 6.21875 21.149 6.08828 21.7255C5.95782 22.3021 5.97549 22.9022 6.13966 23.4701C6.30382 24.0379 6.60912 24.5549 7.02709 24.9729C7.44506 25.3909 7.96208 25.6962 8.52993 25.8604C9.09777 26.0245 9.69794 26.0422 10.2745 25.9117C10.851 25.7813 11.3851 25.5069 11.8269 25.1143C12.2688 24.7216 12.604 24.2235 12.8013 23.6663C12.8931 23.4207 13.0777 23.221 13.3153 23.1102C13.5529 22.9993 13.8246 22.9863 14.0717 23.0738C14.3189 23.1613 14.5218 23.3424 14.6367 23.5781C14.7517 23.8137 14.7694 24.0851 14.6863 24.3338ZM4 9.50001C3.99937 8.20215 4.45773 6.94587 5.29401 5.95336C6.1303 4.96085 7.29063 4.29606 8.5698 4.07656C9.84897 3.85705 11.1646 4.09698 12.2839 4.75391C13.4032 5.41083 14.2542 6.44243 14.6863 7.66626C14.7328 7.79064 14.754 7.92304 14.7488 8.05573C14.7436 8.18842 14.712 8.31874 14.6559 8.43909C14.5998 8.55943 14.5202 8.6674 14.4219 8.75669C14.3236 8.84597 14.2086 8.91478 14.0834 8.95911C13.9582 9.00343 13.8255 9.02238 13.6929 9.01486C13.5603 9.00733 13.4306 8.97347 13.3112 8.91525C13.1918 8.85704 13.0853 8.77564 12.9977 8.6758C12.9102 8.57596 12.8434 8.45969 12.8013 8.33376C12.604 7.77656 12.2688 7.2784 11.8269 6.88575C11.3851 6.4931 10.851 6.21875 10.2745 6.08829C9.69794 5.95783 9.09777 5.9755 8.52993 6.13966C7.96208 6.30383 7.44506 6.60913 7.02709 7.0271C6.60912 7.44507 6.30382 7.96209 6.13966 8.52993C5.97549 9.09778 5.95782 9.69795 6.08828 10.2745C6.21875 10.851 6.4931 11.3851 6.88574 11.8269C7.27839 12.2688 7.77655 12.604 8.33375 12.8013C8.56062 12.8767 8.75295 13.0309 8.87589 13.236C8.99883 13.441 9.04423 13.6833 9.00387 13.919C8.96351 14.1546 8.84006 14.368 8.6559 14.5205C8.47173 14.6729 8.23904 14.7544 8 14.75C7.88626 14.7503 7.77333 14.7309 7.66625 14.6925C6.59358 14.3118 5.66518 13.6082 5.00867 12.6784C4.35216 11.7486 3.99979 10.6382 4 9.50001Z" fill="#343330"/>
</svg>
