<svg width="32" height="32" viewBox="0 0 32 32" fill="none" xmlns="http://www.w3.org/2000/svg">
<path d="M21.75 5.96877C20.206 4.18557 18.4682 2.57984 16.5688 1.18127C16.4006 1.06349 16.2003 1.00031 15.995 1.00031C15.7897 1.00031 15.5894 1.06349 15.4213 1.18127C13.5253 2.58042 11.7909 4.18613 10.25 5.96877C6.81375 9.91502 5 14.075 5 18C5 20.9174 6.15893 23.7153 8.22183 25.7782C10.2847 27.8411 13.0826 29 16 29C18.9174 29 21.7153 27.8411 23.7782 25.7782C25.8411 23.7153 27 20.9174 27 18C27 14.075 25.1863 9.91502 21.75 5.96877ZM16 27C13.6139 26.9974 11.3262 26.0483 9.63896 24.3611C7.95171 22.6738 7.00265 20.3862 7 18C7 10.8463 13.9338 4.87502 16 3.25002C18.0662 4.87502 25 10.8438 25 18C24.9974 20.3862 24.0483 22.6738 22.361 24.3611C20.6738 26.0483 18.3861 26.9974 16 27ZM22.9862 19.1675C22.7269 20.6159 22.0301 21.9501 20.9896 22.9904C19.949 24.0307 18.6147 24.7273 17.1663 24.9863C17.1113 24.9951 17.0557 24.9997 17 25C16.7492 25 16.5075 24.9056 16.323 24.7357C16.1384 24.5658 16.0245 24.3328 16.0037 24.0828C15.9829 23.8328 16.0569 23.5842 16.2108 23.3862C16.3648 23.1881 16.5876 23.0552 16.835 23.0138C18.9062 22.665 20.6637 20.9075 21.015 18.8325C21.0594 18.571 21.2059 18.3377 21.4223 18.1842C21.6387 18.0307 21.9072 17.9694 22.1688 18.0138C22.4303 18.0582 22.6635 18.2047 22.8171 18.4211C22.9706 18.6375 23.0319 18.906 22.9875 19.1675H22.9862Z" fill="#343330"/>
</svg>
