<svg width="32" height="32" viewBox="0 0 32 32" fill="none" xmlns="http://www.w3.org/2000/svg">
<path d="M21.75 5.96877C20.206 4.18557 18.4682 2.57984 16.5688 1.18127C16.4006 1.06349 16.2003 1.00031 15.995 1.00031C15.7897 1.00031 15.5894 1.06349 15.4213 1.18127C13.5253 2.58042 11.7909 4.18613 10.25 5.96877C6.81375 9.91502 5 14.075 5 18C5 20.9174 6.15893 23.7153 8.22183 25.7782C10.2847 27.8411 13.0826 29 16 29C18.9174 29 21.7153 27.8411 23.7782 25.7782C25.8411 23.7153 27 20.9174 27 18C27 14.075 25.1863 9.91502 21.75 5.96877ZM25 18C24.9998 18.3342 24.9806 18.668 24.9425 19H17V17H24.955C24.985 17.3334 25 17.6667 25 18ZM22.9237 11H17V9.00002H21.6112C22.0847 9.64237 22.5229 10.31 22.9237 11ZM17 25H21.6488C20.3169 26.0789 18.7035 26.7531 17 26.9425V25ZM17 23V21H24.4837C24.2349 21.7057 23.8989 22.3775 23.4837 23H17ZM17 15V13H23.9237C24.1988 13.6494 24.4265 14.3178 24.605 15H17ZM19.9862 7.00002H17V4.07502C18.0578 4.98422 19.0553 5.96128 19.9862 7.00002ZM7 18C7 11.75 12.2825 6.41127 15 4.07502V26.9425C12.8011 26.6945 10.7703 25.6459 9.29493 23.9966C7.81952 22.3474 7.00263 20.2129 7 18Z" fill="#343330"/>
</svg>
