<svg width="32" height="32" viewBox="0 0 32 32" fill="none" xmlns="http://www.w3.org/2000/svg">
<path d="M6.74001 4.32752C6.65219 4.22853 6.5456 4.14796 6.42641 4.09046C6.30722 4.03297 6.1778 3.9997 6.04566 3.9926C5.91352 3.98549 5.78129 4.00468 5.65662 4.04905C5.53195 4.09342 5.41733 4.1621 5.3194 4.2511C5.22146 4.3401 5.14217 4.44765 5.08611 4.56752C5.03005 4.68739 4.99834 4.81719 4.99282 4.94941C4.98729 5.08162 5.00806 5.21362 5.05393 5.33775C5.09979 5.46188 5.16984 5.57567 5.26001 5.67252L8.09001 8.78627C6.04001 11.875 5.00001 14.9725 5.00001 18C5.00012 20.1604 5.63638 22.2729 6.82942 24.074C8.02245 25.8751 9.71943 27.285 11.7086 28.1278C13.6978 28.9707 15.8912 29.2091 18.015 28.8133C20.1388 28.4176 22.0991 27.4052 23.6513 25.9025L25.26 27.6725C25.3478 27.7715 25.4544 27.8521 25.5736 27.9096C25.6928 27.9671 25.8222 28.0003 25.9544 28.0075C26.0865 28.0146 26.2187 27.9954 26.3434 27.951C26.4681 27.9066 26.5827 27.8379 26.6806 27.749C26.7786 27.66 26.8578 27.5524 26.9139 27.4325C26.97 27.3127 27.0017 27.1829 27.0072 27.0506C27.0127 26.9184 26.992 26.7864 26.9461 26.6623C26.9002 26.5382 26.8302 26.4244 26.74 26.3275L6.74001 4.32752ZM16 27C13.6139 26.9974 11.3262 26.0483 9.63897 24.3611C7.95172 22.6738 7.00265 20.3862 7.00001 18C7.00001 15.5088 7.83501 12.9288 9.48251 10.3175L22.3038 24.42C20.6228 26.0745 18.3585 27.0012 16 27ZM11.25 6.31377C11.0581 6.13077 10.9467 5.87902 10.9404 5.61389C10.934 5.34876 11.0333 5.09198 11.2163 4.90002C12.5041 3.53549 13.9132 2.29079 15.4263 1.18127C15.5944 1.06349 15.7947 1.00031 16 1.00031C16.2053 1.00031 16.4056 1.06349 16.5738 1.18127C17 1.47877 27 8.58752 27 18C27.0006 18.9883 26.8682 19.9721 26.6063 20.925C26.5482 21.1361 26.4225 21.3224 26.2484 21.4552C26.0743 21.5879 25.8615 21.6599 25.6425 21.66C25.5521 21.6608 25.4621 21.649 25.375 21.625C25.1195 21.5546 24.9023 21.3857 24.7713 21.1553C24.6403 20.9249 24.6061 20.6519 24.6763 20.3963C24.8907 19.6156 24.9995 18.8096 25 18C25 10.845 18.065 4.87502 16 3.25002C14.8184 4.17889 13.7047 5.19105 12.6675 6.27877C12.5769 6.37446 12.4683 6.45129 12.3479 6.50486C12.2275 6.55844 12.0978 6.58769 11.966 6.59094C11.8343 6.59419 11.7032 6.57138 11.5804 6.52382C11.4575 6.47625 11.3452 6.40487 11.25 6.31377Z" fill="#343330"/>
</svg>
