<svg width="32" height="32" viewBox="0 0 32 32" fill="none" xmlns="http://www.w3.org/2000/svg">
<path d="M21.75 5.96877C20.206 4.18557 18.4682 2.57984 16.5688 1.18127C16.4006 1.06349 16.2003 1.00031 15.995 1.00031C15.7897 1.00031 15.5894 1.06349 15.4213 1.18127C13.5253 2.58042 11.7909 4.18613 10.25 5.96877C6.81375 9.91502 5 14.075 5 18C5 20.9174 6.15893 23.7153 8.22183 25.7782C10.2847 27.8411 13.0826 29 16 29C18.9174 29 21.7153 27.8411 23.7782 25.7782C25.8411 23.7153 27 20.9174 27 18C27 14.075 25.1863 9.91502 21.75 5.96877ZM23.4788 23H8.52125C8.10607 22.3775 7.77015 21.7057 7.52125 21H24.4837C24.2333 21.7059 23.8957 22.3778 23.4788 23ZM25 18C24.9998 18.3342 24.9806 18.668 24.9425 19H7.0575C7.01941 18.668 7.00021 18.3342 7 18C7 17.6667 7.015 17.3334 7.045 17H24.955C24.985 17.3334 25 17.6667 25 18ZM16 3.25002C17.77 4.63752 23.1075 9.21753 24.605 15H7.395C8.8925 9.22002 14.23 4.64002 16 3.25002ZM10.3512 25H21.6488C20.0505 26.2939 18.0564 26.9999 16 26.9999C13.9436 26.9999 11.9495 26.2939 10.3512 25Z" fill="#343330"/>
</svg>
