<svg width="32" height="32" viewBox="0 0 32 32" fill="none" xmlns="http://www.w3.org/2000/svg">
<path d="M21.75 5.96877C20.206 4.18557 18.4682 2.57984 16.5688 1.18127C16.4006 1.06349 16.2003 1.00031 15.995 1.00031C15.7897 1.00031 15.5894 1.06349 15.4213 1.18127C13.5253 2.58042 11.7909 4.18613 10.25 5.96877C6.81375 9.91502 5 14.075 5 18C5 20.9174 6.15893 23.7153 8.22183 25.7782C10.2847 27.8411 13.0826 29 16 29C18.9174 29 21.7153 27.8411 23.7782 25.7782C25.8411 23.7153 27 20.9174 27 18C27 14.075 25.1863 9.91502 21.75 5.96877ZM16 27C13.6139 26.9974 11.3262 26.0483 9.63896 24.3611C7.95171 22.6738 7.00265 20.3862 7 18C7 10.8463 13.9338 4.87502 16 3.25002C18.0662 4.87502 25 10.8438 25 18C24.9974 20.3862 24.0483 22.6738 22.361 24.3611C20.6738 26.0483 18.3861 26.9974 16 27Z" fill="#343330"/>
</svg>
