<svg width="32" height="32" viewBox="0 0 32 32" fill="none" xmlns="http://www.w3.org/2000/svg">
<path d="M26.74 26.3275C26.8302 26.4244 26.9002 26.5382 26.9461 26.6623C26.992 26.7864 27.0127 26.9184 27.0072 27.0506C27.0017 27.1828 26.97 27.3126 26.9139 27.4325C26.8578 27.5524 26.7786 27.6599 26.6806 27.7489C26.5827 27.8379 26.4681 27.9066 26.3434 27.951C26.2187 27.9954 26.0865 28.0145 25.9544 28.0074C25.8222 28.0003 25.6928 27.9671 25.5736 27.9096C25.4544 27.8521 25.3478 27.7715 25.26 27.6725L20.885 22.8663C20.4362 23.0048 19.9612 23.0361 19.4981 22.9575C19.0351 22.8789 18.5969 22.6927 18.219 22.4139C17.841 22.135 17.5338 21.7713 17.3221 21.3521C17.1104 20.9328 17 20.4697 17 20C16.9986 19.5787 17.0494 19.1588 17.1513 18.75L12 13.0825C11.9891 13.3477 11.8732 13.5977 11.6779 13.7775C11.4827 13.9573 11.224 14.0522 10.9588 14.0413C10.6935 14.0303 10.4435 13.9145 10.2637 13.7192C10.0839 13.5239 9.98907 13.2652 10 13C9.99929 12.3868 10.0929 11.7772 10.2775 11.1925L8.06251 8.75C7.3611 10.0565 6.99596 11.5171 7.00001 13C7.00001 16.3375 8.06626 17.365 9.19626 18.455C10.2763 19.5 11.5 20.6763 11.5 23.5C11.5 24.6935 11.9741 25.8381 12.818 26.682C13.6619 27.5259 14.8065 28 16 28C17.28 28 18.3063 27.48 19.2288 26.3638C19.3114 26.2596 19.4139 26.173 19.5304 26.109C19.6469 26.045 19.775 26.0048 19.9072 25.9909C20.0393 25.977 20.173 25.9895 20.3003 26.0278C20.4275 26.0661 20.5459 26.1294 20.6484 26.214C20.751 26.2986 20.8356 26.4028 20.8974 26.5204C20.9592 26.6381 20.9969 26.7669 21.0084 26.8993C21.0198 27.0318 21.0047 27.1651 20.964 27.2917C20.9233 27.4182 20.8578 27.5353 20.7713 27.6363C19.4763 29.205 17.875 30 16 30C14.2767 29.998 12.6246 29.3126 11.406 28.094C10.1874 26.8754 9.50199 25.2233 9.50001 23.5C9.50001 21.5263 8.79001 20.8413 7.80751 19.895C6.55751 18.6875 5.00001 17.1875 5.00001 13C4.99489 10.9508 5.56716 8.94152 6.65126 7.2025L5.26001 5.6725C5.16984 5.57564 5.09979 5.46185 5.05393 5.33773C5.00806 5.2136 4.98729 5.0816 4.99282 4.94938C4.99834 4.81717 5.03005 4.68736 5.08611 4.56749C5.14217 4.44763 5.22146 4.34007 5.3194 4.25108C5.41733 4.16208 5.53195 4.0934 5.65662 4.04903C5.78129 4.00465 5.91352 3.98546 6.04566 3.99257C6.1778 3.99968 6.30722 4.03295 6.42641 4.09044C6.5456 4.14793 6.65219 4.22851 6.74001 4.3275L26.74 26.3275ZM11.3863 5.27125C12.7524 4.45558 14.3104 4.01666 15.9014 3.99923C17.4924 3.9818 19.0596 4.38647 20.4433 5.17202C21.827 5.95756 22.9777 7.09589 23.7782 8.47101C24.5786 9.84613 25.0002 11.4089 25 13C25 13.2652 25.1054 13.5196 25.2929 13.7071C25.4804 13.8946 25.7348 14 26 14C26.2652 14 26.5196 13.8946 26.7071 13.7071C26.8947 13.5196 27 13.2652 27 13C27.0003 11.0551 26.4849 9.14482 25.5064 7.46398C24.5278 5.78314 23.1211 4.3918 21.4297 3.43177C19.7382 2.47174 17.8224 1.97735 15.8776 1.999C13.9328 2.02065 12.0285 2.55756 10.3588 3.555C10.1312 3.69126 9.96703 3.91234 9.90245 4.16962C9.83786 4.42689 9.87813 4.69929 10.0144 4.92688C10.1506 5.15447 10.3717 5.31861 10.629 5.38319C10.8863 5.44777 11.1587 5.40751 11.3863 5.27125ZM20.04 15.8963C20.1567 15.9565 20.2842 15.9932 20.415 16.0042C20.5459 16.0152 20.6777 16.0003 20.8028 15.9604C20.928 15.9205 21.044 15.8563 21.1443 15.7715C21.2446 15.6867 21.3273 15.583 21.3875 15.4663C21.7909 14.7069 22.0012 13.8599 22 13C22.0003 12.0448 21.7725 11.1033 21.3356 10.2538C20.8987 9.40433 20.2653 8.67146 19.4881 8.11614C18.7109 7.56082 17.8123 7.19909 16.8671 7.06105C15.9218 6.92301 14.9573 7.01265 14.0538 7.3225C13.8028 7.40853 13.5963 7.59073 13.4797 7.82902C13.363 8.06731 13.3459 8.34217 13.4319 8.59313C13.5179 8.84409 13.7001 9.05059 13.9384 9.16722C14.1767 9.28384 14.4515 9.30103 14.7025 9.215C15.3049 9.00843 15.9479 8.94868 16.578 9.0407C17.2082 9.13273 17.8072 9.37388 18.3254 9.74409C18.8436 10.1143 19.2658 10.6029 19.5571 11.1692C19.8484 11.7355 20.0002 12.3632 20 13C19.9998 13.5385 19.8658 14.0686 19.61 14.5425C19.5497 14.6592 19.5131 14.7866 19.5021 14.9175C19.491 15.0484 19.5059 15.1802 19.5459 15.3053C19.5858 15.4305 19.65 15.5465 19.7348 15.6468C19.8196 15.7471 19.9233 15.8298 20.04 15.89V15.8963Z" fill="#343330"/>
</svg>
