<svg width="32" height="32" viewBox="0 0 32 32" fill="none" xmlns="http://www.w3.org/2000/svg">
<path d="M26 19H6C5.46957 19 4.96086 19.2107 4.58579 19.5858C4.21071 19.9609 4 20.4696 4 21V24C4 24.5304 4.21071 25.0391 4.58579 25.4142C4.96086 25.7893 5.46957 26 6 26H26C26.5304 26 27.0391 25.7893 27.4142 25.4142C27.7893 25.0391 28 24.5304 28 24V21C28 20.4696 27.7893 19.9609 27.4142 19.5858C27.0391 19.2107 26.5304 19 26 19ZM26 24H6V21H26V24ZM6.03 17H25.97C26.3664 17.0019 26.7546 16.8873 27.0864 16.6704C27.4182 16.4535 27.679 16.1439 27.8363 15.78C27.9917 15.4252 28.0378 15.0321 27.9688 14.6509C27.8998 14.2697 27.7187 13.9178 27.4487 13.64L18.2325 3.95124C17.9437 3.65043 17.597 3.4111 17.2134 3.2476C16.8297 3.08411 16.417 2.99983 16 2.99983C15.583 2.99983 15.1703 3.08411 14.7866 3.2476C14.403 3.4111 14.0563 3.65043 13.7675 3.95124L4.55125 13.64C4.28128 13.9178 4.10023 14.2697 4.03121 14.6509C3.96219 15.0321 4.00833 15.4252 4.16375 15.78C4.32103 16.1439 4.58178 16.4535 4.91358 16.6704C5.24537 16.8873 5.6336 17.0019 6.03 17ZM15.2163 5.32999C15.3183 5.2256 15.4403 5.14266 15.5749 5.08603C15.7094 5.0294 15.854 5.00023 16 5.00023C16.146 5.00023 16.2906 5.0294 16.4251 5.08603C16.5597 5.14266 16.6817 5.2256 16.7838 5.32999L25.9813 15H6.0175L15.2163 5.32999Z" fill="#343330"/>
</svg>
