<svg width="32" height="32" viewBox="0 0 32 32" fill="none" xmlns="http://www.w3.org/2000/svg">
<path d="M29 25C29 25.2652 28.8946 25.5196 28.7071 25.7071C28.5196 25.8946 28.2652 26 28 26H3.99999C3.73477 26 3.48042 25.8946 3.29288 25.7071C3.10534 25.5196 2.99999 25.2652 2.99999 25C2.99999 24.7348 3.10534 24.4804 3.29288 24.2929C3.48042 24.1054 3.73477 24 3.99999 24H28C28.2652 24 28.5196 24.1054 28.7071 24.2929C28.8946 24.4804 29 24.7348 29 25ZM3.19874 18.855C3.0331 18.5124 2.96863 18.1297 3.01292 17.7517C3.0572 17.3737 3.20839 17.0163 3.44874 16.7212L13.6575 4.11749C13.94 3.76846 14.297 3.48697 14.7023 3.29361C15.1076 3.10024 15.5509 2.99989 16 2.99989C16.449 2.99989 16.8924 3.10024 17.2977 3.29361C17.703 3.48697 18.06 3.76846 18.3425 4.11749L28.5487 16.7212C28.7877 17.0164 28.9382 17.3731 28.983 17.7502C29.0278 18.1272 28.965 18.5093 28.8018 18.8521C28.6387 19.195 28.3819 19.4848 28.061 19.6879C27.7402 19.891 27.3685 19.9992 26.9887 20H5.01124C4.6316 20.0008 4.25957 19.8936 3.93861 19.6909C3.61765 19.4881 3.36103 19.1982 3.19874 18.855ZM4.99999 17.9887C4.99999 17.9887 4.99999 18 5.00999 18.0025H26.9887C26.9887 18.0025 26.9987 17.9912 26.9987 17.9862L16.7875 5.37499C16.6926 5.25755 16.5726 5.16282 16.4363 5.09774C16.3001 5.03267 16.151 4.99889 16 4.99889C15.849 4.99889 15.6999 5.03267 15.5636 5.09774C15.4274 5.16282 15.3074 5.25755 15.2125 5.37499L4.99999 17.98C4.99962 17.9829 4.99962 17.9858 4.99999 17.9887Z" fill="#343330"/>
</svg>
