<svg width="32" height="32" viewBox="0 0 32 32" fill="none" xmlns="http://www.w3.org/2000/svg">
<path d="M24.78 7.82875L26.74 5.6725C26.9146 5.47566 27.0046 5.21791 26.9905 4.95515C26.9763 4.6924 26.8592 4.4458 26.6645 4.26882C26.4697 4.09185 26.2131 3.99876 25.9502 4.00975C25.6873 4.02073 25.4393 4.1349 25.26 4.3275L23.3 6.4825C20.9135 4.64965 17.9253 3.78082 14.9281 4.04839C11.9309 4.31595 9.14381 5.70036 7.11972 7.92695C5.09563 10.1535 3.98245 13.0596 4.00102 16.0687C4.0196 19.0777 5.16856 21.9698 7.21998 24.1713L5.25999 26.3275C5.16982 26.4244 5.09977 26.5382 5.05391 26.6623C5.00804 26.7864 4.98727 26.9184 4.99279 27.0506C4.99832 27.1828 5.03003 27.3126 5.08609 27.4325C5.14215 27.5524 5.22144 27.6599 5.31937 27.7489C5.4173 27.8379 5.53193 27.9066 5.6566 27.951C5.78127 27.9954 5.9135 28.0145 6.04564 28.0074C6.17778 28.0003 6.3072 27.9671 6.42639 27.9096C6.54557 27.8521 6.65217 27.7715 6.73998 27.6725L8.69999 25.5175C11.0865 27.3504 14.0747 28.2192 17.0719 27.9516C20.0691 27.6841 22.8562 26.2996 24.8803 24.0731C26.9043 21.8465 28.0175 18.9404 27.9989 15.9313C27.9804 12.9223 26.8314 10.0302 24.78 7.82875ZM5.99999 16C6.0011 14.1487 6.51611 12.334 7.48765 10.7581C8.4592 9.18223 9.84914 7.90697 11.5027 7.07437C13.1562 6.24178 15.0084 5.88454 16.8529 6.04245C18.6975 6.20036 20.462 6.86722 21.95 7.96875L8.57499 22.685C6.91673 20.8535 5.99891 18.4707 5.99999 16ZM16 26C13.8563 26.0023 11.7693 25.3117 10.05 24.0313L23.425 9.315C24.719 10.7505 25.569 12.5305 25.872 14.4392C26.1751 16.348 25.9181 18.3037 25.1324 20.0694C24.3466 21.8351 23.0657 23.3351 21.4448 24.3877C19.824 25.4403 17.9327 26.0004 16 26Z" fill="#343330"/>
</svg>
