<svg width="32" height="32" viewBox="0 0 32 32" fill="none" xmlns="http://www.w3.org/2000/svg">
<path d="M30 13H28.4137L24 8.58625C23.815 8.39972 23.5947 8.25184 23.352 8.1512C23.1093 8.05056 22.849 7.99916 22.5863 8H17.5V5H20.5C20.7652 5 21.0196 4.89464 21.2071 4.70711C21.3946 4.51957 21.5 4.26522 21.5 4C21.5 3.73478 21.3946 3.48043 21.2071 3.29289C21.0196 3.10536 20.7652 3 20.5 3H12.5C12.2348 3 11.9804 3.10536 11.7929 3.29289C11.6054 3.48043 11.5 3.73478 11.5 4C11.5 4.26522 11.6054 4.51957 11.7929 4.70711C11.9804 4.89464 12.2348 5 12.5 5H15.5V8H8C7.46957 8 6.96086 8.21071 6.58579 8.58579C6.21071 8.96086 6 9.46957 6 10V16.5H3V13.5C3 13.2348 2.89464 12.9804 2.70711 12.7929C2.51957 12.6054 2.26522 12.5 2 12.5C1.73478 12.5 1.48043 12.6054 1.29289 12.7929C1.10536 12.9804 1 13.2348 1 13.5V21.5C1 21.7652 1.10536 22.0196 1.29289 22.2071C1.48043 22.3946 1.73478 22.5 2 22.5C2.26522 22.5 2.51957 22.3946 2.70711 22.2071C2.89464 22.0196 3 21.7652 3 21.5V18.5H6V21.0863C5.99916 21.349 6.05056 21.6093 6.1512 21.852C6.25184 22.0947 6.39972 22.315 6.58625 22.5L11.5 27.4137C11.685 27.6003 11.9053 27.7482 12.148 27.8488C12.3907 27.9494 12.651 28.0008 12.9137 28H22.5863C22.849 28.0008 23.1093 27.9494 23.352 27.8488C23.5947 27.7482 23.815 27.6003 24 27.4137L28.4137 23H30C30.5304 23 31.0391 22.7893 31.4142 22.4142C31.7893 22.0391 32 21.5304 32 21V15C32 14.4696 31.7893 13.9609 31.4142 13.5858C31.0391 13.2107 30.5304 13 30 13ZM30 21H28C27.8686 20.9999 27.7385 21.0257 27.6171 21.0759C27.4958 21.1261 27.3854 21.1997 27.2925 21.2925L22.5863 26H12.9137L8 21.0863V10H22.5863L27.2925 14.7075C27.3854 14.8003 27.4958 14.8739 27.6171 14.9241C27.7385 14.9743 27.8686 15.0001 28 15H30V21Z" fill="#343330"/>
</svg>
