<svg width="32" height="32" viewBox="0 0 32 32" fill="none" xmlns="http://www.w3.org/2000/svg">
<path d="M28.125 10.05L22.95 4.87501C22.3874 4.31244 21.6244 3.9964 20.8288 3.9964C20.0331 3.9964 19.2701 4.31244 18.7075 4.87501L3.87501 19.7075C3.31244 20.2701 2.9964 21.0331 2.9964 21.8288C2.9964 22.6244 3.31244 23.3874 3.87501 23.95L7.63251 27.7075C7.72574 27.8006 7.83647 27.8744 7.95831 27.9246C8.08016 27.9748 8.21073 28.0004 8.34251 28H27C27.2652 28 27.5196 27.8947 27.7071 27.7071C27.8947 27.5196 28 27.2652 28 27C28 26.7348 27.8947 26.4804 27.7071 26.2929C27.5196 26.1054 27.2652 26 27 26H16.4125L28.125 14.2925C28.6876 13.7299 29.0036 12.9669 29.0036 12.1713C29.0036 11.3756 28.6876 10.6126 28.125 10.05ZM13.585 26H8.75626L5.29126 22.535C5.10386 22.3475 4.9986 22.0932 4.9986 21.8281C4.9986 21.563 5.10386 21.3088 5.29126 21.1213L12 14.4138L18.5863 21L13.585 26ZM26.71 12.875L20 19.5863L13.4138 13L20.125 6.29251C20.2179 6.19953 20.3282 6.12577 20.4496 6.07545C20.571 6.02512 20.7011 5.99922 20.8325 5.99922C20.9639 5.99922 21.094 6.02512 21.2154 6.07545C21.3368 6.12577 21.4471 6.19953 21.54 6.29251L26.7125 11.465C26.8999 11.6525 27.0052 11.9068 27.0052 12.1719C27.0052 12.437 26.8999 12.6912 26.7125 12.8788L26.71 12.875Z" fill="#343330"/>
</svg>
