<svg width="32" height="32" viewBox="0 0 32 32" fill="none" xmlns="http://www.w3.org/2000/svg">
<path d="M21.8287 10.1712C21.4962 8.38012 20.6806 6.71388 19.4702 5.35242C18.2598 3.99097 16.7005 2.98602 14.9606 2.44609C13.2208 1.90615 11.3665 1.85175 9.59793 2.28875C7.82941 2.72575 6.21385 3.63755 4.9257 4.9257C3.63755 6.21385 2.72575 7.82941 2.28875 9.59793C1.85175 11.3665 1.90615 13.2208 2.44609 14.9606C2.98602 16.7005 3.99097 18.2598 5.35242 19.4702C6.71388 20.6806 8.38012 21.4962 10.1712 21.8287C10.5038 23.6198 11.3193 25.2861 12.5297 26.6475C13.7401 28.009 15.2994 29.0139 17.0393 29.5539C18.7792 30.0938 20.6335 30.1482 22.402 29.7112C24.1705 29.2742 25.7861 28.3624 27.0742 27.0742C28.3624 25.7861 29.2742 24.1705 29.7112 22.402C30.1482 20.6335 30.0938 18.7792 29.5539 17.0393C29.0139 15.2994 28.009 13.7401 26.6475 12.5297C25.2861 11.3193 23.6198 10.5038 21.8287 10.1712ZM28 20C28 20.19 27.9912 20.375 27.9775 20.5637L21.7275 14.3137C21.8899 13.6372 21.9812 12.9455 22 12.25C23.7167 12.6957 25.2371 13.6983 26.3229 15.1008C27.4087 16.5033 27.9985 18.2263 28 20ZM26.3162 24.9012L19.7387 18.325C20.2247 17.7311 20.6412 17.0835 20.98 16.395L27.4625 22.875C27.1812 23.6027 26.7951 24.2853 26.3162 24.9012ZM22.875 27.4625L16.3925 20.98C17.081 20.6412 17.7286 20.2247 18.3225 19.7387L24.8987 26.3162C24.2836 26.7948 23.6018 27.181 22.875 27.4625ZM5.68372 7.09872L12.2612 13.675C11.7752 14.2689 11.3588 14.9164 11.02 15.605L4.53747 9.12497C4.81871 8.39728 5.20489 7.71464 5.68372 7.09872ZM9.12497 4.53747L15.6075 11.02C14.9189 11.3588 14.2714 11.7752 13.6775 12.2612L7.09872 5.68372C7.71464 5.20489 8.39728 4.81871 9.12497 4.53747ZM20 12C19.9977 14.121 19.1541 16.1545 17.6543 17.6543C16.1545 19.1541 14.121 19.9977 12 20C12.0023 17.879 12.8459 15.8455 14.3457 14.3457C15.8455 12.8459 17.879 12.0023 20 12ZM19.75 9.99997C19.0555 10.0169 18.3647 10.1061 17.6887 10.2662L11.4387 4.01622C11.625 4.00872 11.81 3.99997 12 3.99997C13.7745 4.0018 15.4982 4.59253 16.9007 5.67953C18.3033 6.76653 19.3055 8.28832 19.75 10.0062V9.99997ZM3.99997 12C3.99997 11.81 4.00872 11.625 4.02247 11.4362L10.2725 17.6862C10.1122 18.363 10.023 19.0547 10.0062 19.75C8.28832 19.3055 6.76653 18.3033 5.67953 16.9007C4.59253 15.4982 4.0018 13.7745 3.99997 12ZM12.25 22C12.9444 21.9831 13.6353 21.8938 14.3112 21.7337L20.5612 27.9837C20.375 27.9975 20.1862 28.0062 19.9975 28.0062C18.2234 28.0038 16.5003 27.4129 15.0982 26.3259C13.6961 25.2389 12.6944 23.7175 12.25 22Z" fill="#343330"/>
</svg>
