<svg width="32" height="32" viewBox="0 0 32 32" fill="none" xmlns="http://www.w3.org/2000/svg">
<path d="M18 25C18 25.3956 17.8827 25.7822 17.6629 26.1111C17.4432 26.44 17.1308 26.6964 16.7654 26.8478C16.3999 26.9991 15.9978 27.0387 15.6098 26.9616C15.2219 26.8844 14.8655 26.6939 14.5858 26.4142C14.3061 26.1345 14.1156 25.7781 14.0384 25.3902C13.9613 25.0022 14.0009 24.6001 14.1522 24.2346C14.3036 23.8692 14.56 23.5568 14.8889 23.3371C15.2178 23.1173 15.6044 23 16 23C16.5304 23 17.0391 23.2107 17.4142 23.5858C17.7893 23.9609 18 24.4696 18 25ZM16 20C16.2652 20 16.5196 19.8946 16.7071 19.7071C16.8946 19.5196 17 19.2652 17 19V6C17 5.73478 16.8946 5.48043 16.7071 5.29289C16.5196 5.10536 16.2652 5 16 5C15.7348 5 15.4804 5.10536 15.2929 5.29289C15.1054 5.48043 15 5.73478 15 6V19C15 19.2652 15.1054 19.5196 15.2929 19.7071C15.4804 19.8946 15.7348 20 16 20Z" fill="#343330"/>
</svg>
