<svg width="32" height="32" viewBox="0 0 32 32" fill="none" xmlns="http://www.w3.org/2000/svg">
<path d="M28.5 21.875C28.3858 21.9401 28.2598 21.9821 28.1294 21.9985C27.9989 22.0149 27.8665 22.0054 27.7397 21.9706C27.6129 21.9358 27.4943 21.8763 27.3905 21.7955C27.2867 21.7148 27.1999 21.6143 27.135 21.5L24.76 17.35C23.3792 18.2836 21.8561 18.9869 20.25 19.4325L20.9837 23.835C21.0054 23.9646 21.0013 24.0972 20.9717 24.2252C20.942 24.3532 20.8875 24.4742 20.8111 24.5811C20.7347 24.688 20.638 24.7788 20.5265 24.8483C20.415 24.9179 20.2909 24.9647 20.1612 24.9863C20.1079 24.995 20.054 24.9996 20 25C19.7634 24.9996 19.5346 24.9154 19.3543 24.7623C19.174 24.6092 19.0537 24.3971 19.015 24.1638L18.2937 19.8413C16.7727 20.0529 15.2298 20.0529 13.7087 19.8413L12.9875 24.1638C12.9487 24.3976 12.8281 24.61 12.6472 24.7631C12.4664 24.9163 12.237 25.0002 12 25C11.9447 24.9998 11.8895 24.9952 11.835 24.9863C11.7054 24.9647 11.5813 24.9179 11.4698 24.8483C11.3583 24.7788 11.2615 24.688 11.1852 24.5811C11.1088 24.4742 11.0542 24.3532 11.0246 24.2252C10.995 24.0972 10.9908 23.9646 11.0125 23.835L11.75 19.4325C10.1445 18.9855 8.62225 18.2809 7.2425 17.3463L4.875 21.5C4.74239 21.7311 4.52342 21.9 4.26626 21.9696C4.0091 22.0392 3.73482 22.0039 3.50375 21.8713C3.27268 21.7386 3.10375 21.5197 3.03413 21.2625C2.9645 21.0054 2.99989 20.7311 3.1325 20.5L5.6325 16.125C4.75437 15.3664 3.94689 14.5296 3.22 13.625C3.12935 13.5238 3.06027 13.4052 3.01699 13.2764C2.97371 13.1476 2.95713 13.0113 2.96827 12.8759C2.9794 12.7405 3.01802 12.6087 3.08176 12.4887C3.1455 12.3687 3.23302 12.263 3.33899 12.1779C3.44496 12.0929 3.56714 12.0303 3.69809 11.9941C3.82904 11.9578 3.96601 11.9486 4.10063 11.9671C4.23524 11.9855 4.36469 12.0312 4.48107 12.1013C4.59744 12.1715 4.69831 12.2646 4.7775 12.375C6.8525 14.9425 10.4825 18 16 18C21.5175 18 25.1475 14.9388 27.2225 12.375C27.3008 12.2623 27.4014 12.167 27.5181 12.0949C27.6349 12.0228 27.7652 11.9754 27.901 11.9559C28.0368 11.9363 28.1751 11.9448 28.3075 11.981C28.4398 12.0172 28.5633 12.0803 28.6702 12.1662C28.7772 12.2522 28.8653 12.3592 28.9291 12.4807C28.9929 12.6022 29.031 12.7355 29.041 12.8723C29.0511 13.0091 29.0329 13.1466 28.9875 13.2761C28.9422 13.4055 28.8707 13.5243 28.7775 13.625C28.0506 14.5296 27.2431 15.3664 26.365 16.125L28.865 20.5C28.9321 20.614 28.9759 20.7403 28.9939 20.8714C29.0119 21.0025 29.0036 21.1358 28.9697 21.2637C28.9357 21.3916 28.8767 21.5115 28.7961 21.6164C28.7155 21.7214 28.6148 21.8093 28.5 21.875Z" fill="#343330"/>
</svg>
