<svg width="32" height="32" viewBox="0 0 32 32" fill="none" xmlns="http://www.w3.org/2000/svg">
<path d="M28 8.41249C27.9932 7.81067 27.865 7.2164 27.6232 6.66526C27.3813 6.11413 27.0308 5.61746 26.5925 5.20499C24.8425 3.54499 22.0025 3.60749 20.265 5.34624L17.85 7.77499C17.2796 7.25517 16.5309 6.97512 15.7594 6.99304C14.988 7.01097 14.2531 7.32549 13.7075 7.87124L12.5825 8.99624C12.3965 9.18199 12.249 9.40256 12.1484 9.64536C12.0477 9.88816 11.9959 10.1484 11.9959 10.4112C11.9959 10.6741 12.0477 10.9343 12.1484 11.1771C12.249 11.4199 12.3965 11.6405 12.5825 11.8262L12.8325 12.0837L6.45748 18.4587C5.84386 19.0676 5.39968 19.826 5.16885 20.659C4.93801 21.4921 4.92849 22.3709 5.14123 23.2087L4.14123 25.51C4.00152 25.826 3.96101 26.1769 4.02507 26.5164C4.08913 26.8559 4.25474 27.1679 4.49998 27.4112C4.78311 27.6971 5.14632 27.8903 5.54159 27.9653C5.93686 28.0403 6.34559 27.9935 6.71373 27.8312L8.90498 26.875C9.72758 27.0608 10.5839 27.035 11.3938 26.8C12.2037 26.565 12.9408 26.1285 13.5362 25.5312L19.9112 19.1562L20.1687 19.4137C20.5438 19.7885 21.0523 19.9991 21.5825 19.9991C22.1127 19.9991 22.6212 19.7885 22.9962 19.4137L24.1212 18.2887C24.6679 17.7424 24.9827 17.0062 24.9999 16.2336C25.0172 15.4609 24.7355 14.7114 24.2137 14.1412L26.6825 11.6575C27.1093 11.2332 27.446 10.727 27.6724 10.1694C27.8988 9.61182 28.0102 9.01422 28 8.41249ZM12.125 24.125C11.7402 24.5106 11.2576 24.7842 10.7291 24.9163C10.2005 25.0484 9.64601 25.0342 9.12498 24.875C8.89653 24.8046 8.65042 24.8183 8.43123 24.9137L6.16873 25.9012L7.12498 23.6762C7.22421 23.4488 7.23534 23.1927 7.15623 22.9575C6.94055 22.3208 6.94495 21.6301 7.16873 20.9962H15.25L12.125 24.125ZM17.25 19H8.75873L14.2587 13.5L18.5012 17.75L17.25 19ZM25.2725 10.25L22.1012 13.44C21.9138 13.6275 21.8086 13.8818 21.8086 14.1469C21.8086 14.412 21.9138 14.6662 22.1012 14.8537L22.7125 15.4637C22.8055 15.5566 22.8792 15.6669 22.9295 15.7883C22.9799 15.9097 23.0058 16.0398 23.0058 16.1712C23.0058 16.3027 22.9799 16.4328 22.9295 16.5542C22.8792 16.6756 22.8055 16.7859 22.7125 16.8787L21.5875 18.0037L14 10.4075L15.125 9.28249C15.3125 9.0951 15.5668 8.98983 15.8319 8.98983C16.097 8.98983 16.3512 9.0951 16.5387 9.28249L17.15 9.89374C17.3374 10.0809 17.5914 10.1861 17.8562 10.1862C17.9878 10.186 18.118 10.1598 18.2394 10.1092C18.3608 10.0586 18.471 9.98453 18.5637 9.89124L21.6812 6.75499C22.6575 5.77749 24.2437 5.73249 25.2175 6.65374C25.4607 6.88349 25.6553 7.15971 25.7899 7.46606C25.9244 7.77241 25.996 8.10263 26.0006 8.43718C26.0051 8.77173 25.9425 9.10378 25.8163 9.41367C25.6902 9.72355 25.5031 10.005 25.2662 10.2412L25.2725 10.25Z" fill="#343330"/>
</svg>
