<svg width="32" height="32" viewBox="0 0 32 32" fill="none" xmlns="http://www.w3.org/2000/svg">
<path d="M28 8.41249C27.9932 7.81067 27.8651 7.2164 27.6232 6.66526C27.3814 6.11413 27.0308 5.61746 26.5925 5.20499C24.8425 3.54499 22.0025 3.60749 20.265 5.34624L17.85 7.77499C17.2797 7.25517 16.531 6.97512 15.7595 6.99304C14.988 7.01097 14.2531 7.32549 13.7075 7.87124L12.5825 8.99624C12.3966 9.18199 12.249 9.40256 12.1484 9.64536C12.0477 9.88816 11.9959 10.1484 11.9959 10.4112C11.9959 10.6741 12.0477 10.9343 12.1484 11.1771C12.249 11.4199 12.3966 11.6405 12.5825 11.8262L12.8325 12.0837L6.45751 18.4587C5.84388 19.0676 5.39971 19.826 5.16887 20.659C4.93804 21.4921 4.92852 22.3709 5.14126 23.2087L4.14126 25.51C4.0018 25.8262 3.96142 26.1773 4.02547 26.5169C4.08951 26.8565 4.25496 27.1688 4.50001 27.4125C4.78347 27.6978 5.14673 27.8906 5.54192 27.9653C5.93711 28.0401 6.34567 27.9933 6.71376 27.8312L8.90376 26.875C9.72655 27.0612 10.5831 27.0355 11.3933 26.8005C12.2035 26.5655 12.9408 26.1288 13.5363 25.5312L19.9113 19.1562L20.1688 19.4137C20.5438 19.7885 21.0523 19.9991 21.5825 19.9991C22.1127 19.9991 22.6212 19.7885 22.9963 19.4137L24.1213 18.2887C24.668 17.7424 24.9827 17.0062 25 16.2336C25.0172 15.4609 24.7356 14.7114 24.2138 14.1412L26.6825 11.6575C27.1093 11.2332 27.446 10.727 27.6724 10.1694C27.8988 9.61182 28.0102 9.01422 28 8.41249ZM12.125 24.125C11.7402 24.5106 11.2576 24.7842 10.7291 24.9163C10.2006 25.0484 9.64603 25.0342 9.12501 24.875C8.89656 24.8046 8.65044 24.8183 8.43126 24.9137L6.16876 25.9025L7.12501 23.6762C7.22423 23.4488 7.23537 23.1927 7.15626 22.9575C6.97504 22.428 6.94634 21.8582 7.07343 21.3131C7.20052 20.7681 7.47828 20.2697 7.87501 19.875L14.25 13.5L18.4925 17.75L12.125 24.125ZM25.2663 10.25L22.095 13.44C21.908 13.6275 21.803 13.8814 21.803 14.1462C21.803 14.411 21.908 14.665 22.095 14.8525L22.7063 15.4637C22.7992 15.5566 22.873 15.6669 22.9233 15.7883C22.9736 15.9097 22.9995 16.0398 22.9995 16.1712C22.9995 16.3027 22.9736 16.4328 22.9233 16.5542C22.873 16.6756 22.7992 16.7859 22.7063 16.8787L21.5813 18.0037L14 10.4075L15.125 9.28249C15.3125 9.0951 15.5668 8.98983 15.8319 8.98983C16.097 8.98983 16.3512 9.0951 16.5388 9.28249L17.15 9.89374C17.2429 9.9869 17.3533 10.0608 17.4748 10.1113C17.5963 10.1617 17.7266 10.1877 17.8581 10.1877C17.9897 10.1877 18.12 10.1617 18.2415 10.1113C18.363 10.0608 18.4734 9.9869 18.5663 9.89374L21.6838 6.75749C22.66 5.77999 24.2463 5.73499 25.22 6.65624C25.4632 6.88599 25.6579 7.16221 25.7924 7.46856C25.9269 7.77491 25.9985 8.10513 26.0031 8.43968C26.0076 8.77422 25.945 9.10628 25.8188 9.41617C25.6927 9.72605 25.5057 10.0075 25.2688 10.2437L25.2663 10.25Z" fill="#343330"/>
</svg>
