<svg width="32" height="32" viewBox="0 0 32 32" fill="none" xmlns="http://www.w3.org/2000/svg">
<path d="M22 4C19.4237 4 17.215 6.27 16 9.73125C14.785 6.27 12.5763 4 10 4C6.075 4 3 9.27125 3 16C3 22.7288 6.075 28 10 28C12.5763 28 14.785 25.73 16 22.2687C17.215 25.73 19.4237 28 22 28C25.925 28 29 22.7288 29 16C29 9.27125 25.925 4 22 4ZM13.365 23.2987C12.4288 25.015 11.2025 26 10 26C8.7975 26 7.57125 25.015 6.635 23.2987C6.02975 22.1509 5.59837 20.9196 5.355 19.645C5.96423 19.9204 6.63276 20.0386 7.29948 19.989C7.96619 19.9393 8.60983 19.7233 9.17156 19.3608C9.73328 18.9982 10.1952 18.5007 10.515 17.9136C10.8348 17.3265 11.0024 16.6686 11.0024 16C11.0024 15.3314 10.8348 14.6735 10.515 14.0864C10.1952 13.4993 9.73328 13.0018 9.17156 12.6392C8.60983 12.2767 7.96619 12.0607 7.29948 12.011C6.63276 11.9614 5.96423 12.0796 5.355 12.355C5.59837 11.0804 6.02975 9.84906 6.635 8.70125C7.57125 6.985 8.7975 6 10 6C11.2025 6 12.4288 6.985 13.365 8.70125C14.4187 10.6337 15 13.2262 15 16C15 18.7738 14.4187 21.3662 13.365 23.2987ZM5 16C5 15.6044 5.1173 15.2178 5.33706 14.8889C5.55682 14.56 5.86918 14.3036 6.23463 14.1522C6.60009 14.0009 7.00222 13.9613 7.39018 14.0384C7.77814 14.1156 8.13451 14.3061 8.41421 14.5858C8.69392 14.8655 8.8844 15.2219 8.96157 15.6098C9.03874 15.9978 8.99913 16.3999 8.84776 16.7654C8.69638 17.1308 8.44004 17.4432 8.11114 17.6629C7.78224 17.8827 7.39556 18 7 18C6.46957 18 5.96086 17.7893 5.58579 17.4142C5.21071 17.0391 5 16.5304 5 16ZM25.365 23.2987C24.4287 25.015 23.2025 26 22 26C20.7975 26 19.5713 25.015 18.635 23.2987C18.0297 22.1509 17.5984 20.9196 17.355 19.645C17.9642 19.9204 18.6328 20.0386 19.2995 19.989C19.9662 19.9393 20.6098 19.7233 21.1716 19.3608C21.7333 18.9982 22.1952 18.5007 22.515 17.9136C22.8348 17.3265 23.0024 16.6686 23.0024 16C23.0024 15.3314 22.8348 14.6735 22.515 14.0864C22.1952 13.4993 21.7333 13.0018 21.1716 12.6392C20.6098 12.2767 19.9662 12.0607 19.2995 12.011C18.6328 11.9614 17.9642 12.0796 17.355 12.355C17.5984 11.0804 18.0297 9.84906 18.635 8.70125C19.5713 6.985 20.7975 6 22 6C23.2025 6 24.4287 6.985 25.365 8.70125C26.4188 10.6337 27 13.2262 27 16C27 18.7738 26.4188 21.3662 25.365 23.2987ZM17 16C17 15.6044 17.1173 15.2178 17.3371 14.8889C17.5568 14.56 17.8692 14.3036 18.2346 14.1522C18.6001 14.0009 19.0022 13.9613 19.3902 14.0384C19.7781 14.1156 20.1345 14.3061 20.4142 14.5858C20.6939 14.8655 20.8844 15.2219 20.9616 15.6098C21.0387 15.9978 20.9991 16.3999 20.8478 16.7654C20.6964 17.1308 20.44 17.4432 20.1111 17.6629C19.7822 17.8827 19.3956 18 19 18C18.4696 18 17.9609 17.7893 17.5858 17.4142C17.2107 17.0391 17 16.5304 17 16Z" fill="#343330"/>
</svg>
