<svg width="32" height="32" viewBox="0 0 32 32" fill="none" xmlns="http://www.w3.org/2000/svg">
<path d="M22 13C22 13.2652 21.8946 13.5196 21.7071 13.7071C21.5196 13.8946 21.2652 14 21 14H11C10.7348 14 10.4804 13.8946 10.2929 13.7071C10.1054 13.5196 10 13.2652 10 13C10 12.7348 10.1054 12.4804 10.2929 12.2929C10.4804 12.1054 10.7348 12 11 12H21C21.2652 12 21.5196 12.1054 21.7071 12.2929C21.8946 12.4804 22 12.7348 22 13ZM21 16H11C10.7348 16 10.4804 16.1053 10.2929 16.2929C10.1054 16.4804 10 16.7348 10 17C10 17.2652 10.1054 17.5196 10.2929 17.7071C10.4804 17.8946 10.7348 18 11 18H21C21.2652 18 21.5196 17.8946 21.7071 17.7071C21.8946 17.5196 22 17.2652 22 17C22 16.7348 21.8946 16.4804 21.7071 16.2929C21.5196 16.1053 21.2652 16 21 16ZM32 13V16C32 17.0609 31.5786 18.0783 30.8284 18.8284C30.0783 19.5786 29.0609 20 28 20H27.3512C26.4525 21.975 24.6275 23.6787 21.9475 25.02C20.1163 25.9181 18.1776 26.578 16.1787 26.9837C16.0606 27.0054 15.9394 27.0054 15.8212 26.9837C13.8224 26.578 11.8837 25.9181 10.0525 25.02C7.375 23.6787 5.5475 21.975 4.64875 20H4C2.93913 20 1.92172 19.5786 1.17157 18.8284C0.421427 18.0783 0 17.0609 0 16V13C0 11.9391 0.421427 10.9217 1.17157 10.1716C1.92172 9.42142 2.93913 8.99999 4 8.99999H4.10625C4.20078 8.71396 4.3587 8.45298 4.56822 8.23654C4.77774 8.02009 5.03345 7.85377 5.31625 7.74999L15.3162 4.11374C15.758 3.9537 16.242 3.9537 16.6838 4.11374L26.6838 7.74999C26.9666 7.85377 27.2223 8.02009 27.4318 8.23654C27.6413 8.45298 27.7992 8.71396 27.8937 8.99999H28C29.0609 8.99999 30.0783 9.42142 30.8284 10.1716C31.5786 10.9217 32 11.9391 32 13ZM4.06875 18C4.02308 17.6686 4.00011 17.3345 4 17V11C3.46957 11 2.96086 11.2107 2.58579 11.5858C2.21071 11.9609 2 12.4696 2 13V16C2 16.5304 2.21071 17.0391 2.58579 17.4142C2.96086 17.7893 3.46957 18 4 18H4.06875ZM26 17V9.63624L16 5.99999L6 9.63624V17C6 22.625 14.6362 24.69 16 24.98C17.3612 24.69 26 22.625 26 17ZM30 13C30 12.4696 29.7893 11.9609 29.4142 11.5858C29.0391 11.2107 28.5304 11 28 11V17C27.9999 17.3345 27.9769 17.6686 27.9312 18H28C28.5304 18 29.0391 17.7893 29.4142 17.4142C29.7893 17.0391 30 16.5304 30 16V13Z" fill="#343330"/>
</svg>
