<svg width="32" height="32" viewBox="0 0 32 32" fill="none" xmlns="http://www.w3.org/2000/svg">
<path d="M22 10C22 9.73478 22.1054 9.48043 22.2929 9.29289C22.4804 9.10536 22.7348 9 23 9H27C27.2652 9 27.5196 9.10536 27.7071 9.29289C27.8946 9.48043 28 9.73478 28 10C28 10.2652 27.8946 10.5196 27.7071 10.7071C27.5196 10.8946 27.2652 11 27 11H23C22.7348 11 22.4804 10.8946 22.2929 10.7071C22.1054 10.5196 22 10.2652 22 10ZM5 11H18V13C18 13.2652 18.1054 13.5196 18.2929 13.7071C18.4804 13.8946 18.7348 14 19 14C19.2652 14 19.5196 13.8946 19.7071 13.7071C19.8946 13.5196 20 13.2652 20 13V7C20 6.73478 19.8946 6.48043 19.7071 6.29289C19.5196 6.10536 19.2652 6 19 6C18.7348 6 18.4804 6.10536 18.2929 6.29289C18.1054 6.48043 18 6.73478 18 7V9H5C4.73478 9 4.48043 9.10536 4.29289 9.29289C4.10536 9.48043 4 9.73478 4 10C4 10.2652 4.10536 10.5196 4.29289 10.7071C4.48043 10.8946 4.73478 11 5 11ZM27 21H15C14.7348 21 14.4804 21.1054 14.2929 21.2929C14.1054 21.4804 14 21.7348 14 22C14 22.2652 14.1054 22.5196 14.2929 22.7071C14.4804 22.8946 14.7348 23 15 23H27C27.2652 23 27.5196 22.8946 27.7071 22.7071C27.8946 22.5196 28 22.2652 28 22C28 21.7348 27.8946 21.4804 27.7071 21.2929C27.5196 21.1054 27.2652 21 27 21ZM11 18C10.7348 18 10.4804 18.1054 10.2929 18.2929C10.1054 18.4804 10 18.7348 10 19V21H5C4.73478 21 4.48043 21.1054 4.29289 21.2929C4.10536 21.4804 4 21.7348 4 22C4 22.2652 4.10536 22.5196 4.29289 22.7071C4.48043 22.8946 4.73478 23 5 23H10V25C10 25.2652 10.1054 25.5196 10.2929 25.7071C10.4804 25.8946 10.7348 26 11 26C11.2652 26 11.5196 25.8946 11.7071 25.7071C11.8946 25.5196 12 25.2652 12 25V19C12 18.7348 11.8946 18.4804 11.7071 18.2929C11.5196 18.1054 11.2652 18 11 18Z" fill="#343330"/>
</svg>
