<svg width="32" height="32" viewBox="0 0 32 32" fill="none" xmlns="http://www.w3.org/2000/svg">
<path d="M16 3C13.4288 3 10.9154 3.76244 8.77759 5.1909C6.63975 6.61935 4.97351 8.64968 3.98957 11.0251C3.00563 13.4006 2.74819 16.0144 3.2498 18.5362C3.75141 21.0579 4.98953 23.3743 6.80762 25.1924C8.6257 27.0105 10.9421 28.2486 13.4638 28.7502C15.9856 29.2518 18.5995 28.9944 20.9749 28.0104C23.3503 27.0265 25.3807 25.3603 26.8091 23.2224C28.2376 21.0846 29 18.5712 29 16C28.9964 12.5533 27.6256 9.24882 25.1884 6.81163C22.7512 4.37445 19.4467 3.00364 16 3ZM16 27C13.8244 27 11.6977 26.3549 9.88873 25.1462C8.07979 23.9375 6.66989 22.2195 5.83733 20.2095C5.00477 18.1995 4.78693 15.9878 5.21137 13.854C5.63581 11.7202 6.68345 9.7602 8.22183 8.22183C9.76021 6.68345 11.7202 5.6358 13.854 5.21136C15.9878 4.78692 18.1995 5.00476 20.2095 5.83733C22.2195 6.66989 23.9375 8.07979 25.1462 9.88873C26.3549 11.6977 27 13.8244 27 16C26.9967 18.9164 25.8367 21.7123 23.7745 23.7745C21.7123 25.8367 18.9164 26.9967 16 27ZM24.8813 15.5288C24.796 15.3691 24.6689 15.2356 24.5138 15.1425C24.3586 15.0494 24.181 15.0001 24 15H17.875L20.8388 10.555C20.9396 10.4039 20.9973 10.2282 21.0058 10.0468C21.0143 9.8654 20.9733 9.68509 20.8871 9.52524C20.8008 9.3654 20.6727 9.23205 20.5164 9.13951C20.3601 9.04697 20.1816 8.99874 20 9H12C11.8189 8.99988 11.6412 9.04894 11.4858 9.14193C11.3304 9.23493 11.2032 9.36837 11.1177 9.52801C11.0323 9.68766 10.9918 9.86752 11.0005 10.0484C11.0093 10.2293 11.067 10.4044 11.1675 10.555L14.1313 15H8.00001C7.81892 14.9999 7.6412 15.0489 7.48582 15.1419C7.33043 15.2349 7.20322 15.3684 7.11775 15.528C7.03228 15.6877 6.99176 15.8675 7.00053 16.0484C7.00929 16.2293 7.067 16.4044 7.16751 16.555L11.1675 22.555C11.2588 22.6922 11.3826 22.8047 11.5278 22.8825C11.673 22.9603 11.8352 23.001 12 23.001C12.1648 23.001 12.327 22.9603 12.4722 22.8825C12.6175 22.8047 12.7412 22.6922 12.8325 22.555L16 17.805L19.1675 22.555C19.2588 22.6922 19.3826 22.8047 19.5278 22.8825C19.673 22.9603 19.8352 23.001 20 23.001C20.1648 23.001 20.327 22.9603 20.4722 22.8825C20.6175 22.8047 20.7412 22.6922 20.8325 22.555L24.8325 16.555C24.9327 16.4044 24.9902 16.2293 24.9988 16.0486C25.0073 15.8679 24.9667 15.6882 24.8813 15.5288ZM18.1313 11L16 14.1975L13.875 11H18.1313ZM12 20.1975L9.87501 17H14.1375L12 20.1975ZM20 20.1975L17.875 17H22.1375L20 20.1975Z" fill="#343330"/>
</svg>
