<svg width="32" height="32" viewBox="0 0 32 32" fill="none" xmlns="http://www.w3.org/2000/svg">
<path d="M29.125 16.875C28.8222 15.7438 28.2587 14.6993 27.4797 13.825C26.7006 12.9508 25.7277 12.271 24.6388 11.8403C23.5499 11.4096 22.3753 11.2398 21.209 11.3446C20.0427 11.4494 18.9172 11.8258 17.9225 12.4437L19.9712 4.26372C20.0221 4.06049 20.0078 3.84643 19.9304 3.65175C19.853 3.45707 19.7165 3.29161 19.54 3.17872C18.6895 2.64166 17.7396 2.28118 16.7469 2.11873C15.7542 1.95627 14.739 1.99516 13.7617 2.23308C12.7843 2.471 11.8648 2.90308 11.0579 3.50363C10.251 4.10418 9.57306 4.86091 9.06456 5.7288C8.55606 6.59669 8.22733 7.558 8.09794 8.55553C7.96855 9.55306 8.04114 10.5664 8.3114 11.5353C8.58166 12.5042 9.04405 13.4089 9.67107 14.1954C10.2981 14.982 11.0769 15.6343 11.9612 16.1137L3.85248 18.43C3.65104 18.4873 3.47269 18.6065 3.34261 18.7707C3.21252 18.9349 3.13728 19.1357 3.12748 19.345C3.05052 21.0524 3.55903 22.7348 4.5688 24.1138C5.57856 25.4927 7.02902 26.4854 8.67999 26.9275C9.31676 27.0984 9.97316 27.1854 10.6325 27.1862C11.6372 27.1836 12.6311 26.9793 13.5554 26.5855C14.4798 26.1918 15.3157 25.6165 16.0136 24.8938C16.7116 24.1712 17.2574 23.3158 17.6188 22.3783C17.9802 21.4408 18.1498 20.4404 18.1175 19.4362L24.1775 25.3012C24.3282 25.447 24.5209 25.5418 24.7284 25.572C24.9359 25.6023 25.1476 25.5666 25.3337 25.47C26.85 24.6833 28.0523 23.4025 28.7417 21.8396C29.4311 20.2766 29.5663 18.5252 29.125 16.875ZM14 16C14 15.6044 14.1173 15.2177 14.337 14.8888C14.5568 14.5599 14.8692 14.3036 15.2346 14.1522C15.6001 14.0008 16.0022 13.9612 16.3902 14.0384C16.7781 14.1156 17.1345 14.3061 17.4142 14.5858C17.6939 14.8655 17.8844 15.2218 17.9616 15.6098C18.0387 15.9978 17.9991 16.3999 17.8477 16.7653C17.6964 17.1308 17.44 17.4431 17.1111 17.6629C16.7822 17.8827 16.3955 18 16 18C15.4696 18 14.9608 17.7893 14.5858 17.4142C14.2107 17.0391 14 16.5304 14 16ZM9.99998 9.49997C9.99967 8.57321 10.2335 7.6614 10.6799 6.84921C11.1262 6.03701 11.7706 5.35077 12.5531 4.85421C13.3356 4.35765 14.2309 4.06687 15.1558 4.00888C16.0807 3.95088 17.0053 4.12755 17.8437 4.52247L15.9712 12C15.2547 12.0053 14.5529 12.2031 13.9389 12.5725C13.325 12.9419 12.8216 13.4694 12.4812 14.1C11.7174 13.6004 11.0903 12.918 10.657 12.1148C10.2237 11.3115 9.99789 10.4127 9.99998 9.49997ZM13.375 24.4462C12.5726 24.9099 11.666 25.1632 10.7395 25.1828C9.81298 25.2024 8.89654 24.9875 8.07526 24.5582C7.25399 24.1288 6.55452 23.4989 6.0418 22.727C5.52908 21.955 5.21973 21.066 5.14248 20.1425L12.5562 18.025C12.9087 18.6254 13.4118 19.1235 14.0158 19.4698C14.6198 19.8162 15.3037 19.999 16 20H16.1137C16.0634 20.9105 15.7866 21.794 15.3083 22.5705C14.8301 23.3469 14.1655 23.9917 13.375 24.4462ZM26.6462 21.5712C26.2416 22.2731 25.6867 22.8767 25.0212 23.3387L19.4812 17.9775C19.8357 17.3548 20.016 16.6481 20.003 15.9317C19.99 15.2153 19.7843 14.5156 19.4075 13.9062C20.4652 13.3723 21.6671 13.1942 22.8342 13.3984C24.0013 13.6026 25.0712 14.1783 25.8848 15.0398C26.6983 15.9012 27.2119 17.0023 27.3491 18.1792C27.4863 19.356 27.2398 20.5458 26.6462 21.5712Z" fill="#343330"/>
</svg>
