<svg width="32" height="32" viewBox="0 0 32 32" fill="none" xmlns="http://www.w3.org/2000/svg">
<path d="M16 3C13.4288 3 10.9154 3.76244 8.77759 5.1909C6.63975 6.61935 4.97351 8.64968 3.98957 11.0251C3.00563 13.4006 2.74819 16.0144 3.2498 18.5362C3.75141 21.0579 4.98953 23.3743 6.80762 25.1924C8.6257 27.0105 10.9421 28.2486 13.4638 28.7502C15.9856 29.2518 18.5995 28.9944 20.9749 28.0104C23.3503 27.0265 25.3807 25.3603 26.8091 23.2224C28.2376 21.0846 29 18.5712 29 16C28.9964 12.5533 27.6256 9.24882 25.1884 6.81163C22.7512 4.37445 19.4467 3.00364 16 3ZM16 27C13.8244 27 11.6977 26.3549 9.88873 25.1462C8.07979 23.9375 6.66989 22.2195 5.83733 20.2095C5.00477 18.1995 4.78693 15.9878 5.21137 13.854C5.63581 11.7202 6.68345 9.7602 8.22183 8.22183C9.76021 6.68345 11.7202 5.6358 13.854 5.21136C15.9878 4.78692 18.1995 5.00476 20.2095 5.83733C22.2195 6.66989 23.9375 8.07979 25.1462 9.88873C26.3549 11.6977 27 13.8244 27 16C26.9967 18.9164 25.8367 21.7123 23.7745 23.7745C21.7123 25.8367 18.9164 26.9967 16 27ZM24.6 15.2L18.6 10.7C18.4514 10.5886 18.2748 10.5207 18.0898 10.504C17.9049 10.4874 17.7189 10.5225 17.5528 10.6056C17.3867 10.6886 17.247 10.8163 17.1494 10.9743C17.0517 11.1322 17 11.3143 17 11.5V20.5C17 20.6857 17.0517 20.8678 17.1494 21.0257C17.247 21.1837 17.3867 21.3114 17.5528 21.3944C17.7189 21.4775 17.9049 21.5126 18.0898 21.496C18.2748 21.4793 18.4514 21.4114 18.6 21.3L24.6 16.8C24.7242 16.7069 24.825 16.5861 24.8944 16.4472C24.9639 16.3084 25 16.1552 25 16C25 15.8448 24.9639 15.6916 24.8944 15.5528C24.825 15.4139 24.7242 15.2931 24.6 15.2ZM19 18.5V13.5L22.3338 16L19 18.5ZM16.6 15.2L10.6 10.7C10.4514 10.5886 10.2748 10.5207 10.0898 10.504C9.90485 10.4874 9.7189 10.5225 9.55279 10.6056C9.38669 10.6886 9.24699 10.8163 9.14935 10.9743C9.05172 11.1322 9.00001 11.3143 9.00001 11.5V20.5C9.00001 20.6857 9.05172 20.8678 9.14935 21.0257C9.24699 21.1837 9.38669 21.3114 9.55279 21.3944C9.7189 21.4775 9.90485 21.5126 10.0898 21.496C10.2748 21.4793 10.4514 21.4114 10.6 21.3L16.6 16.8C16.7242 16.7069 16.825 16.5861 16.8944 16.4472C16.9639 16.3084 17 16.1552 17 16C17 15.8448 16.9639 15.6916 16.8944 15.5528C16.825 15.4139 16.7242 15.2931 16.6 15.2ZM11 18.5V13.5L14.3338 16L11 18.5Z" fill="#343330"/>
</svg>
