<svg width="32" height="32" viewBox="0 0 32 32" fill="none" xmlns="http://www.w3.org/2000/svg">
<path d="M31.0837 14.3325L20.06 7.3125C19.76 7.12071 19.4141 7.01297 19.0582 7.00053C18.7024 6.98809 18.3498 7.0714 18.0371 7.24177C17.7245 7.41214 17.4633 7.66331 17.2809 7.96907C17.0984 8.27483 17.0014 8.62396 17 8.98V13.6425L7.06 7.3125C6.76002 7.12071 6.41406 7.01297 6.05823 7.00053C5.7024 6.98809 5.34976 7.0714 5.03712 7.24177C4.72448 7.41214 4.46331 7.66331 4.28088 7.96907C4.09844 8.27483 4.00144 8.62396 4 8.98V23.02C4.00185 23.3759 4.0991 23.7248 4.28162 24.0303C4.46415 24.3358 4.72526 24.5868 5.03776 24.7571C5.35026 24.9273 5.7027 25.0107 6.05838 24.9985C6.41405 24.9863 6.75994 24.8789 7.06 24.6875L17 18.3575V23.02C17.0018 23.3759 17.0991 23.7248 17.2816 24.0303C17.4641 24.3358 17.7253 24.5868 18.0378 24.7571C18.3503 24.9273 18.7027 25.0107 19.0584 24.9985C19.4141 24.9863 19.7599 24.8789 20.06 24.6875L31.0837 17.6675C31.3646 17.4892 31.5959 17.2429 31.7561 16.9514C31.9164 16.6599 32.0004 16.3327 32.0004 16C32.0004 15.6673 31.9164 15.3401 31.7561 15.0486C31.5959 14.7571 31.3646 14.5108 31.0837 14.3325ZM6 22.9925V9.00875L16.9775 16L6 22.9925ZM19 22.9925V9.00875L29.9775 16L19 22.9925Z" fill="#343330"/>
</svg>
