<svg width="32" height="32" viewBox="0 0 32 32" fill="none" xmlns="http://www.w3.org/2000/svg">
<path d="M27.6599 4.34375C26.1598 2.84421 24.1255 2.00183 22.0043 2.00183C19.8832 2.00183 17.8489 2.84421 16.3487 4.34375L7.5862 13C7.39989 13.1852 7.25216 13.4055 7.15153 13.6482C7.0509 13.8908 6.99938 14.151 6.99995 14.4137V23.5862L3.29245 27.2925C3.19954 27.3854 3.12583 27.4957 3.07555 27.6171C3.02527 27.7385 2.99939 27.8686 2.99939 28C2.99939 28.1314 3.02527 28.2615 3.07555 28.3829C3.12583 28.5043 3.19954 28.6146 3.29245 28.7075C3.48009 28.8951 3.73458 29.0006 3.99995 29.0006C4.13134 29.0006 4.26145 28.9747 4.38284 28.9244C4.50424 28.8741 4.61454 28.8004 4.70745 28.7075L8.41495 25H17.5874C17.8498 25.0004 18.1097 24.949 18.3521 24.8486C18.5945 24.7482 18.8147 24.6008 18.9999 24.415L27.6537 15.665C28.3981 14.9224 28.9888 14.0403 29.3921 13.0693C29.7953 12.0982 30.0032 11.0571 30.0037 10.0057C30.0043 8.9542 29.7976 7.91292 29.3954 6.9414C28.9933 5.96988 28.4035 5.08717 27.6599 4.34375ZM17.7587 5.7575C18.8634 4.65234 20.3556 4.02174 21.918 3.9998C23.4805 3.97787 24.9898 4.56633 26.1251 5.64005C27.2603 6.71376 27.932 8.188 27.9971 9.74923C28.0622 11.3105 27.5156 12.8355 26.4737 14H19.4162L23.7099 9.7075C23.8976 9.51986 24.003 9.26536 24.003 9C24.003 8.73463 23.8976 8.48014 23.7099 8.2925C23.5223 8.10486 23.2678 7.99944 23.0024 7.99944C22.7371 7.99944 22.4826 8.10486 22.2949 8.2925L14.9999 15.5862V8.48375L17.7587 5.7575ZM8.99995 14.4187L12.9999 10.46V17.585L8.99995 21.585V14.4187ZM17.5874 23H10.4149L17.4149 16H24.5074L17.5874 23Z" fill="#343330"/>
</svg>
