<svg width="32" height="32" viewBox="0 0 32 32" fill="none" xmlns="http://www.w3.org/2000/svg">
<path d="M26.5 12C26.05 11.9976 25.6039 12.0825 25.1862 12.25L21.375 7.4925C21.6883 7.04128 21.891 6.52264 21.9666 5.97856C22.0423 5.43448 21.9888 4.88023 21.8106 4.36064C21.6323 3.84105 21.3343 3.37071 20.9405 2.98767C20.5468 2.60463 20.0684 2.31965 19.5441 2.15578C19.0198 1.99191 18.4643 1.95375 17.9225 2.04439C17.3807 2.13502 16.8679 2.35192 16.4254 2.67751C15.983 3.00311 15.6234 3.42828 15.3758 3.91861C15.1282 4.40895 14.9994 4.95068 15 5.5C14.9999 5.62274 15.0062 5.7454 15.0187 5.8675L9.21 8.2875C8.86009 7.85832 8.41333 7.51829 7.90645 7.29534C7.39957 7.0724 6.84702 6.97291 6.2942 7.00504C5.74139 7.03718 5.20409 7.20002 4.72645 7.4802C4.24881 7.76037 3.84447 8.14988 3.54664 8.61671C3.24882 9.08355 3.06601 9.61439 3.01324 10.1656C2.96047 10.7168 3.03925 11.2727 3.2431 11.7876C3.44695 12.3024 3.77005 12.7616 4.18586 13.1273C4.60167 13.493 5.09832 13.7548 5.635 13.8913L5.86625 19.6888C5.33635 19.8697 4.85759 20.1751 4.47018 20.5794C4.08276 20.9837 3.798 21.475 3.6398 22.0121C3.48159 22.5492 3.45456 23.1165 3.56099 23.6662C3.66741 24.2159 3.90417 24.7321 4.25139 25.1714C4.59861 25.6107 5.04616 25.9602 5.55646 26.1907C6.06676 26.4212 6.62491 26.5259 7.18404 26.496C7.74318 26.4661 8.28699 26.3025 8.7698 26.0189C9.25261 25.7353 9.66034 25.34 9.95875 24.8663L16 26.5588C16.0085 27.1217 16.1526 27.6743 16.4202 28.1696C16.6879 28.665 17.071 29.0884 17.5372 29.4041C18.0034 29.7198 18.5388 29.9183 19.0981 29.9829C19.6574 30.0475 20.224 29.9762 20.7499 29.7751C21.2757 29.574 21.7453 29.249 22.1188 28.8277C22.4922 28.4063 22.7585 27.9011 22.8951 27.355C23.0316 26.8088 23.0344 26.2377 22.9032 25.6902C22.772 25.1427 22.5106 24.6349 22.1412 24.21L25.5425 18.8663C26.0239 19.0033 26.5291 19.0355 27.024 18.9607C27.5189 18.8859 27.992 18.7057 28.4114 18.4325C28.8308 18.1593 29.1867 17.7993 29.4551 17.3768C29.7235 16.9543 29.8981 16.4791 29.9673 15.9834C30.0364 15.4877 29.9984 14.9829 29.8558 14.5031C29.7132 14.0233 29.4694 13.5796 29.1408 13.2021C28.8122 12.8245 28.4064 12.5219 27.9508 12.3145C27.4953 12.1071 27.0005 11.9999 26.5 12ZM19.5 23H19.3887L17.3662 16.9338L23.1975 16.6563C23.3449 17.0694 23.5688 17.451 23.8575 17.7813L20.4562 23.125C20.1448 23.0394 19.823 22.9973 19.5 23ZM7.865 19.6088L7.63375 13.8113C8.10518 13.6489 8.53648 13.3876 8.89875 13.045L14.215 16.125L9.0325 20.1525C8.68032 19.9006 8.28445 19.7162 7.865 19.6088ZM18.6962 9C19.08 8.97904 19.4576 8.89456 19.8137 8.75L23.625 13.5075C23.3819 13.8565 23.2048 14.2472 23.1025 14.66L17.2812 14.9375L18.6962 9ZM10.2612 21.7313L15.5 17.6575L17.4925 23.6363C17.1131 23.9038 16.7902 24.2436 16.5425 24.6363L10.5 22.9413C10.4927 22.527 10.4118 22.1173 10.2612 21.7313ZM18.5 4C18.7967 4 19.0867 4.08798 19.3334 4.2528C19.58 4.41762 19.7723 4.65189 19.8858 4.92598C19.9993 5.20007 20.0291 5.50167 19.9712 5.79264C19.9133 6.08361 19.7704 6.35088 19.5607 6.56066C19.3509 6.77044 19.0836 6.9133 18.7926 6.97118C18.5017 7.02906 18.2001 6.99935 17.926 6.88582C17.6519 6.77229 17.4176 6.58003 17.2528 6.33336C17.088 6.08668 17 5.79667 17 5.5C17 5.10218 17.158 4.72065 17.4393 4.43934C17.7206 4.15804 18.1022 4 18.5 4ZM15.79 7.7125C16.0587 8.04003 16.3838 8.31688 16.75 8.53L15.3375 14.4613L9.90375 11.315C9.96768 11.048 9.99999 10.7745 10 10.5C10.0001 10.3773 9.99379 10.2546 9.98125 10.1325L15.79 7.7125ZM5 10.5C5 10.2033 5.08797 9.91332 5.25279 9.66665C5.41762 9.41997 5.65188 9.22771 5.92597 9.11418C6.20006 9.00065 6.50166 8.97095 6.79263 9.02882C7.0836 9.0867 7.35088 9.22956 7.56066 9.43934C7.77044 9.64912 7.9133 9.91639 7.97118 10.2074C8.02905 10.4983 7.99935 10.7999 7.88582 11.074C7.77229 11.3481 7.58003 11.5824 7.33335 11.7472C7.08668 11.912 6.79667 12 6.5 12C6.10217 12 5.72064 11.842 5.43934 11.5607C5.15803 11.2794 5 10.8978 5 10.5ZM7 24.5C6.70333 24.5 6.41332 24.412 6.16664 24.2472C5.91997 24.0824 5.72771 23.8481 5.61418 23.574C5.50065 23.2999 5.47094 22.9983 5.52882 22.7074C5.5867 22.4164 5.72956 22.1491 5.93934 21.9393C6.14912 21.7296 6.41639 21.5867 6.70736 21.5288C6.99833 21.4709 7.29993 21.5007 7.57402 21.6142C7.84811 21.7277 8.08238 21.92 8.2472 22.1666C8.41202 22.4133 8.5 22.7033 8.5 23C8.5 23.3978 8.34196 23.7794 8.06066 24.0607C7.77935 24.342 7.39782 24.5 7 24.5ZM19.5 28C19.2033 28 18.9133 27.912 18.6666 27.7472C18.42 27.5824 18.2277 27.3481 18.1142 27.074C18.0006 26.7999 17.9709 26.4983 18.0288 26.2074C18.0867 25.9164 18.2296 25.6491 18.4393 25.4393C18.6491 25.2296 18.9164 25.0867 19.2074 25.0288C19.4983 24.9709 19.7999 25.0007 20.074 25.1142C20.3481 25.2277 20.5824 25.42 20.7472 25.6666C20.912 25.9133 21 26.2033 21 26.5C21 26.8978 20.842 27.2794 20.5607 27.5607C20.2794 27.842 19.8978 28 19.5 28ZM26.5 17C26.2033 17 25.9133 16.912 25.6666 16.7472C25.42 16.5824 25.2277 16.3481 25.1142 16.074C25.0006 15.7999 24.9709 15.4983 25.0288 15.2074C25.0867 14.9164 25.2296 14.6491 25.4393 14.4393C25.6491 14.2296 25.9164 14.0867 26.2074 14.0288C26.4983 13.9709 26.7999 14.0007 27.074 14.1142C27.3481 14.2277 27.5824 14.42 27.7472 14.6666C27.912 14.9133 28 15.2033 28 15.5C28 15.8978 27.842 16.2794 27.5607 16.5607C27.2794 16.842 26.8978 17 26.5 17Z" fill="#343330"/>
</svg>
