<svg width="32" height="32" viewBox="0 0 32 32" fill="none" xmlns="http://www.w3.org/2000/svg">
<path d="M6 19V26C6 26.2652 5.89464 26.5196 5.70711 26.7071C5.51957 26.8946 5.26522 27 5 27C4.73478 27 4.48043 26.8946 4.29289 26.7071C4.10536 26.5196 4 26.2652 4 26V19C4 18.7348 4.10536 18.4804 4.29289 18.2929C4.48043 18.1054 4.73478 18 5 18C5.26522 18 5.51957 18.1054 5.70711 18.2929C5.89464 18.4804 6 18.7348 6 19ZM15 18C14.7348 18 14.4804 18.1054 14.2929 18.2929C14.1054 18.4804 14 18.7348 14 19V22.875L10.8138 18.4188C10.6906 18.2463 10.5159 18.1175 10.3148 18.0508C10.1137 17.9841 9.89659 17.983 9.69482 18.0477C9.49305 18.1123 9.31704 18.2394 9.19216 18.4106C9.06728 18.5817 8.99999 18.7881 9 19V26C9 26.2652 9.10536 26.5196 9.29289 26.7071C9.48043 26.8946 9.73478 27 10 27C10.2652 27 10.5196 26.8946 10.7071 26.7071C10.8946 26.5196 11 26.2652 11 26V22.125L14.1862 26.5863C14.2793 26.7149 14.4017 26.8195 14.5432 26.8914C14.6847 26.9633 14.8413 27.0006 15 27C15.1035 27.0002 15.2064 26.9842 15.305 26.9525C15.5068 26.8879 15.6829 26.7608 15.8078 26.5896C15.9327 26.4184 16 26.2119 16 26V19C16 18.7348 15.8946 18.4804 15.7071 18.2929C15.5196 18.1054 15.2652 18 15 18ZM20 18C19.7348 18 19.4804 18.1054 19.2929 18.2929C19.1054 18.4804 19 18.7348 19 19V26C19 26.2652 19.1054 26.5196 19.2929 26.7071C19.4804 26.8946 19.7348 27 20 27C20.2652 27 20.5196 26.8946 20.7071 26.7071C20.8946 26.5196 21 26.2652 21 26V19C21 18.7348 20.8946 18.4804 20.7071 18.2929C20.5196 18.1054 20.2652 18 20 18ZM27 11V28C27 28.2652 26.8946 28.5196 26.7071 28.7071C26.5196 28.8946 26.2652 29 26 29C25.7348 29 25.4804 28.8946 25.2929 28.7071C25.1054 28.5196 25 28.2652 25 28V12H19C18.7348 12 18.4804 11.8946 18.2929 11.7071C18.1054 11.5196 18 11.2652 18 11V5H7V14C7 14.2652 6.89464 14.5196 6.70711 14.7071C6.51957 14.8946 6.26522 15 6 15C5.73478 15 5.48043 14.8946 5.29289 14.7071C5.10536 14.5196 5 14.2652 5 14V5C5 4.46957 5.21071 3.96086 5.58579 3.58579C5.96086 3.21071 6.46957 3 7 3H19C19.1314 2.9999 19.2615 3.02568 19.3829 3.07586C19.5042 3.12605 19.6146 3.19967 19.7075 3.2925L26.7075 10.2925C26.8003 10.3854 26.8739 10.4958 26.9241 10.6172C26.9743 10.7385 27.0001 10.8686 27 11ZM20 10H23.5863L20 6.41375V10Z" fill="#343330"/>
</svg>
