<svg width="32" height="32" viewBox="0 0 32 32" fill="none" xmlns="http://www.w3.org/2000/svg">
<path d="M6 22.5C6 23.875 6.8975 25 8 25C8.24131 24.9946 8.47899 24.9402 8.69861 24.84C8.91822 24.7399 9.11518 24.5961 9.2775 24.4175C9.46174 24.2298 9.71248 24.1223 9.97543 24.1182C10.2384 24.1141 10.4924 24.2137 10.6824 24.3955C10.8724 24.5773 10.9831 24.8267 10.9907 25.0895C10.9982 25.3524 10.9018 25.6076 10.7225 25.8C10.3743 26.1748 9.95323 26.4746 9.48508 26.6809C9.01694 26.8873 8.51159 26.9959 8 27C5.79375 27 4 24.9813 4 22.5C4 20.0187 5.79375 18 8 18C8.51159 18.0041 9.01694 18.1127 9.48508 18.3191C9.95323 18.5254 10.3743 18.8252 10.7225 19.2C10.9018 19.3924 10.9982 19.6476 10.9907 19.9105C10.9831 20.1733 10.8724 20.4227 10.6824 20.6045C10.4924 20.7863 10.2384 20.8859 9.97543 20.8818C9.71248 20.8777 9.46174 20.7702 9.2775 20.5825C9.11518 20.4039 8.91822 20.2601 8.69861 20.16C8.47899 20.0598 8.24131 20.0054 8 20C6.8975 20 6 21.125 6 22.5ZM27 11V27C27 27.5304 26.7893 28.0391 26.4142 28.4142C26.0391 28.7893 25.5304 29 25 29H15C14.7348 29 14.4804 28.8946 14.2929 28.7071C14.1054 28.5196 14 28.2652 14 28C14 27.7348 14.1054 27.4804 14.2929 27.2929C14.4804 27.1054 14.7348 27 15 27H25V12H19C18.7348 12 18.4804 11.8946 18.2929 11.7071C18.1054 11.5196 18 11.2652 18 11V5H7V14C7 14.2652 6.89464 14.5196 6.70711 14.7071C6.51957 14.8946 6.26522 15 6 15C5.73478 15 5.48043 14.8946 5.29289 14.7071C5.10536 14.5196 5 14.2652 5 14V5C5 4.46957 5.21071 3.96086 5.58579 3.58579C5.96086 3.21071 6.46957 3 7 3H19C19.1314 2.9999 19.2615 3.02568 19.3829 3.07586C19.5042 3.12605 19.6146 3.19967 19.7075 3.2925L26.7075 10.2925C26.8003 10.3854 26.8739 10.4958 26.9241 10.6172C26.9743 10.7385 27.0001 10.8686 27 11ZM20 10H23.5863L20 6.41375V10Z" fill="#343330"/>
</svg>
