<svg width="32" height="32" viewBox="0 0 32 32" fill="none" xmlns="http://www.w3.org/2000/svg">
<path d="M26.7075 10.2925L19.7075 3.2925C19.6146 3.19967 19.5042 3.12605 19.3829 3.07586C19.2615 3.02568 19.1314 2.9999 19 3H7C6.46957 3 5.96086 3.21071 5.58579 3.58579C5.21071 3.96086 5 4.46957 5 5V14C5 14.2652 5.10536 14.5196 5.29289 14.7071C5.48043 14.8946 5.73478 15 6 15C6.26522 15 6.51957 14.8946 6.70711 14.7071C6.89464 14.5196 7 14.2652 7 14V5H18V11C18 11.2652 18.1054 11.5196 18.2929 11.7071C18.4804 11.8946 18.7348 12 19 12H25V27H24C23.7348 27 23.4804 27.1054 23.2929 27.2929C23.1054 27.4804 23 27.7348 23 28C23 28.2652 23.1054 28.5196 23.2929 28.7071C23.4804 28.8946 23.7348 29 24 29H25C25.5304 29 26.0391 28.7893 26.4142 28.4142C26.7893 28.0391 27 27.5304 27 27V11C27.0001 10.8686 26.9743 10.7385 26.9241 10.6172C26.8739 10.4958 26.8003 10.3854 26.7075 10.2925ZM20 6.41375L23.5863 10H20V6.41375ZM19.485 18.125C19.3288 18.0385 19.1522 17.9955 18.9737 18.0003C18.7953 18.0052 18.6213 18.0577 18.47 18.1525L15.9762 19.71C15.9067 19.2353 15.6688 18.8015 15.306 18.4876C14.9433 18.1737 14.4797 18.0006 14 18H6C5.46957 18 4.96086 18.2107 4.58579 18.5858C4.21071 18.9609 4 19.4696 4 20V26C4 26.5304 4.21071 27.0391 4.58579 27.4142C4.96086 27.7893 5.46957 28 6 28H14C14.4797 27.9994 14.9433 27.8263 15.306 27.5124C15.6688 27.1985 15.9067 26.7647 15.9762 26.29L18.47 27.8475C18.6213 27.9421 18.7952 27.9944 18.9736 27.9992C19.152 28.0039 19.3284 27.9607 19.4846 27.8743C19.6407 27.7878 19.7708 27.6611 19.8614 27.5074C19.9521 27.3537 19.9999 27.1785 20 27V19C20.0001 18.8215 19.9524 18.6461 19.8618 18.4923C19.7712 18.3384 19.6411 18.2116 19.485 18.125ZM14 26H6V20H14V26ZM18 25.1963L16 23.9463V22.0537L18 20.8037V25.1963Z" fill="#343330"/>
</svg>
