<svg width="32" height="32" viewBox="0 0 32 32" fill="none" xmlns="http://www.w3.org/2000/svg">
<path d="M13.8325 18.445C13.7412 18.3078 13.6175 18.1953 13.4722 18.1175C13.327 18.0397 13.1648 17.999 13 17.999C12.8353 17.999 12.673 18.0397 12.5278 18.1175C12.3826 18.1953 12.2588 18.3078 12.1675 18.445L9.56127 22.3563L8.34127 20.4587C8.25073 20.3179 8.12625 20.202 7.97927 20.1217C7.83228 20.0415 7.66749 19.9994 7.50002 19.9994C7.33255 19.9994 7.16776 20.0415 7.02078 20.1217C6.87379 20.202 6.74932 20.3179 6.65877 20.4587L2.15877 27.4587C2.06153 27.6098 2.00678 27.7843 2.00029 27.9639C1.99379 28.1434 2.0358 28.3214 2.12187 28.4791C2.20795 28.6368 2.33493 28.7684 2.48946 28.8601C2.64399 28.9517 2.82035 29.0001 3.00002 29H19C19.1811 29.0001 19.3588 28.9511 19.5142 28.8581C19.6696 28.7651 19.7968 28.6316 19.8823 28.472C19.9677 28.3123 20.0083 28.1325 19.9995 27.9516C19.9907 27.7707 19.933 27.5956 19.8325 27.445L13.8325 18.445ZM4.83127 27L7.50002 22.8487L8.70377 24.7237C8.79355 24.8635 8.91674 24.9787 9.0622 25.0589C9.20766 25.1392 9.37082 25.1819 9.53693 25.1833C9.70304 25.1846 9.86688 25.1446 10.0136 25.0668C10.1604 24.9889 10.2855 24.8758 10.3775 24.7375L13.0025 20.8037L17.1313 27H4.83127ZM26.7063 10.2925L19.7063 3.2925C19.5189 3.10532 19.2649 3.00012 19 3H7.00002C6.46959 3 5.96088 3.21071 5.58581 3.58579C5.21074 3.96086 5.00002 4.46957 5.00002 5V16C5.00002 16.2652 5.10538 16.5196 5.29292 16.7071C5.48045 16.8946 5.73481 17 6.00002 17C6.26524 17 6.51959 16.8946 6.70713 16.7071C6.89467 16.5196 7.00002 16.2652 7.00002 16V5H18V11C18 11.2652 18.1054 11.5196 18.2929 11.7071C18.4805 11.8946 18.7348 12 19 12H25V27H24C23.7348 27 23.4805 27.1054 23.2929 27.2929C23.1054 27.4804 23 27.7348 23 28C23 28.2652 23.1054 28.5196 23.2929 28.7071C23.4805 28.8946 23.7348 29 24 29H25C25.5305 29 26.0392 28.7893 26.4142 28.4142C26.7893 28.0391 27 27.5304 27 27V11C27.0001 10.8686 26.9743 10.7385 26.9242 10.6172C26.874 10.4958 26.8004 10.3854 26.7075 10.2925H26.7063ZM20 6.41375L23.5863 10H20V6.41375Z" fill="#343330"/>
</svg>
