<svg width="32" height="32" viewBox="0 0 32 32" fill="none" xmlns="http://www.w3.org/2000/svg">
<path d="M26.7075 10.2925L19.7075 3.2925C19.6146 3.19967 19.5042 3.12605 19.3829 3.07586C19.2615 3.02568 19.1314 2.9999 19 3H7C6.46957 3 5.96086 3.21071 5.58579 3.58579C5.21071 3.96086 5 4.46957 5 5V14C5 14.2652 5.10536 14.5196 5.29289 14.7071C5.48043 14.8946 5.73478 15 6 15C6.26522 15 6.51957 14.8946 6.70711 14.7071C6.89464 14.5196 7 14.2652 7 14V5H18V11C18 11.2652 18.1054 11.5196 18.2929 11.7071C18.4804 11.8946 18.7348 12 19 12H25V27H21C20.7348 27 20.4804 27.1054 20.2929 27.2929C20.1054 27.4804 20 27.7348 20 28C20 28.2652 20.1054 28.5196 20.2929 28.7071C20.4804 28.8946 20.7348 29 21 29H25C25.5304 29 26.0391 28.7893 26.4142 28.4142C26.7893 28.0391 27 27.5304 27 27V11C27.0001 10.8686 26.9743 10.7385 26.9241 10.6172C26.8739 10.4958 26.8003 10.3854 26.7075 10.2925ZM20 6.41375L23.5863 10H20V6.41375ZM8 18H6C5.73478 18 5.48043 18.1054 5.29289 18.2929C5.10536 18.4804 5 18.7348 5 19V26C5 26.2652 5.10536 26.5196 5.29289 26.7071C5.48043 26.8946 5.73478 27 6 27C6.26522 27 6.51957 26.8946 6.70711 26.7071C6.89464 26.5196 7 26.2652 7 26V25H8C8.92826 25 9.8185 24.6313 10.4749 23.9749C11.1313 23.3185 11.5 22.4283 11.5 21.5C11.5 20.5717 11.1313 19.6815 10.4749 19.0251C9.8185 18.3687 8.92826 18 8 18ZM8 23H7V20H8C8.39782 20 8.77936 20.158 9.06066 20.4393C9.34196 20.7206 9.5 21.1022 9.5 21.5C9.5 21.8978 9.34196 22.2794 9.06066 22.5607C8.77936 22.842 8.39782 23 8 23ZM19.3475 19.53L17 23.28V26C17 26.2652 16.8946 26.5196 16.7071 26.7071C16.5196 26.8946 16.2652 27 16 27C15.7348 27 15.4804 26.8946 15.2929 26.7071C15.1054 26.5196 15 26.2652 15 26V23.2862L12.6525 19.5362C12.5783 19.4249 12.5272 19.2999 12.5022 19.1685C12.4772 19.0371 12.4788 18.902 12.507 18.7712C12.5351 18.6404 12.5892 18.5166 12.6661 18.4071C12.7429 18.2977 12.841 18.2047 12.9544 18.1338C13.0678 18.0628 13.1943 18.0154 13.3264 17.9942C13.4584 17.9731 13.5934 17.9786 13.7233 18.0105C13.8532 18.0425 13.9754 18.1001 14.0826 18.1801C14.1898 18.2601 14.2799 18.3608 14.3475 18.4762L16 21.1138L17.6525 18.47C17.7201 18.3546 17.8102 18.2539 17.9174 18.1739C18.0246 18.0939 18.1468 18.0362 18.2767 18.0043C18.4066 17.9724 18.5416 17.9668 18.6736 17.988C18.8057 18.0091 18.9322 18.0566 19.0456 18.1275C19.159 18.1984 19.2571 18.2914 19.3339 18.4009C19.4108 18.5104 19.4649 18.6342 19.493 18.7649C19.5212 18.8957 19.5228 19.0308 19.4978 19.1622C19.4728 19.2936 19.4217 19.4187 19.3475 19.53Z" fill="#343330"/>
</svg>
