<svg width="32" height="32" viewBox="0 0 32 32" fill="none" xmlns="http://www.w3.org/2000/svg">
<path d="M6 22.5C6 23.875 6.8975 25 8 25C8.24138 24.995 8.47921 24.9408 8.69888 24.8406C8.91856 24.7405 9.11546 24.5965 9.2775 24.4175C9.46174 24.2298 9.71248 24.1223 9.97543 24.1182C10.2384 24.1141 10.4924 24.2137 10.6824 24.3955C10.8724 24.5773 10.9831 24.8267 10.9907 25.0895C10.9982 25.3524 10.9018 25.6076 10.7225 25.8C10.3743 26.1748 9.95323 26.4746 9.48508 26.6809C9.01694 26.8873 8.51159 26.9959 8 27C5.79375 27 4 24.9813 4 22.5C4 20.0187 5.79375 18 8 18C8.51159 18.0041 9.01694 18.1127 9.48508 18.3191C9.95323 18.5254 10.3743 18.8252 10.7225 19.2C10.9018 19.3924 10.9982 19.6476 10.9907 19.9105C10.9831 20.1733 10.8724 20.4227 10.6824 20.6045C10.4924 20.7863 10.2384 20.8859 9.97543 20.8818C9.71248 20.8777 9.46174 20.7702 9.2775 20.5825C9.11518 20.4039 8.91822 20.2601 8.69861 20.16C8.47899 20.0598 8.24131 20.0054 8 20C6.8975 20 6 21.125 6 22.5ZM5 14V5C5 4.46957 5.21071 3.96086 5.58579 3.58579C5.96086 3.21071 6.46957 3 7 3H19C19.1314 2.9999 19.2615 3.02568 19.3829 3.07586C19.5042 3.12605 19.6146 3.19967 19.7075 3.2925L26.7075 10.2925C26.8003 10.3854 26.8739 10.4958 26.9241 10.6172C26.9743 10.7385 27.0001 10.8686 27 11V14C27 14.2652 26.8946 14.5196 26.7071 14.7071C26.5196 14.8946 26.2652 15 26 15C25.7348 15 25.4804 14.8946 25.2929 14.7071C25.1054 14.5196 25 14.2652 25 14V12H19C18.7348 12 18.4804 11.8946 18.2929 11.7071C18.1054 11.5196 18 11.2652 18 11V5H7V14C7 14.2652 6.89464 14.5196 6.70711 14.7071C6.51957 14.8946 6.26522 15 6 15C5.73478 15 5.48043 14.8946 5.29289 14.7071C5.10536 14.5196 5 14.2652 5 14ZM20 10H23.5863L20 6.41375V10ZM18.5 21.5H17V20C17 19.7348 16.8946 19.4804 16.7071 19.2929C16.5196 19.1054 16.2652 19 16 19C15.7348 19 15.4804 19.1054 15.2929 19.2929C15.1054 19.4804 15 19.7348 15 20V21.5H13.5C13.2348 21.5 12.9804 21.6054 12.7929 21.7929C12.6054 21.9804 12.5 22.2348 12.5 22.5C12.5 22.7652 12.6054 23.0196 12.7929 23.2071C12.9804 23.3946 13.2348 23.5 13.5 23.5H15V25C15 25.2652 15.1054 25.5196 15.2929 25.7071C15.4804 25.8946 15.7348 26 16 26C16.2652 26 16.5196 25.8946 16.7071 25.7071C16.8946 25.5196 17 25.2652 17 25V23.5H18.5C18.7652 23.5 19.0196 23.3946 19.2071 23.2071C19.3946 23.0196 19.5 22.7652 19.5 22.5C19.5 22.2348 19.3946 21.9804 19.2071 21.7929C19.0196 21.6054 18.7652 21.5 18.5 21.5ZM27 21.5H25.5V20C25.5 19.7348 25.3946 19.4804 25.2071 19.2929C25.0196 19.1054 24.7652 19 24.5 19C24.2348 19 23.9804 19.1054 23.7929 19.2929C23.6054 19.4804 23.5 19.7348 23.5 20V21.5H22C21.7348 21.5 21.4804 21.6054 21.2929 21.7929C21.1054 21.9804 21 22.2348 21 22.5C21 22.7652 21.1054 23.0196 21.2929 23.2071C21.4804 23.3946 21.7348 23.5 22 23.5H23.5V25C23.5 25.2652 23.6054 25.5196 23.7929 25.7071C23.9804 25.8946 24.2348 26 24.5 26C24.7652 26 25.0196 25.8946 25.2071 25.7071C25.3946 25.5196 25.5 25.2652 25.5 25V23.5H27C27.2652 23.5 27.5196 23.3946 27.7071 23.2071C27.8946 23.0196 28 22.7652 28 22.5C28 22.2348 27.8946 21.9804 27.7071 21.7929C27.5196 21.6054 27.2652 21.5 27 21.5Z" fill="#343330"/>
</svg>
