<svg width="32" height="32" viewBox="0 0 32 32" fill="none" xmlns="http://www.w3.org/2000/svg">
<path d="M6 15C6.26522 15 6.51957 14.8946 6.70711 14.7071C6.89464 14.5196 7 14.2652 7 14V5H18V11C18 11.2652 18.1054 11.5196 18.2929 11.7071C18.4804 11.8946 18.7348 12 19 12H25V14C25 14.2652 25.1054 14.5196 25.2929 14.7071C25.4804 14.8946 25.7348 15 26 15C26.2652 15 26.5196 14.8946 26.7071 14.7071C26.8946 14.5196 27 14.2652 27 14V11C27.0001 10.8686 26.9743 10.7385 26.9241 10.6172C26.8739 10.4958 26.8003 10.3854 26.7075 10.2925L19.7075 3.2925C19.6146 3.19967 19.5042 3.12605 19.3829 3.07586C19.2615 3.02568 19.1314 2.9999 19 3H7C6.46957 3 5.96086 3.21071 5.58579 3.58579C5.21071 3.96086 5 4.46957 5 5V14C5 14.2652 5.10536 14.5196 5.29289 14.7071C5.48043 14.8946 5.73478 15 6 15ZM20 6.41375L23.5863 10H20V6.41375ZM19.3137 19.5812L17.2288 22.5L19.3137 25.4188C19.4541 25.6346 19.5057 25.8963 19.4579 26.1494C19.4101 26.4024 19.2665 26.6272 19.0571 26.777C18.8477 26.9268 18.5886 26.9901 18.3337 26.9536C18.0788 26.9172 17.8478 26.7838 17.6887 26.5812L16 24.22L14.3138 26.5812C14.2401 26.6945 14.1443 26.7917 14.0321 26.8669C13.9199 26.9421 13.7937 26.9938 13.6609 27.0189C13.5282 27.044 13.3918 27.0419 13.2599 27.0128C13.128 26.9837 13.0033 26.9282 12.8935 26.8496C12.7836 26.771 12.6908 26.671 12.6207 26.5555C12.5505 26.4401 12.5045 26.3116 12.4854 26.1779C12.4662 26.0442 12.4744 25.908 12.5093 25.7775C12.5443 25.647 12.6053 25.525 12.6888 25.4188L14.7712 22.5L12.6862 19.5812C12.6028 19.475 12.5418 19.353 12.5068 19.2225C12.4719 19.092 12.4637 18.9558 12.4829 18.8221C12.502 18.6884 12.548 18.5599 12.6182 18.4445C12.6883 18.329 12.7811 18.229 12.891 18.1504C13.0008 18.0718 13.1255 18.0163 13.2574 17.9872C13.3893 17.9581 13.5257 17.956 13.6584 17.9811C13.7912 18.0062 13.9174 18.0579 14.0296 18.1331C14.1418 18.2083 14.2376 18.3055 14.3112 18.4188L16 20.78L17.6863 18.4188C17.8453 18.2162 18.0763 18.0828 18.3312 18.0464C18.5861 18.0099 18.8452 18.0732 19.0546 18.223C19.264 18.3728 19.4076 18.5976 19.4554 18.8506C19.5032 19.1037 19.4516 19.3654 19.3113 19.5812H19.3137ZM11.5 19C11.5 19.2652 11.3946 19.5196 11.2071 19.7071C11.0196 19.8946 10.7652 20 10.5 20H9V26C9 26.2652 8.89464 26.5196 8.70711 26.7071C8.51957 26.8946 8.26522 27 8 27C7.73478 27 7.48043 26.8946 7.29289 26.7071C7.10536 26.5196 7 26.2652 7 26V20H5.5C5.23478 20 4.98043 19.8946 4.79289 19.7071C4.60536 19.5196 4.5 19.2652 4.5 19C4.5 18.7348 4.60536 18.4804 4.79289 18.2929C4.98043 18.1054 5.23478 18 5.5 18H10.5C10.7652 18 11.0196 18.1054 11.2071 18.2929C11.3946 18.4804 11.5 18.7348 11.5 19ZM27.5 19C27.5 19.2652 27.3946 19.5196 27.2071 19.7071C27.0196 19.8946 26.7652 20 26.5 20H25V26C25 26.2652 24.8946 26.5196 24.7071 26.7071C24.5196 26.8946 24.2652 27 24 27C23.7348 27 23.4804 26.8946 23.2929 26.7071C23.1054 26.5196 23 26.2652 23 26V20H21.5C21.2348 20 20.9804 19.8946 20.7929 19.7071C20.6054 19.5196 20.5 19.2652 20.5 19C20.5 18.7348 20.6054 18.4804 20.7929 18.2929C20.9804 18.1054 21.2348 18 21.5 18H26.5C26.7652 18 27.0196 18.1054 27.2071 18.2929C27.3946 18.4804 27.5 18.7348 27.5 19Z" fill="#343330"/>
</svg>
