<svg width="32" height="32" viewBox="0 0 32 32" fill="none" xmlns="http://www.w3.org/2000/svg">
<path d="M27 15V11C27.0001 10.8686 26.9743 10.7385 26.9241 10.6172C26.8739 10.4958 26.8003 10.3854 26.7075 10.2925L19.7075 3.2925C19.6146 3.19967 19.5042 3.12605 19.3829 3.07586C19.2615 3.02568 19.1314 2.9999 19 3H7C6.46957 3 5.96086 3.21071 5.58579 3.58579C5.21071 3.96086 5 4.46957 5 5V15C5 15.2652 5.10536 15.5196 5.29289 15.7071C5.48043 15.8946 5.73478 16 6 16C6.26522 16 6.51957 15.8946 6.70711 15.7071C6.89464 15.5196 7 15.2652 7 15V5H18V11C18 11.2652 18.1054 11.5196 18.2929 11.7071C18.4804 11.8946 18.7348 12 19 12H25V15C25 15.2652 25.1054 15.5196 25.2929 15.7071C25.4804 15.8946 25.7348 16 26 16C26.2652 16 26.5196 15.8946 26.7071 15.7071C26.8946 15.5196 27 15.2652 27 15ZM20 6.41375L23.5863 10H20V6.41375ZM8.5 20V26C8.5 26.2652 8.39464 26.5196 8.20711 26.7071C8.01957 26.8946 7.76522 27 7.5 27C7.23478 27 6.98043 26.8946 6.79289 26.7071C6.60536 26.5196 6.5 26.2652 6.5 26V24H4V26C4 26.2652 3.89464 26.5196 3.70711 26.7071C3.51957 26.8946 3.26522 27 3 27C2.73478 27 2.48043 26.8946 2.29289 26.7071C2.10536 26.5196 2 26.2652 2 26V20C2 19.7348 2.10536 19.4804 2.29289 19.2929C2.48043 19.1054 2.73478 19 3 19C3.26522 19 3.51957 19.1054 3.70711 19.2929C3.89464 19.4804 4 19.7348 4 20V22H6.5V20C6.5 19.7348 6.60536 19.4804 6.79289 19.2929C6.98043 19.1054 7.23478 19 7.5 19C7.76522 19 8.01957 19.1054 8.20711 19.2929C8.39464 19.4804 8.5 19.7348 8.5 20ZM15.5 20C15.5 20.2652 15.3946 20.5196 15.2071 20.7071C15.0196 20.8946 14.7652 21 14.5 21H13.5V26C13.5 26.2652 13.3946 26.5196 13.2071 26.7071C13.0196 26.8946 12.7652 27 12.5 27C12.2348 27 11.9804 26.8946 11.7929 26.7071C11.6054 26.5196 11.5 26.2652 11.5 26V21H10.5C10.2348 21 9.98043 20.8946 9.79289 20.7071C9.60536 20.5196 9.5 20.2652 9.5 20C9.5 19.7348 9.60536 19.4804 9.79289 19.2929C9.98043 19.1054 10.2348 19 10.5 19H14.5C14.7652 19 15.0196 19.1054 15.2071 19.2929C15.3946 19.4804 15.5 19.7348 15.5 20ZM24.5 20V26C24.5 26.2652 24.3946 26.5196 24.2071 26.7071C24.0196 26.8946 23.7652 27 23.5 27C23.2348 27 22.9804 26.8946 22.7929 26.7071C22.6054 26.5196 22.5 26.2652 22.5 26V23L21.3 24.6C21.2069 24.7242 21.0861 24.825 20.9472 24.8944C20.8084 24.9639 20.6552 25 20.5 25C20.3448 25 20.1916 24.9639 20.0528 24.8944C19.9139 24.825 19.7931 24.7242 19.7 24.6L18.5 23V26C18.5 26.2652 18.3946 26.5196 18.2071 26.7071C18.0196 26.8946 17.7652 27 17.5 27C17.2348 27 16.9804 26.8946 16.7929 26.7071C16.6054 26.5196 16.5 26.2652 16.5 26V20C16.5 19.7901 16.566 19.5856 16.6888 19.4153C16.8115 19.245 16.9847 19.1177 17.1838 19.0513C17.3829 18.9849 17.5978 18.9829 17.7982 19.0455C17.9985 19.1081 18.1741 19.2321 18.3 19.4L20.5 22.3337L22.7 19.4C22.8259 19.2321 23.0015 19.1081 23.2018 19.0455C23.4022 18.9829 23.6171 18.9849 23.8162 19.0513C24.0153 19.1177 24.1885 19.245 24.3112 19.4153C24.434 19.5856 24.5 19.7901 24.5 20ZM31.5 26C31.5 26.2652 31.3946 26.5196 31.2071 26.7071C31.0196 26.8946 30.7652 27 30.5 27H27C26.7348 27 26.4804 26.8946 26.2929 26.7071C26.1054 26.5196 26 26.2652 26 26V20C26 19.7348 26.1054 19.4804 26.2929 19.2929C26.4804 19.1054 26.7348 19 27 19C27.2652 19 27.5196 19.1054 27.7071 19.2929C27.8946 19.4804 28 19.7348 28 20V25H30.5C30.7652 25 31.0196 25.1054 31.2071 25.2929C31.3946 25.4804 31.5 25.7348 31.5 26Z" fill="#343330"/>
</svg>
