<svg width="32" height="32" viewBox="0 0 32 32" fill="none" xmlns="http://www.w3.org/2000/svg">
<path d="M6 22.5C6 23.875 6.8975 25 8 25C8.24131 24.9946 8.47899 24.9402 8.69861 24.84C8.91822 24.7399 9.11518 24.5961 9.2775 24.4175C9.46174 24.2298 9.71248 24.1223 9.97543 24.1182C10.2384 24.1141 10.4924 24.2137 10.6824 24.3955C10.8724 24.5773 10.9831 24.8267 10.9907 25.0895C10.9982 25.3524 10.9018 25.6076 10.7225 25.8C10.3743 26.1748 9.95323 26.4746 9.48508 26.6809C9.01694 26.8873 8.51159 26.9959 8 27C5.79375 27 4 24.9813 4 22.5C4 20.0187 5.79375 18 8 18C8.51159 18.0041 9.01694 18.1127 9.48508 18.3191C9.95323 18.5254 10.3743 18.8252 10.7225 19.2C10.9018 19.3924 10.9982 19.6476 10.9907 19.9105C10.9831 20.1733 10.8724 20.4227 10.6824 20.6045C10.4924 20.7863 10.2384 20.8859 9.97543 20.8818C9.71248 20.8777 9.46174 20.7702 9.2775 20.5825C9.11518 20.4039 8.91822 20.2601 8.69861 20.16C8.47899 20.0598 8.24131 20.0054 8 20C6.8975 20 6 21.125 6 22.5ZM27 11V28C27 28.2652 26.8946 28.5196 26.7071 28.7071C26.5196 28.8946 26.2652 29 26 29C25.7348 29 25.4804 28.8946 25.2929 28.7071C25.1054 28.5196 25 28.2652 25 28V12H19C18.7348 12 18.4804 11.8946 18.2929 11.7071C18.1054 11.5196 18 11.2652 18 11V5H7V14C7 14.2652 6.89464 14.5196 6.70711 14.7071C6.51957 14.8946 6.26522 15 6 15C5.73478 15 5.48043 14.8946 5.29289 14.7071C5.10536 14.5196 5 14.2652 5 14V5C5 4.46957 5.21071 3.96086 5.58579 3.58579C5.96086 3.21071 6.46957 3 7 3H19C19.1314 2.9999 19.2615 3.02568 19.3829 3.07586C19.5042 3.12605 19.6146 3.19967 19.7075 3.2925L26.7075 10.2925C26.8003 10.3854 26.8739 10.4958 26.9241 10.6172C26.9743 10.7385 27.0001 10.8686 27 11ZM20 10H23.5863L20 6.41375V10ZM21 21V23H22C22.2652 23 22.5196 23.1054 22.7071 23.2929C22.8946 23.4804 23 23.7348 23 24C23 24.2652 22.8946 24.5196 22.7071 24.7071C22.5196 24.8946 22.2652 25 22 25H21V26C21 26.2652 20.8946 26.5196 20.7071 26.7071C20.5196 26.8946 20.2652 27 20 27C19.7348 27 19.4804 26.8946 19.2929 26.7071C19.1054 26.5196 19 26.2652 19 26V25H17V26C17 26.2652 16.8946 26.5196 16.7071 26.7071C16.5196 26.8946 16.2652 27 16 27C15.7348 27 15.4804 26.8946 15.2929 26.7071C15.1054 26.5196 15 26.2652 15 26V25H14C13.7348 25 13.4804 24.8946 13.2929 24.7071C13.1054 24.5196 13 24.2652 13 24C13 23.7348 13.1054 23.4804 13.2929 23.2929C13.4804 23.1054 13.7348 23 14 23H15V21H14C13.7348 21 13.4804 20.8946 13.2929 20.7071C13.1054 20.5196 13 20.2652 13 20C13 19.7348 13.1054 19.4804 13.2929 19.2929C13.4804 19.1054 13.7348 19 14 19H15V18C15 17.7348 15.1054 17.4804 15.2929 17.2929C15.4804 17.1054 15.7348 17 16 17C16.2652 17 16.5196 17.1054 16.7071 17.2929C16.8946 17.4804 17 17.7348 17 18V19H19V18C19 17.7348 19.1054 17.4804 19.2929 17.2929C19.4804 17.1054 19.7348 17 20 17C20.2652 17 20.5196 17.1054 20.7071 17.2929C20.8946 17.4804 21 17.7348 21 18V19H22C22.2652 19 22.5196 19.1054 22.7071 19.2929C22.8946 19.4804 23 19.7348 23 20C23 20.2652 22.8946 20.5196 22.7071 20.7071C22.5196 20.8946 22.2652 21 22 21H21ZM19 21H17V23H19V21Z" fill="#343330"/>
</svg>
