<svg width="32" height="32" viewBox="0 0 32 32" fill="none" xmlns="http://www.w3.org/2000/svg">
<path d="M21 13H11C9.67392 13 8.40215 13.5268 7.46447 14.4645C6.52678 15.4022 6 16.6739 6 18V19C6 19.6566 6.12933 20.3068 6.3806 20.9134C6.63188 21.5201 7.00017 22.0713 7.46447 22.5355C8.40215 23.4732 9.67392 24 11 24H21C21.6566 24 22.3068 23.8707 22.9134 23.6194C23.52 23.3681 24.0712 22.9998 24.5355 22.5355C24.9998 22.0713 25.3681 21.5201 25.6194 20.9134C25.8707 20.3068 26 19.6566 26 19V18C26 16.6739 25.4732 15.4022 24.5355 14.4645C23.5979 13.5268 22.3261 13 21 13ZM24 19C24 19.7957 23.6839 20.5587 23.1213 21.1213C22.5587 21.6839 21.7956 22 21 22H11C10.2044 22 9.44129 21.6839 8.87868 21.1213C8.31607 20.5587 8 19.7957 8 19V18C8 17.2044 8.31607 16.4413 8.87868 15.8787C9.44129 15.3161 10.2044 15 11 15H21C21.7956 15 22.5587 15.3161 23.1213 15.8787C23.6839 16.4413 24 17.2044 24 18V19ZM26 5.00001C25.1132 5.00085 24.2517 5.29581 23.5505 5.83868C22.8493 6.38156 22.3479 7.14169 22.125 8.00001H9.875C9.63318 7.05552 9.05474 6.23187 8.24838 5.68385C7.44203 5.13584 6.46329 4.90118 5.4961 5.024C4.52892 5.14682 3.63989 5.61865 2.99609 6.35081C2.3523 7.08297 1.99808 8.02506 2 9.00001V19C2.00265 21.3861 2.95171 23.6738 4.63896 25.361C6.32622 27.0483 8.61386 27.9974 11 28H21C23.3861 27.9974 25.6738 27.0483 27.361 25.361C29.0483 23.6738 29.9974 21.3861 30 19V9.00001C30 7.93914 29.5786 6.92173 28.8284 6.17158C28.0783 5.42144 27.0609 5.00001 26 5.00001ZM28 19C27.998 20.8559 27.2599 22.6352 25.9476 23.9476C24.6352 25.2599 22.8559 25.998 21 26H11C9.14409 25.998 7.36477 25.2599 6.05245 23.9476C4.74012 22.6352 4.00199 20.8559 4 19V9.00001C4 8.46958 4.21071 7.96087 4.58579 7.5858C4.96086 7.21072 5.46957 7.00001 6 7.00001C6.53043 7.00001 7.03914 7.21072 7.41421 7.5858C7.78929 7.96087 8 8.46958 8 9.00001C8 9.26523 8.10536 9.51958 8.29289 9.70712C8.48043 9.89465 8.73478 10 9 10H23C23.2652 10 23.5196 9.89465 23.7071 9.70712C23.8946 9.51958 24 9.26523 24 9.00001C24 8.46958 24.2107 7.96087 24.5858 7.5858C24.9609 7.21072 25.4696 7.00001 26 7.00001C26.5304 7.00001 27.0391 7.21072 27.4142 7.5858C27.7893 7.96087 28 8.46958 28 9.00001V19ZM13 18.5C13 18.7967 12.912 19.0867 12.7472 19.3334C12.5824 19.58 12.3481 19.7723 12.074 19.8858C11.7999 19.9994 11.4983 20.0291 11.2074 19.9712C10.9164 19.9133 10.6491 19.7704 10.4393 19.5607C10.2296 19.3509 10.0867 19.0836 10.0288 18.7926C9.97094 18.5017 10.0006 18.2001 10.1142 17.926C10.2277 17.6519 10.42 17.4176 10.6666 17.2528C10.9133 17.088 11.2033 17 11.5 17C11.8978 17 12.2794 17.158 12.5607 17.4394C12.842 17.7207 13 18.1022 13 18.5ZM22 18.5C22 18.7967 21.912 19.0867 21.7472 19.3334C21.5824 19.58 21.3481 19.7723 21.074 19.8858C20.7999 19.9994 20.4983 20.0291 20.2074 19.9712C19.9164 19.9133 19.6491 19.7704 19.4393 19.5607C19.2296 19.3509 19.0867 19.0836 19.0288 18.7926C18.9709 18.5017 19.0007 18.2001 19.1142 17.926C19.2277 17.6519 19.42 17.4176 19.6666 17.2528C19.9133 17.088 20.2033 17 20.5 17C20.8978 17 21.2794 17.158 21.5607 17.4394C21.842 17.7207 22 18.1022 22 18.5Z" fill="#343330"/>
</svg>
