<svg width="32" height="32" viewBox="0 0 32 32" fill="none" xmlns="http://www.w3.org/2000/svg">
<path d="M31.9287 14.625L30.1787 10.25C30.0302 9.87964 29.7738 9.56245 29.4428 9.33956C29.1119 9.11668 28.7215 8.99838 28.3225 9H24V8C24 7.73478 23.8946 7.48043 23.7071 7.29289C23.5196 7.10536 23.2652 7 23 7C22.7348 7 22.4804 7.10536 22.2929 7.29289C22.1054 7.48043 22 7.73478 22 8V20.5387C21.5402 20.8045 21.1377 21.159 20.8158 21.5814C20.4939 22.0039 20.2591 22.4861 20.125 23H13.875C13.6547 22.1396 13.1543 21.377 12.4527 20.8324C11.7511 20.2878 10.8882 19.9922 10 19.9922C9.11183 19.9922 8.24892 20.2878 7.54731 20.8324C6.8457 21.377 6.3453 22.1396 6.125 23H4V17C4 16.7348 3.89464 16.4804 3.70711 16.2929C3.51957 16.1054 3.26522 16 3 16C2.73478 16 2.48043 16.1054 2.29289 16.2929C2.10536 16.4804 2 16.7348 2 17V23C2 23.5304 2.21071 24.0391 2.58579 24.4142C2.96086 24.7893 3.46957 25 4 25H6.125C6.3453 25.8604 6.8457 26.623 7.54731 27.1676C8.24892 27.7122 9.11183 28.0078 10 28.0078C10.8882 28.0078 11.7511 27.7122 12.4527 27.1676C13.1543 26.623 13.6547 25.8604 13.875 25H20.125C20.3453 25.8604 20.8457 26.623 21.5473 27.1676C22.2489 27.7122 23.1118 28.0078 24 28.0078C24.8882 28.0078 25.7511 27.7122 26.4527 27.1676C27.1543 26.623 27.6547 25.8604 27.875 25H30C30.5304 25 31.0391 24.7893 31.4142 24.4142C31.7893 24.0391 32 23.5304 32 23V15C32.0008 14.8716 31.9766 14.7442 31.9287 14.625ZM28.3225 11L29.5225 14H24V11H28.3225ZM10 26C9.60444 26 9.21776 25.8827 8.88886 25.6629C8.55996 25.4432 8.30362 25.1308 8.15224 24.7654C8.00087 24.3999 7.96126 23.9978 8.03843 23.6098C8.1156 23.2219 8.30608 22.8655 8.58579 22.5858C8.86549 22.3061 9.22186 22.1156 9.60982 22.0384C9.99778 21.9613 10.3999 22.0009 10.7654 22.1522C11.1308 22.3036 11.4432 22.56 11.6629 22.8889C11.8827 23.2178 12 23.6044 12 24C12 24.5304 11.7893 25.0391 11.4142 25.4142C11.0391 25.7893 10.5304 26 10 26ZM24 26C23.6044 26 23.2178 25.8827 22.8889 25.6629C22.56 25.4432 22.3036 25.1308 22.1522 24.7654C22.0009 24.3999 21.9613 23.9978 22.0384 23.6098C22.1156 23.2219 22.3061 22.8655 22.5858 22.5858C22.8655 22.3061 23.2219 22.1156 23.6098 22.0384C23.9978 21.9613 24.3999 22.0009 24.7654 22.1522C25.1308 22.3036 25.4432 22.56 25.6629 22.8889C25.8827 23.2178 26 23.6044 26 24C26 24.5304 25.7893 25.0391 25.4142 25.4142C25.0391 25.7893 24.5304 26 24 26ZM27.875 23C27.6521 22.1417 27.1507 21.3815 26.4495 20.8387C25.7483 20.2958 24.8868 20.0008 24 20V16H30V23H27.875ZM3 12C2.73478 12 2.48043 12.1054 2.29289 12.2929C2.10536 12.4804 2 12.7348 2 13C2 13.2652 2.10536 13.5196 2.29289 13.7071C2.48043 13.8946 2.73478 14 3 14H19C19.2652 14 19.5196 13.8946 19.7071 13.7071C19.8946 13.5196 20 13.2652 20 13C20 12.7348 19.8946 12.4804 19.7071 12.2929C19.5196 12.1054 19.2652 12 19 12H17V9H19C19.2652 9 19.5196 8.89464 19.7071 8.70711C19.8946 8.51957 20 8.26522 20 8C20 7.73478 19.8946 7.48043 19.7071 7.29289C19.5196 7.10536 19.2652 7 19 7H3C2.73478 7 2.48043 7.10536 2.29289 7.29289C2.10536 7.48043 2 7.73478 2 8C2 8.26522 2.10536 8.51957 2.29289 8.70711C2.48043 8.89464 2.73478 9 3 9H5V12H3ZM15 12H12V9H15V12ZM7 9H10V12H7V9Z" fill="#343330"/>
</svg>
