<svg width="32" height="32" viewBox="0 0 32 32" fill="none" xmlns="http://www.w3.org/2000/svg">
<path d="M17.9225 2.23123C17.7992 2.12874 17.6531 2.05739 17.4965 2.0232C17.3399 1.989 17.1773 1.99296 17.0225 2.03475C16.8678 2.07654 16.7253 2.15493 16.6072 2.2633C16.489 2.37168 16.3987 2.50687 16.3438 2.65748L13.5938 10.2087L10.5737 7.28248C10.4723 7.18411 10.3512 7.10835 10.2184 7.06019C10.0856 7.01203 9.94403 6.99257 9.80313 7.00308C9.66223 7.01359 9.52516 7.05384 9.40095 7.12117C9.27674 7.18851 9.1682 7.2814 9.0825 7.39373C6.375 10.9412 5 14.51 5 18C5 20.9174 6.15893 23.7153 8.22183 25.7782C10.2847 27.8411 13.0826 29 16 29C18.9174 29 21.7153 27.8411 23.7782 25.7782C25.8411 23.7153 27 20.9174 27 18C27 10.5687 20.6513 4.49998 17.9225 2.23123ZM16 27C13.6139 26.9973 11.3262 26.0483 9.63896 24.361C7.95171 22.6738 7.00265 20.3861 7 18C7 15.25 8.01125 12.4012 10.0075 9.51998L13.3038 12.7175C13.4235 12.8337 13.5704 12.9182 13.7311 12.9631C13.8918 13.0081 14.0612 13.0121 14.2238 12.9748C14.3865 12.9376 14.5372 12.8602 14.6623 12.7497C14.7874 12.6393 14.8829 12.4993 14.94 12.3425L17.7237 4.70873C20.5262 7.25998 25 12.2387 25 18C24.9974 20.3861 24.0483 22.6738 22.361 24.361C20.6738 26.0483 18.3861 26.9973 16 27Z" fill="#343330"/>
</svg>
