<svg width="32" height="32" viewBox="0 0 32 32" fill="none" xmlns="http://www.w3.org/2000/svg">
<path d="M21 9.5C21 9.79667 20.912 10.0867 20.7472 10.3334C20.5824 10.58 20.3481 10.7723 20.074 10.8858C19.8 10.9994 19.4984 11.0291 19.2074 10.9712C18.9164 10.9133 18.6491 10.7704 18.4394 10.5607C18.2296 10.3509 18.0867 10.0836 18.0288 9.79264C17.971 9.50167 18.0007 9.20007 18.1142 8.92598C18.2277 8.65189 18.42 8.41762 18.6667 8.2528C18.9133 8.08798 19.2033 8 19.5 8C19.8978 8 20.2794 8.15804 20.5607 8.43934C20.842 8.72065 21 9.10218 21 9.5ZM26.25 19.385C24.365 21.99 21.5588 23.745 17.9125 24.6025C15.4025 25.1925 12.47 25.3525 9.14752 25.0938C9.34752 26.5788 9.62752 28.1429 9.98752 29.7863C10.044 30.0452 9.99548 30.3159 9.85251 30.539C9.70954 30.7622 9.48385 30.9194 9.22502 30.9763C9.15445 30.9921 9.08234 31.0001 9.01002 31C8.78204 30.9999 8.56096 30.9218 8.38341 30.7788C8.20586 30.6358 8.0825 30.4365 8.03377 30.2138C7.62627 28.3504 7.31752 26.5746 7.10752 24.8863C5.42252 24.6771 3.64835 24.3683 1.78502 23.96C1.65673 23.9318 1.53525 23.8787 1.4275 23.8036C1.31975 23.7285 1.22786 23.6329 1.15705 23.5223C1.01405 23.2989 0.965661 23.0278 1.02252 22.7688C1.07937 22.5097 1.23682 22.2838 1.46022 22.1408C1.68363 21.9978 1.95468 21.9494 2.21377 22.0063C3.85543 22.3663 5.41793 22.6467 6.90127 22.8475C6.64002 19.5275 6.80377 16.5975 7.39252 14.09C8.25002 10.4438 10.0063 7.6375 12.61 5.75C14.375 4.47 17.5188 2.955 22.4088 3C25.0575 3.02625 27.5125 3.54125 27.885 3.76C28.031 3.84604 28.1527 3.96777 28.2388 4.11375C28.4575 4.48875 28.9725 6.9375 28.9988 9.58625C29.0263 12.2888 28.5713 16.18 26.25 19.385ZM23.28 19.735C20.5596 19.1952 18.0606 17.8601 16.0997 15.8987C14.1388 13.9373 12.8042 11.4381 12.265 8.7175C9.45502 11.75 8.33752 16.5588 8.92002 23.075C15.4388 23.66 20.25 22.5438 23.2813 19.735H23.28ZM26.555 5.445C24.9424 5.11557 23.298 4.9684 21.6525 5.00625C18.61 5.08625 16.0638 5.8175 14.0575 7.18C14.3302 9.94153 15.5516 12.5232 17.5137 14.4855C19.4757 16.4478 22.0573 17.6695 24.8188 17.9425C26.1825 15.9425 26.9138 13.39 26.9938 10.3475C27.0315 8.70206 26.8844 7.05759 26.555 5.445Z" fill="#343330"/>
</svg>
