<svg width="32" height="32" viewBox="0 0 32 32" fill="none" xmlns="http://www.w3.org/2000/svg">
<path d="M21.0046 9.49998C21.0046 9.79665 20.9166 10.0867 20.7518 10.3333C20.587 10.58 20.3527 10.7723 20.0786 10.8858C19.8045 10.9993 19.5029 11.029 19.212 10.9712C18.921 10.9133 18.6537 10.7704 18.4439 10.5606C18.2342 10.3509 18.0913 10.0836 18.0334 9.79261C17.9755 9.50164 18.0052 9.20004 18.1188 8.92595C18.2323 8.65186 18.4246 8.41759 18.6712 8.25277C18.9179 8.08795 19.2079 7.99998 19.5046 7.99998C19.9024 7.99998 20.2839 8.15801 20.5653 8.43932C20.8466 8.72062 21.0046 9.10215 21.0046 9.49998ZM27.0946 17.955C24.6733 22.3175 20.1646 24.675 13.6896 24.9675L10.9396 31.3937C10.8623 31.5742 10.7336 31.7279 10.5696 31.8357C10.4055 31.9435 10.2134 32.0006 10.0171 32H9.95334C9.74727 31.9871 9.55026 31.9107 9.38934 31.7813C9.22842 31.652 9.11148 31.476 9.05459 31.2775L7.20459 24.7987L0.729591 22.945C0.530554 22.8891 0.353737 22.7729 0.223474 22.6123C0.0932117 22.4518 0.0159073 22.2548 0.0022008 22.0485C-0.0115057 21.8422 0.0390594 21.6368 0.146937 21.4604C0.254814 21.2841 0.414701 21.1455 0.604591 21.0637L7.03084 18.3137C7.32459 11.8412 9.68209 7.33373 14.0421 4.91123C17.1358 3.19373 20.6346 2.93123 23.0271 3.01373C25.3571 3.09373 27.5271 3.54748 27.8846 3.76373C28.0306 3.84977 28.1523 3.97149 28.2383 4.11748C28.4496 4.47373 28.9046 6.64373 28.9883 8.97373C29.0733 11.3612 28.8121 14.8612 27.0946 17.955ZM20.1971 21.58C19.0416 21.1395 18.0354 20.3792 17.2961 19.388C16.5568 18.3967 16.1149 17.2156 16.0221 15.9825C14.7893 15.8898 13.6083 15.4481 12.6173 14.709C11.6263 13.9699 10.8662 12.9639 10.4258 11.8087C9.55501 13.7912 9.08417 16.1908 9.01334 19.0075C9.00891 19.1993 8.9494 19.3858 8.84191 19.5447C8.73441 19.7036 8.58347 19.8282 8.40709 19.9037L3.98334 21.7962L8.28959 23.0287C8.45298 23.0756 8.60173 23.1633 8.7218 23.2836C8.84188 23.4038 8.92931 23.5528 8.97584 23.7162L10.2058 28.0212L12.1008 23.5962C12.1765 23.4201 12.3012 23.2694 12.4601 23.1621C12.619 23.0549 12.8054 22.9955 12.9971 22.9912C15.8113 22.9237 18.2113 22.4533 20.1971 21.58ZM26.5571 5.44623C24.7883 5.07123 18.5446 4.07123 14.0196 7.28998C13.2706 7.82436 12.5978 8.45808 12.0196 9.17373C11.9722 9.82673 12.0679 10.4822 12.3 11.0944C12.532 11.7066 12.8949 12.2608 13.3633 12.7184C13.8316 13.1759 14.3941 13.5257 15.0116 13.7434C15.6291 13.961 16.2866 14.0414 16.9383 13.9787C17.0852 13.9646 17.2333 13.9831 17.3721 14.0329C17.5109 14.0828 17.637 14.1627 17.7413 14.267C17.8456 14.3713 17.9255 14.4974 17.9754 14.6362C18.0252 14.775 18.0437 14.9232 18.0296 15.07C17.9671 15.7219 18.0476 16.3797 18.2656 16.9973C18.4836 17.6149 18.8338 18.1775 19.2917 18.6457C19.7496 19.114 20.3042 19.4767 20.9168 19.7084C21.5294 19.9402 22.1851 20.0354 22.8383 19.9875C23.5513 19.4091 24.1821 18.7363 24.7133 17.9875C27.9321 13.4662 26.9321 7.21748 26.5571 5.44623Z" fill="#343330"/>
</svg>
