<svg width="32" height="32" viewBox="0 0 32 32" fill="none" xmlns="http://www.w3.org/2000/svg">
<path d="M5.345 6.25C5.23742 6.34325 5.15099 6.45839 5.09149 6.58773C5.032 6.71708 5.0008 6.85763 5 7V28C5 28.2652 5.10536 28.5196 5.29289 28.7071C5.48043 28.8946 5.73478 29 6 29C6.26522 29 6.51957 28.8946 6.70711 28.7071C6.89464 28.5196 7 28.2652 7 28V22.4712C10.3488 19.8262 13.2337 21.2525 16.5562 22.8975C18.6062 23.9112 20.8137 25.0037 23.1812 25.0037C24.9225 25.0037 26.7488 24.41 28.6588 22.7537C28.7663 22.6605 28.8528 22.5454 28.9123 22.416C28.9718 22.2867 29.0029 22.1461 29.0037 22.0037V7C29.0033 6.80805 28.9476 6.6203 28.8433 6.45914C28.7391 6.29799 28.5906 6.17025 28.4157 6.09117C28.2408 6.01209 28.0469 5.98502 27.857 6.01318C27.6672 6.04134 27.4894 6.12355 27.345 6.25C23.845 9.27875 20.88 7.81125 17.4438 6.11C13.8838 4.345 9.8475 2.34875 5.345 6.25ZM27 21.5312C23.6512 24.1762 20.7663 22.7487 17.4438 21.105C14.3188 19.5612 10.8425 17.8387 7 20.055V7.47375C10.3488 4.82875 13.2337 6.255 16.5562 7.89875C19.6812 9.4425 23.1588 11.165 27 8.94875V21.5312Z" fill="#343330"/>
</svg>
