<svg width="32" height="32" viewBox="0 0 32 32" fill="none" xmlns="http://www.w3.org/2000/svg">
<path d="M28.415 6.09375C28.2404 6.01449 28.0468 5.98707 27.8571 6.01477C27.6674 6.04248 27.4896 6.12413 27.345 6.25C23.845 9.2775 20.88 7.81 17.4438 6.10875C13.8838 4.345 9.8475 2.34875 5.345 6.25C5.23742 6.34325 5.15099 6.4584 5.09149 6.58774C5.032 6.71708 5.0008 6.85763 5 7V28C5 28.2652 5.10536 28.5196 5.29289 28.7071C5.48043 28.8946 5.73478 29 6 29C6.26522 29 6.51957 28.8946 6.70711 28.7071C6.89464 28.5196 7 28.2652 7 28V22.4713C10.3488 19.8263 13.2337 21.2525 16.5562 22.8975C20.1175 24.6588 24.1525 26.655 28.655 22.7563C28.7626 22.663 28.849 22.5479 28.9085 22.4185C28.968 22.2892 28.9992 22.1486 29 22.0063V7C28.9993 6.80883 28.9438 6.62186 28.8402 6.46124C28.7365 6.30062 28.5889 6.17309 28.415 6.09375ZM27 8.95V14.0313C25.25 15.4138 23.625 15.6838 22 15.3913V9.9175C23.7285 10.1875 25.497 9.84531 27 8.95ZM20 9.42V14.795C19.1675 14.4613 18.3212 14.045 17.4438 13.61C16.3413 13.0638 15.1938 12.4963 14 12.0875V6.7125C14.8325 7.045 15.6788 7.4625 16.5562 7.8975C17.6587 8.44375 18.8075 9.01125 20 9.42ZM12 6.11375V11.5863C10.2714 11.3167 8.50288 11.6594 7 12.555V7.4725C8.75 6.09 10.375 5.82125 12 6.11375ZM10.8225 19C9.47692 19.0023 8.15671 19.3663 7 20.0538V14.9725C8.75 13.59 10.375 13.32 12 13.6125V19.0875C11.6101 19.0301 11.2166 19.0008 10.8225 19ZM14 19.5838V14.2088C14.8325 14.5413 15.6788 14.9588 16.5562 15.3938C17.6587 15.94 18.8062 16.5063 20 16.915V22.29C19.1675 21.9563 18.3212 21.54 17.4438 21.105C16.3413 20.5588 15.1925 19.9925 14 19.5838ZM22 22.89V17.415C22.3898 17.4733 22.7833 17.5033 23.1775 17.505C24.5235 17.5008 25.8437 17.1352 27 16.4463V21.5313C25.25 22.9138 23.625 23.1825 22 22.89Z" fill="#343330"/>
</svg>
