<svg width="32" height="32" viewBox="0 0 32 32" fill="none" xmlns="http://www.w3.org/2000/svg">
<path d="M29.8412 5.45875C29.7506 5.31798 29.6261 5.20221 29.4791 5.12205C29.3322 5.0419 29.1674 4.99994 29 5H19C18.808 5.00008 18.6202 5.05539 18.4588 5.15935C18.2975 5.2633 18.1694 5.4115 18.09 5.58625L16.9925 8H3.5C3.3063 8.00002 3.11677 8.05629 2.95444 8.16199C2.79212 8.26768 2.66398 8.41825 2.58561 8.59538C2.50723 8.77252 2.48199 8.96861 2.51295 9.15982C2.54391 9.35104 2.62973 9.52914 2.76 9.6725L7.14875 14.5L2.76 19.3275C2.62973 19.4709 2.54391 19.649 2.51295 19.8402C2.48199 20.0314 2.50723 20.2275 2.58561 20.4046C2.66398 20.5818 2.79212 20.7323 2.95444 20.838C3.11677 20.9437 3.3063 21 3.5 21H12.6362C12.8282 20.9999 13.0161 20.9446 13.1774 20.8407C13.3388 20.7367 13.4668 20.5885 13.5462 20.4137L14.6437 18H22.4475L18.09 27.5863C18.0315 27.7063 17.9976 27.8369 17.9904 27.9703C17.9832 28.1036 18.0028 28.2371 18.048 28.3628C18.0932 28.4885 18.1631 28.6038 18.2537 28.702C18.3442 28.8002 18.4535 28.8793 18.5751 28.9346C18.6967 28.9899 18.8281 29.0202 18.9616 29.0239C19.0951 29.0276 19.228 29.0044 19.3524 28.9559C19.4769 28.9073 19.5903 28.8343 19.6861 28.7412C19.7818 28.6481 19.858 28.5368 19.91 28.4137L29.91 6.41375C29.9793 6.26152 30.0094 6.09433 29.9973 5.92749C29.9853 5.76064 29.9317 5.59948 29.8412 5.45875ZM11.9925 19H5.76L9.24 15.1725C9.40724 14.9884 9.4999 14.7487 9.4999 14.5C9.4999 14.2513 9.40724 14.0116 9.24 13.8275L5.76 10H16.0837L11.9925 19ZM23.3562 16H15.5525L19.6437 7H27.4475L23.3562 16Z" fill="#343330"/>
</svg>
