<svg width="32" height="32" viewBox="0 0 32 32" fill="none" xmlns="http://www.w3.org/2000/svg">
<path d="M29.845 6.46625C29.7549 6.32355 29.6302 6.20596 29.4825 6.12444C29.3347 6.04292 29.1687 6.00011 29 6H5C4.8021 5.99984 4.60861 6.05841 4.44402 6.16828C4.27942 6.27815 4.15113 6.43439 4.07538 6.61721C3.99962 6.80003 3.97982 7.00122 4.01847 7.19531C4.05712 7.38939 4.15249 7.56764 4.2925 7.7075L9.58625 13L4.2925 18.2925C4.15249 18.4324 4.05712 18.6106 4.01847 18.8047C3.97982 18.9988 3.99962 19.2 4.07538 19.3828C4.15113 19.5656 4.27942 19.7218 4.44402 19.8317C4.60861 19.9416 4.8021 20.0002 5 20H21.7025L18.0975 27.57C18.0372 27.689 18.0013 27.8188 17.992 27.9518C17.9826 28.0849 18 28.2185 18.043 28.3447C18.0861 28.4709 18.1539 28.5873 18.2426 28.6869C18.3313 28.7865 18.439 28.8674 18.5594 28.9248C18.6798 28.9821 18.8105 29.0148 18.9437 29.0209C19.0769 29.0271 19.21 29.0065 19.3352 28.9604C19.4603 28.9143 19.575 28.8436 19.6724 28.7525C19.7699 28.6614 19.8481 28.5518 19.9025 28.43L29.9025 7.43C29.975 7.27756 30.0078 7.10924 29.9978 6.94073C29.9877 6.77221 29.9352 6.60898 29.845 6.46625ZM22.6537 18H7.41375L11.7075 13.7075C11.8005 13.6146 11.8742 13.5043 11.9246 13.3829C11.9749 13.2615 12.0008 13.1314 12.0008 13C12.0008 12.8686 11.9749 12.7385 11.9246 12.6171C11.8742 12.4957 11.8005 12.3854 11.7075 12.2925L7.41375 8H27.4137L22.6537 18Z" fill="#343330"/>
</svg>
