<svg width="32" height="32" viewBox="0 0 32 32" fill="none" xmlns="http://www.w3.org/2000/svg">
<path d="M30.3288 12.055L7.32875 4.055C7.178 4.00253 7.01688 3.9869 6.85886 4.00943C6.70084 4.03196 6.55051 4.09199 6.42043 4.1845C6.29035 4.27701 6.18431 4.39931 6.11117 4.54119C6.03803 4.68306 5.99991 4.84038 6 5V27C6 27.2652 6.10536 27.5196 6.29289 27.7071C6.48043 27.8946 6.73478 28 7 28C7.26522 28 7.51957 27.8946 7.70711 27.7071C7.89464 27.5196 8 27.2652 8 27V21.7113L30.3288 13.945C30.5252 13.877 30.6956 13.7494 30.8163 13.5801C30.9369 13.4107 31.0017 13.2079 31.0017 13C31.0017 12.7921 30.9369 12.5893 30.8163 12.4199C30.6956 12.2506 30.5252 12.123 30.3288 12.055ZM8 19.5938V6.40625L26.9562 13L8 19.5938Z" fill="#343330"/>
</svg>
