<svg width="32" height="32" viewBox="0 0 32 32" fill="none" xmlns="http://www.w3.org/2000/svg">
<path d="M21.7237 6.435C20.1693 4.79688 18.42 3.35531 16.515 2.1425C16.3595 2.04906 16.1814 1.99969 16 1.99969C15.8186 1.99969 15.6405 2.04906 15.485 2.1425C13.58 3.35531 11.8307 4.79688 10.2762 6.435C6.82375 10.06 5 14.0588 5 18C5 20.9174 6.15893 23.7153 8.22183 25.7782C10.2847 27.8411 13.0826 29 16 29C18.9174 29 21.7153 27.8411 23.7782 25.7782C25.8411 23.7153 27 20.9174 27 18C27 14.0588 25.1762 10.06 21.7237 6.435ZM12 23C12 19.5413 14.8162 17.09 16 16.2125C17.185 17.0875 20 19.5413 20 23C20 24.0609 19.5786 25.0783 18.8284 25.8284C18.0783 26.5786 17.0609 27 16 27C14.9391 27 13.9217 26.5786 13.1716 25.8284C12.4214 25.0783 12 24.0609 12 23ZM21.6588 24.9913C21.8847 24.3517 22.0001 23.6783 22 23C22 17.5 16.7387 14.2763 16.515 14.1425C16.3595 14.0491 16.1814 13.9997 16 13.9997C15.8186 13.9997 15.6405 14.0491 15.485 14.1425C15.2612 14.2763 10 17.5 10 23C9.9999 23.6783 10.1153 24.3517 10.3413 24.9913C9.29797 24.1491 8.4564 23.0841 7.87824 21.8743C7.30009 20.6646 7.00001 19.3408 7 18C7 13.6988 9.55 10.1063 11.69 7.85125C12.9948 6.48435 14.4394 5.25805 16 4.1925C17.5609 5.25773 19.0055 6.48405 20.31 7.85125C24.1862 11.9375 25 15.625 25 18C25 19.3408 24.6999 20.6646 24.1218 21.8743C23.5436 23.0841 22.702 24.1491 21.6588 24.9913Z" fill="#343330"/>
</svg>
