<svg width="32" height="32" viewBox="0 0 32 32" fill="none" xmlns="http://www.w3.org/2000/svg">
<path d="M7 15H27C27.4616 15.0002 27.9091 14.8407 28.2665 14.5486C28.6239 14.2565 28.8693 13.8497 28.961 13.3973C29.0527 12.9449 28.985 12.4747 28.7695 12.0664C28.5541 11.6582 28.204 11.3371 27.7788 11.1575L27.7613 11.15L7.77 3.15002C7.46574 3.02309 7.13481 2.97335 6.80668 3.00522C6.47854 3.03708 6.16337 3.14957 5.88921 3.33267C5.61506 3.51578 5.39041 3.76381 5.23528 4.05471C5.08014 4.3456 4.99932 4.67034 5 5.00002V13C5 13.5305 5.21072 14.0392 5.58579 14.4142C5.96086 14.7893 6.46957 15 7 15ZM7 5.00002L7.01875 5.00752L27 13H7V5.00002ZM27 17H7C6.46957 17 5.96086 17.2107 5.58579 17.5858C5.21072 17.9609 5 18.4696 5 19V27C4.99982 27.3293 5.08094 27.6536 5.23619 27.944C5.39143 28.2344 5.61598 28.482 5.88991 28.6648C6.16384 28.8476 6.47866 28.9599 6.80642 28.9918C7.13418 29.0236 7.46474 28.9741 7.76875 28.8475L27.76 20.8475L27.7775 20.84C28.2011 20.6596 28.5495 20.3385 28.7638 19.9309C28.9781 19.5234 29.0453 19.0544 28.9539 18.6031C28.8625 18.1518 28.6182 17.7459 28.2623 17.4538C27.9063 17.1618 27.4605 17.0015 27 17ZM7.01875 26.9913L7 27V19H27L7.01875 26.9913Z" fill="#343330"/>
</svg>
