<svg width="32" height="32" viewBox="0 0 32 32" fill="none" xmlns="http://www.w3.org/2000/svg">
<path d="M13.3975 3.04125C12.945 2.94598 12.4734 3.0119 12.0643 3.22761C11.6552 3.44333 11.3345 3.79526 11.1575 4.2225L11.15 4.24L3.14999 24.2313C3.02333 24.5355 2.97379 24.8662 3.00579 25.1942C3.03779 25.5222 3.15032 25.8371 3.33339 26.1111C3.51646 26.3851 3.7644 26.6096 4.05515 26.7647C4.3459 26.9198 4.67047 27.0006 4.99999 27H13C13.5304 27 14.0391 26.7893 14.4142 26.4142C14.7893 26.0391 15 25.5304 15 25V5C15.0033 4.53786 14.8449 4.08912 14.5522 3.73142C14.2596 3.37373 13.8511 3.12959 13.3975 3.04125ZM13 25H4.99999L5.00749 24.9813L13 5V25ZM28.8462 24.2313L20.8462 4.24L20.8387 4.2225C20.6578 3.79964 20.3367 3.45207 19.9294 3.23832C19.5222 3.02457 19.0537 2.95772 18.6029 3.04902C18.1522 3.14032 17.7466 3.38419 17.4547 3.73956C17.1627 4.09493 17.0021 4.54007 17 5V25C17 25.5304 17.2107 26.0391 17.5858 26.4142C17.9608 26.7893 18.4696 27 19 27H27C27.3293 27.0002 27.6536 26.9191 27.944 26.7638C28.2344 26.6086 28.482 26.384 28.6648 26.1101C28.8476 25.8362 28.9599 25.5213 28.9917 25.1936C29.0236 24.8658 28.9741 24.5353 28.8475 24.2313H28.8462ZM19 25V5L26.9912 24.98L26.9987 24.9988L19 25Z" fill="#343330"/>
</svg>
