<svg width="32" height="32" viewBox="0 0 32 32" fill="none" xmlns="http://www.w3.org/2000/svg">
<path d="M30.7075 9.29251L26.7075 5.29251C26.5199 5.10487 26.2654 4.99945 26 4.99945C25.7346 4.99945 25.4801 5.10487 25.2925 5.29251C25.1049 5.48015 24.9995 5.73464 24.9995 6.00001C24.9995 6.26537 25.1049 6.51987 25.2925 6.70751L27.5863 9.00001H26C19.8338 9.00001 18.3688 12.515 17.0775 15.615C15.905 18.4288 14.9625 20.6888 10.8925 20.97C10.6371 19.7575 9.9406 18.6831 8.93803 17.955C7.93546 17.2269 6.69824 16.8969 5.46624 17.0292C4.23424 17.1614 3.09523 17.7464 2.27003 18.6707C1.44483 19.595 0.992232 20.7928 0.999976 22.0319C1.00772 23.2709 1.47526 24.463 2.31195 25.3769C3.14864 26.2908 4.29487 26.8615 5.52842 26.9783C6.76198 27.0952 7.99498 26.7498 8.98837 26.0092C9.98176 25.2686 10.6648 24.1856 10.905 22.97C16.3125 22.6388 17.6975 19.3263 18.9225 16.3838C20.1763 13.375 21.1663 11 26 11H27.5863L25.2925 13.2925C25.1049 13.4801 24.9995 13.7346 24.9995 14C24.9995 14.2654 25.1049 14.5199 25.2925 14.7075C25.4801 14.8951 25.7346 15.0006 26 15.0006C26.2654 15.0006 26.5199 14.8951 26.7075 14.7075L30.7075 10.7075C30.8005 10.6146 30.8742 10.5043 30.9246 10.3829C30.9749 10.2615 31.0008 10.1314 31.0008 10C31.0008 9.86859 30.9749 9.73846 30.9246 9.61707C30.8742 9.49567 30.8005 9.38538 30.7075 9.29251ZM6.00001 25C5.40666 25 4.82664 24.8241 4.3333 24.4944C3.83995 24.1648 3.45543 23.6962 3.22837 23.1481C3.00131 22.5999 2.9419 21.9967 3.05765 21.4147C3.17341 20.8328 3.45913 20.2982 3.87869 19.8787C4.29825 19.4591 4.83279 19.1734 5.41474 19.0577C5.99668 18.9419 6.59988 19.0013 7.14806 19.2284C7.69624 19.4554 8.16477 19.8399 8.49442 20.3333C8.82406 20.8266 9.00001 21.4067 9.00001 22C9.00001 22.7957 8.68394 23.5587 8.12133 24.1213C7.55872 24.6839 6.79566 25 6.00001 25Z" fill="#343330"/>
</svg>
