<svg width="32" height="32" viewBox="0 0 32 32" fill="none" xmlns="http://www.w3.org/2000/svg">
<path d="M26 5.99998C24.4781 5.99861 22.9726 6.31494 21.58 6.92873C19.6925 3.75748 16.59 2.17873 16.4475 2.10498C16.3086 2.03546 16.1554 1.99927 16 1.99927C15.8446 1.99927 15.6914 2.03546 15.5525 2.10498C15.41 2.17748 12.3025 3.75748 10.42 6.92873C9.02735 6.31494 7.52191 5.99861 6 5.99998C5.73478 5.99998 5.48043 6.10534 5.29289 6.29288C5.10536 6.48041 5 6.73477 5 6.99998V12C5.0033 14.7432 6.03022 17.3865 7.87979 19.4125C9.72935 21.4384 12.2684 22.7012 15 22.9537V27.3825L10.4475 25.105C10.33 25.0462 10.202 25.0112 10.0709 25.0019C9.93986 24.9925 9.80823 25.0091 9.68357 25.0507C9.55891 25.0922 9.44365 25.1579 9.34438 25.244C9.24511 25.3301 9.16377 25.4349 9.105 25.5525C9.04623 25.67 9.01119 25.798 9.00188 25.929C8.99256 26.0601 9.00915 26.1918 9.05071 26.3164C9.09226 26.4411 9.15797 26.5563 9.24406 26.6556C9.33016 26.7549 9.43497 26.8362 9.5525 26.895L15.5525 29.895C15.6914 29.9645 15.8446 30.0007 16 30.0007C16.1554 30.0007 16.3086 29.9645 16.4475 29.895L22.4475 26.895C22.6849 26.7763 22.8654 26.5682 22.9493 26.3164C23.0332 26.0646 23.0137 25.7899 22.895 25.5525C22.7763 25.3151 22.5682 25.1346 22.3164 25.0507C22.0647 24.9668 21.7899 24.9863 21.5525 25.105L17 27.3825V22.9537C19.7316 22.7012 22.2707 21.4384 24.1202 19.4125C25.9698 17.3865 26.9967 14.7432 27 12V6.99998C27 6.73477 26.8946 6.48041 26.7071 6.29288C26.5196 6.10534 26.2652 5.99998 26 5.99998ZM15 20.945C12.8009 20.6964 10.7701 19.6472 9.29473 17.9976C7.81937 16.348 7.00257 14.2131 7 12V8.05498C9.19914 8.30362 11.2299 9.35273 12.7053 11.0024C14.1806 12.652 14.9974 14.7868 15 17V20.945ZM16 12.42C15.1588 10.5923 13.8345 9.02903 12.17 7.89873C13.3663 5.92498 15.17 4.66123 16 4.14873C16.8313 4.65873 18.635 5.92248 19.83 7.89873C18.1658 9.02932 16.8416 10.5925 16 12.42ZM25 12C24.9974 14.2131 24.1806 16.348 22.7053 17.9976C21.2299 19.6472 19.1991 20.6964 17 20.945V17C17.0026 14.7868 17.8194 12.652 19.2947 11.0024C20.7701 9.35273 22.8009 8.30362 25 8.05498V12Z" fill="#343330"/>
</svg>
