<svg width="32" height="32" viewBox="0 0 32 32" fill="none" xmlns="http://www.w3.org/2000/svg">
<path d="M22.9487 26.6837C23.0326 26.9354 23.0131 27.21 22.8945 27.4472C22.7759 27.6845 22.5679 27.8649 22.3162 27.9487C22.0646 28.0326 21.79 28.0131 21.5528 27.8945C21.3155 27.7759 21.1351 27.5679 21.0513 27.3162L20.0513 24.3162C20.0097 24.1917 19.9931 24.0601 20.0024 23.9291C20.0118 23.7981 20.0468 23.6702 20.1055 23.5528C20.1642 23.4353 20.2455 23.3305 20.3448 23.2445C20.444 23.1584 20.5592 23.0928 20.6838 23.0512C20.8083 23.0097 20.9399 22.9931 21.0709 23.0024C21.2019 23.0118 21.3298 23.0468 21.4472 23.1055C21.5647 23.1642 21.6695 23.2455 21.7555 23.3447C21.8416 23.444 21.9072 23.5592 21.9487 23.6837L22.9487 26.6837ZM16 23C15.7348 23 15.4804 23.1054 15.2929 23.2929C15.1054 23.4804 15 23.7348 15 24V28C15 28.2652 15.1054 28.5196 15.2929 28.7071C15.4804 28.8946 15.7348 29 16 29C16.2652 29 16.5196 28.8946 16.7071 28.7071C16.8946 28.5196 17 28.2652 17 28V24C17 23.7348 16.8946 23.4804 16.7071 23.2929C16.5196 23.1054 16.2652 23 16 23ZM11.3162 23.0512C11.1917 23.0097 11.0601 22.9931 10.9291 23.0024C10.7981 23.0117 10.6702 23.0467 10.5527 23.1055C10.4353 23.1642 10.3305 23.2455 10.2445 23.3447C10.1584 23.444 10.0928 23.5591 10.0513 23.6837L9.05125 26.6837C8.96738 26.9354 8.98689 27.21 9.10551 27.4472C9.22413 27.6845 9.43213 27.8649 9.68375 27.9487C9.93537 28.0326 10.21 28.0131 10.4472 27.8945C10.6845 27.7759 10.8649 27.5679 10.9487 27.3162L11.9487 24.3162C11.9903 24.1917 12.0069 24.0601 11.9976 23.9291C11.9883 23.7981 11.9532 23.6702 11.8945 23.5527C11.8358 23.4353 11.7545 23.3305 11.6553 23.2445C11.556 23.1584 11.4408 23.0928 11.3162 23.0512ZM31 14C31 16.0275 29.3288 17.8612 26.2938 19.1612C23.5275 20.3475 19.875 21 16 21C12.125 21 8.4725 20.3475 5.70625 19.1612C2.67125 17.8612 1 16.0275 1 14C1 12.9537 1.45875 11.4012 3.64625 9.9375C5.0675 8.98625 7.01375 8.2175 9.29375 7.70625C9.92956 6.69888 10.7835 5.84716 11.7925 5.21397C12.8015 4.58078 13.9399 4.18229 15.1235 4.04791C16.3071 3.91353 17.5058 4.04669 18.6311 4.43757C19.7564 4.82844 20.7795 5.46705 21.625 6.30625C22.0563 6.73298 22.4382 7.20678 22.7638 7.71875C27.9287 8.88625 31 11.2175 31 14ZM10 12.1037V12.4787C9.99873 12.7034 10.0739 12.9218 10.2131 13.098C10.3524 13.2743 10.5474 13.398 10.7662 13.4487C12.4847 13.8276 14.2403 14.0125 16 14C17.7587 14.0141 19.5134 13.8309 21.2313 13.4537C21.4504 13.4033 21.6459 13.2797 21.7856 13.1035C21.9253 12.9272 22.0009 12.7087 22 12.4837V12C22.0001 11.2053 21.8423 10.4185 21.5357 9.68527C21.2292 8.95205 20.7801 8.28703 20.2145 7.72882C19.6488 7.17061 18.9779 6.73033 18.2407 6.43355C17.5035 6.13677 16.7146 5.9894 15.92 6C12.6562 6.0425 10 8.78125 10 12.1037ZM29 14C29 12.5375 26.9213 11.0137 23.7625 10.0512C23.9205 10.6888 24.0003 11.3432 24 12V12.49C24.001 13.1666 23.7719 13.8235 23.3503 14.3528C22.9288 14.882 22.3397 15.2522 21.68 15.4025C19.815 15.8137 17.9097 16.0141 16 16C14.0903 16.014 12.185 15.8136 10.32 15.4025C9.66026 15.2522 9.07124 14.882 8.64965 14.3528C8.22807 13.8235 7.99898 13.1666 8 12.49V12.1075C8.00021 11.4106 8.08969 10.7166 8.26625 10.0425C5.09 11 3 12.5312 3 14C3 16.365 8.33875 19 16 19C23.6613 19 29 16.365 29 14Z" fill="#343330"/>
</svg>
