<svg width="32" height="32" viewBox="0 0 32 32" fill="none" xmlns="http://www.w3.org/2000/svg">
<path d="M26.0075 23H19C18.7348 23 18.4804 23.1054 18.2929 23.2929C18.1053 23.4804 18 23.7348 18 24V25.5C18 26.6943 18.4744 27.8397 19.3189 28.6842C20.1634 29.5287 21.3088 30.0031 22.5031 30.0031C23.6974 30.0031 24.8428 29.5287 25.6873 28.6842C26.5318 27.8397 27.0062 26.6943 27.0062 25.5V24C27.0062 23.735 26.9011 23.4808 26.7138 23.2933C26.5265 23.1058 26.2725 23.0003 26.0075 23ZM25.0075 25.5C25.0075 26.163 24.7441 26.7989 24.2753 27.2678C23.8064 27.7366 23.1705 28 22.5075 28C21.8444 28 21.2086 27.7366 20.7397 27.2678C20.2709 26.7989 20.0075 26.163 20.0075 25.5V25H25.0075V25.5ZM13 20H5.99999C5.73477 20 5.48042 20.1054 5.29288 20.2929C5.10534 20.4804 4.99999 20.7348 4.99999 21V22.5C4.99999 23.6935 5.47409 24.8381 6.31801 25.682C7.16192 26.5259 8.30651 27 9.49999 27C10.6935 27 11.8381 26.5259 12.682 25.682C13.5259 24.8381 14 23.6935 14 22.5V21C14 20.7348 13.8946 20.4804 13.7071 20.2929C13.5196 20.1054 13.2652 20 13 20ZM12 22.5C12 23.163 11.7366 23.7989 11.2678 24.2678C10.7989 24.7366 10.163 25 9.49999 25C8.83695 25 8.20106 24.7366 7.73222 24.2678C7.26338 23.7989 6.99999 23.163 6.99999 22.5V22H12V22.5ZM9.49999 2C8.04499 2 6.63374 3.28875 5.52499 5.625C3.78374 9.2975 3.20499 14.75 5.56124 17.625C5.65519 17.7397 5.77347 17.832 5.9075 17.8954C6.04154 17.9587 6.18798 17.9915 6.33624 17.9912H12.655C12.8032 17.9915 12.9497 17.9587 13.0837 17.8954C13.2178 17.832 13.336 17.7397 13.43 17.625C15.7862 14.75 15.2075 9.29375 13.4662 5.625C12.3562 3.28875 10.9462 2 9.49999 2ZM12.1437 16H6.84749C5.42249 13.7375 5.94624 9.4125 7.33374 6.48625C8.14249 4.7775 9.02124 4 9.49999 4C9.97874 4 10.8525 4.7775 11.6625 6.48625C13.045 9.4125 13.5687 13.7375 12.1437 16ZM19.345 21H25.6637C25.812 21.0002 25.9584 20.9675 26.0925 20.9041C26.2265 20.8408 26.3448 20.7484 26.4387 20.6338C28.795 17.7588 28.2162 12.3025 26.475 8.63375C25.3662 6.28875 23.955 5 22.5 5C21.045 5 19.6387 6.28875 18.5287 8.625C16.7875 12.2975 16.2087 17.75 18.565 20.625C18.6589 20.7416 18.7777 20.8358 18.9126 20.9006C19.0475 20.9655 19.1953 20.9995 19.345 21ZM20.345 9.48625C21.1525 7.7775 22.0312 7 22.5 7C22.9687 7 23.8525 7.7775 24.6612 9.48625C26.0487 12.4125 26.5725 16.7362 25.1487 19H19.8562C18.4312 16.7375 18.955 12.4125 20.3425 9.48625H20.345Z" fill="#343330"/>
</svg>
