<svg width="32" height="32" viewBox="0 0 32 32" fill="none" xmlns="http://www.w3.org/2000/svg">
<path d="M12 20.5C12 20.7967 11.912 21.0867 11.7472 21.3333C11.5824 21.58 11.3481 21.7723 11.074 21.8858C10.7999 21.9993 10.4983 22.029 10.2074 21.9712C9.91639 21.9133 9.64912 21.7704 9.43934 21.5606C9.22956 21.3509 9.0867 21.0836 9.02882 20.7926C8.97094 20.5016 9.00065 20.2 9.11418 19.926C9.22771 19.6519 9.41997 19.4176 9.66665 19.2528C9.91332 19.088 10.2033 19 10.5 19C10.8978 19 11.2794 19.158 11.5607 19.4393C11.842 19.7206 12 20.1022 12 20.5ZM29 22V26C29 26.5304 28.7893 27.0391 28.4142 27.4142C28.0391 27.7893 27.5304 28 27 28H22.5C22.0688 27.9981 21.6495 27.8578 21.3041 27.5996C20.9587 27.3415 20.7053 26.9792 20.5812 26.5662L19.23 22H16.4888L16.9338 23.5C16.9412 23.5221 16.9474 23.5447 16.9525 23.5675C17.0172 23.8598 17.0155 24.1628 16.9475 24.4544C16.8795 24.7459 16.7469 25.0185 16.5595 25.2519C16.3721 25.4854 16.1347 25.6738 15.8648 25.8033C15.5949 25.9327 15.2994 26 15 26H9.0175C8.81583 26 8.61888 25.939 8.4525 25.825C6.77192 24.6777 5.39681 23.1376 4.4466 21.3382C3.4964 19.5389 2.99982 17.5348 3 15.5C3 8.70498 8.53 3.09998 15.3225 2.99998C16.9789 2.97646 18.6235 3.28241 20.1606 3.90005C21.6977 4.51769 23.0967 5.43471 24.2763 6.59779C25.4559 7.76087 26.3926 9.14682 27.0318 10.6751C27.6711 12.2033 28.0002 13.8434 28 15.5V16C28 16.2652 27.8946 16.5196 27.7071 16.7071C27.5196 16.8946 27.2652 17 27 17H19.8388L20.725 20H27C27.5304 20 28.0391 20.2107 28.4142 20.5858C28.7893 20.9608 29 21.4695 29 22ZM15 24L13.0688 17.5C13.0612 17.4779 13.0549 17.4553 13.05 17.4325C12.9853 17.1404 12.987 16.8375 13.0548 16.5462C13.1227 16.2548 13.2551 15.9824 13.4422 15.749C13.6293 15.5156 13.8664 15.3272 14.136 15.1975C14.4056 15.0679 14.7008 15.0004 15 15H25.9888C25.8593 12.2786 24.6771 9.71411 22.692 7.84816C20.7069 5.9822 18.0742 4.9609 15.35 4.99998C9.645 5.07998 5 9.78873 5 15.5C4.99979 17.1584 5.3924 18.7932 6.14567 20.2706C6.89894 21.7481 7.99146 23.0261 9.33375 24H15ZM18.6413 20L17.75 17H15L15.8925 20H18.6413ZM27 22H21.315L22.5 26H27V22Z" fill="#343330"/>
</svg>
