<svg width="32" height="32" viewBox="0 0 32 32" fill="none" xmlns="http://www.w3.org/2000/svg">
<path d="M28.6325 6.73624C28.4897 5.89468 28.0888 5.11835 27.4852 4.51477C26.8816 3.9112 26.1053 3.51026 25.2638 3.36749C21.2175 2.68124 13.59 2.36749 7.98 7.97999C2.37 13.5925 2.68125 21.2175 3.3675 25.2637C3.51065 26.1062 3.91251 26.8831 4.5173 27.4868C5.12209 28.0905 5.89981 28.4909 6.7425 28.6325C8.16019 28.8743 9.5956 28.9972 11.0338 29C15.045 29 20.04 28 24.02 24.02C29.6313 18.41 29.3188 10.7825 28.6325 6.73624ZM20.9313 4.98624C22.272 4.99097 23.61 5.10804 24.9313 5.33624C25.3639 5.41014 25.7629 5.61668 26.0731 5.92729C26.3833 6.23789 26.5892 6.6372 26.6625 7.06999C26.9204 8.56478 27.0334 10.081 27 11.5975L20.4013 4.99999C20.5763 4.98999 20.75 4.98749 20.9313 4.98749V4.98624ZM7.07 26.6625C6.63727 26.5889 6.23811 26.3826 5.92773 26.0723C5.61735 25.7619 5.4111 25.3627 5.3375 24.93C5.0796 23.4352 4.96658 21.919 5 20.4025L11.5975 27C10.081 27.034 8.56472 26.921 7.07 26.6625ZM22.6075 22.6075C21.1563 24.0575 18.4488 26.0737 14.1863 26.7662L5.23375 17.8137C5.92625 13.5512 7.9425 10.8437 9.3925 9.39249C10.8425 7.94124 13.55 5.92499 17.8125 5.23249L26.7663 14.1862C26.0738 18.4487 24.0575 21.1562 22.6075 22.6075ZM20.705 11.295C20.8924 11.4825 20.9977 11.7368 20.9977 12.0019C20.9977 12.267 20.8924 12.5212 20.705 12.7087L18.9125 14.5L19.705 15.2925C19.8038 15.3839 19.8832 15.4944 19.9383 15.6172C19.9934 15.74 20.0231 15.8727 20.0257 16.0073C20.0282 16.1419 20.0036 16.2756 19.9533 16.4005C19.9029 16.5254 19.8279 16.6388 19.7326 16.7339C19.6374 16.8291 19.5239 16.904 19.399 16.9542C19.2741 17.0045 19.1404 17.029 19.0058 17.0263C18.8712 17.0236 18.7385 16.9937 18.6157 16.9385C18.493 16.8833 18.3826 16.8039 18.2913 16.705L17.5 15.9137L15.9138 17.5L16.7063 18.2925C16.8051 18.3838 16.8846 18.4942 16.9398 18.617C16.995 18.7398 17.0248 18.8724 17.0276 19.007C17.0303 19.1416 17.0057 19.2754 16.9555 19.4003C16.9053 19.5252 16.8303 19.6386 16.7352 19.7339C16.64 19.8291 16.5266 19.9042 16.4018 19.9545C16.2769 20.0049 16.1432 20.0295 16.0086 20.0269C15.874 20.0243 15.7413 19.9946 15.6185 19.9395C15.4956 19.8844 15.3852 19.805 15.2938 19.7062L14.5 18.9125L12.7075 20.705C12.6156 20.8018 12.5052 20.8791 12.3829 20.9326C12.2606 20.986 12.1288 21.0144 11.9953 21.0161C11.8619 21.0178 11.7294 20.9928 11.6058 20.9425C11.4821 20.8922 11.3698 20.8177 11.2754 20.7233C11.181 20.6289 11.1065 20.5166 11.0562 20.393C11.0059 20.2693 10.9809 20.1369 10.9826 20.0034C10.9843 19.8699 11.0127 19.7382 11.0662 19.6159C11.1196 19.4935 11.197 19.3832 11.2938 19.2912L13.0875 17.5L12.295 16.7075C12.1197 16.5176 12.0246 16.2673 12.0298 16.0089C12.035 15.7506 12.14 15.5042 12.3228 15.3216C12.5056 15.1389 12.7521 15.0341 13.0104 15.0292C13.2688 15.0242 13.5191 15.1195 13.7088 15.295L14.5013 16.0875L16.0863 14.5L15.2938 13.7075C15.1182 13.5178 15.023 13.2675 15.0279 13.0092C15.0329 12.7508 15.1377 12.5044 15.3203 12.3215C15.503 12.1387 15.7493 12.0337 16.0077 12.0285C16.2661 12.0234 16.5164 12.1184 16.7063 12.2937L17.5 13.0875L19.2925 11.295C19.48 11.108 19.734 11.0029 19.9988 11.0029C20.2635 11.0029 20.5175 11.108 20.705 11.295Z" fill="#343330"/>
</svg>
