<svg width="32" height="32" viewBox="0 0 32 32" fill="none" xmlns="http://www.w3.org/2000/svg">
<path d="M3 6C3 5.73478 3.10536 5.48043 3.29289 5.29289C3.48043 5.10536 3.73478 5 4 5H28C28.2652 5 28.5196 5.10536 28.7071 5.29289C28.8946 5.48043 29 5.73478 29 6C29 6.26522 28.8946 6.51957 28.7071 6.70711C28.5196 6.89464 28.2652 7 28 7H4C3.73478 7 3.48043 6.89464 3.29289 6.70711C3.10536 6.51957 3 6.26522 3 6ZM28 25H4C3.73478 25 3.48043 25.1054 3.29289 25.2929C3.10536 25.4804 3 25.7348 3 26C3 26.2652 3.10536 26.5196 3.29289 26.7071C3.48043 26.8946 3.73478 27 4 27H28C28.2652 27 28.5196 26.8946 28.7071 26.7071C28.8946 26.5196 29 26.2652 29 26C29 25.7348 28.8946 25.4804 28.7071 25.2929C28.5196 25.1054 28.2652 25 28 25ZM18 9C17.7348 9 17.4804 9.10536 17.2929 9.29289C17.1054 9.48043 17 9.73478 17 10V22C17 22.2652 17.1054 22.5196 17.2929 22.7071C17.4804 22.8946 17.7348 23 18 23C18.2652 23 18.5196 22.8946 18.7071 22.7071C18.8946 22.5196 19 22.2652 19 22V18.375L20.6362 16.5L24.1362 22.5C24.1971 22.6223 24.2824 22.7308 24.3869 22.8189C24.4913 22.9069 24.6127 22.9726 24.7435 23.012C24.8743 23.0513 25.0118 23.0634 25.1475 23.0475C25.2832 23.0317 25.4142 22.9882 25.5324 22.9198C25.6506 22.8513 25.7536 22.7594 25.8349 22.6496C25.9162 22.5399 25.9742 22.4146 26.0053 22.2816C26.0363 22.1485 26.0398 22.0105 26.0154 21.8761C25.9911 21.7417 25.9395 21.6137 25.8638 21.5L22.0263 14.9213L25.75 10.6587C25.8459 10.5619 25.921 10.4464 25.9707 10.3194C26.0203 10.1924 26.0435 10.0566 26.0387 9.92037C26.0339 9.78411 26.0014 9.65027 25.943 9.52706C25.8846 9.40385 25.8017 9.29388 25.6992 9.20391C25.5968 9.11394 25.477 9.04586 25.3473 9.00387C25.2176 8.96187 25.0807 8.94684 24.945 8.9597C24.8092 8.97257 24.6776 9.01305 24.5581 9.07866C24.4385 9.14428 24.3337 9.23364 24.25 9.34125L19 15.3413V10C19 9.73478 18.8946 9.48043 18.7071 9.29289C18.5196 9.10536 18.2652 9 18 9ZM11 22V20H5C4.81288 19.9999 4.62956 19.9472 4.47087 19.8481C4.31218 19.7489 4.18449 19.6072 4.10232 19.4391C4.02016 19.271 3.9868 19.0832 4.00606 18.8971C4.02532 18.711 4.09641 18.534 4.21125 18.3862L11.2113 9.38625C11.3392 9.22202 11.5153 9.10183 11.7149 9.04247C11.9145 8.9831 12.1276 8.98752 12.3245 9.05509C12.5215 9.12267 12.6924 9.25004 12.8135 9.41943C12.9346 9.58882 12.9998 9.79178 13 10V18H14C14.2652 18 14.5196 18.1054 14.7071 18.2929C14.8946 18.4804 15 18.7348 15 19C15 19.2652 14.8946 19.5196 14.7071 19.7071C14.5196 19.8946 14.2652 20 14 20H13V22C13 22.2652 12.8946 22.5196 12.7071 22.7071C12.5196 22.8946 12.2652 23 12 23C11.7348 23 11.4804 22.8946 11.2929 22.7071C11.1054 22.5196 11 22.2652 11 22ZM11 18V12.915L7.045 18H11Z" fill="#343330"/>
</svg>
