<svg width="32" height="32" viewBox="0 0 32 32" fill="none" xmlns="http://www.w3.org/2000/svg">
<path d="M26.0001 13V5C26.0001 4.73479 25.8948 4.48043 25.7072 4.2929C25.5197 4.10536 25.2653 4 25.0001 4H7.00012C6.7968 3.99953 6.59817 4.06105 6.4307 4.17635C6.26324 4.29165 6.1349 4.45526 6.0628 4.64537C5.99069 4.83547 5.97825 5.04304 6.02713 5.24039C6.076 5.43775 6.18388 5.61552 6.33637 5.75L13.3751 12H7.00012C6.7349 12 6.48055 12.1054 6.29301 12.2929C6.10548 12.4804 6.00012 12.7348 6.00012 13V21C6.00001 21.1314 6.02579 21.2615 6.07598 21.3829C6.12617 21.5042 6.19978 21.6146 6.29262 21.7075L15.2926 30.7075C15.4325 30.8475 15.6107 30.9429 15.8048 30.9815C15.9989 31.0202 16.2001 31.0004 16.3829 30.9246C16.5657 30.8489 16.722 30.7206 16.8318 30.556C16.9417 30.3914 17.0003 30.1979 17.0001 30V22H25.0001C25.2034 22.0005 25.4021 21.939 25.5695 21.8237C25.737 21.7084 25.8653 21.5447 25.9374 21.3546C26.0095 21.1645 26.022 20.957 25.9731 20.7596C25.9242 20.5623 25.8164 20.3845 25.6639 20.25L18.6251 14H25.0001C25.2653 14 25.5197 13.8946 25.7072 13.7071C25.8948 13.5196 26.0001 13.2652 26.0001 13ZM22.3751 20H16.0001C15.7349 20 15.4805 20.1054 15.293 20.2929C15.1055 20.4804 15.0001 20.7348 15.0001 21V27.5863L8.00012 20.5863V14H15.6251L22.3751 20ZM24.0001 12H16.3751L9.62512 6H24.0001V12Z" fill="#343330"/>
</svg>
