<svg width="32" height="32" viewBox="0 0 32 32" fill="none" xmlns="http://www.w3.org/2000/svg">
<path d="M28.4775 8.345C28.7379 8.05844 28.9095 7.70246 28.9715 7.32026C29.0335 6.93807 28.9832 6.54609 28.8268 6.19191C28.6703 5.83773 28.4144 5.53657 28.0901 5.325C27.7659 5.11342 27.3872 5.00052 27 5H4.99997C4.61288 5.00076 4.23433 5.11384 3.91025 5.32551C3.58616 5.53718 3.33047 5.83835 3.17418 6.19248C3.01789 6.54661 2.96772 6.93849 3.02977 7.32057C3.09181 7.70265 3.2634 8.05852 3.52372 8.345L3.53372 8.35625L12 17.3962V27C11.9999 27.362 12.098 27.7172 12.284 28.0278C12.4699 28.3383 12.7366 28.5926 13.0557 28.7635C13.3748 28.9344 13.7343 29.0155 14.0958 28.9982C14.4574 28.9808 14.8075 28.8657 15.1087 28.665L19.1087 25.9975C19.3829 25.8149 19.6078 25.5673 19.7632 25.2768C19.9187 24.9864 20 24.662 20 24.3325V17.3962L28.4662 8.35625L28.4775 8.345ZM18.2737 16.3237C18.1006 16.5066 18.0028 16.7482 18 17V24.3325L14 27V17C13.9997 16.7465 13.9032 16.5026 13.73 16.3175L4.99997 7H27L18.2737 16.3237ZM30.71 26.3C30.8976 26.4876 31.003 26.7421 31.003 27.0075C31.003 27.2729 30.8976 27.5274 30.71 27.715C30.5223 27.9026 30.2678 28.0081 30.0025 28.0081C29.7371 28.0081 29.4826 27.9026 29.295 27.715L27 25.415L24.7075 27.7087C24.5198 27.8962 24.2654 28.0015 24.0002 28.0014C23.7349 28.0012 23.4806 27.8958 23.2931 27.7081C23.1056 27.5205 23.0004 27.2661 23.0005 27.0008C23.0006 26.7356 23.1061 26.4812 23.2937 26.2938L25.5862 24L23.2937 21.7062C23.1141 21.5172 23.0154 21.2654 23.0188 21.0047C23.0221 20.7439 23.1272 20.4948 23.3116 20.3104C23.496 20.126 23.7451 20.0209 24.0059 20.0176C24.2667 20.0142 24.5184 20.1129 24.7075 20.2925L27 22.5863L29.2925 20.2938C29.4799 20.1061 29.7343 20.0006 29.9995 20.0005C30.2648 20.0004 30.5192 20.1056 30.7068 20.2931C30.8945 20.4806 31 20.7349 31.0001 21.0002C31.0002 21.2654 30.8949 21.5199 30.7075 21.7075L28.4137 24L30.71 26.3Z" fill="#343330"/>
</svg>
