<svg width="32" height="32" viewBox="0 0 32 32" fill="none" xmlns="http://www.w3.org/2000/svg">
<path d="M30 24H29V12.3337C29 12.0046 28.9188 11.6805 28.7635 11.3903C28.6083 11.1001 28.3838 10.8527 28.11 10.67L17.11 3.33625C16.7815 3.11724 16.3955 3.00037 16.0006 3.00037C15.6058 3.00037 15.2198 3.11724 14.8912 3.33625L3.89125 10.67C3.61722 10.8525 3.3925 11.0999 3.23702 11.3901C3.08154 11.6804 3.00013 12.0045 3 12.3337V24H2C1.73478 24 1.48043 24.1054 1.29289 24.2929C1.10536 24.4804 1 24.7348 1 25C1 25.2652 1.10536 25.5196 1.29289 25.7071C1.48043 25.8946 1.73478 26 2 26H30C30.2652 26 30.5196 25.8946 30.7071 25.7071C30.8946 25.5196 31 25.2652 31 25C31 24.7348 30.8946 24.4804 30.7071 24.2929C30.5196 24.1054 30.2652 24 30 24ZM5 12.3337L16 5L27 12.3325V24H24V17C24 16.7348 23.8946 16.4804 23.7071 16.2929C23.5196 16.1054 23.2652 16 23 16H9C8.73478 16 8.48043 16.1054 8.29289 16.2929C8.10536 16.4804 8 16.7348 8 17V24H5V12.3337ZM22 18V20H17V18H22ZM15 20H10V18H15V20ZM10 22H15V24H10V22ZM17 22H22V24H17V22Z" fill="#343330"/>
</svg>
