<svg width="32" height="32" viewBox="0 0 32 32" fill="none" xmlns="http://www.w3.org/2000/svg">
<path d="M25.8825 9.08374C24.5862 7.78456 23.0456 6.75483 21.3495 6.05393C19.6534 5.35303 17.8352 4.99484 16 4.99999H15.95C8.25875 5.02624 2 11.375 2 19.1412V22C2 22.5304 2.21071 23.0391 2.58579 23.4142C2.96086 23.7893 3.46957 24 4 24H28C28.5304 24 29.0391 23.7893 29.4142 23.4142C29.7893 23.0391 30 22.5304 30 22V19C30.0051 17.1567 29.6438 15.3308 28.9369 13.6285C28.23 11.9261 27.1918 10.3812 25.8825 9.08374ZM28 22H14.9637L21.8088 12.5875C21.9649 12.373 22.0294 12.1053 21.9882 11.8432C21.9469 11.5811 21.8032 11.3461 21.5888 11.19C21.3743 11.0338 21.1065 10.9693 20.8444 11.0106C20.5824 11.0518 20.3474 11.1955 20.1912 11.41L12.49 22H4V19.1412C4 18.7562 4.01875 18.3762 4.05375 18H7C7.26522 18 7.51957 17.8946 7.70711 17.7071C7.89464 17.5196 8 17.2652 8 17C8 16.7348 7.89464 16.4804 7.70711 16.2929C7.51957 16.1054 7.26522 16 7 16H4.40875C5.69875 11.1425 9.90875 7.46999 15 7.04249V9.99999C15 10.2652 15.1054 10.5196 15.2929 10.7071C15.4804 10.8946 15.7348 11 16 11C16.2652 11 16.5196 10.8946 16.7071 10.7071C16.8946 10.5196 17 10.2652 17 9.99999V7.04124C19.4808 7.25002 21.8356 8.22412 23.7389 9.82894C25.6422 11.4338 27.0001 13.5901 27.625 16H25C24.7348 16 24.4804 16.1054 24.2929 16.2929C24.1054 16.4804 24 16.7348 24 17C24 17.2652 24.1054 17.5196 24.2929 17.7071C24.4804 17.8946 24.7348 18 25 18H27.9587C27.985 18.3312 28 18.6637 28 19V22Z" fill="#343330"/>
</svg>
