<svg width="32" height="32" viewBox="0 0 32 32" fill="none" xmlns="http://www.w3.org/2000/svg">
<path d="M26.9999 4H20.9999C20.7347 4 20.4804 4.10536 20.2928 4.29289C20.1053 4.48043 19.9999 4.73478 19.9999 5C19.9999 5.26522 20.1053 5.51957 20.2928 5.70711C20.4804 5.89464 20.7347 6 20.9999 6H24.5862L20.9999 9.58625L18.7074 7.29375C18.6146 7.20084 18.5044 7.12712 18.3831 7.07681C18.2618 7.02649 18.1317 7.00057 18.0004 7.00051C17.869 7.00045 17.739 7.02626 17.6176 7.07647C17.4963 7.12668 17.386 7.2003 17.2931 7.29313C17.2002 7.38595 17.1264 7.49617 17.0761 7.61749C17.0258 7.73881 16.9999 7.86885 16.9998 8.00018C16.9998 8.13152 17.0256 8.26158 17.0758 8.38294C17.126 8.50431 17.1996 8.61459 17.2924 8.7075L19.5862 11L17.6162 12.97C15.8198 11.5365 13.5427 10.8452 11.2525 11.0381C8.9624 11.231 6.83302 12.2934 5.30169 14.0072C3.77037 15.721 2.95334 17.956 3.01838 20.2534C3.08342 22.5507 4.0256 24.7359 5.65143 26.3603C7.27726 27.9847 9.46334 28.925 11.7607 28.988C14.0581 29.051 16.2925 28.232 18.0049 26.6992C19.7173 25.1663 20.7778 23.036 20.9687 20.7457C21.1596 18.4554 20.4663 16.1789 19.0312 14.3837L20.9999 12.4163L23.2924 14.7087C23.4799 14.8964 23.7343 15.0019 23.9995 15.002C24.2647 15.0021 24.5192 14.8969 24.7068 14.7094C24.8945 14.5219 24.9999 14.2676 25.0001 14.0023C25.0002 13.7371 24.8949 13.4826 24.7074 13.295L22.4137 11L25.9999 7.415V11C25.9999 11.2652 26.1053 11.5196 26.2928 11.7071C26.4804 11.8946 26.7347 12 26.9999 12C27.2652 12 27.5195 11.8946 27.707 11.7071C27.8946 11.5196 27.9999 11.2652 27.9999 11V5C27.9999 4.73478 27.8946 4.48043 27.707 4.29289C27.5195 4.10536 27.2652 4 26.9999 4ZM16.9499 24.9538C15.805 26.0988 14.2984 26.8116 12.6869 26.9705C11.0754 27.1294 9.45864 26.7247 8.11206 25.8253C6.76547 24.9259 5.77235 23.5875 5.30189 22.038C4.83142 20.4885 4.91271 18.8239 5.5319 17.3276C6.1511 15.8313 7.2699 14.596 8.6977 13.8321C10.1255 13.0682 11.774 12.8229 13.3624 13.1381C14.9507 13.4533 16.3807 14.3094 17.4086 15.5606C18.4366 16.8118 18.999 18.3807 18.9999 20C19 21.8576 18.2627 23.6394 16.9499 24.9538Z" fill="#343330"/>
</svg>
