<svg width="32" height="32" viewBox="0 0 32 32" fill="none" xmlns="http://www.w3.org/2000/svg">
<path d="M26 12C26 10.0648 25.4385 8.17123 24.3835 6.54887C23.3286 4.92651 21.8257 3.64509 20.0569 2.86001C18.2881 2.07494 16.3295 1.81994 14.4187 2.12594C12.5079 2.43195 10.7269 3.28581 9.29175 4.58397C7.8566 5.88213 6.82894 7.56882 6.33341 9.43948C5.83788 11.3101 5.89576 13.2844 6.50005 15.1228C7.10434 16.9612 8.22906 18.5848 9.73781 19.7966C11.2466 21.0084 13.0745 21.7565 15 21.95V25H11C10.7348 25 10.4804 25.1054 10.2929 25.2929C10.1054 25.4804 10 25.7348 10 26C10 26.2652 10.1054 26.5196 10.2929 26.7071C10.4804 26.8946 10.7348 27 11 27H15V30C15 30.2652 15.1054 30.5196 15.2929 30.7071C15.4804 30.8946 15.7348 31 16 31C16.2652 31 16.5196 30.8946 16.7071 30.7071C16.8946 30.5196 17 30.2652 17 30V27H21C21.2652 27 21.5196 26.8946 21.7071 26.7071C21.8946 26.5196 22 26.2652 22 26C22 25.7348 21.8946 25.4804 21.7071 25.2929C21.5196 25.1054 21.2652 25 21 25H17V21.95C19.4654 21.6991 21.7503 20.543 23.4127 18.7051C25.0751 16.8672 25.997 14.4782 26 12ZM8 12C8 10.4178 8.46919 8.87103 9.34824 7.55544C10.2273 6.23985 11.4767 5.21447 12.9385 4.60897C14.4003 4.00347 16.0089 3.84504 17.5607 4.15372C19.1126 4.4624 20.538 5.22433 21.6569 6.34315C22.7757 7.46197 23.5376 8.88743 23.8463 10.4393C24.155 11.9911 23.9965 13.5997 23.391 15.0615C22.7855 16.5233 21.7602 17.7727 20.4446 18.6518C19.129 19.5308 17.5823 20 16 20C13.879 19.9977 11.8455 19.1541 10.3457 17.6543C8.84592 16.1545 8.00232 14.121 8 12Z" fill="#343330"/>
</svg>
