<svg width="32" height="32" viewBox="0 0 32 32" fill="none" xmlns="http://www.w3.org/2000/svg">
<path d="M26 13C26 11.0648 25.4385 9.17123 24.3835 7.54887C23.3286 5.92651 21.8257 4.64509 20.0569 3.86001C18.2881 3.07494 16.3295 2.81994 14.4187 3.12594C12.5079 3.43195 10.7269 4.28581 9.29175 5.58397C7.8566 6.88213 6.82894 8.56882 6.33341 10.4395C5.83788 12.3101 5.89576 14.2844 6.50005 16.1228C7.10434 17.9612 8.22906 19.5848 9.73781 20.7966C11.2466 22.0084 13.0745 22.7565 15 22.95V29C15 29.2652 15.1054 29.5196 15.2929 29.7071C15.4804 29.8946 15.7348 30 16 30C16.2652 30 16.5196 29.8946 16.7071 29.7071C16.8946 29.5196 17 29.2652 17 29V22.95C19.4654 22.6991 21.7503 21.543 23.4127 19.7051C25.0751 17.8672 25.997 15.4782 26 13ZM16 21C14.4177 21 12.871 20.5308 11.5554 19.6518C10.2398 18.7727 9.21447 17.5233 8.60896 16.0615C8.00346 14.5997 7.84504 12.9911 8.15372 11.4393C8.4624 9.88743 9.22433 8.46197 10.3431 7.34315C11.462 6.22433 12.8874 5.4624 14.4393 5.15372C15.9911 4.84504 17.5997 5.00347 19.0615 5.60897C20.5233 6.21447 21.7727 7.23985 22.6518 8.55544C23.5308 9.87103 24 11.4178 24 13C23.9977 15.121 23.1541 17.1545 21.6543 18.6543C20.1545 20.1541 18.121 20.9977 16 21Z" fill="#343330"/>
</svg>
