<svg width="32" height="32" viewBox="0 0 32 32" fill="none" xmlns="http://www.w3.org/2000/svg">
<path d="M26.0001 3H21.0001C20.7348 3 20.4805 3.10536 20.293 3.29289C20.1054 3.48043 20.0001 3.73478 20.0001 4C20.0001 4.26522 20.1054 4.51957 20.293 4.70711C20.4805 4.89464 20.7348 5 21.0001 5H23.5863L20.4426 8.14375C19.5195 7.28349 18.406 6.65378 17.193 6.30605C15.9801 5.95833 14.7021 5.90245 13.4634 6.14298C12.2247 6.38352 11.0605 6.91364 10.0659 7.69005C9.07121 8.46646 8.27431 9.46714 7.74027 10.6104C7.20622 11.7536 6.95016 13.0069 6.99302 14.268C7.03587 15.5291 7.37642 16.7621 7.98685 17.8665C8.59728 18.9708 9.46027 19.9151 10.5053 20.6222C11.5504 21.3293 12.7479 21.7791 14.0001 21.935V24H11.0001C10.7348 24 10.4805 24.1054 10.293 24.2929C10.1054 24.4804 10.0001 24.7348 10.0001 25C10.0001 25.2652 10.1054 25.5196 10.293 25.7071C10.4805 25.8946 10.7348 26 11.0001 26H14.0001V29C14.0001 29.2652 14.1054 29.5196 14.293 29.7071C14.4805 29.8946 14.7348 30 15.0001 30C15.2653 30 15.5196 29.8946 15.7072 29.7071C15.8947 29.5196 16.0001 29.2652 16.0001 29V26H19.0001C19.2653 26 19.5196 25.8946 19.7072 25.7071C19.8947 25.5196 20.0001 25.2652 20.0001 25C20.0001 24.7348 19.8947 24.4804 19.7072 24.2929C19.5196 24.1054 19.2653 24 19.0001 24H16.0001V21.935C17.3405 21.7676 18.6165 21.263 19.709 20.4685C20.8015 19.674 21.6747 18.6155 22.247 17.3919C22.8194 16.1684 23.0722 14.8196 22.9817 13.4718C22.8913 12.1241 22.4607 10.8212 21.7301 9.685L25.0001 6.41375V9C25.0001 9.26522 25.1054 9.51957 25.293 9.70711C25.4805 9.89464 25.7348 10 26.0001 10C26.2653 10 26.5196 9.89464 26.7072 9.70711C26.8947 9.51957 27.0001 9.26522 27.0001 9V4C27.0001 3.73478 26.8947 3.48043 26.7072 3.29289C26.5196 3.10536 26.2653 3 26.0001 3ZM15.0001 20C13.8134 20 12.6533 19.6481 11.6666 18.9888C10.6799 18.3295 9.91091 17.3925 9.45678 16.2961C9.00266 15.1997 8.88384 13.9933 9.11535 12.8295C9.34686 11.6656 9.9183 10.5965 10.7574 9.75736C11.5965 8.91824 12.6656 8.3468 13.8295 8.11529C14.9934 7.88378 16.1998 8.0026 17.2962 8.45672C18.3925 8.91085 19.3296 9.67988 19.9889 10.6666C20.6482 11.6533 21.0001 12.8133 21.0001 14C20.9984 15.5908 20.3657 17.116 19.2409 18.2408C18.116 19.3657 16.5909 19.9983 15.0001 20Z" fill="#343330"/>
</svg>
