<svg width="32" height="32" viewBox="0 0 32 32" fill="none" xmlns="http://www.w3.org/2000/svg">
<path d="M17 12.0575V7.76625L20.485 9.8575C20.5976 9.92513 20.7224 9.96992 20.8524 9.98931C20.9823 10.0087 21.1147 10.0023 21.2422 9.97051C21.3696 9.9387 21.4896 9.88211 21.5952 9.80395C21.7007 9.7258 21.7899 9.62761 21.8575 9.515C21.9251 9.40239 21.9699 9.27757 21.9893 9.14765C22.0087 9.01773 22.0023 8.88527 21.9705 8.75782C21.9387 8.63037 21.8821 8.51043 21.804 8.40486C21.7258 8.29928 21.6276 8.21013 21.515 8.1425L17.9438 6L21.515 3.8575C21.6276 3.78987 21.7258 3.70072 21.804 3.59515C21.8821 3.48957 21.9387 3.36963 21.9705 3.24219C22.0023 3.11474 22.0087 2.98227 21.9893 2.85235C21.9699 2.72244 21.9251 2.59761 21.8575 2.485C21.7899 2.37239 21.7007 2.27421 21.5952 2.19605C21.4896 2.1179 21.3696 2.0613 21.2422 2.0295C21.1147 1.99769 20.9823 1.9913 20.8524 2.01069C20.7224 2.03008 20.5976 2.07487 20.485 2.1425L16 4.83375L11.515 2.1425C11.2876 2.00592 11.0152 1.96527 10.7578 2.0295C10.5004 2.09373 10.2791 2.25758 10.1425 2.485C10.0059 2.71242 9.96528 2.98479 10.0295 3.24219C10.0937 3.49958 10.2576 3.72092 10.485 3.8575L14.0563 6L10.485 8.1425C10.2576 8.27909 10.0937 8.50042 10.0295 8.75782C9.96528 9.01521 10.0059 9.28758 10.1425 9.515C10.2791 9.74242 10.5004 9.90627 10.7578 9.97051C11.0152 10.0347 11.2876 9.99409 11.515 9.8575L15 7.76625V12.0575C12.714 12.3131 10.6126 13.4343 9.12742 15.1908C7.64222 16.9473 6.88596 19.2059 7.01395 21.5026C7.14194 23.7992 8.14447 25.9598 9.81564 27.5404C11.4868 29.121 13.6998 30.0018 16 30.0018C18.3003 30.0018 20.5132 29.121 22.1844 27.5404C23.8556 25.9598 24.8581 23.7992 24.9861 21.5026C25.1141 19.2059 24.3578 16.9473 22.8726 15.1908C21.3874 13.4343 19.286 12.3131 17 12.0575ZM16 28C14.6155 28 13.2622 27.5895 12.111 26.8203C10.9599 26.0511 10.0627 24.9579 9.53285 23.6788C9.00304 22.3997 8.86442 20.9922 9.13451 19.6344C9.40461 18.2765 10.0713 17.0292 11.0503 16.0503C12.0292 15.0713 13.2765 14.4046 14.6344 14.1345C15.9922 13.8644 17.3997 14.003 18.6788 14.5328C19.9579 15.0627 21.0511 15.9599 21.8203 17.111C22.5895 18.2622 23 19.6155 23 21C22.998 22.8559 22.2599 24.6352 20.9476 25.9476C19.6352 27.2599 17.8559 27.998 16 28Z" fill="#343330"/>
</svg>
