<svg width="32" height="32" viewBox="0 0 32 32" fill="none" xmlns="http://www.w3.org/2000/svg">
<path d="M29 8C28.9996 7.25195 28.7895 6.519 28.3935 5.88438C27.9974 5.24976 27.4314 4.73891 26.7596 4.40984C26.0878 4.08077 25.3372 3.94667 24.5931 4.02277C23.8489 4.09887 23.141 4.38212 22.5497 4.84036C21.9585 5.29859 21.5075 5.91344 21.2482 6.61508C20.9888 7.31673 20.9314 8.07704 21.0824 8.80968C21.2334 9.54233 21.5869 10.2179 22.1026 10.7598C22.6184 11.3016 23.2757 11.688 24 11.875V14C24 14.2652 23.8947 14.5196 23.7071 14.7071C23.5196 14.8946 23.2652 15 23 15H12C11.6593 14.9999 11.321 15.0582 11 15.1725V11.875C11.9427 11.6316 12.7642 11.0528 13.3106 10.247C13.857 9.44121 14.0908 8.46381 13.9681 7.498C13.8455 6.53219 13.3747 5.64427 12.6442 5.00068C11.9137 4.35709 10.9736 4.00202 10 4.00202C9.02644 4.00202 8.08628 4.35709 7.35578 5.00068C6.62527 5.64427 6.15457 6.53219 6.03189 7.498C5.90922 8.46381 6.143 9.44121 6.68941 10.247C7.23582 11.0528 8.05735 11.6316 9.00001 11.875V20.125C8.05735 20.3684 7.23582 20.9472 6.68941 21.753C6.143 22.5588 5.90922 23.5362 6.03189 24.502C6.15457 25.4678 6.62527 26.3557 7.35578 26.9993C8.08628 27.6429 9.02644 27.998 10 27.998C10.9736 27.998 11.9137 27.6429 12.6442 26.9993C13.3747 26.3557 13.8455 25.4678 13.9681 24.502C14.0908 23.5362 13.857 22.5588 13.3106 21.753C12.7642 20.9472 11.9427 20.3684 11 20.125V18C11 17.7348 11.1054 17.4804 11.2929 17.2929C11.4804 17.1054 11.7348 17 12 17H23C23.7957 17 24.5587 16.6839 25.1213 16.1213C25.6839 15.5587 26 14.7956 26 14V11.875C26.8583 11.6521 27.6185 11.1507 28.1613 10.4495C28.7042 9.74828 28.9992 8.8868 29 8ZM8.00001 8C8.00001 7.60444 8.11731 7.21776 8.33707 6.88886C8.55683 6.55996 8.86919 6.30362 9.23464 6.15224C9.6001 6.00086 10.0022 5.96126 10.3902 6.03843C10.7782 6.1156 11.1345 6.30608 11.4142 6.58579C11.6939 6.86549 11.8844 7.22186 11.9616 7.60982C12.0388 7.99778 11.9991 8.39991 11.8478 8.76537C11.6964 9.13082 11.44 9.44318 11.1111 9.66294C10.7823 9.8827 10.3956 10 10 10C9.46958 10 8.96087 9.78929 8.5858 9.41421C8.21072 9.03914 8.00001 8.53043 8.00001 8ZM12 24C12 24.3956 11.8827 24.7822 11.6629 25.1111C11.4432 25.44 11.1308 25.6964 10.7654 25.8478C10.3999 25.9991 9.99779 26.0387 9.60983 25.9616C9.22187 25.8844 8.8655 25.6939 8.5858 25.4142C8.30609 25.1345 8.11561 24.7781 8.03844 24.3902C7.96127 24.0022 8.00087 23.6001 8.15225 23.2346C8.30363 22.8692 8.55997 22.5568 8.88887 22.3371C9.21777 22.1173 9.60445 22 10 22C10.5304 22 11.0391 22.2107 11.4142 22.5858C11.7893 22.9609 12 23.4696 12 24ZM25 10C24.6044 10 24.2178 9.8827 23.8889 9.66294C23.56 9.44318 23.3036 9.13082 23.1523 8.76537C23.0009 8.39991 22.9613 7.99778 23.0384 7.60982C23.1156 7.22186 23.3061 6.86549 23.5858 6.58579C23.8655 6.30608 24.2219 6.1156 24.6098 6.03843C24.9978 5.96126 25.3999 6.00086 25.7654 6.15224C26.1308 6.30362 26.4432 6.55996 26.6629 6.88886C26.8827 7.21776 27 7.60444 27 8C27 8.53043 26.7893 9.03914 26.4142 9.41421C26.0392 9.78929 25.5304 10 25 10Z" fill="#343330"/>
</svg>
