<svg width="32" height="32" viewBox="0 0 32 32" fill="none" xmlns="http://www.w3.org/2000/svg">
<path d="M31 15H22.9275C22.686 13.335 21.8529 11.8127 20.5807 10.7117C19.3085 9.61079 17.6824 9.00485 16 9.00485C14.3176 9.00485 12.6915 9.61079 11.4193 10.7117C10.1471 11.8127 9.31401 13.335 9.0725 15H1C0.734784 15 0.48043 15.1053 0.292893 15.2929C0.105357 15.4804 0 15.7348 0 16C0 16.2652 0.105357 16.5196 0.292893 16.7071C0.48043 16.8946 0.734784 17 1 17H9.0725C9.31401 18.665 10.1471 20.1873 11.4193 21.2882C12.6915 22.3892 14.3176 22.9951 16 22.9951C17.6824 22.9951 19.3085 22.3892 20.5807 21.2882C21.8529 20.1873 22.686 18.665 22.9275 17H31C31.2652 17 31.5196 16.8946 31.7071 16.7071C31.8946 16.5196 32 16.2652 32 16C32 15.7348 31.8946 15.4804 31.7071 15.2929C31.5196 15.1053 31.2652 15 31 15ZM16 21C15.0111 21 14.0444 20.7067 13.2221 20.1573C12.3999 19.6079 11.759 18.827 11.3806 17.9134C11.0022 16.9998 10.9031 15.9944 11.0961 15.0245C11.289 14.0546 11.7652 13.1637 12.4645 12.4645C13.1637 11.7652 14.0546 11.289 15.0245 11.0961C15.9945 10.9031 16.9998 11.0022 17.9134 11.3806C18.827 11.759 19.6079 12.3999 20.1573 13.2221C20.7068 14.0444 21 15.0111 21 16C21 17.3261 20.4732 18.5978 19.5355 19.5355C18.5979 20.4732 17.3261 21 16 21Z" fill="#343330"/>
</svg>
