<svg width="32" height="32" viewBox="0 0 32 32" fill="none" xmlns="http://www.w3.org/2000/svg">
<path d="M14 19C13.7348 19 13.4804 19.1054 13.2929 19.2929C13.1054 19.4804 13 19.7348 13 20V23.5862L8.29251 18.875C8.10594 18.6882 8.00079 18.4352 8.00001 18.1712V11.875C8.94267 11.6316 9.7642 11.0528 10.3106 10.247C10.857 9.44121 11.0908 8.46381 10.9681 7.498C10.8455 6.53218 10.3747 5.64426 9.64424 5.00068C8.91374 4.35709 7.97358 4.00201 7.00001 4.00201C6.02644 4.00201 5.08628 4.35709 4.35578 5.00068C3.62527 5.64426 3.15457 6.53218 3.03189 7.498C2.90922 8.46381 3.143 9.44121 3.68941 10.247C4.23582 11.0528 5.05735 11.6316 6.00001 11.875V18.1725C5.99801 18.567 6.07433 18.9579 6.22452 19.3227C6.37472 19.6875 6.59582 20.0188 6.87501 20.2975L11.5863 25H8.00001C7.73479 25 7.48044 25.1054 7.2929 25.2929C7.10537 25.4804 7.00001 25.7348 7.00001 26C7.00001 26.2652 7.10537 26.5196 7.2929 26.7071C7.48044 26.8946 7.73479 27 8.00001 27H14C14.2652 27 14.5196 26.8946 14.7071 26.7071C14.8947 26.5196 15 26.2652 15 26V20C15 19.7348 14.8947 19.4804 14.7071 19.2929C14.5196 19.1054 14.2652 19 14 19ZM5.00001 8C5.00001 7.60443 5.11731 7.21776 5.33707 6.88886C5.55683 6.55996 5.86919 6.30361 6.23464 6.15224C6.60009 6.00086 7.00223 5.96126 7.39019 6.03843C7.77815 6.1156 8.13452 6.30608 8.41422 6.58578C8.69393 6.86549 8.88441 7.22185 8.96158 7.60982C9.03875 7.99778 8.99914 8.39991 8.84777 8.76536C8.69639 9.13082 8.44005 9.44317 8.11115 9.66294C7.78225 9.8827 7.39557 10 7.00001 10C6.46958 10 5.96087 9.78928 5.5858 9.41421C5.21072 9.03914 5.00001 8.53043 5.00001 8ZM26 20.125V13.8287C26.002 13.4343 25.9257 13.0433 25.7755 12.6785C25.6253 12.3138 25.4042 11.9824 25.125 11.7037L20.4138 7H24C24.2652 7 24.5196 6.89464 24.7071 6.7071C24.8947 6.51957 25 6.26521 25 6C25 5.73478 24.8947 5.48043 24.7071 5.29289C24.5196 5.10535 24.2652 5 24 5H18C17.7348 5 17.4804 5.10535 17.2929 5.29289C17.1054 5.48043 17 5.73478 17 6V12C17 12.2652 17.1054 12.5196 17.2929 12.7071C17.4804 12.8946 17.7348 13 18 13C18.2652 13 18.5196 12.8946 18.7071 12.7071C18.8947 12.5196 19 12.2652 19 12V8.41375L23.7075 13.125C23.8003 13.2179 23.874 13.3283 23.9241 13.4496C23.9743 13.571 24.0001 13.7011 24 13.8325V20.125C23.0574 20.3684 22.2358 20.9472 21.6894 21.753C21.143 22.5588 20.9092 23.5362 21.0319 24.502C21.1546 25.4678 21.6253 26.3557 22.3558 26.9993C23.0863 27.6429 24.0264 27.998 25 27.998C25.9736 27.998 26.9137 27.6429 27.6442 26.9993C28.3747 26.3557 28.8455 25.4678 28.9681 24.502C29.0908 23.5362 28.857 22.5588 28.3106 21.753C27.7642 20.9472 26.9427 20.3684 26 20.125ZM25 26C24.6044 26 24.2178 25.8827 23.8889 25.6629C23.56 25.4432 23.3036 25.1308 23.1523 24.7654C23.0009 24.3999 22.9613 23.9978 23.0384 23.6098C23.1156 23.2219 23.3061 22.8655 23.5858 22.5858C23.8655 22.3061 24.2219 22.1156 24.6098 22.0384C24.9978 21.9613 25.3999 22.0009 25.7654 22.1522C26.1308 22.3036 26.4432 22.56 26.6629 22.8889C26.8827 23.2178 27 23.6044 27 24C27 24.5304 26.7893 25.0391 26.4142 25.4142C26.0392 25.7893 25.5304 26 25 26Z" fill="#343330"/>
</svg>
