<svg width="32" height="32" viewBox="0 0 32 32" fill="none" xmlns="http://www.w3.org/2000/svg">
<path d="M28.7687 14.6375L26.2812 5.125C26.2021 4.81606 26.026 4.54059 25.7789 4.33899C25.5318 4.13738 25.2266 4.02023 24.908 4.00472C24.5895 3.9892 24.2743 4.07613 24.0088 4.25277C23.7432 4.42941 23.5413 4.68646 23.4325 4.98625L21.2225 11H10.7775L8.56746 4.98375C8.45842 4.68401 8.25622 4.42708 7.99051 4.25064C7.72479 4.07419 7.40954 3.98752 7.09097 4.00331C6.7724 4.01911 6.46727 4.13655 6.22031 4.33841C5.97336 4.54027 5.79757 4.81594 5.71871 5.125L3.23121 14.6375C2.86382 16.0374 2.93002 17.5159 3.42106 18.8774C3.91209 20.2389 4.80483 21.4193 5.98121 22.2625L15.14 28.7325C15.3912 28.9099 15.6912 29.0051 15.9987 29.0051C16.3063 29.0051 16.6062 28.9099 16.8575 28.7325L26.0162 22.2625C27.193 21.4197 28.0863 20.2394 28.5778 18.8779C29.0693 17.5164 29.1358 16.0377 28.7687 14.6375ZM24.8637 20.625L16 26.8863L7.13621 20.625C6.29211 20.0181 5.65201 19.1693 5.30049 18.1909C4.94898 17.2124 4.90259 16.1504 5.16746 15.145L7.24996 7.1875L9.14121 12.345C9.21183 12.5371 9.33972 12.703 9.5076 12.8201C9.67548 12.9372 9.87526 13 10.08 13H21.92C22.1247 13 22.3244 12.9372 22.4923 12.8201C22.6602 12.703 22.7881 12.5371 22.8587 12.345L24.75 7.1875L26.8287 15.1438C27.0942 16.1489 27.0486 17.211 26.6977 18.1896C26.3469 19.1683 25.7074 20.0175 24.8637 20.625Z" fill="#343330"/>
</svg>
