<svg width="32" height="32" viewBox="0 0 32 32" fill="none" xmlns="http://www.w3.org/2000/svg">
<path d="M26 14C25.136 14.0015 24.2957 14.2823 23.6044 14.8004C22.913 15.3185 22.4077 16.0462 22.1637 16.875L16.8875 16.125C16.6469 16.091 16.427 15.9706 16.2687 15.7863L11.8037 10.5688C12.6391 10.1454 13.2995 9.44226 13.6697 8.58198C14.0399 7.72171 14.0965 6.7588 13.8296 5.86108C13.5627 4.96335 12.9893 4.18773 12.2093 3.66937C11.4293 3.15102 10.4921 2.9228 9.5611 3.0245C8.63008 3.12619 7.76427 3.55134 7.11454 4.22587C6.46482 4.90039 6.07237 5.78151 6.0056 6.71568C5.93884 7.64985 6.20198 8.57783 6.74917 9.3379C7.29636 10.098 8.09291 10.6419 9 10.875V21.125C8.05734 21.3684 7.23581 21.9472 6.68939 22.753C6.14298 23.5588 5.9092 24.5362 6.03188 25.502C6.15455 26.4678 6.62526 27.3557 7.35576 27.9993C8.08627 28.6429 9.02642 28.998 10 28.998C10.9736 28.998 11.9137 28.6429 12.6442 27.9993C13.3747 27.3557 13.8454 26.4678 13.9681 25.502C14.0908 24.5362 13.857 23.5588 13.3106 22.753C12.7642 21.9472 11.9427 21.3684 11 21.125V12.7038L14.75 17.0788C15.2239 17.6317 15.8828 17.9933 16.6037 18.0963L22.1037 18.8813C22.2698 19.6163 22.64 20.2895 23.1719 20.8233C23.7038 21.3571 24.3757 21.7298 25.1101 21.8985C25.8445 22.0672 26.6117 22.025 27.3232 21.7767C28.0347 21.5285 28.6616 21.0843 29.1317 20.4954C29.6018 19.9064 29.8959 19.1967 29.9803 18.4478C30.0647 17.699 29.9358 16.9416 29.6085 16.2628C29.2813 15.584 28.7689 15.0115 28.1305 14.6112C27.4921 14.2108 26.7536 13.999 26 14ZM8 7.00001C8 6.60444 8.11729 6.21776 8.33706 5.88887C8.55682 5.55997 8.86918 5.30362 9.23463 5.15225C9.60008 5.00087 10.0022 4.96127 10.3902 5.03844C10.7781 5.11561 11.1345 5.30609 11.4142 5.58579C11.6939 5.8655 11.8844 6.22186 11.9616 6.60983C12.0387 6.99779 11.9991 7.39992 11.8478 7.76537C11.6964 8.13083 11.44 8.44318 11.1111 8.66295C10.7822 8.88271 10.3956 9.00001 10 9.00001C9.46956 9.00001 8.96086 8.78929 8.58578 8.41422C8.21071 8.03915 8 7.53044 8 7.00001ZM12 25C12 25.3956 11.8827 25.7822 11.6629 26.1111C11.4432 26.44 11.1308 26.6964 10.7654 26.8478C10.3999 26.9991 9.99778 27.0387 9.60982 26.9616C9.22185 26.8844 8.86549 26.6939 8.58578 26.4142C8.30608 26.1345 8.1156 25.7781 8.03843 25.3902C7.96125 25.0022 8.00086 24.6001 8.15224 24.2346C8.30361 23.8692 8.55996 23.5568 8.88886 23.3371C9.21775 23.1173 9.60443 23 10 23C10.5304 23 11.0391 23.2107 11.4142 23.5858C11.7893 23.9609 12 24.4696 12 25ZM26 20C25.6044 20 25.2178 19.8827 24.8889 19.6629C24.56 19.4432 24.3036 19.1308 24.1522 18.7654C24.0009 18.3999 23.9613 17.9978 24.0384 17.6098C24.1156 17.2219 24.3061 16.8655 24.5858 16.5858C24.8655 16.3061 25.2219 16.1156 25.6098 16.0384C25.9978 15.9613 26.3999 16.0009 26.7654 16.1522C27.1308 16.3036 27.4432 16.56 27.6629 16.8889C27.8827 17.2178 28 17.6044 28 18C28 18.5304 27.7893 19.0391 27.4142 19.4142C27.0391 19.7893 26.5304 20 26 20Z" fill="#343330"/>
</svg>
