<svg width="32" height="32" viewBox="0 0 32 32" fill="none" xmlns="http://www.w3.org/2000/svg">
<path d="M13 8C12.9996 7.25195 12.7895 6.519 12.3935 5.88438C11.9974 5.24976 11.4314 4.73891 10.7596 4.40984C10.0878 4.08077 9.33725 3.94667 8.59308 4.02277C7.84891 4.09887 7.14099 4.38212 6.54972 4.84036C5.95845 5.29859 5.50753 5.91344 5.24815 6.61508C4.98878 7.31673 4.93136 8.07704 5.0824 8.80968C5.23344 9.54233 5.5869 10.2179 6.10264 10.7598C6.61837 11.3016 7.27571 11.688 8.00001 11.875V20.125C7.05735 20.3684 6.23582 20.9472 5.68941 21.753C5.143 22.5588 4.90922 23.5362 5.03189 24.502C5.15457 25.4678 5.62527 26.3557 6.35578 26.9993C7.08628 27.6429 8.02644 27.998 9.00001 27.998C9.97358 27.998 10.9137 27.6429 11.6442 26.9993C12.3747 26.3557 12.8455 25.4678 12.9681 24.502C13.0908 23.5362 12.857 22.5588 12.3106 21.753C11.7642 20.9472 10.9427 20.3684 10 20.125V11.875C10.8583 11.6521 11.6185 11.1507 12.1613 10.4495C12.7042 9.74828 12.9992 8.8868 13 8ZM7.00001 8C7.00001 7.60444 7.11731 7.21776 7.33707 6.88886C7.55683 6.55996 7.86919 6.30362 8.23464 6.15224C8.6001 6.00086 9.00223 5.96126 9.39019 6.03843C9.77815 6.1156 10.1345 6.30608 10.4142 6.58579C10.6939 6.86549 10.8844 7.22186 10.9616 7.60982C11.0388 7.99778 10.9991 8.39991 10.8478 8.76537C10.6964 9.13082 10.44 9.44318 10.1111 9.66294C9.78225 9.8827 9.39557 10 9.00001 10C8.46958 10 7.96087 9.78929 7.5858 9.41421C7.21072 9.03914 7.00001 8.53043 7.00001 8ZM11 24C11 24.3956 10.8827 24.7822 10.6629 25.1111C10.4432 25.44 10.1308 25.6964 9.76538 25.8478C9.39992 25.9991 8.99779 26.0387 8.60983 25.9616C8.22187 25.8844 7.8655 25.6939 7.5858 25.4142C7.30609 25.1345 7.11561 24.7781 7.03844 24.3902C6.96127 24.0022 7.00087 23.6001 7.15225 23.2346C7.30363 22.8692 7.55997 22.5568 7.88887 22.3371C8.21777 22.1173 8.60445 22 9.00001 22C9.53044 22 10.0391 22.2107 10.4142 22.5858C10.7893 22.9609 11 23.4696 11 24ZM26 20.125V13.8287C26.002 13.4343 25.9257 13.0433 25.7755 12.6785C25.6253 12.3138 25.4042 11.9824 25.125 11.7037L20.4138 7H24C24.2652 7 24.5196 6.89464 24.7071 6.70711C24.8947 6.51957 25 6.26522 25 6C25 5.73478 24.8947 5.48043 24.7071 5.29289C24.5196 5.10536 24.2652 5 24 5H18C17.7348 5 17.4804 5.10536 17.2929 5.29289C17.1054 5.48043 17 5.73478 17 6V12C17 12.2652 17.1054 12.5196 17.2929 12.7071C17.4804 12.8946 17.7348 13 18 13C18.2652 13 18.5196 12.8946 18.7071 12.7071C18.8947 12.5196 19 12.2652 19 12V8.41375L23.7075 13.125C23.8003 13.2179 23.874 13.3283 23.9241 13.4496C23.9743 13.571 24.0001 13.7011 24 13.8325V20.125C23.0574 20.3684 22.2358 20.9472 21.6894 21.753C21.143 22.5588 20.9092 23.5362 21.0319 24.502C21.1546 25.4678 21.6253 26.3557 22.3558 26.9993C23.0863 27.6429 24.0264 27.998 25 27.998C25.9736 27.998 26.9137 27.6429 27.6442 26.9993C28.3747 26.3557 28.8455 25.4678 28.9681 24.502C29.0908 23.5362 28.857 22.5588 28.3106 21.753C27.7642 20.9472 26.9427 20.3684 26 20.125ZM25 26C24.6044 26 24.2178 25.8827 23.8889 25.6629C23.56 25.4432 23.3036 25.1308 23.1523 24.7654C23.0009 24.3999 22.9613 23.9978 23.0384 23.6098C23.1156 23.2219 23.3061 22.8655 23.5858 22.5858C23.8655 22.3061 24.2219 22.1156 24.6098 22.0384C24.9978 21.9613 25.3999 22.0009 25.7654 22.1522C26.1308 22.3036 26.4432 22.56 26.6629 22.8889C26.8827 23.2178 27 23.6044 27 24C27 24.5304 26.7893 25.0391 26.4142 25.4142C26.0392 25.7893 25.5304 26 25 26Z" fill="#343330"/>
</svg>
