<svg width="32" height="32" viewBox="0 0 32 32" fill="none" xmlns="http://www.w3.org/2000/svg">
<path d="M16 3C12.5522 3 9.24558 4.36964 6.80761 6.80761C4.36964 9.24558 3 12.5522 3 16C3 19.4478 4.36964 22.7544 6.80761 25.1924C9.24558 27.6304 12.5522 29 16 29C16.2067 28.9995 16.4082 28.935 16.5768 28.8153C16.7453 28.6955 16.8726 28.5265 16.9411 28.3315C17.0097 28.1365 17.0161 27.925 16.9594 27.7262C16.9028 27.5273 16.786 27.3509 16.625 27.2213C16.485 27.1075 14.015 25.0562 12.7425 21H15.9925C16.2577 21 16.5121 20.8946 16.6996 20.7071C16.8871 20.5196 16.9925 20.2652 16.9925 20C16.9925 19.7348 16.8871 19.4804 16.6996 19.2929C16.5121 19.1054 16.2577 19 15.9925 19H12.26C11.915 17.0149 11.915 14.9851 12.26 13H19.745C19.9173 13.9907 20.0026 14.9945 20 16C20 16.2652 20.1054 16.5196 20.2929 16.7071C20.4804 16.8946 20.7348 17 21 17C21.2652 17 21.5196 16.8946 21.7071 16.7071C21.8946 16.5196 22 16.2652 22 16C22.0014 14.9955 21.9245 13.9925 21.77 13H26.5837C26.8608 13.9759 27.0009 14.9855 27 16C27 16.2652 27.1054 16.5196 27.2929 16.7071C27.4804 16.8946 27.7348 17 28 17C28.2652 17 28.5196 16.8946 28.7071 16.7071C28.8946 16.5196 29 16.2652 29 16C28.9964 12.5533 27.6256 9.24882 25.1884 6.81163C22.7512 4.37445 19.4467 3.00364 16 3ZM13.4487 5.3C12.1682 7.00709 11.2224 8.94113 10.6613 11H6.20375C6.92909 9.58379 7.95209 8.34117 9.20261 7.35732C10.4531 6.37347 11.9016 5.67166 13.4487 5.3ZM13.4487 26.7C11.9007 26.329 10.4512 25.6275 9.19982 24.6436C7.94839 23.6597 6.92462 22.4168 6.19875 21H10.6613C11.2224 23.0589 12.1682 24.9929 13.4487 26.7ZM10.23 19H5.41625C4.86124 17.0385 4.86124 14.9615 5.41625 13H10.23C9.92333 14.9882 9.92333 17.0118 10.23 19ZM12.75 11C13.3904 8.90176 14.502 6.97773 16 5.375C17.4974 6.97815 18.609 8.90204 19.25 11H12.75ZM21.3438 11C20.7826 8.94113 19.8368 7.00709 18.5562 5.3C20.1043 5.67101 21.5538 6.37252 22.8052 7.3564C24.0566 8.34028 25.0804 9.58324 25.8062 11H21.3438ZM27.7125 21.7075L25.4137 24L27.7075 26.2925C27.8004 26.3854 27.8741 26.4957 27.9244 26.6171C27.9747 26.7385 28.0006 26.8686 28.0006 27C28.0006 27.1314 27.9747 27.2615 27.9244 27.3829C27.8741 27.5043 27.8004 27.6146 27.7075 27.7075C27.6146 27.8004 27.5043 27.8741 27.3829 27.9244C27.2615 27.9747 27.1314 28.0006 27 28.0006C26.8686 28.0006 26.7385 27.9747 26.6171 27.9244C26.4957 27.8741 26.3854 27.8004 26.2925 27.7075L24 25.4137L21.7075 27.7075C21.5199 27.8951 21.2654 28.0006 21 28.0006C20.7346 28.0006 20.4801 27.8951 20.2925 27.7075C20.1049 27.5199 19.9994 27.2654 19.9994 27C19.9994 26.7346 20.1049 26.4801 20.2925 26.2925L22.5863 24L20.2925 21.7075C20.1049 21.5199 19.9994 21.2654 19.9994 21C19.9994 20.7346 20.1049 20.4801 20.2925 20.2925C20.4801 20.1049 20.7346 19.9994 21 19.9994C21.2654 19.9994 21.5199 20.1049 21.7075 20.2925L24 22.5863L26.2925 20.2925C26.4801 20.1049 26.7346 19.9994 27 19.9994C27.2654 19.9994 27.5199 20.1049 27.7075 20.2925C27.8951 20.4801 28.0006 20.7346 28.0006 21C28.0006 21.2654 27.8951 21.5199 27.7075 21.7075H27.7125Z" fill="#343330"/>
</svg>
