<svg width="32" height="32" viewBox="0 0 32 32" fill="none" xmlns="http://www.w3.org/2000/svg">
<path d="M17 23C18.9778 23 20.9112 22.4135 22.5557 21.3147C24.2002 20.2159 25.4819 18.6541 26.2388 16.8268C26.9957 14.9996 27.1937 12.9889 26.8078 11.0491C26.422 9.10928 25.4696 7.32745 24.0711 5.92893C22.6725 4.5304 20.8907 3.57799 18.9509 3.19214C17.0111 2.80629 15.0004 3.00432 13.1732 3.7612C11.3459 4.51808 9.78411 5.7998 8.6853 7.44429C7.58649 9.08878 7 11.0222 7 13C7.00297 15.6512 8.0575 18.1931 9.93222 20.0678C11.8069 21.9425 14.3487 22.997 17 23ZM17 5C18.5822 5 20.129 5.46919 21.4446 6.34824C22.7602 7.22729 23.7855 8.47672 24.391 9.93853C24.9965 11.4003 25.155 13.0089 24.8463 14.5607C24.5376 16.1126 23.7757 17.538 22.6569 18.6568C21.538 19.7757 20.1126 20.5376 18.5607 20.8463C17.0089 21.155 15.4003 20.9965 13.9385 20.391C12.4767 19.7855 11.2273 18.7601 10.3482 17.4446C9.46919 16.129 9 14.5822 9 13C9.00231 10.879 9.84591 8.84549 11.3457 7.3457C12.8455 5.84591 14.879 5.00231 17 5ZM26.7212 21.6875C26.8124 21.7822 26.8839 21.894 26.9318 22.0165C26.9796 22.1389 27.0029 22.2695 27.0002 22.401C26.9976 22.5324 26.969 22.662 26.9162 22.7824C26.8634 22.9027 26.7874 23.0115 26.6925 23.1025C24.3392 25.3718 21.2615 26.7394 18 26.965V29H21C21.2652 29 21.5196 29.1054 21.7071 29.2929C21.8946 29.4804 22 29.7348 22 30C22 30.2652 21.8946 30.5196 21.7071 30.7071C21.5196 30.8946 21.2652 31 21 31H13C12.7348 31 12.4804 30.8946 12.2929 30.7071C12.1054 30.5196 12 30.2652 12 30C12 29.7348 12.1054 29.4804 12.2929 29.2929C12.4804 29.1054 12.7348 29 13 29H16V26.9637C13.3478 26.7738 10.8045 25.8324 8.66767 24.2498C6.53089 22.6672 4.88899 20.5088 3.93409 18.0271C2.97919 15.5455 2.75078 12.8432 3.27558 10.2364C3.80037 7.6297 5.05668 5.22632 6.8975 3.3075C6.98786 3.21041 7.09663 3.13226 7.21747 3.07761C7.33832 3.02296 7.46884 2.99289 7.60141 2.98916C7.73399 2.98544 7.86599 3.00812 7.98972 3.05589C8.11345 3.10366 8.22644 3.17557 8.32211 3.26743C8.41778 3.35929 8.49422 3.46926 8.54699 3.59095C8.59975 3.71263 8.62778 3.8436 8.62945 3.97622C8.63111 4.10884 8.60638 4.24047 8.55668 4.36344C8.50699 4.48641 8.43333 4.59826 8.34 4.6925C6.1601 6.95684 4.95563 9.98606 4.98549 13.129C5.01535 16.272 6.27715 19.2778 8.49967 21.5003C10.7222 23.7228 13.728 24.9846 16.871 25.0145C20.0139 25.0444 23.0432 23.8399 25.3075 21.66C25.4986 21.4762 25.7549 21.3758 26.0201 21.381C26.2852 21.3862 26.5374 21.4964 26.7212 21.6875Z" fill="#343330"/>
</svg>
