<svg width="32" height="32" viewBox="0 0 32 32" fill="none" xmlns="http://www.w3.org/2000/svg">
<path d="M16 3C13.4288 3 10.9154 3.76244 8.77759 5.1909C6.63975 6.61935 4.9735 8.64968 3.98956 11.0251C3.00563 13.4006 2.74818 16.0144 3.24979 18.5362C3.7514 21.0579 4.98953 23.3743 6.80761 25.1924C8.62569 27.0105 10.9421 28.2486 13.4638 28.7502C15.9856 29.2518 18.5994 28.9944 20.9749 28.0104C23.3503 27.0265 25.3806 25.3603 26.8091 23.2224C28.2376 21.0846 29 18.5712 29 16C28.996 12.5534 27.6251 9.24911 25.188 6.812C22.7509 4.37488 19.4466 3.00397 16 3ZM26.9525 15H21.9737C21.75 10.4363 19.9925 7.20875 18.5512 5.3C20.7891 5.83739 22.8026 7.06171 24.3095 8.80127C25.8164 10.5408 26.741 12.7084 26.9537 15H26.9525ZM12.0287 17H19.9712C19.6825 22.2013 17.1925 25.3888 16 26.625C14.8062 25.3875 12.3175 22.2 12.0287 17ZM12.0287 15C12.3175 9.79875 14.8075 6.61125 16 5.375C17.1937 6.61625 19.6825 9.80375 19.9712 15H12.0287ZM13.4487 5.3C12.0075 7.20875 10.25 10.4363 10.0262 15H5.04625C5.25899 12.7084 6.18363 10.5408 7.6905 8.80127C9.19737 7.06171 11.2109 5.83739 13.4487 5.3ZM5.04625 17H10.0262C10.2537 21.5637 12.0075 24.7913 13.4487 26.7C11.2109 26.1626 9.19737 24.9383 7.6905 23.1987C6.18363 21.4592 5.25899 19.2916 5.04625 17ZM18.5462 26.7C19.9875 24.7913 21.7412 21.5637 21.9687 17H26.9487C26.7363 19.2909 25.8124 21.458 24.3065 23.1975C22.8006 24.937 20.7882 26.1617 18.5512 26.7H18.5462Z" fill="#343330"/>
</svg>
