<svg width="32" height="32" viewBox="0 0 32 32" fill="none" xmlns="http://www.w3.org/2000/svg">
<path d="M27.7075 21.7075L25.4137 24L27.7075 26.2925C27.8004 26.3854 27.8741 26.4957 27.9244 26.6171C27.9747 26.7385 28.0006 26.8686 28.0006 27C28.0006 27.1314 27.9747 27.2615 27.9244 27.3829C27.8741 27.5043 27.8004 27.6146 27.7075 27.7075C27.6146 27.8004 27.5043 27.8741 27.3829 27.9244C27.2615 27.9747 27.1314 28.0006 27 28.0006C26.8686 28.0006 26.7385 27.9747 26.6171 27.9244C26.4957 27.8741 26.3854 27.8004 26.2925 27.7075L24 25.4138L21.7075 27.7075C21.5199 27.8951 21.2654 28.0006 21 28.0006C20.7346 28.0006 20.4801 27.8951 20.2925 27.7075C20.1049 27.5199 19.9994 27.2654 19.9994 27C19.9994 26.7346 20.1049 26.4801 20.2925 26.2925L22.5862 24L20.2925 21.7075C20.1049 21.5199 19.9994 21.2654 19.9994 21C19.9994 20.7346 20.1049 20.4801 20.2925 20.2925C20.4801 20.1049 20.7346 19.9994 21 19.9994C21.2654 19.9994 21.5199 20.1049 21.7075 20.2925L24 22.5863L26.2925 20.2925C26.4801 20.1049 26.7346 19.9994 27 19.9994C27.2654 19.9994 27.5199 20.1049 27.7075 20.2925C27.8951 20.4801 28.0006 20.7346 28.0006 21C28.0006 21.2654 27.8951 21.5199 27.7075 21.7075ZM29 16C29 16.2652 28.8946 16.5196 28.7071 16.7071C28.5196 16.8946 28.2652 17 28 17H12.0312C12.4062 23.7163 16.4475 27.075 16.6275 27.2213C16.7887 27.3511 16.9056 27.5277 16.9621 27.7268C17.0187 27.9258 17.012 28.1375 16.9432 28.3327C16.8744 28.5278 16.7467 28.6968 16.5777 28.8164C16.4088 28.9359 16.2069 29 16 29C13.4288 29 10.9154 28.2376 8.77759 26.8091C6.63975 25.3807 4.9735 23.3503 3.98956 20.9749C3.00563 18.5995 2.74818 15.9856 3.24979 13.4638C3.7514 10.9421 4.98953 8.6257 6.80761 6.80762C8.62569 4.98953 10.9421 3.75141 13.4638 3.2498C15.9856 2.74819 18.5994 3.00563 20.9749 3.98957C23.3503 4.97351 25.3806 6.63975 26.8091 8.77759C28.2376 10.9154 29 13.4288 29 16ZM18.5512 5.30001C19.9925 7.20876 21.75 10.4363 21.9737 15H26.9537C26.741 12.7084 25.8164 10.5408 24.3095 8.80128C22.8026 7.06172 20.7891 5.8374 18.5512 5.30001ZM16 5.37501C14.8075 6.61501 12.3175 9.80251 12.0287 15H19.9712C19.6825 9.80001 17.1937 6.61251 16 5.37501ZM5.04625 15H10.0262C10.25 10.4363 12.0075 7.20876 13.4487 5.30001C11.2109 5.8374 9.19737 7.06172 7.6905 8.80128C6.18363 10.5408 5.25899 12.7084 5.04625 15ZM10.0262 17H5.04625C5.25899 19.2916 6.18363 21.4592 7.6905 23.1987C9.19737 24.9383 11.2109 26.1626 13.4487 26.7C12.0075 24.7913 10.25 21.5638 10.0262 17Z" fill="#343330"/>
</svg>
