<svg width="32" height="32" viewBox="0 0 32 32" fill="none" xmlns="http://www.w3.org/2000/svg">
<path d="M16 3C13.4288 3 10.9154 3.76244 8.77759 5.1909C6.63975 6.61935 4.9735 8.64968 3.98956 11.0251C3.00563 13.4006 2.74818 16.0144 3.24979 18.5362C3.7514 21.0579 4.98953 23.3743 6.80761 25.1924C8.62569 27.0105 10.9421 28.2486 13.4638 28.7502C15.9856 29.2518 18.5994 28.9944 20.9749 28.0104C23.3503 27.0265 25.3806 25.3603 26.8091 23.2224C28.2376 21.0846 29 18.5712 29 16C28.9964 12.5533 27.6255 9.24882 25.1884 6.81163C22.7512 4.37445 19.4467 3.00364 16 3ZM16 5C18.1312 4.99774 20.2166 5.61815 22 6.785V9.25L19.2287 12.4675L15.295 13L15.2562 12.9725L12.7975 11.365C12.5795 11.2114 12.333 11.103 12.0725 11.0461C11.812 10.9892 11.5428 10.985 11.2806 11.0337C11.0184 11.0824 10.7686 11.183 10.5459 11.3296C10.3232 11.4762 10.1321 11.6659 9.98375 11.8875L7.36625 15.8C7.14819 16.126 7.03082 16.509 7.02875 16.9013L7 21.43L6.59125 21.6987C5.58076 20.0304 5.03205 18.1234 5.00134 16.1732C4.97064 14.2229 5.45904 12.2996 6.4165 10.6003C7.37396 8.90097 8.76605 7.4868 10.4501 6.50271C12.1341 5.51862 14.0495 5 16 5ZM7.78625 23.3088L8.10125 23.1025C8.37631 22.9211 8.60229 22.6745 8.75908 22.3847C8.91588 22.0948 8.99864 21.7708 9 21.4412L9.02625 16.9125L11.6462 13C11.6591 13.0099 11.6724 13.0191 11.6862 13.0275L14.145 14.6362C14.5571 14.9271 15.0641 15.0508 15.5637 14.9825L19.5 14.4487C19.9854 14.384 20.4302 14.1433 20.75 13.7725L23.5212 10.5525C23.8312 10.1894 24.001 9.72739 24 9.25V8.45875C25.3526 9.88974 26.2956 11.658 26.7304 13.5785C27.1651 15.499 27.0756 17.501 26.4712 19.375L24.4537 17.53C24.1733 17.2726 23.8251 17.1005 23.4503 17.0341C23.0754 16.9677 22.6894 17.0096 22.3375 17.155L18.53 18.7362C18.2116 18.8699 17.9331 19.0833 17.7211 19.3559C17.5092 19.6284 17.371 19.951 17.32 20.2925L17.0212 22.3162C16.9494 22.8034 17.0598 23.2998 17.3313 23.7106C17.6028 24.1214 18.0162 24.4176 18.4925 24.5425L21.175 25.25L21.47 25.5462C19.2795 26.8031 16.7228 27.2667 14.2305 26.8592C11.7382 26.4517 9.46235 25.1978 7.78625 23.3088ZM23.125 24.375L22.5875 23.8363C22.3368 23.5846 22.0235 23.4042 21.68 23.3137L19 22.6063L19.2987 20.5825L23.105 19L25.625 21.31C24.9827 22.4737 24.1358 23.5119 23.125 24.375Z" fill="#343330"/>
</svg>
