<svg width="32" height="32" viewBox="0 0 32 32" fill="none" xmlns="http://www.w3.org/2000/svg">
<path d="M22 12.5C22 12.7967 21.912 13.0867 21.7472 13.3334C21.5824 13.58 21.3481 13.7723 21.074 13.8858C20.7999 13.9994 20.4983 14.0291 20.2074 13.9712C19.9164 13.9133 19.6491 13.7704 19.4393 13.5607C19.2296 13.3509 19.0867 13.0836 19.0288 12.7926C18.9709 12.5017 19.0007 12.2001 19.1142 11.926C19.2277 11.6519 19.42 11.4176 19.6666 11.2528C19.9133 11.088 20.2033 11 20.5 11C20.8978 11 21.2794 11.158 21.5607 11.4393C21.842 11.7206 22 12.1022 22 12.5ZM16.5 15C16.2033 15 15.9133 15.088 15.6666 15.2528C15.42 15.4176 15.2277 15.6519 15.1142 15.926C15.0007 16.2001 14.9709 16.5017 15.0288 16.7926C15.0867 17.0836 15.2296 17.3509 15.4393 17.5607C15.6491 17.7704 15.9164 17.9133 16.2074 17.9712C16.4983 18.0291 16.7999 17.9993 17.074 17.8858C17.3481 17.7723 17.5824 17.58 17.7472 17.3334C17.912 17.0867 18 16.7967 18 16.5C18 16.1022 17.842 15.7206 17.5607 15.4393C17.2794 15.158 16.8978 15 16.5 15ZM27 12C27 14.1756 26.3549 16.3023 25.1462 18.1113C23.9375 19.9202 22.2195 21.3301 20.2095 22.1627C18.1995 22.9952 15.9878 23.2131 13.854 22.7886C11.7202 22.3642 9.76021 21.3166 8.22183 19.7782C6.68345 18.2398 5.6358 16.2798 5.21137 14.146C4.78693 12.0122 5.00477 9.80047 5.83733 7.79048C6.66989 5.78049 8.07979 4.06253 9.88873 2.85383C11.6977 1.64514 13.8244 1 16 1C18.9164 1.00331 21.7123 2.1633 23.7745 4.22548C25.8367 6.28766 26.9967 9.08363 27 12ZM25 12C25 10.22 24.4722 8.47991 23.4832 6.99987C22.4943 5.51983 21.0887 4.36627 19.4442 3.68508C17.7996 3.0039 15.99 2.82567 14.2442 3.17293C12.4984 3.5202 10.8947 4.37737 9.63604 5.63604C8.37737 6.89471 7.5202 8.49836 7.17294 10.2442C6.82567 11.99 7.0039 13.7996 7.68509 15.4442C8.36628 17.0887 9.51983 18.4943 10.9999 19.4832C12.4799 20.4722 14.22 21 16 21C18.3861 20.9974 20.6738 20.0483 22.361 18.361C24.0483 16.6738 24.9974 14.3861 25 12ZM20.6425 24.0662C19 24.695 17.4813 25 16 25C14.5188 25 13 24.695 11.3575 24.0662C11.2343 24.0166 11.1025 23.992 10.9697 23.9939C10.837 23.9957 10.7059 24.024 10.5842 24.077C10.4624 24.1301 10.3525 24.2069 10.2607 24.3029C10.169 24.3989 10.0973 24.5122 10.0498 24.6362C10.0023 24.7602 9.98003 24.8924 9.9842 25.0252C9.98837 25.1579 10.0189 25.2885 10.0741 25.4092C10.1293 25.53 10.208 25.6386 10.3055 25.7287C10.4031 25.8187 10.5177 25.8884 10.6425 25.9338C12.0387 26.4817 13.506 26.8273 15 26.96V31C15 31.2652 15.1054 31.5196 15.2929 31.7071C15.4804 31.8946 15.7348 32 16 32C16.2652 32 16.5196 31.8946 16.7071 31.7071C16.8946 31.5196 17 31.2652 17 31V26.96C18.494 26.8273 19.9613 26.4817 21.3575 25.9338C21.4823 25.8884 21.5969 25.8187 21.6945 25.7287C21.7921 25.6386 21.8707 25.53 21.9259 25.4092C21.9811 25.2885 22.0116 25.1579 22.0158 25.0252C22.02 24.8924 21.9977 24.7602 21.9502 24.6362C21.9027 24.5122 21.831 24.3989 21.7393 24.3029C21.6475 24.2069 21.5376 24.1301 21.4159 24.077C21.2941 24.024 21.163 23.9957 21.0303 23.9939C20.8975 23.992 20.7657 24.0166 20.6425 24.0662Z" fill="#343330"/>
</svg>
