<svg width="32" height="32" viewBox="0 0 32 32" fill="none" xmlns="http://www.w3.org/2000/svg">
<path d="M29.7 17.9725L21.1412 3.94C20.9622 3.65157 20.7123 3.41377 20.4154 3.24923C20.1185 3.08469 19.7844 2.99889 19.445 3H12.5537C12.2144 2.99886 11.8805 3.08466 11.5838 3.24922C11.287 3.41377 11.0374 3.65159 10.8587 3.94L10.8525 3.94875L2.30496 17.9625C2.11324 18.269 2.00816 18.6216 2.00089 18.983C1.99363 19.3445 2.08445 19.7011 2.26371 20.015L5.67871 25.9925C5.85364 26.2985 6.10637 26.5529 6.41128 26.7299C6.71618 26.9068 7.06243 27 7.41496 27H24.5837C24.9362 27 25.2825 26.9068 25.5874 26.7299C25.8923 26.5529 26.145 26.2985 26.32 25.9925L29.735 20.015C29.9144 19.7032 30.0059 19.3486 29.9997 18.9889C29.9936 18.6292 29.89 18.278 29.7 17.9725ZM27.375 18H21.565L17.1662 10.6662L20.01 5.92625L27.375 18ZM12.7662 18L16 12.61L19.2337 18H12.7662ZM20.4337 20L23.4337 25H8.56621L11.5662 20H20.4337ZM16 8.7225L13.765 5L18.2375 4.99375L16 8.7225ZM11.9887 5.92625L14.8337 10.6662L10.4337 18H4.62496L11.9887 5.92625ZM4.56746 20H9.23371L6.83996 23.99L4.56746 20ZM25.16 23.9912L22.765 20H27.4412L25.16 23.9912Z" fill="#343330"/>
</svg>
