<svg width="32" height="32" viewBox="0 0 32 32" fill="none" xmlns="http://www.w3.org/2000/svg">
<path d="M6.74001 4.32751C6.65219 4.22852 6.5456 4.14794 6.42641 4.09045C6.30722 4.03296 6.1778 3.99969 6.04566 3.99258C5.91352 3.98547 5.78129 4.00466 5.65662 4.04904C5.53195 4.09341 5.41733 4.16209 5.3194 4.25108C5.22146 4.34008 5.14217 4.44763 5.08611 4.5675C5.03005 4.68737 4.99834 4.81718 4.99282 4.94939C4.98729 5.08161 5.00806 5.21361 5.05393 5.33773C5.09979 5.46186 5.16984 5.57565 5.26001 5.67251L6.47626 7.01126C6.31792 7.00376 6.15917 7.00001 6.00001 7.00001C5.73479 7.00001 5.48044 7.10537 5.2929 7.2929C5.10536 7.48044 5.00001 7.73479 5.00001 8.00001V18C5.00332 20.9164 6.1633 23.7123 8.22549 25.7745C10.2877 27.8367 13.0836 28.9967 16 29C18.8563 29.0022 21.6009 27.8911 23.6513 25.9025L25.26 27.6725C25.3478 27.7715 25.4544 27.8521 25.5736 27.9096C25.6928 27.9671 25.8222 28.0003 25.9544 28.0074C26.0865 28.0145 26.2187 27.9954 26.3434 27.951C26.4681 27.9066 26.5827 27.8379 26.6806 27.7489C26.7786 27.6599 26.8578 27.5524 26.9139 27.4325C26.97 27.3126 27.0017 27.1828 27.0072 27.0506C27.0127 26.9184 26.992 26.7864 26.9461 26.6623C26.9002 26.5382 26.8302 26.4244 26.74 26.3275L6.74001 4.32751ZM17.0363 18.625C16.6352 19.1899 16.2882 19.7913 16 20.4213C15.1921 18.6617 13.9349 17.146 12.3549 16.0268C10.7749 14.9077 8.92797 14.2246 7.00001 14.0463V9.05501C7.55879 9.11738 8.11041 9.23247 8.64751 9.39876L17.0363 18.625ZM15 26.945C12.8009 26.6964 10.7701 25.6473 9.29474 23.9976C7.81937 22.348 7.00257 20.2132 7.00001 18V16.055C9.19914 16.3036 11.2299 17.3528 12.7053 19.0024C14.1806 20.652 14.9974 22.7869 15 25V26.945ZM17 26.945V25C17.0008 23.2806 17.4935 21.5973 18.42 20.1488L22.305 24.4225C20.8694 25.8342 19.0011 26.7226 17 26.945ZM27 18C27.0005 18.9883 26.8681 19.9721 26.6063 20.925C26.5482 21.1361 26.4225 21.3224 26.2484 21.4552C26.0743 21.5879 25.8615 21.6599 25.6425 21.66C25.5521 21.6608 25.4621 21.649 25.375 21.625C25.1195 21.5546 24.9023 21.3857 24.7713 21.1553C24.6403 20.9249 24.6061 20.6519 24.6763 20.3963C24.8907 19.6155 24.9995 18.8096 25 18V16.0538C23.9296 16.1706 22.8894 16.4811 21.93 16.97C21.8125 17.0342 21.6834 17.0742 21.5502 17.0875C21.417 17.1008 21.2824 17.0873 21.1546 17.0477C21.0267 17.0081 20.9081 16.9432 20.8057 16.8568C20.7034 16.7705 20.6194 16.6645 20.5588 16.5452C20.4982 16.4258 20.4622 16.2955 20.4529 16.1619C20.4436 16.0284 20.4612 15.8943 20.5047 15.7677C20.5482 15.6411 20.6166 15.5245 20.706 15.4248C20.7954 15.3252 20.9039 15.2445 21.025 15.1875C22.2643 14.5549 23.6139 14.167 25 14.045V9.05626C23.7538 9.19797 22.5506 9.59743 21.4671 10.2293C20.3836 10.8611 19.4434 11.7114 18.7063 12.7263C18.6292 12.833 18.5319 12.9234 18.4198 12.9925C18.3078 13.0616 18.1832 13.1079 18.0533 13.1289C17.9234 13.1498 17.7906 13.145 17.6625 13.1146C17.5344 13.0843 17.4136 13.029 17.3069 12.9519C17.2002 12.8748 17.1097 12.7775 17.0406 12.6655C16.9715 12.5534 16.9252 12.4289 16.9042 12.2989C16.8833 12.169 16.8881 12.0362 16.9185 11.9081C16.9489 11.78 17.0042 11.6592 17.0813 11.5525C17.9288 10.3852 18.9974 9.39561 20.2263 8.64001C19.0775 6.22501 16.9313 4.71751 16 4.15001C14.9026 4.82543 13.916 5.66616 13.075 6.64251C12.9916 6.74701 12.888 6.83371 12.7705 6.8975C12.653 6.96128 12.5239 7.00084 12.3908 7.01385C12.2577 7.02686 12.1234 7.01305 11.9957 6.97323C11.8681 6.93341 11.7497 6.86839 11.6476 6.78203C11.5455 6.69566 11.4618 6.5897 11.4014 6.47041C11.341 6.35113 11.3051 6.22093 11.2959 6.08753C11.2867 5.95414 11.3043 5.82025 11.3477 5.69378C11.3912 5.56732 11.4595 5.45085 11.5488 5.35126C12.6701 4.03039 14.0263 2.92849 15.5488 2.10126C15.6877 2.03174 15.8409 1.99554 15.9963 1.99554C16.1516 1.99554 16.3048 2.03174 16.4438 2.10126C16.6088 2.18376 20.2275 4.03001 22.0175 7.74501C23.2874 7.25198 24.6378 6.99936 26 7.00001C26.2652 7.00001 26.5196 7.10537 26.7071 7.2929C26.8947 7.48044 27 7.73479 27 8.00001V18Z" fill="#343330"/>
</svg>
