<svg width="32" height="32" viewBox="0 0 32 32" fill="none" xmlns="http://www.w3.org/2000/svg">
<path d="M29 6H2C1.73478 6 1.48043 6.10536 1.29289 6.29289C1.10536 6.48043 1 6.73478 1 7V26C1 26.2652 1.10536 26.5196 1.29289 26.7071C1.48043 26.8946 1.73478 27 2 27C2.26522 27 2.51957 26.8946 2.70711 26.7071C2.89464 26.5196 3 26.2652 3 26V24H5V26C5 26.2652 5.10536 26.5196 5.29289 26.7071C5.48043 26.8946 5.73478 27 6 27C6.26522 27 6.51957 26.8946 6.70711 26.7071C6.89464 26.5196 7 26.2652 7 26V24H9V26C9 26.2652 9.10536 26.5196 9.29289 26.7071C9.48043 26.8946 9.73478 27 10 27C10.2652 27 10.5196 26.8946 10.7071 26.7071C10.8946 26.5196 11 26.2652 11 26V24H13V26C13 26.2652 13.1054 26.5196 13.2929 26.7071C13.4804 26.8946 13.7348 27 14 27C14.2652 27 14.5196 26.8946 14.7071 26.7071C14.8946 26.5196 15 26.2652 15 26V24H29C29.5304 24 30.0391 23.7893 30.4142 23.4142C30.7893 23.0391 31 22.5304 31 22V8C31 7.46957 30.7893 6.96086 30.4142 6.58579C30.0391 6.21071 29.5304 6 29 6ZM29 22H3V8H29V22ZM22 20C22.9889 20 23.9556 19.7068 24.7779 19.1573C25.6001 18.6079 26.241 17.827 26.6194 16.9134C26.9978 15.9998 27.0969 14.9945 26.9039 14.0245C26.711 13.0546 26.2348 12.1637 25.5355 11.4645C24.8363 10.7652 23.9454 10.289 22.9755 10.0961C22.0055 9.90315 21.0002 10.0022 20.0866 10.3806C19.173 10.759 18.3921 11.3999 17.8427 12.2221C17.2932 13.0444 17 14.0111 17 15C17 16.3261 17.5268 17.5979 18.4645 18.5355C19.4021 19.4732 20.6739 20 22 20ZM19 15C18.9992 14.5525 19.0996 14.1107 19.2938 13.7075L23.2938 17.7075C22.8901 17.9014 22.4478 18.0014 22 18C21.2044 18 20.4413 17.6839 19.8787 17.1213C19.3161 16.5587 19 15.7956 19 15ZM25 15C25.0008 15.4475 24.9004 15.8893 24.7062 16.2925L20.7062 12.2925C21.1099 12.0986 21.5522 11.9986 22 12C22.7956 12 23.5587 12.3161 24.1213 12.8787C24.6839 13.4413 25 14.2044 25 15ZM10 20C10.9889 20 11.9556 19.7068 12.7779 19.1573C13.6001 18.6079 14.241 17.827 14.6194 16.9134C14.9978 15.9998 15.0969 14.9945 14.9039 14.0245C14.711 13.0546 14.2348 12.1637 13.5355 11.4645C12.8363 10.7652 11.9454 10.289 10.9755 10.0961C10.0055 9.90315 9.00021 10.0022 8.08658 10.3806C7.17295 10.759 6.39206 11.3999 5.84265 12.2221C5.29324 13.0444 5 14.0111 5 15C5 16.3261 5.52678 17.5979 6.46447 18.5355C7.40215 19.4732 8.67392 20 10 20ZM7 15C6.99922 14.5525 7.09964 14.1107 7.29375 13.7075L11.2937 17.7075C10.8901 17.9014 10.4478 18.0014 10 18C9.20435 18 8.44129 17.6839 7.87868 17.1213C7.31607 16.5587 7 15.7956 7 15ZM13 15C13.0008 15.4475 12.9004 15.8893 12.7063 16.2925L8.70625 12.2925C9.10991 12.0986 9.5522 11.9986 10 12C10.7956 12 11.5587 12.3161 12.1213 12.8787C12.6839 13.4413 13 14.2044 13 15Z" fill="#343330"/>
</svg>
