<svg width="32" height="32" viewBox="0 0 32 32" fill="none" xmlns="http://www.w3.org/2000/svg">
<path d="M28 16C27.9999 16.1894 27.9461 16.3749 27.8447 16.5349C27.7434 16.6949 27.5987 16.8228 27.4275 16.9038L8.42748 25.9038C8.3088 25.96 8.18021 25.9923 8.04904 25.9988C7.91788 26.0053 7.78671 25.986 7.66304 25.9418C7.53936 25.8976 7.4256 25.8295 7.32824 25.7414C7.23088 25.6533 7.15183 25.5468 7.09561 25.4282C7.03938 25.3095 7.00709 25.1809 7.00056 25.0497C6.99404 24.9186 7.01341 24.7874 7.05758 24.6637C7.10174 24.54 7.16984 24.4263 7.25797 24.3289C7.3461 24.2315 7.45255 24.1525 7.57123 24.0963L24.6637 16L7.57248 7.90378C7.4538 7.84756 7.34735 7.76851 7.25922 7.67115C7.17109 7.57379 7.10299 7.46002 7.05883 7.33635C7.01466 7.21267 6.99529 7.08151 7.00181 6.95034C7.00834 6.81918 7.04063 6.69059 7.09686 6.5719C7.15308 6.45322 7.23213 6.34677 7.32949 6.25864C7.42685 6.17051 7.54061 6.10242 7.66429 6.05825C7.78796 6.01408 7.91913 5.99471 8.05029 6.00124C8.18146 6.00776 8.31005 6.04006 8.42873 6.09628L27.4287 15.0963C27.5997 15.1774 27.7442 15.3054 27.8453 15.4654C27.9464 15.6254 28 15.8108 28 16Z" fill="#343330"/>
</svg>
