<svg width="32" height="32" viewBox="0 0 32 32" fill="none" xmlns="http://www.w3.org/2000/svg">
<path d="M31.2075 5.7925L26.2075 0.7925C26.0198 0.605025 25.7654 0.499768 25.5002 0.499886C25.2349 0.500003 24.9806 0.605484 24.7931 0.793125C24.6056 0.980765 24.5004 1.23519 24.5005 1.50044C24.5006 1.76569 24.6061 2.02002 24.7937 2.2075L25.0862 2.5L17.565 10.02C14.7162 8.5375 11.5262 8.66125 9.59374 10.5925C9.08375 11.1047 8.68426 11.716 8.41999 12.3888C8.33883 12.5711 8.20643 12.726 8.03888 12.8345C7.87133 12.943 7.67586 13.0005 7.47624 13C5.65249 13.0612 4.06874 13.715 2.89499 14.8888C1.38499 16.4025 0.749986 18.575 1.09249 21.0088C1.42499 23.3375 2.63374 25.6437 4.49999 27.5C6.36624 29.3563 8.66749 30.57 11 30.9025C11.418 30.965 11.8399 30.9975 12.2625 31C14.1775 31 15.8662 30.3462 17.1075 29.105C18.2812 27.9312 18.935 26.3475 18.9962 24.5238C18.996 24.3237 19.0541 24.1279 19.1633 23.9604C19.2725 23.7928 19.4282 23.6606 19.6112 23.58C20.2842 23.3162 20.8957 22.9167 21.4075 22.4062C23.3387 20.4737 23.4625 17.2812 21.98 14.435L29.5 6.91375L29.7925 7.20625C29.8853 7.29916 29.9955 7.37288 30.1169 7.42319C30.2382 7.47351 30.3682 7.49943 30.4995 7.49949C30.6309 7.49955 30.7609 7.47374 30.8823 7.42353C31.0037 7.37332 31.114 7.2997 31.2069 7.20687C31.2998 7.11405 31.3735 7.00383 31.4238 6.88251C31.4741 6.76119 31.5 6.63115 31.5001 6.49982C31.5002 6.36848 31.4743 6.23842 31.4241 6.11706C31.3739 5.99569 31.3003 5.88541 31.2075 5.7925ZM20 20.9912C19.6812 21.3086 19.3004 21.5567 18.8812 21.72C18.3365 21.9444 17.8691 22.3228 17.5361 22.8088C17.203 23.2947 17.0189 23.8673 17.0062 24.4562C16.9612 25.7638 16.5062 26.8825 15.7025 27.6912C14.6475 28.745 13.0775 29.185 11.2825 28.9275C9.37499 28.6562 7.46624 27.6488 5.90874 26.0912C4.35124 24.5337 3.34374 22.625 3.07249 20.7262C2.82249 18.93 3.25499 17.3612 4.30874 16.3062C5.11749 15.5 6.23624 15.0463 7.54374 15C8.1328 14.9876 8.70546 14.8036 9.1915 14.4706C9.67753 14.1375 10.0558 13.6699 10.28 13.125C10.4425 12.7036 10.6906 12.3206 11.0087 12C11.695 11.3138 12.6337 10.9838 13.6812 10.9838C14.5053 10.9969 15.3184 11.175 16.0725 11.5075L13.5625 14.0238C12.8132 14.1062 12.1025 14.3988 11.5123 14.8677C10.922 15.3365 10.4763 15.9626 10.2264 16.6738C9.97654 17.385 9.93272 18.1523 10.1 18.8873C10.2673 19.6223 10.6388 20.2951 11.1718 20.8281C11.7049 21.3612 12.3776 21.7327 13.1127 21.9C13.8477 22.0673 14.615 22.0234 15.3262 21.7736C16.0374 21.5237 16.6635 21.078 17.1323 20.4877C17.6012 19.8975 17.8937 19.1868 17.9762 18.4375L20.4862 15.9275C21.3012 17.8387 21.1837 19.8012 20 20.9912ZM18.7 13.3062C18.9642 13.572 19.2117 13.8538 19.4412 14.15L17.5137 16.0775C17.146 15.4098 16.5964 14.8602 15.9287 14.4925L17.8562 12.5638C18.1503 12.7939 18.43 13.0418 18.6937 13.3062H18.7ZM14 16C14.5304 16 15.0391 16.2107 15.4142 16.5858C15.7893 16.9609 16 17.4696 16 18C16 18.3956 15.8827 18.7822 15.6629 19.1111C15.4432 19.44 15.1308 19.6964 14.7654 19.8478C14.3999 19.9991 13.9978 20.0387 13.6098 19.9616C13.2218 19.8844 12.8655 19.6939 12.5858 19.4142C12.3061 19.1345 12.1156 18.7781 12.0384 18.3902C11.9612 18.0022 12.0009 17.6001 12.1522 17.2346C12.3036 16.8692 12.5599 16.5568 12.8888 16.3371C13.2177 16.1173 13.6044 16 14 16ZM20.1062 11.8938C19.841 11.6295 19.5623 11.3792 19.2712 11.1438L22 8.41375L23.5862 10L20.8575 12.7275C20.622 12.4364 20.3717 12.1577 20.1075 11.8925L20.1062 11.8938ZM25 8.585L23.415 7L26.5 3.91375L28.0862 5.5L25 8.585ZM11.7075 24.2913C11.8004 24.3841 11.8741 24.4943 11.9244 24.6156C11.9747 24.7369 12.0007 24.867 12.0007 24.9983C12.0008 25.1296 11.975 25.2597 11.9248 25.3811C11.8746 25.5024 11.8009 25.6127 11.7081 25.7056C11.6153 25.7985 11.5051 25.8723 11.3837 25.9226C11.2624 25.9729 11.1324 25.9988 11.0011 25.9989C10.8697 25.9989 10.7397 25.9731 10.6183 25.9229C10.4969 25.8727 10.3866 25.7991 10.2937 25.7062L6.29374 21.7062C6.10626 21.5186 6.001 21.2642 6.00112 20.9989C6.00124 20.7337 6.10672 20.4794 6.29436 20.2919C6.482 20.1044 6.73643 19.9991 7.00168 19.9993C7.26692 19.9994 7.52126 20.1049 7.70874 20.2925L11.7075 24.2913Z" fill="#343330"/>
</svg>
