<svg width="32" height="32" viewBox="0 0 32 32" fill="none" xmlns="http://www.w3.org/2000/svg">
<path d="M25 11C25 10.2089 24.7654 9.43552 24.3259 8.77772C23.8864 8.11992 23.2616 7.60723 22.5307 7.30448C21.7998 7.00173 20.9956 6.92252 20.2196 7.07686C19.4437 7.2312 18.731 7.61216 18.1716 8.17157C17.6122 8.73098 17.2312 9.44371 17.0769 10.2196C16.9225 10.9956 17.0017 11.7998 17.3045 12.5307C17.6072 13.2616 18.1199 13.8864 18.7777 14.3259C19.4355 14.7654 20.2089 15 21 15C22.0609 15 23.0783 14.5786 23.8284 13.8284C24.5786 13.0783 25 12.0609 25 11ZM21 13C20.6044 13 20.2178 12.8827 19.8889 12.6629C19.56 12.4432 19.3036 12.1308 19.1522 11.7654C19.0009 11.3999 18.9613 10.9978 19.0384 10.6098C19.1156 10.2219 19.3061 9.86549 19.5858 9.58579C19.8655 9.30608 20.2219 9.1156 20.6098 9.03843C20.9978 8.96126 21.3999 9.00087 21.7654 9.15224C22.1308 9.30362 22.4432 9.55996 22.6629 9.88886C22.8827 10.2178 23 10.6044 23 11C23 11.5304 22.7893 12.0391 22.4142 12.4142C22.0391 12.7893 21.5304 13 21 13ZM22.1775 25.8275L26.125 17.1338C27.3836 16.0799 28.2876 14.6644 28.7142 13.0793C29.1409 11.4941 29.0696 9.81611 28.51 8.27289C27.9504 6.72966 26.9296 5.39593 25.5861 4.45266C24.2427 3.50938 22.6415 3.00223 21 3C20.9447 3.00023 20.8896 3.00483 20.835 3.01375L3.67125 5.875C3.2043 5.95281 2.78009 6.19374 2.47407 6.55491C2.16805 6.91609 2.00007 7.37411 2 7.8475V14.1525C2.00007 14.6259 2.16805 15.0839 2.47407 15.4451C2.78009 15.8063 3.2043 16.0472 3.67125 16.125L16 18.18V25C16 25.5304 16.2107 26.0391 16.5858 26.4142C16.9609 26.7893 17.4696 27 18 27C18 28.3261 18.5268 29.5979 19.4645 30.5355C20.4021 31.4732 21.6739 32 23 32H25C25.2652 32 25.5196 31.8946 25.7071 31.7071C25.8946 31.5196 26 31.2652 26 31C26 30.7348 25.8946 30.4804 25.7071 30.2929C25.5196 30.1054 25.2652 30 25 30H23C22.2044 30 21.4413 29.6839 20.8787 29.1213C20.3161 28.5587 20 27.7956 20 27H20.3563C20.7404 27.0001 21.1164 26.8896 21.4393 26.6816C21.7623 26.4737 22.0186 26.1772 22.1775 25.8275ZM4 7.8475L21.08 5C22.6713 5 24.1974 5.63214 25.3226 6.75736C26.4479 7.88258 27.08 9.4087 27.08 11C27.08 12.5913 26.4479 14.1174 25.3226 15.2426C24.1974 16.3679 22.6713 17 21.08 17L4 14.1538V7.8475ZM20.835 18.9862C20.8896 18.9952 20.9447 18.9998 21 19C21.7538 18.9998 22.5037 18.8929 23.2275 18.6825L20.3525 25H18V18.5138L20.835 18.9862Z" fill="#343330"/>
</svg>
