<svg width="32" height="32" viewBox="0 0 32 32" fill="none" xmlns="http://www.w3.org/2000/svg">
<path d="M20.0276 3V1C20.0276 0.734784 20.1329 0.48043 20.3204 0.292893C20.508 0.105357 20.7623 0 21.0276 0C21.2928 0 21.5471 0.105357 21.7347 0.292893C21.9222 0.48043 22.0276 0.734784 22.0276 1V3C22.0276 3.26522 21.9222 3.51957 21.7347 3.70711C21.5471 3.89464 21.2928 4 21.0276 4C20.7623 4 20.508 3.89464 20.3204 3.70711C20.1329 3.51957 20.0276 3.26522 20.0276 3ZM24.5126 5.125C24.6693 5.22129 24.8498 5.27194 25.0338 5.27125C25.2054 5.27152 25.3742 5.22763 25.524 5.14378C25.6737 5.05993 25.7993 4.93896 25.8888 4.7925L26.8888 3.15375C26.9572 3.04147 27.0028 2.91682 27.023 2.78693C27.0432 2.65703 27.0376 2.52442 27.0065 2.39669C26.9755 2.26895 26.9196 2.14858 26.842 2.04244C26.7644 1.93631 26.6667 1.84649 26.5544 1.77813C26.4422 1.70976 26.3175 1.66417 26.1876 1.64397C26.0577 1.62378 25.9251 1.62936 25.7974 1.66041C25.6696 1.69146 25.5493 1.74737 25.4431 1.82494C25.337 1.90251 25.2472 2.00022 25.1788 2.1125L24.1788 3.75C24.1104 3.86218 24.0647 3.98675 24.0445 4.11658C24.0242 4.24642 24.0297 4.37897 24.0607 4.50667C24.0917 4.63437 24.1476 4.75471 24.2251 4.8608C24.3026 4.9669 24.4003 5.05668 24.5126 5.125ZM30.4513 6.69875C30.411 6.5736 30.3465 6.45762 30.2613 6.35744C30.1762 6.25727 30.0721 6.17487 29.9551 6.11496C29.838 6.05505 29.7103 6.01881 29.5793 6.00831C29.4482 5.9978 29.3164 6.01325 29.1913 6.05375L27.3088 6.66C27.0814 6.73271 26.8875 6.88439 26.7622 7.08762C26.6368 7.29085 26.5884 7.53222 26.6255 7.76808C26.6627 8.00393 26.783 8.21872 26.9647 8.37359C27.1464 8.52847 27.3775 8.61321 27.6163 8.6125C27.7207 8.6121 27.8244 8.59566 27.9238 8.56375L29.8051 7.9575C29.9307 7.91737 30.0473 7.85277 30.1479 7.76742C30.2485 7.68206 30.3312 7.57764 30.3913 7.46016C30.4513 7.34269 30.4876 7.21449 30.4979 7.08296C30.5082 6.95142 30.4924 6.81914 30.4513 6.69375V6.69875ZM27.1251 12.1975C28.1841 14.0389 28.6311 16.169 28.4015 18.2807C28.1719 20.3925 27.2776 22.3768 25.8476 23.9475C25.8051 24.1637 25.7576 24.38 25.6988 24.595C25.1833 26.5071 24.1127 28.2235 22.6224 29.5277C21.1321 30.8318 19.2888 31.6651 17.3252 31.9224C15.3616 32.1798 13.3658 31.8495 11.5898 30.9734C9.81377 30.0973 8.33712 28.7147 7.34631 27L2.93756 19.375C2.66977 18.9111 2.52082 18.3881 2.50393 17.8527C2.48705 17.3173 2.60277 16.7861 2.84079 16.3062C3.07881 15.8263 3.43176 15.4127 3.86823 15.1022C4.3047 14.7916 4.81116 14.5938 5.34256 14.5262L4.96756 13.8763C4.70012 13.4127 4.55129 12.8903 4.53429 12.3554C4.51728 11.8205 4.63263 11.2897 4.87007 10.8101C5.10752 10.3305 5.45973 9.91698 5.89541 9.60622C6.3311 9.29546 6.83678 9.0971 7.36756 9.02875L7.28006 8.875C6.90935 8.23658 6.76704 7.49097 6.87655 6.76089C6.98607 6.03081 7.34088 5.35977 7.88259 4.85822C8.42431 4.35667 9.12063 4.05449 9.85697 4.00142C10.5933 3.94835 11.3258 4.14756 11.9338 4.56625C12.2272 4.08294 12.6414 3.68433 13.1356 3.40963C13.6298 3.13493 14.187 2.99359 14.7524 2.99952C15.3178 3.00545 15.8719 3.15844 16.3602 3.44344C16.8486 3.72844 17.2543 4.13565 17.5376 4.625L19.0701 7.275C19.396 6.8499 19.8217 6.5117 20.3095 6.29034C20.7973 6.06898 21.3321 5.97128 21.8667 6.00589C22.4012 6.04049 22.919 6.20634 23.3742 6.48875C23.8294 6.77116 24.2079 7.16142 24.4763 7.625L27.1251 12.1975ZM13.6338 6.875L16.7588 12.2712C17.0194 11.9302 17.3451 11.6441 17.7169 11.4295C18.0887 11.215 18.4993 11.0762 18.9251 11.0212L15.8026 5.625C15.6368 5.33741 15.3636 5.12744 15.043 5.04129C14.7224 4.95514 14.3808 4.99986 14.0932 5.16563C13.8056 5.33139 13.5956 5.6046 13.5095 5.92517C13.4233 6.24574 13.468 6.58741 13.6338 6.875ZM9.01506 7.875L9.82256 9.27125C10.0833 8.93054 10.4088 8.64472 10.7803 8.43021C11.1519 8.21569 11.5621 8.07671 11.9876 8.02125L11.1813 6.625C11.0992 6.48276 10.9899 6.35808 10.8597 6.25808C10.7294 6.15808 10.5807 6.08471 10.4221 6.04217C10.2635 5.99963 10.0981 5.98875 9.93525 6.01015C9.77243 6.03154 9.61542 6.0848 9.47318 6.16687C9.33094 6.24895 9.20626 6.35824 9.10626 6.4885C9.00626 6.61876 8.93289 6.76744 8.89035 6.92606C8.84781 7.08467 8.83693 7.25011 8.85833 7.41293C8.87972 7.57575 8.93298 7.73276 9.01506 7.875ZM22.9576 18L20.4301 13.625C20.2767 13.3309 20.0129 13.1098 19.6965 13.0103C19.3802 12.9108 19.0372 12.941 18.7432 13.0944C18.4491 13.2477 18.228 13.5116 18.1285 13.8279C18.029 14.1443 18.0592 14.4872 18.2126 14.7812L19.7876 17.5C19.9202 17.7299 19.956 18.0031 19.8872 18.2594C19.8184 18.5158 19.6506 18.7343 19.4207 18.8669C19.1908 18.9995 18.9176 19.0353 18.6613 18.9665C18.4049 18.8977 18.1864 18.7299 18.0538 18.5L13.4913 10.625C13.3255 10.3374 13.0523 10.1274 12.7318 10.0413C12.4112 9.95514 12.0695 9.99986 11.7819 10.1656C11.4943 10.3314 11.2844 10.6046 11.1982 10.9252C11.1121 11.2457 11.1568 11.5874 11.3226 11.875L14.5788 17.5C14.7114 17.7299 14.7473 18.0031 14.6785 18.2594C14.6097 18.5158 14.4418 18.7343 14.2119 18.8669C13.982 18.9995 13.7088 19.0353 13.4525 18.9665C13.1962 18.8977 12.9777 18.7299 12.8451 18.5L8.87506 11.625C8.70929 11.3377 8.43621 11.1281 8.11587 11.0422C7.79554 10.9563 7.45419 11.0011 7.16693 11.1669C6.87967 11.3326 6.67002 11.6057 6.5841 11.9261C6.49819 12.2464 6.54304 12.5877 6.70881 12.875L11.1113 20.5C11.2439 20.7302 11.2796 21.0037 11.2106 21.2603C11.1416 21.5169 10.9734 21.7355 10.7432 21.8681C10.5129 22.0007 10.2394 22.0364 9.98288 21.9674C9.7263 21.8984 9.50766 21.7302 9.37506 21.5L6.84006 17.125C6.67429 16.8376 6.40114 16.6278 6.08069 16.5417C5.76024 16.4557 5.41873 16.5005 5.13131 16.6663C4.84388 16.832 4.63407 17.1052 4.54804 17.4256C4.462 17.7461 4.5068 18.0876 4.67256 18.375L9.08131 26C9.87437 27.3711 11.0559 28.4764 12.4767 29.1765C13.8974 29.8765 15.4938 30.14 17.0642 29.9335C18.6346 29.727 20.1085 29.0598 21.3 28.0162C22.4915 26.9727 23.3471 25.5995 23.7588 24.07C24.0336 23.0556 24.1043 21.9966 23.9668 20.9547C23.8292 19.9127 23.4862 18.9084 22.9576 18ZM25.3838 13.1975L22.7413 8.625C22.6592 8.48235 22.5499 8.35727 22.4194 8.25689C22.289 8.1565 22.1401 8.0828 21.9812 8.03996C21.6603 7.95346 21.3181 7.99799 21.0301 8.16375C20.8874 8.24583 20.7623 8.3552 20.6619 8.48561C20.5616 8.61603 20.4879 8.76494 20.445 8.92385C20.3585 9.24477 20.403 9.58691 20.5688 9.875L24.6938 17.0063C25.2656 17.9922 25.6651 19.0685 25.8751 20.1887C26.327 19.0621 26.5176 17.8476 26.4326 16.6367C26.3475 15.4258 25.9889 14.2499 25.3838 13.1975Z" fill="#343330"/>
</svg>
