<svg width="32" height="32" viewBox="0 0 32 32" fill="none" xmlns="http://www.w3.org/2000/svg">
<path d="M27.0001 17.5V22C27.0001 25.1987 25.9389 27.3562 25.8939 27.4475C25.8108 27.6134 25.6832 27.753 25.5254 27.8506C25.3675 27.9482 25.1857 27.9999 25.0001 28C24.8451 28.0001 24.6922 27.9637 24.5539 27.8937C24.3167 27.7752 24.1363 27.5673 24.0524 27.3158C23.9685 27.0643 23.9879 26.7897 24.1064 26.5525C24.1139 26.5375 25.0014 24.7012 25.0014 22V17.5C25.0014 17.1022 24.8433 16.7206 24.562 16.4393C24.2807 16.158 23.8992 16 23.5014 16C23.1035 16 22.722 16.158 22.4407 16.4393C22.1594 16.7206 22.0014 17.1022 22.0014 17.5V18C22.0014 18.2652 21.896 18.5196 21.7085 18.7071C21.5209 18.8946 21.2666 19 21.0014 19C20.7361 19 20.4818 18.8946 20.2942 18.7071C20.1067 18.5196 20.0014 18.2652 20.0014 18V15.5C20.0014 15.1022 19.8433 14.7206 19.562 14.4393C19.2807 14.158 18.8992 14 18.5014 14C18.1035 14 17.722 14.158 17.4407 14.4393C17.1594 14.7206 17.0014 15.1022 17.0014 15.5V17C17.0014 17.2652 16.896 17.5196 16.7085 17.7071C16.5209 17.8946 16.2666 18 16.0014 18C15.7361 18 15.4818 17.8946 15.2942 17.7071C15.1067 17.5196 15.0014 17.2652 15.0014 17V8.49999C15.0014 8.10217 14.8433 7.72064 14.562 7.43933C14.2807 7.15803 13.8992 6.99999 13.5014 6.99999C13.1035 6.99999 12.722 7.15803 12.4407 7.43933C12.1594 7.72064 12.0014 8.10217 12.0014 8.49999V22C12.0013 22.2172 11.9306 22.4286 11.7998 22.6021C11.669 22.7755 11.4852 22.9017 11.2763 22.9614C11.0674 23.0211 10.8448 23.0112 10.642 22.9332C10.4393 22.8551 10.2675 22.7131 10.1526 22.5287L7.8176 18.7787L7.8001 18.75C7.70161 18.5793 7.57046 18.4296 7.41413 18.3096C7.25781 18.1896 7.07937 18.1015 6.88901 18.0504C6.69865 17.9994 6.5001 17.9863 6.30468 18.0119C6.10927 18.0376 5.92082 18.1015 5.7501 18.2C5.57938 18.2985 5.42974 18.4296 5.3097 18.586C5.18967 18.7423 5.10161 18.9207 5.05053 19.1111C4.99946 19.3014 4.98638 19.5 5.01205 19.6954C5.03771 19.8908 5.10161 20.0793 5.2001 20.25L8.86135 26.5C8.93841 26.6136 8.99124 26.7419 9.01657 26.8768C9.04189 27.0118 9.03916 27.1505 9.00854 27.2843C8.97792 27.4181 8.92008 27.5442 8.8386 27.6547C8.75713 27.7652 8.65378 27.8578 8.53498 27.9266C8.41619 27.9954 8.2845 28.039 8.14811 28.0547C8.01172 28.0704 7.87356 28.0579 7.74224 28.0178C7.61091 27.9778 7.48923 27.9112 7.38478 27.8221C7.28032 27.733 7.19533 27.6234 7.1351 27.5L3.4701 21.25C3.00316 20.4475 2.8741 19.4925 3.11134 18.5949C3.34857 17.6973 3.93266 16.9307 4.7351 16.4637C5.53755 15.9968 6.49262 15.8677 7.39022 16.105C8.28781 16.3422 9.05441 16.9263 9.52135 17.7287L10.0001 18.5V8.49999C10.0001 7.57173 10.3689 6.6815 11.0252 6.02512C11.6816 5.36874 12.5718 4.99999 13.5001 4.99999C14.4284 4.99999 15.3186 5.36874 15.975 6.02512C16.6314 6.6815 17.0001 7.57173 17.0001 8.49999V12.3375C17.4501 12.1239 17.9406 12.0088 18.4387 12C18.9367 11.9912 19.431 12.0888 19.8883 12.2862C20.3456 12.4837 20.7555 12.7766 21.0906 13.1452C21.4257 13.5138 21.6782 13.9497 21.8314 14.4237C22.3644 14.1346 22.9635 13.9889 23.5699 14.001C24.1762 14.0131 24.769 14.1825 25.2901 14.4927C25.8113 14.8029 26.2429 15.2431 26.5426 15.7703C26.8424 16.2975 27 16.8935 27.0001 17.5ZM31.0001 5.99999H24.4139L26.7064 3.70749C26.894 3.52002 26.9995 3.26568 26.9996 3.00043C26.9997 2.73519 26.8945 2.48076 26.707 2.29312C26.5195 2.10548 26.2652 2 25.9999 1.99988C25.7347 1.99976 25.4802 2.10502 25.2926 2.29249L21.2926 6.29249C21.1996 6.38537 21.1259 6.49565 21.0755 6.61705C21.0252 6.73845 20.9993 6.86858 20.9993 6.99999C20.9993 7.13141 21.0252 7.26153 21.0755 7.38293C21.1259 7.50433 21.1996 7.61462 21.2926 7.70749L25.2926 11.7075C25.4802 11.895 25.7347 12.0002 25.9999 12.0001C26.2652 12 26.5195 11.8945 26.707 11.7069C26.8945 11.5192 26.9997 11.2648 26.9996 10.9996C26.9995 10.7343 26.894 10.48 26.7064 10.2925L24.4139 7.99999H31.0001C31.2653 7.99999 31.5197 7.89463 31.7072 7.7071C31.8947 7.51956 32.0001 7.26521 32.0001 6.99999C32.0001 6.73478 31.8947 6.48042 31.7072 6.29289C31.5197 6.10535 31.2653 5.99999 31.0001 5.99999Z" fill="#343330"/>
</svg>
