<svg width="32" height="32" viewBox="0 0 32 32" fill="none" xmlns="http://www.w3.org/2000/svg">
<path d="M29 24.8312V30C29 30.2652 28.8946 30.5196 28.7071 30.7071C28.5196 30.8946 28.2652 31 28 31C27.7348 31 27.4804 30.8946 27.2929 30.7071C27.1054 30.5196 27 30.2652 27 30V24.8312C26.9953 23.5477 26.7266 22.2788 26.2105 21.1036C25.6944 19.9284 24.9419 18.8719 24 18V25.2938C23.9998 25.509 23.9302 25.7184 23.8015 25.8908C23.6729 26.0633 23.492 26.1897 23.2857 26.2512C23.0795 26.3127 22.8589 26.306 22.6568 26.2322C22.4547 26.1583 22.2818 26.0212 22.1637 25.8412L20.8288 23.8025C20.8188 23.7875 20.8087 23.7712 20.8 23.755C20.6039 23.4087 20.2783 23.1545 19.8948 23.0483C19.5113 22.9422 19.1013 22.9927 18.755 23.1887C18.4087 23.3848 18.1545 23.7105 18.0483 24.094C17.9421 24.4775 17.9927 24.8875 18.1887 25.2337L20.955 29.4575C21.1002 29.6795 21.1513 29.95 21.097 30.2096C21.0428 30.4692 20.8876 30.6967 20.6656 30.8419C20.4437 30.9871 20.1731 31.0382 19.9135 30.9839C19.6539 30.9296 19.4265 30.7745 19.2812 30.5525L16.4988 26.3025L16.4688 26.255C16.038 25.5169 15.8923 24.6466 16.0589 23.8084C16.2256 22.9702 16.6932 22.222 17.3735 21.7047C18.0539 21.1875 18.8999 20.9371 19.7522 21.0007C20.6044 21.0643 21.404 21.4375 22 22.05V8H20C19.7348 8 19.4804 7.89464 19.2929 7.70711C19.1054 7.51957 19 7.26522 19 7C19 6.73478 19.1054 6.48043 19.2929 6.29289C19.4804 6.10536 19.7348 6 20 6H22C22.5304 6 23.0391 6.21071 23.4142 6.58579C23.7893 6.96086 24 7.46957 24 8V15.4525C25.5349 16.4897 26.7928 17.8865 27.6643 19.5212C28.5358 21.1558 28.9943 22.9788 29 24.8312ZM11 7C11 6.73478 10.8946 6.48043 10.7071 6.29289C10.5196 6.10536 10.2652 6 10 6H8C7.46957 6 6.96086 6.21071 6.58579 6.58579C6.21071 6.96086 6 7.46957 6 8V25C6 25.2652 6.10536 25.5196 6.29289 25.7071C6.48043 25.8946 6.73478 26 7 26C7.26522 26 7.51957 25.8946 7.70711 25.7071C7.89464 25.5196 8 25.2652 8 25V8H10C10.2652 8 10.5196 7.89464 10.7071 7.70711C10.8946 7.51957 11 7.26522 11 7ZM19.7075 12.2925C19.6146 12.1995 19.5043 12.1258 19.3829 12.0754C19.2615 12.0251 19.1314 11.9992 19 11.9992C18.8686 11.9992 18.7385 12.0251 18.6171 12.0754C18.4957 12.1258 18.3854 12.1995 18.2925 12.2925L16 14.5863V2C16 1.73478 15.8946 1.48043 15.7071 1.29289C15.5196 1.10536 15.2652 1 15 1C14.7348 1 14.4804 1.10536 14.2929 1.29289C14.1054 1.48043 14 1.73478 14 2V14.5863L11.7075 12.2925C11.5199 12.1049 11.2654 11.9994 11 11.9994C10.7346 11.9994 10.4801 12.1049 10.2925 12.2925C10.1049 12.4801 9.99944 12.7346 9.99944 13C9.99944 13.2654 10.1049 13.5199 10.2925 13.7075L14.2925 17.7075C14.3854 17.8005 14.4957 17.8742 14.6171 17.9246C14.7385 17.9749 14.8686 18.0008 15 18.0008C15.1314 18.0008 15.2615 17.9749 15.3829 17.9246C15.5043 17.8742 15.6146 17.8005 15.7075 17.7075L19.7075 13.7075C19.8005 13.6146 19.8742 13.5043 19.9246 13.3829C19.9749 13.2615 20.0008 13.1314 20.0008 13C20.0008 12.8686 19.9749 12.7385 19.9246 12.6171C19.8742 12.4957 19.8005 12.3854 19.7075 12.2925Z" fill="#343330"/>
</svg>
