<svg width="32" height="32" viewBox="0 0 32 32" fill="none" xmlns="http://www.w3.org/2000/svg">
<path d="M26.5299 3.75C26.1828 3.15275 25.6667 2.67158 25.0467 2.36708C24.4266 2.06259 23.7303 1.94839 23.0455 2.03887C22.3606 2.12936 21.7179 2.42048 21.1982 2.87556C20.6785 3.33064 20.305 3.92934 20.1249 4.59625L18.4999 10.6362L16.8812 4.59625C16.7768 4.137 16.5808 3.70354 16.305 3.32183C16.0291 2.94011 15.6791 2.618 15.2758 2.37477C14.8725 2.13154 14.4243 1.97221 13.958 1.90631C13.4916 1.84041 13.0168 1.8693 12.5619 1.99125C12.107 2.1132 11.6814 2.3257 11.3106 2.61603C10.9398 2.90635 10.6314 3.26853 10.4038 3.68087C10.1763 4.09322 10.0343 4.54724 9.98638 5.01575C9.93846 5.48427 9.98559 5.95763 10.1249 6.4075L11.2974 10.7825L10.2062 10.5725C9.46014 10.419 8.68436 10.513 7.9966 10.8403C7.30883 11.1677 6.74661 11.7104 6.39527 12.3862C6.04393 13.062 5.92265 13.834 6.04982 14.585C6.17699 15.336 6.54569 16.025 7.09994 16.5475C6.75009 16.8756 6.47179 17.2725 6.28251 17.7133C6.09322 18.154 5.99702 18.6291 5.99994 19.1087V20C5.99994 22.6522 7.05351 25.1957 8.92887 27.0711C10.8042 28.9464 13.3478 30 15.9999 30H16.0762C21.5487 29.9587 25.9999 25.4225 25.9999 19.8875V19.47C25.999 17.9183 25.4813 16.4111 24.5287 15.1862L26.8749 6.4075C26.9962 5.96375 27.0281 5.50034 26.9689 5.04415C26.9097 4.58797 26.7605 4.14808 26.5299 3.75ZM12.2012 4.75C12.3493 4.4924 12.5706 4.28461 12.837 4.15298C13.1034 4.02134 13.4029 3.9718 13.6975 4.01063C13.9921 4.04947 14.2686 4.17493 14.4918 4.3711C14.715 4.56727 14.8749 4.82532 14.9512 5.1125L16.7974 12.0062C16.1712 12.0446 15.5668 12.2505 15.0474 12.6025C15.0415 12.5912 15.0348 12.5804 15.0274 12.57C14.6544 12.004 14.1232 11.5602 13.4999 11.2937L12.0524 5.89C12.0006 5.69958 11.9871 5.50078 12.0126 5.3051C12.0382 5.10942 12.1023 4.92075 12.2012 4.75ZM8.03119 13.7C8.07076 13.506 8.14835 13.3218 8.25947 13.1579C8.3706 12.994 8.51306 12.8538 8.67866 12.7453C8.84425 12.6367 9.02968 12.562 9.22428 12.5255C9.41887 12.489 9.61877 12.4914 9.81244 12.5325L12.4012 13.0325C12.5943 13.0719 12.7777 13.1489 12.941 13.2591C13.1043 13.3694 13.2442 13.5107 13.3529 13.6751C13.4615 13.8395 13.5367 14.0236 13.5742 14.2171C13.6116 14.4105 13.6106 14.6095 13.5712 14.8025C13.5316 14.9965 13.454 15.1807 13.3429 15.3446C13.2318 15.5085 13.0893 15.6487 12.9237 15.7572C12.7581 15.8658 12.5727 15.9405 12.3781 15.977C12.1835 16.0135 11.9836 16.0111 11.7899 15.97L9.19619 15.47C8.80747 15.3894 8.46657 15.1579 8.2482 14.8264C8.02982 14.4948 7.95179 14.0902 8.03119 13.7012V13.7ZM8.03119 18.79C8.11059 18.404 8.33866 18.0648 8.66612 17.8457C8.99358 17.6265 9.39412 17.545 9.78119 17.6187L11.0449 17.8687C11.4346 17.9483 11.7767 18.1792 11.9961 18.5109C12.2155 18.8426 12.2942 19.2478 12.2149 19.6375C12.1755 19.831 12.0982 20.0147 11.9875 20.1783C11.8769 20.3418 11.735 20.4819 11.5701 20.5904C11.4052 20.699 11.2205 20.774 11.0266 20.811C10.8326 20.8481 10.6333 20.8464 10.4399 20.8062L9.18994 20.5562C8.80049 20.4762 8.45876 20.2448 8.23985 19.9129C8.02093 19.581 7.94273 19.1758 8.02244 18.7862L8.03119 18.79ZM23.9999 19.8875C23.9999 24.3287 20.4387 27.9675 16.0624 28C14.3499 28.0122 12.6786 27.4751 11.2937 26.4677C9.90877 25.4603 8.8832 24.0355 8.36744 22.4025C8.50999 22.4506 8.65524 22.4902 8.80244 22.5212L10.0524 22.7712C10.2832 22.8183 10.5182 22.8421 10.7537 22.8425C11.3697 22.8423 11.9748 22.6796 12.5078 22.3707C13.0407 22.0618 13.4827 21.6177 13.7891 21.0833C14.0955 20.5489 14.2555 19.9431 14.2527 19.3271C14.25 18.7111 14.0848 18.1067 13.7737 17.575C13.8724 17.5212 13.9699 17.4637 14.0637 17.4L14.0837 17.4325C14.3364 17.8172 14.663 18.1478 15.0446 18.4053C15.4261 18.6628 15.8549 18.842 16.3062 18.9325L17.0962 19.09C16.9465 19.8127 16.9768 20.5612 17.1846 21.2694C17.3923 21.9776 17.7711 22.6239 18.2874 23.1512C18.4748 23.333 18.7258 23.4343 18.9869 23.4335C19.248 23.4326 19.4983 23.3298 19.6846 23.1468C19.8708 22.9639 19.9781 22.7153 19.9835 22.4543C19.989 22.1933 19.8921 21.9406 19.7137 21.75C19.3399 21.3686 19.098 20.8775 19.0236 20.3487C18.9491 19.8198 19.046 19.281 19.2999 18.8112C19.3746 18.6736 19.4159 18.5204 19.4206 18.3639C19.4252 18.2074 19.3931 18.052 19.3267 17.9102C19.2603 17.7684 19.1615 17.6442 19.0383 17.5475C18.9151 17.4509 18.771 17.3845 18.6174 17.3537L16.6999 16.97C16.3105 16.8902 15.9687 16.6591 15.7496 16.3275C15.5304 15.9958 15.4519 15.5908 15.5312 15.2012C15.5707 15.008 15.6479 14.8245 15.7584 14.6612C15.8688 14.4978 16.0105 14.3579 16.1751 14.2493C16.3397 14.1408 16.5241 14.0657 16.7178 14.0285C16.9115 13.9913 17.1106 13.9927 17.3037 14.0325L19.9799 14.5675C21.1123 14.7962 22.131 15.4091 22.8635 16.3025C23.596 17.1958 23.9975 18.3147 23.9999 19.47V19.8875ZM24.9487 5.8875L22.8712 13.6375C22.1138 13.1319 21.2643 12.7802 20.3712 12.6025L20.0587 12.54L22.0499 5.11375C22.0986 4.92096 22.1851 4.73976 22.3044 4.58069C22.4236 4.42162 22.5734 4.28786 22.7448 4.18718C22.9163 4.0865 23.106 4.02091 23.3031 3.99423C23.5001 3.96754 23.7005 3.9803 23.8925 4.03175C24.0846 4.0832 24.2645 4.17233 24.4218 4.29394C24.5791 4.41555 24.7107 4.56722 24.8088 4.74013C24.907 4.91304 24.9698 5.10375 24.9936 5.30115C25.0174 5.49855 25.0017 5.69871 24.9474 5.89L24.9487 5.8875Z" fill="#343330"/>
</svg>
