<svg width="32" height="32" viewBox="0 0 32 32" fill="none" xmlns="http://www.w3.org/2000/svg">
<path d="M7.00007 9.5C7.00007 7.51088 7.79025 5.60322 9.19677 4.1967C10.6033 2.79018 12.5109 2 14.5001 2C16.4892 2 18.3969 2.79018 19.8034 4.1967C21.2099 5.60322 22.0001 7.51088 22.0001 9.5C22.0001 9.76522 21.8947 10.0196 21.7072 10.2071C21.5196 10.3946 21.2653 10.5 21.0001 10.5C20.7349 10.5 20.4805 10.3946 20.293 10.2071C20.1054 10.0196 20.0001 9.76522 20.0001 9.5C20.0001 8.04131 19.4206 6.64236 18.3892 5.61091C17.3577 4.57946 15.9588 4 14.5001 4C13.0414 4 11.6424 4.57946 10.611 5.61091C9.57954 6.64236 9.00007 8.04131 9.00007 9.5C9.00007 9.76522 8.89472 10.0196 8.70718 10.2071C8.51964 10.3946 8.26529 10.5 8.00007 10.5C7.73486 10.5 7.4805 10.3946 7.29297 10.2071C7.10543 10.0196 7.00007 9.76522 7.00007 9.5ZM24.5001 15C23.9167 14.9994 23.3425 15.1451 22.8301 15.4237C22.6769 14.9499 22.4244 14.5141 22.0894 14.1456C21.7544 13.7771 21.3447 13.4844 20.8875 13.2869C20.4303 13.0894 19.9363 12.9918 19.4383 13.0005C18.9404 13.0092 18.4501 13.1241 18.0001 13.3375V9.5C18.0001 8.57174 17.6313 7.6815 16.9749 7.02513C16.3186 6.36875 15.4283 6 14.5001 6C13.5718 6 12.6816 6.36875 12.0252 7.02513C11.3688 7.6815 11.0001 8.57174 11.0001 9.5V19.5L10.5226 18.7337C10.0556 17.9313 9.28903 17.3472 8.39144 17.11C7.49384 16.8728 6.53877 17.0018 5.73632 17.4688C4.93388 17.9357 4.34979 18.7023 4.11256 19.5999C3.87532 20.4975 4.00438 21.4526 4.47132 22.255L8.13632 28.505C8.19779 28.6267 8.2835 28.7346 8.3882 28.822C8.49289 28.9094 8.61435 28.9744 8.7451 29.0131C8.87586 29.0518 9.01315 29.0634 9.14854 29.0471C9.28393 29.0308 9.41455 28.987 9.53238 28.9183C9.65021 28.8497 9.75275 28.7576 9.8337 28.6479C9.91465 28.5382 9.97231 28.413 10.0031 28.2802C10.0339 28.1473 10.0372 28.0096 10.0129 27.8754C9.98847 27.7413 9.9369 27.6135 9.86132 27.5L6.20007 21.25C6.09728 21.0793 6.02954 20.8898 6.00081 20.6926C5.97208 20.4954 5.98293 20.2944 6.03274 20.1014C6.08254 19.9085 6.17029 19.7274 6.29087 19.5687C6.41145 19.4101 6.56244 19.277 6.73502 19.1773C6.90759 19.0777 7.0983 19.0134 7.29599 18.9883C7.49369 18.9632 7.69441 18.9777 7.88643 19.031C8.07845 19.0843 8.25792 19.1753 8.41436 19.2988C8.57081 19.4222 8.70108 19.5756 8.79757 19.75L8.81507 19.7787L11.1501 23.5287C11.2647 23.7137 11.4366 23.8563 11.6396 23.9347C11.8426 24.0132 12.0656 24.0233 12.2749 23.9635C12.4841 23.9037 12.6682 23.7772 12.799 23.6033C12.9299 23.4295 13.0005 23.2176 13.0001 23V9.5C13.0001 9.10218 13.1581 8.72064 13.4394 8.43934C13.7207 8.15804 14.1022 8 14.5001 8C14.8979 8 15.2794 8.15804 15.5607 8.43934C15.842 8.72064 16.0001 9.10218 16.0001 9.5V18C16.0001 18.2652 16.1054 18.5196 16.293 18.7071C16.4805 18.8946 16.7349 19 17.0001 19C17.2653 19 17.5196 18.8946 17.7072 18.7071C17.8947 18.5196 18.0001 18.2652 18.0001 18V16.5C18.0001 16.1022 18.1581 15.7206 18.4394 15.4393C18.7207 15.158 19.1022 15 19.5001 15C19.8979 15 20.2794 15.158 20.5607 15.4393C20.842 15.7206 21.0001 16.1022 21.0001 16.5V19C21.0001 19.2652 21.1054 19.5196 21.293 19.7071C21.4805 19.8946 21.7349 20 22.0001 20C22.2653 20 22.5196 19.8946 22.7072 19.7071C22.8947 19.5196 23.0001 19.2652 23.0001 19V18.5C23.0001 18.1022 23.1581 17.7206 23.4394 17.4393C23.7207 17.158 24.1022 17 24.5001 17C24.8979 17 25.2794 17.158 25.5607 17.4393C25.842 17.7206 26.0001 18.1022 26.0001 18.5V23C26.0001 25.7013 25.1126 27.5375 25.1051 27.5525C24.9866 27.7897 24.9672 28.0643 25.0511 28.3158C25.135 28.5673 25.3154 28.7752 25.5526 28.8937C25.6913 28.9639 25.8446 29.0003 26.0001 29C26.1859 29.0001 26.368 28.9485 26.5261 28.8509C26.6842 28.7533 26.8119 28.6136 26.8951 28.4475C26.9413 28.3563 28.0013 26.1975 28.0013 23V18.5C28.0013 18.0403 27.9108 17.585 27.7348 17.1603C27.5588 16.7356 27.3009 16.3497 26.9758 16.0247C26.6506 15.6997 26.2646 15.4419 25.8398 15.2661C25.4151 15.0902 24.9598 14.9998 24.5001 15Z" fill="#343330"/>
</svg>
