<svg width="32" height="32" viewBox="0 0 32 32" fill="none" xmlns="http://www.w3.org/2000/svg">
<path d="M23.5 11C22.981 10.9993 22.4684 11.115 22 11.3387V7.5C21.9998 6.89347 21.8421 6.29739 21.5422 5.7702C21.2422 5.24301 20.8105 4.80281 20.2892 4.49276C19.7679 4.1827 19.175 4.01344 18.5685 4.00156C17.9621 3.98968 17.363 4.1356 16.83 4.425C16.5734 3.63198 16.0422 2.95657 15.332 2.52029C14.6218 2.08401 13.7792 1.91551 12.9558 2.0451C12.1325 2.1747 11.3824 2.59388 10.8405 3.22722C10.2986 3.86057 10.0006 4.66649 10 5.5V6.33875C9.53164 6.11503 9.01905 5.99927 8.5 6C7.57174 6 6.6815 6.36875 6.02513 7.02513C5.36875 7.6815 5 8.57174 5 9.5V19C5 21.9174 6.15893 24.7153 8.22183 26.7782C10.2847 28.8411 13.0826 30 16 30C18.9174 30 21.7153 28.8411 23.7782 26.7782C25.8411 24.7153 27 21.9174 27 19V14.5C27 13.5717 26.6313 12.6815 25.9749 12.0251C25.3185 11.3687 24.4283 11 23.5 11ZM25 19C25 21.3869 24.0518 23.6761 22.364 25.364C20.6761 27.0518 18.3869 28 16 28C13.6131 28 11.3239 27.0518 9.63604 25.364C7.94821 23.6761 7 21.3869 7 19V9.5C7 9.10218 7.15804 8.72064 7.43934 8.43934C7.72064 8.15804 8.10218 8 8.5 8C8.89782 8 9.27936 8.15804 9.56066 8.43934C9.84196 8.72064 10 9.10218 10 9.5V14C10 14.2652 10.1054 14.5196 10.2929 14.7071C10.4804 14.8946 10.7348 15 11 15C11.2652 15 11.5196 14.8946 11.7071 14.7071C11.8946 14.5196 12 14.2652 12 14V5.5C12 5.10218 12.158 4.72064 12.4393 4.43934C12.7206 4.15804 13.1022 4 13.5 4C13.8978 4 14.2794 4.15804 14.5607 4.43934C14.842 4.72064 15 5.10218 15 5.5V13C15 13.2652 15.1054 13.5196 15.2929 13.7071C15.4804 13.8946 15.7348 14 16 14C16.2652 14 16.5196 13.8946 16.7071 13.7071C16.8946 13.5196 17 13.2652 17 13V7.5C17 7.10218 17.158 6.72064 17.4393 6.43934C17.7206 6.15804 18.1022 6 18.5 6C18.8978 6 19.2794 6.15804 19.5607 6.43934C19.842 6.72064 20 7.10218 20 7.5V15C20 15.2652 20.1054 15.5196 20.2929 15.7071C20.4804 15.8946 20.7348 16 21 16C21.2652 16 21.5196 15.8946 21.7071 15.7071C21.8946 15.5196 22 15.2652 22 15V14.5C22 14.1022 22.158 13.7206 22.4393 13.4393C22.7206 13.158 23.1022 13 23.5 13C23.8978 13 24.2794 13.158 24.5607 13.4393C24.842 13.7206 25 14.1022 25 14.5V19ZM17.5 21C17.5 21.2967 17.412 21.5867 17.2472 21.8334C17.0824 22.08 16.8481 22.2723 16.574 22.3858C16.2999 22.4993 15.9983 22.5291 15.7074 22.4712C15.4164 22.4133 15.1491 22.2704 14.9393 22.0607C14.7296 21.8509 14.5867 21.5836 14.5288 21.2926C14.4709 21.0017 14.5006 20.7001 14.6142 20.426C14.7277 20.1519 14.92 19.9176 15.1666 19.7528C15.4133 19.588 15.7033 19.5 16 19.5C16.3978 19.5 16.7794 19.658 17.0607 19.9393C17.342 20.2206 17.5 20.6022 17.5 21ZM16 16C11.435 16 9.19875 20.3675 9.105 20.5525C9.03548 20.6914 8.99928 20.8446 8.99928 21C8.99928 21.1554 9.03548 21.3086 9.105 21.4475C9.19875 21.6325 11.435 26 16 26C20.565 26 22.8013 21.6325 22.895 21.4475C22.9645 21.3086 23.0007 21.1554 23.0007 21C23.0007 20.8446 22.9645 20.6914 22.895 20.5525C22.8013 20.3675 20.565 16 16 16ZM16 24C13.4213 24 11.775 21.935 11.1625 21C11.775 20.065 13.4213 18 16 18C18.5787 18 20.2262 20.0662 20.8375 21C20.225 21.935 18.5787 24 16 24Z" fill="#343330"/>
</svg>
