<svg width="32" height="32" viewBox="0 0 32 32" fill="none" xmlns="http://www.w3.org/2000/svg">
<path d="M25 10H23V8C22.9991 7.1879 22.751 6.39531 22.2887 5.72762C21.8265 5.05992 21.1719 4.54874 20.4121 4.26205C19.6523 3.97536 18.8232 3.92673 18.0351 4.12263C17.247 4.31853 16.5372 4.74968 16 5.35875C15.4881 4.77853 14.8188 4.35924 14.0734 4.1517C13.328 3.94416 12.5384 3.95728 11.8003 4.18948C11.0621 4.42167 10.4072 4.86296 9.91484 5.45987C9.42248 6.05679 9.11381 6.7837 9.02625 7.5525C8.41873 7.19557 7.72771 7.00545 7.02311 7.00138C6.31851 6.99731 5.62534 7.17943 5.01374 7.52932C4.40214 7.8792 3.89381 8.38444 3.5402 8.99389C3.18658 9.60335 3.00023 10.2954 3 11V16C3 19.4478 4.36964 22.7544 6.80761 25.1924C9.24558 27.6304 12.5522 29 16 29C19.4478 29 22.7544 27.6304 25.1924 25.1924C27.6304 22.7544 29 19.4478 29 16V14C29 12.9391 28.5786 11.9217 27.8284 11.1716C27.0783 10.4214 26.0609 10 25 10ZM19 6C19.5304 6 20.0391 6.21072 20.4142 6.58579C20.7893 6.96086 21 7.46957 21 8V10H17V8C17 7.46957 17.2107 6.96086 17.5858 6.58579C17.9609 6.21072 18.4696 6 19 6ZM11 8C11 7.46957 11.2107 6.96086 11.5858 6.58579C11.9609 6.21072 12.4696 6 13 6C13.5304 6 14.0391 6.21072 14.4142 6.58579C14.7893 6.96086 15 7.46957 15 8V13C15 13.5304 14.7893 14.0391 14.4142 14.4142C14.0391 14.7893 13.5304 15 13 15C12.4696 15 11.9609 14.7893 11.5858 14.4142C11.2107 14.0391 11 13.5304 11 13V8ZM5 11C5 10.4696 5.21071 9.96086 5.58579 9.58579C5.96086 9.21072 6.46957 9 7 9C7.53043 9 8.03914 9.21072 8.41421 9.58579C8.78929 9.96086 9 10.4696 9 11V13C9 13.5304 8.78929 14.0391 8.41421 14.4142C8.03914 14.7893 7.53043 15 7 15C6.46957 15 5.96086 14.7893 5.58579 14.4142C5.21071 14.0391 5 13.5304 5 13V11ZM27 16C27 18.8768 25.8729 21.639 23.8606 23.6947C21.8482 25.7504 19.1105 26.936 16.2344 26.9973C13.3583 27.0586 10.5727 25.9908 8.47449 24.0227C6.37633 22.0546 5.13264 19.3429 5.01 16.4688C5.80932 16.9285 6.74315 17.0972 7.65282 16.9464C8.56248 16.7955 9.39186 16.3344 10 15.6413C10.6892 16.4265 11.6588 16.9103 12.7007 16.9886C13.7426 17.0669 14.7737 16.7335 15.5725 16.06C15.9322 16.6562 16.4405 17.1489 17.0475 17.49C16.4041 18.0521 15.8885 18.7453 15.5353 19.5233C15.1822 20.3012 14.9996 21.1457 15 22C15 22.2652 15.1054 22.5196 15.2929 22.7071C15.4804 22.8946 15.7348 23 16 23C16.2652 23 16.5196 22.8946 16.7071 22.7071C16.8946 22.5196 17 22.2652 17 22C17 20.9391 17.4214 19.9217 18.1716 19.1716C18.9217 18.4214 19.9391 18 21 18C21.2652 18 21.5196 17.8946 21.7071 17.7071C21.8946 17.5196 22 17.2652 22 17C22 16.7348 21.8946 16.4804 21.7071 16.2929C21.5196 16.1054 21.2652 16 21 16H19C18.4696 16 17.9609 15.7893 17.5858 15.4142C17.2107 15.0391 17 14.5304 17 14V12H25C25.5304 12 26.0391 12.2107 26.4142 12.5858C26.7893 12.9609 27 13.4696 27 14V16Z" fill="#343330"/>
</svg>
