<svg width="32" height="32" viewBox="0 0 32 32" fill="none" xmlns="http://www.w3.org/2000/svg">
<path d="M29.415 22.5L24.885 17.9688L20.3275 2.9325C20.1979 2.50435 19.9648 2.11475 19.6488 1.79821C19.3327 1.48167 18.9434 1.24797 18.5155 1.1178C18.0875 0.987635 17.6341 0.965022 17.1953 1.05197C16.7565 1.13891 16.3459 1.33273 16 1.61625C15.654 1.33273 15.2434 1.13891 14.8046 1.05197C14.3658 0.965022 13.9124 0.987635 13.4844 1.1178C13.0565 1.24797 12.6672 1.48167 12.3512 1.79821C12.0351 2.11475 11.802 2.50435 11.6725 2.9325L7.11496 17.97L2.58496 22.5C2.21017 22.875 1.99963 23.3835 1.99963 23.9137C1.99963 24.444 2.21017 24.9525 2.58496 25.3275L6.67121 29.4137C6.85693 29.5995 7.07743 29.7469 7.32011 29.8474C7.56279 29.948 7.8229 29.9997 8.08558 29.9997C8.34826 29.9997 8.60837 29.948 8.85105 29.8474C9.09374 29.7469 9.31423 29.5995 9.49996 29.4137L15.535 23.375C15.7023 23.2073 15.8576 23.0281 16 22.8388C16.1423 23.0281 16.2977 23.2073 16.465 23.375L22.5 29.415C22.6857 29.6008 22.9062 29.7481 23.1489 29.8487C23.3915 29.9492 23.6516 30.0009 23.9143 30.0009C24.177 30.0009 24.4371 29.9492 24.6798 29.8487C24.9225 29.7481 25.143 29.6008 25.3287 29.415L29.415 25.3288C29.6007 25.143 29.7481 24.9225 29.8486 24.6798C29.9492 24.4372 30.0009 24.1771 30.0009 23.9144C30.0009 23.6517 29.9492 23.3916 29.8486 23.1489C29.7481 22.9062 29.6007 22.6857 29.415 22.5ZM8.08496 28L3.99996 23.915L5.58621 22.3288L9.67246 26.415L8.08496 28ZM15 19.8438C15.002 20.2382 14.9256 20.6292 14.7754 20.9939C14.6252 21.3587 14.4041 21.6901 14.125 21.9688L11.085 25L6.99996 20.915L8.70621 19.2075C8.82265 19.091 8.90852 18.9476 8.95621 18.79L13.5812 3.5125C13.6281 3.3425 13.7356 3.19553 13.8834 3.09928C14.0311 3.00303 14.209 2.96415 14.3835 2.98998C14.5579 3.0158 14.7169 3.10454 14.8305 3.23946C14.944 3.37439 15.0043 3.5462 15 3.7225V19.8438ZM17.875 21.9688C17.5958 21.6901 17.3747 21.3587 17.2245 20.9939C17.0743 20.6292 16.998 20.2382 17 19.8438V3.71875C17 3.54556 17.0623 3.37814 17.1754 3.24701C17.2885 3.11587 17.445 3.02973 17.6163 3.00428C17.7876 2.97883 17.9624 3.01577 18.1087 3.10837C18.2551 3.20096 18.3633 3.34305 18.4137 3.50875L23.0387 18.7862C23.0864 18.9439 23.1723 19.0873 23.2887 19.2038L25.1 21.015L20.925 25.015L17.875 21.9688ZM23.915 28L22.345 26.4287L26.5187 22.4287L28 23.915L23.915 28Z" fill="#343330"/>
</svg>
