<svg width="32" height="32" viewBox="0 0 32 32" fill="none" xmlns="http://www.w3.org/2000/svg">
<path d="M23.5 5.99999C22.9809 5.99926 22.4683 6.11502 22 6.33874V5.49999C22.0003 4.66581 21.7026 3.85893 21.1607 3.22478C20.6187 2.59062 19.8681 2.17089 19.044 2.04121C18.22 1.91154 17.3767 2.08045 16.6662 2.5175C15.9557 2.95456 15.4246 3.63102 15.1687 4.42499C14.6357 4.13589 14.0368 3.99022 13.4305 4.00225C12.8243 4.01428 12.2316 4.1836 11.7105 4.49362C11.1894 4.80364 10.7577 5.24372 10.4579 5.77074C10.158 6.29776 10.0002 6.89364 9.99996 7.49999V15.5L9.52246 14.7337C9.05866 13.9334 8.29687 13.3491 7.40359 13.1088C6.51031 12.8684 5.5582 12.9914 4.75537 13.451C3.95255 13.9106 3.3643 14.6693 3.11922 15.5613C2.87414 16.4533 2.99215 17.406 3.44746 18.2112C5.44746 22.4325 7.06371 25.4262 8.91246 27.2975C10.78 29.1925 12.9 30 16 30C18.9163 29.9967 21.7123 28.8367 23.7745 26.7745C25.8367 24.7123 26.9966 21.9164 27 19V9.49999C27 8.57174 26.6312 7.6815 25.9748 7.02512C25.3185 6.36874 24.4282 5.99999 23.5 5.99999ZM25 19C24.9973 21.3861 24.0483 23.6738 22.361 25.361C20.6737 27.0483 18.3861 27.9973 16 28C13.4525 28 11.8112 27.39 10.3337 25.8937C8.67996 24.2175 7.15746 21.375 5.23746 17.3225C5.22621 17.2977 5.21369 17.2735 5.19996 17.25C5.00105 16.9054 4.94718 16.4959 5.05021 16.1115C5.15323 15.7272 5.40472 15.3995 5.74933 15.2006C6.09395 15.0017 6.50347 14.9478 6.8878 15.0509C7.27213 15.1539 7.5998 15.4054 7.79871 15.75C7.8038 15.76 7.80965 15.7696 7.81621 15.7787L10.15 19.5287C10.2646 19.7137 10.4365 19.8563 10.6395 19.9347C10.8425 20.0132 11.0655 20.0233 11.2748 19.9635C11.484 19.9037 11.6681 19.7772 11.7989 19.6033C11.9298 19.4295 12.0004 19.2176 12 19V7.49999C12 7.10217 12.158 6.72064 12.4393 6.43933C12.7206 6.15803 13.1021 5.99999 13.5 5.99999C13.8978 5.99999 14.2793 6.15803 14.5606 6.43933C14.8419 6.72064 15 7.10217 15 7.49999V15C15 15.2652 15.1053 15.5196 15.2929 15.7071C15.4804 15.8946 15.7347 16 16 16C16.2652 16 16.5195 15.8946 16.7071 15.7071C16.8946 15.5196 17 15.2652 17 15V5.49999C17 5.10217 17.158 4.72064 17.4393 4.43933C17.7206 4.15803 18.1021 3.99999 18.5 3.99999C18.8978 3.99999 19.2793 4.15803 19.5606 4.43933C19.8419 4.72064 20 5.10217 20 5.49999V15C20 15.2652 20.1053 15.5196 20.2929 15.7071C20.4804 15.8946 20.7347 16 21 16C21.2652 16 21.5195 15.8946 21.7071 15.7071C21.8946 15.5196 22 15.2652 22 15V9.49999C22 9.10217 22.158 8.72064 22.4393 8.43933C22.7206 8.15803 23.1021 7.99999 23.5 7.99999C23.8978 7.99999 24.2793 8.15803 24.5606 8.43933C24.8419 8.72064 25 9.10217 25 9.49999V19Z" fill="#343330"/>
</svg>
