<svg width="32" height="32" viewBox="0 0 32 32" fill="none" xmlns="http://www.w3.org/2000/svg">
<path d="M28.7913 17.6325C28.4193 17.3459 27.9861 17.1491 27.5256 17.0574C27.0651 16.9657 26.5896 16.9816 26.1362 17.1038L20.9062 18.3062C21.0279 17.7922 21.0317 17.2574 20.9172 16.7417C20.8028 16.226 20.5731 15.7429 20.2454 15.3287C19.9177 14.9144 19.5005 14.5796 19.0251 14.3495C18.5496 14.1194 18.0282 13.9999 17.5 14H11.2425C10.717 13.9987 10.1964 14.1015 9.71092 14.3025C9.22539 14.5036 8.78451 14.7988 8.41375 15.1713L5.58625 18H2C1.46957 18 0.960859 18.2107 0.585786 18.5858C0.210714 18.9609 0 19.4696 0 20L0 25C0 25.5304 0.210714 26.0391 0.585786 26.4142C0.960859 26.7893 1.46957 27 2 27H15C15.0818 27 15.1632 26.99 15.2425 26.97L23.2425 24.97C23.2935 24.9579 23.3433 24.9411 23.3913 24.92L28.25 22.8525L28.305 22.8275C28.772 22.5942 29.1718 22.2458 29.4669 21.8152C29.7621 21.3846 29.9427 20.886 29.9918 20.3663C30.041 19.8466 29.957 19.3229 29.7478 18.8447C29.5387 18.3664 29.2112 17.9492 28.7962 17.6325H28.7913ZM2 20H5V25H2V20ZM27.4287 21.0263L22.6787 23.0487L14.875 25H7V19.4137L9.82875 16.5863C10.0138 16.3997 10.2341 16.2518 10.4768 16.1512C10.7195 16.0506 10.9798 15.9992 11.2425 16H17.5C17.8978 16 18.2794 16.158 18.5607 16.4393C18.842 16.7206 19 17.1022 19 17.5C19 17.8978 18.842 18.2794 18.5607 18.5607C18.2794 18.842 17.8978 19 17.5 19H14C13.7348 19 13.4804 19.1054 13.2929 19.2929C13.1054 19.4804 13 19.7348 13 20C13 20.2652 13.1054 20.5196 13.2929 20.7071C13.4804 20.8946 13.7348 21 14 21H18C18.0753 20.9998 18.1503 20.9914 18.2237 20.975L26.5987 19.0487L26.6375 19.0387C26.8932 18.9678 27.166 18.9939 27.4036 19.112C27.6412 19.2301 27.8267 19.4319 27.9245 19.6786C28.0222 19.9253 28.0253 20.1994 27.9331 20.4482C27.8409 20.697 27.6599 20.9029 27.425 21.0263H27.4287ZM19.2925 9.7075C19.1049 9.51986 18.9994 9.26536 18.9994 9C18.9994 8.73464 19.1049 8.48014 19.2925 8.2925C19.4801 8.10486 19.7346 7.99944 20 7.99944C20.2654 7.99944 20.5199 8.10486 20.7075 8.2925L23 10.5863V3C23 2.73478 23.1054 2.48043 23.2929 2.29289C23.4804 2.10536 23.7348 2 24 2C24.2652 2 24.5196 2.10536 24.7071 2.29289C24.8946 2.48043 25 2.73478 25 3V10.5863L27.2925 8.2925C27.4801 8.10486 27.7346 7.99944 28 7.99944C28.2654 7.99944 28.5199 8.10486 28.7075 8.2925C28.8951 8.48014 29.0006 8.73464 29.0006 9C29.0006 9.26536 28.8951 9.51986 28.7075 9.7075L24.7075 13.7075C24.6146 13.8005 24.5043 13.8742 24.3829 13.9246C24.2615 13.9749 24.1314 14.0008 24 14.0008C23.8686 14.0008 23.7385 13.9749 23.6171 13.9246C23.4957 13.8742 23.3854 13.8005 23.2925 13.7075L19.2925 9.7075Z" fill="#343330"/>
</svg>
