<svg width="32" height="32" viewBox="0 0 32 32" fill="none" xmlns="http://www.w3.org/2000/svg">
<path d="M28.7913 17.6325C28.4191 17.3462 27.986 17.1495 27.5255 17.0578C27.0651 16.9661 26.5897 16.9818 26.1362 17.1037L20.9062 18.3062C21.0279 17.7922 21.0317 17.2573 20.9172 16.7417C20.8028 16.226 20.5731 15.7429 20.2454 15.3287C19.9177 14.9144 19.5005 14.5796 19.0251 14.3495C18.5496 14.1194 18.0282 13.9999 17.5 14H11.2425C10.717 13.9987 10.1964 14.1015 9.71092 14.3025C9.22539 14.5036 8.78451 14.7988 8.41375 15.1712L5.58625 18H2C1.46957 18 0.960859 18.2107 0.585786 18.5858C0.210714 18.9609 0 19.4696 0 20L0 25C0 25.5304 0.210714 26.0391 0.585786 26.4142C0.960859 26.7893 1.46957 27 2 27H15C15.0818 27 15.1632 26.99 15.2425 26.97L23.2425 24.97C23.2938 24.9577 23.344 24.9409 23.3925 24.92L28.25 22.8525L28.305 22.8275C28.772 22.5942 29.1718 22.2458 29.4669 21.8152C29.7621 21.3846 29.9427 20.886 29.9918 20.3663C30.041 19.8466 29.957 19.3229 29.7478 18.8447C29.5387 18.3664 29.2112 17.9492 28.7962 17.6325H28.7913ZM5 25H2V20H5V25ZM27.4287 21.0262L22.6787 23.0487L14.875 25H7V19.4137L9.82875 16.5862C10.0138 16.3997 10.2341 16.2518 10.4768 16.1512C10.7195 16.0505 10.9798 15.9992 11.2425 16H17.5C17.8978 16 18.2794 16.158 18.5607 16.4393C18.842 16.7206 19 17.1022 19 17.5C19 17.8978 18.842 18.2793 18.5607 18.5607C18.2794 18.842 17.8978 19 17.5 19H14C13.7348 19 13.4804 19.1053 13.2929 19.2929C13.1054 19.4804 13 19.7348 13 20C13 20.2652 13.1054 20.5196 13.2929 20.7071C13.4804 20.8946 13.7348 21 14 21H18C18.0753 20.9998 18.1503 20.9914 18.2237 20.975L26.5987 19.0487L26.6375 19.0387C26.8932 18.9678 27.166 18.9938 27.4036 19.112C27.6412 19.2301 27.8267 19.4319 27.9245 19.6786C28.0222 19.9252 28.0253 20.1994 27.9331 20.4481C27.8409 20.6969 27.6599 20.9028 27.425 21.0262H27.4287ZM19.2925 7.70749C19.1995 7.61462 19.1258 7.50433 19.0754 7.38293C19.0251 7.26154 18.9992 7.13141 18.9992 6.99999C18.9992 6.86858 19.0251 6.73845 19.0754 6.61705C19.1258 6.49566 19.1995 6.38537 19.2925 6.29249L23.2925 2.29249C23.3854 2.19952 23.4957 2.12576 23.6171 2.07543C23.7385 2.02511 23.8686 1.99921 24 1.99921C24.1314 1.99921 24.2615 2.02511 24.3829 2.07543C24.5043 2.12576 24.6146 2.19952 24.7075 2.29249L28.7075 6.29249C28.8004 6.3854 28.8741 6.4957 28.9244 6.6171C28.9747 6.73849 29.0006 6.8686 29.0006 6.99999C29.0006 7.13139 28.9747 7.2615 28.9244 7.38289C28.8741 7.50428 28.8004 7.61458 28.7075 7.70749C28.6146 7.8004 28.5043 7.8741 28.3829 7.92439C28.2615 7.97467 28.1314 8.00055 28 8.00055C27.8686 8.00055 27.7385 7.97467 27.6171 7.92439C27.4957 7.8741 27.3854 7.8004 27.2925 7.70749L25 5.41374V13C25 13.2652 24.8946 13.5196 24.7071 13.7071C24.5196 13.8946 24.2652 14 24 14C23.7348 14 23.4804 13.8946 23.2929 13.7071C23.1054 13.5196 23 13.2652 23 13V5.41374L20.7075 7.70749C20.6146 7.80047 20.5043 7.87423 20.3829 7.92455C20.2615 7.97488 20.1314 8.00078 20 8.00078C19.8686 8.00078 19.7385 7.97488 19.6171 7.92455C19.4957 7.87423 19.3854 7.80047 19.2925 7.70749Z" fill="#343330"/>
</svg>
