<svg width="32" height="32" viewBox="0 0 32 32" fill="none" xmlns="http://www.w3.org/2000/svg">
<path d="M20 10C20 9.73478 20.1054 9.48043 20.2929 9.29289C20.4804 9.10536 20.7348 9 21 9H30C30.2652 9 30.5196 9.10536 30.7071 9.29289C30.8946 9.48043 31 9.73478 31 10C31 10.2652 30.8946 10.5196 30.7071 10.7071C30.5196 10.8946 30.2652 11 30 11H21C20.7348 11 20.4804 10.8946 20.2929 10.7071C20.1054 10.5196 20 10.2652 20 10ZM30 21H21C20.7348 21 20.4804 21.1054 20.2929 21.2929C20.1054 21.4804 20 21.7348 20 22C20 22.2652 20.1054 22.5196 20.2929 22.7071C20.4804 22.8946 20.7348 23 21 23H30C30.2652 23 30.5196 22.8946 30.7071 22.7071C30.8946 22.5196 31 22.2652 31 22C31 21.7348 30.8946 21.4804 30.7071 21.2929C30.5196 21.1054 30.2652 21 30 21ZM30 13H21C20.7348 13 20.4804 13.1054 20.2929 13.2929C20.1054 13.4804 20 13.7348 20 14C20 14.2652 20.1054 14.5196 20.2929 14.7071C20.4804 14.8946 20.7348 15 21 15H30C30.2652 15 30.5196 14.8946 30.7071 14.7071C30.8946 14.5196 31 14.2652 31 14C31 13.7348 30.8946 13.4804 30.7071 13.2929C30.5196 13.1054 30.2652 13 30 13ZM30 17H21C20.7348 17 20.4804 17.1054 20.2929 17.2929C20.1054 17.4804 20 17.7348 20 18C20 18.2652 20.1054 18.5196 20.2929 18.7071C20.4804 18.8946 20.7348 19 21 19H30C30.2652 19 30.5196 18.8946 30.7071 18.7071C30.8946 18.5196 31 18.2652 31 18C31 17.7348 30.8946 17.4804 30.7071 17.2929C30.5196 17.1054 30.2652 17 30 17ZM18 8V24C18 24.5304 17.7893 25.0391 17.4142 25.4142C17.0391 25.7893 16.5304 26 16 26H11C9.68034 26 8.37372 25.7389 7.15547 25.2316C5.93722 24.7243 4.83143 23.9808 3.90184 23.0442C2.97225 22.1075 2.23725 20.9961 1.73921 19.774C1.24117 18.5519 0.989938 17.2434 1 15.9237C1.04125 10.4525 5.5775 6 11.1125 6H16C16.5304 6 17.0391 6.21071 17.4142 6.58579C17.7893 6.96086 18 7.46957 18 8ZM16 8H11.1125C6.6725 8 3.0325 11.5613 3 15.9388C2.99192 16.9945 3.19288 18.0413 3.59129 19.019C3.98971 19.9967 4.57771 20.8859 5.32138 21.6352C6.06506 22.3846 6.9497 22.9794 7.92432 23.3852C8.89894 23.7911 9.94425 24 11 24H16V8Z" fill="#343330"/>
</svg>
