<svg width="32" height="32" viewBox="0 0 32 32" fill="none" xmlns="http://www.w3.org/2000/svg">
<path d="M24.0625 21.4337C25.327 20.3715 26.3372 19.0392 27.0187 17.5348C27.7001 16.0304 28.0354 14.3924 28 12.7412C27.875 7.02749 23.2987 2.31624 17.595 2.01624C16.1233 1.93614 14.6506 2.1526 13.2642 2.65276C11.8778 3.15292 10.6061 3.92658 9.52453 4.9278C8.44297 5.92902 7.57365 7.13737 6.96819 8.4811C6.36272 9.82483 6.03347 11.2765 5.99997 12.75L3.19372 18.1475C3.18247 18.17 3.17122 18.1925 3.16122 18.215C2.96003 18.6839 2.94569 19.212 3.12114 19.6912C3.29659 20.1704 3.64855 20.5643 4.10497 20.7925L4.13622 20.8062L6.99997 22.1175V26C6.99997 26.5304 7.21068 27.0391 7.58576 27.4142C7.96083 27.7893 8.46954 28 8.99997 28H15C15.2652 28 15.5195 27.8946 15.7071 27.7071C15.8946 27.5196 16 27.2652 16 27C16 26.7348 15.8946 26.4804 15.7071 26.2929C15.5195 26.1054 15.2652 26 15 26H8.99997V21.4762C9.00011 21.2846 8.94517 21.0969 8.84168 20.9356C8.73818 20.7742 8.5905 20.646 8.41622 20.5662L4.99997 19L7.88372 13.4575C7.95889 13.3166 7.99878 13.1596 7.99997 13C7.99968 10.9604 8.69216 8.98122 9.96395 7.38672C11.2357 5.79222 13.0114 4.67698 15 4.22374V6.17249C14.3328 6.40839 13.7704 6.87256 13.4123 7.48297C13.0543 8.09339 12.9235 8.81073 13.0432 9.50823C13.1628 10.2057 13.5252 10.8385 14.0663 11.2946C14.6074 11.7507 15.2923 12.0009 16 12.0009C16.7077 12.0009 17.3926 11.7507 17.9336 11.2946C18.4747 10.8385 18.8371 10.2057 18.9568 9.50823C19.0764 8.81073 18.9457 8.09339 18.5876 7.48297C18.2295 6.87256 17.6672 6.40839 17 6.17249V3.99999C17.1625 3.99999 17.325 3.99999 17.4875 4.01249C19.2608 4.11407 20.9649 4.73626 22.3864 5.80123C23.808 6.8662 24.8841 8.32668 25.48 9.99999H23C22.8533 9.99994 22.7084 10.0322 22.5755 10.0944C22.4426 10.1566 22.3251 10.2473 22.2312 10.36L19.0425 14.1875C18.3774 13.9397 17.6462 13.9351 16.9781 14.1744C16.3099 14.4138 15.748 14.8817 15.3916 15.4954C15.0352 16.1092 14.9073 16.8292 15.0306 17.5281C15.1538 18.227 15.5203 18.8598 16.0652 19.3146C16.61 19.7694 17.2981 20.0168 18.0078 20.0132C18.7175 20.0095 19.4031 19.755 19.9432 19.2946C20.4834 18.8343 20.8433 18.1977 20.9594 17.4976C21.0754 16.7974 20.9402 16.0788 20.5775 15.4687L23.4687 12H25.9425C25.9725 12.26 25.9908 12.5225 25.9975 12.7875C26.0286 14.2198 25.7187 15.639 25.0931 16.9278C24.4676 18.2167 23.5445 19.3383 22.4 20.2C22.2589 20.3057 22.1484 20.4468 22.0794 20.6091C22.0105 20.7713 21.9857 20.9488 22.0075 21.1237L23.0075 29.1237C23.0379 29.3652 23.1554 29.5874 23.3379 29.7484C23.5203 29.9095 23.7553 29.9985 23.9987 29.9987C24.0405 29.9987 24.0822 29.9962 24.1237 29.9912C24.2541 29.975 24.3799 29.9333 24.4942 29.8684C24.6084 29.8035 24.7087 29.7167 24.7893 29.6131C24.87 29.5094 24.9295 29.3909 24.9643 29.2642C24.9992 29.1376 25.0087 29.0053 24.9925 28.875L24.0625 21.4337ZM16 9.99999C15.8022 9.99999 15.6088 9.94134 15.4444 9.83146C15.28 9.72158 15.1518 9.5654 15.0761 9.38268C15.0004 9.19995 14.9806 8.99888 15.0192 8.8049C15.0578 8.61092 15.153 8.43274 15.2929 8.29289C15.4327 8.15303 15.6109 8.05779 15.8049 8.01921C15.9989 7.98062 16.1999 8.00043 16.3827 8.07611C16.5654 8.1518 16.7216 8.27997 16.8314 8.44442C16.9413 8.60887 17 8.80221 17 8.99999C17 9.26521 16.8946 9.51956 16.7071 9.7071C16.5195 9.89464 16.2652 9.99999 16 9.99999ZM18 18C17.8022 18 17.6088 17.9413 17.4444 17.8315C17.28 17.7216 17.1518 17.5654 17.0761 17.3827C17.0004 17.2 16.9806 16.9989 17.0192 16.8049C17.0578 16.6109 17.153 16.4327 17.2929 16.2929C17.4327 16.153 17.6109 16.0578 17.8049 16.0192C17.9989 15.9806 18.1999 16.0004 18.3827 16.0761C18.5654 16.1518 18.7216 16.28 18.8314 16.4444C18.9413 16.6089 19 16.8022 19 17C19 17.2652 18.8946 17.5196 18.7071 17.7071C18.5195 17.8946 18.2652 18 18 18Z" fill="#343330"/>
</svg>
