<svg width="32" height="32" viewBox="0 0 32 32" fill="none" xmlns="http://www.w3.org/2000/svg">
<path d="M27.875 7.12502C26.5164 5.76984 24.6765 5.00775 22.7576 5.00541C20.8387 5.00307 18.9969 5.76066 17.635 7.11252L16 8.63127L14.3637 7.10752C13.0022 5.74978 11.157 4.98852 9.2342 4.99122C7.31137 4.99391 5.46836 5.76034 4.11062 7.1219C2.75288 8.48345 1.99162 10.3286 1.99432 12.2514C1.99701 14.1743 2.76344 16.0173 4.12499 17.375L15.2937 28.7075C15.3868 28.802 15.4977 28.877 15.62 28.9283C15.7423 28.9795 15.8736 29.0058 16.0062 29.0058C16.1389 29.0058 16.2701 28.9795 16.3925 28.9283C16.5148 28.877 16.6257 28.802 16.7187 28.7075L27.875 17.375C29.2337 16.0155 29.9969 14.1721 29.9969 12.25C29.9969 10.3279 29.2337 8.48454 27.875 7.12502ZM26.4562 15.97L16 26.575L5.53749 15.96C4.55288 14.9754 3.99973 13.64 3.99973 12.2475C3.99973 10.8551 4.55288 9.51964 5.53749 8.53502C6.52211 7.55041 7.85754 6.99725 9.24999 6.99725C10.6425 6.99725 11.9779 7.55041 12.9625 8.53502L12.9875 8.56002L15.3187 10.7288C15.5038 10.901 15.7472 10.9967 16 10.9967C16.2528 10.9967 16.4962 10.901 16.6812 10.7288L19.0125 8.56002L19.0375 8.53502C20.0228 7.55107 21.3586 6.99882 22.751 6.99975C24.1435 7.00069 25.4785 7.55474 26.4625 8.54002C27.4464 9.5253 27.9987 10.8611 27.9978 12.2536C27.9968 13.646 27.4428 14.9811 26.4575 15.965L26.4562 15.97Z" fill="#343330"/>
</svg>
