<svg width="32" height="32" viewBox="0 0 32 32" fill="none" xmlns="http://www.w3.org/2000/svg">
<path d="M21.1838 7.09875C21.4445 7.05002 21.6752 6.8997 21.8251 6.68087C21.975 6.46204 22.0319 6.19262 21.9831 5.93188C21.9344 5.67113 21.7841 5.44043 21.5652 5.29052C21.3464 5.14061 21.077 5.08377 20.8162 5.1325C18.8025 5.51 17.125 6.5225 16 8C14.5925 6.125 12.33 5 9.75 5C7.69528 5.00232 5.72539 5.81958 4.27248 7.27248C2.81958 8.72539 2.00232 10.6953 2 12.75C2 21.5 14.9738 28.5837 15.5262 28.875C15.6716 28.9541 15.8345 28.9955 16 28.9955C16.1655 28.9955 16.3284 28.9541 16.4737 28.875C18.2676 27.8694 19.9844 26.7321 21.61 25.4725C21.7183 25.394 21.8097 25.2945 21.8788 25.18C21.948 25.0655 21.9935 24.9383 22.0126 24.806C22.0317 24.6736 22.0241 24.5387 21.9902 24.4093C21.9562 24.28 21.8967 24.1587 21.8151 24.0527C21.7335 23.9468 21.6314 23.8583 21.515 23.7925C21.3985 23.7266 21.2701 23.6848 21.1372 23.6696C21.0043 23.6543 20.8697 23.6658 20.7414 23.7034C20.613 23.7411 20.4936 23.8041 20.39 23.8888C19.1012 24.8813 17.89 25.685 17 26.2412V10.2125C17.73 8.59375 19.2425 7.4625 21.1838 7.09875ZM15 26.25C11.6975 24.1763 4 18.7137 4 12.75C4.00198 11.2256 4.60842 9.76423 5.68633 8.68633C6.76423 7.60842 8.22561 7.00198 9.75 7C12.1138 7 14.1075 8.2225 15 10.205V26.25ZM29.0688 13C29.0317 13.0019 28.9946 13.0019 28.9575 13C28.7116 12.9996 28.4744 12.9087 28.2913 12.7445C28.1082 12.5803 27.9921 12.3544 27.965 12.11C27.8728 11.2773 27.5994 10.4748 27.1638 9.75915C26.7282 9.04346 26.1411 8.43191 25.4438 7.9675C25.331 7.89608 25.2337 7.80282 25.1575 7.69321C25.0814 7.58359 25.028 7.45984 25.0004 7.32926C24.9728 7.19867 24.9717 7.06389 24.997 6.93285C25.0224 6.80181 25.0737 6.67717 25.148 6.56628C25.2222 6.45539 25.3179 6.36048 25.4294 6.28715C25.541 6.21383 25.666 6.16357 25.7973 6.13933C25.9285 6.1151 26.0633 6.11738 26.1936 6.14605C26.324 6.17472 26.4473 6.22919 26.5562 6.30625C27.4959 6.93238 28.2869 7.75679 28.8736 8.72148C29.4604 9.68616 29.8286 10.7677 29.9525 11.89C29.9678 12.021 29.957 12.1537 29.9208 12.2805C29.8846 12.4073 29.8237 12.5257 29.7416 12.6289C29.6594 12.732 29.5577 12.818 29.4422 12.8816C29.3268 12.9453 29.1998 12.9856 29.0688 13ZM28.8075 17.4525C28.0988 18.8737 27.065 20.3275 25.7337 21.7638C25.6459 21.8647 25.5386 21.947 25.4183 22.0057C25.298 22.0645 25.1672 22.0985 25.0335 22.1057C24.8998 22.1129 24.7661 22.0932 24.6402 22.0478C24.5142 22.0024 24.3987 21.9321 24.3005 21.8412C24.2022 21.7503 24.1232 21.6406 24.0681 21.5186C24.013 21.3966 23.983 21.2648 23.9798 21.131C23.9766 20.9971 24.0003 20.864 24.0495 20.7396C24.0987 20.6151 24.1724 20.5017 24.2663 20.4062C25.4675 19.1062 26.3913 17.8125 27.0163 16.56C27.0723 16.4384 27.1522 16.3293 27.2513 16.2391C27.3503 16.149 27.4664 16.0796 27.5928 16.0352C27.7191 15.9908 27.8531 15.9722 27.9868 15.9806C28.1204 15.9889 28.251 16.024 28.3709 16.0838C28.4907 16.1436 28.5973 16.2268 28.6844 16.3286C28.7714 16.4304 28.8371 16.5486 28.8776 16.6763C28.9181 16.8039 28.9325 16.9384 28.9201 17.0718C28.9076 17.2051 28.8685 17.3346 28.805 17.4525H28.8075Z" fill="#343330"/>
</svg>
