<svg width="32" height="32" viewBox="0 0 32 32" fill="none" xmlns="http://www.w3.org/2000/svg">
<path d="M27.875 7.125C26.5149 5.76835 24.6726 5.00586 22.7515 5.00445C20.8305 5.00305 18.9871 5.76284 17.625 7.1175L16 8.68375L14.375 7.11375C13.0149 5.75452 11.1706 4.99124 9.24778 4.99182C7.32495 4.99241 5.4811 5.75681 4.12187 7.11688C2.76263 8.47694 1.99935 10.3213 1.99994 12.2441C2.00053 14.1669 2.76493 16.0108 4.12499 17.37L15.2962 28.7025C15.3893 28.797 15.5002 28.872 15.6225 28.9232C15.7448 28.9745 15.8761 29.0008 16.0087 29.0008C16.1414 29.0008 16.2726 28.9745 16.395 28.9232C16.5173 28.872 16.6282 28.797 16.7212 28.7025L27.875 17.375C29.231 16.014 29.9923 14.1712 29.9923 12.25C29.9923 10.3288 29.231 8.48597 27.875 7.125ZM26.455 15.97L16 26.575L5.53624 15.96C4.55163 14.9752 3.99854 13.6396 3.99866 12.2471C3.99878 10.8545 4.55209 9.51899 5.53687 8.53438C6.52165 7.54976 7.85724 6.99667 9.24981 6.99679C10.6424 6.99691 11.9779 7.55022 12.9625 8.535L12.975 8.5475L14.5587 10.0713L13.3087 11.2775C13.213 11.3697 13.1365 11.48 13.0839 11.6021C13.0313 11.7241 13.0035 11.8555 13.0022 11.9884C13.001 12.1213 13.0262 12.2531 13.0765 12.3762C13.1267 12.4992 13.201 12.611 13.295 12.705L16.5862 16L15.2925 17.2938C15.1049 17.4814 14.9994 17.7359 14.9994 18.0013C14.9994 18.2666 15.1049 18.5211 15.2925 18.7088C15.4801 18.8964 15.7346 19.0018 16 19.0018C16.2654 19.0018 16.5199 18.8964 16.7075 18.7088L18.7075 16.7088C18.8949 16.5212 19.0002 16.267 19.0002 16.0019C19.0002 15.7368 18.8949 15.4825 18.7075 15.295L15.4275 12.0113L19.025 8.5475L19.0387 8.535C19.5266 8.04771 20.1057 7.66129 20.7429 7.39779C21.3801 7.1343 22.0629 6.99888 22.7525 6.99929C23.442 6.9997 24.1247 7.13591 24.7616 7.40016C25.3985 7.66441 25.9771 8.05152 26.4644 8.53938C26.9517 9.02724 27.3381 9.6063 27.6016 10.2435C27.8651 10.8807 28.0005 11.5636 28.0001 12.2531C27.9997 12.9426 27.8635 13.6253 27.5992 14.2622C27.335 14.8991 26.9479 15.4777 26.46 15.965L26.455 15.97Z" fill="#343330"/>
</svg>
