<svg width="32" height="32" viewBox="0 0 32 32" fill="none" xmlns="http://www.w3.org/2000/svg">
<path d="M22.25 5.00003C21.2319 4.99731 20.2233 5.19653 19.2826 5.58618C18.342 5.97582 17.488 6.54814 16.77 7.27003L16 8.04003L15.23 7.27003C14.1461 6.1862 12.7652 5.44811 11.2619 5.14909C9.75858 4.85007 8.20033 5.00354 6.78422 5.59011C5.36812 6.17667 4.15774 7.16999 3.30616 8.44444C2.45458 9.71889 2.00003 11.2172 2 12.75C2 21.5 14.9738 28.5838 15.5262 28.875C15.6719 28.9534 15.8346 28.9944 16 28.9944C16.1654 28.9944 16.3281 28.9534 16.4737 28.875C17.0262 28.5838 30 21.5 30 12.75C29.9977 10.6953 29.1804 8.72541 27.7275 7.27251C26.2746 5.8196 24.3047 5.00234 22.25 5.00003ZM16 26.85C13.7175 25.52 4 19.4613 4 12.75C3.99985 11.6127 4.337 10.5008 4.9688 9.55509C5.60061 8.60937 6.4987 7.87226 7.54947 7.43699C8.60024 7.00172 9.75649 6.88785 10.872 7.10978C11.9875 7.33171 13.0121 7.87947 13.8162 8.68378L14.5863 9.45378L13.2925 10.75C13.1051 10.9375 12.9998 11.1918 12.9998 11.4569C12.9998 11.722 13.1051 11.9763 13.2925 12.1638L16.3587 15.23L14.2925 17.295C14.1049 17.4827 13.9994 17.7372 13.9994 18.0025C13.9994 18.2679 14.1049 18.5224 14.2925 18.71C14.4801 18.8977 14.7346 19.0031 15 19.0031C15.2654 19.0031 15.5199 18.8977 15.7075 18.71L18.48 15.9363C18.6674 15.7488 18.7727 15.4945 18.7727 15.2294C18.7727 14.9643 18.6674 14.71 18.48 14.5225L15.4137 11.4538L18.1838 8.68378C18.9879 7.87947 20.0125 7.33171 21.128 7.10978C22.2435 6.88785 23.3998 7.00172 24.4505 7.43699C25.5013 7.87226 26.3994 8.60937 27.0312 9.55509C27.663 10.5008 28.0002 11.6127 28 12.75C28 19.4513 18.28 25.5188 16 26.85Z" fill="#343330"/>
</svg>
