<svg width="32" height="32" viewBox="0 0 32 32" fill="none" xmlns="http://www.w3.org/2000/svg">
<path d="M25.1925 6.80747C22.7545 4.36947 19.4478 2.99982 16 2.99982C12.5521 2.99982 9.24548 4.36947 6.80748 6.80748C4.36947 9.24548 2.99982 12.5521 2.99982 16C2.99982 19.4478 4.36947 22.7545 6.80747 25.1925C9.24548 27.6305 12.5521 29.0001 16 29.0001C19.4478 29.0001 22.7545 27.6305 25.1925 25.1925C27.6305 22.7545 29.0001 19.4478 29.0001 16C29.0001 12.5521 27.6305 9.24548 25.1925 6.80747ZM12 26.25V19H20V26.25C17.4271 27.25 14.5729 27.25 12 26.25ZM18 17H14V12.6175L18 10.6175V17ZM23.7775 23.7775C23.2368 24.3192 22.641 24.8031 22 25.2212V19C22 18.4695 21.7893 17.9608 21.4142 17.5858C21.0391 17.2107 20.5304 17 20 17V8.99998C20.0001 8.82943 19.9566 8.66169 19.8736 8.51269C19.7906 8.3637 19.6709 8.2384 19.5259 8.14871C19.3808 8.05902 19.2152 8.00792 19.0449 8.00027C18.8745 7.99261 18.705 8.02866 18.5525 8.10497L12.5525 11.105C12.3863 11.1881 12.2466 11.3159 12.1491 11.474C12.0515 11.6321 11.9998 11.8142 12 12V17C11.4695 17 10.9608 17.2107 10.5858 17.5858C10.2107 17.9608 9.99998 18.4695 9.99998 19V25.2212C8.09433 23.9816 6.61957 22.182 5.77855 20.0699C4.93752 17.9578 4.77154 15.6371 5.30345 13.4268C5.83535 11.2165 7.039 9.22536 8.74884 7.72715C10.4587 6.22895 12.5907 5.29731 14.8517 5.06038C17.1127 4.82345 19.3915 5.29287 21.3748 6.40407C23.3581 7.51527 24.9484 9.21366 25.9269 11.2656C26.9055 13.3176 27.2242 15.6224 26.8393 17.8629C26.4544 20.1035 25.3847 22.1697 23.7775 23.7775Z" fill="#343330"/>
</svg>
