<svg width="32" height="32" viewBox="0 0 32 32" fill="none" xmlns="http://www.w3.org/2000/svg">
<path d="M31.7075 13.2925C31.6146 13.1995 31.5043 13.1258 31.3829 13.0754C31.2615 13.0251 31.1314 12.9992 31 12.9992C30.8686 12.9992 30.7384 13.0251 30.617 13.0754C30.4956 13.1258 30.3853 13.1995 30.2925 13.2925L24 19.5863L13.4137 9.00001L19.7075 2.70751C19.8004 2.6146 19.8741 2.5043 19.9244 2.3829C19.9747 2.26151 20.0005 2.1314 20.0005 2.00001C20.0005 1.86861 19.9747 1.7385 19.9244 1.61711C19.8741 1.49572 19.8004 1.38542 19.7075 1.29251C19.6146 1.1996 19.5043 1.1259 19.3829 1.07561C19.2615 1.02533 19.1314 0.999451 19 0.999451C18.8686 0.999451 18.7385 1.02533 18.6171 1.07561C18.4957 1.1259 18.3854 1.1996 18.2925 1.29251L12 7.58626C11.6974 7.88889 11.4999 8.2806 11.4364 8.70382C11.373 9.12704 11.4469 9.55945 11.6475 9.93751L8.99997 12.5863C8.62519 12.9613 8.41465 13.4698 8.41465 14C8.41465 14.5302 8.62519 15.0387 8.99997 15.4138L9.58622 16L2.29247 23.2925C2.17184 23.4131 2.08404 23.5625 2.03742 23.7265C1.9908 23.8905 1.98691 24.0638 2.02611 24.2298C2.06532 24.3957 2.14633 24.5489 2.26143 24.6748C2.37653 24.8006 2.5219 24.8949 2.68372 24.9488L11.6837 27.9488C11.7856 27.983 11.8925 28.0003 12 28C12.1313 28.0001 12.2614 27.9743 12.3828 27.9241C12.5042 27.874 12.6145 27.8003 12.7075 27.7075L17 23.4138L17.5862 24C17.9613 24.3748 18.4698 24.5853 19 24.5853C19.5302 24.5853 20.0387 24.3748 20.4137 24L23.0625 21.3525C23.4405 21.553 23.8729 21.627 24.2962 21.5636C24.7194 21.5001 25.1111 21.3026 25.4137 21L31.7075 14.7075C31.8005 14.6146 31.8742 14.5043 31.9245 14.3829C31.9749 14.2615 32.0008 14.1314 32.0008 14C32.0008 13.8686 31.9749 13.7385 31.9245 13.6171C31.8742 13.4957 31.8005 13.3854 31.7075 13.2925ZM11.73 25.8563L4.85497 23.5625L11 17.4138L15.5862 22L11.73 25.8563ZM19 22.5863L10.4137 14L13 11.4138L21.5862 20L19 22.5863Z" fill="#343330"/>
</svg>
