<svg width="32" height="32" viewBox="0 0 32 32" fill="none" xmlns="http://www.w3.org/2000/svg">
<path d="M28 19H16.3625L4.7625 5.35253C4.59077 5.1503 4.34574 5.02457 4.08132 5.00301C3.81689 4.98144 3.55473 5.0658 3.3525 5.23753C3.15027 5.40926 3.02455 5.65428 3.00298 5.91871C2.98141 6.18314 3.06577 6.4453 3.2375 6.64753L19.9387 26.295C20.1265 26.516 20.36 26.6934 20.6231 26.8152C20.8862 26.9369 21.1726 27 21.4625 27H28C28.5304 27 29.0391 26.7893 29.4142 26.4142C29.7893 26.0392 30 25.5305 30 25V21C30 20.4696 29.7893 19.9609 29.4142 19.5858C29.0391 19.2107 28.5304 19 28 19ZM18.0625 21H24V25H21.4625L18.0625 21ZM28 25H26V21H28V25ZM14.0225 22.4438C13.8205 22.2722 13.5587 22.1878 13.2946 22.2091C13.0304 22.2305 12.7856 22.3558 12.6138 22.5575L10.5375 25H8V21H10.65C10.9152 21 11.1696 20.8947 11.3571 20.7071C11.5446 20.5196 11.65 20.2652 11.65 20C11.65 19.7348 11.5446 19.4805 11.3571 19.2929C11.1696 19.1054 10.9152 19 10.65 19H4C3.46957 19 2.96086 19.2107 2.58579 19.5858C2.21071 19.9609 2 20.4696 2 21V25C2 25.5305 2.21071 26.0392 2.58579 26.4142C2.96086 26.7893 3.46957 27 4 27H10.5375C10.8274 27 11.1138 26.9369 11.3769 26.8152C11.64 26.6934 11.8735 26.516 12.0612 26.295L14.1375 23.8538C14.2226 23.7537 14.2871 23.6378 14.3273 23.5127C14.3676 23.3877 14.3828 23.2559 14.3722 23.125C14.3615 22.994 14.3251 22.8665 14.2651 22.7496C14.2051 22.6327 14.1227 22.5288 14.0225 22.4438ZM4 21H6V25H4V21ZM18.7375 15.3525L27.2375 5.35253C27.4092 5.1503 27.6543 5.02457 27.9187 5.00301C28.1831 4.98144 28.4453 5.0658 28.6475 5.23753C28.8497 5.40926 28.9755 5.65428 28.997 5.91871C29.0186 6.18314 28.9342 6.4453 28.7625 6.64753L20.2625 16.6475C20.1775 16.7477 20.0735 16.8301 19.9567 16.89C19.8398 16.95 19.7122 16.9864 19.5813 16.997C19.3169 17.0186 19.0547 16.9343 18.8525 16.7625C18.6503 16.5908 18.5245 16.3458 18.503 16.0813C18.4814 15.8169 18.5658 15.5548 18.7375 15.3525Z" fill="#343330"/>
</svg>
