<svg width="32" height="32" viewBox="0 0 32 32" fill="none" xmlns="http://www.w3.org/2000/svg">
<path d="M29.6637 15.0662L22.875 4.89C22.6928 4.61691 22.4462 4.39286 22.1569 4.23765C21.8676 4.08243 21.5445 4.00081 21.2162 4H10.7837C10.4554 4.00081 10.1324 4.08243 9.84311 4.23765C9.55382 4.39286 9.30719 4.61691 9.12499 4.89L2.33624 15.0662C2.17746 15.3041 2.07153 15.5732 2.0256 15.8555C1.97967 16.1378 1.9948 16.4266 2.06999 16.7025L4.74999 26.5263C4.8654 26.9494 5.11671 27.3229 5.46522 27.5892C5.81374 27.8555 6.24013 27.9998 6.67874 28H9.99999C10.5304 28 11.0391 27.7893 11.4142 27.4142C11.7893 27.0391 12 26.5304 12 26V24H20V26C20 26.5304 20.2107 27.0391 20.5858 27.4142C20.9608 27.7893 21.4696 28 22 28H25.3212C25.7598 27.9998 26.1862 27.8555 26.5348 27.5892C26.8833 27.3229 27.1346 26.9494 27.25 26.5263L29.93 16.7025C30.0052 16.4266 30.0203 16.1378 29.9744 15.8555C29.9284 15.5732 29.8225 15.3041 29.6637 15.0662ZM9.99999 22V8.625L13 10.3938V17C13 17.2652 13.1053 17.5196 13.2929 17.7071C13.4804 17.8946 13.7348 18 14 18C14.2652 18 14.5196 17.8946 14.7071 17.7071C14.8946 17.5196 15 17.2652 15 17V11.5712L15.4925 11.8612C15.6463 11.9518 15.8215 11.9996 16 11.9996C16.1785 11.9996 16.3537 11.9518 16.5075 11.8612L17 11.5712V16C17 16.2652 17.1053 16.5196 17.2929 16.7071C17.4804 16.8946 17.7348 17 18 17C18.2652 17 18.5196 16.8946 18.7071 16.7071C18.8946 16.5196 19 16.2652 19 16V10.3925L22 8.625V22H9.99999ZM21.2162 6L21.5812 6.54875L16 9.83875L10.4187 6.54875L10.7837 6H21.2162ZM9.99999 26H6.67874L3.99999 16.1763L7.99999 10.1763V22C7.99999 22.5304 8.2107 23.0391 8.58577 23.4142C8.96085 23.7893 9.46955 24 9.99999 24V26ZM25.3212 26H22V24C22.5304 24 23.0391 23.7893 23.4142 23.4142C23.7893 23.0391 24 22.5304 24 22V10.1763L28 16.1763L25.3212 26Z" fill="#343330"/>
</svg>
