<svg width="32" height="32" viewBox="0 0 32 32" fill="none" xmlns="http://www.w3.org/2000/svg">
<path d="M27.4137 13.585L17.4137 3.58499C17.0387 3.2102 16.5302 2.99966 16 2.99966C15.4698 2.99966 14.9613 3.2102 14.5862 3.58499L4.58625 13.585C4.39963 13.7702 4.2517 13.9907 4.15105 14.2336C4.05041 14.4765 3.99906 14.737 4 15V27C4 27.2652 4.10535 27.5196 4.29289 27.7071C4.48043 27.8946 4.73478 28 5 28H27C27.2652 28 27.5196 27.8946 27.7071 27.7071C27.8946 27.5196 28 27.2652 28 27V15C28.0009 14.737 27.9496 14.4765 27.8489 14.2336C27.7483 13.9907 27.6004 13.7702 27.4137 13.585ZM26 26H6V15L16 4.99999L26 15V26Z" fill="#343330"/>
</svg>
