<svg width="32" height="32" viewBox="0 0 32 32" fill="none" xmlns="http://www.w3.org/2000/svg">
<path d="M30 26H28V17L28.2925 17.2925C28.4805 17.4801 28.7353 17.5854 29.0009 17.5852C29.2665 17.5849 29.5211 17.4792 29.7087 17.2912C29.8964 17.1033 30.0017 16.8485 30.0014 16.5829C30.0012 16.3173 29.8955 16.0626 29.7075 15.875L17.4137 3.58499C17.0387 3.2102 16.5302 2.99966 16 2.99966C15.4698 2.99966 14.9613 3.2102 14.5863 3.58499L2.2925 15.875C2.10503 16.0626 1.99977 16.3171 1.99989 16.5823C2 16.8476 2.10548 17.1019 2.29312 17.2894C2.48077 17.4768 2.7352 17.5821 3.00044 17.582C3.26569 17.5819 3.52003 17.4764 3.7075 17.2887L4 17V26H2C1.73478 26 1.48043 26.1053 1.29289 26.2929C1.10536 26.4804 1 26.7348 1 27C1 27.2652 1.10536 27.5196 1.29289 27.7071C1.48043 27.8946 1.73478 28 2 28H30C30.2652 28 30.5196 27.8946 30.7071 27.7071C30.8946 27.5196 31 27.2652 31 27C31 26.7348 30.8946 26.4804 30.7071 26.2929C30.5196 26.1053 30.2652 26 30 26ZM6 15L16 4.99999L26 15V26H20V19C20 18.7348 19.8946 18.4804 19.7071 18.2929C19.5196 18.1053 19.2652 18 19 18H13C12.7348 18 12.4804 18.1053 12.2929 18.2929C12.1054 18.4804 12 18.7348 12 19V26H6V15ZM18 26H14V20H18V26Z" fill="#343330"/>
</svg>
