<svg width="32" height="32" viewBox="0 0 32 32" fill="none" xmlns="http://www.w3.org/2000/svg">
<path d="M16 12C15.2089 12 14.4355 12.2346 13.7777 12.6741C13.1199 13.1137 12.6072 13.7384 12.3045 14.4693C12.0017 15.2002 11.9225 16.0045 12.0769 16.7804C12.2312 17.5563 12.6122 18.269 13.1716 18.8285C13.731 19.3879 14.4437 19.7688 15.2196 19.9232C15.9956 20.0775 16.7998 19.9983 17.5307 19.6955C18.2616 19.3928 18.8864 18.8801 19.3259 18.2223C19.7654 17.5645 20 16.7911 20 16C20 14.9392 19.5786 13.9217 18.8284 13.1716C18.0783 12.4215 17.0609 12 16 12ZM16 18C15.6044 18 15.2178 17.8827 14.8889 17.663C14.56 17.4432 14.3036 17.1308 14.1522 16.7654C14.0009 16.3999 13.9613 15.9978 14.0384 15.6098C14.1156 15.2219 14.3061 14.8655 14.5858 14.5858C14.8655 14.3061 15.2219 14.1156 15.6098 14.0385C15.9978 13.9613 16.3999 14.0009 16.7654 14.1523C17.1308 14.3036 17.4432 14.56 17.6629 14.8889C17.8827 15.2178 18 15.6045 18 16C18 16.5305 17.7893 17.0392 17.4142 17.4142C17.0391 17.7893 16.5304 18 16 18ZM19.79 5.67002L20.9662 1.25752C21.0103 1.09215 21.0111 0.918238 20.9687 0.752437C20.9263 0.586637 20.8421 0.434495 20.724 0.310571C20.606 0.186646 20.4581 0.0950863 20.2946 0.0446528C20.1311 -0.00578072 19.9573 -0.0134 19.79 0.0225242C17.1913 0.660301 14.7147 1.71977 12.4587 3.15877C7.57875 6.29627 5 10.7363 5 16C5.00124 18.2525 5.69311 20.4505 6.98232 22.2976C8.27153 24.1447 10.0961 25.5521 12.21 26.33L11.0337 30.7425C10.9897 30.9079 10.9889 31.0818 11.0313 31.2476C11.0737 31.4134 11.1579 31.5656 11.276 31.6895C11.394 31.8134 11.5419 31.905 11.7054 31.9554C11.8689 32.0058 12.0427 32.0135 12.21 31.9775C14.8087 31.3397 17.2853 30.2803 19.5413 28.8413C24.4212 25.7038 27 21.2638 27 16C26.9989 13.7475 26.3071 11.5494 25.0179 9.70229C23.7287 7.85516 21.904 6.44781 19.79 5.67002ZM18.5075 27.125C16.918 28.1372 15.2102 28.9504 13.4225 29.5463L14.3888 25.9213C14.457 25.665 14.4207 25.3921 14.2878 25.1626C14.1549 24.9331 13.9363 24.7658 13.68 24.6975C11.7645 24.1852 10.0716 23.0551 8.86382 21.4825C7.65604 19.91 7.0009 17.9829 7 16C7 11.4038 9.185 7.66002 13.4925 4.87502C15.082 3.86283 16.7898 3.04966 18.5775 2.45377L17.6112 6.07877C17.543 6.33504 17.5793 6.60793 17.7122 6.83743C17.8451 7.06693 18.0637 7.23422 18.32 7.30252C20.2355 7.81488 21.9284 8.94496 23.1362 10.5175C24.344 12.0901 24.9991 14.0172 25 16C25 20.5963 22.815 24.34 18.5075 27.125Z" fill="#343330"/>
</svg>
