<svg width="32" height="32" viewBox="0 0 32 32" fill="none" xmlns="http://www.w3.org/2000/svg">
<path d="M25.9999 12.1713V12C25.9999 9.34784 24.9464 6.8043 23.071 4.92893C21.1956 3.05357 18.6521 2 15.9999 2C13.3478 2 10.8042 3.05357 8.92888 4.92893C7.05351 6.8043 5.99994 9.34784 5.99994 12V12.1713C5.3325 12.407 4.76991 12.8711 4.41165 13.4816C4.05339 14.0921 3.92254 14.8096 4.04223 15.5073C4.16192 16.2049 4.52445 16.8378 5.06571 17.294C5.60697 17.7501 6.29209 18.0002 6.99994 18H7.41119L14.2637 29.9925C14.4387 30.2985 14.6914 30.5529 14.9963 30.7297C15.3012 30.9066 15.6474 30.9998 15.9999 30.9998C16.3524 30.9998 16.6987 30.9066 17.0036 30.7297C17.3085 30.5529 17.5612 30.2985 17.7362 29.9925L24.5887 18H24.9999C25.7078 18.0002 26.3929 17.7501 26.9342 17.294C27.4754 16.8378 27.838 16.2049 27.9577 15.5073C28.0774 14.8096 27.9465 14.0921 27.5882 13.4816C27.23 12.8711 26.6674 12.407 25.9999 12.1713ZM9.71369 18H12.1337L17.2099 26.8825L15.9999 29L9.71369 18ZM16.8487 18L19.5674 22.7575L18.3612 24.8675L14.4374 18H16.8487ZM20.7237 20.7425L19.1512 18H22.2862L20.7237 20.7425ZM24.9999 16H6.99994C6.73473 16 6.48037 15.8946 6.29284 15.7071C6.1053 15.5196 5.99994 15.2652 5.99994 15C5.99994 14.7348 6.1053 14.4804 6.29284 14.2929C6.48037 14.1054 6.73473 14 6.99994 14C7.26516 14 7.51951 13.8946 7.70705 13.7071C7.89459 13.5196 7.99994 13.2652 7.99994 13V12C7.99994 9.87827 8.8428 7.84344 10.3431 6.34315C11.8434 4.84285 13.8782 4 15.9999 4C18.1217 4 20.1565 4.84285 21.6568 6.34315C23.1571 7.84344 23.9999 9.87827 23.9999 12V13C23.9999 13.2652 24.1053 13.5196 24.2928 13.7071C24.4804 13.8946 24.7347 14 24.9999 14C25.2652 14 25.5195 14.1054 25.7071 14.2929C25.8946 14.4804 25.9999 14.7348 25.9999 15C25.9999 15.2652 25.8946 15.5196 25.7071 15.7071C25.5195 15.8946 25.2652 16 24.9999 16Z" fill="#343330"/>
</svg>
