<svg width="32" height="32" viewBox="0 0 32 32" fill="none" xmlns="http://www.w3.org/2000/svg">
<path d="M27 5H5C4.46957 5 3.96086 5.21071 3.58579 5.58579C3.21071 5.96086 3 6.46957 3 7V25C3 25.5304 3.21071 26.0391 3.58579 26.4142C3.96086 26.7893 4.46957 27 5 27H13C13.2099 27 13.4145 26.934 13.5847 26.8113C13.755 26.6886 13.8824 26.5154 13.9487 26.3162L15.8025 20.7563L20.375 18.9287C20.5006 18.878 20.6147 18.8025 20.7105 18.7067C20.8063 18.6109 20.8818 18.4968 20.9325 18.3713L22.76 13.8025L28.32 11.9487C28.5184 11.8817 28.6908 11.7541 28.8128 11.5839C28.9348 11.4137 29.0003 11.2094 29 11V7C29 6.46957 28.7893 5.96086 28.4142 5.58579C28.0391 5.21071 27.5304 5 27 5ZM14.0513 19.6838L12.2788 25H5V21.5L11.5 15L15.3025 18.8025L14.625 19.0713C14.4907 19.1257 14.3698 19.2086 14.2708 19.3144C14.1717 19.4202 14.0968 19.5462 14.0513 19.6838ZM27 10.2788L21.6838 12.0513C21.5458 12.0972 21.4196 12.1727 21.3138 12.2724C21.208 12.3721 21.1252 12.4938 21.0713 12.6287L19.2313 17.2313L17.3225 18L12.9137 13.5913C12.5387 13.2165 12.0302 13.0059 11.5 13.0059C10.9698 13.0059 10.4613 13.2165 10.0863 13.5913L5 18.6712V7H27V10.2788ZM28.585 14.4038C28.4564 14.311 28.3077 14.2502 28.151 14.2263C27.9943 14.2024 27.8341 14.2161 27.6838 14.2662L24.7087 15.2587C24.5709 15.3046 24.4448 15.3798 24.339 15.4794C24.2332 15.5789 24.1504 15.7002 24.0963 15.835L22.3075 20.3062L17.8363 22.095C17.7015 22.1491 17.5801 22.232 17.4806 22.3377C17.3811 22.4435 17.3058 22.5697 17.26 22.7075L16.2675 25.6825C16.2171 25.8329 16.2033 25.9931 16.2271 26.1499C16.2508 26.3067 16.3116 26.4557 16.4043 26.5844C16.497 26.7131 16.6189 26.8179 16.7601 26.8902C16.9013 26.9624 17.0576 27.0001 17.2162 27H27C27.5304 27 28.0391 26.7893 28.4142 26.4142C28.7893 26.0391 29 25.5304 29 25V15.2163C29 15.0578 28.9624 14.9017 28.8903 14.7606C28.8181 14.6196 28.7135 14.4977 28.585 14.405V14.4038ZM27 25H18.6038L19.01 23.7812L23.4487 22.0063C23.5743 21.9555 23.6884 21.88 23.7842 21.7842C23.88 21.6884 23.9555 21.5743 24.0063 21.4487L25.7812 17.01L27 16.6038V25Z" fill="#343330"/>
</svg>
