<svg width="32" height="32" viewBox="0 0 32 32" fill="none" xmlns="http://www.w3.org/2000/svg">
<path d="M26 15V25C26 25.2652 25.8946 25.5196 25.7071 25.7071C25.5196 25.8946 25.2652 26 25 26C24.7348 26 24.4804 25.8946 24.2929 25.7071C24.1054 25.5196 24 25.2652 24 25V15C24 12.8783 23.1571 10.8434 21.6569 9.34315C20.1566 7.84285 18.1217 7 16 7C13.8783 7 11.8434 7.84285 10.3431 9.34315C8.84285 10.8434 8 12.8783 8 15V25C8 25.2652 7.89464 25.5196 7.70711 25.7071C7.51957 25.8946 7.26522 26 7 26C6.73478 26 6.48043 25.8946 6.29289 25.7071C6.10536 25.5196 6 25.2652 6 25V15C6 12.3478 7.05357 9.8043 8.92893 7.92893C10.8043 6.05357 13.3478 5 16 5C18.6522 5 21.1957 6.05357 23.0711 7.92893C24.9464 9.8043 26 12.3478 26 15Z" fill="#343330"/>
</svg>
