<svg width="32" height="32" viewBox="0 0 32 32" fill="none" xmlns="http://www.w3.org/2000/svg">
<path d="M29.7813 28.625C29.6992 28.7277 29.5978 28.8131 29.4827 28.8765C29.3676 28.94 29.2411 28.9801 29.1105 28.9946C28.9799 29.0091 28.8477 28.9977 28.7215 28.9611C28.5953 28.9245 28.4776 28.8634 28.375 28.7813C28.3288 28.7438 23.5225 25 16 25C8.4775 25 3.67 28.75 3.625 28.7825C3.52233 28.8646 3.40449 28.9256 3.27822 28.9622C3.15195 28.9987 3.01972 29.01 2.88908 28.9954C2.62524 28.966 2.38389 28.833 2.21813 28.6256C2.05237 28.4183 1.97577 28.1535 2.00519 27.8897C2.03461 27.6259 2.16764 27.3845 2.375 27.2188C2.57875 27.0563 7.19 23.4363 14.6613 23.0375C14.2726 21.4891 14.1338 19.8885 14.25 18.2963C14.4675 15.5825 15.615 11.9675 19.625 9.23626C18.9408 9.06658 18.2373 8.98716 17.5325 9.00001C15.1575 9.07751 13.665 10.4638 12.97 13.24C12.9164 13.4568 12.7918 13.6494 12.616 13.7872C12.4402 13.9249 12.2233 13.9998 12 14C11.9182 14.0004 11.8367 13.9904 11.7575 13.97C11.5003 13.9057 11.2791 13.7418 11.1427 13.5144C11.0063 13.287 10.9657 13.0148 11.03 12.7575C12.1863 8.13876 15.1688 7.08001 17.4675 7.00751C18.3805 6.98764 19.292 7.09065 20.1775 7.31376C19.6988 6.52251 18.9988 5.69751 18.0263 5.28251C16.7763 4.75251 15.255 4.98376 13.4875 5.97126C13.2554 6.10055 12.9815 6.13236 12.726 6.05969C12.4705 5.98702 12.2543 5.81582 12.125 5.58376C11.9957 5.3517 11.9639 5.07778 12.0366 4.82226C12.1092 4.56674 12.2804 4.35055 12.5125 4.22126C14.855 2.91501 16.9775 2.65376 18.8225 3.44626C20.3838 4.11626 21.4138 5.41876 22.0563 6.57126C22.8288 5.36626 23.7913 4.55001 24.855 4.20376C26.3375 3.72001 27.935 4.11376 29.605 5.37501C29.8073 5.53804 29.9381 5.77337 29.9699 6.03119C30.0017 6.28902 29.9319 6.54909 29.7753 6.75637C29.6187 6.96364 29.3876 7.10184 29.1309 7.14172C28.8742 7.18159 28.6121 7.12001 28.4 6.97001C27.2863 6.12876 26.3038 5.83751 25.4813 6.10376C24.57 6.39751 23.8725 7.35376 23.435 8.18001C24.3345 8.36235 25.1999 8.68415 26 9.13376C27.8263 10.1775 30 12.39 30 17.0013C30 17.2665 29.8946 17.5208 29.7071 17.7084C29.5196 17.8959 29.2652 18.0013 29 18.0013C28.7348 18.0013 28.4804 17.8959 28.2929 17.7084C28.1054 17.5208 28 17.2665 28 17.0013C28 14.0688 26.9913 12.0013 25 10.8763C24.7681 10.7445 24.528 10.6276 24.2813 10.5263C24.9109 11.8063 25.1317 13.249 24.9138 14.6588C24.7566 15.7018 24.379 16.6993 23.8063 17.585C23.653 17.8 23.4209 17.9456 23.1606 17.9901C22.9004 18.0346 22.6331 17.9744 22.417 17.8226C22.201 17.6708 22.0538 17.4397 22.0075 17.1797C21.9613 16.9198 22.0197 16.6521 22.17 16.435C22.2625 16.2988 24.2113 13.3875 21.7625 10.2638C18.3875 12.165 16.5263 14.92 16.2425 18.4625C16.132 19.9972 16.2941 21.5393 16.7213 23.0175C24.5525 23.2438 29.4113 27.0588 29.6213 27.225C29.8273 27.39 29.9598 27.6298 29.9897 27.892C30.0197 28.1543 29.9448 28.4178 29.7813 28.625ZM3 17.5C3 16.8078 3.20527 16.1311 3.58986 15.5555C3.97444 14.9799 4.52107 14.5313 5.16061 14.2664C5.80015 14.0015 6.50389 13.9322 7.18282 14.0673C7.86175 14.2023 8.48539 14.5357 8.97488 15.0251C9.46436 15.5146 9.7977 16.1383 9.93275 16.8172C10.0678 17.4961 9.99849 18.1999 9.73358 18.8394C9.46868 19.4789 9.02007 20.0256 8.4445 20.4102C7.86893 20.7947 7.19224 21 6.5 21C5.57175 21 4.68151 20.6313 4.02513 19.9749C3.36875 19.3185 3 18.4283 3 17.5ZM5 17.5C5 17.7967 5.08798 18.0867 5.2528 18.3334C5.41762 18.58 5.65189 18.7723 5.92598 18.8858C6.20007 18.9994 6.50167 19.0291 6.79264 18.9712C7.08361 18.9133 7.35088 18.7704 7.56066 18.5607C7.77044 18.3509 7.9133 18.0836 7.97118 17.7926C8.02906 17.5017 7.99935 17.2001 7.88582 16.926C7.77229 16.6519 7.58003 16.4176 7.33336 16.2528C7.08669 16.088 6.79668 16 6.5 16C6.10218 16 5.72065 16.158 5.43934 16.4394C5.15804 16.7207 5 17.1022 5 17.5Z" fill="#343330"/>
</svg>
