<svg width="32" height="32" viewBox="0 0 32 32" fill="none" xmlns="http://www.w3.org/2000/svg">
<path d="M23 6.10125V4C23 3.46957 22.7893 2.96086 22.4142 2.58579C22.0391 2.21071 21.5304 2 21 2H11C10.4696 2 9.96086 2.21071 9.58579 2.58579C9.21071 2.96086 9 3.46957 9 4V6.10125C7.87139 6.33283 6.85719 6.94659 6.1285 7.83901C5.39981 8.73143 5.00123 9.84787 5 11V25C5 26.3261 5.52678 27.5979 6.46447 28.5355C7.40215 29.4732 8.67392 30 10 30H22C23.3261 30 24.5979 29.4732 25.5355 28.5355C26.4732 27.5979 27 26.3261 27 25V11C26.9988 9.84787 26.6002 8.73143 25.8715 7.83901C25.1428 6.94659 24.1286 6.33283 23 6.10125ZM21 6H19V4H21V6ZM15 6V4H17V6H15ZM13 4V6H11V4H13ZM25 25C25 25.7956 24.6839 26.5587 24.1213 27.1213C23.5587 27.6839 22.7956 28 22 28H10C9.20435 28 8.44129 27.6839 7.87868 27.1213C7.31607 26.5587 7 25.7956 7 25V11C7 10.2044 7.31607 9.44129 7.87868 8.87868C8.44129 8.31607 9.20435 8 10 8H22C22.7956 8 23.5587 8.31607 24.1213 8.87868C24.6839 9.44129 25 10.2044 25 11V25Z" fill="#343330"/>
</svg>
