<svg width="32" height="32" viewBox="0 0 32 32" fill="none" xmlns="http://www.w3.org/2000/svg">
<path d="M30 11H28.8088L27.6475 5.58125C27.55 5.13445 27.303 4.73428 26.9473 4.44679C26.5916 4.15931 26.1486 4.0017 25.6912 4H6.30875C5.85143 4.0017 5.40837 4.15931 5.0527 4.44679C4.69704 4.73428 4.45005 5.13445 4.3525 5.58125L3.19125 11H2C1.73478 11 1.48043 11.1054 1.29289 11.2929C1.10536 11.4804 1 11.7348 1 12C1 12.2652 1.10536 12.5196 1.29289 12.7071C1.48043 12.8946 1.73478 13 2 13H3V25C3 25.5304 3.21071 26.0391 3.58579 26.4142C3.96086 26.7893 4.46957 27 5 27H8C8.53043 27 9.03914 26.7893 9.41421 26.4142C9.78929 26.0391 10 25.5304 10 25V22H22V25C22 25.5304 22.2107 26.0391 22.5858 26.4142C22.9609 26.7893 23.4696 27 24 27H27C27.5304 27 28.0391 26.7893 28.4142 26.4142C28.7893 26.0391 29 25.5304 29 25V13H30C30.2652 13 30.5196 12.8946 30.7071 12.7071C30.8946 12.5196 31 12.2652 31 12C31 11.7348 30.8946 11.4804 30.7071 11.2929C30.5196 11.1054 30.2652 11 30 11ZM6.30875 6H25.6912L26.7625 11H5.2375L6.30875 6ZM8 25H5V22H8V25ZM24 25V22H27V25H24ZM27 20H19V16C19 15.7348 18.8946 15.4804 18.7071 15.2929C18.5196 15.1054 18.2652 15 18 15C17.7348 15 17.4804 15.1054 17.2929 15.2929C17.1054 15.4804 17 15.7348 17 16V20H15V16C15 15.7348 14.8946 15.4804 14.7071 15.2929C14.5196 15.1054 14.2652 15 14 15C13.7348 15 13.4804 15.1054 13.2929 15.2929C13.1054 15.4804 13 15.7348 13 16V20H5V13H27V20ZM7 16.5C7 16.2033 7.08797 15.9133 7.2528 15.6666C7.41762 15.42 7.65189 15.2277 7.92597 15.1142C8.20006 15.0006 8.50166 14.9709 8.79264 15.0288C9.08361 15.0867 9.35088 15.2296 9.56066 15.4393C9.77044 15.6491 9.9133 15.9164 9.97118 16.2074C10.0291 16.4983 9.99935 16.7999 9.88582 17.074C9.77229 17.3481 9.58003 17.5824 9.33335 17.7472C9.08668 17.912 8.79667 18 8.5 18C8.10218 18 7.72064 17.842 7.43934 17.5607C7.15804 17.2794 7 16.8978 7 16.5ZM22 16.5C22 16.2033 22.088 15.9133 22.2528 15.6666C22.4176 15.42 22.6519 15.2277 22.926 15.1142C23.2001 15.0006 23.5017 14.9709 23.7926 15.0288C24.0836 15.0867 24.3509 15.2296 24.5607 15.4393C24.7704 15.6491 24.9133 15.9164 24.9712 16.2074C25.0291 16.4983 24.9993 16.7999 24.8858 17.074C24.7723 17.3481 24.58 17.5824 24.3334 17.7472C24.0867 17.912 23.7967 18 23.5 18C23.1022 18 22.7206 17.842 22.4393 17.5607C22.158 17.2794 22 16.8978 22 16.5Z" fill="#343330"/>
</svg>
