<svg width="32" height="32" viewBox="0 0 32 32" fill="none" xmlns="http://www.w3.org/2000/svg">
<path d="M26 18H17V11.8987C18.214 11.6509 19.2928 10.9611 20.0272 9.96315C20.7616 8.96514 21.0992 7.73001 20.9747 6.49721C20.8501 5.26441 20.2723 4.12176 19.3532 3.2908C18.434 2.45984 17.2391 1.99976 16 1.99976C14.7609 1.99976 13.566 2.45984 12.6468 3.2908C11.7277 4.12176 11.1499 5.26441 11.0253 6.49721C10.9008 7.73001 11.2384 8.96514 11.9728 9.96315C12.7072 10.9611 13.786 11.6509 15 11.8987V18H6C5.46957 18 4.96086 18.2107 4.58579 18.5858C4.21071 18.9608 4 19.4696 4 20V26C4 26.5304 4.21071 27.0391 4.58579 27.4142C4.96086 27.7893 5.46957 28 6 28H26C26.5304 28 27.0391 27.7893 27.4142 27.4142C27.7893 27.0391 28 26.5304 28 26V20C28 19.4696 27.7893 18.9608 27.4142 18.5858C27.0391 18.2107 26.5304 18 26 18ZM13 6.99999C13 6.40664 13.1759 5.82662 13.5056 5.33327C13.8352 4.83993 14.3038 4.45541 14.8519 4.22835C15.4001 4.00128 16.0033 3.94187 16.5853 4.05763C17.1672 4.17339 17.7018 4.45911 18.1213 4.87866C18.5409 5.29822 18.8266 5.83277 18.9424 6.41471C19.0581 6.99666 18.9987 7.59986 18.7716 8.14804C18.5446 8.69621 18.1601 9.16475 17.6667 9.49439C17.1734 9.82404 16.5933 9.99999 16 9.99999C15.2044 9.99999 14.4413 9.68392 13.8787 9.12131C13.3161 8.5587 13 7.79563 13 6.99999ZM26 26H6V20H26V26ZM21 14H25C25.2652 14 25.5196 14.1053 25.7071 14.2929C25.8946 14.4804 26 14.7348 26 15C26 15.2652 25.8946 15.5196 25.7071 15.7071C25.5196 15.8946 25.2652 16 25 16H21C20.7348 16 20.4804 15.8946 20.2929 15.7071C20.1054 15.5196 20 15.2652 20 15C20 14.7348 20.1054 14.4804 20.2929 14.2929C20.4804 14.1053 20.7348 14 21 14Z" fill="#343330"/>
</svg>
