<svg width="32" height="32" viewBox="0 0 32 32" fill="none" xmlns="http://www.w3.org/2000/svg">
<path d="M16 3C13.4288 3 10.9154 3.76244 8.77759 5.1909C6.63975 6.61935 4.97351 8.64968 3.98957 11.0251C3.00563 13.4006 2.74819 16.0144 3.2498 18.5362C3.75141 21.0579 4.98953 23.3743 6.80762 25.1924C8.6257 27.0105 10.9421 28.2486 13.4638 28.7502C15.9856 29.2518 18.5995 28.9944 20.9749 28.0104C23.3503 27.0265 25.3807 25.3603 26.8091 23.2224C28.2376 21.0846 29 18.5712 29 16C28.9964 12.5533 27.6256 9.24882 25.1884 6.81163C22.7512 4.37445 19.4467 3.00364 16 3ZM16 27C13.8244 27 11.6977 26.3549 9.88873 25.1462C8.07979 23.9375 6.66989 22.2195 5.83733 20.2095C5.00477 18.1995 4.78693 15.9878 5.21137 13.854C5.63581 11.7202 6.68345 9.7602 8.22183 8.22183C9.76021 6.68345 11.7202 5.6358 13.854 5.21136C15.9878 4.78692 18.1995 5.00476 20.2095 5.83733C22.2195 6.66989 23.9375 8.07979 25.1462 9.88873C26.3549 11.6977 27 13.8244 27 16C26.9967 18.9164 25.8367 21.7123 23.7745 23.7745C21.7123 25.8367 18.9164 26.9967 16 27ZM21 14C21.0002 13.1608 20.7891 12.3351 20.3863 11.5989C19.9835 10.8627 19.4019 10.2398 18.6951 9.78743C17.9882 9.33511 17.1789 9.06796 16.3417 9.01062C15.5045 8.95327 14.6663 9.10757 13.9044 9.45929C13.1425 9.81102 12.4813 10.3489 11.9819 11.0232C11.4825 11.6976 11.1608 12.4869 11.0466 13.3182C10.9323 14.1496 11.0292 14.9963 11.3282 15.7805C11.6272 16.5646 12.1187 17.2608 12.7575 17.805L11.085 21.5963C11.0178 21.7485 10.9897 21.9151 11.0032 22.0809C11.0166 22.2468 11.0713 22.4067 11.1621 22.5461C11.253 22.6855 11.3772 22.8 11.5235 22.8793C11.6698 22.9585 11.8336 23 12 23H20C20.1664 23 20.3302 22.9585 20.4765 22.8793C20.6228 22.8 20.747 22.6855 20.8379 22.5461C20.9287 22.4067 20.9834 22.2468 20.9969 22.0809C21.0103 21.9151 20.9822 21.7485 20.915 21.5963L19.2425 17.805C19.7924 17.335 20.2342 16.7516 20.5376 16.0948C20.8409 15.438 20.9987 14.7234 21 14ZM17.085 17.875L18.46 21.0063H13.5338L14.9088 17.875C15.0107 17.6494 15.0253 17.394 14.9498 17.1583C14.8743 16.9225 14.714 16.7232 14.5 16.5987C13.9281 16.2685 13.4811 15.7589 13.2284 15.1487C12.9756 14.5386 12.9313 13.8621 13.1022 13.2242C13.2732 12.5863 13.6498 12.0226 14.1737 11.6206C14.6977 11.2186 15.3396 11.0007 16 11.0007C16.6604 11.0007 17.3024 11.2186 17.8263 11.6206C18.3502 12.0226 18.7269 12.5863 18.8978 13.2242C19.0687 13.8621 19.0244 14.5386 18.7716 15.1487C18.5189 15.7589 18.0719 16.2685 17.5 16.5987C17.2849 16.7222 17.1233 16.9211 17.0466 17.1569C16.9699 17.3928 16.9836 17.6487 17.085 17.875Z" fill="#343330"/>
</svg>
