<svg width="32" height="32" viewBox="0 0 32 32" fill="none" xmlns="http://www.w3.org/2000/svg">
<path d="M28.9838 4.01625C28.3314 3.3656 27.4476 3.00021 26.5263 3.00021C25.6049 3.00021 24.7211 3.3656 24.0688 4.01625L2.29252 25.8C2.16637 25.9262 2.07629 26.084 2.03166 26.2568C1.98702 26.4296 1.98945 26.6112 2.03868 26.7827C2.08791 26.9543 2.18216 27.1095 2.31164 27.2323C2.44112 27.3552 2.60112 27.4411 2.77502 27.4813C4.25881 27.8252 5.7769 27.9992 7.30002 28C11.4188 28 15.54 26.725 19.4188 24.2213C23.3888 21.6588 25.6925 18.7438 25.7938 18.62C25.9445 18.4277 26.0195 18.1868 26.0048 17.943C25.99 17.6991 25.8865 17.469 25.7138 17.2963L23.165 14.75L28.9838 8.93001C29.6337 8.27753 29.9987 7.39409 29.9987 6.47313C29.9987 5.55217 29.6337 4.66873 28.9838 4.01625ZM23.6375 18.055C22.0514 19.7836 20.251 21.3026 18.28 22.575C13.9763 25.3375 9.53752 26.44 5.05877 25.8625L18.25 12.6663L23.6375 18.055ZM27.57 7.5175L21.75 13.3375L19.665 11.25L25.4838 5.43C25.7604 5.15335 26.1357 4.99793 26.5269 4.99793C26.9181 4.99793 27.2934 5.15335 27.57 5.43C27.8467 5.70666 28.0021 6.08188 28.0021 6.47313C28.0021 6.86438 27.8467 7.2396 27.57 7.51625V7.5175Z" fill="#343330"/>
</svg>
