<svg width="32" height="32" viewBox="0 0 32 32" fill="none" xmlns="http://www.w3.org/2000/svg">
<path d="M22 9.3475V9C22 8.46957 21.7893 7.96086 21.4142 7.58579C21.0392 7.21071 20.5305 7 20 7H17V2C17 1.73478 16.8947 1.48043 16.7071 1.29289C16.5196 1.10536 16.2652 1 16 1C15.7348 1 15.4805 1.10536 15.2929 1.29289C15.1054 1.48043 15 1.73478 15 2V7H12C11.4696 7 10.9609 7.21071 10.5858 7.58579C10.2107 7.96086 10 8.46957 10 9V9.3475C7.6033 10.4799 5.57833 12.2709 4.16171 14.5114C2.74509 16.7519 1.99533 19.3492 2.00002 22C2.00002 22.2652 2.10538 22.5196 2.29292 22.7071C2.48045 22.8946 2.73481 23 3.00002 23H11C11 24.3261 11.5268 25.5979 12.4645 26.5355C13.4022 27.4732 14.6739 28 16 28C17.3261 28 18.5979 27.4732 19.5356 26.5355C20.4732 25.5979 21 24.3261 21 23H29C29.2652 23 29.5196 22.8946 29.7071 22.7071C29.8947 22.5196 30 22.2652 30 22C30.0047 19.3492 29.255 16.7519 27.8383 14.5114C26.4217 12.2709 24.3967 10.4799 22 9.3475ZM16 26C15.2044 26 14.4413 25.6839 13.8787 25.1213C13.3161 24.5587 13 23.7956 13 23H19C19 23.7956 18.684 24.5587 18.1213 25.1213C17.5587 25.6839 16.7957 26 16 26ZM4.04127 21C4.22095 18.8071 5.00138 16.7061 6.29688 14.9277C7.59238 13.1493 9.35286 11.7622 11.385 10.9187C11.5665 10.843 11.7216 10.7155 11.831 10.5521C11.9404 10.3887 11.9992 10.1966 12 10V9H20V10C20.0001 10.1973 20.0585 10.3901 20.168 10.5543C20.2774 10.7184 20.4329 10.8465 20.615 10.9225C22.6467 11.7657 24.4068 13.1522 25.7022 14.9299C26.9977 16.7076 27.7784 18.8078 27.9588 21H4.04127Z" fill="#343330"/>
</svg>
