<svg width="32" height="32" viewBox="0 0 32 32" fill="none" xmlns="http://www.w3.org/2000/svg">
<path d="M25.7162 7.49125C23.1062 5.885 19.655 5 16 5C12.345 5 8.89375 5.885 6.28375 7.49125C3.52125 9.19 2 11.5 2 14C2 16.5 3.52125 18.805 6.28375 20.5C8.65875 21.9587 11.72 22.82 15 22.9662C15.0157 23.7984 14.8087 24.6197 14.4003 25.3449C13.992 26.0702 13.3972 26.6731 12.6775 27.0912C10.8475 28.1987 8.35 28.2812 6.4625 27.2962C6.34579 27.2315 6.21729 27.1908 6.08459 27.1764C5.95188 27.1621 5.81765 27.1745 5.68981 27.2129C5.56197 27.2513 5.44311 27.3148 5.34023 27.3999C5.23735 27.4849 5.15253 27.5897 5.09078 27.708C5.02902 27.8263 4.99158 27.9558 4.98067 28.0889C4.96975 28.2219 4.98557 28.3558 5.02721 28.4826C5.06884 28.6094 5.13544 28.7266 5.22308 28.8273C5.31072 28.9279 5.41763 29.01 5.5375 29.0688C6.72312 29.6834 8.03954 30.0028 9.375 30C10.9035 30.006 12.4047 29.5954 13.7175 28.8125C15.8425 27.5287 17.0037 25.455 17.0037 22.975C20.2838 22.8288 23.3487 21.9675 25.72 20.5088C28.4787 18.805 30 16.5 30 14C30 11.5 28.4788 9.19 25.7162 7.49125ZM8.42625 19.3975C9.08125 18.2037 10.3563 17.8975 11.3675 18.0225C12.73 18.2 14.1 19.1638 14.6938 20.95C12.3888 20.8063 10.2313 20.27 8.42625 19.3975ZM24.6688 18.8013C22.55 20.105 19.7725 20.8675 16.7775 20.98C16.5405 19.9187 16.0522 18.9298 15.3538 18.0963C14.4097 16.9717 13.0801 16.2398 11.625 16.0438C9.5 15.7688 7.66 16.6825 6.7025 18.3813C4.955 17.125 4 15.5912 4 14C4 12.2238 5.18375 10.5175 7.33125 9.19625C9.63125 7.77875 12.71 7 16 7C19.29 7 22.375 7.77875 24.6688 9.19375C26.8162 10.515 28 12.2213 28 14C28 15.7787 26.8162 17.48 24.6688 18.8013Z" fill="#343330"/>
</svg>
