<svg width="32" height="32" viewBox="0 0 32 32" fill="none" xmlns="http://www.w3.org/2000/svg">
<path d="M31 20C31 21.3261 30.4732 22.5979 29.5355 23.5355C28.5979 24.4732 27.3261 25 26 25H23.8213C22.4897 24.9968 21.1865 24.6153 20.0634 23.9001C18.9403 23.1848 18.0435 22.1652 17.4775 20.96L13.71 12.885C13.3057 12.0242 12.6651 11.296 11.8628 10.7852C11.0606 10.2745 10.1298 10.0021 9.17875 10H8C6.67392 10 5.40215 10.5268 4.46447 11.4645C3.52678 12.4021 3 13.6739 3 15V18C3 18.6566 3.12933 19.3068 3.3806 19.9134C3.63188 20.52 4.00017 21.0712 4.46447 21.5355C5.40215 22.4732 6.67392 23 8 23H9C9.77855 23.0003 10.5403 22.7733 11.1917 22.347C11.8432 21.9207 12.3561 21.3136 12.6675 20.6C12.7181 20.4768 12.7928 20.3649 12.8872 20.271C12.9816 20.1771 13.0938 20.1029 13.2172 20.0529C13.3406 20.0029 13.4728 19.9781 13.606 19.9799C13.7391 19.9817 13.8706 20.01 13.9927 20.0633C14.1147 20.1166 14.2249 20.1937 14.3167 20.2902C14.4086 20.3866 14.4802 20.5004 14.5275 20.6249C14.5748 20.7495 14.5967 20.8822 14.5919 21.0152C14.5872 21.1483 14.556 21.2792 14.5 21.4C14.033 22.4701 13.2638 23.3808 12.2869 24.0202C11.3099 24.6597 10.1676 25.0002 9 25H8C6.14409 24.998 4.36477 24.2599 3.05245 22.9476C1.74012 21.6352 1.00199 19.8559 1 18V15C1.00199 13.1441 1.74012 11.3648 3.05245 10.0524C4.36477 8.74012 6.14409 8.00199 8 8H9.17875C10.5103 8.00324 11.8135 8.3847 12.9366 9.09995C14.0597 9.81519 14.9565 10.8348 15.5225 12.04L19.29 20.115C19.6943 20.9758 20.3349 21.704 21.1372 22.2148C21.9394 22.7255 22.8702 22.9979 23.8213 23H26C26.7956 23 27.5587 22.6839 28.1213 22.1213C28.6839 21.5587 29 20.7956 29 20C29 19.2044 28.6839 18.4413 28.1213 17.8787C27.5587 17.3161 26.7956 17 26 17H23.5C22.3065 17 21.1619 16.5259 20.318 15.682C19.4741 14.8381 19 13.6935 19 12.5C19 11.3065 19.4741 10.1619 20.318 9.31802C21.1619 8.47411 22.3065 8 23.5 8H26C27.0609 8 28.0783 8.42143 28.8284 9.17157C29.5786 9.92172 30 10.9391 30 12C30 12.2652 29.8946 12.5196 29.7071 12.7071C29.5196 12.8946 29.2652 13 29 13C28.7348 13 28.4804 12.8946 28.2929 12.7071C28.1054 12.5196 28 12.2652 28 12C28 11.4696 27.7893 10.9609 27.4142 10.5858C27.0391 10.2107 26.5304 10 26 10H23.5C22.837 10 22.2011 10.2634 21.7322 10.7322C21.2634 11.2011 21 11.837 21 12.5C21 13.163 21.2634 13.7989 21.7322 14.2678C22.2011 14.7366 22.837 15 23.5 15H26C27.3261 15 28.5979 15.5268 29.5355 16.4645C30.4732 17.4021 31 18.6739 31 20Z" fill="#343330"/>
</svg>
