<svg width="32" height="32" viewBox="0 0 32 32" fill="none" xmlns="http://www.w3.org/2000/svg">
<path d="M27.9313 5.00877C27.917 4.76413 27.8134 4.53325 27.6401 4.35997C27.4668 4.18668 27.236 4.08306 26.9913 4.06877C17.4751 3.51002 9.85257 6.37502 6.60257 11.75C5.47602 13.5887 4.92089 15.7204 5.00757 17.875C5.07882 19.865 5.65882 21.875 6.73132 23.8563L4.29257 26.2938C4.10493 26.4814 3.99951 26.7359 3.99951 27.0013C3.99951 27.2666 4.10493 27.5211 4.29257 27.7088C4.48021 27.8964 4.7347 28.0018 5.00007 28.0018C5.26543 28.0018 5.51993 27.8964 5.70757 27.7088L8.14507 25.27C10.1251 26.3413 12.1363 26.9213 14.1251 26.9925C14.2642 26.9975 14.403 27 14.5413 27C16.556 27.0054 18.5325 26.4506 20.2501 25.3975C25.6251 22.1475 28.4913 14.5263 27.9313 5.00877ZM19.2188 23.6875C16.3751 25.41 13.0088 25.4375 9.63007 23.7838L20.7088 12.7063C20.8017 12.6134 20.8754 12.5031 20.9257 12.3817C20.976 12.2603 21.0019 12.1302 21.0019 11.9988C21.0019 11.8674 20.976 11.7373 20.9257 11.6159C20.8754 11.4945 20.8017 11.3842 20.7088 11.2913C20.6159 11.1984 20.5056 11.1247 20.3842 11.0744C20.2628 11.0241 20.1327 10.9982 20.0013 10.9982C19.8699 10.9982 19.7398 11.0241 19.6184 11.0744C19.497 11.1247 19.3867 11.1984 19.2938 11.2913L8.21632 22.375C6.56757 19 6.59132 15.625 8.31257 12.7863C11.0738 8.22752 17.6376 5.73127 25.9763 6.02877C26.2751 14.3613 23.7776 20.9263 19.2188 23.6875Z" fill="#343330"/>
</svg>
