<svg width="32" height="32" viewBox="0 0 32 32" fill="none" xmlns="http://www.w3.org/2000/svg">
<path d="M30.7875 15.105L25.7875 5.10501C25.6223 4.77237 25.3674 4.4926 25.0515 4.29732C24.7356 4.10204 24.3713 3.99905 24 4.00001H7.99997C7.62859 3.99905 7.26436 4.10204 6.94847 4.29732C6.63257 4.4926 6.37763 4.77237 6.21247 5.10501L1.21247 15.105C1.05993 15.4098 0.987831 15.7486 1.00303 16.0892C1.01822 16.4297 1.1202 16.7607 1.29929 17.0507C1.47837 17.3408 1.72862 17.5802 2.02627 17.7464C2.32392 17.9125 2.65909 17.9998 2.99997 18H15V26H12C11.7348 26 11.4804 26.1054 11.2929 26.2929C11.1053 26.4804 11 26.7348 11 27C11 27.2652 11.1053 27.5196 11.2929 27.7071C11.4804 27.8946 11.7348 28 12 28H20C20.2652 28 20.5195 27.8946 20.7071 27.7071C20.8946 27.5196 21 27.2652 21 27C21 26.7348 20.8946 26.4804 20.7071 26.2929C20.5195 26.1054 20.2652 26 20 26H17V18H29C29.341 18 29.6763 17.9129 29.9741 17.7468C30.2719 17.5808 30.5223 17.3414 30.7016 17.0513C30.8808 16.7612 30.9829 16.4301 30.9981 16.0895C31.0134 15.7488 30.9413 15.4099 30.7887 15.105H30.7875ZM2.99997 16L7.99997 6.00001H24L29 16H2.99997ZM24 13C24 13.2652 23.8946 13.5196 23.7071 13.7071C23.5195 13.8946 23.2652 14 23 14H8.99997C8.73475 14 8.4804 13.8946 8.29286 13.7071C8.10533 13.5196 7.99997 13.2652 7.99997 13C7.99997 12.7348 8.10533 12.4804 8.29286 12.2929C8.4804 12.1054 8.73475 12 8.99997 12H23C23.2652 12 23.5195 12.1054 23.7071 12.2929C23.8946 12.4804 24 12.7348 24 13Z" fill="#343330"/>
</svg>
