<svg width="32" height="32" viewBox="0 0 32 32" fill="none" xmlns="http://www.w3.org/2000/svg">
<path d="M12.5 15.5C12.2033 15.5 11.9133 15.412 11.6666 15.2472C11.42 15.0824 11.2277 14.8481 11.1142 14.574C11.0006 14.2999 10.9709 13.9983 11.0288 13.7074C11.0867 13.4164 11.2296 13.1491 11.4393 12.9393C11.6491 12.7296 11.9164 12.5867 12.2074 12.5288C12.4983 12.4709 12.7999 12.5006 13.074 12.6142C13.3481 12.7277 13.5824 12.92 13.7472 13.1666C13.912 13.4133 14 13.7033 14 14C14 14.3978 13.842 14.7794 13.5607 15.0607C13.2794 15.342 12.8978 15.5 12.5 15.5ZM19.5 12.5C19.2033 12.5 18.9133 12.588 18.6666 12.7528C18.42 12.9176 18.2277 13.1519 18.1142 13.426C18.0007 13.7001 17.9709 14.0017 18.0288 14.2926C18.0867 14.5836 18.2296 14.8509 18.4393 15.0607C18.6491 15.2704 18.9164 15.4133 19.2074 15.4712C19.4983 15.5291 19.7999 15.4994 20.074 15.3858C20.3481 15.2723 20.5824 15.08 20.7472 14.8334C20.912 14.5867 21 14.2967 21 14C21 13.6022 20.842 13.2206 20.5607 12.9393C20.2794 12.658 19.8978 12.5 19.5 12.5ZM18.9662 18.1537C18.0756 18.7065 17.0482 18.9994 16 18.9994C14.9518 18.9994 13.9244 18.7065 13.0337 18.1537C12.8093 18.0122 12.5378 17.9656 12.279 18.0242C12.0202 18.0828 11.7953 18.2418 11.6538 18.4662C11.5122 18.6907 11.4656 18.9622 11.5242 19.221C11.5828 19.4798 11.7418 19.7047 11.9663 19.8463C13.1764 20.6007 14.5739 21.0006 16 21.0006C17.4261 21.0006 18.8236 20.6007 20.0338 19.8463C20.1449 19.7762 20.2411 19.6849 20.317 19.5776C20.3928 19.4703 20.4468 19.3491 20.4758 19.221C20.5048 19.0928 20.5083 18.9602 20.4861 18.8307C20.4639 18.7012 20.4163 18.5774 20.3463 18.4662C20.2762 18.3551 20.1849 18.2589 20.0776 18.183C19.9703 18.1072 19.8491 18.0532 19.721 18.0242C19.5928 17.9952 19.4602 17.9917 19.3307 18.0139C19.2012 18.0361 19.0774 18.0837 18.9662 18.1537ZM27 10V22C26.9992 22.8868 26.7042 23.7483 26.1613 24.4495C25.6185 25.1507 24.8583 25.6521 24 25.875V28C24 28.5304 23.7893 29.0391 23.4142 29.4142C23.0391 29.7893 22.5304 30 22 30H10C9.46957 30 8.96086 29.7893 8.58579 29.4142C8.21071 29.0391 8 28.5304 8 28V25.875C7.14168 25.6521 6.38155 25.1507 5.83867 24.4495C5.2958 23.7483 5.00084 22.8868 5 22V10C5 8.93913 5.42143 7.92172 6.17157 7.17157C6.92172 6.42143 7.93913 6 9 6H11V4C11 3.46957 11.2107 2.96086 11.5858 2.58579C11.9609 2.21071 12.4696 2 13 2H19C19.5304 2 20.0391 2.21071 20.4142 2.58579C20.7893 2.96086 21 3.46957 21 4V6H23C24.0609 6 25.0783 6.42143 25.8284 7.17157C26.5786 7.92172 27 8.93913 27 10ZM13 6H19V4H13V6ZM22 28V26H10V28H22ZM25 10C25 9.46957 24.7893 8.96086 24.4142 8.58579C24.0391 8.21071 23.5304 8 23 8H9C8.46957 8 7.96086 8.21071 7.58579 8.58579C7.21071 8.96086 7 9.46957 7 10V22C7 22.5304 7.21071 23.0391 7.58579 23.4142C7.96086 23.7893 8.46957 24 9 24H23C23.5304 24 24.0391 23.7893 24.4142 23.4142C24.7893 23.0391 25 22.5304 25 22V10Z" fill="#343330"/>
</svg>
