<svg width="32" height="32" viewBox="0 0 32 32" fill="none" xmlns="http://www.w3.org/2000/svg">
<path d="M30.4475 9.105L24.6612 6.2125C23.9425 4.905 22.1512 4 20 4C17.1963 4 15 5.5375 15 7.5C15.0003 7.77741 15.045 8.05299 15.1325 8.31625L12.6925 9.53625C11.8415 9.17388 10.9249 8.99131 10 9C7.19625 9 5 10.5375 5 12.5C5.00027 12.7774 5.04501 13.053 5.1325 13.3162L1.5525 15.105C1.38636 15.1881 1.24667 15.3159 1.14908 15.474C1.05149 15.6321 0.999867 15.8142 1 16V24C0.999867 24.1858 1.05149 24.3679 1.14908 24.526C1.24667 24.6841 1.38636 24.8119 1.5525 24.895L9.5525 28.895C9.69143 28.9645 9.84465 29.0007 10 29.0007C10.1554 29.0007 10.3086 28.9645 10.4475 28.895L30.4475 18.895C30.6136 18.8119 30.7533 18.6841 30.8509 18.526C30.9485 18.3679 31.0001 18.1858 31 18V10C31.0001 9.81422 30.9485 9.63208 30.8509 9.47399C30.7533 9.31591 30.6136 9.18814 30.4475 9.105ZM10 18.8825L4.23625 16L6.375 14.9312C7.28 15.5925 8.56 16 10 16C12.8038 16 15 14.4625 15 12.5C14.9953 11.919 14.8047 11.3549 14.4563 10.89L16.375 9.93125C17.28 10.5925 18.56 11 20 11C22.2975 11 24.1863 9.9675 24.7938 8.515L27.7638 10L10 18.8825ZM20 6C21.7175 6 23 6.7925 23 7.5C23 8.2075 21.7175 9 20 9C18.2825 9 17 8.2075 17 7.5C17 6.7925 18.2825 6 20 6ZM10 11C11.7175 11 13 11.7925 13 12.5C13 13.2075 11.7175 14 10 14C8.79125 14 7.79875 13.6075 7.31625 13.125C7.28423 13.0837 7.24913 13.0448 7.21125 13.0087C7.0848 12.8683 7.01025 12.6887 7 12.5C7 11.7925 8.2825 11 10 11ZM3 17.6175L9 20.6175V26.3825L3 23.3825V17.6175ZM11 26.3825V20.6175L29 11.6175V17.3825L11 26.3825Z" fill="#343330"/>
</svg>
