<svg width="32" height="32" viewBox="0 0 32 32" fill="none" xmlns="http://www.w3.org/2000/svg">
<path d="M25.9038 25.4275C25.8476 25.5463 25.7686 25.6529 25.6712 25.7412C25.5738 25.8294 25.46 25.8976 25.3362 25.9419C25.2125 25.9861 25.0812 26.0055 24.95 25.999C24.8187 25.9924 24.69 25.9601 24.5713 25.9038L5.57127 16.9038C5.40016 16.8227 5.25557 16.6948 5.15433 16.5348C5.05308 16.3748 4.99933 16.1894 4.99933 16C4.99933 15.8107 5.05308 15.6253 5.15433 15.4653C5.25557 15.3053 5.40016 15.1773 5.57127 15.0963L24.5713 6.09628C24.69 6.04006 24.8185 6.00776 24.9497 6.00124C25.0809 5.99471 25.212 6.01408 25.3357 6.05825C25.4594 6.10242 25.5732 6.17051 25.6705 6.25864C25.7679 6.34677 25.8469 6.45322 25.9031 6.5719C25.9594 6.69059 25.9917 6.81918 25.9982 6.95034C26.0047 7.08151 25.9853 7.21267 25.9412 7.33635C25.897 7.46002 25.8289 7.57379 25.7408 7.67115C25.6526 7.76851 25.5462 7.84756 25.4275 7.90378L8.33627 16L25.4275 24.0963C25.6672 24.2097 25.852 24.4137 25.9413 24.6633C26.0306 24.9129 26.0171 25.1878 25.9038 25.4275Z" fill="#343330"/>
</svg>
