<svg width="32" height="32" viewBox="0 0 32 32" fill="none" xmlns="http://www.w3.org/2000/svg">
<path d="M5 13C5.00013 12.7957 5.06286 12.5963 5.17974 12.4287C5.29662 12.2611 5.46205 12.1333 5.65375 12.0625L24.6537 5.06254C24.8994 4.9831 25.1663 5.00177 25.3986 5.11465C25.6308 5.22753 25.8104 5.42586 25.8997 5.66813C25.989 5.9104 25.9811 6.17783 25.8778 6.41444C25.7744 6.65105 25.5835 6.8385 25.345 6.93754L8.8925 13L25.345 19.0613C25.5655 19.1422 25.7505 19.2982 25.8675 19.5019C25.9845 19.7056 26.0261 19.944 25.9849 20.1752C25.9438 20.4065 25.8225 20.6159 25.6424 20.7667C25.4623 20.9175 25.2349 21.0001 25 21C24.8819 20.9999 24.7647 20.9792 24.6537 20.9388L5.65375 13.9388C5.46185 13.868 5.29628 13.74 5.17938 13.5721C5.06249 13.4043 4.99988 13.2046 5 13ZM25 24H6C5.73478 24 5.48043 24.1054 5.29289 24.2929C5.10536 24.4805 5 24.7348 5 25C5 25.2653 5.10536 25.5196 5.29289 25.7072C5.48043 25.8947 5.73478 26 6 26H25C25.2652 26 25.5196 25.8947 25.7071 25.7072C25.8946 25.5196 26 25.2653 26 25C26 24.7348 25.8946 24.4805 25.7071 24.2929C25.5196 24.1054 25.2652 24 25 24Z" fill="#343330"/>
</svg>
