<svg width="32" height="32" viewBox="0 0 32 32" fill="none" xmlns="http://www.w3.org/2000/svg">
<path d="M16 3C13.4288 3 10.9154 3.76244 8.77759 5.1909C6.63975 6.61935 4.97351 8.64968 3.98957 11.0251C3.00563 13.4006 2.74819 16.0144 3.2498 18.5362C3.75141 21.0579 4.98953 23.3743 6.80762 25.1924C8.6257 27.0105 10.9421 28.2486 13.4638 28.7502C15.9856 29.2518 18.5995 28.9944 20.9749 28.0104C23.3503 27.0265 25.3807 25.3603 26.8091 23.2224C28.2376 21.0846 29 18.5712 29 16C28.9964 12.5533 27.6256 9.24882 25.1884 6.81163C22.7512 4.37445 19.4467 3.00364 16 3ZM16 27C13.8244 27 11.6977 26.3549 9.88873 25.1462C8.07979 23.9375 6.66989 22.2195 5.83733 20.2095C5.00477 18.1995 4.78693 15.9878 5.21137 13.854C5.63581 11.7202 6.68345 9.7602 8.22183 8.22183C9.76021 6.68345 11.7202 5.6358 13.854 5.21136C15.9878 4.78692 18.1995 5.00476 20.2095 5.83733C22.2195 6.66989 23.9375 8.07979 25.1462 9.88873C26.3549 11.6977 27 13.8244 27 16C26.9967 18.9164 25.8367 21.7123 23.7745 23.7745C21.7123 25.8367 18.9164 26.9967 16 27ZM20.9288 12.375L16.9288 22.375C16.8546 22.5607 16.7265 22.72 16.5609 22.8322C16.3954 22.9443 16.2 23.0043 16 23.0043C15.8 23.0043 15.6046 22.9443 15.4391 22.8322C15.2735 22.72 15.1454 22.5607 15.0713 22.375L11.0713 12.375C11.022 12.253 10.9973 12.1226 10.9984 11.991C10.9996 11.8595 11.0267 11.7295 11.0781 11.6084C11.182 11.3639 11.3787 11.1707 11.625 11.0712C11.8713 10.9718 12.1471 10.9743 12.3916 11.0781C12.6361 11.182 12.8293 11.3787 12.9288 11.625L16 19.3075L19.0713 11.625C19.1707 11.3787 19.3639 11.182 19.6084 11.0781C19.8529 10.9743 20.1287 10.9718 20.375 11.0712C20.6213 11.1707 20.818 11.3639 20.9219 11.6084C21.0257 11.8529 21.0282 12.1287 20.9288 12.375Z" fill="#343330"/>
</svg>
