<svg width="32" height="32" viewBox="0 0 32 32" fill="none" xmlns="http://www.w3.org/2000/svg">
<path d="M21.9999 29C21.9999 29.2652 21.8946 29.5196 21.707 29.7071C21.5195 29.8946 21.2651 30 20.9999 30H10.9999C10.7347 30 10.4803 29.8946 10.2928 29.7071C10.1053 29.5196 9.99992 29.2652 9.99992 29C9.99992 28.7348 10.1053 28.4804 10.2928 28.2929C10.4803 28.1053 10.7347 28 10.9999 28H20.9999C21.2651 28 21.5195 28.1053 21.707 28.2929C21.8946 28.4804 21.9999 28.7348 21.9999 29ZM26.9999 13C27.0042 14.667 26.6276 16.313 25.8989 17.8124C25.1701 19.3117 24.1085 20.6247 22.7949 21.6512C22.5493 21.8395 22.35 22.0814 22.2122 22.3585C22.0744 22.6356 22.0018 22.9405 21.9999 23.25V24C21.9999 24.5304 21.7892 25.0391 21.4141 25.4142C21.0391 25.7893 20.5304 26 19.9999 26H11.9999C11.4695 26 10.9608 25.7893 10.5857 25.4142C10.2106 25.0391 9.99992 24.5304 9.99992 24V23.25C9.99971 22.9442 9.92941 22.6426 9.79441 22.3683C9.65941 22.0939 9.4633 21.8542 9.22117 21.6675C7.91109 20.6472 6.85024 19.3422 6.11892 17.8514C5.38759 16.3606 5.00494 14.723 4.99992 13.0625C4.96742 7.10374 9.78242 2.14374 15.7349 1.99999C17.2016 1.96464 18.6605 2.22305 20.0259 2.76001C21.3912 3.29697 22.6353 4.10162 23.685 5.1266C24.7347 6.15159 25.5687 7.3762 26.138 8.72835C26.7073 10.0805 27.0003 11.5329 26.9999 13ZM24.9999 13C25.0003 11.7996 24.7605 10.6112 24.2946 9.50485C23.8288 8.3985 23.1464 7.39651 22.2875 6.55788C21.4286 5.71924 20.4106 5.06091 19.2934 4.62162C18.1762 4.18234 16.9825 3.97098 15.7824 3.99999C10.9074 4.11499 6.97367 8.17374 6.99992 13.0487C7.00439 14.407 7.31778 15.7464 7.91636 16.9657C8.51494 18.1849 9.38303 19.252 10.4549 20.0862C10.9367 20.4608 11.3264 20.9406 11.5942 21.489C11.862 22.0374 12.0008 22.6397 11.9999 23.25V24H14.9999V18.4137L11.2924 14.7075C11.1048 14.5198 10.9994 14.2654 10.9994 14C10.9994 13.7346 11.1048 13.4801 11.2924 13.2925C11.4801 13.1048 11.7346 12.9994 11.9999 12.9994C12.2653 12.9994 12.5198 13.1048 12.7074 13.2925L15.9999 16.5862L19.2924 13.2925C19.3853 13.1996 19.4956 13.1259 19.617 13.0756C19.7384 13.0253 19.8685 12.9994 19.9999 12.9994C20.1313 12.9994 20.2614 13.0253 20.3828 13.0756C20.5042 13.1259 20.6145 13.1996 20.7074 13.2925C20.8003 13.3854 20.874 13.4957 20.9243 13.6171C20.9746 13.7385 21.0005 13.8686 21.0005 14C21.0005 14.1314 20.9746 14.2615 20.9243 14.3829C20.874 14.5043 20.8003 14.6146 20.7074 14.7075L16.9999 18.4137V24H19.9999V23.25C20.001 22.6379 20.1421 22.0342 20.4122 21.485C20.6824 20.9358 21.0745 20.4557 21.5587 20.0812C22.6338 19.241 23.5027 18.1663 24.0991 16.939C24.6955 15.7118 25.0036 14.3645 24.9999 13Z" fill="#343330"/>
</svg>
