<svg width="32" height="32" viewBox="0 0 32 32" fill="none" xmlns="http://www.w3.org/2000/svg">
<path d="M21.9999 29C21.9999 29.2652 21.8946 29.5196 21.707 29.7071C21.5195 29.8946 21.2651 30 20.9999 30H10.9999C10.7347 30 10.4803 29.8946 10.2928 29.7071C10.1053 29.5196 9.99992 29.2652 9.99992 29C9.99992 28.7348 10.1053 28.4804 10.2928 28.2929C10.4803 28.1053 10.7347 28 10.9999 28H20.9999C21.2651 28 21.5195 28.1053 21.707 28.2929C21.8946 28.4804 21.9999 28.7348 21.9999 29ZM26.9999 13C27.0042 14.667 26.6276 16.313 25.8989 17.8124C25.1701 19.3117 24.1085 20.6247 22.7949 21.6512C22.5493 21.8395 22.35 22.0814 22.2122 22.3585C22.0744 22.6356 22.0018 22.9405 21.9999 23.25V24C21.9999 24.5304 21.7892 25.0391 21.4141 25.4142C21.0391 25.7893 20.5304 26 19.9999 26H11.9999C11.4695 26 10.9608 25.7893 10.5857 25.4142C10.2106 25.0391 9.99992 24.5304 9.99992 24V23.25C9.99971 22.9442 9.92941 22.6426 9.79441 22.3683C9.65941 22.0939 9.4633 21.8542 9.22117 21.6675C7.91092 20.647 6.84998 19.3419 6.11864 17.8509C5.38731 16.3598 5.00475 14.722 4.99992 13.0612C4.96742 7.10374 9.78242 2.14249 15.7349 1.99999C17.2016 1.96464 18.6605 2.22305 20.0259 2.76001C21.3912 3.29697 22.6353 4.10162 23.685 5.1266C24.7347 6.15159 25.5687 7.3762 26.138 8.72835C26.7073 10.0805 27.0003 11.5329 26.9999 13ZM24.9999 13C25.0003 11.7996 24.7605 10.6112 24.2946 9.50485C23.8288 8.3985 23.1464 7.39651 22.2875 6.55788C21.4286 5.71924 20.4106 5.06091 19.2934 4.62162C18.1762 4.18234 16.9825 3.97098 15.7824 3.99999C10.9074 4.11499 6.97367 8.17374 6.99992 13.0487C7.00449 14.407 7.31791 15.7464 7.91649 16.9656C8.51506 18.1848 9.38309 19.252 10.4549 20.0862C10.9367 20.4608 11.3264 20.9406 11.5942 21.489C11.862 22.0374 12.0008 22.6397 11.9999 23.25V24H19.9999V23.25C20.0013 22.638 20.1425 22.0344 20.4126 21.4852C20.6827 20.9361 21.0747 20.4559 21.5587 20.0812C22.6338 19.241 23.5027 18.1663 24.0991 16.939C24.6955 15.7118 25.0036 14.3645 24.9999 13ZM22.9862 11.8325C22.7269 10.3841 22.03 9.04994 20.9895 8.00961C19.9489 6.96928 18.6146 6.27273 17.1662 6.01374C17.0367 5.99191 16.9041 5.9958 16.7761 6.02519C16.6481 6.05458 16.5271 6.1089 16.4201 6.18505C16.3131 6.26119 16.2221 6.35767 16.1524 6.46897C16.0826 6.58027 16.0355 6.70422 16.0137 6.83374C15.9918 6.96325 15.9957 7.0958 16.0251 7.22381C16.0545 7.35183 16.1088 7.4728 16.185 7.57982C16.2611 7.68684 16.3576 7.77781 16.4689 7.84754C16.5802 7.91728 16.7042 7.96441 16.8337 7.98624C18.9049 8.33499 20.6624 10.0925 21.0137 12.1675C21.0532 12.4004 21.174 12.6118 21.3545 12.7641C21.535 12.9165 21.7637 13.0001 21.9999 13C22.0564 12.9997 22.1128 12.9951 22.1687 12.9862C22.4301 12.9416 22.663 12.795 22.8163 12.5786C22.9696 12.3623 23.0307 12.0939 22.9862 11.8325Z" fill="#343330"/>
</svg>
