<svg width="32" height="32" viewBox="0 0 32 32" fill="none" xmlns="http://www.w3.org/2000/svg">
<path d="M29.83 4.17C29.4585 3.79847 29.0175 3.50375 28.5322 3.30268C28.0468 3.1016 27.5266 2.99811 27.0012 2.99811C26.4759 2.99811 25.9556 3.1016 25.4703 3.30268C24.9849 3.50375 24.5439 3.79847 24.1725 4.17C23.8009 4.54145 23.5062 4.98245 23.3051 5.46781C23.1041 5.95317 23.0006 6.47339 23.0006 6.99875C23.0006 7.52412 23.1041 8.04434 23.3051 8.5297C23.5062 9.01506 23.8009 9.45606 24.1725 9.8275C24.2087 9.86375 24.2475 9.89875 24.285 9.93375L20.9562 16.1163C19.9413 15.8688 18.87 16.0257 17.9687 16.5538L15.4462 14.0313C15.9425 13.1925 16.1155 12.2014 15.9326 11.2441C15.7498 10.2868 15.2238 9.42918 14.4533 8.83232C13.6829 8.23545 12.721 7.9404 11.7484 8.00258C10.7758 8.06476 9.85939 8.47989 9.17122 9.17C8.79969 9.54145 8.50497 9.98245 8.30389 10.4678C8.10282 10.9532 7.99932 11.4734 7.99932 11.9988C7.99932 12.5241 8.10282 13.0443 8.30389 13.5297C8.50497 14.0151 8.79969 14.4561 9.17122 14.8275C9.20747 14.8638 9.24497 14.8988 9.28247 14.9338L5.95372 21.1175C5.28555 20.953 4.58625 20.9637 3.92342 21.1486C3.2606 21.3334 2.65665 21.686 2.16997 22.1725C1.61065 22.732 1.22978 23.4447 1.07551 24.2206C0.921245 24.9965 1.00051 25.8007 1.30329 26.5316C1.60607 27.2624 2.11876 27.8871 2.77653 28.3265C3.43431 28.766 4.20763 29.0006 4.99872 29.0006C5.78981 29.0006 6.56313 28.766 7.22091 28.3265C7.87868 27.8871 8.39137 27.2624 8.69415 26.5316C8.99693 25.8007 9.07619 24.9965 8.92193 24.2206C8.76766 23.4447 8.38679 22.732 7.82747 22.1725C7.79122 22.1363 7.75247 22.1013 7.71497 22.0663L11.0437 15.8838C11.3567 15.9604 11.6777 15.9994 12 16C12.7141 16.0009 13.4155 15.8105 14.0312 15.4488L16.5537 17.9713C16.174 18.6158 15.9825 19.3539 16.0012 20.1017C16.0199 20.8495 16.2479 21.5771 16.6593 22.2019C17.0708 22.8267 17.6492 23.3235 18.3288 23.636C19.0085 23.9486 19.7622 24.0643 20.5043 23.9699C21.2464 23.8756 21.9472 23.5751 22.527 23.1025C23.1069 22.6299 23.5426 22.0041 23.7847 21.2963C24.0268 20.5885 24.0656 19.827 23.8966 19.0983C23.7276 18.3695 23.3576 17.7028 22.8287 17.1738C22.7925 17.1375 22.755 17.1025 22.7175 17.0675L26.0462 10.885C26.3584 10.9611 26.6786 10.9997 27 11C27.7909 10.9999 28.5641 10.7653 29.2218 10.3258C29.8794 9.88636 30.392 9.26179 30.6947 8.53106C30.9975 7.80034 31.0768 6.99626 30.9227 6.22046C30.7685 5.44466 30.3878 4.73198 29.8287 4.1725L29.83 4.17ZM6.41247 26.4163C6.03719 26.7914 5.52826 27.002 4.99765 27.0019C4.46704 27.0018 3.95821 26.7909 3.5831 26.4156C3.20798 26.0403 2.99731 25.5314 2.99742 25.0008C2.99754 24.4702 3.20844 23.9614 3.58372 23.5863C3.76954 23.4005 3.99013 23.2532 4.23288 23.1527C4.47563 23.0522 4.73581 23.0005 4.99854 23.0006C5.26127 23.0006 5.52142 23.0524 5.76413 23.153C6.00684 23.2536 6.22736 23.4011 6.41309 23.5869C6.59883 23.7727 6.74615 23.9933 6.84664 24.236C6.94713 24.4788 6.99882 24.739 6.99877 25.0017C6.99871 25.2644 6.9469 25.5246 6.8463 25.7673C6.74571 26.01 6.59829 26.2305 6.41247 26.4163ZM10.585 13.4163C10.3992 13.2305 10.2518 13.01 10.1513 12.7674C10.0508 12.5247 9.99902 12.2646 9.99902 12.0019C9.99902 11.7392 10.0508 11.4791 10.1513 11.2364C10.2518 10.9937 10.3992 10.7732 10.585 10.5875C10.8647 10.3078 11.2211 10.1174 11.609 10.0403C11.997 9.96314 12.3991 10.0028 12.7645 10.1542C13.1299 10.3056 13.4423 10.5619 13.662 10.8908C13.8817 11.2197 13.999 11.6063 13.999 12.0019C13.999 12.3974 13.8817 12.7841 13.662 13.113C13.4423 13.4419 13.1299 13.6982 12.7645 13.8496C12.3991 14.001 11.997 14.0406 11.609 13.9635C11.2211 13.8863 10.8647 13.6959 10.585 13.4163ZM21.415 21.4163C21.0399 21.7914 20.5311 22.0021 20.0006 22.0021C19.4701 22.0021 18.9613 21.7914 18.5862 21.4163C18.2111 21.0411 18.0004 20.5324 18.0004 20.0019C18.0004 19.4714 18.2111 18.9626 18.5862 18.5875C18.9613 18.2124 19.4701 18.0016 20.0006 18.0016C20.5311 18.0016 21.0399 18.2124 21.415 18.5875C21.7901 18.9626 22.0008 19.4714 22.0008 20.0019C22.0008 20.5324 21.7901 21.0411 21.415 21.4163ZM28.415 8.41625C28.0394 8.7912 27.5302 9.00158 26.9995 9.00112C26.4687 9.00065 25.9599 8.78937 25.585 8.41375C25.21 8.03814 24.9996 7.52896 25.0001 6.99824C25.0006 6.46751 25.2119 5.9587 25.5875 5.58375C25.7733 5.39802 25.9939 5.2507 26.2366 5.15021C26.4794 5.04972 26.7396 4.99803 27.0023 4.99808C27.265 4.99814 27.5252 5.04995 27.7679 5.15054C28.0106 5.25114 28.2311 5.39856 28.4168 5.58438C28.6026 5.7702 28.7499 5.99078 28.8504 6.23354C28.9509 6.47629 29.0026 6.73646 29.0025 6.9992C29.0025 7.26193 28.9507 7.52208 28.8501 7.76479C28.7495 8.0075 28.602 8.22801 28.4162 8.41375L28.415 8.41625Z" fill="#343330"/>
</svg>
