<svg width="32" height="32" viewBox="0 0 32 32" fill="none" xmlns="http://www.w3.org/2000/svg">
<path d="M24.8288 7.17125C24.0799 6.42258 23.0648 6.00138 22.0059 5.99997C20.947 5.99857 19.9308 6.41708 19.18 7.16375L17.7237 8.69C17.5375 8.86408 17.2918 8.96045 17.0369 8.95942C16.7819 8.95839 16.537 8.86003 16.3522 8.68446C16.1674 8.50888 16.0566 8.26934 16.0425 8.0148C16.0283 7.76026 16.112 7.50994 16.2763 7.315L17.7412 5.77875C17.7463 5.77302 17.7518 5.7676 17.7575 5.7625C18.8858 4.65242 20.4071 4.03316 21.9899 4.0396C23.5727 4.04605 25.0889 4.67768 26.2081 5.79691C27.3273 6.91614 27.959 8.4323 27.9654 10.0151C27.9718 11.5979 27.3526 13.1192 26.2425 14.2475C26.2374 14.2532 26.232 14.2587 26.2262 14.2638L24.69 15.7288C24.4951 15.893 24.2447 15.9767 23.9902 15.9625C23.7357 15.9484 23.4961 15.8376 23.3205 15.6528C23.145 15.468 23.0466 15.2231 23.0456 14.9681C23.0446 14.7132 23.1409 14.4675 23.315 14.2812L24.8412 12.825C25.5888 12.0733 26.0074 11.0556 26.005 9.99554C26.0027 8.93543 25.5796 7.91961 24.8288 7.17125ZM14.2762 23.31L12.82 24.8363C12.0662 25.5683 11.0547 25.9744 10.004 25.9667C8.95327 25.959 7.94777 25.5382 7.20479 24.7952C6.4618 24.0522 6.041 23.0467 6.03332 21.996C6.02564 20.9453 6.4317 19.9338 7.16375 19.18L8.69 17.7237C8.86408 17.5375 8.96045 17.2918 8.95942 17.0369C8.95839 16.7819 8.86003 16.537 8.68446 16.3522C8.50888 16.1674 8.26934 16.0566 8.0148 16.0425C7.76026 16.0283 7.50994 16.112 7.315 16.2763L5.77375 17.7412C5.76802 17.7463 5.7626 17.7518 5.7575 17.7575C4.64742 18.8858 4.02816 20.4071 4.0346 21.9899C4.04105 23.5727 4.67268 25.0889 5.79191 26.2081C6.91114 27.3273 8.4273 27.959 10.0101 27.9654C11.5929 27.9718 13.1142 27.3526 14.2425 26.2425C14.2482 26.2374 14.2537 26.232 14.2587 26.2262L15.7238 24.69C15.8233 24.5969 15.9029 24.4844 15.9574 24.3595C16.0119 24.2346 16.0404 24.0998 16.0409 23.9635C16.0415 23.8271 16.0141 23.6921 15.9606 23.5668C15.9071 23.4414 15.8285 23.3283 15.7296 23.2344C15.6308 23.1405 15.5138 23.0678 15.3858 23.0208C15.2579 22.9738 15.1217 22.9534 14.9855 22.961C14.8494 22.9685 14.7163 23.0038 14.5943 23.0647C14.4723 23.1256 14.3641 23.2108 14.2762 23.315V23.31ZM27 19H24C23.7348 19 23.4804 19.1054 23.2929 19.2929C23.1054 19.4804 23 19.7348 23 20C23 20.2652 23.1054 20.5196 23.2929 20.7071C23.4804 20.8946 23.7348 21 24 21H27C27.2652 21 27.5196 20.8946 27.7071 20.7071C27.8946 20.5196 28 20.2652 28 20C28 19.7348 27.8946 19.4804 27.7071 19.2929C27.5196 19.1054 27.2652 19 27 19ZM5 13H8C8.26522 13 8.51957 12.8946 8.70711 12.7071C8.89464 12.5196 9 12.2652 9 12C9 11.7348 8.89464 11.4804 8.70711 11.2929C8.51957 11.1054 8.26522 11 8 11H5C4.73478 11 4.48043 11.1054 4.29289 11.2929C4.10536 11.4804 4 11.7348 4 12C4 12.2652 4.10536 12.5196 4.29289 12.7071C4.48043 12.8946 4.73478 13 5 13ZM20 23C19.7348 23 19.4804 23.1054 19.2929 23.2929C19.1054 23.4804 19 23.7348 19 24V27C19 27.2652 19.1054 27.5196 19.2929 27.7071C19.4804 27.8946 19.7348 28 20 28C20.2652 28 20.5196 27.8946 20.7071 27.7071C20.8946 27.5196 21 27.2652 21 27V24C21 23.7348 20.8946 23.4804 20.7071 23.2929C20.5196 23.1054 20.2652 23 20 23ZM12 9C12.2652 9 12.5196 8.89464 12.7071 8.70711C12.8946 8.51957 13 8.26522 13 8V5C13 4.73478 12.8946 4.48043 12.7071 4.29289C12.5196 4.10536 12.2652 4 12 4C11.7348 4 11.4804 4.10536 11.2929 4.29289C11.1054 4.48043 11 4.73478 11 5V8C11 8.26522 11.1054 8.51957 11.2929 8.70711C11.4804 8.89464 11.7348 9 12 9Z" fill="#343330"/>
</svg>
