<svg width="32" height="32" viewBox="0 0 32 32" fill="none" xmlns="http://www.w3.org/2000/svg">
<path d="M30 11.0288C29.9498 12.7696 29.234 14.4249 28 15.6538L23.6562 20C23.0236 20.6361 22.2711 21.1404 21.4422 21.4837C20.6133 21.827 19.7246 22.0025 18.8275 22H18.8212C17.9088 21.9994 17.0057 21.8159 16.1654 21.4603C15.325 21.1048 14.5644 20.5845 13.9286 19.9301C13.2927 19.2757 12.7944 18.5005 12.4632 17.6503C12.1319 16.8001 11.9744 15.8921 12 14.98C12.0074 14.7148 12.12 14.4634 12.3128 14.2811C12.5056 14.0989 12.7629 14.0007 13.0281 14.0081C13.2933 14.0156 13.5447 14.1281 13.727 14.3209C13.9092 14.5137 14.0074 14.771 14 15.0363C13.9818 15.6812 14.093 16.3232 14.3271 16.9244C14.5613 17.5256 14.9135 18.0737 15.3631 18.5364C15.8127 18.9992 16.3504 19.3671 16.9446 19.6185C17.5388 19.8699 18.1773 19.9996 18.8225 20C19.4567 20.0016 20.0849 19.8775 20.6709 19.6349C21.2568 19.3922 21.7889 19.0358 22.2362 18.5863L26.58 14.2425C27.4762 13.335 27.977 12.1098 27.973 10.8344C27.969 9.55897 27.4605 8.33692 26.5587 7.43506C25.6568 6.53319 24.4348 6.02476 23.1593 6.02077C21.8839 6.01678 20.6587 6.51755 19.7512 7.41376L18.3762 8.78876C18.1872 8.96838 17.9354 9.06703 17.6747 9.06369C17.4139 9.06036 17.1648 8.95529 16.9804 8.77088C16.796 8.58648 16.6909 8.33734 16.6875 8.07658C16.6842 7.81582 16.7829 7.56407 16.9625 7.37501L18.3375 6.00001C18.9719 5.36542 19.725 4.86202 20.554 4.51857C21.3829 4.17513 22.2714 3.99835 23.1687 3.99835C24.066 3.99835 24.9545 4.17513 25.7835 4.51857C26.6124 4.86202 27.3656 5.36542 28 6.00001C28.657 6.6587 29.1732 7.44422 29.517 8.30874C29.8609 9.17326 30.0252 10.0987 30 11.0288ZM13.625 23.2075L12.25 24.5825C11.8015 25.034 11.2678 25.3918 10.6798 25.6351C10.0918 25.8785 9.46132 26.0025 8.82498 26C7.87036 25.9992 6.93738 25.7155 6.14394 25.1847C5.35049 24.6539 4.73218 23.8999 4.36712 23.0178C4.00207 22.1357 3.90666 21.1653 4.09294 20.229C4.27923 19.2927 4.73885 18.4327 5.41373 17.7575L9.74998 13.4138C10.433 12.7272 11.3066 12.2618 12.2575 12.0781C13.2083 11.8944 14.1924 12.0009 15.082 12.3837C15.9716 12.7665 16.7255 13.4079 17.2459 14.2246C17.7662 15.0414 18.029 15.9958 18 16.9638C17.9925 17.229 18.0907 17.4863 18.273 17.6791C18.4552 17.8719 18.7066 17.9844 18.9719 17.9919C19.2371 17.9993 19.4944 17.9011 19.6872 17.7189C19.88 17.5366 19.9925 17.2852 20 17.02C20.024 16.0914 19.8591 15.1676 19.5153 14.3047C19.1715 13.4418 18.656 12.6577 18 12C16.719 10.7195 14.9819 10.0002 13.1706 10.0002C11.3594 10.0002 9.62225 10.7195 8.34123 12L3.99998 16.3438C3.04527 17.2981 2.39488 18.514 2.13099 19.8378C1.86711 21.1617 2.00159 22.5341 2.51742 23.7815C3.03325 25.0289 3.9073 26.0955 5.02909 26.8463C6.15089 27.5972 7.47009 27.9987 8.81998 28C9.71732 28.0026 10.6063 27.8272 11.4353 27.4839C12.2644 27.1406 13.0171 26.6362 13.65 26L15.025 24.625C15.1868 24.4344 15.2714 24.1901 15.2619 23.9402C15.2525 23.6903 15.1499 23.453 14.9741 23.2751C14.7984 23.0972 14.5624 22.9916 14.3127 22.9791C14.063 22.9666 13.8176 23.0481 13.625 23.2075Z" fill="#343330"/>
</svg>
