<svg width="32" height="32" viewBox="0 0 32 32" fill="none" xmlns="http://www.w3.org/2000/svg">
<path d="M17 20V29C17 29.2652 16.8946 29.5196 16.7071 29.7071C16.5196 29.8946 16.2652 30 16 30C15.7348 30 15.4804 29.8946 15.2929 29.7071C15.1054 29.5196 15 29.2652 15 29V20C15 19.7348 15.1054 19.4804 15.2929 19.2929C15.4804 19.1054 15.7348 19 16 19C16.2652 19 16.5196 19.1054 16.7071 19.2929C16.8946 19.4804 17 19.7348 17 20ZM26 12H18.4137L23.7075 6.7075C23.8951 6.51986 24.0006 6.26536 24.0006 6C24.0006 5.73464 23.8951 5.48014 23.7075 5.2925C23.5199 5.10486 23.2654 4.99944 23 4.99944C22.7346 4.99944 22.4801 5.10486 22.2925 5.2925L17 10.5863V3C17 2.73478 16.8946 2.48043 16.7071 2.29289C16.5196 2.10536 16.2652 2 16 2C15.7348 2 15.4804 2.10536 15.2929 2.29289C15.1054 2.48043 15 2.73478 15 3V10.5863L9.7075 5.2925C9.51986 5.10486 9.26536 4.99944 9 4.99944C8.73464 4.99944 8.48014 5.10486 8.2925 5.2925C8.10486 5.48014 7.99944 5.73464 7.99944 6C7.99944 6.26536 8.10486 6.51986 8.2925 6.7075L13.5863 12H6C5.73478 12 5.48043 12.1054 5.29289 12.2929C5.10536 12.4804 5 12.7348 5 13C5 13.2652 5.10536 13.5196 5.29289 13.7071C5.48043 13.8946 5.73478 14 6 14H13.5863L8.2925 19.2925C8.10486 19.4801 7.99944 19.7346 7.99944 20C7.99944 20.2654 8.10486 20.5199 8.2925 20.7075C8.48014 20.8951 8.73464 21.0006 9 21.0006C9.26536 21.0006 9.51986 20.8951 9.7075 20.7075L16 14.4137L22.2925 20.7075C22.3854 20.8004 22.4957 20.8741 22.6171 20.9244C22.7385 20.9747 22.8686 21.0006 23 21.0006C23.1314 21.0006 23.2615 20.9747 23.3829 20.9244C23.5043 20.8741 23.6146 20.8004 23.7075 20.7075C23.8004 20.6146 23.8741 20.5043 23.9244 20.3829C23.9747 20.2615 24.0006 20.1314 24.0006 20C24.0006 19.8686 23.9747 19.7385 23.9244 19.6171C23.8741 19.4957 23.8004 19.3854 23.7075 19.2925L18.4137 14H26C26.2652 14 26.5196 13.8946 26.7071 13.7071C26.8946 13.5196 27 13.2652 27 13C27 12.7348 26.8946 12.4804 26.7071 12.2929C26.5196 12.1054 26.2652 12 26 12Z" fill="#343330"/>
</svg>
