<svg width="32" height="32" viewBox="0 0 32 32" fill="none" xmlns="http://www.w3.org/2000/svg">
<path d="M29.0001 9.99999C29.0024 10.9196 28.8225 11.8306 28.4706 12.6802C28.1187 13.5298 27.6019 14.3013 26.9501 14.95L23.1914 18.7075C23.0037 18.895 22.7493 19.0002 22.484 19.0001C22.2188 19 21.9645 18.8945 21.777 18.7069C21.5895 18.5192 21.4843 18.2648 21.4844 17.9995C21.4845 17.7343 21.59 17.48 21.7776 17.2925L25.5364 13.535C26.0091 13.0726 26.3855 12.521 26.6436 11.9121C26.9018 11.3033 27.0366 10.6493 27.0402 9.98796C27.0439 9.32665 26.9163 8.67119 26.6649 8.05953C26.4134 7.44787 26.0432 6.89215 25.5755 6.42457C25.1079 5.95699 24.5521 5.58683 23.9404 5.33552C23.3287 5.08421 22.6732 4.95674 22.0119 4.9605C21.3506 4.96426 20.6966 5.09917 20.0878 5.35742C19.479 5.61567 18.9274 5.99212 18.4651 6.46499L14.7076 10.2212C14.52 10.4089 14.2655 10.5143 14.0001 10.5143C13.7347 10.5143 13.4803 10.4089 13.2926 10.2212C13.105 10.0336 12.9996 9.7791 12.9996 9.51374C12.9996 9.24838 13.105 8.99388 13.2926 8.80624L17.0501 5.04999C18.0291 4.07092 19.2764 3.40415 20.6343 3.13402C21.9923 2.86388 23.3998 3.0025 24.679 3.53236C25.9581 4.06221 27.0514 4.9595 27.8206 6.11073C28.5897 7.26197 29.0002 8.61545 29.0001 9.99999ZM17.2926 21.7775L13.5351 25.535C13.0727 26.0078 12.5211 26.3841 11.9123 26.6423C11.3034 26.9004 10.6494 27.0352 9.98808 27.0388C9.32677 27.0425 8.67131 26.9149 8.05965 26.6635C7.44799 26.4121 6.89228 26.0418 6.4247 25.5741C5.95712 25.1065 5.58695 24.5507 5.33564 23.939C5.08433 23.3273 4.95687 22.6718 4.96062 22.0105C4.96438 21.3492 5.09929 20.6952 5.35754 20.0864C5.61579 19.4776 5.99225 18.9261 6.46511 18.4637L10.2214 14.7075C10.409 14.5198 10.5144 14.2654 10.5144 14C10.5144 13.7346 10.409 13.4801 10.2214 13.2925C10.0337 13.1048 9.77923 12.9994 9.51386 12.9994C9.2485 12.9994 8.994 13.1048 8.80636 13.2925L5.05011 17.05C3.73729 18.3628 2.99976 20.1434 2.99976 22C2.99976 23.8566 3.73729 25.6372 5.05011 26.95C6.36293 28.2628 8.1435 29.0003 10.0001 29.0003C11.8567 29.0003 13.6373 28.2628 14.9501 26.95L18.7076 23.1912C18.8951 23.0036 19.0003 22.7492 19.0002 22.4839C19.0001 22.2187 18.8946 21.9643 18.707 21.7769C18.5193 21.5894 18.2649 21.4841 17.9997 21.4842C17.7344 21.4844 17.4801 21.5898 17.2926 21.7775Z" fill="#343330"/>
</svg>
