<svg width="32" height="32" viewBox="0 0 32 32" fill="none" xmlns="http://www.w3.org/2000/svg">
<path d="M20.7075 11.2925C20.8005 11.3854 20.8742 11.4956 20.9246 11.617C20.9749 11.7384 21.0008 11.8686 21.0008 12C21.0008 12.1314 20.9749 12.2615 20.9246 12.3829C20.8742 12.5043 20.8005 12.6146 20.7075 12.7075L12.7075 20.7075C12.6146 20.8004 12.5043 20.8741 12.3829 20.9244C12.2615 20.9747 12.1314 21.0005 12 21.0005C11.8686 21.0005 11.7385 20.9747 11.6171 20.9244C11.4957 20.8741 11.3854 20.8004 11.2925 20.7075C11.1996 20.6146 11.1259 20.5043 11.0756 20.3829C11.0253 20.2615 10.9994 20.1314 10.9994 20C10.9994 19.8686 11.0253 19.7385 11.0756 19.6171C11.1259 19.4957 11.1996 19.3854 11.2925 19.2925L19.2925 11.2925C19.3854 11.1995 19.4957 11.1258 19.6171 11.0754C19.7384 11.0251 19.8686 10.9992 20 10.9992C20.1314 10.9992 20.2615 11.0251 20.3829 11.0754C20.5043 11.1258 20.6146 11.1995 20.7075 11.2925ZM26.95 5.04999C26.3 4.3999 25.5283 3.88422 24.6789 3.53239C23.8296 3.18057 22.9193 2.99948 22 2.99948C21.0807 2.99948 20.1704 3.18057 19.321 3.53239C18.4717 3.88422 17.7 4.3999 17.05 5.04999L13.2925 8.80624C13.1048 8.99388 12.9994 9.24837 12.9994 9.51374C12.9994 9.7791 13.1048 10.0336 13.2925 10.2212C13.4801 10.4089 13.7346 10.5143 14 10.5143C14.2654 10.5143 14.5198 10.4089 14.7075 10.2212L18.465 6.47124C19.4061 5.5508 20.6722 5.03863 21.9886 5.04588C23.305 5.05313 24.5654 5.57921 25.4963 6.50996C26.4272 7.4407 26.9535 8.70102 26.961 10.0174C26.9685 11.3338 26.4565 12.6 25.5362 13.5412L21.7775 17.2987C21.5898 17.4862 21.4844 17.7405 21.4843 18.0058C21.4841 18.271 21.5894 18.5255 21.7769 18.7131C21.9643 18.9008 22.2187 19.0062 22.4839 19.0064C22.7492 19.0065 23.0036 18.9012 23.1912 18.7137L26.95 14.95C27.6001 14.3 28.1158 13.5283 28.4676 12.6789C28.8194 11.8296 29.0005 10.9193 29.0005 9.99999C29.0005 9.08067 28.8194 8.17036 28.4676 7.32104C28.1158 6.47171 27.6001 5.70001 26.95 5.04999ZM17.2925 21.7775L13.535 25.535C13.0726 26.0078 12.521 26.3841 11.9121 26.6423C11.3033 26.9004 10.6493 27.0352 9.98796 27.0388C9.32665 27.0425 8.67119 26.9149 8.05953 26.6635C7.44787 26.4121 6.89216 26.0418 6.42458 25.5741C5.95699 25.1065 5.58683 24.5507 5.33552 23.939C5.08421 23.3273 4.95674 22.6718 4.9605 22.0105C4.96426 21.3492 5.09917 20.6952 5.35742 20.0864C5.61567 19.4776 5.99212 18.9261 6.46499 18.4637L10.2212 14.7075C10.4089 14.5198 10.5143 14.2654 10.5143 14C10.5143 13.7346 10.4089 13.4801 10.2212 13.2925C10.0336 13.1048 9.77911 12.9994 9.51374 12.9994C9.24838 12.9994 8.99388 13.1048 8.80624 13.2925L5.04999 17.05C3.73717 18.3628 2.99963 20.1434 2.99963 22C2.99963 23.8566 3.73717 25.6372 5.04999 26.95C6.36281 28.2628 8.14338 29.0003 9.99999 29.0003C11.8566 29.0003 13.6372 28.2628 14.95 26.95L18.7075 23.1912C18.895 23.0036 19.0002 22.7492 19.0001 22.4839C19 22.2187 18.8945 21.9643 18.7069 21.7769C18.5192 21.5894 18.2648 21.4841 17.9995 21.4842C17.7343 21.4844 17.48 21.5898 17.2925 21.7775Z" fill="#343330"/>
</svg>
