<svg width="32" height="32" viewBox="0 0 32 32" fill="none" xmlns="http://www.w3.org/2000/svg">
<path d="M28.6249 26.7812C28.4178 26.9467 28.1535 27.0232 27.8901 26.9939C27.6266 26.9647 27.3855 26.8319 27.2199 26.625C27.0486 26.4088 22.9999 21.2325 22.9999 11C22.9999 9.14348 22.2624 7.36301 20.9496 6.05025C19.6369 4.7375 17.8564 4 15.9999 4C14.1434 4 12.3629 4.7375 11.0501 6.05025C9.73739 7.36301 8.9999 9.14348 8.9999 11C8.9999 21.2325 4.95365 26.4088 4.78115 26.625C4.61539 26.8324 4.37404 26.9654 4.1102 26.9948C3.84636 27.0242 3.58164 26.9476 3.37427 26.7819C3.1669 26.6161 3.03388 26.3748 3.00446 26.1109C2.97504 25.8471 3.05164 25.5824 3.2174 25.375C3.23615 25.35 4.17865 24.1375 5.10865 21.7825C5.97115 19.6 6.9999 15.955 6.9999 11C6.9999 8.61305 7.94811 6.32387 9.63593 4.63604C11.3238 2.94821 13.6129 2 15.9999 2C18.3868 2 20.676 2.94821 22.3639 4.63604C24.0517 6.32387 24.9999 8.61305 24.9999 11C24.9999 15.955 26.0286 19.6 26.8911 21.785C27.8261 24.1525 28.7736 25.365 28.7836 25.3775C28.9485 25.5848 29.0243 25.849 28.9946 26.1122C28.9648 26.3754 28.8319 26.616 28.6249 26.7812ZM12.4999 11C12.2032 11 11.9132 11.088 11.6665 11.2528C11.4199 11.4176 11.2276 11.6519 11.1141 11.926C11.0005 12.2001 10.9708 12.5017 11.0287 12.7926C11.0866 13.0836 11.2295 13.3509 11.4392 13.5607C11.649 13.7704 11.9163 13.9133 12.2073 13.9712C12.4982 14.0291 12.7998 13.9994 13.0739 13.8858C13.348 13.7723 13.5823 13.58 13.7471 13.3334C13.9119 13.0867 13.9999 12.7967 13.9999 12.5C13.9999 12.1022 13.8419 11.7206 13.5606 11.4393C13.2793 11.158 12.8977 11 12.4999 11ZM20.9999 12.5C20.9999 12.2033 20.9119 11.9133 20.7471 11.6666C20.5823 11.42 20.348 11.2277 20.0739 11.1142C19.7998 11.0006 19.4982 10.9709 19.2073 11.0288C18.9163 11.0867 18.649 11.2296 18.4392 11.4393C18.2295 11.6491 18.0866 11.9164 18.0287 12.2074C17.9708 12.4983 18.0005 12.7999 18.1141 13.074C18.2276 13.3481 18.4199 13.5824 18.6665 13.7472C18.9132 13.912 19.2032 14 19.4999 14C19.8977 14 20.2792 13.842 20.5606 13.5607C20.8419 13.2794 20.9999 12.8978 20.9999 12.5ZM12.4474 16.105C12.2109 15.9927 11.9399 15.9776 11.6924 16.0629C11.4449 16.1482 11.2408 16.3271 11.1238 16.5613C11.0068 16.7955 10.9863 17.0662 11.0666 17.3153C11.147 17.5644 11.3219 17.7721 11.5536 17.8937L15.5536 19.8937C15.6922 19.9636 15.8453 20 16.0005 20C16.1557 20 16.3088 19.9636 16.4474 19.8937L20.4474 17.8937C20.6846 17.7751 20.8649 17.567 20.9487 17.3154C21.0325 17.0637 21.013 16.7891 20.8943 16.5519C20.7756 16.3147 20.5675 16.1343 20.3159 16.0505C20.0642 15.9667 19.7896 15.9863 19.5524 16.105L15.9999 17.8813L12.4474 16.105ZM15.9999 22C14.7965 22.0096 13.6175 22.3403 12.5846 22.9581C11.5518 23.5758 10.7027 24.4581 10.1249 25.5138C9.99593 25.7458 9.96444 26.0196 10.0373 26.2749C10.1103 26.5302 10.2816 26.746 10.5136 26.875C10.7457 27.004 11.0195 27.0355 11.2748 26.9625C11.5301 26.8896 11.7459 26.7183 11.8749 26.4862C12.2722 25.7369 12.8661 25.1098 13.5928 24.6725C14.3196 24.2352 15.1517 24.0042 15.9999 24.0042C16.8481 24.0042 17.6802 24.2352 18.407 24.6725C19.1337 25.1098 19.7276 25.7369 20.1249 26.4862C20.2539 26.7183 20.4697 26.8896 20.725 26.9625C20.9803 27.0355 21.2541 27.004 21.4861 26.875C21.7182 26.746 21.8895 26.5302 21.9624 26.2749C22.0353 26.0196 22.0039 25.7458 21.8749 25.5138C21.2971 24.4581 20.448 23.5758 19.4152 22.9581C18.3823 22.3403 17.2033 22.0096 15.9999 22Z" fill="#343330"/>
</svg>
