<svg width="32" height="32" viewBox="0 0 32 32" fill="none" xmlns="http://www.w3.org/2000/svg">
<path d="M27.9999 16C27.9999 16.2652 27.8946 16.5196 27.7071 16.7071C27.5195 16.8947 27.2652 17 26.9999 17H15.9999C15.7347 17 15.4804 16.8947 15.2928 16.7071C15.1053 16.5196 14.9999 16.2652 14.9999 16C14.9999 15.7348 15.1053 15.4804 15.2928 15.2929C15.4804 15.1054 15.7347 15 15.9999 15H26.9999C27.2652 15 27.5195 15.1054 27.7071 15.2929C27.8946 15.4804 27.9999 15.7348 27.9999 16ZM15.9999 9.00001H26.9999C27.2652 9.00001 27.5195 8.89465 27.7071 8.70711C27.8946 8.51958 27.9999 8.26522 27.9999 8.00001C27.9999 7.73479 27.8946 7.48044 27.7071 7.2929C27.5195 7.10536 27.2652 7.00001 26.9999 7.00001H15.9999C15.7347 7.00001 15.4804 7.10536 15.2928 7.2929C15.1053 7.48044 14.9999 7.73479 14.9999 8.00001C14.9999 8.26522 15.1053 8.51958 15.2928 8.70711C15.4804 8.89465 15.7347 9.00001 15.9999 9.00001ZM26.9999 23H15.9999C15.7347 23 15.4804 23.1054 15.2928 23.2929C15.1053 23.4804 14.9999 23.7348 14.9999 24C14.9999 24.2652 15.1053 24.5196 15.2928 24.7071C15.4804 24.8947 15.7347 25 15.9999 25H26.9999C27.2652 25 27.5195 24.8947 27.7071 24.7071C27.8946 24.5196 27.9999 24.2652 27.9999 24C27.9999 23.7348 27.8946 23.4804 27.7071 23.2929C27.5195 23.1054 27.2652 23 26.9999 23ZM10.2924 5.29251L6.99995 8.58626L5.70745 7.29251C5.5198 7.10487 5.26531 6.99945 4.99995 6.99945C4.73458 6.99945 4.48009 7.10487 4.29245 7.29251C4.1048 7.48015 3.99939 7.73464 3.99939 8.00001C3.99939 8.26537 4.1048 8.51987 4.29245 8.70751L6.29245 10.7075C6.38532 10.8005 6.49561 10.8742 6.61701 10.9246C6.7384 10.9749 6.86853 11.0008 6.99995 11.0008C7.13136 11.0008 7.26149 10.9749 7.38289 10.9246C7.50428 10.8742 7.61457 10.8005 7.70745 10.7075L11.7074 6.70751C11.8951 6.51987 12.0005 6.26537 12.0005 6.00001C12.0005 5.73464 11.8951 5.48015 11.7074 5.29251C11.5198 5.10487 11.2653 4.99945 10.9999 4.99945C10.7346 4.99945 10.4801 5.10487 10.2924 5.29251ZM10.2924 13.2925L6.99995 16.5863L5.70745 15.2925C5.5198 15.1049 5.26531 14.9995 4.99995 14.9995C4.73458 14.9995 4.48009 15.1049 4.29245 15.2925C4.1048 15.4801 3.99939 15.7346 3.99939 16C3.99939 16.1314 4.02527 16.2615 4.07555 16.3829C4.12584 16.5043 4.19954 16.6146 4.29245 16.7075L6.29245 18.7075C6.38532 18.8005 6.49561 18.8742 6.61701 18.9246C6.7384 18.9749 6.86853 19.0008 6.99995 19.0008C7.13136 19.0008 7.26149 18.9749 7.38289 18.9246C7.50428 18.8742 7.61457 18.8005 7.70745 18.7075L11.7074 14.7075C11.8951 14.5199 12.0005 14.2654 12.0005 14C12.0005 13.7346 11.8951 13.4801 11.7074 13.2925C11.5198 13.1049 11.2653 12.9995 10.9999 12.9995C10.7346 12.9995 10.4801 13.1049 10.2924 13.2925ZM10.2924 21.2925L6.99995 24.5863L5.70745 23.2925C5.61454 23.1996 5.50424 23.1259 5.38284 23.0756C5.26145 23.0253 5.13134 22.9995 4.99995 22.9995C4.86855 22.9995 4.73844 23.0253 4.61705 23.0756C4.49566 23.1259 4.38536 23.1996 4.29245 23.2925C4.19954 23.3854 4.12584 23.4957 4.07555 23.6171C4.02527 23.7385 3.99939 23.8686 3.99939 24C3.99939 24.1314 4.02527 24.2615 4.07555 24.3829C4.12584 24.5043 4.19954 24.6146 4.29245 24.7075L6.29245 26.7075C6.38532 26.8005 6.49561 26.8742 6.61701 26.9246C6.7384 26.9749 6.86853 27.0008 6.99995 27.0008C7.13136 27.0008 7.26149 26.9749 7.38289 26.9246C7.50428 26.8742 7.61457 26.8005 7.70745 26.7075L11.7074 22.7075C11.8951 22.5199 12.0005 22.2654 12.0005 22C12.0005 21.7346 11.8951 21.4801 11.7074 21.2925C11.5198 21.1049 11.2653 20.9994 10.9999 20.9994C10.7346 20.9994 10.4801 21.1049 10.2924 21.2925Z" fill="#343330"/>
</svg>
