<svg width="32" height="32" viewBox="0 0 32 32" fill="none" xmlns="http://www.w3.org/2000/svg">
<path d="M4 8C4 7.73478 4.10536 7.48043 4.29289 7.29289C4.48043 7.10536 4.73478 7 5 7H27C27.2652 7 27.5196 7.10536 27.7071 7.29289C27.8946 7.48043 28 7.73478 28 8C28 8.26522 27.8946 8.51957 27.7071 8.70711C27.5196 8.89464 27.2652 9 27 9H5C4.73478 9 4.48043 8.89464 4.29289 8.70711C4.10536 8.51957 4 8.26522 4 8ZM5 17H13C13.2652 17 13.5196 16.8946 13.7071 16.7071C13.8946 16.5196 14 16.2652 14 16C14 15.7348 13.8946 15.4804 13.7071 15.2929C13.5196 15.1054 13.2652 15 13 15H5C4.73478 15 4.48043 15.1054 4.29289 15.2929C4.10536 15.4804 4 15.7348 4 16C4 16.2652 4.10536 16.5196 4.29289 16.7071C4.48043 16.8946 4.73478 17 5 17ZM15 23H5C4.73478 23 4.48043 23.1054 4.29289 23.2929C4.10536 23.4804 4 23.7348 4 24C4 24.2652 4.10536 24.5196 4.29289 24.7071C4.48043 24.8946 4.73478 25 5 25H15C15.2652 25 15.5196 24.8946 15.7071 24.7071C15.8946 24.5196 16 24.2652 16 24C16 23.7348 15.8946 23.4804 15.7071 23.2929C15.5196 23.1054 15.2652 23 15 23ZM31 18C31 22.565 24.715 25.76 24.4475 25.895C24.3086 25.9645 24.1554 26.0007 24 26.0007C23.8446 26.0007 23.6914 25.9645 23.5525 25.895C23.285 25.76 17 22.565 17 18C17.0007 17.1878 17.2486 16.395 17.7107 15.7271C18.1729 15.0592 18.8274 14.5479 19.5873 14.261C20.3472 13.9742 21.1764 13.9254 21.9646 14.1213C22.7528 14.3172 23.4628 14.7483 24 15.3575C24.5372 14.7483 25.2472 14.3172 26.0354 14.1213C26.8236 13.9254 27.6528 13.9742 28.4127 14.261C29.1726 14.5479 29.8271 15.0592 30.2893 15.7271C30.7514 16.395 30.9993 17.1878 31 18ZM29 18C29 17.4696 28.7893 16.9609 28.4142 16.5858C28.0391 16.2107 27.5304 16 27 16C26.4696 16 25.9609 16.2107 25.5858 16.5858C25.2107 16.9609 25 17.4696 25 18C25 18.2652 24.8946 18.5196 24.7071 18.7071C24.5196 18.8946 24.2652 19 24 19C23.7348 19 23.4804 18.8946 23.2929 18.7071C23.1054 18.5196 23 18.2652 23 18C23 17.4696 22.7893 16.9609 22.4142 16.5858C22.0391 16.2107 21.5304 16 21 16C20.4696 16 19.9609 16.2107 19.5858 16.5858C19.2107 16.9609 19 17.4696 19 18C19 20.5225 22.2763 22.8925 24 23.8662C25.7237 22.8937 29 20.5238 29 18Z" fill="#343330"/>
</svg>
