<svg width="32" height="32" viewBox="0 0 32 32" fill="none" xmlns="http://www.w3.org/2000/svg">
<path d="M26.5 17C26.5 17.2967 26.412 17.5867 26.2472 17.8334C26.0824 18.08 25.8481 18.2723 25.574 18.3858C25.2999 18.4993 24.9983 18.5291 24.7074 18.4712C24.4164 18.4133 24.1491 18.2704 23.9393 18.0607C23.7296 17.8509 23.5867 17.5836 23.5288 17.2926C23.4709 17.0017 23.5007 16.7001 23.6142 16.426C23.7277 16.1519 23.92 15.9176 24.1666 15.7528C24.4133 15.588 24.7033 15.5 25 15.5C25.3978 15.5 25.7794 15.658 26.0607 15.9393C26.342 16.2206 26.5 16.6022 26.5 17ZM31 17C31 22.0462 28.365 26 25 26H7C3.635 26 1 22.0462 1 17C1 11.9538 3.635 8 7 8H11.5863L16.2925 3.2925C16.3854 3.19967 16.4958 3.12605 16.6171 3.07586C16.7385 3.02568 16.8686 2.9999 17 3H21C21.2652 3 21.5196 3.10536 21.7071 3.29289C21.8946 3.48043 22 3.73478 22 4C22 4.26522 21.8946 4.51957 21.7071 4.70711C21.5196 4.89464 21.2652 5 21 5H17.4137L14.4137 8H25C28.365 8 31 11.9538 31 17ZM7 24H21.1887C20.4791 23.107 19.942 22.0897 19.605 21H10C9.73478 21 9.48043 20.8946 9.29289 20.7071C9.10536 20.5196 9 20.2652 9 20C9 19.7348 9.10536 19.4804 9.29289 19.2929C9.48043 19.1054 9.73478 19 10 19H19.145C19.0483 18.3377 18.9999 17.6693 19 17C19 14.1425 19.845 11.6375 21.1887 10H7C5.44125 10 4.05625 11.6575 3.4 14H13C13.2652 14 13.5196 14.1054 13.7071 14.2929C13.8946 14.4804 14 14.7348 14 15C14 15.2652 13.8946 15.5196 13.7071 15.7071C13.5196 15.8946 13.2652 16 13 16H3.04375C3.01542 16.3275 3.00083 16.6608 3 17C3 20.795 4.83125 24 7 24ZM29 17C29 13.205 27.1688 10 25 10C22.8312 10 21 13.205 21 17C21 20.795 22.8312 24 25 24C27.1688 24 29 20.795 29 17Z" fill="#343330"/>
</svg>
