<svg width="32" height="32" viewBox="0 0 32 32" fill="none" xmlns="http://www.w3.org/2000/svg">
<path d="M25.875 6.28126C24.8581 5.24345 23.6446 4.41875 22.3054 3.85536C20.9661 3.29196 19.528 3.00118 18.075 3.00001H18.0338C16.5874 2.99629 15.1548 3.27953 13.8187 3.83332C12.4826 4.38711 11.2696 5.20045 10.25 6.22626L2.57626 14C2.20475 14.3757 1.99701 14.8832 1.99842 15.4116C1.99983 15.9399 2.21026 16.4463 2.58376 16.82L6.16626 20.4025C6.3517 20.5888 6.57223 20.7366 6.8151 20.8372C7.05797 20.9378 7.31837 20.9893 7.58126 20.9888H7.59251C7.8573 20.9873 8.11917 20.9333 8.36293 20.8299C8.60669 20.7265 8.82749 20.5757 9.01251 20.3863L16.625 12.5863C16.9967 12.2183 17.4973 12.0096 18.0203 12.0047C18.5434 11.9998 19.0477 12.199 19.4263 12.56C19.6134 12.7418 19.7621 12.9592 19.8636 13.1995C19.9652 13.4397 20.0175 13.6979 20.0175 13.9588C20.02 14.2364 19.9678 14.5117 19.8638 14.7691C19.7597 15.0265 19.606 15.2609 19.4113 15.4588L11.625 22.985C11.4348 23.1697 11.2833 23.3903 11.1791 23.6341C11.075 23.8778 11.0203 24.1399 11.0183 24.4049C11.0164 24.67 11.0671 24.9328 11.1676 25.1781C11.2681 25.4234 11.4164 25.6463 11.6038 25.8338L15.1863 29.4163C15.5597 29.7874 16.0641 29.997 16.5907 29.9998C17.1173 30.0026 17.6238 29.7984 18.0013 29.4313L25.7263 21.875C30.0325 17.5625 30.0988 10.57 25.875 6.28126ZM7.58126 18.9863L4.00001 15.405L6.97501 12.39L10.54 15.955L7.58126 18.9863ZM16.5988 28L13.0138 24.4188L16.0613 21.4725L19.625 25.04L16.5988 28ZM24.3188 20.445L21.055 23.6375L17.5 20.085L20.805 16.8888L20.8175 16.8775C21.2009 16.491 21.5039 16.0325 21.7092 15.5283C21.9146 15.0242 22.0181 14.4844 22.0138 13.94C22.0115 13.414 21.9037 12.8939 21.6967 12.4103C21.4897 11.9268 21.1878 11.4897 20.8088 11.125C20.0493 10.4026 19.0379 10.0049 17.9898 10.0166C16.9417 10.0282 15.9395 10.4483 15.1963 11.1875L11.9363 14.5225L8.37501 10.9675L11.6688 7.63626C12.5026 6.79764 13.4945 6.13281 14.5871 5.68029C15.6797 5.22776 16.8512 4.99654 18.0338 5.00001H18.0675C19.2562 5.00103 20.4328 5.23901 21.5285 5.70003C22.6241 6.16104 23.6169 6.83585 24.4488 7.68501C27.9063 11.1938 27.8438 16.9225 24.3188 20.4475V20.445Z" fill="#343330"/>
</svg>
