<svg width="32" height="32" viewBox="0 0 32 32" fill="none" xmlns="http://www.w3.org/2000/svg">
<path d="M19 14C19 14.2652 18.8947 14.5196 18.7071 14.7071C18.5196 14.8947 18.2653 15 18 15H15V18C15 18.2652 14.8947 18.5196 14.7071 18.7071C14.5196 18.8947 14.2653 19 14 19C13.7348 19 13.4805 18.8947 13.2929 18.7071C13.1054 18.5196 13 18.2652 13 18V15H10C9.73482 15 9.48047 14.8947 9.29293 14.7071C9.1054 14.5196 9.00004 14.2652 9.00004 14C9.00004 13.7348 9.1054 13.4804 9.29293 13.2929C9.48047 13.1054 9.73482 13 10 13H13V10C13 9.73479 13.1054 9.48044 13.2929 9.2929C13.4805 9.10537 13.7348 9.00001 14 9.00001C14.2653 9.00001 14.5196 9.10537 14.7071 9.2929C14.8947 9.48044 15 9.73479 15 10V13H18C18.2653 13 18.5196 13.1054 18.7071 13.2929C18.8947 13.4804 19 13.7348 19 14ZM28.7075 28.7075C28.6147 28.8005 28.5044 28.8742 28.383 28.9246C28.2616 28.9749 28.1315 29.0008 28 29.0008C27.8686 29.0008 27.7385 28.9749 27.6171 28.9246C27.4957 28.8742 27.3854 28.8005 27.2925 28.7075L21.035 22.4488C18.8572 24.2628 16.0638 25.1674 13.236 24.9743C10.4081 24.7812 7.76361 23.5054 5.85251 21.4122C3.9414 19.319 2.91086 16.5696 2.97526 13.7359C3.03966 10.9022 4.19404 8.20246 6.19827 6.19824C8.20249 4.19401 10.9023 3.03963 13.7359 2.97523C16.5696 2.91083 19.319 3.94137 21.4122 5.85248C23.5054 7.76358 24.7813 10.4081 24.9743 13.2359C25.1674 16.0637 24.2628 18.8571 22.4488 21.035L28.7075 27.2925C28.8005 27.3854 28.8743 27.4957 28.9246 27.6171C28.9749 27.7385 29.0008 27.8686 29.0008 28C29.0008 28.1314 28.9749 28.2616 28.9246 28.383C28.8743 28.5044 28.8005 28.6146 28.7075 28.7075ZM14 23C15.7801 23 17.5201 22.4722 19.0002 21.4832C20.4802 20.4943 21.6338 19.0887 22.315 17.4442C22.9961 15.7996 23.1744 13.99 22.8271 12.2442C22.4798 10.4984 21.6227 8.89472 20.364 7.63605C19.1053 6.37738 17.5017 5.52021 15.7559 5.17294C14.01 4.82568 12.2004 5.00391 10.5559 5.68509C8.91136 6.36628 7.50575 7.51984 6.51681 8.99988C5.52788 10.4799 5.00004 12.22 5.00004 14C5.00269 16.3861 5.95175 18.6738 7.639 20.361C9.32626 22.0483 11.6139 22.9974 14 23Z" fill="#343330"/>
</svg>
