<svg width="32" height="32" viewBox="0 0 32 32" fill="none" xmlns="http://www.w3.org/2000/svg">
<path d="M23 9.00001C23.0001 7.65821 22.6146 6.34464 21.8894 5.21574C21.1641 4.08683 20.1297 3.19016 18.9093 2.6325C17.6888 2.07483 16.3338 1.87968 15.0057 2.07029C13.6775 2.26089 12.432 2.82921 11.4177 3.70757C10.4033 4.58593 9.66282 5.73732 9.2843 7.02462C8.90578 8.31192 8.90522 9.68089 9.28269 10.9685C9.66016 12.2561 10.3997 13.4081 11.4134 14.2873C12.427 15.1665 13.672 15.7358 15 15.9275V29C15 29.2652 15.1054 29.5196 15.2929 29.7071C15.4804 29.8946 15.7348 30 16 30C16.2652 30 16.5196 29.8946 16.7071 29.7071C16.8946 29.5196 17 29.2652 17 29V15.9275C18.6649 15.6848 20.187 14.8516 21.2885 13.5798C22.39 12.308 22.9975 10.6825 23 9.00001ZM16 14C15.0111 14 14.0444 13.7068 13.2221 13.1574C12.3999 12.6079 11.759 11.8271 11.3806 10.9134C11.0022 9.99979 10.9031 8.99446 11.0961 8.02455C11.289 7.05465 11.7652 6.16373 12.4645 5.46447C13.1637 4.76521 14.0546 4.28901 15.0245 4.09608C15.9945 3.90315 16.9998 4.00217 17.9134 4.38061C18.827 4.75905 19.6079 5.39991 20.1573 6.22215C20.7068 7.0444 21 8.0111 21 9.00001C21 9.65662 20.8707 10.3068 20.6194 10.9134C20.3681 11.5201 19.9998 12.0712 19.5355 12.5355C19.0712 12.9998 18.52 13.3681 17.9134 13.6194C17.3068 13.8707 16.6566 14 16 14Z" fill="#343330"/>
</svg>
