<svg width="32" height="32" viewBox="0 0 32 32" fill="none" xmlns="http://www.w3.org/2000/svg">
<path d="M27 26H17V16.9275C18.7516 16.6747 20.3424 15.7678 21.4523 14.3893C22.5622 13.0109 23.1088 11.2632 22.982 9.49801C22.8553 7.73281 22.0647 6.08114 20.7692 4.87538C19.4738 3.66963 17.7697 2.9993 16 2.9993C14.2303 2.9993 12.5262 3.66963 11.2308 4.87538C9.93535 6.08114 9.14471 7.73281 9.01797 9.49801C8.89124 11.2632 9.43781 13.0109 10.5477 14.3893C11.6576 15.7678 13.2484 16.6747 15 16.9275V26H5C4.73478 26 4.48043 26.1054 4.29289 26.2929C4.10536 26.4804 4 26.7348 4 27C4 27.2652 4.10536 27.5196 4.29289 27.7071C4.48043 27.8946 4.73478 28 5 28H27C27.2652 28 27.5196 27.8946 27.7071 27.7071C27.8946 27.5196 28 27.2652 28 27C28 26.7348 27.8946 26.4804 27.7071 26.2929C27.5196 26.1054 27.2652 26 27 26ZM11 10C11 9.0111 11.2932 8.0444 11.8427 7.22215C12.3921 6.3999 13.173 5.75904 14.0866 5.3806C15.0002 5.00217 16.0055 4.90315 16.9755 5.09608C17.9454 5.289 18.8363 5.7652 19.5355 6.46447C20.2348 7.16373 20.711 8.05465 20.9039 9.02455C21.0969 9.99445 20.9978 10.9998 20.6194 11.9134C20.241 12.827 19.6001 13.6079 18.7779 14.1573C17.9556 14.7068 16.9889 15 16 15C14.6739 15 13.4021 14.4732 12.4645 13.5355C11.5268 12.5979 11 11.3261 11 10Z" fill="#343330"/>
</svg>
