<svg width="32" height="32" viewBox="0 0 32 32" fill="none" xmlns="http://www.w3.org/2000/svg">
<path d="M29 6H3C2.46957 6 1.96086 6.21071 1.58579 6.58579C1.21071 6.96086 1 7.46957 1 8V24C1 24.5304 1.21071 25.0391 1.58579 25.4142C1.96086 25.7893 2.46957 26 3 26H29C29.5304 26 30.0391 25.7893 30.4142 25.4142C30.7893 25.0391 31 24.5304 31 24V8C31 7.46957 30.7893 6.96086 30.4142 6.58579C30.0391 6.21071 29.5304 6 29 6ZM29 24H3V8H29V24ZM16 13V19C16 19.2652 15.8946 19.5196 15.7071 19.7071C15.5196 19.8946 15.2652 20 15 20C14.7348 20 14.4804 19.8946 14.2929 19.7071C14.1054 19.5196 14 19.2652 14 19V15.4137L11.7075 17.7075C11.6146 17.8005 11.5043 17.8742 11.3829 17.9246C11.2615 17.9749 11.1314 18.0008 11 18.0008C10.8686 18.0008 10.7385 17.9749 10.6171 17.9246C10.4957 17.8742 10.3854 17.8005 10.2925 17.7075L8 15.4137V19C8 19.2652 7.89464 19.5196 7.70711 19.7071C7.51957 19.8946 7.26522 20 7 20C6.73478 20 6.48043 19.8946 6.29289 19.7071C6.10536 19.5196 6 19.2652 6 19V13C5.99984 12.8021 6.05841 12.6086 6.16828 12.444C6.27815 12.2794 6.43439 12.1511 6.61721 12.0754C6.80003 11.9996 7.00122 11.9798 7.19531 12.0185C7.38939 12.0571 7.56764 12.1525 7.7075 12.2925L11 15.5863L14.2925 12.2925C14.4324 12.1525 14.6106 12.0571 14.8047 12.0185C14.9988 11.9798 15.2 11.9996 15.3828 12.0754C15.5656 12.1511 15.7218 12.2794 15.8317 12.444C15.9416 12.6086 16.0002 12.8021 16 13ZM25.7075 15.2925C25.8005 15.3854 25.8742 15.4957 25.9246 15.6171C25.9749 15.7385 26.0008 15.8686 26.0008 16C26.0008 16.1314 25.9749 16.2615 25.9246 16.3829C25.8742 16.5043 25.8005 16.6146 25.7075 16.7075L22.7075 19.7075C22.6146 19.8005 22.5043 19.8742 22.3829 19.9246C22.2615 19.9749 22.1314 20.0008 22 20.0008C21.8686 20.0008 21.7385 19.9749 21.6171 19.9246C21.4957 19.8742 21.3854 19.8005 21.2925 19.7075L18.2925 16.7075C18.1049 16.5199 17.9994 16.2654 17.9994 16C17.9994 15.7346 18.1049 15.4801 18.2925 15.2925C18.4801 15.1049 18.7346 14.9994 19 14.9994C19.2654 14.9994 19.5199 15.1049 19.7075 15.2925L21 16.5863V13C21 12.7348 21.1054 12.4804 21.2929 12.2929C21.4804 12.1054 21.7348 12 22 12C22.2652 12 22.5196 12.1054 22.7071 12.2929C22.8946 12.4804 23 12.7348 23 13V16.5863L24.2925 15.2925C24.3854 15.1995 24.4957 15.1258 24.6171 15.0754C24.7385 15.0251 24.8686 14.9992 25 14.9992C25.1314 14.9992 25.2615 15.0251 25.3829 15.0754C25.5043 15.1258 25.6146 15.1995 25.7075 15.2925Z" fill="#343330"/>
</svg>
