<svg width="32" height="32" viewBox="0 0 32 32" fill="none" xmlns="http://www.w3.org/2000/svg">
<path d="M19.8325 23.5538C19.6856 23.7745 19.4571 23.9279 19.1971 23.9802C18.9371 24.0325 18.6671 23.9794 18.4463 23.8325C17.6338 23.2925 17 23 16 23C15 23 14.3663 23.2925 13.5538 23.8325C13.3329 23.9739 13.0654 24.0229 12.8088 23.969C12.5523 23.9151 12.3271 23.7625 12.1819 23.5442C12.0367 23.3259 11.983 23.0593 12.0325 22.8018C12.0819 22.5443 12.2305 22.3165 12.4462 22.1675C13.5 21.4663 14.5075 21 16 21C17.4925 21 18.5 21.4663 19.5537 22.1675C19.7745 22.3144 19.9279 22.543 19.9802 22.8029C20.0324 23.0629 19.9793 23.333 19.8325 23.5538ZM28 6.00003V12.9713C28 17.4513 26.7938 21.6775 24.6025 24.8688C22.3325 28.1763 19.2775 29.9938 16 29.9938C12.7225 29.9938 9.6675 28.1725 7.3975 24.8688C5.20625 21.68 4 17.4538 4 12.9738V6.00003C4.00011 5.67498 4.07945 5.35486 4.23115 5.06737C4.38284 4.77989 4.60232 4.53371 4.87058 4.35016C5.13884 4.1666 5.44779 4.05119 5.7707 4.01392C6.09361 3.97665 6.42073 4.01865 6.72375 4.13628C8.48 4.81878 12.0225 5.96378 16 5.96378C19.9775 5.96378 23.5188 4.81878 25.2763 4.13628C25.5793 4.01865 25.9064 3.97665 26.2293 4.01392C26.5522 4.05119 26.8612 4.1666 27.1294 4.35016C27.3977 4.53371 27.6172 4.77989 27.7689 5.06737C27.9205 5.35486 27.9999 5.67498 28 6.00003ZM26 6.00003C24.1125 6.73628 20.3037 7.96628 16 7.96628C11.6962 7.96628 7.8875 6.73378 6 6.00003V12.9738C6 17.0538 7.0825 20.8775 9.04625 23.74C10.9325 26.4875 13.4012 28 16 28C18.5988 28 21.0675 26.4875 22.9538 23.74C24.9175 20.875 26 17.0538 26 12.9738V6.00003ZM23.6675 14.25C23.5697 14.1623 23.4555 14.0948 23.3316 14.0512C23.2077 14.0076 23.0764 13.9889 22.9452 13.9961C22.814 14.0033 22.6855 14.0363 22.5671 14.0932C22.4487 14.15 22.3426 14.2297 22.255 14.3275C21.92 14.7025 21.1487 14.995 20.505 14.995C19.8612 14.995 19.085 14.7013 18.755 14.3275C18.6671 14.2287 18.5606 14.1482 18.4416 14.0905C18.3225 14.0329 18.1933 13.9992 18.0613 13.9915C17.9292 13.9838 17.797 14.0021 17.672 14.0455C17.5471 14.0889 17.4319 14.1565 17.3331 14.2444C17.2343 14.3323 17.1538 14.4388 17.0961 14.5578C17.0385 14.6769 17.0048 14.8061 16.9971 14.9381C16.9894 15.0702 17.0077 15.2024 17.0511 15.3274C17.0945 15.4523 17.1621 15.5675 17.25 15.6663C17.9637 16.4638 19.2675 17 20.5 17C21.7325 17 23.0312 16.4638 23.75 15.6663C23.838 15.5681 23.9056 15.4534 23.9491 15.3289C23.9926 15.2045 24.011 15.0726 24.0034 14.941C23.9957 14.8094 23.9621 14.6806 23.9044 14.562C23.8468 14.4434 23.7663 14.3374 23.6675 14.25ZM14.75 15.6663C14.8376 15.5678 14.9049 15.453 14.9481 15.3285C14.9913 15.204 15.0096 15.0722 15.0019 14.9406C14.9942 14.8091 14.9606 14.6803 14.9031 14.5617C14.8456 14.4431 14.7654 14.337 14.6669 14.2494C14.5684 14.1618 14.4536 14.0945 14.3291 14.0513C14.2046 14.0081 14.0728 13.9898 13.9412 13.9975C13.8097 14.0052 13.6809 14.0388 13.5623 14.0963C13.4437 14.1538 13.3376 14.234 13.25 14.3325C12.915 14.7075 12.1438 15 11.5 15C10.8562 15 10.08 14.7063 9.75 14.3325C9.66242 14.234 9.55631 14.1538 9.43771 14.0963C9.31911 14.0388 9.19035 14.0052 9.05878 13.9975C8.92721 13.9898 8.79541 14.0081 8.6709 14.0513C8.54639 14.0945 8.43162 14.1618 8.33313 14.2494C8.23463 14.337 8.15436 14.4431 8.09688 14.5617C8.03939 14.6803 8.00584 14.8091 7.99812 14.9406C7.9904 15.0722 8.00867 15.204 8.05189 15.3285C8.09511 15.453 8.16242 15.5678 8.25 15.6663C8.96875 16.4638 10.2725 17 11.5 17C12.7275 17 14.0312 16.4638 14.75 15.6663Z" fill="#343330"/>
</svg>
