<svg width="32" height="32" viewBox="0 0 32 32" fill="none" xmlns="http://www.w3.org/2000/svg">
<path d="M27.125 4.34998C26.8571 4.16595 26.5482 4.05027 26.2253 4.01301C25.9024 3.97575 25.5753 4.01806 25.2725 4.13623C23.5187 4.81873 19.9775 5.96373 16 5.96373C12.0225 5.96373 8.48 4.81873 6.72375 4.13623C6.42073 4.0186 6.09361 3.9766 5.7707 4.01387C5.44779 4.05114 5.13884 4.16655 4.87058 4.35011C4.60232 4.53367 4.38284 4.77984 4.23115 5.06733C4.07945 5.35481 4.00011 5.67493 4 5.99998V12.9712C4 17.4512 5.20625 21.6775 7.3975 24.8687C9.6675 28.1762 12.7225 29.9937 16 29.9937C19.2775 29.9937 22.3325 28.1725 24.6025 24.8687C26.7938 21.68 28 17.4537 28 12.9737V5.99998C27.9994 5.67451 27.9194 5.35411 27.7669 5.06657C27.6144 4.77904 27.3941 4.53305 27.125 4.34998ZM26 12.975C26 17.055 24.9175 20.8787 22.9538 23.7412C21.0675 26.4875 18.5988 28 16 28C13.4012 28 10.9325 26.4875 9.04625 23.74C7.0825 20.875 6 17.0537 6 12.9737V5.99998C7.88875 6.73373 11.6975 7.96373 16 7.96373C20.3025 7.96373 24.1125 6.73373 26 5.99998V12.9762V12.975ZM23.75 15.3337C23.9267 15.5326 24.0171 15.7936 24.0014 16.0592C23.9857 16.3248 23.8652 16.5733 23.6663 16.75C23.4673 16.9267 23.2064 17.0171 22.9408 17.0014C22.6752 16.9857 22.4267 16.8651 22.25 16.6662C21.915 16.2912 21.1437 16 20.5 16C19.8562 16 19.08 16.2925 18.75 16.6662C18.5731 16.8651 18.3245 16.9856 18.0588 17.0012C17.7931 17.0168 17.532 16.9262 17.3331 16.7494C17.1342 16.5725 17.0137 16.3238 16.9981 16.0581C16.9825 15.7924 17.0731 15.5314 17.25 15.3325C17.9637 14.535 19.2675 14 20.5 14C21.7325 14 23.0312 14.535 23.75 15.3325V15.3337ZM11.5 16C10.8513 16 10.08 16.2925 9.75 16.6662C9.57313 16.8651 9.32449 16.9856 9.05878 17.0012C8.79306 17.0168 8.53204 16.9262 8.33313 16.7494C8.13421 16.5725 8.01371 16.3238 7.99812 16.0581C7.98253 15.7924 8.07313 15.5314 8.25 15.3325C8.96875 14.535 10.2725 14 11.5 14C12.7275 14 14.0312 14.535 14.75 15.3325C14.9269 15.5314 15.0175 15.7924 15.0019 16.0581C14.9863 16.3238 14.8658 16.5725 14.6669 16.7494C14.5684 16.8369 14.4536 16.9043 14.3291 16.9475C14.2046 16.9907 14.0728 17.009 13.9412 17.0012C13.6755 16.9856 13.4269 16.8651 13.25 16.6662C12.92 16.2925 12.1488 16 11.5 16ZM21.0562 21.6487C20.4355 22.3852 19.6614 22.9772 18.7881 23.3833C17.9147 23.7894 16.9632 23.9998 16 23.9998C15.0368 23.9998 14.0853 23.7894 13.2119 23.3833C12.3386 22.9772 11.5645 22.3852 10.9438 21.6487C10.8585 21.5488 10.7937 21.4331 10.7531 21.3082C10.7126 21.1833 10.697 21.0516 10.7074 20.9207C10.7177 20.7898 10.7537 20.6621 10.8134 20.5451C10.873 20.4281 10.9551 20.324 11.055 20.2387C11.1549 20.1535 11.2706 20.0887 11.3955 20.0481C11.5204 20.0076 11.6521 19.992 11.783 20.0023C11.914 20.0127 12.0416 20.0487 12.1586 20.1083C12.2756 20.168 12.3797 20.2501 12.465 20.35C12.8978 20.8667 13.4386 21.2822 14.0494 21.5674C14.6601 21.8525 15.326 22.0003 16 22.0003C16.674 22.0003 17.3399 21.8525 17.9506 21.5674C18.5614 21.2822 19.1022 20.8667 19.535 20.35C19.6203 20.2501 19.7244 20.168 19.8414 20.1083C19.9584 20.0487 20.086 20.0127 20.217 20.0023C20.3479 19.992 20.4796 20.0076 20.6045 20.0481C20.7294 20.0887 20.8451 20.1535 20.945 20.2387C21.0449 20.324 21.127 20.4281 21.1866 20.5451C21.2463 20.6621 21.2823 20.7898 21.2926 20.9207C21.303 21.0516 21.2874 21.1833 21.2469 21.3082C21.2063 21.4331 21.1415 21.5488 21.0562 21.6487Z" fill="#343330"/>
</svg>
