<svg width="32" height="32" viewBox="0 0 32 32" fill="none" xmlns="http://www.w3.org/2000/svg">
<path d="M23 4H9C7.67392 4 6.40215 4.52678 5.46447 5.46447C4.52678 6.40215 4 7.67392 4 9V24C4 25.3261 4.52678 26.5979 5.46447 27.5355C6.40215 28.4732 7.67392 29 9 29H20C20.2652 29 20.5196 28.8946 20.7071 28.7071C20.8946 28.5196 21 28.2652 21 28C21 27.7348 20.8946 27.4804 20.7071 27.2929C20.5196 27.1054 20.2652 27 20 27H9C8.20435 27 7.44129 26.6839 6.87868 26.1213C6.31607 25.5587 6 24.7956 6 24V23H23C23.6566 23 24.3068 22.8707 24.9134 22.6194C25.52 22.3681 26.0712 21.9998 26.5355 21.5355C26.9998 21.0712 27.3681 20.52 27.6194 19.9134C27.8707 19.3068 28 18.6566 28 18V9C28 7.67392 27.4732 6.40215 26.5355 5.46447C25.5979 4.52678 24.3261 4 23 4ZM26 18C26 18.7956 25.6839 19.5587 25.1213 20.1213C24.5587 20.6839 23.7956 21 23 21H6V9C6 8.20435 6.31607 7.44129 6.87868 6.87868C7.44129 6.31607 8.20435 6 9 6H23C23.7956 6 24.5587 6.31607 25.1213 6.87868C25.6839 7.44129 26 8.20435 26 9V18ZM23 13V17C23 17.2652 22.8946 17.5196 22.7071 17.7071C22.5196 17.8946 22.2652 18 22 18C21.7348 18 21.4804 17.8946 21.2929 17.7071C21.1054 17.5196 21 17.2652 21 17V13C21 12.4696 20.7893 11.9609 20.4142 11.5858C20.0391 11.2107 19.5304 11 19 11C18.4696 11 17.9609 11.2107 17.5858 11.5858C17.2107 11.9609 17 12.4696 17 13V17C17 17.2652 16.8946 17.5196 16.7071 17.7071C16.5196 17.8946 16.2652 18 16 18C15.7348 18 15.4804 17.8946 15.2929 17.7071C15.1054 17.5196 15 17.2652 15 17V13C15 12.4696 14.7893 11.9609 14.4142 11.5858C14.0391 11.2107 13.5304 11 13 11C12.4696 11 11.9609 11.2107 11.5858 11.5858C11.2107 11.9609 11 12.4696 11 13V17C11 17.2652 10.8946 17.5196 10.7071 17.7071C10.5196 17.8946 10.2652 18 10 18C9.73478 18 9.48043 17.8946 9.29289 17.7071C9.10536 17.5196 9 17.2652 9 17V13C9.00091 12.1879 9.24899 11.3953 9.71126 10.7276C10.1735 10.0599 10.8281 9.54874 11.5879 9.26205C12.3477 8.97535 13.1768 8.92672 13.9649 9.12262C14.753 9.31852 15.4628 9.74967 16 10.3588C16.5372 9.74967 17.247 9.31852 18.0351 9.12262C18.8232 8.92672 19.6523 8.97535 20.4121 9.26205C21.1719 9.54874 21.8265 10.0599 22.2887 10.7276C22.751 11.3953 22.9991 12.1879 23 13Z" fill="#343330"/>
</svg>
