<svg width="32" height="32" viewBox="0 0 32 32" fill="none" xmlns="http://www.w3.org/2000/svg">
<path d="M14 9.00001C14 9.26522 13.8946 9.51958 13.7071 9.70711C13.5196 9.89465 13.2652 10 13 10H5C4.73478 10 4.48043 9.89465 4.29289 9.70711C4.10536 9.51958 4 9.26522 4 9.00001C4 8.73479 4.10536 8.48044 4.29289 8.2929C4.48043 8.10536 4.73478 8.00001 5 8.00001H13C13.2652 8.00001 13.5196 8.10536 13.7071 8.2929C13.8946 8.48044 14 8.73479 14 9.00001ZM13 22H10V19C10 18.7348 9.89464 18.4804 9.70711 18.2929C9.51957 18.1054 9.26522 18 9 18C8.73478 18 8.48043 18.1054 8.29289 18.2929C8.10536 18.4804 8 18.7348 8 19V22H5C4.73478 22 4.48043 22.1054 4.29289 22.2929C4.10536 22.4804 4 22.7348 4 23C4 23.2652 4.10536 23.5196 4.29289 23.7071C4.48043 23.8947 4.73478 24 5 24H8V27C8 27.2652 8.10536 27.5196 8.29289 27.7071C8.48043 27.8947 8.73478 28 9 28C9.26522 28 9.51957 27.8947 9.70711 27.7071C9.89464 27.5196 10 27.2652 10 27V24H13C13.2652 24 13.5196 23.8947 13.7071 23.7071C13.8946 23.5196 14 23.2652 14 23C14 22.7348 13.8946 22.4804 13.7071 22.2929C13.5196 22.1054 13.2652 22 13 22ZM19 22H27C27.2652 22 27.5196 21.8947 27.7071 21.7071C27.8946 21.5196 28 21.2652 28 21C28 20.7348 27.8946 20.4804 27.7071 20.2929C27.5196 20.1054 27.2652 20 27 20H19C18.7348 20 18.4804 20.1054 18.2929 20.2929C18.1054 20.4804 18 20.7348 18 21C18 21.2652 18.1054 21.5196 18.2929 21.7071C18.4804 21.8947 18.7348 22 19 22ZM27 24H19C18.7348 24 18.4804 24.1054 18.2929 24.2929C18.1054 24.4804 18 24.7348 18 25C18 25.2652 18.1054 25.5196 18.2929 25.7071C18.4804 25.8947 18.7348 26 19 26H27C27.2652 26 27.5196 25.8947 27.7071 25.7071C27.8946 25.5196 28 25.2652 28 25C28 24.7348 27.8946 24.4804 27.7071 24.2929C27.5196 24.1054 27.2652 24 27 24ZM19.2925 12.7075C19.3854 12.8005 19.4957 12.8742 19.6171 12.9246C19.7385 12.9749 19.8686 13.0008 20 13.0008C20.1314 13.0008 20.2615 12.9749 20.3829 12.9246C20.5043 12.8742 20.6146 12.8005 20.7075 12.7075L23 10.4138L25.2925 12.7075C25.3854 12.8004 25.4957 12.8741 25.6171 12.9244C25.7385 12.9747 25.8686 13.0006 26 13.0006C26.1314 13.0006 26.2615 12.9747 26.3829 12.9244C26.5043 12.8741 26.6146 12.8004 26.7075 12.7075C26.8004 12.6146 26.8741 12.5043 26.9244 12.3829C26.9747 12.2615 27.0006 12.1314 27.0006 12C27.0006 11.8686 26.9747 11.7385 26.9244 11.6171C26.8741 11.4957 26.8004 11.3854 26.7075 11.2925L24.4137 9.00001L26.7075 6.70751C26.8951 6.51987 27.0006 6.26537 27.0006 6.00001C27.0006 5.73464 26.8951 5.48015 26.7075 5.29251C26.5199 5.10487 26.2654 4.99945 26 4.99945C25.7346 4.99945 25.4801 5.10487 25.2925 5.29251L23 7.58626L20.7075 5.29251C20.5199 5.10487 20.2654 4.99945 20 4.99945C19.7346 4.99945 19.4801 5.10487 19.2925 5.29251C19.1049 5.48015 18.9994 5.73464 18.9994 6.00001C18.9994 6.26537 19.1049 6.51987 19.2925 6.70751L21.5863 9.00001L19.2925 11.2925C19.1995 11.3854 19.1258 11.4957 19.0754 11.6171C19.0251 11.7385 18.9992 11.8686 18.9992 12C18.9992 12.1314 19.0251 12.2615 19.0754 12.3829C19.1258 12.5043 19.1995 12.6146 19.2925 12.7075Z" fill="#343330"/>
</svg>
