<svg width="32" height="32" viewBox="0 0 32 32" fill="none" xmlns="http://www.w3.org/2000/svg">
<path d="M9 27C9 27.2652 8.89464 27.5196 8.70711 27.7071C8.51957 27.8946 8.26522 28 8 28H5C4.73478 28 4.48043 27.8946 4.29289 27.7071C4.10536 27.5196 4 27.2652 4 27V5C4 4.73478 4.10536 4.48043 4.29289 4.29289C4.48043 4.10536 4.73478 4 5 4H8C8.26522 4 8.51957 4.10536 8.70711 4.29289C8.89464 4.48043 9 4.73478 9 5C9 5.26522 8.89464 5.51957 8.70711 5.70711C8.51957 5.89464 8.26522 6 8 6H6V26H8C8.26522 26 8.51957 26.1054 8.70711 26.2929C8.89464 26.4804 9 26.7348 9 27ZM27 4H24C23.7348 4 23.4804 4.10536 23.2929 4.29289C23.1054 4.48043 23 4.73478 23 5C23 5.26522 23.1054 5.51957 23.2929 5.70711C23.4804 5.89464 23.7348 6 24 6H26V26H24C23.7348 26 23.4804 26.1054 23.2929 26.2929C23.1054 26.4804 23 26.7348 23 27C23 27.2652 23.1054 27.5196 23.2929 27.7071C23.4804 27.8946 23.7348 28 24 28H27C27.2652 28 27.5196 27.8946 27.7071 27.7071C27.8946 27.5196 28 27.2652 28 27V5C28 4.73478 27.8946 4.48043 27.7071 4.29289C27.5196 4.10536 27.2652 4 27 4ZM23 15C22.9991 14.1879 22.751 13.3953 22.2887 12.7276C21.8265 12.0599 21.1719 11.5487 20.4121 11.262C19.6523 10.9754 18.8232 10.9267 18.0351 11.1226C17.247 11.3185 16.5372 11.7497 16 12.3588C15.3788 11.6508 14.5273 11.1853 13.5961 11.0447C12.6648 10.904 11.7138 11.0971 10.9113 11.59C10.8172 11.3818 10.6546 11.2121 10.4507 11.1092C10.2467 11.0062 10.0136 10.9762 9.79025 11.0241C9.56686 11.072 9.36662 11.195 9.22284 11.3725C9.07907 11.5501 9.00042 11.7715 9 12V20C9 20.2652 9.10536 20.5196 9.29289 20.7071C9.48043 20.8946 9.73478 21 10 21C10.2652 21 10.5196 20.8946 10.7071 20.7071C10.8946 20.5196 11 20.2652 11 20V15C11 14.4696 11.2107 13.9609 11.5858 13.5858C11.9609 13.2107 12.4696 13 13 13C13.5304 13 14.0391 13.2107 14.4142 13.5858C14.7893 13.9609 15 14.4696 15 15V20C15 20.2652 15.1054 20.5196 15.2929 20.7071C15.4804 20.8946 15.7348 21 16 21C16.2652 21 16.5196 20.8946 16.7071 20.7071C16.8946 20.5196 17 20.2652 17 20V15C17 14.4696 17.2107 13.9609 17.5858 13.5858C17.9609 13.2107 18.4696 13 19 13C19.5304 13 20.0391 13.2107 20.4142 13.5858C20.7893 13.9609 21 14.4696 21 15V20C21 20.2652 21.1054 20.5196 21.2929 20.7071C21.4804 20.8946 21.7348 21 22 21C22.2652 21 22.5196 20.8946 22.7071 20.7071C22.8946 20.5196 23 20.2652 23 20V15Z" fill="#343330"/>
</svg>
