<svg width="32" height="32" viewBox="0 0 32 32" fill="none" xmlns="http://www.w3.org/2000/svg">
<path d="M25.875 5H6.125C5.56141 5 5.02091 5.22388 4.6224 5.6224C4.22388 6.02091 4 6.56141 4 7.125V13.2762C4.00053 13.6846 4.1187 14.0842 4.34039 14.4271C4.56207 14.77 4.87787 15.0419 5.25 15.21L13.075 18.7663C11.9164 19.4146 11.0055 20.429 10.4851 21.6504C9.9647 22.8719 9.86413 24.2314 10.1992 25.5162C10.5342 26.8009 11.2859 27.9383 12.3365 28.75C13.3871 29.5618 14.6773 30.0022 16.005 30.0022C17.3327 30.0022 18.6229 29.5618 19.6735 28.75C20.7241 27.9383 21.4758 26.8009 21.8108 25.5162C22.1459 24.2314 22.0453 22.8719 21.5249 21.6504C21.0045 20.429 20.0936 19.4146 18.935 18.7663L26.75 15.21C27.1221 15.0419 27.4379 14.77 27.6596 14.4271C27.8813 14.0842 27.9995 13.6846 28 13.2762V7.125C28 6.56141 27.7761 6.02091 27.3776 5.6224C26.9791 5.22388 26.4386 5 25.875 5ZM20 7V16.0837L16 17.9013L12 16.0837V7H20ZM6 13.2762V7.125C6 7.09185 6.01317 7.06005 6.03661 7.03661C6.06005 7.01317 6.09185 7 6.125 7H10V15.1737L6.07375 13.39C6.05182 13.3801 6.0332 13.3642 6.02012 13.344C6.00703 13.3238 6.00005 13.3003 6 13.2762ZM16 28C15.2089 28 14.4355 27.7654 13.7777 27.3259C13.1199 26.8864 12.6072 26.2616 12.3045 25.5307C12.0017 24.7998 11.9225 23.9956 12.0769 23.2196C12.2312 22.4437 12.6122 21.731 13.1716 21.1716C13.731 20.6122 14.4437 20.2312 15.2196 20.0769C15.9956 19.9225 16.7998 20.0017 17.5307 20.3045C18.2616 20.6072 18.8864 21.1199 19.3259 21.7777C19.7654 22.4355 20 23.2089 20 24C20 25.0609 19.5786 26.0783 18.8284 26.8284C18.0783 27.5786 17.0609 28 16 28ZM26 13.2762C26 13.3003 25.993 13.3238 25.9799 13.344C25.9668 13.3642 25.9482 13.3801 25.9263 13.39L22 15.1737V7H25.875C25.9082 7 25.9399 7.01317 25.9634 7.03661C25.9868 7.06005 26 7.09185 26 7.125V13.2762Z" fill="#343330"/>
</svg>
