<svg width="32" height="32" viewBox="0 0 32 32" fill="none" xmlns="http://www.w3.org/2000/svg">
<path d="M28.5675 10.8325L6.56 4.0825C6.26213 3.99562 5.94814 3.97924 5.64284 4.03465C5.33755 4.09006 5.04934 4.21574 4.801 4.40175C4.55266 4.58776 4.351 4.82901 4.21198 5.1064C4.07296 5.38379 4.00039 5.68972 4 6V24C4 24.5304 4.21071 25.0391 4.58579 25.4142C4.96086 25.7893 5.46957 26 6 26C6.19125 26.0001 6.38152 25.9727 6.565 25.9188L17 22.7163V24C17 24.5304 17.2107 25.0391 17.5858 25.4142C17.9609 25.7893 18.4696 26 19 26H23C23.5304 26 24.0391 25.7893 24.4142 25.4142C24.7893 25.0391 25 24.5304 25 24V20.2625L28.5675 19.1688C28.9804 19.0447 29.3425 18.7913 29.6004 18.4458C29.8583 18.1003 29.9984 17.6811 30 17.25V12.75C29.9981 12.3191 29.8579 11.9002 29.6 11.555C29.3421 11.2098 28.9802 10.9565 28.5675 10.8325ZM17 20.625L6 24V6L17 9.375V20.625ZM23 24H19V22.1025L23 20.875V24ZM28 17.25H27.9862L19 20.01V9.99L27.9862 12.74H28V17.24V17.25Z" fill="#343330"/>
</svg>
