<svg width="32" height="32" viewBox="0 0 32 32" fill="none" xmlns="http://www.w3.org/2000/svg">
<path d="M31 15C30.9983 13.4092 30.3657 11.8841 29.2408 10.7592C28.116 9.63433 26.5908 9.00166 25 9.00001H20.025C19.6612 8.97876 13.3225 8.53251 7.28625 3.47001C6.99476 3.2252 6.63946 3.06866 6.26208 3.01877C5.88471 2.96889 5.50094 3.02774 5.15585 3.1884C4.81076 3.34907 4.51869 3.60488 4.31395 3.92578C4.1092 4.24668 4.00029 4.61935 4 5.00001V25C4.00005 25.3808 4.10879 25.7536 4.31345 26.0747C4.5181 26.3958 4.81015 26.6518 5.15529 26.8126C5.50042 26.9734 5.88429 27.0324 6.26178 26.9825C6.63926 26.9327 6.99468 26.7761 7.28625 26.5313C12.0075 22.5713 16.9113 21.4363 19 21.1188V25.0838C18.9996 25.4133 19.0806 25.7379 19.2359 26.0286C19.3912 26.3193 19.6159 26.5671 19.89 26.75L21.265 27.6663C21.5308 27.8436 21.8352 27.9548 22.1527 27.9903C22.4703 28.0259 22.7917 27.9849 23.0901 27.8706C23.3885 27.7564 23.6553 27.5724 23.8679 27.3339C24.0806 27.0955 24.2331 26.8095 24.3125 26.5L25.7838 20.955C27.2272 20.763 28.5517 20.0533 29.5112 18.958C30.4706 17.8626 30.9997 16.4561 31 15ZM6 24.9913V5.00001C11.3513 9.48876 16.8287 10.625 19 10.905V19.09C16.8313 19.375 11.355 20.5088 6 24.9913ZM22.375 25.9913V26.005L21 25.0888V21H23.7L22.375 25.9913ZM25 19H21V11H25C26.0609 11 27.0783 11.4214 27.8284 12.1716C28.5786 12.9217 29 13.9391 29 15C29 16.0609 28.5786 17.0783 27.8284 17.8284C27.0783 18.5786 26.0609 19 25 19Z" fill="#343330"/>
</svg>
