<svg width="32" height="32" viewBox="0 0 32 32" fill="none" xmlns="http://www.w3.org/2000/svg">
<path d="M11.9999 15C11.011 15 10.0443 15.2933 9.2221 15.8427C8.39985 16.3921 7.75899 17.173 7.38055 18.0866C7.00211 19.0002 6.90309 20.0056 7.09602 20.9755C7.28895 21.9454 7.76515 22.8363 8.46441 23.5355C9.16367 24.2348 10.0546 24.711 11.0245 24.9039C11.9944 25.0969 12.9997 24.9978 13.9134 24.6194C14.827 24.241 15.6079 23.6001 16.1573 22.7779C16.7067 21.9556 16.9999 20.9889 16.9999 20C16.9999 18.6739 16.4732 17.4022 15.5355 16.4645C14.5978 15.5268 13.326 15 11.9999 15ZM11.9999 23C11.4066 23 10.8266 22.8241 10.3332 22.4944C9.83989 22.1648 9.45537 21.6962 9.22831 21.1481C9.00124 20.5999 8.94183 19.9967 9.05759 19.4147C9.17335 18.8328 9.45907 18.2982 9.87863 17.8787C10.2982 17.4591 10.8327 17.1734 11.4147 17.0577C11.9966 16.9419 12.5998 17.0013 13.148 17.2284C13.6962 17.4554 14.1647 17.84 14.4944 18.3333C14.824 18.8266 14.9999 19.4067 14.9999 20C14.9999 20.7957 14.6839 21.5587 14.1213 22.1213C13.5587 22.6839 12.7956 23 11.9999 23ZM27.7074 15.2925C27.8004 15.3854 27.8742 15.4957 27.9245 15.6171C27.9748 15.7385 28.0007 15.8686 28.0007 16C28.0007 16.1314 27.9748 16.2615 27.9245 16.3829C27.8742 16.5043 27.8004 16.6146 27.7074 16.7075L21.7074 22.7075C21.5198 22.8951 21.2653 23.0006 20.9999 23.0006C20.7346 23.0006 20.4801 22.8951 20.2924 22.7075C20.1048 22.5199 19.9994 22.2654 19.9994 22C19.9994 21.7346 20.1048 21.4801 20.2924 21.2925L26.2924 15.2925C26.3853 15.1995 26.4956 15.1258 26.617 15.0754C26.7384 15.0251 26.8685 14.9992 26.9999 14.9992C27.1314 14.9992 27.2615 15.0251 27.3829 15.0754C27.5043 15.1258 27.6146 15.1995 27.7074 15.2925ZM19.9999 17C19.8021 17.0002 19.6086 16.9416 19.444 16.8317C19.2794 16.7219 19.1511 16.5656 19.0753 16.3828C18.9996 16.2 18.9798 15.9988 19.0184 15.8047C19.0571 15.6106 19.1524 15.4324 19.2924 15.2925L22.2924 12.2925C22.3854 12.1996 22.4957 12.1259 22.6171 12.0756C22.7384 12.0253 22.8686 11.9995 22.9999 11.9995C23.1313 11.9995 23.2614 12.0253 23.3828 12.0756C23.5042 12.1259 23.6145 12.1996 23.7074 12.2925C23.8004 12.3854 23.8741 12.4957 23.9243 12.6171C23.9746 12.7385 24.0005 12.8686 24.0005 13C24.0005 13.1314 23.9746 13.2615 23.9243 13.3829C23.8741 13.5043 23.8004 13.6146 23.7074 13.7075L20.7074 16.7075C20.6145 16.8003 20.5042 16.874 20.3828 16.9241C20.2614 16.9743 20.1313 17.0001 19.9999 17ZM28.7074 8.70751L26.7074 10.7075C26.5198 10.8951 26.2653 11.0006 25.9999 11.0006C25.7346 11.0006 25.4801 10.8951 25.2924 10.7075C25.1048 10.5199 24.9994 10.2654 24.9994 10C24.9994 9.73464 25.1048 9.48015 25.2924 9.29251L27.2924 7.29251C27.3854 7.1996 27.4957 7.1259 27.6171 7.07561C27.7384 7.02533 27.8686 6.99945 27.9999 6.99945C28.1313 6.99945 28.2614 7.02533 28.3828 7.07561C28.5042 7.1259 28.6145 7.1996 28.7074 7.29251C28.8004 7.38542 28.8741 7.49572 28.9243 7.61711C28.9746 7.7385 29.0005 7.86861 29.0005 8.00001C29.0005 8.1314 28.9746 8.26151 28.9243 8.3829C28.8741 8.5043 28.8004 8.6146 28.7074 8.70751ZM15.2924 11.2925L24.2924 2.29251C24.3854 2.1996 24.4957 2.1259 24.6171 2.07561C24.7384 2.02533 24.8686 1.99945 24.9999 1.99945C25.1313 1.99945 25.2614 2.02533 25.3828 2.07561C25.5042 2.1259 25.6145 2.1996 25.7074 2.29251C25.8004 2.38542 25.8741 2.49572 25.9243 2.61711C25.9746 2.7385 26.0005 2.86861 26.0005 3.00001C26.0005 3.1314 25.9746 3.26151 25.9243 3.3829C25.8741 3.5043 25.8004 3.6146 25.7074 3.70751L16.7074 12.7075C16.5198 12.8951 16.2653 13.0006 15.9999 13.0006C15.7346 13.0006 15.4801 12.8951 15.2924 12.7075C15.1048 12.5199 14.9994 12.2654 14.9994 12C14.9994 11.7346 15.1048 11.4801 15.2924 11.2925ZM18.3637 24.95C18.5511 25.1375 18.6564 25.3918 18.6564 25.6569C18.6564 25.922 18.5511 26.1762 18.3637 26.3638C17.5305 27.2107 16.5378 27.8842 15.443 28.3456C14.3482 28.8069 13.1728 29.0469 11.9848 29.0518C10.7967 29.0566 9.61946 28.8262 8.52091 28.3737C7.42235 27.9213 6.42425 27.2559 5.58416 26.4158C4.74407 25.5757 4.07863 24.5776 3.62621 23.479C3.17379 22.3805 2.94336 21.2032 2.94819 20.0152C2.95303 18.8271 3.19305 17.6518 3.6544 16.557C4.11574 15.4621 4.78929 14.4695 5.6362 13.6363L15.9787 3.29251C16.0716 3.1996 16.1819 3.1259 16.3033 3.07561C16.4247 3.02533 16.5548 2.99945 16.6862 2.99945C16.8176 2.99945 16.9477 3.02533 17.0691 3.07561C17.1905 3.1259 17.3008 3.1996 17.3937 3.29251C17.4866 3.38542 17.5603 3.49572 17.6106 3.61711C17.6609 3.7385 17.6868 3.86861 17.6868 4.00001C17.6868 4.1314 17.6609 4.26151 17.6106 4.3829C17.5603 4.5043 17.4866 4.6146 17.3937 4.70751L7.04995 15.05C5.73712 16.3628 4.99959 18.1434 4.99959 20C4.99959 21.8566 5.73712 23.6372 7.04995 24.95C8.36277 26.2628 10.1433 27.0004 11.9999 27.0004C13.8566 27.0004 15.6371 26.2628 16.9499 24.95C17.1375 24.7626 17.3917 24.6573 17.6568 24.6573C17.9219 24.6573 18.1762 24.7626 18.3637 24.95Z" fill="#343330"/>
</svg>
