<svg width="32" height="32" viewBox="0 0 32 32" fill="none" xmlns="http://www.w3.org/2000/svg">
<path d="M23.3925 14.355L26.74 10.6725C26.9146 10.4757 27.0046 10.2179 26.9905 9.95515C26.9764 9.69239 26.8592 9.44579 26.6645 9.26882C26.4698 9.09185 26.2131 8.99876 25.9502 9.00974C25.6873 9.02073 25.4393 9.1349 25.26 9.3275L22.6913 12.1525L20.5413 5.39375C20.4136 4.98857 20.1598 4.63479 19.8169 4.38405C19.4739 4.13332 19.0598 3.99876 18.635 4H13.3638C12.9389 3.99876 12.5249 4.13332 12.1819 4.38405C11.839 4.63479 11.5852 4.98857 11.4575 5.39375L5.09376 25.3937C4.9984 25.6936 4.97511 26.0116 5.02578 26.3221C5.07645 26.6326 5.19965 26.9268 5.38538 27.1807C5.57111 27.4346 5.81412 27.6412 6.09467 27.7835C6.37523 27.9259 6.68541 28.0001 7.00001 28H25C25.3146 28.0001 25.6248 27.9259 25.9054 27.7835C26.1859 27.6412 26.4289 27.4346 26.6146 27.1807C26.8004 26.9268 26.9236 26.6326 26.9743 26.3221C27.0249 26.0116 27.0016 25.6936 26.9063 25.3937L23.3925 14.355ZM23.09 20H18.26L21.8375 16.065L23.09 20ZM13.3638 6H18.635L21.135 13.8625L15.5575 20H8.90876L13.3638 6ZM7.00001 26L8.27251 22H23.7263L25 26H7.00001Z" fill="#343330"/>
</svg>
