<svg width="32" height="32" viewBox="0 0 32 32" fill="none" xmlns="http://www.w3.org/2000/svg">
<path d="M14 13C14 13.2652 13.8946 13.5196 13.7071 13.7071C13.5196 13.8947 13.2652 14 13 14H12V19C12 19.2652 11.8946 19.5196 11.7071 19.7071C11.5196 19.8947 11.2652 20 11 20C10.7348 20 10.4804 19.8947 10.2929 19.7071C10.1054 19.5196 10 19.2652 10 19V14H9C8.73478 14 8.48043 13.8947 8.29289 13.7071C8.10536 13.5196 8 13.2652 8 13C8 12.7348 8.10536 12.4804 8.29289 12.2929C8.48043 12.1054 8.73478 12 9 12H13C13.2652 12 13.5196 12.1054 13.7071 12.2929C13.8946 12.4804 14 12.7348 14 13ZM29 11.5925V19C28.9998 20.253 28.5291 21.4602 27.6811 22.3827C26.8332 23.3052 25.6698 23.8757 24.4212 23.9813C23.8264 25.4609 22.8028 26.7289 21.4821 27.6227C20.1613 28.5164 18.6036 28.9949 17.0088 28.997C15.4141 28.999 13.8552 28.5243 12.5321 27.634C11.2091 26.7436 10.1824 25.4781 9.58375 24H5C4.46957 24 3.96086 23.7893 3.58579 23.4142C3.21071 23.0392 3 22.5304 3 22V10C3 9.46958 3.21071 8.96087 3.58579 8.5858C3.96086 8.21073 4.46957 8.00001 5 8.00001H12.1012C11.8675 6.84811 12.047 5.65068 12.6082 4.61796C13.1695 3.58524 14.0766 2.78326 15.1704 2.35284C16.2641 1.92242 17.4745 1.89107 18.5891 2.2643C19.7036 2.63753 20.651 3.39148 21.265 4.39376C22.0354 4.02348 22.9042 3.90974 23.744 4.0692C24.5837 4.22867 25.3503 4.65295 25.9314 5.27986C26.5125 5.90677 26.8774 6.70333 26.9728 7.55278C27.0681 8.40223 26.8889 9.25988 26.4613 10H27.4075C27.8297 10.0007 28.2343 10.1687 28.5328 10.4672C28.8313 10.7657 28.9993 11.1704 29 11.5925ZM14 7.00001C13.9999 7.34076 14.0582 7.679 14.1725 8.00001H17C17.4135 8.00052 17.8166 8.12916 18.154 8.36824C18.4913 8.60731 18.7463 8.94507 18.8838 9.33501C19.2782 9.01674 19.5857 8.6037 19.7773 8.13446C19.9689 7.66522 20.0386 7.15507 19.9797 6.65163C19.9208 6.14819 19.7353 5.66788 19.4405 5.25554C19.1458 4.84319 18.7513 4.51225 18.294 4.29362C17.8368 4.07498 17.3315 3.97577 16.8255 4.00525C16.3195 4.03473 15.8292 4.19194 15.4004 4.4622C14.9716 4.73246 14.6183 5.10697 14.3734 5.55076C14.1285 5.99454 14 6.49314 14 7.00001ZM17 22V10H5V22H17ZM23 12H19V22C19 22.5304 18.7893 23.0392 18.4142 23.4142C18.0391 23.7893 17.5304 24 17 24H11.805C12.4657 25.1433 13.485 26.0367 14.705 26.5418C15.9251 27.0468 17.2776 27.1353 18.5531 26.7935C19.8285 26.4517 20.9556 25.6988 21.7596 24.6513C22.5636 23.6039 22.9996 22.3204 23 21V12ZM25 8.00001C24.9996 7.64419 24.9043 7.29491 24.7239 6.98821C24.5435 6.68151 24.2845 6.42849 23.9737 6.25525C23.6629 6.08202 23.3115 5.99484 22.9558 6.0027C22.6 6.01057 22.2528 6.1132 21.95 6.30001C22.0426 6.94891 22.0064 7.60971 21.8434 8.24459C21.6804 8.87948 21.3938 9.47599 21 10H23C23.5304 10 24.0391 9.7893 24.4142 9.41423C24.7893 9.03915 25 8.53045 25 8.00001ZM27 12H25V21C25.0002 21.2819 24.9851 21.5635 24.955 21.8438C25.5508 21.6437 26.0687 21.2616 26.4356 20.7513C26.8025 20.2411 27 19.6285 27 19V12Z" fill="#343330"/>
</svg>
