<svg width="32" height="32" viewBox="0 0 32 32" fill="none" xmlns="http://www.w3.org/2000/svg">
<path d="M28 26H25.4925C26.7637 24.4552 27.5898 22.5932 27.882 20.6142C28.1743 18.6351 27.9216 16.6138 27.1511 14.7676C26.3806 12.9213 25.1215 11.32 23.5092 10.1358C21.8968 8.95153 19.9922 8.22913 18 8.04625V4C18 3.46957 17.7893 2.96086 17.4142 2.58579C17.0391 2.21071 16.5304 2 16 2H10C9.46957 2 8.96086 2.21071 8.58579 2.58579C8.21071 2.96086 8 3.46957 8 4V17C8 17.5304 8.21071 18.0391 8.58579 18.4142C8.96086 18.7893 9.46957 19 10 19H16C16.5304 19 17.0391 18.7893 17.4142 18.4142C17.7893 18.0391 18 17.5304 18 17V10.0575C19.7643 10.2552 21.4306 10.9703 22.7895 12.1128C24.1483 13.2553 25.1389 14.7742 25.6366 16.4783C26.1343 18.1824 26.1169 19.9957 25.5866 21.69C25.0563 23.3842 24.0368 24.8838 22.6562 26H4C3.73478 26 3.48043 26.1054 3.29289 26.2929C3.10536 26.4804 3 26.7348 3 27C3 27.2652 3.10536 27.5196 3.29289 27.7071C3.48043 27.8946 3.73478 28 4 28H28C28.2652 28 28.5196 27.8946 28.7071 27.7071C28.8946 27.5196 29 27.2652 29 27C29 26.7348 28.8946 26.4804 28.7071 26.2929C28.5196 26.1054 28.2652 26 28 26ZM16 17H10V4H16V17ZM9 23C8.73478 23 8.48043 22.8946 8.29289 22.7071C8.10536 22.5196 8 22.2652 8 22C8 21.7348 8.10536 21.4804 8.29289 21.2929C8.48043 21.1054 8.73478 21 9 21H17C17.2652 21 17.5196 21.1054 17.7071 21.2929C17.8946 21.4804 18 21.7348 18 22C18 22.2652 17.8946 22.5196 17.7071 22.7071C17.5196 22.8946 17.2652 23 17 23H9Z" fill="#343330"/>
</svg>
