<svg width="32" height="32" viewBox="0 0 32 32" fill="none" xmlns="http://www.w3.org/2000/svg">
<path d="M21 2C18.6138 2.00232 16.3259 2.95127 14.6386 4.6386C12.9513 6.32592 12.0023 8.61376 12 11C12.0009 11.3938 12.0272 11.7871 12.0788 12.1775L3.39001 24.0275C3.10561 24.4121 2.96919 24.8863 3.00568 25.3633C3.04218 25.8402 3.24916 26.2881 3.58876 26.625L5.37501 28.4112C5.7119 28.7509 6.15978 28.9578 6.63675 28.9943C7.11371 29.0308 7.58787 28.8944 7.97251 28.61L19.8238 19.9188C20.2137 19.9711 20.6066 19.9982 21 20C23.387 20 25.6761 19.0518 27.364 17.364C29.0518 15.6761 30 13.3869 30 11C30 8.61305 29.0518 6.32387 27.364 4.63604C25.6761 2.94821 23.387 2 21 2ZM28 11C28.0018 12.511 27.5122 13.9816 26.605 15.19L16.8113 5.395C17.8516 4.61799 19.0876 4.14566 20.381 4.03084C21.6744 3.91602 22.9743 4.16322 24.1353 4.74481C25.2962 5.3264 26.2726 6.21945 26.9551 7.32411C27.6376 8.42877 27.9994 9.7015 28 11ZM6.79001 27L5.00001 25.21L12.7675 14.625C13.6777 16.6798 15.3202 18.3223 17.375 19.2325L6.79001 27ZM14 11C13.998 9.48934 14.4877 8.01907 15.395 6.81125L25.1875 16.6038C24.1472 17.3803 22.9115 17.8524 21.6184 17.967C20.3253 18.0817 19.0258 17.8345 17.865 17.2531C16.7043 16.6718 15.7281 15.779 15.0456 14.6748C14.3631 13.5705 14.001 12.2982 14 11ZM13.7063 18.2925C13.8937 18.48 13.9989 18.7343 13.9989 18.9994C13.9989 19.2645 13.8937 19.5187 13.7063 19.7062L12.7063 20.7062C12.6143 20.803 12.5039 20.8804 12.3816 20.9338C12.2593 20.9873 12.1275 21.0157 11.9941 21.0174C11.8606 21.0191 11.7282 20.9941 11.6045 20.9438C11.4809 20.8935 11.3686 20.819 11.2742 20.7246C11.1798 20.6302 11.1053 20.5179 11.055 20.3942C11.0047 20.2706 10.9797 20.1381 10.9814 20.0047C10.9831 19.8712 11.0115 19.7394 11.0649 19.6171C11.1184 19.4948 11.1957 19.3844 11.2925 19.2925L12.2925 18.2925C12.3853 18.1993 12.4956 18.1252 12.6171 18.0747C12.7386 18.0242 12.8688 17.9981 13.0004 17.998C13.1319 17.9978 13.2622 18.0237 13.3838 18.074C13.5053 18.1243 13.6158 18.1982 13.7088 18.2913L13.7063 18.2925Z" fill="#343330"/>
</svg>
