<svg width="32" height="32" viewBox="0 0 32 32" fill="none" xmlns="http://www.w3.org/2000/svg">
<path d="M26.74 27.3275L6.73999 5.3275C6.5607 5.1349 6.31271 5.02073 6.0498 5.00974C5.78689 4.99876 5.53025 5.09185 5.33551 5.26882C5.14077 5.44579 5.02364 5.69239 5.0095 5.95515C4.99537 6.21791 5.08537 6.47566 5.25999 6.6725L9.99999 11.8862V16C9.99976 17.0187 10.2589 18.0206 10.7529 18.9114C11.247 19.8022 11.9597 20.5526 12.8239 21.0918C13.6881 21.6311 14.6754 21.9414 15.6927 21.9935C16.71 22.0457 17.7239 21.838 18.6387 21.39L20.0262 22.915C18.8051 23.6295 17.4149 24.0042 16 24C13.879 23.9977 11.8455 23.1541 10.3457 21.6543C8.84591 20.1545 8.00231 18.121 7.99999 16C7.99999 15.7348 7.89464 15.4804 7.7071 15.2929C7.51956 15.1054 7.26521 15 6.99999 15C6.73478 15 6.48042 15.1054 6.29289 15.2929C6.10535 15.4804 5.99999 15.7348 5.99999 16C6.00304 18.4782 6.9249 20.8672 8.5873 22.7051C10.2497 24.543 12.5345 25.6991 15 25.95V30C15 30.2652 15.1054 30.5196 15.2929 30.7071C15.4804 30.8946 15.7348 31 16 31C16.2652 31 16.5196 30.8946 16.7071 30.7071C16.8946 30.5196 17 30.2652 17 30V25.9487C18.5659 25.7977 20.0729 25.274 21.395 24.4212L25.26 28.6712C25.3478 28.7702 25.4544 28.8508 25.5736 28.9083C25.6928 28.9658 25.8222 28.9991 25.9543 29.0062C26.0865 29.0133 26.2187 28.9941 26.3434 28.9497C26.4681 28.9054 26.5827 28.8367 26.6806 28.7477C26.7785 28.6587 26.8578 28.5511 26.9139 28.4313C26.9699 28.3114 27.0017 28.1816 27.0072 28.0494C27.0127 27.9172 26.9919 27.7852 26.9461 27.661C26.9002 27.5369 26.8302 27.4231 26.74 27.3263V27.3275ZM16 20C14.9391 20 13.9217 19.5786 13.1716 18.8284C12.4214 18.0783 12 17.0609 12 16V14.0863L17.2075 19.8137C16.8169 19.9373 16.4097 20.0001 16 20ZM23.19 19.5112C23.7264 18.4187 24.0036 17.2171 24 16C24 15.7348 24.1054 15.4804 24.2929 15.2929C24.4804 15.1054 24.7348 15 25 15C25.2652 15 25.5196 15.1054 25.7071 15.2929C25.8946 15.4804 26 15.7348 26 16C26.0042 17.5218 25.6572 19.0241 24.9862 20.39C24.904 20.5583 24.7762 20.7002 24.6173 20.7994C24.4584 20.8987 24.2748 20.9513 24.0875 20.9513C23.9353 20.9514 23.7851 20.9164 23.6487 20.8487C23.4106 20.7322 23.2285 20.5258 23.1424 20.275C23.0564 20.0242 23.0735 19.7495 23.19 19.5112ZM10.5 5.60875C11.0507 4.34552 12.0195 3.31038 13.2436 2.67729C14.4676 2.0442 15.8723 1.85176 17.2215 2.13231C18.5707 2.41285 19.7822 3.14929 20.6524 4.21784C21.5226 5.2864 21.9985 6.62193 22 8V16C21.9998 16.2087 21.9889 16.4174 21.9675 16.625C21.9417 16.8718 21.8251 17.1003 21.6403 17.2659C21.4555 17.4316 21.2157 17.5226 20.9675 17.5212C20.9325 17.5231 20.8975 17.5231 20.8625 17.5212C20.5988 17.4935 20.3569 17.3622 20.19 17.1562C20.0231 16.9501 19.9449 16.6862 19.9725 16.4225C19.9862 16.285 19.9937 16.1425 19.9937 16.0025V8C19.9911 7.08252 19.6731 6.19383 19.0932 5.48292C18.5132 4.77201 17.7064 4.28209 16.8082 4.09528C15.9099 3.90848 14.9747 4.03615 14.1594 4.4569C13.3441 4.87765 12.6982 5.56589 12.33 6.40625C12.2833 6.53449 12.2108 6.65181 12.117 6.75098C12.0232 6.85014 11.9101 6.92905 11.7846 6.98285C11.6592 7.03666 11.524 7.06421 11.3875 7.06381C11.251 7.06341 11.1161 7.03508 10.9909 6.98054C10.8658 6.92601 10.7532 6.84644 10.66 6.74673C10.5667 6.64703 10.4949 6.52929 10.4489 6.40078C10.4029 6.27226 10.3837 6.13569 10.3925 5.99948C10.4013 5.86327 10.4379 5.73029 10.5 5.60875Z" fill="#343330"/>
</svg>
