<svg width="32" height="32" viewBox="0 0 32 32" fill="none" xmlns="http://www.w3.org/2000/svg">
<path d="M15 16C15 15.2089 14.7654 14.4355 14.3259 13.7777C13.8864 13.1199 13.2616 12.6072 12.5307 12.3045C11.7998 12.0017 10.9956 11.9225 10.2196 12.0769C9.44371 12.2312 8.73098 12.6122 8.17157 13.1716C7.61216 13.731 7.2312 14.4437 7.07686 15.2196C6.92252 15.9956 7.00173 16.7998 7.30448 17.5307C7.60723 18.2616 8.11992 18.8864 8.77772 19.3259C9.43552 19.7654 10.2089 20 11 20C12.0609 20 13.0783 19.5786 13.8284 18.8284C14.5786 18.0783 15 17.0609 15 16ZM9 16C9 15.6044 9.1173 15.2178 9.33706 14.8889C9.55682 14.56 9.86918 14.3036 10.2346 14.1522C10.6001 14.0009 11.0022 13.9613 11.3902 14.0384C11.7781 14.1156 12.1345 14.3061 12.4142 14.5858C12.6939 14.8655 12.8844 15.2219 12.9616 15.6098C13.0387 15.9978 12.9991 16.3999 12.8478 16.7654C12.6964 17.1308 12.44 17.4432 12.1111 17.6629C11.7822 17.8827 11.3956 18 11 18C10.4696 18 9.96086 17.7893 9.58579 17.4142C9.21071 17.0391 9 16.5304 9 16ZM28 13H26V5C26 4.73478 25.8946 4.48043 25.7071 4.29289C25.5196 4.10536 25.2652 4 25 4H13C12.7348 4 12.4804 4.10536 12.2929 4.29289C12.1054 4.48043 12 4.73478 12 5V8H5C4.46957 8 3.96086 8.21071 3.58579 8.58579C3.21071 8.96086 3 9.46957 3 10V22C3 22.5304 3.21071 23.0391 3.58579 23.4142C3.96086 23.7893 4.46957 24 5 24H9V26C9 26.5304 9.21071 27.0391 9.58579 27.4142C9.96086 27.7893 10.4696 28 11 28H27C27.5304 28 28.0391 27.7893 28.4142 27.4142C28.7893 27.0391 29 26.5304 29 26V14C29 13.7348 28.8946 13.4804 28.7071 13.2929C28.5196 13.1054 28.2652 13 28 13ZM20.7075 20.5L27 15.9563V25.0438L20.7075 20.5ZM14 6H24V15.655L19 19.2663V10C19 9.46957 18.7893 8.96086 18.4142 8.58579C18.0391 8.21071 17.5304 8 17 8H14V6ZM5 10H17V19.7375C17 19.7525 17 19.7675 17 19.7825V22H5V10ZM11 24H17C17.5304 24 18.0391 23.7893 18.4142 23.4142C18.7893 23.0391 19 22.5304 19 22V21.7337L24.9075 26H11V24Z" fill="#343330"/>
</svg>
