<svg width="32" height="32" viewBox="0 0 32 32" fill="none" xmlns="http://www.w3.org/2000/svg">
<path d="M26 5H6C5.20435 5 4.44129 5.31607 3.87868 5.87868C3.31607 6.44129 3 7.20435 3 8V22C3 22.7956 3.31607 23.5587 3.87868 24.1213C4.44129 24.6839 5.20435 25 6 25H26C26.7956 25 27.5587 24.6839 28.1213 24.1213C28.6839 23.5587 29 22.7956 29 22V8C29 7.20435 28.6839 6.44129 28.1213 5.87868C27.5587 5.31607 26.7956 5 26 5ZM27 22C27 22.2652 26.8946 22.5196 26.7071 22.7071C26.5196 22.8946 26.2652 23 26 23H6C5.73478 23 5.48043 22.8946 5.29289 22.7071C5.10536 22.5196 5 22.2652 5 22V8C5 7.73478 5.10536 7.48043 5.29289 7.29289C5.48043 7.10536 5.73478 7 6 7H26C26.2652 7 26.5196 7.10536 26.7071 7.29289C26.8946 7.48043 27 7.73478 27 8V22ZM21 28C21 28.2652 20.8946 28.5196 20.7071 28.7071C20.5196 28.8946 20.2652 29 20 29H12C11.7348 29 11.4804 28.8946 11.2929 28.7071C11.1054 28.5196 11 28.2652 11 28C11 27.7348 11.1054 27.4804 11.2929 27.2929C11.4804 27.1054 11.7348 27 12 27H20C20.2652 27 20.5196 27.1054 20.7071 27.2929C20.8946 27.4804 21 27.7348 21 28ZM19.7075 13.2925C19.8004 13.3854 19.8741 13.4957 19.9244 13.6171C19.9747 13.7385 20.0006 13.8686 20.0006 14C20.0006 14.1314 19.9747 14.2615 19.9244 14.3829C19.8741 14.5043 19.8004 14.6146 19.7075 14.7075C19.6146 14.8004 19.5043 14.8741 19.3829 14.9244C19.2615 14.9747 19.1314 15.0006 19 15.0006C18.8686 15.0006 18.7385 14.9747 18.6171 14.9244C18.4957 14.8741 18.3854 14.8004 18.2925 14.7075L17 13.4137V19C17 19.2652 16.8946 19.5196 16.7071 19.7071C16.5196 19.8946 16.2652 20 16 20C15.7348 20 15.4804 19.8946 15.2929 19.7071C15.1054 19.5196 15 19.2652 15 19V13.4137L13.7075 14.7075C13.5199 14.8951 13.2654 15.0006 13 15.0006C12.7346 15.0006 12.4801 14.8951 12.2925 14.7075C12.1049 14.5199 11.9994 14.2654 11.9994 14C11.9994 13.7346 12.1049 13.4801 12.2925 13.2925L15.2925 10.2925C15.3854 10.1995 15.4957 10.1258 15.6171 10.0754C15.7385 10.0251 15.8686 9.99921 16 9.99921C16.1314 9.99921 16.2615 10.0251 16.3829 10.0754C16.5043 10.1258 16.6146 10.1995 16.7075 10.2925L19.7075 13.2925Z" fill="#343330"/>
</svg>
