<svg width="32" height="32" viewBox="0 0 32 32" fill="none" xmlns="http://www.w3.org/2000/svg">
<path d="M26 5.00001H20.9C20.6705 3.86972 20.0573 2.85353 19.1643 2.12363C18.2712 1.39373 17.1534 0.994995 16 0.994995C14.8466 0.994995 13.7288 1.39373 12.8357 2.12363C11.9427 2.85353 11.3295 3.86972 11.1 5.00001H6C5.73478 5.00001 5.48043 5.10536 5.29289 5.2929C5.10536 5.48044 5 5.73479 5 6.00001C5 6.26522 5.10536 6.51958 5.29289 6.70711C5.48043 6.89465 5.73478 7.00001 6 7.00001H11.1C11.3168 8.05478 11.8683 9.01139 12.6725 9.72751C11.2797 10.3659 10.0992 11.3903 9.27103 12.6794C8.44285 13.9684 8.00173 15.4679 8 17V25C8 25.5304 8.21071 26.0391 8.58579 26.4142C8.96086 26.7893 9.46957 27 10 27H12C12 28.0609 12.4214 29.0783 13.1716 29.8284C13.9217 30.5786 14.9391 31 16 31C17.0609 31 18.0783 30.5786 18.8284 29.8284C19.5786 29.0783 20 28.0609 20 27H22C22.5304 27 23.0391 26.7893 23.4142 26.4142C23.7893 26.0391 24 25.5304 24 25V17C23.9983 15.4679 23.5572 13.9684 22.729 12.6794C21.9008 11.3903 20.7203 10.3659 19.3275 9.72751C20.1317 9.01139 20.6832 8.05478 20.9 7.00001H26C26.2652 7.00001 26.5196 6.89465 26.7071 6.70711C26.8946 6.51958 27 6.26522 27 6.00001C27 5.73479 26.8946 5.48044 26.7071 5.2929C26.5196 5.10536 26.2652 5.00001 26 5.00001ZM18 27C18 27.5304 17.7893 28.0391 17.4142 28.4142C17.0391 28.7893 16.5304 29 16 29C15.4696 29 14.9609 28.7893 14.5858 28.4142C14.2107 28.0391 14 27.5304 14 27V21C14 20.4696 14.2107 19.9609 14.5858 19.5858C14.9609 19.2107 15.4696 19 16 19C16.5304 19 17.0391 19.2107 17.4142 19.5858C17.7893 19.9609 18 20.4696 18 21V27ZM22 17V25H20V21C20 19.9391 19.5786 18.9217 18.8284 18.1716C18.0783 17.4214 17.0609 17 16 17C14.9391 17 13.9217 17.4214 13.1716 18.1716C12.4214 18.9217 12 19.9391 12 21V25H10V17C10 15.4087 10.6321 13.8826 11.7574 12.7574C12.8826 11.6321 14.4087 11 16 11C17.5913 11 19.1174 11.6321 20.2426 12.7574C21.3679 13.8826 22 15.4087 22 17ZM13 6.00001C13 5.40666 13.1759 4.82664 13.5056 4.3333C13.8352 3.83995 14.3038 3.45543 14.8519 3.22837C15.4001 3.00131 16.0033 2.9419 16.5853 3.05765C17.1672 3.17341 17.7018 3.45913 18.1213 3.87869C18.5409 4.29824 18.8266 4.83279 18.9424 5.41474C19.0581 5.99668 18.9987 6.59988 18.7716 7.14806C18.5446 7.69624 18.1601 8.16477 17.6667 8.49442C17.1734 8.82406 16.5933 9.00001 16 9.00001C15.2044 9.00001 14.4413 8.68394 13.8787 8.12133C13.3161 7.55872 13 6.79566 13 6.00001Z" fill="#343330"/>
</svg>
