<svg width="32" height="32" viewBox="0 0 32 32" fill="none" xmlns="http://www.w3.org/2000/svg">
<path d="M20.5 10C21.1922 10 21.8689 9.79473 22.4445 9.41015C23.02 9.02556 23.4686 8.47894 23.7335 7.83939C23.9984 7.19985 24.0678 6.49612 23.9327 5.81719C23.7977 5.13825 23.4643 4.51461 22.9748 4.02513C22.4854 3.53564 21.8617 3.2023 21.1828 3.06725C20.5038 2.9322 19.8001 3.00152 19.1606 3.26642C18.521 3.53133 17.9744 3.97993 17.5898 4.55551C17.2052 5.13108 17 5.80777 17 6.5C17 7.42826 17.3687 8.3185 18.0251 8.97487C18.6815 9.63125 19.5717 10 20.5 10ZM20.5 5C20.7966 5 21.0866 5.08798 21.3333 5.2528C21.58 5.41762 21.7723 5.65189 21.8858 5.92598C21.9993 6.20007 22.029 6.50167 21.9711 6.79264C21.9133 7.08361 21.7704 7.35088 21.5606 7.56066C21.3508 7.77044 21.0836 7.9133 20.7926 7.97118C20.5016 8.02906 20.2 7.99935 19.9259 7.88582C19.6518 7.77229 19.4176 7.58003 19.2528 7.33336C19.0879 7.08668 19 6.79667 19 6.5C19 6.10218 19.158 5.72065 19.4393 5.43934C19.7206 5.15804 20.1021 5 20.5 5ZM31.86 24.49L25.04 12.98C24.8641 12.6802 24.6125 12.4318 24.3104 12.2598C24.0083 12.0878 23.6663 11.9982 23.3187 12C22.9713 11.9982 22.6294 12.0878 22.3275 12.2598C22.0257 12.4318 21.7743 12.6802 21.5987 12.98L18.3287 18.5L12.7237 8.9875C12.5471 8.68733 12.2952 8.43848 11.9928 8.26559C11.6905 8.09269 11.3482 8.00174 11 8.00174C10.6517 8.00174 10.3094 8.09269 10.0071 8.26559C9.70478 8.43848 9.45283 8.68733 9.27621 8.9875L0.138715 24.4925C0.0492733 24.6444 0.00155337 24.8172 0.000388077 24.9934C-0.000777221 25.1696 0.0446535 25.343 0.132079 25.4961C0.219504 25.6491 0.345818 25.7763 0.498227 25.8648C0.650636 25.9533 0.823726 25.9999 0.999965 26H31C31.1765 26 31.3498 25.9532 31.5024 25.8645C31.655 25.7758 31.7814 25.6483 31.8687 25.4949C31.9561 25.3415 32.0013 25.1678 31.9998 24.9913C31.9982 24.8148 31.95 24.6418 31.86 24.49ZM11 10L13.9462 15H8.05371L11 10ZM2.74996 24L6.87496 17H15.125L17.4675 20.975L19.25 24H2.74996ZM21.5712 24L19.4887 20.465L23.3187 14L29.25 24H21.5712Z" fill="#343330"/>
</svg>
