<svg width="32" height="32" viewBox="0 0 32 32" fill="none" xmlns="http://www.w3.org/2000/svg">
<path d="M18 2H14C11.879 2.00232 9.84549 2.84591 8.3457 4.3457C6.84591 5.84549 6.00232 7.87898 6 10V22C6.00232 24.121 6.84591 26.1545 8.3457 27.6543C9.84549 29.1541 11.879 29.9977 14 30H18C20.121 29.9977 22.1545 29.1541 23.6543 27.6543C25.1541 26.1545 25.9977 24.121 26 22V10C25.9977 7.87898 25.1541 5.84549 23.6543 4.3457C22.1545 2.84591 20.121 2.00232 18 2ZM24 10V13H19V11C19 10.4696 18.7893 9.96086 18.4142 9.58579C18.0391 9.21071 17.5304 9 17 9V4H18C19.5908 4.00165 21.116 4.63433 22.2408 5.75919C23.3657 6.88405 23.9983 8.40921 24 10ZM17 17H15V11H17V13.9875C16.9984 13.9958 16.9984 14.0042 17 14.0125V17ZM14 4H15V9C14.4696 9 13.9609 9.21071 13.5858 9.58579C13.2107 9.96086 13 10.4696 13 11V13H8V10C8.00165 8.40921 8.63433 6.88405 9.75919 5.75919C10.884 4.63433 12.4092 4.00165 14 4ZM18 28H14C12.4092 27.9983 10.884 27.3657 9.75919 26.2408C8.63433 25.116 8.00165 23.5908 8 22V15H13V17C13 17.5304 13.2107 18.0391 13.5858 18.4142C13.9609 18.7893 14.4696 19 15 19H17C17.5304 19 18.0391 18.7893 18.4142 18.4142C18.7893 18.0391 19 17.5304 19 17V15H24V22C23.9983 23.5908 23.3657 25.116 22.2408 26.2408C21.116 27.3657 19.5908 27.9983 18 28Z" fill="#343330"/>
</svg>
