<svg width="32" height="32" viewBox="0 0 32 32" fill="none" xmlns="http://www.w3.org/2000/svg">
<path d="M29 6C29 6.26521 28.8946 6.51957 28.7071 6.7071C28.5196 6.89464 28.2652 7 28 7H22C21.7348 7 21.4804 6.89464 21.2929 6.7071C21.1054 6.51957 21 6.26521 21 6C21 5.73478 21.1054 5.48043 21.2929 5.29289C21.4804 5.10535 21.7348 5 22 5H28C28.2652 5 28.5196 5.10535 28.7071 5.29289C28.8946 5.48043 29 5.73478 29 6ZM27 11V20.5C27.0004 21.5033 26.6655 22.4779 26.0485 23.269C25.4315 24.0602 24.5678 24.6224 23.5946 24.8665C22.6215 25.1105 21.5947 25.0224 20.6774 24.616C19.7601 24.2097 19.0049 23.5084 18.5318 22.6237C18.0587 21.739 17.8948 20.7215 18.0661 19.733C18.2375 18.7444 18.7343 17.8415 19.4776 17.1677C20.221 16.4939 21.1681 16.0877 22.1687 16.0139C23.1692 15.94 24.1658 16.2026 25 16.76V11C25 10.7348 25.1054 10.4804 25.2929 10.2929C25.4804 10.1054 25.7348 10 26 10C26.2652 10 26.5196 10.1054 26.7071 10.2929C26.8946 10.4804 27 10.7348 27 11ZM25 20.5C25 20.0055 24.8534 19.5222 24.5787 19.1111C24.304 18.6999 23.9135 18.3795 23.4567 18.1903C22.9999 18.0011 22.4972 17.9516 22.0123 18.048C21.5273 18.1445 21.0819 18.3826 20.7322 18.7322C20.3826 19.0819 20.1445 19.5273 20.048 20.0123C19.9516 20.4972 20.0011 20.9999 20.1903 21.4567C20.3795 21.9135 20.7 22.304 21.1111 22.5787C21.5222 22.8534 22.0056 23 22.5 23C23.163 23 23.7989 22.7366 24.2678 22.2678C24.7366 21.7989 25 21.163 25 20.5ZM11 13.7812V24.5C11.0004 25.5033 10.6655 26.4779 10.0485 27.269C9.43147 28.0602 8.56779 28.6224 7.59464 28.8665C6.6215 29.1105 5.5947 29.0224 4.6774 28.616C3.76009 28.2097 3.00489 27.5084 2.53177 26.6237C2.05866 25.739 1.89477 24.7215 2.06614 23.733C2.23752 22.7444 2.73433 21.8415 3.47764 21.1677C4.22095 20.4939 5.16813 20.0877 6.16869 20.0139C7.16925 19.94 8.1658 20.2026 9.00001 20.76V7C9.00004 6.777 9.07461 6.56042 9.21186 6.38466C9.34911 6.20891 9.54117 6.08407 9.75751 6.03L16.7575 4.28C17.013 4.22076 17.2815 4.26425 17.5052 4.4011C17.7289 4.53795 17.8899 4.7572 17.9535 5.01162C18.0171 5.26604 17.9782 5.53526 17.8452 5.76128C17.7123 5.98731 17.4958 6.15204 17.2425 6.22L11 7.78125V11.7187L19.7575 9.53C20.013 9.47076 20.2815 9.51425 20.5052 9.6511C20.7289 9.78795 20.8899 10.0072 20.9535 10.2616C21.0171 10.516 20.9782 10.7853 20.8452 11.0113C20.7123 11.2373 20.4958 11.402 20.2425 11.47L11 13.7812ZM9.00001 24.5C9.00001 24.0055 8.85338 23.5222 8.57868 23.1111C8.30398 22.6999 7.91353 22.3795 7.45671 22.1903C6.9999 22.0011 6.49723 21.9516 6.01228 22.048C5.52733 22.1445 5.08187 22.3826 4.73224 22.7322C4.38261 23.0819 4.14451 23.5273 4.04804 24.0123C3.95158 24.4972 4.00109 24.9999 4.19031 25.4567C4.37953 25.9135 4.69996 26.304 5.11108 26.5787C5.5222 26.8534 6.00555 27 6.50001 27C7.16305 27 7.79893 26.7366 8.26777 26.2678C8.73661 25.7989 9.00001 25.163 9.00001 24.5Z" fill="#343330"/>
</svg>
