<svg width="32" height="32" viewBox="0 0 32 32" fill="none" xmlns="http://www.w3.org/2000/svg">
<path d="M26.2875 7.0425L16.2875 4.0425C16.1382 3.99768 15.9805 3.98839 15.827 4.01537C15.6734 4.04234 15.5283 4.10483 15.4032 4.19786C15.2782 4.29088 15.1766 4.41186 15.1065 4.55113C15.0365 4.6904 15 4.84412 15 5V18.5325C13.9759 17.6165 12.6684 17.0797 11.2961 17.0119C9.92376 16.9441 8.56974 17.3494 7.46031 18.16C6.35089 18.9706 5.55329 20.1374 5.2008 21.4654C4.84832 22.7934 4.96231 24.2022 5.52373 25.4562C6.08514 26.7103 7.05997 27.7337 8.28528 28.3554C9.5106 28.977 10.9122 29.1593 12.2557 28.8718C13.5993 28.5842 14.8035 27.8442 15.667 26.7755C16.5305 25.7067 17.0011 24.374 17 23V12.3438L25.7125 14.9575C25.8618 15.0023 26.0195 15.0116 26.173 14.9846C26.3266 14.9577 26.4717 14.8952 26.5968 14.8021C26.7218 14.7091 26.8234 14.5881 26.8935 14.4489C26.9635 14.3096 27 14.1559 27 14V8C26.9999 7.78502 26.9306 7.57577 26.8023 7.4033C26.6739 7.23083 26.4934 7.10431 26.2875 7.0425ZM11 27C10.2089 27 9.43552 26.7654 8.77772 26.3259C8.11992 25.8864 7.60723 25.2616 7.30448 24.5307C7.00173 23.7998 6.92252 22.9956 7.07686 22.2196C7.2312 21.4437 7.61216 20.731 8.17157 20.1716C8.73098 19.6122 9.44372 19.2312 10.2196 19.0769C10.9956 18.9225 11.7998 19.0017 12.5307 19.3045C13.2616 19.6072 13.8864 20.1199 14.3259 20.7777C14.7654 21.4355 15 22.2089 15 23C15 24.0609 14.5786 25.0783 13.8284 25.8284C13.0783 26.5786 12.0609 27 11 27ZM25 12.6562L17 10.2563V6.34375L25 8.75V12.6562Z" fill="#343330"/>
</svg>
