<svg width="32" height="32" viewBox="0 0 32 32" fill="none" xmlns="http://www.w3.org/2000/svg">
<path d="M29.6663 13.2763L7.67625 5.12503L7.65625 5.11878C7.30229 4.99691 6.92123 4.97682 6.55642 5.06081C6.19162 5.1448 5.8577 5.32949 5.59267 5.59387C5.32764 5.85826 5.14213 6.19171 5.05724 6.55631C4.97235 6.92092 4.9915 7.30202 5.1125 7.65628C5.11402 7.66311 5.11611 7.6698 5.11875 7.67628L13.2762 29.6663C13.4102 30.0584 13.6643 30.3983 14.0025 30.6377C14.3407 30.8771 14.7457 31.0039 15.16 31H15.1975C15.62 30.9968 16.0303 30.8579 16.3679 30.6038C16.7055 30.3497 16.9525 29.9939 17.0725 29.5888L17.08 29.5638L19.81 19.8138L29.56 17.0838L29.585 17.0763C29.9871 16.9525 30.34 16.7051 30.5934 16.3693C30.8468 16.0334 30.9878 15.6262 30.9964 15.2055C31.005 14.7849 30.8807 14.3723 30.6412 14.0263C30.4017 13.6804 30.0592 13.4188 29.6625 13.2788L29.6663 13.2763ZM18.73 18.0375C18.5649 18.0839 18.4144 18.1719 18.2932 18.2932C18.1719 18.4145 18.0839 18.5649 18.0375 18.73L15.1625 29L15.155 28.9788L7 7.00003L28.9775 15.1525L28.9975 15.16L18.73 18.0375Z" fill="#343330"/>
</svg>
