<svg width="32" height="32" viewBox="0 0 32 32" fill="none" xmlns="http://www.w3.org/2000/svg">
<path d="M23.7075 8.2925C23.8005 8.38537 23.8742 8.49566 23.9245 8.61706C23.9749 8.73846 24.0008 8.86859 24.0008 9C24.0008 9.13142 23.9749 9.26154 23.9245 9.38294C23.8742 9.50434 23.8005 9.61463 23.7075 9.7075L21.7075 11.7075C21.5198 11.8951 21.2653 12.0006 21 12.0006C20.7346 12.0006 20.4801 11.8951 20.2925 11.7075C20.1048 11.5199 19.9994 11.2654 19.9994 11C19.9994 10.7346 20.1048 10.4801 20.2925 10.2925L22.2925 8.2925C22.3853 8.19952 22.4956 8.12577 22.617 8.07544C22.7384 8.02512 22.8686 7.99921 23 7.99921C23.1314 7.99921 23.2615 8.02512 23.3829 8.07544C23.5043 8.12577 23.6146 8.19952 23.7075 8.2925ZM28 9C28.0018 9.65685 27.8733 10.3075 27.6218 10.9143C27.3703 11.5212 27.0009 12.072 26.535 12.535L23.535 15.535C23.3889 15.6812 23.2011 15.7786 22.9975 15.8138C16.5612 16.9188 5.81498 27.5988 5.70748 27.7075C5.51984 27.895 5.26541 28.0002 5.00016 28.0001C4.73491 28 4.48058 27.8945 4.2931 27.7069C4.10563 27.5192 4.00037 27.2648 4.00049 26.9996C4.00061 26.7343 4.10609 26.48 4.29373 26.2925C4.49998 26.0912 15.0862 15.41 16.1862 9C16.2214 8.79633 16.3187 8.60856 16.465 8.4625L19.465 5.4625C20.1644 4.7633 21.0554 4.28722 22.0254 4.09446C22.9954 3.9017 24.0008 4.00093 24.9144 4.37959C25.828 4.75825 26.6088 5.39933 27.158 6.22177C27.7073 7.0442 28.0003 8.01104 28 9ZM26 9C26.0014 8.40559 25.8263 7.82413 25.4967 7.32943C25.1672 6.83473 24.6981 6.44907 24.149 6.2214C23.5999 5.99373 22.9956 5.93431 22.4127 6.05067C21.8298 6.16704 21.2946 6.45395 20.875 6.875L18.0962 9.66125C17.545 12.305 15.7337 15.435 13.66 18.34C16.565 16.2663 19.695 14.455 22.3387 13.9038L25.125 11.125C25.4042 10.8463 25.6253 10.515 25.7755 10.1502C25.9257 9.78543 26.002 9.39448 26 9Z" fill="#343330"/>
</svg>
