<svg width="32" height="32" viewBox="0 0 32 32" fill="none" xmlns="http://www.w3.org/2000/svg">
<path d="M29 14H17V11H18C18.5304 11 19.0391 10.7893 19.4142 10.4142C19.7893 10.0391 20 9.53043 20 9V5C20 4.46957 19.7893 3.96086 19.4142 3.58579C19.0391 3.21071 18.5304 3 18 3H14C13.4696 3 12.9609 3.21071 12.5858 3.58579C12.2107 3.96086 12 4.46957 12 5V9C12 9.53043 12.2107 10.0391 12.5858 10.4142C12.9609 10.7893 13.4696 11 14 11H15V14H3C2.73478 14 2.48043 14.1054 2.29289 14.2929C2.10536 14.4804 2 14.7348 2 15C2 15.2652 2.10536 15.5196 2.29289 15.7071C2.48043 15.8946 2.73478 16 3 16H7V20H6C5.46957 20 4.96086 20.2107 4.58579 20.5858C4.21071 20.9609 4 21.4696 4 22V26C4 26.5304 4.21071 27.0391 4.58579 27.4142C4.96086 27.7893 5.46957 28 6 28H10C10.5304 28 11.0391 27.7893 11.4142 27.4142C11.7893 27.0391 12 26.5304 12 26V22C12 21.4696 11.7893 20.9609 11.4142 20.5858C11.0391 20.2107 10.5304 20 10 20H9V16H23V20H22C21.4696 20 20.9609 20.2107 20.5858 20.5858C20.2107 20.9609 20 21.4696 20 22V26C20 26.5304 20.2107 27.0391 20.5858 27.4142C20.9609 27.7893 21.4696 28 22 28H26C26.5304 28 27.0391 27.7893 27.4142 27.4142C27.7893 27.0391 28 26.5304 28 26V22C28 21.4696 27.7893 20.9609 27.4142 20.5858C27.0391 20.2107 26.5304 20 26 20H25V16H29C29.2652 16 29.5196 15.8946 29.7071 15.7071C29.8946 15.5196 30 15.2652 30 15C30 14.7348 29.8946 14.4804 29.7071 14.2929C29.5196 14.1054 29.2652 14 29 14ZM14 5H18V9H14V5ZM10 26H6V22H10V26ZM26 26H22V22H26V26Z" fill="#343330"/>
</svg>
