<svg width="32" height="32" viewBox="0 0 32 32" fill="none" xmlns="http://www.w3.org/2000/svg">
<path d="M12 6.75V5C12 4.46957 12.2107 3.96086 12.5858 3.58579C12.9609 3.21071 13.4696 3 14 3H18C18.5304 3 19.0391 3.21071 19.4142 3.58579C19.7893 3.96086 20 4.46957 20 5V9C20 9.53043 19.7893 10.0391 19.4142 10.4142C19.0391 10.7893 18.5304 11 18 11H15.9513C15.686 11 15.4317 10.8946 15.2441 10.7071C15.0566 10.5196 14.9513 10.2652 14.9513 10C14.9513 9.73478 15.0566 9.48043 15.2441 9.29289C15.4317 9.10536 15.686 9 15.9513 9H18V5H14V6.75C14 7.01522 13.8946 7.26957 13.7071 7.45711C13.5196 7.64464 13.2652 7.75 13 7.75C12.7348 7.75 12.4804 7.64464 12.2929 7.45711C12.1054 7.26957 12 7.01522 12 6.75ZM26.74 26.3275C26.8302 26.4244 26.9002 26.5381 26.9461 26.6623C26.9919 26.7864 27.0127 26.9184 27.0072 27.0506C27.0017 27.1828 26.97 27.3126 26.9139 27.4325C26.8578 27.5524 26.7785 27.6599 26.6806 27.7489C26.5827 27.8379 26.4681 27.9066 26.3434 27.951C26.2187 27.9953 26.0865 28.0145 25.9543 28.0074C25.8222 28.0003 25.6928 27.9671 25.5736 27.9096C25.4544 27.8521 25.3478 27.7715 25.26 27.6725L14.6488 16H9V20H10C10.5304 20 11.0391 20.2107 11.4142 20.5858C11.7893 20.9609 12 21.4696 12 22V26C12 26.5304 11.7893 27.0391 11.4142 27.4142C11.0391 27.7893 10.5304 28 10 28H6C5.46957 28 4.96086 27.7893 4.58579 27.4142C4.21071 27.0391 4 26.5304 4 26V22C4 21.4696 4.21071 20.9609 4.58579 20.5858C4.96086 20.2107 5.46957 20 6 20H7V16H3C2.73478 16 2.48043 15.8946 2.29289 15.7071C2.10536 15.5196 2 15.2652 2 15C2 14.7348 2.10536 14.4804 2.29289 14.2929C2.48043 14.1054 2.73478 14 3 14H12.83L5.26 5.6725C5.16983 5.57564 5.09979 5.46185 5.05392 5.33772C5.00806 5.2136 4.98728 5.0816 4.99281 4.94938C4.99833 4.81717 5.03004 4.68736 5.0861 4.56749C5.14216 4.44762 5.22146 4.34007 5.31939 4.25107C5.41732 4.16208 5.53194 4.0934 5.65661 4.04902C5.78128 4.00465 5.91352 3.98546 6.04566 3.99257C6.1778 3.99968 6.30721 4.03294 6.4264 4.09044C6.54559 4.14793 6.65218 4.22851 6.74 4.3275L26.74 26.3275ZM10 22H6V26H10V22ZM29 14H20.5C20.2348 14 19.9804 14.1054 19.7929 14.2929C19.6054 14.4804 19.5 14.7348 19.5 15C19.5 15.2652 19.6054 15.5196 19.7929 15.7071C19.9804 15.8946 20.2348 16 20.5 16H23V18.8538C23 19.119 23.1054 19.3733 23.2929 19.5609C23.4804 19.7484 23.7348 19.8538 24 19.8538C24.2652 19.8538 24.5196 19.7484 24.7071 19.5609C24.8946 19.3733 25 19.119 25 18.8538V16H29C29.2652 16 29.5196 15.8946 29.7071 15.7071C29.8946 15.5196 30 15.2652 30 15C30 14.7348 29.8946 14.4804 29.7071 14.2929C29.5196 14.1054 29.2652 14 29 14Z" fill="#343330"/>
</svg>
