<svg width="32" height="32" viewBox="0 0 32 32" fill="none" xmlns="http://www.w3.org/2000/svg">
<path d="M29 14H17V11H18C18.5304 11 19.0391 10.7893 19.4142 10.4142C19.7893 10.0391 20 9.53043 20 9V5C20 4.46957 19.7893 3.96086 19.4142 3.58579C19.0391 3.21071 18.5304 3 18 3H14C13.4696 3 12.9609 3.21071 12.5858 3.58579C12.2107 3.96086 12 4.46957 12 5V9C12 9.53043 12.2107 10.0391 12.5858 10.4142C12.9609 10.7893 13.4696 11 14 11H15V14H3C2.73478 14 2.48043 14.1054 2.29289 14.2929C2.10536 14.4804 2 14.7348 2 15C2 15.2652 2.10536 15.5196 2.29289 15.7071C2.48043 15.8946 2.73478 16 3 16H7V20H6C5.46957 20 4.96086 20.2107 4.58579 20.5858C4.21071 20.9609 4 21.4696 4 22V26C4 26.5304 4.21071 27.0391 4.58579 27.4142C4.96086 27.7893 5.46957 28 6 28H10C10.5304 28 11.0391 27.7893 11.4142 27.4142C11.7893 27.0391 12 26.5304 12 26V22C12 21.4696 11.7893 20.9609 11.4142 20.5858C11.0391 20.2107 10.5304 20 10 20H9V16H23V18C23 18.2652 23.1054 18.5196 23.2929 18.7071C23.4804 18.8946 23.7348 19 24 19C24.2652 19 24.5196 18.8946 24.7071 18.7071C24.8946 18.5196 25 18.2652 25 18V16H29C29.2652 16 29.5196 15.8946 29.7071 15.7071C29.8946 15.5196 30 15.2652 30 15C30 14.7348 29.8946 14.4804 29.7071 14.2929C29.5196 14.1054 29.2652 14 29 14ZM14 5H18V9H14V5ZM10 26H6V22H10V26ZM27.7062 21.7075L25.4137 24L27.7075 26.2925C27.8004 26.3854 27.8741 26.4957 27.9244 26.6171C27.9747 26.7385 28.0006 26.8686 28.0006 27C28.0006 27.1314 27.9747 27.2615 27.9244 27.3829C27.8741 27.5043 27.8004 27.6146 27.7075 27.7075C27.6146 27.8004 27.5043 27.8741 27.3829 27.9244C27.2615 27.9747 27.1314 28.0006 27 28.0006C26.8686 28.0006 26.7385 27.9747 26.6171 27.9244C26.4957 27.8741 26.3854 27.8004 26.2925 27.7075L24 25.4137L21.7075 27.7075C21.5199 27.8951 21.2654 28.0006 21 28.0006C20.7346 28.0006 20.4801 27.8951 20.2925 27.7075C20.1049 27.5199 19.9994 27.2654 19.9994 27C19.9994 26.7346 20.1049 26.4801 20.2925 26.2925L22.5863 24L20.2925 21.7075C20.1049 21.5199 19.9994 21.2654 19.9994 21C19.9994 20.7346 20.1049 20.4801 20.2925 20.2925C20.4801 20.1049 20.7346 19.9994 21 19.9994C21.2654 19.9994 21.5199 20.1049 21.7075 20.2925L24 22.5863L26.2925 20.2925C26.4801 20.1049 26.7346 19.9994 27 19.9994C27.2654 19.9994 27.5199 20.1049 27.7075 20.2925C27.8951 20.4801 28.0006 20.7346 28.0006 21C28.0006 21.2654 27.8951 21.5199 27.7075 21.7075H27.7062Z" fill="#343330"/>
</svg>
