<svg width="32" height="32" viewBox="0 0 32 32" fill="none" xmlns="http://www.w3.org/2000/svg">
<path d="M26.7075 16.7075L16.7075 26.7075C16.6146 26.8004 16.5043 26.8741 16.3829 26.9244C16.2615 26.9747 16.1314 27.0005 16 27.0005C15.8686 27.0005 15.7385 26.9747 15.6171 26.9244C15.4957 26.8741 15.3854 26.8004 15.2925 26.7075C15.1996 26.6146 15.1259 26.5043 15.0756 26.3829C15.0253 26.2615 14.9995 26.1314 14.9995 26C14.9995 25.8686 15.0253 25.7385 15.0756 25.6171C15.1259 25.4957 15.1996 25.3854 15.2925 25.2925L25.2925 15.2925C25.3854 15.1996 25.4957 15.1259 25.6171 15.0756C25.7385 15.0253 25.8686 14.9994 26 14.9994C26.1314 14.9994 26.2615 15.0253 26.3829 15.0756C26.5043 15.1259 26.6146 15.1996 26.7075 15.2925C26.8004 15.3854 26.8741 15.4957 26.9244 15.6171C26.9747 15.7385 27.0006 15.8686 27.0006 16C27.0006 16.1314 26.9747 16.2615 26.9244 16.3829C26.8741 16.5043 26.8004 16.6146 26.7075 16.7075ZM24.7075 4.29249C24.6146 4.19952 24.5043 4.12576 24.3829 4.07543C24.2615 4.02511 24.1314 3.99921 24 3.99921C23.8686 3.99921 23.7385 4.02511 23.6171 4.07543C23.4957 4.12576 23.3854 4.19952 23.2925 4.29249L4.29251 23.2925C4.10487 23.4801 3.99945 23.7346 3.99945 24C3.99945 24.2654 4.10487 24.5199 4.29251 24.7075C4.48015 24.8951 4.73464 25.0005 5.00001 25.0005C5.26537 25.0005 5.51987 24.8951 5.70751 24.7075L24.7075 5.70749C24.8005 5.61462 24.8742 5.50433 24.9246 5.38293C24.9749 5.26154 25.0008 5.13141 25.0008 4.99999C25.0008 4.86858 24.9749 4.73845 24.9246 4.61705C24.8742 4.49565 24.8005 4.38537 24.7075 4.29249Z" fill="#343330"/>
</svg>
