<svg width="32" height="32" viewBox="0 0 32 32" fill="none" xmlns="http://www.w3.org/2000/svg">
<path d="M26.6725 4.26002C26.4762 4.08168 26.2172 3.9886 25.9523 4.00126C25.6874 4.01392 25.4384 4.13128 25.26 4.32752L24.6488 5.00002H16C13.8662 5.00149 11.7789 5.62352 9.99246 6.79033C8.20596 7.95714 6.7974 9.61835 5.93837 11.5716C5.07934 13.5248 4.80693 15.6857 5.15435 17.791C5.50176 19.8963 6.45398 21.8551 7.89501 23.4288L5.26001 26.3275C5.16984 26.4244 5.09979 26.5382 5.05393 26.6623C5.00806 26.7864 4.98729 26.9184 4.99282 27.0506C4.99834 27.1829 5.03005 27.3127 5.08611 27.4325C5.14217 27.5524 5.22146 27.6599 5.3194 27.7489C5.41733 27.8379 5.53195 27.9066 5.65662 27.951C5.78129 27.9954 5.91352 28.0146 6.04566 28.0075C6.1778 28.0003 6.30722 27.9671 6.42641 27.9096C6.5456 27.8521 6.65219 27.7715 6.74001 27.6725L9.37501 24.775C11.2806 26.2212 13.6078 27.0028 16 27H25C25.2652 27 25.5196 26.8947 25.7071 26.7071C25.8947 26.5196 26 26.2652 26 26C26 25.7348 25.8947 25.4804 25.7071 25.2929C25.5196 25.1054 25.2652 25 25 25H16C14.1056 25.0013 12.2596 24.4018 10.7275 23.2875L26.74 5.67252C26.9183 5.47625 27.0114 5.21718 26.9988 4.95229C26.9861 4.6874 26.8688 4.43839 26.6725 4.26002ZM7.00001 16C7.00265 13.6139 7.95172 11.3262 9.63897 9.63898C11.3262 7.95173 13.6139 7.00267 16 7.00002H22.83L9.25001 21.9413C7.79962 20.3021 6.99928 18.1888 7.00001 16Z" fill="#343330"/>
</svg>
