<svg width="32" height="32" viewBox="0 0 32 32" fill="none" xmlns="http://www.w3.org/2000/svg">
<path d="M26 24H10.0788L12.8063 21H19C20.5458 20.9989 22.0582 20.5501 23.3543 19.7077C24.6503 18.8653 25.6746 17.6655 26.3032 16.2533C26.9319 14.8411 27.1379 13.277 26.8964 11.7502C26.6549 10.2234 25.9763 8.79925 24.9425 7.64998L26.74 5.67248C26.9146 5.47563 27.0046 5.21789 26.9905 4.95513C26.9764 4.69237 26.8592 4.44577 26.6645 4.2688C26.4698 4.09182 26.2131 3.99874 25.9502 4.00972C25.6873 4.02071 25.4393 4.13488 25.26 4.32748L23.4288 6.34123C22.118 5.46531 20.5765 4.99848 19 4.99998H7.00001C6.73479 4.99998 6.48044 5.10533 6.2929 5.29287C6.10536 5.48041 6.00001 5.73476 6.00001 5.99998C6.00001 6.26519 6.10536 6.51955 6.2929 6.70708C6.48044 6.89462 6.73479 6.99998 7.00001 6.99998H19C20.0788 6.99902 21.1376 7.29062 22.0638 7.84373L11.9213 19H7.00001C6.73479 19 6.48044 19.1053 6.2929 19.2929C6.10536 19.4804 6.00001 19.7348 6.00001 20C6.00001 20.2652 6.10536 20.5195 6.2929 20.7071C6.48044 20.8946 6.73479 21 7.00001 21H10.1025L5.26001 26.3275C5.16984 26.4243 5.09979 26.5381 5.05393 26.6623C5.00806 26.7864 4.98729 26.9184 4.99282 27.0506C4.99834 27.1828 5.03005 27.3126 5.08611 27.4325C5.14217 27.5524 5.22146 27.6599 5.3194 27.7489C5.41733 27.8379 5.53195 27.9066 5.65662 27.951C5.78129 27.9953 5.91352 28.0145 6.04566 28.0074C6.1778 28.0003 6.30722 27.967 6.42641 27.9095C6.5456 27.852 6.65219 27.7715 6.74001 27.6725L8.26001 26H26C26.2652 26 26.5196 25.8946 26.7071 25.7071C26.8947 25.5195 27 25.2652 27 25C27 24.7348 26.8947 24.4804 26.7071 24.2929C26.5196 24.1053 26.2652 24 26 24ZM23.5888 9.13998C24.3235 10.0143 24.7934 11.0803 24.9433 12.2125C25.0932 13.3447 24.9169 14.4961 24.435 15.5316C23.9531 16.567 23.1857 17.4434 22.223 18.0578C21.2602 18.6722 20.1421 18.9991 19 19H14.625L23.5888 9.13998Z" fill="#343330"/>
</svg>
