<svg width="32" height="32" viewBox="0 0 32 32" fill="none" xmlns="http://www.w3.org/2000/svg">
<path d="M19 4H22C22.2652 4 22.5196 3.89464 22.7071 3.70711C22.8946 3.51957 23 3.26522 23 3C23 2.73478 23.1054 2.48043 23.2929 2.29289C23.4804 2.10536 23.7348 2 24 2C24.2652 2 24.5196 2.10536 24.7071 2.29289C24.8946 2.48043 25 2.73478 25 3C25 3.79565 24.6839 4.55871 24.1213 5.12132C23.5587 5.68393 22.7956 6 22 6H19C18.7348 6 18.4804 6.10536 18.2929 6.29289C18.1054 6.48043 18 6.73478 18 7C18 7.26522 17.8946 7.51957 17.7071 7.70711C17.5196 7.89464 17.2652 8 17 8C16.7348 8 16.4804 7.89464 16.2929 7.70711C16.1054 7.51957 16 7.26522 16 7C16 6.20435 16.3161 5.44129 16.8787 4.87868C17.4413 4.31607 18.2044 4 19 4ZM13 8C13.2652 8 13.5196 7.89464 13.7071 7.70711C13.8946 7.51957 14 7.26522 14 7C14 5.67392 14.5268 4.40215 15.4645 3.46447C16.4021 2.52678 17.6739 2 19 2H20C20.2652 2 20.5196 1.89464 20.7071 1.70711C20.8946 1.51957 21 1.26522 21 1C21 0.734784 20.8946 0.48043 20.7071 0.292893C20.5196 0.105357 20.2652 0 20 0L19 0C17.1441 0.00198528 15.3648 0.740121 14.0524 2.05245C12.7401 3.36477 12.002 5.14409 12 7C12 7.26522 12.1054 7.51957 12.2929 7.70711C12.4804 7.89464 12.7348 8 13 8ZM31 27C31 27.2652 30.8946 27.5196 30.7071 27.7071C30.5196 27.8946 30.2652 28 30 28H2C1.73478 28 1.48043 27.8946 1.29289 27.7071C1.10536 27.5196 1 27.2652 1 27C1 26.7348 1.10536 26.4804 1.29289 26.2929C1.48043 26.1054 1.73478 26 2 26H4.0925C5.81375 22.5212 7.7775 17.4137 7.9825 11.9175C8.00102 11.4008 8.22006 10.9116 8.59319 10.5536C8.96632 10.1956 9.46419 9.99707 9.98125 10H21.0225C21.5377 9.99948 22.0332 10.1978 22.4058 10.5536C22.7784 10.9094 22.9993 11.3953 23.0225 11.91C23.285 17.89 26.0025 23.4562 27.4338 26H30C30.2652 26 30.5196 26.1054 30.7071 26.2929C30.8946 26.4804 31 26.7348 31 27ZM21.0225 12H19.0225C19.2437 17.465 21.1963 22.54 22.9088 26H25.1588C23.585 23.01 21.2725 17.705 21.0225 12ZM6.3125 26H20.6875C19 22.3862 17.2212 17.3862 17.0187 12C16.977 12.0003 16.9352 11.9978 16.8937 11.9925L9.98125 12C9.78 17.3825 8.0075 22.3838 6.3125 26Z" fill="#343330"/>
</svg>
