<svg width="32" height="32" viewBox="0 0 32 32" fill="none" xmlns="http://www.w3.org/2000/svg">
<path d="M26 4H6C5.46957 4 4.96086 4.21071 4.58579 4.58579C4.21071 4.96086 4 5.46957 4 6V26C4 26.5304 4.21071 27.0391 4.58579 27.4142C4.96086 27.7893 5.46957 28 6 28H26C26.5304 28 27.0391 27.7893 27.4142 27.4142C27.7893 27.0391 28 26.5304 28 26V6C28 5.46957 27.7893 4.96086 27.4142 4.58579C27.0391 4.21071 26.5304 4 26 4ZM26 26H6V6H26V26ZM20 18H19V10C18.9998 9.79178 18.9346 9.58882 18.8135 9.41943C18.6924 9.25004 18.5215 9.12267 18.3245 9.05509C18.1276 8.98752 17.9145 8.9831 17.7149 9.04247C17.5153 9.10183 17.3392 9.22202 17.2113 9.38625L10.2113 18.3862C10.0964 18.534 10.0253 18.711 10.0061 18.8971C9.9868 19.0832 10.0202 19.271 10.1023 19.4391C10.1845 19.6072 10.3122 19.7489 10.4709 19.8481C10.6296 19.9472 10.8129 19.9999 11 20H17V22C17 22.2652 17.1054 22.5196 17.2929 22.7071C17.4804 22.8946 17.7348 23 18 23C18.2652 23 18.5196 22.8946 18.7071 22.7071C18.8946 22.5196 19 22.2652 19 22V20H20C20.2652 20 20.5196 19.8946 20.7071 19.7071C20.8946 19.5196 21 19.2652 21 19C21 18.7348 20.8946 18.4804 20.7071 18.2929C20.5196 18.1054 20.2652 18 20 18ZM17 18H13.045L17 12.915V18Z" fill="#343330"/>
</svg>
