<svg width="32" height="32" viewBox="0 0 32 32" fill="none" xmlns="http://www.w3.org/2000/svg">
<path d="M19.4438 14.9087C20.4885 14.1765 21.2726 13.1303 21.6823 11.9221C22.0919 10.7139 22.1058 9.4065 21.7219 8.18985C21.338 6.97321 20.5762 5.9106 19.5473 5.15634C18.5184 4.40208 17.2758 3.99542 16 3.99542C14.7242 3.99542 13.4816 4.40208 12.4527 5.15634C11.4238 5.9106 10.662 6.97321 10.2781 8.18985C9.8942 9.4065 9.90808 10.7139 10.3177 11.9221C10.7274 13.1303 11.5115 14.1765 12.5563 14.9087C11.2099 15.6695 10.1533 16.8548 9.55159 18.2794C8.94988 19.7041 8.83687 21.2878 9.23021 22.7835C9.62356 24.2791 10.5011 25.6024 11.7258 26.5466C12.9506 27.4909 14.4535 28.003 16 28.003C17.5465 28.003 19.0494 27.4909 20.2742 26.5466C21.4989 25.6024 22.3764 24.2791 22.7698 22.7835C23.1631 21.2878 23.0501 19.7041 22.4484 18.2794C21.8467 16.8548 20.7901 15.6695 19.4438 14.9087ZM12 9.99998C12 9.20885 12.2346 8.4355 12.6741 7.7777C13.1137 7.1199 13.7384 6.60721 14.4693 6.30446C15.2002 6.00171 16.0044 5.9225 16.7804 6.07684C17.5563 6.23118 18.269 6.61214 18.8284 7.17155C19.3878 7.73096 19.7688 8.44369 19.9231 9.21962C20.0775 9.99554 19.9983 10.7998 19.6955 11.5307C19.3928 12.2616 18.8801 12.8863 18.2223 13.3259C17.5645 13.7654 16.7911 14 16 14C14.9391 14 13.9217 13.5786 13.1716 12.8284C12.4214 12.0783 12 11.0608 12 9.99998ZM16 26C15.0111 26 14.0444 25.7067 13.2222 25.1573C12.3999 24.6079 11.759 23.827 11.3806 22.9134C11.0022 21.9998 10.9031 20.9944 11.0961 20.0245C11.289 19.0546 11.7652 18.1637 12.4645 17.4644C13.1637 16.7652 14.0546 16.289 15.0246 16.0961C15.9945 15.9031 16.9998 16.0021 17.9134 16.3806C18.8271 16.759 19.6079 17.3999 20.1574 18.2221C20.7068 19.0444 21 20.0111 21 21C21 22.3261 20.4732 23.5978 19.5355 24.5355C18.5979 25.4732 17.3261 26 16 26Z" fill="#343330"/>
</svg>
