<svg width="32" height="32" viewBox="0 0 32 32" fill="none" xmlns="http://www.w3.org/2000/svg">
<path d="M22 20C22 21.3512 21.6088 22.6735 20.8738 23.8074C20.1388 24.9412 19.0913 25.838 17.8579 26.3897C16.6244 26.9413 15.2576 27.1242 13.9225 26.9162C12.5874 26.7082 11.341 26.1182 10.3338 25.2175C10.2309 25.1315 10.1464 25.0256 10.0853 24.9062C10.0242 24.7869 9.98775 24.6564 9.97807 24.5227C9.96839 24.3889 9.98572 24.2546 10.029 24.1277C10.0723 24.0008 10.1407 23.8839 10.2301 23.7839C10.3194 23.684 10.428 23.603 10.5493 23.5459C10.6707 23.4887 10.8022 23.4566 10.9362 23.4513C11.0702 23.446 11.2039 23.4678 11.3293 23.5152C11.4547 23.5627 11.5693 23.6349 11.6663 23.7275C12.2704 24.2676 12.9968 24.6528 13.7829 24.8499C14.5689 25.047 15.3911 25.05 16.1786 24.8588C16.9661 24.6676 17.6953 24.2878 18.3035 23.7522C18.9116 23.2166 19.3805 22.5412 19.6696 21.7842C19.9588 21.0271 20.0596 20.2112 19.9635 19.4065C19.8673 18.6018 19.5769 17.8326 19.1175 17.1651C18.658 16.4976 18.0431 15.9517 17.3259 15.5745C16.6086 15.1974 15.8104 15.0002 15 15C14.8143 15 14.6323 14.9483 14.4743 14.8507C14.3163 14.753 14.1887 14.6133 14.1056 14.4472C14.0225 14.2811 13.9874 14.0952 14.0041 13.9102C14.0207 13.7252 14.0886 13.5486 14.2 13.4L19 7H11C10.7348 7 10.4805 6.89464 10.2929 6.70711C10.1054 6.51957 10 6.26522 10 6C10 5.73478 10.1054 5.48043 10.2929 5.29289C10.4805 5.10536 10.7348 5 11 5H21C21.1857 5 21.3678 5.05171 21.5258 5.14935C21.6837 5.24698 21.8114 5.38668 21.8945 5.55279C21.9775 5.71889 22.0127 5.90484 21.996 6.08981C21.9793 6.27477 21.9115 6.45143 21.8 6.6L16.82 13.24C18.3056 13.6422 19.6176 14.5219 20.5538 15.7436C21.4899 16.9652 21.9981 18.4609 22 20Z" fill="#343330"/>
</svg>
