<svg width="32" height="32" viewBox="0 0 32 32" fill="none" xmlns="http://www.w3.org/2000/svg">
<path d="M22 20C22 21.3512 21.6088 22.6735 20.8738 23.8074C20.1388 24.9412 19.0913 25.838 17.8579 26.3897C16.6244 26.9413 15.2576 27.1242 13.9225 26.9162C12.5874 26.7082 11.341 26.1182 10.3338 25.2175C10.2309 25.1315 10.1464 25.0256 10.0853 24.9062C10.0242 24.7869 9.98775 24.6564 9.97807 24.5227C9.96839 24.3889 9.98572 24.2546 10.029 24.1277C10.0723 24.0008 10.1407 23.8839 10.2301 23.7839C10.3194 23.684 10.428 23.603 10.5493 23.5459C10.6707 23.4887 10.8022 23.4566 10.9362 23.4513C11.0702 23.446 11.2039 23.4678 11.3293 23.5152C11.4547 23.5627 11.5693 23.6349 11.6663 23.7275C12.3817 24.3673 13.2661 24.7878 14.2139 24.9386C15.1618 25.0894 16.133 24.9642 17.0117 24.578C17.8903 24.1918 18.6392 23.5608 19.169 22.7605C19.6987 21.9601 19.9869 21.0242 19.9992 20.0645C20.0114 19.1048 19.7472 18.1619 19.2381 17.3483C18.7289 16.5347 17.9964 15.8848 17.1279 15.4763C16.2594 15.0677 15.2917 14.9178 14.3403 15.0444C13.3889 15.1709 12.494 15.5686 11.7625 16.19C11.6042 16.3232 11.4084 16.404 11.2022 16.4212C10.996 16.4384 10.7895 16.3913 10.6112 16.2862C10.433 16.1812 10.2917 16.0234 10.2068 15.8347C10.122 15.646 10.0978 15.4356 10.1375 15.2325L12.02 5.80375C12.0654 5.57719 12.1878 5.37331 12.3664 5.22679C12.5451 5.08026 12.769 5.00013 13 5H21C21.2652 5 21.5196 5.10536 21.7071 5.29289C21.8947 5.48043 22 5.73478 22 6C22 6.26522 21.8947 6.51957 21.7071 6.70711C21.5196 6.89464 21.2652 7 21 7H13.82L12.53 13.45C13.5894 13.0505 14.7298 12.9139 15.8536 13.052C16.9773 13.19 18.0508 13.5986 18.982 14.2426C19.9131 14.8867 20.6742 15.747 21.1998 16.7497C21.7255 17.7525 22.0001 18.8678 22 20Z" fill="#343330"/>
</svg>
