<svg width="32" height="32" viewBox="0 0 32 32" fill="none" xmlns="http://www.w3.org/2000/svg">
<path d="M16 13C15.3393 13.0003 14.6819 13.0941 14.0475 13.2787L17.875 6.49123C18.0051 6.25916 18.0377 5.98491 17.9656 5.72881C17.8936 5.4727 17.7227 5.25572 17.4906 5.1256C17.2586 4.99548 16.9843 4.96288 16.7282 5.03496C16.4721 5.10704 16.2551 5.27791 16.125 5.50998L9.93125 16.51C9.16324 17.8453 8.85714 19.3966 9.06038 20.9236C9.26363 22.4505 9.96487 23.8678 11.0554 24.9557C12.146 26.0436 13.5649 26.7414 15.0924 26.941C16.6198 27.1405 18.1704 26.8307 19.5038 26.0595C20.8373 25.2882 21.8791 24.0987 22.4678 22.6752C23.0565 21.2518 23.1592 19.6738 22.7601 18.186C22.3609 16.6983 21.4821 15.3837 20.2599 14.4461C19.0377 13.5084 17.5404 13.0002 16 13ZM16 25C15.0111 25 14.0444 24.7067 13.2221 24.1573C12.3999 23.6079 11.759 22.827 11.3806 21.9134C11.0022 20.9998 10.9031 19.9944 11.0961 19.0245C11.289 18.0546 11.7652 17.1637 12.4645 16.4644C13.1637 15.7652 14.0546 15.289 15.0245 15.0961C15.9944 14.9031 16.9998 15.0021 17.9134 15.3806C18.827 15.759 19.6079 16.3999 20.1573 17.2221C20.7068 18.0444 21 19.0111 21 20C21 21.3261 20.4732 22.5978 19.5355 23.5355C18.5978 24.4732 17.3261 25 16 25Z" fill="#343330"/>
</svg>
