<svg width="32" height="32" viewBox="0 0 32 32" fill="none" xmlns="http://www.w3.org/2000/svg">
<path d="M16 5C14.9971 4.99954 14.0059 5.21457 13.0934 5.63052C12.1808 6.04648 11.3683 6.65365 10.7109 7.41093C10.0534 8.1682 9.56639 9.05791 9.28269 10.0198C8.999 10.9817 8.9253 11.9933 9.06658 12.9861C9.20786 13.979 9.56082 14.9299 10.1016 15.7745C10.6423 16.619 11.3582 17.3376 12.2008 17.8814C13.0434 18.4252 13.993 18.7816 14.9853 18.9265C15.9777 19.0714 16.9896 19.0014 17.9525 18.7213L14.125 25.5088C13.9949 25.7408 13.9622 26.0151 14.0343 26.2712C14.1064 26.5273 14.2773 26.7443 14.5093 26.8744C14.7414 27.0045 15.0157 27.0371 15.2718 26.965C15.5279 26.8929 15.7449 26.7221 15.875 26.49L22.0687 15.49C22.6809 14.4256 23.0023 13.219 23.0008 11.9911C22.9992 10.7633 22.6747 9.55746 22.0599 8.49465C21.445 7.43185 20.5614 6.54947 19.4978 5.93608C18.4341 5.32268 17.2278 4.99986 16 5ZM16 17C15.0111 17 14.0444 16.7068 13.2221 16.1573C12.3999 15.6079 11.759 14.827 11.3806 13.9134C11.0021 12.9998 10.9031 11.9945 11.096 11.0245C11.289 10.0546 11.7652 9.16373 12.4644 8.46447C13.1637 7.7652 14.0546 7.289 15.0245 7.09607C15.9944 6.90315 16.9998 7.00216 17.9134 7.3806C18.827 7.75904 19.6079 8.3999 20.1573 9.22215C20.7067 10.0444 21 11.0111 21 12C21 13.3261 20.4732 14.5979 19.5355 15.5355C18.5978 16.4732 17.3261 17 16 17Z" fill="#343330"/>
</svg>
