<svg width="32" height="32" viewBox="0 0 32 32" fill="none" xmlns="http://www.w3.org/2000/svg">
<path d="M23 20H21V5.99999C21.0002 5.79265 20.9359 5.5904 20.8161 5.4212C20.6962 5.25201 20.5267 5.12425 20.3311 5.05561C20.1355 4.98696 19.9233 4.98082 19.724 5.03804C19.5248 5.09526 19.3482 5.21301 19.2188 5.37499L7.21877 20.375C7.10098 20.5221 7.02717 20.6995 7.00582 20.8867C6.98448 21.074 7.01648 21.2634 7.09814 21.4333C7.17979 21.6031 7.30778 21.7464 7.46735 21.8467C7.62691 21.947 7.81156 22.0001 8.00002 22H19V26C19 26.2652 19.1054 26.5196 19.2929 26.7071C19.4804 26.8946 19.7348 27 20 27C20.2652 27 20.5196 26.8946 20.7071 26.7071C20.8947 26.5196 21 26.2652 21 26V22H23C23.2652 22 23.5196 21.8946 23.7071 21.7071C23.8947 21.5196 24 21.2652 24 21C24 20.7348 23.8947 20.4804 23.7071 20.2929C23.5196 20.1053 23.2652 20 23 20ZM19 20H10.08L19 8.85124V20Z" fill="#343330"/>
</svg>
