<svg width="32" height="32" viewBox="0 0 32 32" fill="none" xmlns="http://www.w3.org/2000/svg">
<path d="M28.9413 18.3212L21.96 6.33249L21.9463 6.30874C21.3181 5.29743 20.4424 4.46304 19.4019 3.88447C18.3614 3.3059 17.1905 3.00226 16 3.00226C14.8095 3.00226 13.6386 3.3059 12.5981 3.88447C11.5577 4.46304 10.6819 5.29743 10.0538 6.30874L10.04 6.33249L3.05876 18.3212C2.40385 19.3814 2.04385 20.5973 2.01592 21.8431C1.98799 23.089 2.29315 24.3197 2.89989 25.4082C3.50663 26.4967 4.39295 27.4034 5.4673 28.0349C6.54165 28.6663 7.76509 28.9995 9.01126 29H22.9888C24.2349 28.9995 25.4584 28.6663 26.5327 28.0349C27.6071 27.4034 28.4934 26.4967 29.1001 25.4082C29.7069 24.3197 30.012 23.089 29.9841 21.8431C29.9562 20.5973 29.5962 19.3814 28.9413 18.3212ZM20 27H12V21H20V27ZM27.3575 24.4312C26.9295 25.2143 26.2972 25.8667 25.528 26.3191C24.7587 26.7714 23.8811 27.0067 22.9888 27H22V21C22 20.4696 21.7893 19.9608 21.4142 19.5858C21.0392 19.2107 20.5304 19 20 19H12C11.4696 19 10.9609 19.2107 10.5858 19.5858C10.2107 19.9608 10 20.4696 10 21V27H9.01126C8.11999 27.0002 7.24484 26.7623 6.47644 26.3107C5.70804 25.8591 5.07432 25.2103 4.64088 24.4315C4.20745 23.6528 3.99006 22.7723 4.01122 21.8813C4.03239 20.9902 4.29134 20.1211 4.76126 19.3637C4.76632 19.3557 4.77091 19.3473 4.77501 19.3387L11.7563 7.35124C12.2057 6.63211 12.8307 6.03911 13.5724 5.62801C14.3141 5.21691 15.1482 5.00122 15.9963 5.00122C16.8443 5.00122 17.6784 5.21691 18.4201 5.62801C19.1618 6.03911 19.7868 6.63211 20.2363 7.35124L27.2175 19.3387C27.2216 19.3473 27.2262 19.3557 27.2313 19.3637C27.7082 20.1182 27.9717 20.9879 27.9937 21.8802C28.0157 22.7725 27.7954 23.6541 27.3563 24.4312H27.3575Z" fill="#343330"/>
</svg>
