<svg width="32" height="32" viewBox="0 0 32 32" fill="none" xmlns="http://www.w3.org/2000/svg">
<path d="M28.0401 14.28C28.5074 13.1361 28.6636 11.8888 28.4927 10.665C28.3219 9.44114 27.8301 8.28434 27.0674 7.31211C26.3047 6.33989 25.2982 5.58689 24.1502 5.12964C23.0022 4.67238 21.7536 4.52717 20.5313 4.70875C19.7739 3.73302 18.7717 2.97511 17.6265 2.51197C16.4814 2.04883 15.2341 1.89696 14.0113 2.07177C12.7885 2.24658 11.6337 2.74186 10.6642 3.50731C9.69476 4.27275 8.94508 5.28112 8.49134 6.43C7.26701 6.59759 6.10886 7.08631 5.13459 7.84648C4.16032 8.60666 3.40465 9.6112 2.94437 10.758C2.48409 11.9049 2.33561 13.1531 2.51401 14.3759C2.69241 15.5987 3.19134 16.7525 3.96009 17.72C3.58495 18.6393 3.40968 19.6279 3.44592 20.6202C3.48216 21.6125 3.72909 22.5857 4.1703 23.4752C4.61151 24.3647 5.2369 25.1502 6.00496 25.7794C6.77302 26.4087 7.66617 26.8674 8.62509 27.125C9.21947 27.2877 9.83261 27.3717 10.4488 27.375C10.7907 27.3747 11.132 27.3492 11.4701 27.2987C12.2277 28.2741 13.2299 29.0317 14.375 29.4945C15.52 29.9574 16.7672 30.1091 17.9898 29.9341C19.2124 29.7592 20.3669 29.2639 21.3362 28.4985C22.3056 27.7332 23.0551 26.725 23.5088 25.5763C24.7332 25.4087 25.8913 24.9199 26.8656 24.1598C27.8399 23.3996 28.5955 22.395 29.0558 21.2482C29.5161 20.1014 29.6646 18.8532 29.4862 17.6304C29.3078 16.4076 28.8088 15.2538 28.0401 14.2863V14.28ZM22.8563 6.80375C24.1164 7.14061 25.195 7.95654 25.862 9.07747C26.5289 10.1984 26.7315 11.5356 26.4263 12.8038C26.3076 12.725 26.1876 12.6488 26.0626 12.5775L20.5001 9.36C20.3481 9.27223 20.1756 9.22603 20.0001 9.22603C19.8246 9.22603 19.6521 9.27223 19.5001 9.36L14.0001 12.5363V10.2263L19.0626 7.30375C19.6305 6.97386 20.2582 6.75982 20.9094 6.674C21.5606 6.58818 22.2223 6.63228 22.8563 6.80375ZM18.0001 17.155L16.0001 18.31L14.0001 17.155V14.845L16.0001 13.69L18.0001 14.845V17.155ZM10.0001 9C10.0006 8.0225 10.2875 7.06658 10.8255 6.25045C11.3635 5.43433 12.1289 4.7938 13.0271 4.40809C13.9253 4.02237 14.9168 3.90839 15.8791 4.08024C16.8414 4.25209 17.7322 4.70224 18.4413 5.375C18.3163 5.43875 18.1913 5.5 18.0663 5.5775L12.5001 8.78375C12.3482 8.87143 12.2221 8.99751 12.1343 9.14933C12.0466 9.30116 12.0003 9.47339 12.0001 9.64875V16L10.0001 14.845V9ZM5.10759 10.8663C5.74472 9.75509 6.78634 8.9329 8.01509 8.57125C8.00634 8.71375 8.00009 8.85625 8.00009 9V15.4225C8.00005 15.5981 8.04624 15.7706 8.13401 15.9226C8.22178 16.0747 8.34804 16.201 8.50009 16.2888L14.0001 19.4638L12.0001 20.625L6.93759 17.6963C5.78923 17.0332 4.95128 15.9411 4.60809 14.6602C4.26491 13.3794 4.44458 12.0146 5.10759 10.8663ZM9.14384 25.1963C7.88374 24.8594 6.80516 24.0435 6.1382 22.9225C5.47125 21.8016 5.26872 20.4644 5.57384 19.1963C5.69259 19.275 5.81259 19.3512 5.93759 19.4225L11.5001 22.64C11.6521 22.7278 11.8246 22.774 12.0001 22.774C12.1756 22.774 12.3481 22.7278 12.5001 22.64L18.0001 19.4638V21.7738L12.9376 24.6963C12.3696 25.0261 11.7419 25.2402 11.0908 25.326C10.4396 25.4118 9.77787 25.3677 9.14384 25.1963ZM22.0001 23C22.0006 23.9778 21.7144 24.9343 21.177 25.7511C20.6395 26.5679 19.8744 27.2092 18.9762 27.5956C18.078 27.9821 17.0862 28.0967 16.1236 27.9253C15.1609 27.7539 14.2697 27.304 13.5601 26.6313C13.6851 26.5675 13.8101 26.5 13.9351 26.4275L19.5001 23.2162C19.652 23.1286 19.7781 23.0025 19.8659 22.8507C19.9536 22.6988 19.9999 22.5266 20.0001 22.3512V16L22.0001 17.155V23ZM26.8926 21.1338C26.2555 22.2449 25.2138 23.0671 23.9851 23.4287C23.9938 23.2862 24.0001 23.1437 24.0001 23V16.5775C24.0001 16.4019 23.9539 16.2294 23.8662 16.0774C23.7784 15.9253 23.6521 15.799 23.5001 15.7113L18.0001 12.5363L20.0001 11.3813L25.0626 14.3038C26.211 14.9668 27.0489 16.0589 27.3921 17.3398C27.7353 18.6206 27.5556 19.9854 26.8926 21.1338Z" fill="#343330"/>
</svg>
