<svg width="32" height="32" viewBox="0 0 32 32" fill="none" xmlns="http://www.w3.org/2000/svg">
<path d="M29 24C29 24.2652 28.8946 24.5196 28.7071 24.7071C28.5196 24.8946 28.2652 25 28 25H20.1175C19.7459 25.0012 19.3814 24.8983 19.0653 24.703C18.7491 24.5077 18.494 24.2278 18.3288 23.895L11.8825 11H4C3.73478 11 3.48043 10.8946 3.29289 10.7071C3.10536 10.5196 3 10.2652 3 9.99999C3 9.73478 3.10536 9.48042 3.29289 9.29289C3.48043 9.10535 3.73478 8.99999 4 8.99999H11.8825C12.2541 8.99881 12.6186 9.10168 12.9347 9.29697C13.2509 9.49227 13.506 9.77217 13.6713 10.105L20.1175 23H28C28.2652 23 28.5196 23.1054 28.7071 23.2929C28.8946 23.4804 29 23.7348 29 24ZM19 11H28C28.2652 11 28.5196 10.8946 28.7071 10.7071C28.8946 10.5196 29 10.2652 29 9.99999C29 9.73478 28.8946 9.48042 28.7071 9.29289C28.5196 9.10535 28.2652 8.99999 28 8.99999H19C18.7348 8.99999 18.4804 9.10535 18.2929 9.29289C18.1054 9.48042 18 9.73478 18 9.99999C18 10.2652 18.1054 10.5196 18.2929 10.7071C18.4804 10.8946 18.7348 11 19 11Z" fill="#343330"/>
</svg>
