<svg width="32" height="32" viewBox="0 0 32 32" fill="none" xmlns="http://www.w3.org/2000/svg">
<path d="M20.7338 9.0725C22.0205 8.39257 23.0975 7.37487 23.8492 6.12876C24.6008 4.88266 24.9987 3.45526 25 2C25 1.73478 24.8947 1.48043 24.7071 1.29289C24.5196 1.10536 24.2653 1 24 1H23C21.5705 1.00054 20.1671 1.38415 18.9361 2.11092C17.705 2.83769 16.6912 3.88107 16 5.1325C15.3089 3.88107 14.2951 2.83769 13.064 2.11092C11.833 1.38415 10.4296 1.00054 9.00004 1H8.00004C7.73482 1 7.48047 1.10536 7.29293 1.29289C7.1054 1.48043 7.00004 1.73478 7.00004 2C7.00004 2.26522 7.1054 2.51957 7.29293 2.70711C7.48047 2.89464 7.73482 3 8.00004 3H9.00004C10.4266 3.00196 11.806 3.51129 12.8914 4.43693C13.9769 5.36257 14.6978 6.64415 14.925 8.0525C12.2781 8.31158 9.81463 9.5209 7.99072 11.4566C6.1668 13.3923 5.10596 15.9232 5.00458 18.5809C4.9032 21.2385 5.76814 23.843 7.43929 25.912C9.11043 27.981 11.4746 29.3744 14.0941 29.8344C16.7137 30.2944 19.4111 29.7897 21.6872 28.4138C23.9632 27.038 25.6637 24.884 26.4739 22.3508C27.284 19.8176 27.1489 17.0766 26.0935 14.6354C25.0382 12.1941 23.1341 10.2179 20.7338 9.0725ZM22.9163 3C22.6804 4.38309 21.9682 5.64011 20.903 6.55328C19.8378 7.46645 18.4867 7.97825 17.0838 8C17.3197 6.61691 18.0319 5.35989 19.0971 4.44672C20.1623 3.53355 21.5134 3.02175 22.9163 3ZM16 28C14.22 28 12.48 27.4722 10.9999 26.4832C9.51987 25.4943 8.36631 24.0887 7.68512 22.4442C7.00394 20.7996 6.82571 18.99 7.17297 17.2442C7.52024 15.4984 8.37741 13.8947 9.63608 12.636C10.8948 11.3774 12.4984 10.5202 14.2442 10.1729C15.9901 9.82567 17.7997 10.0039 19.4442 10.6851C21.0887 11.3663 22.4943 12.5198 23.4833 13.9999C24.4722 15.4799 25 17.22 25 19C24.9974 21.3861 24.0483 23.6738 22.3611 25.361C20.6738 27.0483 18.3862 27.9974 16 28ZM22.9863 20.165C22.7291 21.6147 22.0328 22.9505 20.9917 23.9916C19.9505 25.0327 18.6148 25.729 17.165 25.9862C17.1105 25.9951 17.0553 25.9997 17 26C16.7493 25.9996 16.5079 25.9051 16.3236 25.7351C16.1392 25.5651 16.0255 25.3321 16.0049 25.0822C15.9843 24.8323 16.0583 24.5838 16.2123 24.3859C16.3663 24.188 16.589 24.0552 16.8363 24.0138C17.8769 23.8289 18.8356 23.329 19.5829 22.5816C20.3303 21.8343 20.8301 20.8756 21.015 19.835C21.0609 19.5754 21.2075 19.3445 21.4228 19.1924C21.6381 19.0403 21.9048 18.9794 22.1648 19.0229C22.4248 19.0663 22.6571 19.2107 22.8112 19.4246C22.9652 19.6385 23.0286 19.9046 22.9875 20.165H22.9863Z" fill="#343330"/>
</svg>
