<svg width="32" height="32" viewBox="0 0 32 32" fill="none" xmlns="http://www.w3.org/2000/svg">
<path d="M26 4H6C5.46957 4 4.96086 4.21071 4.58579 4.58579C4.21071 4.96086 4 5.46957 4 6V26C4 26.5304 4.21071 27.0391 4.58579 27.4142C4.96086 27.7893 5.46957 28 6 28H26C26.5304 28 27.0391 27.7893 27.4142 27.4142C27.7893 27.0391 28 26.5304 28 26V6C28 5.46957 27.7893 4.96086 27.4142 4.58579C27.0391 4.21071 26.5304 4 26 4ZM26 26H6V6H26V26ZM9 9.5C9 9.20333 9.08797 8.91332 9.2528 8.66665C9.41762 8.41997 9.65189 8.22771 9.92597 8.11418C10.2001 8.00065 10.5017 7.97094 10.7926 8.02882C11.0836 8.0867 11.3509 8.22956 11.5607 8.43934C11.7704 8.64912 11.9133 8.91639 11.9712 9.20736C12.0291 9.49834 11.9994 9.79994 11.8858 10.074C11.7723 10.3481 11.58 10.5824 11.3334 10.7472C11.0867 10.912 10.7967 11 10.5 11C10.1022 11 9.72064 10.842 9.43934 10.5607C9.15804 10.2794 9 9.89782 9 9.5ZM14.5 9.5C14.5 9.20333 14.588 8.91332 14.7528 8.66665C14.9176 8.41997 15.1519 8.22771 15.426 8.11418C15.7001 8.00065 16.0017 7.97094 16.2926 8.02882C16.5836 8.0867 16.8509 8.22956 17.0607 8.43934C17.2704 8.64912 17.4133 8.91639 17.4712 9.20736C17.5291 9.49834 17.4993 9.79994 17.3858 10.074C17.2723 10.3481 17.08 10.5824 16.8334 10.7472C16.5867 10.912 16.2967 11 16 11C15.6022 11 15.2206 10.842 14.9393 10.5607C14.658 10.2794 14.5 9.89782 14.5 9.5ZM20 9.5C20 9.20333 20.088 8.91332 20.2528 8.66665C20.4176 8.41997 20.6519 8.22771 20.926 8.11418C21.2001 8.00065 21.5017 7.97094 21.7926 8.02882C22.0836 8.0867 22.3509 8.22956 22.5607 8.43934C22.7704 8.64912 22.9133 8.91639 22.9712 9.20736C23.0291 9.49834 22.9993 9.79994 22.8858 10.074C22.7723 10.3481 22.58 10.5824 22.3334 10.7472C22.0867 10.912 21.7967 11 21.5 11C21.1022 11 20.7206 10.842 20.4393 10.5607C20.158 10.2794 20 9.89782 20 9.5ZM23 13H9C8.73478 13 8.48043 13.1054 8.29289 13.2929C8.10536 13.4804 8 13.7348 8 14V23C8 23.2652 8.10536 23.5196 8.29289 23.7071C8.48043 23.8946 8.73478 24 9 24H23C23.2652 24 23.5196 23.8946 23.7071 23.7071C23.8946 23.5196 24 23.2652 24 23V14C24 13.7348 23.8946 13.4804 23.7071 13.2929C23.5196 13.1054 23.2652 13 23 13ZM22 22H10V15H22V22Z" fill="#343330"/>
</svg>
