<svg width="32" height="32" viewBox="0 0 32 32" fill="none" xmlns="http://www.w3.org/2000/svg">
<path d="M27.96 8.26874L16.96 2.24999C16.6661 2.08759 16.3358 2.00241 16 2.00241C15.6642 2.00241 15.3339 2.08759 15.04 2.24999L4.04 8.27124C3.72586 8.44312 3.46363 8.69619 3.28069 9.00402C3.09775 9.31185 3.00081 9.66316 3 10.0212V21.9762C3.00081 22.3343 3.09775 22.6856 3.28069 22.9935C3.46363 23.3013 3.72586 23.5544 4.04 23.7262L15.04 29.7475C15.3339 29.9099 15.6642 29.9951 16 29.9951C16.3358 29.9951 16.6661 29.9099 16.96 29.7475L27.96 23.7262C28.2741 23.5544 28.5364 23.3013 28.7193 22.9935C28.9023 22.6856 28.9992 22.3343 29 21.9762V10.0225C28.9999 9.66377 28.9032 9.31169 28.7203 9.00314C28.5373 8.69459 28.2747 8.44093 27.96 8.26874ZM16 3.99999L26.0425 9.49999L22.3213 11.5375L12.2775 6.03749L16 3.99999ZM16 15L5.9575 9.49999L10.195 7.17999L20.2375 12.68L16 15ZM5 11.25L15 16.7225V27.4462L5 21.9775V11.25ZM27 21.9725L17 27.4462V16.7275L21 14.5387V19C21 19.2652 21.1054 19.5196 21.2929 19.7071C21.4804 19.8946 21.7348 20 22 20C22.2652 20 22.5196 19.8946 22.7071 19.7071C22.8946 19.5196 23 19.2652 23 19V13.4437L27 11.25V21.9712V21.9725Z" fill="#343330"/>
</svg>
