<svg width="32" height="32" viewBox="0 0 32 32" fill="none" xmlns="http://www.w3.org/2000/svg">
<path d="M28.83 3.17C28.4585 2.79847 28.0175 2.50375 27.5322 2.30268C27.0468 2.1016 26.5266 1.99811 26.0012 1.99811C25.4759 1.99811 24.9556 2.1016 24.4703 2.30268C23.9849 2.50375 23.5439 2.79847 23.1725 3.17C23.155 3.1875 23.1375 3.20625 23.12 3.22625L16.4437 11.0275L15.125 9.705C14.8464 9.42626 14.5156 9.20514 14.1515 9.05428C13.7874 8.90342 13.3972 8.82577 13.0031 8.82577C12.609 8.82577 12.2188 8.90342 11.8547 9.05428C11.4906 9.20514 11.1598 9.42626 10.8812 9.705L1.29498 19.2925C1.10759 19.48 1.00232 19.7343 1.00232 19.9994C1.00232 20.2645 1.10759 20.5187 1.29498 20.7063L11.295 30.7063C11.4825 30.8936 11.7368 30.9989 12.0019 30.9989C12.267 30.9989 12.5212 30.8936 12.7087 30.7063L22.295 21.125C22.5737 20.8464 22.7948 20.5156 22.9457 20.1515C23.0966 19.7875 23.1742 19.3972 23.1742 19.0031C23.1742 18.609 23.0966 18.2188 22.9457 17.8547C22.7948 17.4906 22.5737 17.1599 22.295 16.8813L20.9725 15.56L28.7737 8.875C28.7925 8.8575 28.8125 8.84 28.83 8.82125C29.5784 8.07134 29.9988 7.05512 29.9988 5.99563C29.9988 4.93614 29.5784 3.91992 28.83 3.17ZM12 28.5863L9.91498 26.5L12.7075 23.7063C12.8871 23.5172 12.9858 23.2654 12.9824 23.0047C12.9791 22.7439 12.874 22.4948 12.6896 22.3104C12.5052 22.126 12.2561 22.0209 11.9953 22.0176C11.7345 22.0142 11.4828 22.1129 11.2937 22.2925L8.49998 25.085L6.91498 23.5L9.70748 20.7063C9.8871 20.5172 9.98576 20.2654 9.98242 20.0047C9.97908 19.7439 9.87401 19.4948 9.68961 19.3104C9.50521 19.126 9.25607 19.0209 8.99531 19.0176C8.73454 19.0142 8.48279 19.1129 8.29373 19.2925L5.49998 22.085L3.41373 20L8.99998 14.4138L17.5862 23L12 28.5863ZM27.44 7.3875L18.8512 14.7388C18.7464 14.8283 18.6612 14.9387 18.601 15.0628C18.5408 15.1869 18.5069 15.3221 18.5015 15.4599C18.4961 15.5978 18.5193 15.7352 18.5696 15.8636C18.6199 15.9921 18.6962 16.1087 18.7937 16.2063L20.875 18.2925C21.0624 18.48 21.1676 18.7343 21.1676 18.9994C21.1676 19.2645 21.0624 19.5187 20.875 19.7063L19 21.5813L10.415 13L12.29 11.125C12.4775 10.9376 12.7318 10.8323 12.9969 10.8323C13.262 10.8323 13.5162 10.9376 13.7037 11.125L15.79 13.2113C15.8875 13.3088 16.0042 13.3851 16.1326 13.4354C16.261 13.4857 16.3985 13.5088 16.5363 13.5034C16.6741 13.498 16.8094 13.4642 16.9335 13.404C17.0576 13.3438 17.1679 13.2586 17.2575 13.1538L24.6125 4.56C24.9906 4.20076 25.4941 4.00345 26.0156 4.01012C26.5372 4.0168 27.0354 4.22694 27.4042 4.59575C27.773 4.96455 27.9832 5.46283 27.9899 5.98436C27.9965 6.50588 27.7992 7.00938 27.44 7.3875Z" fill="#343330"/>
</svg>
