<svg width="32" height="32" viewBox="0 0 32 32" fill="none" xmlns="http://www.w3.org/2000/svg">
<path d="M29.3163 17.3837C29.4778 17.3298 29.623 17.2355 29.7379 17.1098C29.8528 16.984 29.9337 16.831 29.9729 16.6652C30.0121 16.4994 30.0083 16.3264 29.9618 16.1625C29.9154 15.9986 29.8278 15.8493 29.7075 15.7287L15.2713 1.29248C15.0837 1.10508 14.8295 0.999817 14.5644 0.999817C14.2993 0.999817 14.045 1.10508 13.8575 1.29248L8.78126 6.37498L5.70626 3.29248C5.51862 3.105 5.26419 2.99975 4.99894 2.99986C4.73369 2.99998 4.47936 3.10546 4.29188 3.2931C4.10441 3.48074 3.99915 3.73517 3.99927 4.00042C3.99939 4.26567 4.10487 4.52 4.29251 4.70748L7.36751 7.78248L1.87501 13.2712C1.31244 13.8338 0.996399 14.5969 0.996399 15.3925C0.996399 16.1881 1.31244 16.9511 1.87501 17.5137L12.4863 28.125C13.0489 28.6875 13.8119 29.0036 14.6075 29.0036C15.4031 29.0036 16.1662 28.6875 16.7288 28.125L26.54 18.3137L29.3163 17.3837ZM25.2925 16.7287L15.3138 26.7075C15.1262 26.8949 14.872 27.0001 14.6069 27.0001C14.3418 27.0001 14.0875 26.8949 13.9 26.7075L3.29251 16.1C3.10511 15.9125 2.99985 15.6582 2.99985 15.3931C2.99985 15.128 3.10511 14.8737 3.29251 14.6862L8.78126 9.19623L12.4213 12.8362C12.0218 13.5759 11.9019 14.4347 12.0835 15.2556C12.2652 16.0764 12.7362 16.8045 13.4105 17.3066C14.0848 17.8087 14.9173 18.0513 15.7557 17.9901C16.5942 17.9289 17.3826 17.5679 17.9768 16.9731C18.571 16.3784 18.9313 15.5897 18.9918 14.7512C19.0523 13.9126 18.8089 13.0804 18.3062 12.4065C17.8035 11.7327 17.0751 11.2623 16.2541 11.0814C15.4331 10.9005 14.5744 11.0211 13.835 11.4212L10.1963 7.78248L14.5713 3.41373L27.1488 16L25.6838 16.4875C25.5366 16.5368 25.4027 16.6193 25.2925 16.7287ZM14.4388 13.44C14.7209 13.1034 15.1251 12.8926 15.5625 12.8538C16 12.815 16.435 12.9514 16.7719 13.2331C17.1089 13.5147 17.3203 13.9186 17.3598 14.356C17.3992 14.7934 17.2634 15.2286 16.9823 15.5659C16.7011 15.9033 16.2976 16.1153 15.8602 16.1554C15.4229 16.1955 14.9875 16.0604 14.6497 15.7797C14.3119 15.4991 14.0993 15.0958 14.0586 14.6585C14.0179 14.2213 14.1524 13.7857 14.4325 13.4475C14.4325 13.4475 14.4388 13.4412 14.4388 13.44ZM29.8325 20.44C29.7412 20.3028 29.6175 20.1903 29.4722 20.1125C29.327 20.0347 29.1648 19.994 29 19.994C28.8352 19.994 28.673 20.0347 28.5278 20.1125C28.3826 20.1903 28.2588 20.3028 28.1675 20.44C27.9463 20.7787 26 23.7612 26 26C26 26.7956 26.3161 27.5587 26.8787 28.1213C27.4413 28.6839 28.2044 29 29 29C29.7957 29 30.5587 28.6839 31.1213 28.1213C31.6839 27.5587 32 26.7956 32 26C32 23.7612 30.0538 20.7787 29.8325 20.445V20.44ZM29 27C28.7348 27 28.4804 26.8946 28.2929 26.7071C28.1054 26.5196 28 26.2652 28 26C28 25.15 28.5 23.96 29 22.99C29.5 23.96 30 25.1575 30 26C30 26.2652 29.8947 26.5196 29.7071 26.7071C29.5196 26.8946 29.2652 27 29 27Z" fill="#343330"/>
</svg>
