<svg width="32" height="32" viewBox="0 0 32 32" fill="none" xmlns="http://www.w3.org/2000/svg">
<path d="M30.2188 6.415C29.9763 6.22743 29.6937 6.09857 29.3931 6.03849C29.0926 5.97842 28.7822 5.98878 28.4862 6.06875L28.0513 6.18625C25.7013 6.82 21.3263 8 16 8C10.6737 8 6.29875 6.82 3.94875 6.18625L3.51375 6.06875C3.21773 5.99007 2.90759 5.98043 2.60726 6.04057C2.30693 6.10072 2.02442 6.22905 1.78153 6.41565C1.53864 6.60226 1.34186 6.84216 1.20635 7.11686C1.07085 7.39155 1.00025 7.6937 1 8V24C1 24.5304 1.21071 25.0391 1.58579 25.4142C1.96086 25.7893 2.46957 26 3 26C3.17642 25.9999 3.35207 25.9768 3.5225 25.9312L3.92 25.8237C6.26625 25.1862 10.6462 24 16 24C21.3538 24 25.7337 25.1862 28.0863 25.8237L28.4837 25.9312C28.7799 26.0104 29.0903 26.0204 29.391 25.9604C29.6917 25.9005 29.9745 25.7722 30.2177 25.5856C30.4609 25.3989 30.6579 25.1589 30.7936 24.8839C30.9292 24.609 30.9999 24.3066 31 24V8C31.0008 7.69345 30.9307 7.39086 30.7952 7.1159C30.6597 6.84093 30.4624 6.60105 30.2188 6.415ZM3.4275 8.11625C5.8675 8.775 10.4088 10 16 10C21.5912 10 26.1325 8.775 28.5725 8.11625L29 8V22.845L21.7412 15.5862C21.5555 15.4005 21.335 15.2531 21.0923 15.1526C20.8497 15.052 20.5896 15.0003 20.3269 15.0003C20.0642 15.0003 19.8041 15.052 19.5614 15.1526C19.3187 15.2531 19.0982 15.4005 18.9125 15.5862L16.4125 18.0862L10.9125 12.5862C10.5375 12.2115 10.029 12.0009 9.49875 12.0009C8.96854 12.0009 8.46003 12.2115 8.085 12.5862L3 17.6712V8L3.4275 8.11625ZM26.73 23.4012C24.7143 22.8965 22.6685 22.5207 20.605 22.2762L17.8288 19.5L20.3288 17L26.73 23.4012ZM3.39125 23.8925L3 24V20.5L9.5 14L17.5312 22.0312C17.0312 22.0112 16.5208 22.0008 16 22C10.375 22 5.66 23.2787 3.39125 23.8925ZM24 13.5C24 13.2033 24.088 12.9133 24.2528 12.6666C24.4176 12.42 24.6519 12.2277 24.926 12.1142C25.2001 12.0006 25.5017 11.9709 25.7926 12.0288C26.0836 12.0867 26.3509 12.2296 26.5607 12.4393C26.7704 12.6491 26.9133 12.9164 26.9712 13.2074C27.0291 13.4983 26.9993 13.7999 26.8858 14.074C26.7723 14.3481 26.58 14.5824 26.3334 14.7472C26.0867 14.912 25.7967 15 25.5 15C25.1022 15 24.7206 14.842 24.4393 14.5607C24.158 14.2794 24 13.8978 24 13.5Z" fill="#343330"/>
</svg>
