<svg width="32" height="32" viewBox="0 0 32 32" fill="none" xmlns="http://www.w3.org/2000/svg">
<path d="M26.2075 15.2925C26.3005 15.3854 26.3743 15.4957 26.4246 15.6171C26.4749 15.7384 26.5008 15.8686 26.5008 16C26.5008 16.1314 26.4749 16.2615 26.4246 16.3829C26.3743 16.5043 26.3005 16.6146 26.2075 16.7075L15.9513 26.9575C14.6383 28.2703 12.8576 29.0078 11.0008 29.0077C9.14412 29.0075 7.36348 28.2699 6.05066 26.9569C4.73784 25.6439 4.00037 23.8632 4.00049 22.0064C4.00061 20.1497 4.7383 18.3691 6.05129 17.0562L18.4588 4.46624C19.3962 3.52787 20.6679 3.00031 21.9943 2.9996C23.3206 2.9989 24.5929 3.52512 25.5313 4.46249C26.4697 5.39987 26.9972 6.67161 26.9979 7.99796C26.9986 9.32432 26.4724 10.5966 25.535 11.535L13.125 24.125C12.5615 24.6886 11.7971 25.0052 11 25.0052C10.203 25.0052 9.43862 24.6886 8.87504 24.125C8.31145 23.5614 7.99483 22.797 7.99483 22C7.99483 21.203 8.31145 20.4386 8.87504 19.875L19.2875 9.29749C19.3787 9.20019 19.4885 9.12211 19.6103 9.06786C19.7322 9.01361 19.8636 8.98428 19.997 8.9816C20.1303 8.97892 20.2629 9.00293 20.3868 9.05224C20.5107 9.10154 20.6235 9.17513 20.7186 9.26869C20.8136 9.36224 20.889 9.47386 20.9403 9.59698C20.9915 9.72011 21.0177 9.85224 21.0171 9.98561C21.0165 10.119 20.9893 10.2509 20.937 10.3736C20.8847 10.4963 20.8084 10.6072 20.7125 10.7L10.2988 21.2887C10.2055 21.3812 10.1314 21.4912 10.0807 21.6123C10.03 21.7335 10.0036 21.8634 10.003 21.9948C10.0025 22.1261 10.0279 22.2563 10.0777 22.3778C10.1274 22.4993 10.2007 22.6099 10.2932 22.7031C10.3857 22.7964 10.4956 22.8705 10.6168 22.9212C10.7379 22.9719 10.8678 22.9983 10.9992 22.9989C11.1305 22.9994 11.2607 22.974 11.3822 22.9242C11.5038 22.8745 11.6143 22.8012 11.7075 22.7087L24.1163 10.125C24.6799 9.56257 24.997 8.79929 24.9978 8.00309C24.9986 7.20688 24.6831 6.44295 24.1207 5.87937C23.5582 5.31578 22.795 4.9987 21.9988 4.99788C21.2025 4.99706 20.4386 5.31257 19.875 5.87499L7.47004 18.46C7.00532 18.924 6.63654 19.4749 6.38476 20.0814C6.13297 20.6879 6.00311 21.3381 6.00259 21.9948C6.00207 22.6514 6.1309 23.3018 6.38171 23.9087C6.63253 24.5156 7.00044 25.0672 7.46441 25.5319C7.92839 25.9966 8.47935 26.3654 9.08585 26.6171C9.69235 26.8689 10.3425 26.9988 10.9992 26.9993C11.6559 26.9998 12.3062 26.871 12.9131 26.6202C13.52 26.3694 14.0716 26.0015 14.5363 25.5375L24.7938 15.2875C24.982 15.1008 25.2366 14.9964 25.5017 14.9973C25.7668 14.9983 26.0207 15.1044 26.2075 15.2925Z" fill="#343330"/>
</svg>
