<svg width="32" height="32" viewBox="0 0 32 32" fill="none" xmlns="http://www.w3.org/2000/svg">
<path d="M29.7375 25.0125L17.7313 4.02248C17.5573 3.71319 17.3041 3.45577 16.9978 3.27662C16.6915 3.09747 16.343 3.00305 15.9882 3.00305C15.6333 3.00305 15.2848 3.09747 14.9785 3.27662C14.6722 3.45577 14.419 3.71319 14.245 4.02248L2.25878 25.0225C2.06004 25.377 1.974 25.7836 2.01211 26.1881C2.05023 26.5927 2.21069 26.9761 2.47212 27.2872C2.73356 27.5984 3.08357 27.8224 3.47555 27.9297C3.86753 28.0369 4.28287 28.0222 4.66628 27.8875L16 24.0562L27.3338 27.885C27.5479 27.9603 27.7731 27.9992 28 28C28.3493 27.9988 28.6922 27.9062 28.9946 27.7313C29.2969 27.5565 29.5482 27.3055 29.7234 27.0033C29.8987 26.7012 29.9917 26.3584 29.9933 26.0091C29.9949 25.6598 29.905 25.3162 29.7325 25.0125H29.7375ZM27.9813 25.9925L17 22.2825V15C17 14.7348 16.8947 14.4804 16.7071 14.2929C16.5196 14.1053 16.2652 14 16 14C15.7348 14 15.4805 14.1053 15.2929 14.2929C15.1054 14.4804 15 14.7348 15 15V22.2825L4.02003 25.9925L4.00003 26L15.9825 4.99998L28 26L27.9813 25.9925Z" fill="#343330"/>
</svg>
