<svg width="32" height="32" viewBox="0 0 32 32" fill="none" xmlns="http://www.w3.org/2000/svg">
<path d="M28.415 3.58503C28.1635 3.33369 27.8496 3.15395 27.5055 3.0643C27.1614 2.97466 26.7997 2.97836 26.4575 3.07503H26.4388L2.44627 10.355C2.05676 10.4673 1.71056 10.6952 1.45354 11.0087C1.19652 11.3222 1.04082 11.7063 1.00707 12.1103C0.973316 12.5142 1.06311 12.9189 1.26454 13.2707C1.46598 13.6224 1.76954 13.9047 2.13502 14.08L12.75 19.25L17.9125 29.8588C18.0731 30.2014 18.3284 30.491 18.6482 30.6932C18.9681 30.8954 19.3391 31.0019 19.7175 31C19.775 31 19.8325 30.9975 19.89 30.9925C20.2936 30.9598 20.6776 30.8045 20.9904 30.5473C21.3032 30.2902 21.5299 29.9435 21.64 29.5538L28.915 5.56128C28.915 5.55503 28.915 5.54878 28.915 5.54253C29.0129 5.20123 29.0182 4.84002 28.9304 4.496C28.8425 4.15198 28.6646 3.83756 28.415 3.58503ZM19.7288 28.9813L19.7225 28.9988V28.99L14.715 18.7025L20.715 12.7025C20.8946 12.5135 20.9933 12.2617 20.99 12.001C20.9866 11.7402 20.8815 11.491 20.6971 11.3066C20.5127 11.1222 20.2636 11.0172 20.0028 11.0138C19.7421 11.0105 19.4903 11.1092 19.3013 11.2888L13.3013 17.2888L3.01002 12.2813H3.00127H3.01877L27 5.00003L19.7288 28.9813Z" fill="#343330"/>
</svg>
