<svg width="32" height="32" viewBox="0 0 32 32" fill="none" xmlns="http://www.w3.org/2000/svg">
<path d="M29 24H25V21H28C28.152 21 28.3019 20.9653 28.4385 20.8987C28.575 20.832 28.6946 20.7351 28.7881 20.6154C28.8816 20.4956 28.9466 20.3561 28.9781 20.2074C29.0096 20.0588 29.0068 19.9049 28.97 19.7575L24.97 3.75751C24.9158 3.54128 24.7909 3.34936 24.6152 3.21222C24.4394 3.07509 24.2229 3.00061 24 3.00061C23.7771 3.00061 23.5606 3.07509 23.3848 3.21222C23.2091 3.34936 23.0842 3.54128 23.03 3.75751L19.03 19.7575C18.9932 19.9049 18.9904 20.0588 19.0219 20.2074C19.0534 20.3561 19.1184 20.4956 19.2119 20.6154C19.3054 20.7351 19.425 20.832 19.5615 20.8987C19.6981 20.9653 19.848 21 20 21H23V24H15V22H16C16.2652 22 16.5196 21.8946 16.7071 21.7071C16.8946 21.5196 17 21.2652 17 21C17 20.7348 16.8946 20.4804 16.7071 20.2929C16.5196 20.1054 16.2652 20 16 20H15V18H16C16.2652 18 16.5196 17.8946 16.7071 17.7071C16.8946 17.5196 17 17.2652 17 17C17 16.7348 16.8946 16.4804 16.7071 16.2929C16.5196 16.1054 16.2652 16 16 16H5C4.73478 16 4.48043 16.1054 4.29289 16.2929C4.10536 16.4804 4 16.7348 4 17C4 17.2652 4.10536 17.5196 4.29289 17.7071C4.48043 17.8946 4.73478 18 5 18H6V20H5C4.73478 20 4.48043 20.1054 4.29289 20.2929C4.10536 20.4804 4 20.7348 4 21C4 21.2652 4.10536 21.5196 4.29289 21.7071C4.48043 21.8946 4.73478 22 5 22H6V24H3C2.73478 24 2.48043 24.1054 2.29289 24.2929C2.10536 24.4804 2 24.7348 2 25C2 25.2652 2.10536 25.5196 2.29289 25.7071C2.48043 25.8946 2.73478 26 3 26H29C29.2652 26 29.5196 25.8946 29.7071 25.7071C29.8946 25.5196 30 25.2652 30 25C30 24.7348 29.8946 24.4804 29.7071 24.2929C29.5196 24.1054 29.2652 24 29 24ZM24 8.12501L26.7188 19H21.2812L24 8.12501ZM8 18H13V20H8V18ZM8 22H13V24H8V22ZM14.5 12C15.1922 12 15.8689 11.7947 16.4445 11.4101C17.0201 11.0256 17.4687 10.4789 17.7336 9.8394C17.9985 9.19986 18.0678 8.49612 17.9327 7.81719C17.7977 7.13826 17.4644 6.51462 16.9749 6.02513C16.4854 5.53565 15.8617 5.20231 15.1828 5.06726C14.5039 4.93221 13.8001 5.00152 13.1606 5.26643C12.5211 5.53133 11.9744 5.97994 11.5899 6.55551C11.2053 7.13108 11 7.80777 11 8.50001C11 9.42826 11.3687 10.3185 12.0251 10.9749C12.6815 11.6313 13.5717 12 14.5 12ZM14.5 7.00001C14.7967 7.00001 15.0867 7.08798 15.3334 7.2528C15.58 7.41762 15.7723 7.65189 15.8858 7.92598C15.9994 8.20007 16.0291 8.50167 15.9712 8.79264C15.9133 9.08361 15.7704 9.35089 15.5607 9.56067C15.3509 9.77044 15.0836 9.91331 14.7926 9.97118C14.5017 10.0291 14.2001 9.99936 13.926 9.88583C13.6519 9.77229 13.4176 9.58003 13.2528 9.33336C13.088 9.08669 13 8.79668 13 8.50001C13 8.10218 13.158 7.72065 13.4393 7.43935C13.7206 7.15804 14.1022 7.00001 14.5 7.00001Z" fill="#343330"/>
</svg>
