<svg width="32" height="32" viewBox="0 0 32 32" fill="none" xmlns="http://www.w3.org/2000/svg">
<path d="M23.4212 4C21.0725 3.04 18.2787 2.76 15.555 3.2125C12.625 3.7 10.0887 4.9625 8.21999 6.8625C6.82999 8.2775 5.14249 11.0313 5.00749 16.1125C4.91999 19.4238 5.55624 23.0425 6.70874 25.7938C7.86124 28.545 9.32624 30 10.94 30C13.8075 30 15.0937 27.49 16.3362 25.0625C17.2112 23.3625 18.1062 21.605 19.53 20.64C20.2625 20.14 21.255 19.765 22.3062 19.355C25.2887 18.205 29 16.7725 29 11.6463C29 8.2375 26.9662 5.45 23.4212 4ZM21.5862 17.4888C20.4262 17.9363 19.33 18.3638 18.4075 18.9888C16.56 20.2388 15.495 22.3213 14.5562 24.155C13.3337 26.5375 12.5062 28 10.94 28C10.375 28 9.41749 27.0788 8.55374 25.0188C7.50499 22.5188 6.92874 19.2075 7.00749 16.165C7.09874 12.7075 8.03624 9.90125 9.64624 8.26375C11.9037 5.9675 15.0987 5 18.0712 5C19.642 4.98608 21.2008 5.27291 22.6637 5.845C24.2887 6.5075 27 8.1425 27 11.6413C27 15.4013 24.4912 16.375 21.5862 17.4888Z" fill="#343330"/>
</svg>
