<svg width="32" height="32" viewBox="0 0 32 32" fill="none" xmlns="http://www.w3.org/2000/svg">
<path d="M28.415 9.17125L22.8288 3.58625C22.643 3.40049 22.4225 3.25313 22.1799 3.15259C21.9372 3.05205 21.6771 3.00031 21.4144 3.00031C21.1517 3.00031 20.8916 3.05205 20.6489 3.15259C20.4062 3.25313 20.1857 3.40049 20 3.58625L4.58626 19C4.39973 19.185 4.25185 19.4053 4.15121 19.648C4.05057 19.8907 3.99917 20.151 4.00001 20.4138V26C4.00001 26.5304 4.21072 27.0391 4.5858 27.4142C4.96087 27.7893 5.46958 28 6.00001 28H11.5863C11.849 28.0008 12.1093 27.9494 12.352 27.8488C12.5947 27.7482 12.815 27.6003 13 27.4138L23.4588 16.9563L23.8938 18.6938L19.2938 23.2925C19.1061 23.48 19.0006 23.7343 19.0005 23.9996C19.0004 24.2648 19.1057 24.5192 19.2931 24.7069C19.4806 24.8945 19.7349 25 20.0002 25.0001C20.2654 25.0002 20.5199 24.895 20.7075 24.7075L25.7075 19.7075C25.8298 19.5854 25.9184 19.4338 25.9646 19.2673C26.0108 19.1008 26.0131 18.9251 25.9713 18.7575L25.1088 15.3063L28.415 12C28.6008 11.8143 28.7481 11.5938 28.8487 11.3511C28.9492 11.1084 29.001 10.8483 29.001 10.5856C29.001 10.3229 28.9492 10.0628 28.8487 9.82016C28.7481 9.57747 28.6008 9.35698 28.415 9.17125ZM6.00001 22.4138L9.58626 26H6.00001V22.4138ZM12 25.5863L6.41376 20L17 9.41375L22.5863 15L12 25.5863ZM24 13.5863L18.415 8L21.415 5L27 10.5863L24 13.5863Z" fill="#343330"/>
</svg>
