<svg width="32" height="32" viewBox="0 0 32 32" fill="none" xmlns="http://www.w3.org/2000/svg">
<path d="M26 3.99999H20C19.4696 3.99999 18.9609 4.21071 18.5858 4.58578C18.2107 4.96085 18 5.46956 18 5.99999V26C18 26.5304 18.2107 27.0391 18.5858 27.4142C18.9609 27.7893 19.4696 28 20 28H26C26.5304 28 27.0391 27.7893 27.4142 27.4142C27.7893 27.0391 28 26.5304 28 26V5.99999C28 5.46956 27.7893 4.96085 27.4142 4.58578C27.0391 4.21071 26.5304 3.99999 26 3.99999ZM26 26H20V22H23C23.2652 22 23.5196 21.8946 23.7071 21.7071C23.8946 21.5196 24 21.2652 24 21C24 20.7348 23.8946 20.4804 23.7071 20.2929C23.5196 20.1053 23.2652 20 23 20H20V17H23C23.2652 17 23.5196 16.8946 23.7071 16.7071C23.8946 16.5196 24 16.2652 24 16C24 15.7348 23.8946 15.4804 23.7071 15.2929C23.5196 15.1054 23.2652 15 23 15H20V12H23C23.2652 12 23.5196 11.8946 23.7071 11.7071C23.8946 11.5196 24 11.2652 24 11C24 10.7348 23.8946 10.4804 23.7071 10.2929C23.5196 10.1054 23.2652 9.99999 23 9.99999H20V5.99999H26V26ZM9.7075 3.29249C9.61463 3.19952 9.50434 3.12576 9.38294 3.07543C9.26154 3.02511 9.13142 2.99921 9 2.99921C8.86859 2.99921 8.73846 3.02511 8.61706 3.07543C8.49566 3.12576 8.38537 3.19952 8.2925 3.29249L4.2925 7.29249C4.19967 7.38543 4.12605 7.49575 4.07586 7.61714C4.02568 7.73854 3.9999 7.86863 4 7.99999V26C4 26.5304 4.21071 27.0391 4.58579 27.4142C4.96086 27.7893 5.46957 28 6 28H12C12.5304 28 13.0391 27.7893 13.4142 27.4142C13.7893 27.0391 14 26.5304 14 26V7.99999C14.0001 7.86863 13.9743 7.73854 13.9241 7.61714C13.8739 7.49575 13.8003 7.38543 13.7075 7.29249L9.7075 3.29249ZM6 22V9.99999H8V22H6ZM10 9.99999H12V22H10V9.99999ZM9 5.41374L11.5863 7.99999H6.41375L9 5.41374ZM6 26V24H12V26H6Z" fill="#343330"/>
</svg>
