<svg width="32" height="32" viewBox="0 0 32 32" fill="none" xmlns="http://www.w3.org/2000/svg">
<path d="M6.74001 4.3275C6.65219 4.22851 6.5456 4.14793 6.42641 4.09044C6.30722 4.03295 6.17781 3.99968 6.04567 3.99257C5.91353 3.98547 5.78129 4.00465 5.65662 4.04903C5.53195 4.0934 5.41733 4.16208 5.3194 4.25108C5.22147 4.34008 5.14217 4.44763 5.08611 4.5675C5.03005 4.68737 4.99834 4.81717 4.99282 4.94939C4.98729 5.0816 5.00807 5.2136 5.05393 5.33773C5.0998 5.46185 5.16984 5.57565 5.26001 5.6725L11.285 12.2975L4.58501 19C4.39888 19.1853 4.25134 19.4056 4.15092 19.6483C4.05051 19.891 3.99921 20.1511 4.00001 20.4138V26C4.00001 26.5304 4.21072 27.0391 4.5858 27.4142C4.96087 27.7893 5.46958 28 6.00001 28H11.5863C11.849 28.0008 12.1093 27.9494 12.352 27.8488C12.5947 27.7482 12.815 27.6003 13 27.4138L19.3 21.115L25.2613 27.6725C25.3491 27.7715 25.4557 27.8521 25.5749 27.9096C25.694 27.9671 25.8235 28.0003 25.9556 28.0074C26.0877 28.0145 26.22 27.9954 26.3446 27.951C26.4693 27.9066 26.5839 27.8379 26.6819 27.7489C26.7798 27.6599 26.8591 27.5524 26.9152 27.4325C26.9712 27.3126 27.0029 27.1828 27.0085 27.0506C27.014 26.9184 26.9932 26.7864 26.9473 26.6623C26.9015 26.5382 26.8314 26.4244 26.7413 26.3275L6.74001 4.3275ZM11.5863 26H6.00001V20.4138L12.6325 13.7888L17.9525 19.64L11.5863 26ZM28.415 9.17125L22.8288 3.58625C22.643 3.40049 22.4225 3.25313 22.1799 3.15259C21.9372 3.05205 21.6771 3.00031 21.4144 3.00031C21.1517 3.00031 20.8916 3.05205 20.6489 3.15259C20.4062 3.25313 20.1857 3.40049 20 3.58625L14.7913 8.795C14.6984 8.88791 14.6248 8.9982 14.5746 9.11956C14.5244 9.24092 14.4986 9.37098 14.4986 9.50232C14.4988 9.76757 14.6042 10.0219 14.7919 10.2094C14.9795 10.3969 15.234 10.5021 15.4992 10.502C15.7644 10.5019 16.0188 10.3964 16.2063 10.2088L17 9.41375L22.5863 15L21.4613 16.125C21.2733 16.3125 21.1675 16.5669 21.1671 16.8324C21.1668 17.0979 21.2719 17.3527 21.4594 17.5406C21.6469 17.7286 21.9013 17.8344 22.1668 17.8348C22.4323 17.8351 22.687 17.73 22.875 17.5425L28.415 12C28.6008 11.8143 28.7481 11.5938 28.8487 11.3511C28.9492 11.1084 29.001 10.8483 29.001 10.5856C29.001 10.3229 28.9492 10.0628 28.8487 9.82016C28.7481 9.57747 28.6008 9.35698 28.415 9.17125ZM24 13.5863L18.415 8L21.415 5L27 10.5863L24 13.5863Z" fill="#343330"/>
</svg>
