<svg width="32" height="32" viewBox="0 0 32 32" fill="none" xmlns="http://www.w3.org/2000/svg">
<path d="M31 11.585C31.0009 11.3222 30.9495 11.0619 30.8488 10.8192C30.7482 10.5765 30.6003 10.3563 30.4138 10.1712L21.8288 1.58497C21.643 1.39921 21.4225 1.25185 21.1799 1.15131C20.9372 1.05077 20.6771 0.999023 20.4144 0.999023C20.1517 0.999023 19.8916 1.05077 19.6489 1.15131C19.4062 1.25185 19.1857 1.39921 19 1.58497L15.4463 5.13872L8.19627 7.85997C7.86677 7.98285 7.57534 8.19013 7.35114 8.46106C7.12694 8.73199 6.97784 9.05705 6.91877 9.40372L4.01377 26.835C3.9898 26.9783 3.99733 27.1251 4.03586 27.2651C4.07438 27.4052 4.14296 27.5352 4.23683 27.6461C4.3307 27.757 4.4476 27.8461 4.5794 27.9072C4.7112 27.9683 4.85474 28 5.00002 28C5.05529 27.9997 5.11047 27.9951 5.16502 27.9862L22.595 25.0812C22.9413 25.0234 23.2662 24.8755 23.5372 24.6524C23.8082 24.4292 24.0156 24.1387 24.1388 23.81L26.86 16.56L30.4138 13C30.6004 12.8147 30.7483 12.5943 30.849 12.3513C30.9496 12.1084 31.001 11.8479 31 11.585ZM22.2663 23.1087L7.91502 25.5L13.8363 19.5787C14.5758 19.9784 15.4345 20.0986 16.2554 19.9172C17.0763 19.7359 17.8044 19.2651 18.3068 18.591C18.8091 17.917 19.052 17.0846 18.9912 16.2462C18.9303 15.4077 18.5697 14.6192 17.9752 14.0248C17.3808 13.4303 16.5923 13.0697 15.7538 13.0088C14.9154 12.9479 14.083 13.1909 13.4089 13.6932C12.7349 14.1955 12.2641 14.9237 12.0828 15.7446C11.9014 16.5654 12.0216 17.4242 12.4213 18.1637L6.50002 24.0875L8.89127 9.73247L15.75 7.16122L24.8375 16.25L22.2663 23.1087ZM14 16.5C14 16.2033 14.088 15.9133 14.2528 15.6666C14.4176 15.4199 14.6519 15.2277 14.926 15.1142C15.2001 15.0006 15.5017 14.9709 15.7927 15.0288C16.0836 15.0867 16.3509 15.2295 16.5607 15.4393C16.7705 15.6491 16.9133 15.9164 16.9712 16.2073C17.0291 16.4983 16.9994 16.7999 16.8858 17.074C16.7723 17.3481 16.58 17.5824 16.3334 17.7472C16.0867 17.912 15.7967 18 15.5 18C15.1022 18 14.7207 17.8419 14.4394 17.5606C14.1581 17.2793 14 16.8978 14 16.5ZM26 14.585L17.4138 5.99997L20.4138 2.99997L29 11.585L26 14.585Z" fill="#343330"/>
</svg>
