<svg width="32" height="32" viewBox="0 0 32 32" fill="none" xmlns="http://www.w3.org/2000/svg">
<path d="M27.7912 15.4862C27.7837 15.47 27.7762 15.4538 27.7675 15.4388L24 8.7375V4C24 3.46957 23.7893 2.96086 23.4142 2.58579C23.0391 2.21071 22.5304 2 22 2H9.99999C9.46956 2 8.96085 2.21071 8.58578 2.58579C8.21071 2.96086 7.99999 3.46957 7.99999 4V8.74L4.23249 15.4388C4.22374 15.4538 4.21624 15.47 4.20749 15.4862C4.04427 15.8148 3.97494 16.1821 4.00714 16.5476C4.03934 16.913 4.17183 17.2625 4.38999 17.5575L4.40374 17.575L15.2087 31.61C15.3022 31.7311 15.4221 31.8292 15.5594 31.8967C15.6967 31.9642 15.8476 31.9993 16.0006 31.9993C16.1536 31.9993 16.3045 31.9642 16.4418 31.8967C16.5791 31.8292 16.6991 31.7311 16.7925 31.61L27.5962 17.575L27.61 17.5575C27.8282 17.2625 27.9606 16.913 27.9926 16.5474C28.0246 16.1819 27.9549 15.8146 27.7912 15.4862ZM22 4V8H9.99999V4H22ZM16 18C15.7033 18 15.4133 17.912 15.1666 17.7472C14.92 17.5824 14.7277 17.3481 14.6142 17.074C14.5006 16.7999 14.4709 16.4983 14.5288 16.2074C14.5867 15.9164 14.7296 15.6491 14.9393 15.4393C15.1491 15.2296 15.4164 15.0867 15.7074 15.0288C15.9983 14.9709 16.2999 15.0006 16.574 15.1142C16.8481 15.2277 17.0824 15.42 17.2472 15.6666C17.412 15.9133 17.5 16.2033 17.5 16.5C17.5 16.8978 17.342 17.2794 17.0607 17.5607C16.7793 17.842 16.3978 18 16 18ZM17 28.0625V19.8538C17.8057 19.6135 18.4979 19.0914 18.9503 18.3827C19.4026 17.6741 19.5847 16.8263 19.4633 15.9944C19.342 15.1625 18.9252 14.402 18.2893 13.8521C17.6533 13.3023 16.8407 12.9996 16 12.9996C15.1593 12.9996 14.3467 13.3023 13.7107 13.8521C13.0748 14.402 12.658 15.1625 12.5367 15.9944C12.4153 16.8263 12.5974 17.6741 13.0497 18.3827C13.502 19.0914 14.1943 19.6135 15 19.8538V28.0613L5.99999 16.375L9.58624 10H22.415L26 16.375L17 28.0625Z" fill="#343330"/>
</svg>
