<svg width="32" height="32" viewBox="0 0 32 32" fill="none" xmlns="http://www.w3.org/2000/svg">
<path d="M29.8975 11.3813C29.7714 10.9779 29.5188 10.6257 29.1771 10.377C28.8354 10.1282 28.4227 9.99607 28 10H20.375L17.9038 2.40752C17.7792 2.00036 17.5273 1.64386 17.1852 1.39035C16.8431 1.13684 16.4288 0.999664 16.003 0.998965C15.5772 0.998266 15.1623 1.13408 14.8194 1.38646C14.4765 1.63885 14.2235 1.99452 14.0975 2.40127L11.6325 10H4.00003C3.5762 9.99889 3.16296 10.1324 2.81995 10.3814C2.47693 10.6303 2.22187 10.9818 2.09156 11.3851C1.96125 11.7884 1.96244 12.2227 2.09494 12.6253C2.22744 13.0279 2.48441 13.3779 2.82878 13.625L9.01128 18.0725L6.64378 25.375C6.50897 25.7766 6.50731 26.211 6.63905 26.6137C6.77079 27.0163 7.02889 27.3657 7.37503 27.61C7.71426 27.862 8.12559 27.998 8.54815 27.998C8.97071 27.998 9.38205 27.862 9.72128 27.61L16 23.0938L22.2788 27.61C22.6204 27.858 23.0317 27.9915 23.4539 27.9915C23.876 27.9914 24.2873 27.8578 24.6289 27.6098C24.9705 27.3617 25.2248 27.0119 25.3554 26.6105C25.4861 26.2091 25.4864 25.7766 25.3563 25.375L22.9813 18.0675L29.1675 13.6163C29.5136 13.372 29.7716 13.0225 29.9031 12.6198C30.0346 12.2171 30.0327 11.7828 29.8975 11.3813ZM16 3.01877L18.265 10H13.735L16 3.01877ZM4.00003 12H10.9838L9.66253 16.07L4.00003 12ZM8.54253 26L10.7163 19.3013L14.2838 21.8688L8.54253 26ZM11.3638 17.3038L13.0863 12H18.9138L20.6325 17.2975L16 20.625L11.3638 17.3038ZM23.45 26L17.7125 21.875L21.28 19.3075L23.45 26ZM22.3338 16.0775L21.0163 12H28L22.3338 16.0775Z" fill="#343330"/>
</svg>
