<svg width="32" height="32" viewBox="0 0 32 32" fill="none" xmlns="http://www.w3.org/2000/svg">
<path d="M28.195 10.945L17.205 2.40627L17.1825 2.38877C16.8401 2.13601 16.4256 1.99963 16 1.99963C15.5744 1.99963 15.16 2.13601 14.8175 2.38877L14.795 2.40627L3.805 10.945C3.47229 11.193 3.22496 11.5384 3.0973 11.9333C2.96963 12.3281 2.96796 12.7529 3.0925 13.1488L7.0925 26.5913L7.1 26.6125C7.22843 27.0155 7.48177 27.3672 7.82335 27.6166C8.16494 27.8661 8.57704 28.0004 9 28H23C23.4236 28.0012 23.8366 27.8672 24.1789 27.6177C24.5212 27.3682 24.7751 27.0161 24.9038 26.6125L24.9113 26.5913L28.9113 13.1488C29.0354 12.7525 29.0331 12.3275 28.9048 11.9326C28.7765 11.5377 28.5284 11.1925 28.195 10.945ZM26.9925 12.57L23 26H9L5 12.57L4.9925 12.5488L5.015 12.5313L16 4.00002L26.9775 12.5288L27 12.5463L26.9925 12.57Z" fill="#343330"/>
</svg>
