<svg width="32" height="32" viewBox="0 0 32 32" fill="none" xmlns="http://www.w3.org/2000/svg">
<path d="M25.7075 7.70497L7.70749 25.705C7.51985 25.8926 7.26535 25.998 6.99999 25.998C6.73462 25.998 6.48013 25.8926 6.29249 25.705C6.10485 25.5173 5.99943 25.2628 5.99943 24.9975C5.99943 24.7321 6.10485 24.4776 6.29249 24.29L24.2925 6.28997C24.48 6.10233 24.7343 5.99685 24.9995 5.99673C25.2648 5.99661 25.5192 6.10187 25.7069 6.28935C25.8945 6.47682 26 6.73116 26.0001 6.9964C26.0002 7.26165 25.895 7.51608 25.7075 7.70372V7.70497ZM6.31749 12.68C5.4736 11.8359 4.99958 10.6912 4.99969 9.49765C4.99981 8.3041 5.47406 7.15948 6.31811 6.3156C7.16216 5.47171 8.30688 4.99769 9.50043 4.9978C10.694 4.99792 11.8386 5.47217 12.6825 6.31622C13.5264 7.16027 14.0004 8.30499 14.0003 9.49854C14.0002 10.6921 13.5259 11.8367 12.6819 12.6806C11.8378 13.5245 10.6931 13.9985 9.49955 13.9984C8.30599 13.9983 7.16137 13.524 6.31749 12.68ZM6.99999 9.49997C7.00031 9.91103 7.10199 10.3157 7.29602 10.6781C7.49005 11.0404 7.77044 11.3494 8.11237 11.5775C8.45429 11.8057 8.8472 11.946 9.25631 11.9861C9.66541 12.0262 10.0781 11.9647 10.4578 11.8073C10.8375 11.6498 11.1725 11.4011 11.4331 11.0832C11.6938 10.7654 11.872 10.3882 11.9521 9.98497C12.0322 9.58178 12.0116 9.16507 11.8922 8.77174C11.7728 8.37841 11.5582 8.02059 11.2675 7.72997C10.9177 7.3803 10.4721 7.14223 9.98695 7.04589C9.50184 6.94955 8.99905 6.99927 8.5422 7.18875C8.08534 7.37824 7.69496 7.69898 7.42044 8.11038C7.14592 8.52179 6.9996 9.00538 6.99999 9.49997ZM27 22.5C26.9997 23.5411 26.6385 24.5499 25.9779 25.3545C25.3173 26.1591 24.3981 26.7098 23.377 26.9127C22.3558 27.1155 21.2959 26.9581 20.3779 26.4671C19.4598 25.9762 18.7404 25.1821 18.3422 24.2202C17.944 23.2583 17.8916 22.188 18.194 21.1918C18.4964 20.1956 19.1349 19.3351 20.0006 18.7569C20.8663 18.1786 21.9058 17.9185 22.9418 18.0207C23.9779 18.1229 24.9465 18.5812 25.6825 19.3175C26.1017 19.7344 26.4339 20.2304 26.6601 20.7767C26.8862 21.323 27.0018 21.9087 27 22.5ZM25 22.5C25.0001 21.9216 24.7997 21.361 24.4328 20.9139C24.066 20.4667 23.5555 20.1605 22.9882 20.0476C22.4209 19.9346 21.8321 20.0219 21.3219 20.2944C20.8118 20.567 20.4119 21.008 20.1905 21.5423C19.969 22.0766 19.9397 22.6712 20.1075 23.2247C20.2753 23.7782 20.6299 24.2565 21.1107 24.5779C21.5916 24.8993 22.169 25.044 22.7446 24.9874C23.3203 24.9308 23.8584 24.6764 24.2675 24.2675C24.5004 24.0359 24.685 23.7605 24.8108 23.4571C24.9365 23.1537 25.0008 22.8284 25 22.5Z" fill="#343330"/>
</svg>
