<svg width="32" height="32" viewBox="0 0 32 32" fill="none" xmlns="http://www.w3.org/2000/svg">
<path d="M16 10C16.7912 10 17.5645 9.76541 18.2223 9.32588C18.8801 8.88635 19.3928 8.26164 19.6956 7.53074C19.9983 6.79983 20.0775 5.99556 19.9232 5.21964C19.7688 4.44372 19.3879 3.73098 18.8285 3.17157C18.269 2.61216 17.5563 2.2312 16.7804 2.07686C16.0045 1.92252 15.2002 2.00173 14.4693 2.30448C13.7384 2.60723 13.1137 3.11992 12.6742 3.77772C12.2346 4.43552 12 5.20888 12 6C12 7.06087 12.4215 8.07828 13.1716 8.82843C13.9218 9.57857 14.9392 10 16 10ZM16 4C16.3956 4 16.7823 4.1173 17.1112 4.33706C17.4401 4.55683 17.6964 4.86918 17.8478 5.23463C17.9992 5.60009 18.0388 6.00222 17.9616 6.39018C17.8844 6.77814 17.694 7.13451 17.4142 7.41422C17.1345 7.69392 16.7782 7.8844 16.3902 7.96157C16.0023 8.03874 15.6001 7.99914 15.2347 7.84776C14.8692 7.69639 14.5569 7.44004 14.3371 7.11114C14.1173 6.78224 14 6.39556 14 6C14 5.46957 14.2107 4.96086 14.5858 4.58579C14.9609 4.21072 15.4696 4 16 4ZM28.8575 16.515C28.7899 16.628 28.7007 16.7265 28.5949 16.8049C28.4891 16.8833 28.3689 16.94 28.2412 16.9718C28.1134 17.0036 27.9806 17.0099 27.8505 16.9903C27.7203 16.9707 27.5952 16.9256 27.4825 16.8575C27.4388 16.8313 23.0938 14.2838 16.9975 14.0238V18.625L24.7475 27.3413C24.8347 27.4397 24.9016 27.5544 24.9444 27.6788C24.9873 27.8031 25.0052 27.9347 24.9972 28.066C24.9892 28.1973 24.9554 28.3257 24.8978 28.4439C24.8401 28.5621 24.7598 28.6678 24.6613 28.755C24.5628 28.8422 24.4481 28.9091 24.3237 28.9519C24.1994 28.9948 24.0678 29.0127 23.9365 29.0047C23.8053 28.9967 23.6768 28.9629 23.5586 28.9052C23.4404 28.8476 23.3347 28.7672 23.2475 28.6688L16 20.5L8.75003 28.6638C8.66287 28.7622 8.55716 28.8426 8.43894 28.9002C8.32071 28.9579 8.1923 28.9917 8.06102 28.9997C7.92974 29.0077 7.79817 28.9898 7.67382 28.9469C7.54947 28.9041 7.43477 28.8372 7.33628 28.75C7.23779 28.6628 7.15743 28.5571 7.09979 28.4389C7.04216 28.3207 7.00837 28.1923 7.00036 28.061C6.99235 27.9297 7.01028 27.7981 7.05312 27.6738C7.09596 27.5494 7.16287 27.4347 7.25003 27.3363L15 18.625V14.0225C8.87503 14.2825 4.56003 16.83 4.51503 16.8575C4.40238 16.9267 4.27712 16.9729 4.1465 16.9934C4.01589 17.0139 3.88251 17.0082 3.75408 16.9768C3.62565 16.9454 3.50472 16.8889 3.39829 16.8104C3.29186 16.732 3.20204 16.6332 3.13403 16.5199C3.06602 16.4065 3.02117 16.2807 3.00207 16.1499C2.98297 16.0191 2.99 15.8858 3.02276 15.7577C3.05552 15.6296 3.11335 15.5093 3.19291 15.4037C3.27248 15.2981 3.37219 15.2093 3.48628 15.1425C3.70003 15.0138 8.80628 12 16 12C23.1938 12 28.3 15.0138 28.515 15.1425C28.6277 15.2101 28.7259 15.2992 28.8041 15.4048C28.8822 15.5104 28.9388 15.6303 28.9706 15.7578C29.0025 15.8852 29.0088 16.0177 28.9894 16.1476C28.97 16.2776 28.9252 16.4024 28.8575 16.515Z" fill="#343330"/>
</svg>
