<svg width="32" height="32" viewBox="0 0 32 32" fill="none" xmlns="http://www.w3.org/2000/svg">
<path d="M16 10C16.7911 10 17.5645 9.76541 18.2223 9.32588C18.8801 8.88635 19.3928 8.26164 19.6955 7.53074C19.9983 6.79983 20.0775 5.99556 19.9231 5.21964C19.7688 4.44372 19.3878 3.73098 18.8284 3.17157C18.269 2.61216 17.5563 2.2312 16.7804 2.07686C16.0044 1.92252 15.2002 2.00173 14.4693 2.30448C13.7384 2.60723 13.1136 3.11992 12.6741 3.77772C12.2346 4.43552 12 5.20888 12 6C12 7.06087 12.4214 8.07828 13.1716 8.82843C13.9217 9.57857 14.9391 10 16 10ZM16 4C16.3956 4 16.7822 4.1173 17.1111 4.33706C17.44 4.55683 17.6964 4.86918 17.8478 5.23463C17.9991 5.60009 18.0387 6.00222 17.9616 6.39018C17.8844 6.77814 17.6939 7.13451 17.4142 7.41422C17.1345 7.69392 16.7781 7.8844 16.3902 7.96157C16.0022 8.03874 15.6001 7.99914 15.2346 7.84776C14.8692 7.69639 14.5568 7.44004 14.3371 7.11114C14.1173 6.78224 14 6.39556 14 6C14 5.46957 14.2107 4.96086 14.5858 4.58579C14.9609 4.21072 15.4696 4 16 4ZM28 13C28 13.2652 27.8946 13.5196 27.7071 13.7071C27.5196 13.8946 27.2652 14 27 14H17V17.34L23.3937 20.0813C23.5736 20.1583 23.7269 20.2864 23.8347 20.4497C23.9424 20.613 23.9999 20.8043 24 21V27C24 27.2652 23.8946 27.5196 23.7071 27.7071C23.5196 27.8946 23.2652 28 23 28C22.7348 28 22.4804 27.8946 22.2929 27.7071C22.1054 27.5196 22 27.2652 22 27V21.66L16.1938 19.1713L6.66875 27.75C6.4715 27.9274 6.21186 28.0191 5.94697 28.005C5.68207 27.991 5.43361 27.8723 5.25625 27.675C5.07889 27.4777 4.98715 27.2181 5.00121 26.9532C5.01528 26.6883 5.134 26.4399 5.33125 26.2625L15 17.555V14H5C4.73478 14 4.48043 13.8946 4.29289 13.7071C4.10536 13.5196 4 13.2652 4 13C4 12.7348 4.10536 12.4804 4.29289 12.2929C4.48043 12.1054 4.73478 12 5 12H27C27.2652 12 27.5196 12.1054 27.7071 12.2929C27.8946 12.4804 28 12.7348 28 13Z" fill="#343330"/>
</svg>
