<svg width="32" height="32" viewBox="0 0 32 32" fill="none" xmlns="http://www.w3.org/2000/svg">
<path d="M16 11C16.7912 11 17.5645 10.7654 18.2223 10.3259C18.8801 9.88635 19.3928 9.26164 19.6956 8.53074C19.9983 7.79983 20.0775 6.99556 19.9232 6.21964C19.7688 5.44372 19.3879 4.73098 18.8285 4.17157C18.2691 3.61216 17.5563 3.2312 16.7804 3.07686C16.0045 2.92252 15.2002 3.00173 14.4693 3.30448C13.7384 3.60723 13.1137 4.11992 12.6742 4.77772C12.2346 5.43552 12 6.20888 12 7C12 8.06087 12.4215 9.07828 13.1716 9.82843C13.9218 10.5786 14.9392 11 16 11ZM16 5C16.3956 5 16.7823 5.1173 17.1112 5.33706C17.4401 5.55683 17.6964 5.86918 17.8478 6.23463C17.9992 6.60009 18.0388 7.00222 17.9616 7.39018C17.8844 7.77814 17.694 8.13451 17.4143 8.41422C17.1346 8.69392 16.7782 8.8844 16.3902 8.96157C16.0023 9.03874 15.6001 8.99914 15.2347 8.84776C14.8692 8.69639 14.5569 8.44004 14.3371 8.11114C14.1173 7.78224 14 7.39556 14 7C14 6.46957 14.2108 5.96086 14.5858 5.58579C14.9609 5.21072 15.4696 5 16 5ZM6.00004 12C6.00004 11.6044 6.11734 11.2178 6.3371 10.8889C6.55687 10.56 6.86922 10.3036 7.23468 10.1522C7.60013 10.0009 8.00226 9.96126 8.39022 10.0384C8.77819 10.1156 9.13455 10.3061 9.41426 10.5858C9.69396 10.8655 9.88444 11.2219 9.96161 11.6098C10.0388 11.9978 9.99918 12.3999 9.8478 12.7654C9.69643 13.1308 9.44008 13.4432 9.11118 13.6629C8.78228 13.8827 8.39561 14 8.00004 14C7.46961 14 6.9609 13.7893 6.58583 13.4142C6.21076 13.0391 6.00004 12.5304 6.00004 12ZM27.78 13.8263C27.6146 14.0334 27.3736 14.1663 27.1101 14.1959C26.8467 14.2254 26.5823 14.1491 26.375 13.9838C26.2313 13.8725 23.4113 11.7713 18.96 14.06C18.925 15.3319 18.7997 16.5996 18.585 17.8538L22.6388 21.2288C22.7935 21.3575 22.9057 21.53 22.9608 21.7236C23.0158 21.9171 23.0112 22.1228 22.9475 22.3138L20.9475 28.3138C20.8637 28.5654 20.6833 28.7734 20.446 28.892C20.2088 29.0106 19.9342 29.0301 19.6825 28.9463C19.4309 28.8624 19.2229 28.682 19.1043 28.4447C18.9857 28.2075 18.9662 27.9329 19.05 27.6813L20.8338 22.3288L18.0738 20.0288C17.8935 20.6368 17.6807 21.2347 17.4363 21.82C15.7175 25.9125 12.6388 28.6488 8.28629 29.955C8.03445 30.0243 7.76549 29.9923 7.53693 29.8659C7.30837 29.7394 7.13836 29.5286 7.06324 29.2784C6.98812 29.0282 7.01387 28.7586 7.13498 28.5272C7.25608 28.2958 7.46293 28.1209 7.71129 28.04C15.2963 25.7638 16.6038 19.0125 16.8888 15.3338C13.5 17.485 10.8213 18 9.04504 18C8.20832 18.0028 7.3771 17.8646 6.58629 17.5913C6.37476 17.4988 6.20172 17.336 6.09653 17.1306C5.99135 16.9251 5.9605 16.6895 6.00922 16.4639C6.05794 16.2382 6.18323 16.0364 6.36383 15.8926C6.54443 15.7488 6.76922 15.6719 7.00004 15.675C7.14297 15.6748 7.28421 15.706 7.41379 15.7663C7.41379 15.7663 10.7588 17.1013 16.4375 13.2413C22.9738 8.79875 27.4375 12.27 27.6263 12.42C27.7288 12.5022 27.814 12.6038 27.8772 12.719C27.9404 12.8342 27.9803 12.9607 27.9945 13.0913C28.0088 13.2219 27.9972 13.354 27.9604 13.4801C27.9236 13.6062 27.8623 13.7238 27.78 13.8263Z" fill="#343330"/>
</svg>
