<svg width="32" height="32" viewBox="0 0 32 32" fill="none" xmlns="http://www.w3.org/2000/svg">
<path d="M18.9999 10C19.7911 10 20.5644 9.76541 21.2222 9.32588C21.88 8.88635 22.3927 8.26164 22.6955 7.53074C22.9982 6.79983 23.0774 5.99556 22.9231 5.21964C22.7687 4.44372 22.3878 3.73098 21.8284 3.17157C21.269 2.61216 20.5562 2.2312 19.7803 2.07686C19.0044 1.92252 18.2001 2.00173 17.4692 2.30448C16.7383 2.60723 16.1136 3.11992 15.6741 3.77772C15.2345 4.43552 14.9999 5.20888 14.9999 6C14.9999 7.06087 15.4214 8.07828 16.1715 8.82843C16.9217 9.57857 17.9391 10 18.9999 10ZM18.9999 4C19.3955 4 19.7822 4.1173 20.1111 4.33706C20.44 4.55683 20.6963 4.86918 20.8477 5.23463C20.9991 5.60009 21.0387 6.00222 20.9615 6.39018C20.8843 6.77814 20.6939 7.13451 20.4142 7.41422C20.1345 7.69392 19.7781 7.8844 19.3901 7.96157C19.0022 8.03874 18.6 7.99914 18.2346 7.84776C17.8691 7.69639 17.5568 7.44004 17.337 7.11114C17.1172 6.78224 16.9999 6.39556 16.9999 6C16.9999 5.46957 17.2107 4.96086 17.5857 4.58579C17.9608 4.21072 18.4695 4 18.9999 4ZM26.9999 18C26.9999 18.2652 26.8946 18.5196 26.7071 18.7071C26.5195 18.8946 26.2652 19 25.9999 19C21.5862 19 19.3812 16.7738 17.6099 14.985C17.2674 14.6388 16.9399 14.31 16.6099 14.005L14.9312 17.865L19.5812 21.1863C19.7107 21.2788 19.8163 21.4009 19.8891 21.5424C19.962 21.6839 19.9999 21.8408 19.9999 22V29C19.9999 29.2652 19.8946 29.5196 19.7071 29.7071C19.5195 29.8946 19.2652 30 18.9999 30C18.7347 30 18.4804 29.8946 18.2928 29.7071C18.1053 29.5196 17.9999 29.2652 17.9999 29V22.515L14.1162 19.74L9.91744 29.3988C9.83973 29.5775 9.71149 29.7296 9.54849 29.8364C9.38549 29.9432 9.19483 30.0001 8.99994 30C8.86263 30.0003 8.72677 29.9718 8.60119 29.9163C8.3581 29.8106 8.16691 29.6127 8.06963 29.3661C7.97236 29.1195 7.97697 28.8444 8.08244 28.6013L14.8424 13.055C13.6787 12.8488 12.2274 13.205 10.5049 14.1275C9.13119 14.8853 7.84903 15.7983 6.68369 16.8488C6.48918 17.023 6.23422 17.1142 5.97333 17.103C5.71243 17.0917 5.46629 16.9788 5.28753 16.7885C5.10876 16.5981 5.01155 16.3454 5.01667 16.0843C5.0218 15.8232 5.12885 15.5745 5.31494 15.3913C5.62744 15.0975 13.0262 8.2375 17.6549 12.2563C18.1337 12.6713 18.5899 13.1313 19.0299 13.5775C20.7737 15.3375 22.4199 17 25.9999 17C26.2652 17 26.5195 17.1054 26.7071 17.2929C26.8946 17.4804 26.9999 17.7348 26.9999 18Z" fill="#343330"/>
</svg>
