<svg width="32" height="32" viewBox="0 0 32 32" fill="none" xmlns="http://www.w3.org/2000/svg">
<path d="M21.5 11C22.1922 11 22.8689 10.7947 23.4445 10.4101C24.0201 10.0256 24.4687 9.47893 24.7336 8.83939C24.9985 8.19985 25.0678 7.49612 24.9328 6.81719C24.7977 6.13825 24.4644 5.51461 23.9749 5.02513C23.4854 4.53564 22.8618 4.2023 22.1828 4.06725C21.5039 3.9322 20.8002 4.00152 20.1606 4.26642C19.5211 4.53133 18.9744 4.97993 18.5899 5.55551C18.2053 6.13108 18 6.80777 18 7.5C18 8.42826 18.3687 9.3185 19.0251 9.97487C19.6815 10.6313 20.5717 11 21.5 11ZM21.5 6C21.7967 6 22.0867 6.08798 22.3334 6.2528C22.58 6.41762 22.7723 6.65189 22.8858 6.92598C22.9994 7.20007 23.0291 7.50167 22.9712 7.79264C22.9133 8.08361 22.7704 8.35088 22.5607 8.56066C22.3509 8.77044 22.0836 8.9133 21.7926 8.97118C21.5017 9.02906 21.2001 8.99935 20.926 8.88582C20.6519 8.77229 20.4176 8.58003 20.2528 8.33336C20.088 8.08668 20 7.79667 20 7.5C20 7.10218 20.158 6.72065 20.4393 6.43934C20.7206 6.15804 21.1022 6 21.5 6ZM4.04 9.72C4.07677 9.59393 4.13801 9.47634 4.22023 9.37394C4.30244 9.27154 4.40402 9.18633 4.51917 9.12319C4.63431 9.06005 4.76077 9.0202 4.89131 9.00593C5.02186 8.99165 5.15393 9.00323 5.28 9.04L14 11.5838L15.29 10.2925C15.3829 10.1995 15.4932 10.1258 15.6146 10.0754C15.736 10.0251 15.8661 9.99921 15.9975 9.99921C16.1289 9.99921 16.259 10.0251 16.3804 10.0754C16.5018 10.1258 16.6121 10.1995 16.705 10.2925L20.4138 14H25C25.2652 14 25.5196 14.1054 25.7071 14.2929C25.8946 14.4804 26 14.7348 26 15C26 15.2652 25.8946 15.5196 25.7071 15.7071C25.5196 15.8946 25.2652 16 25 16H20C19.8686 16.0001 19.7385 15.9743 19.6172 15.9241C19.4958 15.8739 19.3854 15.8003 19.2925 15.7075L18.5913 15L4.71625 10.955C4.46347 10.8799 4.25058 10.708 4.12393 10.4767C3.99727 10.2454 3.96711 9.97343 4.04 9.72ZM29.555 25.53C28.4946 26.2386 27.2917 26.7059 26.0311 26.8992C24.7704 27.0925 23.4828 27.007 22.2588 26.6488L2.72125 20.9588C2.59298 20.924 2.47292 20.864 2.36808 20.7824C2.26325 20.7007 2.17575 20.5989 2.11069 20.4831C2.04563 20.3672 2.00433 20.2395 1.98919 20.1075C1.97404 19.9754 1.98537 19.8417 2.02251 19.7141C2.05964 19.5865 2.12184 19.4676 2.20546 19.3643C2.28908 19.261 2.39245 19.1754 2.50953 19.1125C2.62661 19.0497 2.75505 19.0107 2.88734 18.9981C3.01963 18.9854 3.15312 18.9992 3.28 19.0388L12.78 21.805L16.0913 18.5L10.725 16.9613C10.5987 16.9251 10.4807 16.8645 10.3778 16.7828C10.275 16.7011 10.1892 16.5999 10.1254 16.4851C9.99659 16.2531 9.96519 15.9795 10.0381 15.7244C10.0742 15.5981 10.1349 15.4801 10.2166 15.3772C10.2983 15.2743 10.3995 15.1886 10.5143 15.1248C10.7463 14.996 11.0199 14.9646 11.275 15.0375L18.275 17.0375C18.4425 17.0853 18.5946 17.176 18.7162 17.3007C18.8378 17.4253 18.9248 17.5796 18.9685 17.7482C19.0122 17.9168 19.0111 18.0939 18.9653 18.2619C18.9195 18.4299 18.8307 18.5831 18.7075 18.7063L14.97 22.4438L22.8188 24.7288C23.7624 25.0051 24.7551 25.0711 25.727 24.9221C26.6989 24.773 27.6263 24.4126 28.4438 23.8663C28.553 23.7934 28.6755 23.7427 28.8043 23.7172C28.9332 23.6917 29.0657 23.6917 29.1945 23.7175C29.3233 23.7432 29.4458 23.794 29.5549 23.867C29.6641 23.9401 29.7577 24.0339 29.8306 24.1431C29.9035 24.2524 29.9542 24.3749 29.9797 24.5037C30.0052 24.6325 30.0051 24.7651 29.9794 24.8939C29.9537 25.0227 29.9029 25.1451 29.8298 25.2543C29.7568 25.3634 29.663 25.4571 29.5538 25.53H29.555Z" fill="#343330"/>
</svg>
