<svg width="32" height="32" viewBox="0 0 32 32" fill="none" xmlns="http://www.w3.org/2000/svg">
<path d="M20 5C20 4.20888 19.7654 3.43552 19.3258 2.77772C18.8863 2.11992 18.2616 1.60723 17.5307 1.30448C16.7998 1.00173 15.9955 0.92252 15.2196 1.07686C14.4437 1.2312 13.7309 1.61216 13.1715 2.17157C12.6121 2.73098 12.2312 3.44372 12.0768 4.21964C11.9225 4.99556 12.0017 5.79983 12.3044 6.53074C12.6072 7.26164 13.1199 7.88635 13.7777 8.32588C14.4355 8.76541 15.2088 9 16 9C17.0608 9 18.0782 8.57857 18.8284 7.82843C19.5785 7.07828 20 6.06087 20 5ZM16 7C15.6044 7 15.2177 6.8827 14.8888 6.66294C14.5599 6.44318 14.3036 6.13082 14.1522 5.76537C14.0008 5.39992 13.9612 4.99778 14.0384 4.60982C14.1156 4.22186 14.306 3.86549 14.5857 3.58579C14.8655 3.30608 15.2218 3.1156 15.6098 3.03843C15.9977 2.96126 16.3999 3.00087 16.7653 3.15224C17.1308 3.30362 17.4431 3.55996 17.6629 3.88886C17.8827 4.21776 18 4.60444 18 5C18 5.53044 17.7892 6.03914 17.4142 6.41422C17.0391 6.78929 16.5304 7 16 7ZM27.2925 16.7563L21.6462 10.3538C21.2708 9.92822 20.8091 9.58743 20.2919 9.35402C19.7747 9.12062 19.2137 8.99994 18.6462 9H13.3537C12.7862 8.99994 12.2253 9.12062 11.708 9.35402C11.1908 9.58743 10.7291 9.92822 10.3537 10.3538L4.70746 16.7563C4.24893 17.2252 3.99306 17.8556 3.99501 18.5115C3.99695 19.1673 4.25657 19.7962 4.71788 20.2624C5.17918 20.7286 5.80523 20.9949 6.46105 21.0038C7.11686 21.0127 7.74991 20.7635 8.22371 20.31L10.2612 18.675L8.19371 26.535C7.91987 27.1392 7.89727 27.8274 8.13087 28.4483C8.36447 29.0692 8.83514 29.5718 9.43934 29.8456C10.0435 30.1195 10.7318 30.1421 11.3526 29.9085C11.9735 29.6749 12.4761 29.2042 12.75 28.6L16 22.9913L19.25 28.6C19.536 29.1839 20.0383 29.6334 20.6503 29.8531C21.2623 30.0728 21.9358 30.0454 22.528 29.7767C23.1201 29.5081 23.5843 29.0193 23.822 28.4141C24.0597 27.8088 24.0522 27.1348 23.8012 26.535L21.7387 18.675L23.7762 20.31C24.25 20.7635 24.8831 21.0127 25.5389 21.0038C26.1947 20.9949 26.8207 20.7286 27.282 20.2624C27.7434 19.7962 28.003 19.1673 28.0049 18.5115C28.0069 17.8556 27.751 17.2252 27.2925 16.7563ZM25.8537 18.8525C25.8073 18.899 25.7521 18.9359 25.6914 18.961C25.6307 18.9862 25.5657 18.9991 25.5 18.9991C25.4343 18.9991 25.3692 18.9862 25.3085 18.961C25.2478 18.9359 25.1926 18.899 25.1462 18.8525C25.12 18.8275 25.0937 18.8025 25.065 18.78L20.625 15.22C20.4611 15.0892 20.2603 15.0132 20.0509 15.0028C19.8415 14.9923 19.6341 15.048 19.458 15.1619C19.282 15.2757 19.1462 15.4421 19.0698 15.6373C18.9934 15.8326 18.9804 16.0469 19.0325 16.25L21.8925 27.125C21.9072 27.183 21.9273 27.2395 21.9525 27.2938C21.9813 27.3534 21.998 27.4182 22.0016 27.4844C22.0052 27.5505 21.9956 27.6167 21.9734 27.6792C21.9512 27.7416 21.9168 27.799 21.8722 27.848C21.8276 27.897 21.7737 27.9367 21.7136 27.9647C21.6536 27.9927 21.5885 28.0084 21.5223 28.0111C21.4561 28.0137 21.3901 28.0032 21.328 27.9801C21.2659 27.957 21.209 27.9217 21.1606 27.8764C21.1122 27.8312 21.0733 27.7767 21.0462 27.7163C21.034 27.6892 21.0202 27.6629 21.005 27.6375L16.865 20.5C16.7771 20.3485 16.6509 20.2227 16.4991 20.1352C16.3473 20.0478 16.1751 20.0018 16 20.0018C15.8248 20.0018 15.6527 20.0478 15.5008 20.1352C15.349 20.2227 15.2229 20.3485 15.135 20.5L11 27.6313C10.9847 27.6567 10.971 27.683 10.9587 27.71C10.9309 27.7696 10.8917 27.8231 10.8432 27.8675C10.7947 27.9119 10.738 27.9463 10.6762 27.9688C10.5832 28.0028 10.4822 28.0085 10.386 27.9851C10.2898 27.9617 10.2027 27.9103 10.1357 27.8373C10.0688 27.7643 10.025 27.6731 10.0099 27.5752C9.9949 27.4774 10.0093 27.3772 10.0512 27.2875C10.0764 27.2332 10.0965 27.1767 10.1112 27.1188L12.9675 16.25C13.0196 16.0469 13.0065 15.8326 12.9301 15.6373C12.8538 15.4421 12.718 15.2757 12.5419 15.1619C12.3659 15.048 12.1585 14.9923 11.9491 15.0028C11.7397 15.0132 11.5388 15.0892 11.375 15.22L6.93496 18.78C6.90621 18.8025 6.87996 18.8275 6.85371 18.8525C6.80779 18.9009 6.75263 18.9397 6.6915 18.9664C6.63037 18.9932 6.56449 19.0075 6.49776 19.0084C6.43103 19.0093 6.36479 18.9968 6.30295 18.9718C6.24111 18.9467 6.18491 18.9094 6.13768 18.8623C6.09045 18.8151 6.05313 18.759 6.02793 18.6972C6.00274 18.6354 5.99016 18.5692 5.99096 18.5025C5.99175 18.4357 6.0059 18.3698 6.03256 18.3087C6.05923 18.2475 6.09787 18.1923 6.14621 18.1463C6.16121 18.1313 6.17496 18.1163 6.18871 18.1L11.8537 11.6763C12.0415 11.4636 12.2723 11.2933 12.5309 11.1767C12.7896 11.0601 13.07 10.9999 13.3537 11H18.6462C18.9299 10.9999 19.2104 11.0601 19.469 11.1767C19.7276 11.2933 19.9584 11.4636 20.1462 11.6763L25.8112 18.1C25.825 18.1163 25.8387 18.1313 25.8537 18.1463C25.9472 18.24 25.9997 18.367 25.9997 18.4994C25.9997 18.6318 25.9472 18.7588 25.8537 18.8525Z" fill="#343330"/>
</svg>
