<svg width="32" height="32" viewBox="0 0 32 32" fill="none" xmlns="http://www.w3.org/2000/svg">
<path d="M20 5C20 4.20888 19.7654 3.43552 19.3258 2.77772C18.8863 2.11992 18.2616 1.60723 17.5307 1.30448C16.7998 1.00173 15.9955 0.92252 15.2196 1.07686C14.4437 1.2312 13.7309 1.61216 13.1715 2.17157C12.6121 2.73098 12.2312 3.44372 12.0768 4.21964C11.9225 4.99556 12.0017 5.79983 12.3044 6.53074C12.6072 7.26164 13.1199 7.88635 13.7777 8.32588C14.4355 8.76541 15.2088 9 16 9C17.0608 9 18.0782 8.57857 18.8284 7.82843C19.5785 7.07828 20 6.06087 20 5ZM16 7C15.6044 7 15.2177 6.8827 14.8888 6.66294C14.5599 6.44318 14.3036 6.13082 14.1522 5.76537C14.0008 5.39992 13.9612 4.99778 14.0384 4.60982C14.1156 4.22186 14.306 3.86549 14.5857 3.58579C14.8654 3.30608 15.2218 3.1156 15.6098 3.03843C15.9977 2.96126 16.3999 3.00087 16.7653 3.15224C17.1308 3.30362 17.4431 3.55996 17.6629 3.88886C17.8827 4.21776 18 4.60444 18 5C18 5.53044 17.7892 6.03914 17.4142 6.41422C17.0391 6.78929 16.5304 7 16 7ZM28.9375 10.9638C28.8236 10.4037 28.5178 9.90099 28.0727 9.54245C27.6277 9.18391 27.0714 8.99204 26.5 9H5.49996C4.93006 8.99998 4.37726 9.19468 3.93316 9.55183C3.48905 9.90898 3.1803 10.4071 3.05807 10.9638C2.93583 11.5204 3.00744 12.1021 3.26104 12.6125C3.51463 13.1228 3.93499 13.5312 4.45246 13.77H4.46871L10.8125 16.5638L8.18746 26.5288C7.91279 27.1338 7.88972 27.8231 8.12332 28.4452C8.35692 29.0672 8.82805 29.571 9.43308 29.8456C10.0381 30.1203 10.7275 30.1434 11.3495 29.9098C11.9715 29.6762 12.4753 29.205 12.75 28.6L16 22.9913L19.25 28.6C19.5388 29.1792 20.041 29.6239 20.6509 29.8404C21.2609 30.0569 21.9311 30.0285 22.5205 29.761C23.1098 29.4935 23.5725 29.0078 23.8111 28.4062C24.0498 27.8045 24.0458 27.1338 23.8 26.535L21.175 16.57L27.5187 13.7763H27.535C28.0607 13.5455 28.489 13.1377 28.7452 12.6238C29.0015 12.11 29.0695 11.5226 28.9375 10.9638ZM26.7125 11.9513L19.5962 15.0838C19.3784 15.1797 19.2019 15.3503 19.0985 15.5648C18.9952 15.7792 18.9718 16.0235 19.0325 16.2538L21.8912 27.125C21.9058 27.1832 21.9263 27.2398 21.9525 27.2938C21.9944 27.3835 22.0088 27.4836 21.9937 27.5815C21.9787 27.6794 21.9349 27.7706 21.868 27.8436C21.801 27.9165 21.7139 27.968 21.6177 27.9914C21.5214 28.0148 21.4204 28.0091 21.3275 27.975C21.2031 27.9294 21.102 27.8363 21.0462 27.7163C21.0335 27.6892 21.0194 27.6629 21.0037 27.6375L16.865 20.5C16.7771 20.3485 16.6509 20.2227 16.4991 20.1352C16.3473 20.0478 16.1751 20.0018 16 20.0018C15.8248 20.0018 15.6526 20.0478 15.5008 20.1352C15.349 20.2227 15.2229 20.3485 15.135 20.5L11 27.6313C10.9843 27.6567 10.9701 27.683 10.9575 27.71C10.9017 27.8301 10.8005 27.9231 10.6762 27.9688C10.5832 28.0028 10.4822 28.0085 10.386 27.9851C10.2898 27.9617 10.2026 27.9103 10.1357 27.8373C10.0687 27.7643 10.025 27.6731 10.0099 27.5752C9.99489 27.4774 10.0093 27.3772 10.0512 27.2875C10.0774 27.2335 10.0979 27.177 10.1125 27.1188L12.9675 16.25C13.0281 16.0198 13.0047 15.7755 12.9014 15.561C12.798 15.3466 12.6216 15.176 12.4037 15.08L5.28746 11.9513C5.18531 11.9025 5.10272 11.8206 5.05319 11.7188C5.00367 11.617 4.99014 11.5014 5.01481 11.391C5.03949 11.2805 5.10091 11.1817 5.18903 11.1107C5.27716 11.0397 5.38678 11.0006 5.49996 11H26.5C26.6135 10.9998 26.7236 11.0382 26.8124 11.1089C26.9012 11.1797 26.9633 11.2785 26.9884 11.3892C27.0136 11.4998 27.0003 11.6158 26.9509 11.7179C26.9014 11.8201 26.8186 11.9024 26.7162 11.9513H26.7125Z" fill="#343330"/>
</svg>
