<svg width="32" height="32" viewBox="0 0 32 32" fill="none" xmlns="http://www.w3.org/2000/svg">
<path d="M19 10C19.7912 10 20.5645 9.76541 21.2223 9.32588C21.8801 8.88635 22.3928 8.26164 22.6956 7.53074C22.9983 6.79983 23.0775 5.99556 22.9232 5.21964C22.7688 4.44372 22.3879 3.73098 21.8285 3.17157C21.2691 2.61216 20.5563 2.2312 19.7804 2.07686C19.0045 1.92252 18.2002 2.00173 17.4693 2.30448C16.7384 2.60723 16.1137 3.11992 15.6742 3.77772C15.2346 4.43552 15 5.20888 15 6C15 7.06087 15.4215 8.07828 16.1716 8.82843C16.9218 9.57857 17.9392 10 19 10ZM19 4C19.3956 4 19.7823 4.1173 20.1112 4.33706C20.4401 4.55683 20.6964 4.86918 20.8478 5.23463C20.9992 5.60009 21.0388 6.00222 20.9616 6.39018C20.8844 6.77814 20.694 7.13451 20.4143 7.41422C20.1346 7.69392 19.7782 7.8844 19.3902 7.96157C19.0023 8.03874 18.6001 7.99914 18.2347 7.84776C17.8692 7.69639 17.5569 7.44004 17.3371 7.11114C17.1173 6.78224 17 6.39556 17 6C17 5.46957 17.2108 4.96086 17.5858 4.58579C17.9609 4.21072 18.4696 4 19 4ZM25 18V29C25 29.2652 24.8947 29.5196 24.7072 29.7071C24.5196 29.8946 24.2653 30 24 30C23.7348 30 23.4805 29.8946 23.2929 29.7071C23.1054 29.5196 23 29.2652 23 29V18.9575C19.7813 18.6763 18.7063 17.0175 17.75 15.5375C17.3938 14.9888 17.055 14.4663 16.6088 14.0138L14.9338 17.865L19.5838 21.1863C19.7129 21.279 19.8179 21.4013 19.8903 21.5428C19.9627 21.6843 20.0003 21.841 20 22V29C20 29.2652 19.8947 29.5196 19.7072 29.7071C19.5196 29.8946 19.2653 30 19 30C18.7348 30 18.4805 29.8946 18.2929 29.7071C18.1054 29.5196 18 29.2652 18 29V22.515L14.1163 19.74L9.91755 29.3988C9.83984 29.5775 9.7116 29.7296 9.54859 29.8364C9.38559 29.9432 9.19493 30.0001 9.00005 30C8.86273 30.0003 8.72688 29.9718 8.6013 29.9163C8.35843 29.8103 8.16751 29.6124 8.07049 29.3658C7.97346 29.1193 7.97825 28.8443 8.0838 28.6013L15.2738 12.0625C15.3284 11.937 15.4081 11.8241 15.5081 11.7307C15.6081 11.6373 15.7262 11.5654 15.8551 11.5195C15.984 11.4735 16.1209 11.4545 16.2574 11.4637C16.394 11.4728 16.5272 11.5098 16.6488 11.5725C17.008 11.76 17.3437 11.9895 17.6488 12.2563C18.445 12.9463 18.9625 13.745 19.4188 14.45C20.3788 15.93 21.0713 17 23.9938 17C24.1256 16.9992 24.2564 17.0244 24.3784 17.0743C24.5004 17.1242 24.6114 17.1977 24.7049 17.2907C24.7985 17.3836 24.8727 17.4941 24.9233 17.6159C24.974 17.7376 25 17.8682 25 18ZM9.00005 19C9.1957 18.9999 9.38703 18.9424 9.55034 18.8347C9.71365 18.7269 9.84176 18.5736 9.9188 18.3938L12.9188 11.3938C13.0231 11.1501 13.0264 10.8749 12.928 10.6288C12.8295 10.3827 12.6374 10.1858 12.3938 10.0813L8.8938 8.58125C8.65012 8.47694 8.37499 8.47365 8.12888 8.57209C7.88277 8.67053 7.68582 8.86266 7.5813 9.10625L4.5813 16.1063C4.47699 16.3499 4.47369 16.6251 4.57213 16.8712C4.67058 17.1173 4.86271 17.3142 5.1063 17.4188L8.6063 18.9188C8.73069 18.9722 8.86465 18.9999 9.00005 19ZM6.8138 15.975L9.02505 10.8125L10.6875 11.525L8.47505 16.6863L6.8138 15.975Z" fill="#343330"/>
</svg>
