<svg width="32" height="32" viewBox="0 0 32 32" fill="none" xmlns="http://www.w3.org/2000/svg">
<path d="M22 13C22.7911 13 23.5645 12.7654 24.2223 12.3259C24.8801 11.8864 25.3928 11.2616 25.6955 10.5307C25.9983 9.79983 26.0775 8.99556 25.9231 8.21964C25.7688 7.44372 25.3878 6.73098 24.8284 6.17157C24.269 5.61216 23.5563 5.2312 22.7804 5.07686C22.0044 4.92252 21.2002 5.00173 20.4693 5.30448C19.7384 5.60723 19.1137 6.11992 18.6741 6.77772C18.2346 7.43552 18 8.20888 18 9C18 10.0609 18.4214 11.0783 19.1716 11.8284C19.9217 12.5786 20.9391 13 22 13ZM22 7C22.3956 7 22.7822 7.1173 23.1111 7.33706C23.44 7.55683 23.6964 7.86918 23.8478 8.23464C23.9991 8.60009 24.0387 9.00222 23.9616 9.39018C23.8844 9.77814 23.6939 10.1345 23.4142 10.4142C23.1345 10.6939 22.7781 10.8844 22.3902 10.9616C22.0022 11.0387 21.6001 10.9991 21.2346 10.8478C20.8692 10.6964 20.5568 10.44 20.3371 10.1111C20.1173 9.78224 20 9.39556 20 9C20 8.46957 20.2107 7.96086 20.5858 7.58579C20.9609 7.21072 21.4696 7 22 7ZM27.77 23.155C27.9399 23.3583 28.0221 23.6207 27.9987 23.8846C27.9752 24.1485 27.848 24.3923 27.645 24.5625C25.475 26.3613 23.5375 27 21.77 27C19.4475 27 17.4175 25.8975 15.5288 24.875C12.36 23.155 9.62376 21.6688 5.64501 24.9675C5.54412 25.0526 5.42739 25.1169 5.30155 25.1566C5.1757 25.1964 5.04323 25.2109 4.91177 25.1992C4.78032 25.1875 4.65247 25.1499 4.53561 25.0886C4.41874 25.0273 4.31517 24.9434 4.23087 24.8419C4.14657 24.7403 4.0832 24.6231 4.04442 24.4969C4.00564 24.3708 3.99221 24.2382 4.00491 24.1069C4.01761 23.9755 4.05619 23.8479 4.11842 23.7316C4.18066 23.6152 4.26531 23.5123 4.36751 23.4288C9.38876 19.2675 13.1575 21.3125 16.4838 23.1175C19.6525 24.8388 22.3888 26.3238 26.3675 23.025C26.5712 22.8573 26.8328 22.7768 27.0955 22.8012C27.3582 22.8255 27.6007 22.9527 27.77 23.155ZM4.36126 18.4275C4.25906 18.511 4.17441 18.6139 4.11217 18.7303C4.04994 18.8467 4.01136 18.9742 3.99866 19.1056C3.98596 19.237 3.99939 19.3695 4.03817 19.4957C4.07695 19.6218 4.14032 19.7391 4.22462 19.8406C4.30892 19.9422 4.41249 20.026 4.52936 20.0873C4.64622 20.1487 4.77407 20.1862 4.90552 20.1979C5.03698 20.2096 5.16945 20.1951 5.2953 20.1554C5.42114 20.1156 5.53787 20.0513 5.63876 19.9663C9.61751 16.6688 12.3538 18.1538 15.5225 19.8738C17.4113 20.8988 19.4413 21.9988 21.7638 21.9988C23.5313 21.9988 25.4688 21.36 27.6388 19.5613C27.741 19.4777 27.8256 19.3748 27.8878 19.2584C27.9501 19.1421 27.9886 19.0145 28.0014 18.8831C28.0141 18.7518 28.0006 18.6192 27.9618 18.4931C27.9231 18.3669 27.8597 18.2497 27.7754 18.1481C27.6911 18.0466 27.5875 17.9627 27.4707 17.9014C27.3538 17.8401 27.2259 17.8025 27.0945 17.7908C26.963 17.7792 26.8306 17.7936 26.7047 17.8334C26.5789 17.8731 26.4621 17.9374 26.3613 18.0225C25.6383 18.6433 24.8258 19.1516 23.9513 19.53L17.2213 12.8025C16.0165 11.5927 14.5839 10.6338 13.0063 9.9811C11.4287 9.32842 9.73731 8.99496 8.03001 9H5.00001C4.73479 9 4.48044 9.10536 4.2929 9.2929C4.10536 9.48043 4.00001 9.73479 4.00001 10C4.00001 10.2652 4.10536 10.5196 4.2929 10.7071C4.48044 10.8946 4.73479 11 5.00001 11H8.03001C9.85779 10.9965 11.6574 11.4503 13.265 12.32L9.56126 16.0213C7.97751 16.1688 6.25876 16.855 4.36126 18.4275ZM15.8075 14.2188L21.5738 19.9838C19.8238 19.93 18.2138 19.06 16.4775 18.1175C15.1338 17.3875 13.7163 16.6175 12.175 16.2363L14.9575 13.4538C15.254 13.6937 15.5378 13.949 15.8075 14.2188Z" fill="#343330"/>
</svg>
