<svg width="32" height="32" viewBox="0 0 32 32" fill="none" xmlns="http://www.w3.org/2000/svg">
<path d="M20.5 10C21.1922 10 21.8689 9.79473 22.4445 9.41015C23.0201 9.02556 23.4687 8.47894 23.7336 7.83939C23.9985 7.19985 24.0678 6.49612 23.9327 5.81719C23.7977 5.13825 23.4644 4.51461 22.9749 4.02513C22.4854 3.53564 21.8617 3.2023 21.1828 3.06725C20.5039 2.9322 19.8001 3.00152 19.1606 3.26642C18.5211 3.53133 17.9744 3.97993 17.5899 4.55551C17.2053 5.13108 17 5.80777 17 6.5C17 7.42826 17.3687 8.3185 18.0251 8.97487C18.6815 9.63125 19.5717 10 20.5 10ZM20.5 5C20.7967 5 21.0867 5.08798 21.3334 5.2528C21.58 5.41762 21.7723 5.65189 21.8858 5.92598C21.9993 6.20007 22.0291 6.50167 21.9712 6.79264C21.9133 7.08361 21.7704 7.35088 21.5607 7.56066C21.3509 7.77044 21.0836 7.9133 20.7926 7.97118C20.5017 8.02906 20.2001 7.99935 19.926 7.88582C19.6519 7.77229 19.4176 7.58003 19.2528 7.33336C19.088 7.08668 19 6.79667 19 6.5C19 6.10218 19.158 5.72065 19.4393 5.43934C19.7206 5.15804 20.1022 5 20.5 5ZM27.2812 14.04L10.2812 9.04C10.1553 9.0029 10.0232 8.99098 9.89261 9.00492C9.76202 9.01886 9.63545 9.05838 9.52013 9.12124C9.28723 9.24818 9.1143 9.46243 9.03938 9.71688C8.96445 9.97132 8.99367 10.2451 9.12061 10.478C9.24755 10.7109 9.46181 10.8838 9.71625 10.9588L14.8225 12.4588L10.6337 18.75L5.0425 17.125C4.24122 16.8908 3.37971 16.9845 2.64749 17.3854C1.91528 17.7864 1.37234 18.4618 1.13813 19.2631C0.903906 20.0644 0.997589 20.9259 1.39857 21.6581C1.79954 22.3903 2.47497 22.9333 3.27625 23.1675L22.9562 28.875C23.2465 28.9581 23.5469 29.0002 23.8487 29C24.6076 29.0014 25.3414 28.7284 25.9149 28.2314C26.4884 27.7344 26.8629 27.0469 26.9695 26.2955C27.076 25.5442 26.9074 24.7796 26.4947 24.1428C26.082 23.5059 25.4531 23.0397 24.7237 22.83L18.3625 20.9863L20.8312 17.3063C20.9189 17.1755 20.9745 17.026 20.9934 16.8698C21.0124 16.7136 20.9942 16.5551 20.9404 16.4072C20.8865 16.2593 20.7985 16.1263 20.6836 16.0188C20.5686 15.9113 20.4299 15.8325 20.2787 15.7888L15.8625 14.51L16.835 13.0513L26.7188 15.9588C26.9721 16.0299 27.2432 15.9983 27.4734 15.8708C27.7036 15.7434 27.8743 15.5303 27.9485 15.2779C28.0226 15.0254 27.9943 14.7539 27.8697 14.5222C27.745 14.2905 27.534 14.1172 27.2825 14.04H27.2812ZM25 25.8513C25.0002 26.0286 24.9589 26.2036 24.8792 26.3621C24.7995 26.5206 24.6838 26.6581 24.5413 26.7638C24.3966 26.8733 24.2283 26.9473 24.0498 26.9798C23.8714 27.0124 23.6877 27.0026 23.5138 26.9513L3.83375 21.25C3.59488 21.1808 3.38471 21.0364 3.23449 20.8382C3.08427 20.6401 3.00203 20.3987 3 20.15C2.99951 19.9727 3.04065 19.7978 3.12011 19.6393C3.19957 19.4808 3.31514 19.3432 3.4575 19.2375C3.60223 19.1277 3.77078 19.0535 3.9495 19.021C4.12821 18.9884 4.31209 18.9983 4.48625 19.05L24.1663 24.75C24.4054 24.819 24.6159 24.9636 24.7661 25.1621C24.9164 25.3606 24.9984 25.6023 25 25.8513ZM18.4062 17.3288L16.345 20.4025L12.6475 19.33L14.6975 16.255L18.4062 17.3288Z" fill="#343330"/>
</svg>
