<svg width="32" height="32" viewBox="0 0 32 32" fill="none" xmlns="http://www.w3.org/2000/svg">
<path d="M18 13V8.00002C18 7.73481 18.1054 7.48045 18.2929 7.29292C18.4804 7.10538 18.7348 7.00002 19 7.00002C19.2652 7.00002 19.5196 7.10538 19.7071 7.29292C19.8947 7.48045 20 7.73481 20 8.00002V10.5863L24.2925 6.29252C24.4802 6.10488 24.7346 5.99947 25 5.99947C25.2654 5.99947 25.5199 6.10488 25.7075 6.29252C25.8952 6.48017 26.0006 6.73466 26.0006 7.00002C26.0006 7.26539 25.8952 7.51988 25.7075 7.70752L21.415 12H24C24.2652 12 24.5196 12.1054 24.7071 12.2929C24.8947 12.4805 25 12.7348 25 13C25 13.2652 24.8947 13.5196 24.7071 13.7071C24.5196 13.8947 24.2652 14 24 14H19C18.7348 14 18.4804 13.8947 18.2929 13.7071C18.1054 13.5196 18 13.2652 18 13ZM27.985 22.885C27.7621 24.5788 26.9303 26.1336 25.6449 27.2589C24.3595 28.3842 22.7084 29.0031 21 29C11.075 29 3.00001 20.925 3.00001 11C2.99672 9.29171 3.61559 7.64064 4.74097 6.35538C5.86635 5.07012 7.42122 4.23862 9.11501 4.01627C9.54318 3.96388 9.97682 4.05132 10.3512 4.26556C10.7256 4.47979 11.0207 4.80934 11.1925 5.20502L13.8325 11.0988V11.1138C13.9639 11.4168 14.0181 11.7477 13.9904 12.0769C13.9627 12.406 13.8539 12.7232 13.6738 13C13.6513 13.0338 13.6275 13.065 13.6025 13.0963L11 16.1813C11.9363 18.0838 13.9263 20.0563 15.8538 20.995L18.8963 18.4063C18.9261 18.3812 18.9574 18.3578 18.99 18.3363C19.2666 18.1518 19.5849 18.0392 19.916 18.0086C20.2471 17.978 20.5806 18.0305 20.8863 18.1613L20.9025 18.1688L26.7913 20.8075C27.1879 20.9785 27.5185 21.2732 27.7337 21.6477C27.9489 22.0222 28.037 22.4563 27.985 22.885ZM26 22.635C26 22.635 25.9913 22.635 25.9863 22.635L20.1113 20.0038L17.0675 22.5925C17.0383 22.6179 17.0074 22.6413 16.975 22.6625C16.6872 22.8545 16.3545 22.9686 16.0094 22.9936C15.6644 23.0186 15.3187 22.9536 15.0063 22.805C12.665 21.6738 10.3313 19.3575 9.19876 17.0413C9.0488 16.7311 8.98151 16.3874 9.00341 16.0436C9.02531 15.6998 9.13566 15.3674 9.32376 15.0788C9.34496 15.0449 9.36879 15.0127 9.39501 14.9825L12 11.8938L9.37501 6.01877C9.37452 6.01379 9.37452 6.00876 9.37501 6.00377C8.16283 6.1619 7.04986 6.75648 6.24453 7.67617C5.4392 8.59586 4.99674 9.77758 5.00001 11C5.00465 15.2421 6.69184 19.309 9.69142 22.3086C12.691 25.3082 16.758 26.9954 21 27C22.2217 27.0042 23.4031 26.5633 24.3233 25.7597C25.2436 24.9561 25.8396 23.8449 26 22.6338V22.635Z" fill="#343330"/>
</svg>
