<svg width="32" height="32" viewBox="0 0 32 32" fill="none" xmlns="http://www.w3.org/2000/svg">
<path d="M18.2925 12.2925L20.5863 9.99999L18.2925 7.70749C18.1049 7.51985 17.9995 7.26536 17.9995 6.99999C17.9995 6.73463 18.1049 6.48013 18.2925 6.29249C18.4802 6.10485 18.7346 5.99944 19 5.99944C19.2654 5.99944 19.5199 6.10485 19.7075 6.29249L22 8.58624L24.2925 6.29249C24.4802 6.10485 24.7346 5.99944 25 5.99944C25.2654 5.99944 25.5199 6.10485 25.7075 6.29249C25.8952 6.48013 26.0006 6.73463 26.0006 6.99999C26.0006 7.26536 25.8952 7.51985 25.7075 7.70749L23.415 9.99999L25.7075 12.2925C25.8004 12.3854 25.8741 12.4957 25.9244 12.6171C25.9747 12.7385 26.0006 12.8686 26.0006 13C26.0006 13.1314 25.9747 13.2615 25.9244 13.3829C25.8741 13.5043 25.8004 13.6146 25.7075 13.7075C25.6146 13.8004 25.5043 13.8741 25.3829 13.9244C25.2615 13.9747 25.1314 14.0005 25 14.0005C24.8686 14.0005 24.7385 13.9747 24.6171 13.9244C24.4957 13.8741 24.3854 13.8004 24.2925 13.7075L22 11.4137L19.7075 13.7075C19.5199 13.8951 19.2654 14.0005 19 14.0005C18.7346 14.0005 18.4802 13.8951 18.2925 13.7075C18.1049 13.5199 17.9995 13.2654 17.9995 13C17.9995 12.7346 18.1049 12.4801 18.2925 12.2925ZM27.985 22.885C27.7621 24.5788 26.9303 26.1335 25.6449 27.2588C24.3595 28.3841 22.7084 29.0031 21 29C11.075 29 3.00001 20.925 3.00001 11C2.99695 9.2916 3.61587 7.64052 4.74118 6.35511C5.86649 5.0697 7.42122 4.23787 9.11501 4.01499C9.54333 3.96269 9.97707 4.05032 10.3515 4.26479C10.7259 4.47926 11.0209 4.80907 11.1925 5.20499L13.8325 11.0987V11.1137C13.9639 11.4168 14.0181 11.7477 13.9904 12.0768C13.9627 12.406 13.8539 12.7231 13.6738 13C13.6513 13.0337 13.6275 13.065 13.6025 13.0962L11 16.1812C11.9363 18.0837 13.9263 20.0562 15.8538 20.995L18.8963 18.4062C18.9261 18.3811 18.9574 18.3578 18.99 18.3362C19.2666 18.1517 19.5849 18.0391 19.916 18.0086C20.2471 17.978 20.5806 18.0305 20.8863 18.1612L20.9025 18.1687L26.7913 20.8075C27.1879 20.9785 27.5185 21.2732 27.7337 21.6477C27.9489 22.0222 28.037 22.4562 27.985 22.885ZM26 22.635C26 22.635 25.9913 22.635 25.9863 22.635L20.1113 20.0037L17.0675 22.5925C17.038 22.6175 17.0071 22.6409 16.975 22.6625C16.6872 22.8545 16.3545 22.9686 16.0094 22.9935C15.6644 23.0185 15.3187 22.9536 15.0063 22.805C12.665 21.6737 10.3313 19.3575 9.19876 17.0412C9.0488 16.7311 8.9815 16.3874 9.0034 16.0436C9.0253 15.6997 9.13565 15.3674 9.32376 15.0787C9.34496 15.0448 9.36879 15.0127 9.39501 14.9825L12 11.8937L9.37501 6.01874C9.37452 6.01375 9.37452 6.00873 9.37501 6.00374C8.16283 6.16186 7.04986 6.75645 6.24453 7.67614C5.43919 8.59582 4.99674 9.77754 5.00001 11C5.00464 15.242 6.69184 19.309 9.69142 22.3086C12.691 25.3082 16.758 26.9954 21 27C22.2217 27.0042 23.4031 26.5633 24.3233 25.7597C25.2436 24.9561 25.8396 23.8449 26 22.6337V22.635Z" fill="#343330"/>
</svg>
