<svg width="32" height="32" viewBox="0 0 32 32" fill="none" xmlns="http://www.w3.org/2000/svg">
<path d="M26.795 20.8075L20.9075 18.1687L20.8925 18.1612C20.5866 18.0303 20.2529 17.9777 19.9216 18.0082C19.5902 18.0388 19.2718 18.1515 18.995 18.3362C18.9624 18.3578 18.9311 18.3811 18.9013 18.4062L15.8588 21C13.9313 20.0637 11.9413 18.0887 11.005 16.1862L13.6025 13.0975C13.6275 13.0662 13.6513 13.035 13.6738 13.0012C13.8543 12.7254 13.9638 12.4091 13.9926 12.0807C14.0214 11.7523 13.9686 11.4218 13.8388 11.1187V11.1037L11.1925 5.20499C11.0209 4.80907 10.7259 4.47926 10.3515 4.26479C9.97707 4.05032 9.54333 3.96269 9.11501 4.01499C7.42122 4.23787 5.86649 5.0697 4.74118 6.35511C3.61587 7.64052 2.99695 9.2916 3.00001 11C3.00001 20.925 11.075 29 21 29C22.7084 29.0031 24.3595 28.3841 25.6449 27.2588C26.9303 26.1335 27.7621 24.5788 27.985 22.885C28.0373 22.4567 27.9497 22.0229 27.7352 21.6485C27.5207 21.2741 27.1909 20.9791 26.795 20.8075ZM21 27C16.758 26.9954 12.691 25.3082 9.69142 22.3086C6.69184 19.309 5.00464 15.242 5.00001 11C4.99531 9.77935 5.43507 8.59874 6.23718 7.67862C7.03929 6.75851 8.14889 6.16182 9.35876 5.99999C9.35827 6.00498 9.35827 6.01 9.35876 6.01499L11.9838 11.89L9.40001 14.9825C9.37379 15.0127 9.34996 15.0448 9.32876 15.0787C9.14066 15.3674 9.0303 15.6997 9.0084 16.0436C8.9865 16.3874 9.0538 16.7311 9.20376 17.0412C10.3363 19.3575 12.67 21.6737 15.0113 22.805C15.3237 22.9536 15.6694 23.0185 16.0144 22.9935C16.3595 22.9686 16.6922 22.8545 16.98 22.6625C17.0124 22.6409 17.0433 22.617 17.0725 22.5912L20.1113 20L25.9863 22.6325C25.9863 22.6325 25.9963 22.6325 26 22.6325C25.8399 23.8438 25.244 24.9554 24.3237 25.7592C23.4035 26.5631 22.2219 27.0041 21 27ZM24 13V5.99999C24 5.73477 24.1054 5.48042 24.2929 5.29288C24.4804 5.10535 24.7348 4.99999 25 4.99999C25.2652 4.99999 25.5196 5.10535 25.7071 5.29288C25.8947 5.48042 26 5.73477 26 5.99999V13C26 13.2652 25.8947 13.5196 25.7071 13.7071C25.5196 13.8946 25.2652 14 25 14C24.7348 14 24.4804 13.8946 24.2929 13.7071C24.1054 13.5196 24 13.2652 24 13ZM19 13V5.99999C19 5.73477 19.1054 5.48042 19.2929 5.29288C19.4804 5.10535 19.7348 4.99999 20 4.99999C20.2652 4.99999 20.5196 5.10535 20.7071 5.29288C20.8947 5.48042 21 5.73477 21 5.99999V13C21 13.2652 20.8947 13.5196 20.7071 13.7071C20.5196 13.8946 20.2652 14 20 14C19.7348 14 19.4804 13.8946 19.2929 13.7071C19.1054 13.5196 19 13.2652 19 13Z" fill="#343330"/>
</svg>
