<svg width="32" height="32" viewBox="0 0 32 32" fill="none" xmlns="http://www.w3.org/2000/svg">
<path d="M6.74129 4.32752C6.65347 4.22853 6.54688 4.14795 6.42769 4.09046C6.3085 4.03297 6.17909 3.9997 6.04695 3.99259C5.91481 3.98549 5.78257 4.00467 5.6579 4.04905C5.53323 4.09342 5.41861 4.1621 5.32068 4.2511C5.22275 4.3401 5.14345 4.44765 5.08739 4.56752C5.03133 4.68739 4.99962 4.81719 4.9941 4.94941C4.98857 5.08162 5.00935 5.21362 5.05521 5.33775C5.10108 5.46187 5.17112 5.57567 5.26129 5.67252L8.71004 9.46752C6.59448 10.3561 4.67239 11.6486 3.05129 13.2725C0.55129 15.7725 0.31129 19.455 2.46504 22.2313C2.72931 22.5694 3.09535 22.8136 3.50908 22.9277C3.92281 23.0419 4.36227 23.0199 4.76254 22.865L10.8875 20.6938L10.9238 20.68C11.2328 20.5565 11.5061 20.3578 11.7189 20.102C11.9317 19.8462 12.0773 19.5413 12.1425 19.215L12.88 15.5263C13.2305 15.4054 13.5878 15.3053 13.95 15.2263L25.2638 27.6725C25.3516 27.7715 25.4582 27.8521 25.5774 27.9096C25.6966 27.9671 25.826 28.0003 25.9581 28.0075C26.0903 28.0146 26.2225 27.9954 26.3472 27.951C26.4718 27.9066 26.5865 27.8379 26.6844 27.7489C26.7823 27.66 26.8616 27.5524 26.9177 27.4325C26.9737 27.3127 27.0055 27.1829 27.011 27.0506C27.0165 26.9184 26.9957 26.7864 26.9499 26.6623C26.904 26.5382 26.834 26.4244 26.7438 26.3275L6.74129 4.32752ZM12.2038 13.6425C11.8781 13.7586 11.5881 13.9571 11.362 14.2187C11.1359 14.4802 10.9815 14.796 10.9138 15.135L10.1763 18.8225L4.07879 20.985C4.06629 20.985 4.05754 21.0013 4.04504 21.0063C2.50379 19.0188 2.67004 16.4788 4.46504 14.6863C6.07405 13.0767 8.01329 11.8356 10.1488 11.0488L12.4363 13.5663C12.3588 13.5913 12.2813 13.615 12.2038 13.6425ZM29.535 22.2313C29.2708 22.5694 28.9047 22.8136 28.491 22.9277C28.0773 23.0419 27.6378 23.0199 27.2375 22.865L26.0813 22.455C25.9575 22.4111 25.8436 22.3433 25.7461 22.2553C25.6485 22.1674 25.5692 22.0611 25.5128 21.9425C25.3987 21.7031 25.3845 21.4281 25.4732 21.1781C25.5171 21.0544 25.5849 20.9405 25.6729 20.8429C25.7608 20.7454 25.8671 20.6661 25.9857 20.6096C26.2251 20.4956 26.5001 20.4813 26.75 20.57L27.9213 20.985L27.9588 21C29.4963 19.0188 29.3338 16.4788 27.535 14.6863C24.3275 11.4788 19.8 9.77752 15.1163 10.0225C14.985 10.0293 14.8536 10.0102 14.7297 9.96625C14.6057 9.92229 14.4917 9.85435 14.394 9.76631C14.2963 9.67827 14.2169 9.57185 14.1604 9.45313C14.1038 9.33441 14.0712 9.20572 14.0644 9.0744C14.0576 8.94308 14.0767 8.8117 14.1207 8.68777C14.1646 8.56383 14.2326 8.44977 14.3206 8.3521C14.4087 8.25442 14.5151 8.17504 14.6338 8.11849C14.7525 8.06195 14.8812 8.02934 15.0125 8.02252C20.2625 7.74877 25.3413 9.66002 28.9488 13.2725C31.4475 15.7713 31.6888 19.455 29.535 22.2313Z" fill="#343330"/>
</svg>
