<svg width="32" height="32" viewBox="0 0 32 32" fill="none" xmlns="http://www.w3.org/2000/svg">
<path d="M18.2925 13.7075C18.1995 13.6146 18.1258 13.5043 18.0755 13.3829C18.0251 13.2615 17.9992 13.1314 17.9992 13C17.9992 12.8686 18.0251 12.7385 18.0755 12.6171C18.1258 12.4957 18.1995 12.3854 18.2925 12.2925L22.5863 7.99999H20C19.7348 7.99999 19.4804 7.89464 19.2929 7.7071C19.1054 7.51956 19 7.26521 19 6.99999C19 6.73478 19.1054 6.48042 19.2929 6.29289C19.4804 6.10535 19.7348 5.99999 20 5.99999H25C25.2652 5.99999 25.5196 6.10535 25.7071 6.29289C25.8947 6.48042 26 6.73478 26 6.99999V12C26 12.2652 25.8947 12.5196 25.7071 12.7071C25.5196 12.8946 25.2652 13 25 13C24.7348 13 24.4804 12.8946 24.2929 12.7071C24.1054 12.5196 24 12.2652 24 12V9.41374L19.7075 13.7075C19.6146 13.8005 19.5044 13.8742 19.383 13.9246C19.2616 13.9749 19.1314 14.0008 19 14.0008C18.8686 14.0008 18.7385 13.9749 18.6171 13.9246C18.4957 13.8742 18.3854 13.8005 18.2925 13.7075ZM27.985 22.885C27.7621 24.5788 26.9303 26.1335 25.6449 27.2588C24.3595 28.3841 22.7084 29.0031 21 29C11.075 29 3.00001 20.925 3.00001 11C2.99695 9.29161 3.61587 7.64052 4.74118 6.35511C5.86649 5.0697 7.42122 4.23788 9.11501 4.01499C9.54318 3.9626 9.97682 4.05004 10.3512 4.26428C10.7256 4.47851 11.0207 4.80806 11.1925 5.20374L13.8325 11.0987V11.1137C13.9639 11.4168 14.0181 11.7477 13.9904 12.0768C13.9627 12.406 13.8539 12.7231 13.6738 13C13.6513 13.0337 13.6275 13.065 13.6025 13.0962L11 16.1812C11.9363 18.0837 13.9263 20.0562 15.8538 20.995L18.8963 18.4062C18.9261 18.3811 18.9574 18.3578 18.99 18.3362C19.2663 18.151 19.5846 18.0379 19.9159 18.0074C20.2471 17.9768 20.5807 18.0297 20.8863 18.1612L20.9025 18.1687L26.7913 20.8075C27.1879 20.9785 27.5185 21.2732 27.7337 21.6477C27.9489 22.0222 28.037 22.4562 27.985 22.885ZM26 22.635C26 22.635 25.9913 22.635 25.9863 22.635L20.1113 20.0025L17.0675 22.5925C17.038 22.6175 17.0071 22.6409 16.975 22.6625C16.6872 22.8545 16.3545 22.9686 16.0094 22.9935C15.6644 23.0185 15.3187 22.9536 15.0063 22.805C12.665 21.6737 10.3313 19.3575 9.19876 17.0412C9.0488 16.7311 8.9815 16.3874 9.0034 16.0436C9.0253 15.6997 9.13565 15.3674 9.32376 15.0787C9.34496 15.0449 9.36879 15.0127 9.39501 14.9825L12 11.8937L9.37501 6.01874C9.37452 6.01376 9.37452 6.00873 9.37501 6.00374C8.16283 6.16187 7.04986 6.75645 6.24453 7.67614C5.43919 8.59583 4.99674 9.77755 5.00001 11C5.00464 15.242 6.69184 19.309 9.69142 22.3086C12.691 25.3082 16.758 26.9954 21 27C22.2217 27.0042 23.4031 26.5633 24.3233 25.7597C25.2436 24.9561 25.8396 23.8449 26 22.6337V22.635Z" fill="#343330"/>
</svg>
