<svg width="32" height="32" viewBox="0 0 32 32" fill="none" xmlns="http://www.w3.org/2000/svg">
<path d="M28.9488 11.2663C21.93 4.25003 10.07 4.25003 3.05129 11.2663C0.55129 13.7663 0.31129 17.4525 2.46504 20.23C2.65224 20.4701 2.89177 20.6642 3.16536 20.7976C3.43895 20.9311 3.73939 21.0003 4.04379 21C4.28969 21.0002 4.53345 20.9544 4.76254 20.865L10.8875 18.6938L10.9238 18.68C11.2329 18.5564 11.5063 18.3575 11.7191 18.1015C11.932 17.8454 12.0775 17.5403 12.1425 17.2138L12.88 13.5238C14.8909 12.8287 17.0761 12.8238 19.09 13.51L19.8663 17.2288C19.9336 17.5517 20.0798 17.853 20.2918 18.1058C20.5038 18.3586 20.775 18.555 21.0813 18.6775L21.1175 18.6913L27.2425 20.865C27.6427 21.02 28.0821 21.0422 28.4958 20.9283C28.9095 20.8144 29.2756 20.5705 29.54 20.2325C31.6888 17.4525 31.4475 13.7663 28.9488 11.2663ZM27.9588 19L27.9213 18.985L21.8188 16.8188L21.0425 13.1013C20.9721 12.7649 20.8162 12.4523 20.5898 12.1938C20.3634 11.9352 20.0742 11.7393 19.75 11.625C17.3046 10.7878 14.6493 10.7935 12.2075 11.6413C11.8809 11.758 11.5902 11.9576 11.3641 12.2206C11.1379 12.4836 10.984 12.8009 10.9175 13.1413L10.18 16.83L4.07879 18.9825C4.06629 18.9825 4.05754 18.9988 4.04504 19.0038C2.50379 17.015 2.67004 14.475 4.46504 12.6813C7.59004 9.55628 11.7963 7.99003 16 7.99003C20.2038 7.99003 24.4088 9.55378 27.535 12.6813C29.3263 14.475 29.5 17.015 27.9588 19ZM27.9988 25C27.9988 25.2652 27.8934 25.5196 27.7059 25.7071C27.5184 25.8947 27.264 26 26.9988 26H5.00004C4.73482 26 4.48047 25.8947 4.29293 25.7071C4.1054 25.5196 4.00004 25.2652 4.00004 25C4.00004 24.7348 4.1054 24.4805 4.29293 24.2929C4.48047 24.1054 4.73482 24 5.00004 24H27C27.2653 24 27.5196 24.1054 27.7071 24.2929C27.8947 24.4805 28 24.7348 28 25H27.9988Z" fill="#343330"/>
</svg>
