<svg width="32" height="32" viewBox="0 0 32 32" fill="none" xmlns="http://www.w3.org/2000/svg">
<path d="M17 9.00001C17 8.73479 17.1054 8.48044 17.2929 8.2929C17.4804 8.10536 17.7348 8.00001 18 8.00001H24.5863L22.2925 5.70751C22.1996 5.6146 22.1259 5.5043 22.0756 5.3829C22.0253 5.26151 21.9995 5.1314 21.9995 5.00001C21.9995 4.86861 22.0253 4.7385 22.0756 4.61711C22.1259 4.49572 22.1996 4.38542 22.2925 4.29251C22.3854 4.1996 22.4957 4.1259 22.6171 4.07561C22.7385 4.02533 22.8686 3.99945 23 3.99945C23.1314 3.99945 23.2615 4.02533 23.3829 4.07561C23.5043 4.1259 23.6146 4.1996 23.7075 4.29251L27.7075 8.29251C27.8005 8.38538 27.8743 8.49567 27.9246 8.61707C27.9749 8.73846 28.0008 8.86859 28.0008 9.00001C28.0008 9.13142 27.9749 9.26155 27.9246 9.38295C27.8743 9.50434 27.8005 9.61463 27.7075 9.70751L23.7075 13.7075C23.5199 13.8951 23.2654 14.0006 23 14.0006C22.7346 14.0006 22.4802 13.8951 22.2925 13.7075C22.1049 13.5199 21.9995 13.2654 21.9995 13C21.9995 12.7346 22.1049 12.4801 22.2925 12.2925L24.5863 10H18C17.7348 10 17.4804 9.89465 17.2929 9.70711C17.1054 9.51958 17 9.26522 17 9.00001ZM27.9838 22.885C27.7614 24.5788 26.9299 26.1337 25.6447 27.259C24.3594 28.3844 22.7083 29.0033 21 29C11.075 29 3.00001 20.925 3.00001 11C2.99672 9.29169 3.61559 7.64062 4.74097 6.35536C5.86635 5.0701 7.42122 4.2386 9.11501 4.01626C9.54318 3.96386 9.97682 4.05131 10.3512 4.26554C10.7256 4.47978 11.0207 4.80932 11.1925 5.20501L13.8325 11.0988V11.1138C13.9639 11.4168 14.0181 11.7477 13.9904 12.0769C13.9627 12.406 13.8539 12.7232 13.6738 13C13.6513 13.0338 13.6275 13.065 13.6025 13.0963L11 16.1813C11.9363 18.0838 13.9263 20.0563 15.8538 20.995L18.8963 18.4063C18.9261 18.3811 18.9574 18.3578 18.99 18.3363C19.2668 18.1515 19.5852 18.0388 19.9166 18.0082C20.2479 17.9777 20.5816 18.0303 20.8875 18.1613L20.9013 18.1688L26.79 20.8075C27.1866 20.9785 27.5172 21.2732 27.7324 21.6477C27.9476 22.0222 28.0358 22.4563 27.9838 22.885ZM26 22.635C26 22.635 25.9913 22.635 25.9863 22.635L20.1113 20.0038L17.0675 22.5925C17.0381 22.6176 17.0072 22.641 16.975 22.6625C16.6872 22.8545 16.3545 22.9686 16.0094 22.9936C15.6644 23.0185 15.3187 22.9536 15.0063 22.805C12.665 21.68 10.3313 19.3575 9.19876 17.0413C9.0488 16.7311 8.98151 16.3874 9.00341 16.0436C9.02531 15.6997 9.13566 15.3674 9.32376 15.0788C9.34529 15.0451 9.36909 15.0129 9.39501 14.9825L12 11.8938L9.37501 6.01876C9.37452 6.01377 9.37452 6.00874 9.37501 6.00376C8.16283 6.16188 7.04986 6.75646 6.24453 7.67615C5.4392 8.59584 4.99674 9.77756 5.00001 11C5.00465 15.242 6.69184 19.309 9.69142 22.3086C12.691 25.3082 16.758 26.9954 21 27C22.2217 27.0042 23.4031 26.5633 24.3233 25.7597C25.2436 24.9561 25.8396 23.8449 26 22.6338V22.635Z" fill="#343330"/>
</svg>
