<svg width="32" height="32" viewBox="0 0 32 32" fill="none" xmlns="http://www.w3.org/2000/svg">
<path d="M19 4H9C8.73478 4 8.48043 4.10536 8.29289 4.29289C8.10536 4.48043 8 4.73478 8 5V21C8.00298 23.6513 9.0575 26.1931 10.9322 28.0678C12.8069 29.9425 15.3487 30.997 18 31C18.2652 31 18.5196 30.8946 18.7071 30.7071C18.8946 30.5196 19 30.2652 19 30V22C21.3869 22 23.6761 21.0518 25.364 19.364C27.0518 17.6761 28 15.3869 28 13C28 10.6131 27.0518 8.32387 25.364 6.63604C23.6761 4.94821 21.3869 4 19 4ZM10 8.8175L16.29 20H10V8.8175ZM17 17.1825L10.71 6H17V17.1825ZM10.0638 22H17V28.9375C15.2389 28.7124 13.6023 27.909 12.347 26.6534C11.0916 25.3979 10.2886 23.7612 10.0638 22ZM19 20V6C20.8565 6 22.637 6.7375 23.9497 8.05025C25.2625 9.36301 26 11.1435 26 13C26 14.8565 25.2625 16.637 23.9497 17.9497C22.637 19.2625 20.8565 20 19 20Z" fill="#343330"/>
</svg>
