<svg width="32" height="32" viewBox="0 0 32 32" fill="none" xmlns="http://www.w3.org/2000/svg">
<path d="M31 16H25.1175L21.6175 9H24C24.2652 9 24.5196 8.89464 24.7071 8.70711C24.8946 8.51957 25 8.26522 25 8C25 7.73478 24.8946 7.48043 24.7071 7.29289C24.5196 7.10536 24.2652 7 24 7H8C7.73478 7 7.48043 7.10536 7.29289 7.29289C7.10536 7.48043 7 7.73478 7 8C7 8.26522 7.10536 8.51957 7.29289 8.70711C7.48043 8.89464 7.73478 9 8 9H10.3825L6.8825 16H1C0.734784 16 0.48043 16.1054 0.292893 16.2929C0.105357 16.4804 0 16.7348 0 17C0 17.2652 0.105357 17.5196 0.292893 17.7071C0.48043 17.8946 0.734784 18 1 18H5.8825L3.105 23.5525C2.98654 23.7897 2.96713 24.0643 3.05105 24.3158C3.13496 24.5673 3.31533 24.7752 3.5525 24.8937C3.69122 24.9639 3.84455 25.0003 4 25C4.18599 25.0004 4.3684 24.9489 4.52672 24.8513C4.68505 24.7537 4.81302 24.6138 4.89625 24.4475L8.1175 18H23.8825L27.105 24.4475C27.1881 24.6136 27.3159 24.7533 27.474 24.8509C27.6321 24.9485 27.8142 25.0001 28 25C28.155 25.0001 28.3079 24.9637 28.4463 24.8937C28.6834 24.7752 28.8638 24.5673 28.9477 24.3158C29.0316 24.0643 29.0122 23.7897 28.8937 23.5525L26.1175 18H31C31.2652 18 31.5196 17.8946 31.7071 17.7071C31.8946 17.5196 32 17.2652 32 17C32 16.7348 31.8946 16.4804 31.7071 16.2929C31.5196 16.1054 31.2652 16 31 16ZM9.1175 16L12.6175 9H19.3825L22.8825 16H9.1175Z" fill="#343330"/>
</svg>
