<svg width="32" height="32" viewBox="0 0 32 32" fill="none" xmlns="http://www.w3.org/2000/svg">
<path d="M30 24.5C29.976 24.2105 29.8892 23.9297 29.7456 23.6771C29.6021 23.4245 29.4052 23.2063 29.1687 23.0375L24.4187 19.6438L26.5437 17.525C27.1235 16.9501 27.5524 16.241 27.7923 15.4606C28.0321 14.6801 28.0756 13.8525 27.9187 13.0513C27.337 10.1953 25.7709 7.63424 23.4937 5.81501C21.1811 3.95335 18.291 2.9577 15.3225 3.00001C12.0715 3.05499 8.9691 4.3709 6.66999 6.67C4.37088 8.96911 3.05497 12.0715 3 15.3225C2.96337 18.2873 3.95998 21.1724 5.81875 23.4825C7.63797 25.7597 10.199 27.3258 13.055 27.9075C13.8563 28.0642 14.6838 28.0207 15.4643 27.7809C16.2447 27.541 16.9538 27.1122 17.5287 26.5325L19.6475 24.4075L23.0412 29.1575C23.2085 29.3956 23.4256 29.5943 23.6776 29.7398C23.9295 29.8854 24.2102 29.9741 24.5 30C24.555 30 24.61 30.0063 24.665 30.0063C25.1953 30.006 25.7039 29.7951 26.0787 29.42L29.4087 26.09C29.6178 25.8845 29.7791 25.6356 29.8813 25.3608C29.9835 25.086 30.024 24.7922 30 24.5ZM7.375 22.2288C5.80937 20.2822 4.96971 17.8516 5 15.3538C5.04626 12.6229 6.15144 10.0167 8.0824 8.08505C10.0134 6.15339 12.6191 5.04727 15.35 5.00001C17.8475 4.9717 20.2775 5.81114 22.225 7.37501C23.149 8.11723 23.9424 9.00868 24.5725 10.0125L10.0125 24.5725C9.00896 23.9436 8.11753 23.1514 7.375 22.2288ZM24.6687 28L20.59 22.2888C20.5055 22.1706 20.3964 22.0723 20.2701 22.0007C20.1438 21.929 20.0035 21.8857 19.8587 21.8738C19.8312 21.8738 19.8037 21.8738 19.7762 21.8738C19.6449 21.8737 19.5148 21.8994 19.3934 21.9496C19.272 21.9998 19.1617 22.0734 19.0687 22.1663L16.115 25.12C15.7727 25.4674 15.3498 25.7249 14.884 25.8695C14.4182 26.0141 13.9239 26.0413 13.445 25.9488C12.9217 25.844 12.4076 25.6977 11.9075 25.5113L25.5075 11.9113C25.6938 12.4114 25.8401 12.9255 25.945 13.4488C26.0376 13.9276 26.0105 14.422 25.8659 14.8878C25.7213 15.3536 25.4638 15.7765 25.1162 16.1188L22.1625 19.0688C22.0597 19.1714 21.9805 19.2952 21.9304 19.4316C21.8803 19.5679 21.8605 19.7136 21.8724 19.8584C21.8843 20.0032 21.9276 20.1436 21.9993 20.27C22.0709 20.3963 22.1693 20.5055 22.2875 20.59L28 24.6688L24.6687 28Z" fill="#343330"/>
</svg>
