<svg width="32" height="32" viewBox="0 0 32 32" fill="none" xmlns="http://www.w3.org/2000/svg">
<path d="M25.75 3.33625C25.6559 3.23027 25.5404 3.14548 25.4111 3.08751C25.2818 3.02954 25.1417 2.99971 25 3H6.99998C6.85807 2.99995 6.71778 3.03011 6.58843 3.08846C6.45908 3.14681 6.34363 3.23202 6.24975 3.33844C6.15587 3.44485 6.08571 3.57002 6.04394 3.70564C6.00217 3.84126 5.98974 3.98421 6.00748 4.125L8.90123 28.25C8.96216 28.7336 9.19763 29.1784 9.56339 29.5006C9.92915 29.8229 10.4 30.0005 10.8875 30H21.1125C21.6017 30.0001 22.0739 29.821 22.4399 29.4964C22.806 29.1719 23.0403 28.7244 23.0987 28.2388L25.9925 4.125C26.0105 3.98385 25.9982 3.84047 25.9564 3.70445C25.9146 3.56843 25.8442 3.4429 25.75 3.33625ZM23.875 5L23.5125 8H8.48748L8.12498 5H23.875ZM21.1125 28H10.8875L8.72748 10H23.2725L21.1125 28Z" fill="#343330"/>
</svg>
