<svg width="32" height="32" viewBox="0 0 32 32" fill="none" xmlns="http://www.w3.org/2000/svg">
<path d="M28 14C28 16.8212 27.0125 19.4 25.2213 21.2637C23.5488 23 21.2813 24 19 24C16.765 24 15.2725 23.2675 14.3213 22.5L12.9738 28.2275C12.9224 28.4472 12.7983 28.6432 12.6215 28.7834C12.4447 28.9237 12.2257 29 12 29C11.9226 28.9999 11.8454 28.9911 11.77 28.9737C11.6417 28.9443 11.5204 28.8898 11.4132 28.8133C11.306 28.7369 11.2149 28.64 11.1452 28.5283C11.0755 28.4166 11.0286 28.2922 11.0071 28.1623C10.9856 28.0323 10.99 27.8995 11.02 27.7712L15.02 10.7712C15.0807 10.513 15.2414 10.2894 15.467 10.1497C15.6925 10.01 15.9642 9.96557 16.2225 10.0262C16.4808 10.0869 16.7043 10.2477 16.844 10.4732C16.9838 10.6987 17.0282 10.9705 16.9675 11.2287L14.855 20.2037C15.25 20.75 16.4125 22 19 22C22.4413 22 26 19.0075 26 14C25.9995 12.6198 25.6815 11.2583 25.0707 10.0206C24.4599 8.78294 23.5727 7.70233 22.4776 6.86233C21.3825 6.02233 20.1088 5.44545 18.7552 5.1763C17.4015 4.90714 16.004 4.95292 14.6709 5.31009C13.3377 5.66727 12.1046 6.32627 11.0668 7.23614C10.029 8.14601 9.21439 9.28237 8.68591 10.5574C8.15744 11.8323 7.92928 13.2118 8.01907 14.589C8.10886 15.9663 8.5142 17.3044 9.20375 18.5C9.32814 18.7291 9.35817 18.9976 9.28744 19.2485C9.21672 19.4994 9.05084 19.7127 8.82513 19.8431C8.59942 19.9735 8.33173 20.0106 8.07907 19.9465C7.82642 19.8824 7.60877 19.7222 7.4725 19.5C6.62929 18.0388 6.13348 16.4032 6.02343 14.7197C5.91338 13.0362 6.19203 11.35 6.83783 9.79138C7.48362 8.23281 8.47927 6.84366 9.74775 5.73138C11.0162 4.61911 12.5236 3.8135 14.1531 3.37688C15.7827 2.94026 17.4909 2.88432 19.1456 3.21339C20.8003 3.54246 22.3571 4.24772 23.6956 5.27463C25.0341 6.30153 26.1185 7.62256 26.8649 9.13554C27.6113 10.6485 27.9997 12.3129 28 14Z" fill="#343330"/>
</svg>
