<svg width="32" height="32" viewBox="0 0 32 32" fill="none" xmlns="http://www.w3.org/2000/svg">
<path d="M28.7075 27.2925L22.655 21.2412C22.7925 21.2 22.9287 21.1562 23.0637 21.1075C24.9316 20.4271 26.453 19.033 27.2935 17.2315C28.134 15.43 28.2249 13.3685 27.5462 11.5C27.4555 11.2509 27.2696 11.0481 27.0293 10.936C26.7891 10.824 26.5141 10.8119 26.265 10.9025L20.74 12.9125C20.78 12.835 20.82 12.7575 20.8562 12.6775C21.4834 11.3336 21.6981 9.83386 21.473 8.36796C21.248 6.90206 20.5935 5.53577 19.5921 4.44182C18.5907 3.34786 17.2875 2.57535 15.8471 2.22193C14.4068 1.86851 12.894 1.95005 11.5 2.45625C11.3762 2.50069 11.2624 2.56911 11.1651 2.65759C11.0678 2.74607 10.9889 2.85287 10.933 2.97189C10.877 3.0909 10.8451 3.21979 10.839 3.35116C10.8329 3.48254 10.8528 3.61382 10.8975 3.7375L12.9075 9.2625C12.83 9.2225 12.7525 9.1825 12.6725 9.14625C11.3283 8.51987 9.82852 8.30606 8.36281 8.53185C6.8971 8.75763 5.53123 9.41288 4.43783 10.4148C3.34444 11.4167 2.57261 12.7202 2.2199 14.1607C1.86719 15.6011 1.94944 17.1138 2.45625 18.5075C2.547 18.7566 2.73293 18.9594 2.97319 19.0715C3.21344 19.1835 3.48836 19.1956 3.7375 19.105L9.2625 17.0937C9.2225 17.1725 9.1825 17.25 9.14625 17.33C8.51987 18.6742 8.30606 20.174 8.53185 21.6397C8.75763 23.1054 9.41288 24.4713 10.4148 25.5647C11.4167 26.6581 12.7202 27.4299 14.1607 27.7826C15.6011 28.1353 17.1138 28.0531 18.5075 27.5462C18.7566 27.4555 18.9594 27.2696 19.0715 27.0293C19.1835 26.7891 19.1956 26.5141 19.105 26.265L17.0937 20.74C17.1725 20.78 17.25 20.82 17.33 20.8562C18.2123 21.2694 19.1669 21.5064 20.14 21.5537L27.2925 28.7075C27.4801 28.8951 27.7346 29.0006 28 29.0006C28.2654 29.0006 28.5199 28.8951 28.7075 28.7075C28.8951 28.5199 29.0006 28.2654 29.0006 28C29.0006 27.7346 28.8951 27.4801 28.7075 27.2925ZM16.3837 4.51875C17.2938 4.9416 18.0708 5.60537 18.6306 6.43816C19.1905 7.27096 19.5118 8.24104 19.5598 9.24337C19.6078 10.2457 19.3807 11.2421 18.9031 12.1246C18.4254 13.0071 17.7154 13.7421 16.85 14.25L13.1487 4.07875C14.2467 3.89164 15.3756 4.04519 16.3837 4.51875ZM4.07875 16.8525C3.86151 15.5825 4.09701 14.2766 4.74415 13.1626C5.3913 12.0485 6.40903 11.1969 7.6198 10.7565C8.83058 10.3161 10.1576 10.3147 11.3693 10.7525C12.581 11.1904 13.6005 12.0398 14.25 13.1525L4.07875 16.8525ZM13.625 25.4837C12.7162 25.0604 11.9404 24.3967 11.3815 23.5644C10.8225 22.7321 10.5017 21.7629 10.4537 20.7615C10.4057 19.7601 10.6323 18.7646 11.1091 17.8826C11.5858 17.0007 12.2946 16.2658 13.1587 15.7575L16.8587 25.9237C15.7612 26.1108 14.6327 25.9573 13.625 25.4837ZM20.57 19.5612H20.5562C19.59 19.5686 18.6387 19.322 17.7976 18.8462C16.9566 18.3704 16.2552 17.682 15.7637 16.85L25.93 13.1487C26.0605 13.9317 26.0202 14.7336 25.8119 15.4995C25.6036 16.2655 25.2322 16.9773 24.7232 17.5864C24.2141 18.1954 23.5794 18.6872 22.8626 19.028C22.1457 19.3689 21.3637 19.5508 20.57 19.5612Z" fill="#343330"/>
</svg>
