<svg width="32" height="32" viewBox="0 0 32 32" fill="none" xmlns="http://www.w3.org/2000/svg">
<path d="M27.535 6.875L27.5138 6.85375L21.9013 1.56875C21.5256 1.19985 21.0195 0.994005 20.493 0.995878C19.9664 0.99775 19.4619 1.20719 19.0888 1.57875L13.5213 7.10875L13.3288 6.91375C12.7352 6.37296 11.9563 6.0814 11.1535 6.09955C10.3507 6.1177 9.58575 6.44416 9.01724 7.01123C8.44873 7.57829 8.12032 8.34243 8.10012 9.14515C8.07993 9.94787 8.3695 10.7276 8.90878 11.3225L9.09128 11.5075L6.58628 14C6.40051 14.1857 6.25316 14.4062 6.15262 14.6489C6.05208 14.8916 6.00033 15.1517 6.00033 15.4144C6.00033 15.6771 6.05208 15.9372 6.15262 16.1798C6.25316 16.4225 6.40051 16.643 6.58628 16.8288L8.17128 18.4137C8.54616 18.7874 9.05387 18.9972 9.58316 18.9972C10.1124 18.9972 10.6201 18.7874 10.995 18.4137L13.4863 15.9575L15 17.5L6.91378 25.6712C6.60097 25.9559 6.34921 26.3011 6.17374 26.6859C5.99826 27.0708 5.90273 27.4872 5.89293 27.91C5.88313 28.3329 5.95926 28.7533 6.11671 29.1458C6.27417 29.5384 6.50967 29.8949 6.80895 30.1937C7.10823 30.4926 7.46506 30.7276 7.85782 30.8845C8.25059 31.0414 8.67112 31.1169 9.09393 31.1065C9.51675 31.0961 9.93306 31 10.3176 30.824C10.7022 30.648 11.0471 30.3957 11.3313 30.0825L22.415 18.9137C22.7891 18.5388 22.9991 18.0308 22.9991 17.5012C22.9991 16.9717 22.7891 16.4637 22.415 16.0888L17.9538 11.5825L19.57 10L19.5825 10.0112L24.25 14.425C24.6261 14.7949 25.133 15.0012 25.6605 14.9991C26.1879 14.997 26.6932 14.7866 27.0663 14.4137L27.53 13.95C27.9944 13.4857 28.3627 12.9345 28.614 12.3279C28.8652 11.7212 28.9946 11.071 28.9946 10.4144C28.9946 9.75774 28.8652 9.10754 28.614 8.5009C28.3627 7.89425 27.9944 7.34305 27.53 6.87875L27.535 6.875ZM9.58628 17L8.00003 15.4163L10.5 12.9312L12.0863 14.5387L9.58628 17ZM9.91378 28.6712C9.81319 28.7904 9.68892 28.8874 9.54886 28.956C9.4088 29.0246 9.25601 29.0633 9.10019 29.0697C8.94436 29.0761 8.78891 29.05 8.6437 28.9931C8.49849 28.9363 8.36669 28.8498 8.25668 28.7393C8.14666 28.6287 8.06083 28.4965 8.00463 28.351C7.94843 28.2056 7.9231 28.05 7.93023 27.8942C7.93736 27.7384 7.97681 27.5858 8.04606 27.4461C8.11532 27.3063 8.21287 27.1825 8.33253 27.0825L16.4163 18.9112C16.7892 18.5365 16.9985 18.0293 16.9985 17.5006C16.9985 16.9719 16.7892 16.4648 16.4163 16.09L10.3288 9.91375C10.1457 9.69872 10.0502 9.42271 10.0613 9.14054C10.0723 8.85836 10.1891 8.59065 10.3884 8.39058C10.5876 8.1905 10.8549 8.07269 11.137 8.06054C11.4191 8.0484 11.6955 8.1428 11.9113 8.325L21 17.5L9.91378 28.6712ZM26.125 12.535L25.6563 13C25.6503 12.9927 25.6436 12.986 25.6363 12.98L20.9613 8.5625C20.5848 8.1999 20.0816 7.99857 19.5589 8.00137C19.0361 8.00417 18.5351 8.21088 18.1625 8.5775L16.5463 10.1613L14.9288 8.52875L20.5 3L20.5213 3.02L26.1313 8.3025C26.6895 8.86601 27.0018 9.62765 26.9999 10.4208C26.998 11.214 26.6821 11.9741 26.1213 12.535H26.125Z" fill="#343330"/>
</svg>
