<svg width="32" height="32" viewBox="0 0 32 32" fill="none" xmlns="http://www.w3.org/2000/svg">
<path d="M29 13H26V7H29C29.2652 7 29.5196 6.89464 29.7071 6.70711C29.8946 6.51957 30 6.26522 30 6C30 5.73478 29.8946 5.48043 29.7071 5.29289C29.5196 5.10536 29.2652 5 29 5H25.7288C25.5535 4.69645 25.3015 4.44428 24.9981 4.26877C24.6947 4.09327 24.3505 4.00058 24 4H22C21.6495 4.00058 21.3053 4.09327 21.0019 4.26877C20.6985 4.44428 20.4465 4.69645 20.2712 5H18C14.5533 5.00364 11.2488 6.37445 8.81163 8.81163C6.37445 11.2488 5.00364 14.5533 5 18V20.27C4.69626 20.4454 4.44398 20.6975 4.26846 21.0012C4.09294 21.3048 4.00036 21.6493 4 22V24C4.00036 24.3507 4.09294 24.6952 4.26846 24.9988C4.44398 25.3025 4.69626 25.5546 5 25.73V29C5 29.2652 5.10536 29.5196 5.29289 29.7071C5.48043 29.8946 5.73478 30 6 30C6.26522 30 6.51957 29.8946 6.70711 29.7071C6.89464 29.5196 7 29.2652 7 29V26H13V29C13 29.2652 13.1054 29.5196 13.2929 29.7071C13.4804 29.8946 13.7348 30 14 30C14.2652 30 14.5196 29.8946 14.7071 29.7071C14.8946 29.5196 15 29.2652 15 29V25.73C15.3037 25.5546 15.556 25.3025 15.7315 24.9988C15.9071 24.6952 15.9996 24.3507 16 24V22C15.9996 21.6493 15.9071 21.3048 15.7315 21.0012C15.556 20.6975 15.3037 20.4454 15 20.27V18C15 17.2044 15.3161 16.4413 15.8787 15.8787C16.4413 15.3161 17.2044 15 18 15H20.2712C20.4465 15.3036 20.6985 15.5557 21.0019 15.7312C21.3053 15.9067 21.6495 15.9994 22 16H24C24.3505 15.9994 24.6947 15.9067 24.9981 15.7312C25.3015 15.5557 25.5535 15.3036 25.7288 15H29C29.2652 15 29.5196 14.8946 29.7071 14.7071C29.8946 14.5196 30 14.2652 30 14C30 13.7348 29.8946 13.4804 29.7071 13.2929C29.5196 13.1054 29.2652 13 29 13ZM14 22V24H6V22H14ZM13 18V20H7V18C7.00331 15.0836 8.1633 12.2877 10.2255 10.2255C12.2877 8.1633 15.0836 7.00331 18 7H20V13H18C16.6739 13 15.4021 13.5268 14.4645 14.4645C13.5268 15.4021 13 16.6739 13 18ZM22 14V6H24V13.975C24 13.9838 24 13.9913 24 14H22Z" fill="#343330"/>
</svg>
