<svg width="32" height="32" viewBox="0 0 32 32" fill="none" xmlns="http://www.w3.org/2000/svg">
<path d="M29.4174 14.59L17.4099 2.5825C17.0352 2.21 16.5283 2.00092 15.9999 2.00092C15.4716 2.00092 14.9647 2.21 14.5899 2.5825L2.58244 14.59C2.20994 14.9647 2.00085 15.4716 2.00085 16C2.00085 16.5284 2.20994 17.0353 2.58244 17.41L14.5899 29.4175C14.9647 29.79 15.4716 29.9991 15.9999 29.9991C16.5283 29.9991 17.0352 29.79 17.4099 29.4175L29.4174 17.41C29.7899 17.0353 29.999 16.5284 29.999 16C29.999 15.4716 29.7899 14.9647 29.4174 14.59ZM15.9999 4L22.9999 11H19.9999C19.8686 10.9999 19.7385 11.0257 19.6171 11.0759C19.4957 11.1261 19.3854 11.1997 19.2924 11.2925L15.9999 14.585L12.7074 11.2925C12.6145 11.1997 12.5042 11.1261 12.3828 11.0759C12.2614 11.0257 12.1313 10.9999 11.9999 11H8.99994L15.9999 4ZM6.99994 13H11.5849L14.5849 16L11.5849 19H6.99994L3.99994 16L6.99994 13ZM15.9999 28L8.99994 21H11.9999C12.1313 21.0001 12.2614 20.9743 12.3828 20.9241C12.5042 20.8739 12.6145 20.8003 12.7074 20.7075L15.9999 17.4138L19.2924 20.7075C19.3854 20.8003 19.4957 20.8739 19.6171 20.9241C19.7385 20.9743 19.8686 21.0001 19.9999 21H22.9999L15.9999 28ZM24.9999 19H20.4149L17.4149 16L20.4149 13H24.9999L27.9999 16L24.9999 19Z" fill="#343330"/>
</svg>
