<svg width="32" height="32" viewBox="0 0 32 32" fill="none" xmlns="http://www.w3.org/2000/svg">
<path d="M30.6387 7.585C29.6825 5.93625 27.1587 5.565 23.3262 6.5025C21.5519 5.13056 19.4284 4.28372 17.1969 4.05821C14.9654 3.8327 12.7154 4.23754 10.7025 5.22675C8.68955 6.21597 6.99441 7.74989 5.80961 9.65427C4.62481 11.5587 3.99786 13.7571 3.99997 16C4.00013 16.5145 4.0327 17.0284 4.09747 17.5388C0.636224 21.125 0.686224 23.25 1.36247 24.415C1.99997 25.52 3.32997 26 5.07997 26C6.295 25.9749 7.50287 25.8071 8.67872 25.5C10.4532 26.8706 12.5765 27.7162 14.8074 27.9409C17.0383 28.1655 19.2876 27.7601 21.2997 26.7708C23.3118 25.7815 25.0063 24.2478 26.1906 22.3439C27.375 20.44 28.0018 18.2422 28 16C28.0002 15.4881 27.9681 14.9766 27.9037 14.4688C29.4662 12.8438 30.5062 11.3 30.86 9.97875C31.1037 9.06375 31.03 8.25875 30.6387 7.585ZM16 6C18.2649 6.00233 20.4622 6.77242 22.233 8.18454C24.0038 9.59666 25.2436 11.5674 25.75 13.775C23.6175 15.7825 20.7312 17.8413 17.9912 19.4163C14.5475 21.3925 11.56 22.625 9.17747 23.3C7.71007 21.9314 6.68869 20.1527 6.2463 18.1955C5.80392 16.2383 5.96103 14.1933 6.69717 12.3266C7.43332 10.4599 8.7144 8.85812 10.3736 7.72972C12.0329 6.60132 13.9934 5.99859 16 6ZM3.09247 23.4113C2.90997 23.0975 3.01122 22.5063 3.36997 21.7863C3.72473 21.1117 4.15635 20.4804 4.65622 19.905C5.15172 21.3406 5.91524 22.6691 6.90622 23.82C4.74997 24.1825 3.40497 23.9513 3.09247 23.4113ZM16 26C14.3139 26.0017 12.6551 25.5741 11.18 24.7575C13.8876 23.7999 16.5001 22.5922 18.9837 21.15C21.6812 19.6013 24.0687 17.9225 25.9925 16.265C25.9212 18.8689 24.8376 21.3425 22.9718 23.1603C21.1059 24.978 18.6049 25.9967 16 26ZM28.9275 9.46125C28.715 10.25 28.1537 11.1525 27.3487 12.1025C26.8545 10.6652 26.0909 9.33519 25.0987 8.18375C26.875 7.89 28.52 7.9125 28.9112 8.58875C29.0237 8.785 29.03 9.07875 28.9275 9.46125Z" fill="#343330"/>
</svg>
