<svg width="32" height="32" viewBox="0 0 32 32" fill="none" xmlns="http://www.w3.org/2000/svg">
<path d="M29.05 14.3112L11.04 3.29375C10.7364 3.10781 10.3886 3.00631 10.0326 2.99972C9.67661 2.99312 9.32532 3.08168 9.015 3.25625C8.70764 3.4281 8.4516 3.67872 8.2732 3.98234C8.09481 4.28595 8.00051 4.6316 8 4.98375V27.0162C8.00232 27.5445 8.21429 28.0502 8.58933 28.4222C8.96437 28.7941 9.47177 29.002 10 29C10.3687 28.9998 10.7302 28.8982 11.045 28.7062L29.05 17.6887C29.3394 17.5123 29.5786 17.2645 29.7446 16.969C29.9105 16.6734 29.9977 16.3402 29.9977 16.0012C29.9977 15.6623 29.9105 15.3291 29.7446 15.0335C29.5786 14.738 29.3394 14.4901 29.05 14.3137V14.3112ZM10 26.9925V5L27.9788 16L10 26.9925Z" fill="#343330"/>
</svg>
