<svg width="32" height="32" viewBox="0 0 32 32" fill="none" xmlns="http://www.w3.org/2000/svg">
<path d="M18.7074 17.2925C18.6146 17.1995 18.5043 17.1258 18.3829 17.0754C18.2615 17.0251 18.1314 16.9992 17.9999 16.9992C17.8685 16.9992 17.7384 17.0251 17.617 17.0754C17.4956 17.1258 17.3853 17.1995 17.2924 17.2925L14.9999 19.5862L12.4137 17L14.7074 14.7075C14.8951 14.5199 15.0005 14.2654 15.0005 14C15.0005 13.7346 14.8951 13.4801 14.7074 13.2925C14.5198 13.1049 14.2653 12.9994 13.9999 12.9994C13.7346 12.9994 13.4801 13.1049 13.2924 13.2925L10.9999 15.5862L8.70745 13.2925C8.51981 13.1049 8.26531 12.9994 7.99995 12.9994C7.73458 12.9994 7.48009 13.1049 7.29245 13.2925C7.1048 13.4801 6.99939 13.7346 6.99939 14C6.99939 14.2654 7.1048 14.5199 7.29245 14.7075L8.0862 15.5L5.1712 18.4137C4.79966 18.7852 4.50495 19.2262 4.30387 19.7115C4.10279 20.1969 3.9993 20.7171 3.9993 21.2425C3.9993 21.7679 4.10279 22.2881 4.30387 22.7734C4.50495 23.2588 4.79966 23.6998 5.1712 24.0712L5.8437 24.7425L2.29245 28.2925C2.19954 28.3854 2.12584 28.4957 2.07555 28.6171C2.02527 28.7385 1.99939 28.8686 1.99939 29C1.99939 29.1314 2.02527 29.2615 2.07555 29.3829C2.12584 29.5043 2.19954 29.6146 2.29245 29.7075C2.48009 29.8951 2.73458 30.0005 2.99995 30.0005C3.13134 30.0005 3.26145 29.9747 3.38284 29.9244C3.50424 29.8741 3.61454 29.8004 3.70745 29.7075L7.25745 26.1562L7.9287 26.8287C8.30014 27.2003 8.74114 27.495 9.2265 27.6961C9.71186 27.8971 10.2321 28.0006 10.7574 28.0006C11.2828 28.0006 11.803 27.8971 12.2884 27.6961C12.7738 27.495 13.2147 27.2003 13.5862 26.8287L16.4999 23.9137L17.2924 24.7075C17.3854 24.8004 17.4957 24.8741 17.617 24.9244C17.7384 24.9747 17.8686 25.0005 17.9999 25.0005C18.1313 25.0005 18.2614 24.9747 18.3828 24.9244C18.5042 24.8741 18.6145 24.8004 18.7074 24.7075C18.8004 24.6146 18.8741 24.5043 18.9243 24.3829C18.9746 24.2615 19.0005 24.1314 19.0005 24C19.0005 23.8686 18.9746 23.7385 18.9243 23.6171C18.8741 23.4957 18.8004 23.3854 18.7074 23.2925L16.4137 21L18.7074 18.7075C18.8004 18.6146 18.8742 18.5043 18.9245 18.3829C18.9748 18.2615 19.0007 18.1314 19.0007 18C19.0007 17.8686 18.9748 17.7385 18.9245 17.6171C18.8742 17.4957 18.8004 17.3854 18.7074 17.2925ZM12.1712 25.4175C11.7962 25.7923 11.2877 26.0028 10.7574 26.0028C10.2272 26.0028 9.71873 25.7923 9.3437 25.4175L6.5862 22.6562C6.21141 22.2812 6.00087 21.7727 6.00087 21.2425C6.00087 20.7123 6.21141 20.2038 6.5862 19.8287L9.49995 16.9137L15.0862 22.5L12.1712 25.4175ZM29.7074 2.29249C29.6146 2.19952 29.5043 2.12576 29.3829 2.07543C29.2615 2.02511 29.1314 1.99921 28.9999 1.99921C28.8685 1.99921 28.7384 2.02511 28.617 2.07543C28.4956 2.12576 28.3853 2.19952 28.2924 2.29249L24.7424 5.84374L24.0712 5.17124C23.3202 4.42243 22.303 4.00193 21.2424 4.00193C20.1819 4.00193 19.1647 4.42243 18.4137 5.17124L15.4999 8.08624L14.7074 7.29249C14.5198 7.10485 14.2653 6.99944 13.9999 6.99944C13.7346 6.99944 13.4801 7.10485 13.2924 7.29249C13.1048 7.48013 12.9994 7.73463 12.9994 7.99999C12.9994 8.26536 13.1048 8.51985 13.2924 8.70749L23.2924 18.7075C23.3854 18.8004 23.4957 18.8741 23.6171 18.9244C23.7384 18.9747 23.8686 19.0005 23.9999 19.0005C24.1313 19.0005 24.2614 18.9747 24.3828 18.9244C24.5042 18.8741 24.6145 18.8004 24.7074 18.7075C24.8004 18.6146 24.8741 18.5043 24.9243 18.3829C24.9746 18.2615 25.0005 18.1314 25.0005 18C25.0005 17.8686 24.9746 17.7385 24.9243 17.6171C24.8741 17.4957 24.8004 17.3854 24.7074 17.2925L23.9137 16.5L26.8287 13.5862C27.2002 13.2148 27.4949 12.7738 27.696 12.2884C27.8971 11.8031 28.0006 11.2829 28.0006 10.7575C28.0006 10.2321 27.8971 9.71191 27.696 9.22655C27.4949 8.74119 27.2002 8.30019 26.8287 7.92874L26.1562 7.25749L29.7074 3.70749C29.8004 3.61462 29.8742 3.50433 29.9245 3.38293C29.9748 3.26154 30.0007 3.13141 30.0007 2.99999C30.0007 2.86858 29.9748 2.73845 29.9245 2.61705C29.8742 2.49565 29.8004 2.38537 29.7074 2.29249ZM25.4137 12.1675L22.4999 15.0862L16.9137 9.49999L19.8287 6.58624C20.2037 6.21145 20.7122 6.00092 21.2424 6.00092C21.7727 6.00092 22.2812 6.21145 22.6562 6.58624L25.4137 9.33624C25.6004 9.52208 25.7486 9.74297 25.8496 9.98623C25.9507 10.2295 26.0028 10.4903 26.0028 10.7537C26.0028 11.0172 25.9507 11.278 25.8496 11.5213C25.7486 11.7645 25.6004 11.9854 25.4137 12.1712V12.1675Z" fill="#343330"/>
</svg>
