<svg width="32" height="32" viewBox="0 0 32 32" fill="none" xmlns="http://www.w3.org/2000/svg">
<path d="M29.7076 8.29251C29.6147 8.19953 29.5044 8.12577 29.383 8.07545C29.2616 8.02512 29.1315 7.99922 29.0001 7.99922C28.8687 7.99922 28.7385 8.02512 28.6171 8.07545C28.4957 8.12577 28.3854 8.19953 28.2926 8.29251L24.0001 12.5863L19.4138 8.00001L23.7076 3.70751C23.8952 3.51987 24.0006 3.26537 24.0006 3.00001C24.0006 2.73464 23.8952 2.48015 23.7076 2.29251C23.5199 2.10487 23.2654 1.99945 23.0001 1.99945C22.7347 1.99945 22.4802 2.10487 22.2926 2.29251L18.0001 6.58626L14.7076 3.29251C14.5199 3.10487 14.2654 2.99945 14.0001 2.99945C13.7347 2.99945 13.4802 3.10487 13.2926 3.29251C13.1049 3.48015 12.9995 3.73464 12.9995 4.00001C12.9995 4.26537 13.1049 4.51987 13.2926 4.70751L14.0863 5.50001L7.46132 12.125C6.997 12.5893 6.62868 13.1405 6.37739 13.7472C6.1261 14.3538 5.99676 15.004 5.99676 15.6606C5.99676 16.3173 6.1261 16.9675 6.37739 17.5741C6.62868 18.1808 6.997 18.732 7.46132 19.1963L9.42507 21.16L3.29257 27.2925C3.19966 27.3854 3.12596 27.4957 3.07567 27.6171C3.02539 27.7385 2.99951 27.8686 2.99951 28C2.99951 28.1314 3.02539 28.2615 3.07567 28.3829C3.12596 28.5043 3.19966 28.6146 3.29257 28.7075C3.48021 28.8951 3.7347 29.0006 4.00007 29.0006C4.13146 29.0006 4.26157 28.9747 4.38296 28.9244C4.50436 28.8741 4.61466 28.8004 4.70757 28.7075L10.8438 22.5713L12.8076 24.535C13.2719 24.9993 13.8231 25.3676 14.4297 25.6189C15.0364 25.8702 15.6866 25.9996 16.3432 25.9996C16.9998 25.9996 17.65 25.8702 18.2567 25.6189C18.8633 25.3676 19.4145 24.9993 19.8788 24.535L26.5038 17.91L27.2963 18.7038C27.3892 18.7967 27.4995 18.8704 27.6209 18.9207C27.7423 18.9709 27.8724 18.9968 28.0038 18.9968C28.1352 18.9968 28.2653 18.9709 28.3867 18.9207C28.5081 18.8704 28.6184 18.7967 28.7113 18.7038C28.8042 18.6108 28.8779 18.5005 28.9282 18.3792C28.9785 18.2578 29.0044 18.1277 29.0044 17.9963C29.0044 17.8649 28.9785 17.7348 28.9282 17.6134C28.8779 17.492 28.8042 17.3817 28.7113 17.2888L25.4138 14L29.7076 9.70751C29.8005 9.61463 29.8743 9.50434 29.9246 9.38295C29.975 9.26155 30.0009 9.13142 30.0009 9.00001C30.0009 8.86859 29.975 8.73846 29.9246 8.61707C29.8743 8.49567 29.8005 8.38538 29.7076 8.29251ZM18.4651 23.125C18.1865 23.4037 17.8557 23.6249 17.4916 23.7757C17.1275 23.9266 16.7373 24.0042 16.3432 24.0042C15.9491 24.0042 15.5589 23.9266 15.1948 23.7757C14.8307 23.6249 14.4999 23.4037 14.2213 23.125L8.87507 17.7788C8.59633 17.5002 8.37521 17.1694 8.22435 16.8053C8.07348 16.4412 7.99583 16.051 7.99583 15.6569C7.99583 15.2628 8.07348 14.8725 8.22435 14.5085C8.37521 14.1444 8.59633 13.8136 8.87507 13.535L15.5001 6.91001L25.0863 16.5L18.4651 23.125Z" fill="#343330"/>
</svg>
