<svg width="32" height="32" viewBox="0 0 32 32" fill="none" xmlns="http://www.w3.org/2000/svg">
<path d="M29.7074 2.29249C29.6146 2.19952 29.5043 2.12576 29.3829 2.07543C29.2615 2.02511 29.1314 1.99921 28.9999 1.99921C28.8685 1.99921 28.7384 2.02511 28.617 2.07543C28.4956 2.12576 28.3853 2.19952 28.2924 2.29249L21.7424 8.84374L21.0712 8.17124C20.3202 7.42243 19.303 7.00193 18.2424 7.00193C17.1819 7.00193 16.1647 7.42243 15.4137 8.17124L12.4999 11.0862L11.7074 10.2925C11.5198 10.1049 11.2653 9.99944 10.9999 9.99944C10.7346 9.99944 10.4801 10.1049 10.2924 10.2925C10.1048 10.4801 9.99939 10.7346 9.99939 11C9.99939 11.2654 10.1048 11.5199 10.2924 11.7075L11.0862 12.5L8.1712 15.4137C7.79966 15.7852 7.50495 16.2262 7.30387 16.7115C7.10279 17.1969 6.9993 17.7171 6.9993 18.2425C6.9993 18.7679 7.10279 19.2881 7.30387 19.7734C7.50495 20.2588 7.79966 20.6998 8.1712 21.0712L8.8437 21.7425L2.29245 28.2925C2.19954 28.3854 2.12584 28.4957 2.07555 28.6171C2.02527 28.7385 1.99939 28.8686 1.99939 29C1.99939 29.1314 2.02527 29.2615 2.07555 29.3829C2.12584 29.5043 2.19954 29.6146 2.29245 29.7075C2.48009 29.8951 2.73458 30.0005 2.99995 30.0005C3.13134 30.0005 3.26145 29.9747 3.38284 29.9244C3.50424 29.8741 3.61454 29.8004 3.70745 29.7075L10.2574 23.1562L10.9287 23.8287C11.3001 24.2003 11.7411 24.495 12.2265 24.6961C12.7119 24.8971 13.2321 25.0006 13.7574 25.0006C14.2828 25.0006 14.803 24.8971 15.2884 24.6961C15.7738 24.495 16.2147 24.2003 16.5862 23.8287L19.4999 20.9137L20.2924 21.7075C20.3854 21.8004 20.4957 21.8741 20.6171 21.9244C20.7384 21.9747 20.8686 22.0005 20.9999 22.0005C21.1313 22.0005 21.2614 21.9747 21.3828 21.9244C21.5042 21.8741 21.6145 21.8004 21.7074 21.7075C21.8004 21.6146 21.8741 21.5043 21.9243 21.3829C21.9746 21.2615 22.0005 21.1314 22.0005 21C22.0005 20.8686 21.9746 20.7385 21.9243 20.6171C21.8741 20.4957 21.8004 20.3854 21.7074 20.2925L20.9137 19.5L23.8287 16.5862C24.2002 16.2148 24.4949 15.7738 24.696 15.2884C24.8971 14.8031 25.0006 14.2829 25.0006 13.7575C25.0006 13.2321 24.8971 12.7119 24.696 12.2265C24.4949 11.7412 24.2002 11.3002 23.8287 10.9287L23.1562 10.2575L29.7074 3.70749C29.8004 3.61462 29.8742 3.50433 29.9245 3.38293C29.9748 3.26154 30.0007 3.13141 30.0007 2.99999C30.0007 2.86858 29.9748 2.73845 29.9245 2.61705C29.8742 2.49565 29.8004 2.38537 29.7074 2.29249ZM15.1712 22.4175C14.7962 22.7923 14.2877 23.0028 13.7574 23.0028C13.2272 23.0028 12.7187 22.7923 12.3437 22.4175L9.5862 19.6562C9.21141 19.2812 9.00087 18.7727 9.00087 18.2425C9.00087 17.7123 9.21141 17.2038 9.5862 16.8287L12.4999 13.9137L18.0862 19.5L15.1712 22.4175ZM22.4137 15.175L19.4999 18.0862L13.9137 12.5L16.8287 9.58624C17.2037 9.21145 17.7122 9.00092 18.2424 9.00092C18.7727 9.00092 19.2812 9.21145 19.6562 9.58624L22.4137 12.3362C22.6004 12.5221 22.7486 12.743 22.8496 12.9862C22.9507 13.2295 23.0028 13.4903 23.0028 13.7537C23.0028 14.0172 22.9507 14.278 22.8496 14.5213C22.7486 14.7645 22.6004 14.9854 22.4137 15.1712V15.175ZM11.0712 4.37499C10.9717 4.12867 10.9742 3.85293 11.0781 3.60843C11.1819 3.36393 11.3786 3.1707 11.6249 3.07124C11.8713 2.97179 12.147 2.97425 12.3915 3.0781C12.636 3.18195 12.8292 3.37867 12.9287 3.62499L13.9287 6.12499C13.9779 6.24696 14.0027 6.37743 14.0015 6.50896C14.0003 6.64048 13.9733 6.77049 13.9218 6.89155C13.8704 7.01262 13.7957 7.12237 13.7018 7.21454C13.608 7.30671 13.4969 7.3795 13.3749 7.42874C13.253 7.47799 13.1225 7.50273 12.991 7.50155C12.8595 7.50038 12.7294 7.4733 12.6084 7.42188C12.4873 7.37046 12.3776 7.2957 12.2854 7.20187C12.1932 7.10803 12.1204 6.99696 12.0712 6.87499L11.0712 4.37499ZM3.0712 11.625C3.12027 11.5029 3.19296 11.3917 3.28509 11.2977C3.37723 11.2038 3.48701 11.1289 3.60813 11.0775C3.72924 11.026 3.85933 10.999 3.99091 10.9979C4.1225 10.9969 4.253 11.0218 4.37495 11.0712L6.87495 12.0712C6.99691 12.1205 7.10798 12.1933 7.20182 12.2854C7.29565 12.3776 7.37042 12.4874 7.42184 12.6084C7.47326 12.7295 7.50033 12.8595 7.5015 12.991C7.50268 13.1226 7.47794 13.253 7.4287 13.375C7.37945 13.497 7.30666 13.608 7.21449 13.7019C7.12232 13.7957 7.01257 13.8705 6.89151 13.9219C6.77044 13.9733 6.64043 14.0004 6.50891 14.0016C6.37738 14.0027 6.24691 13.978 6.12495 13.9287L3.62495 12.9287C3.50285 12.8797 3.39163 12.807 3.29768 12.7148C3.20373 12.6227 3.12889 12.5129 3.07744 12.3918C3.026 12.2707 2.99897 12.1406 2.9979 12.009C2.99682 11.8774 3.02173 11.7469 3.0712 11.625ZM28.9287 20.375C28.88 20.497 28.8077 20.6082 28.716 20.7022C28.6243 20.7962 28.5149 20.8713 28.3942 20.9231C28.2735 20.9748 28.1437 21.0023 28.0124 21.0039C27.881 21.0055 27.7507 20.9813 27.6287 20.9325L25.1287 19.9325C25.0065 19.8835 24.8951 19.8109 24.801 19.7189C24.7068 19.6268 24.6317 19.5171 24.5799 19.3961C24.5282 19.275 24.5007 19.1449 24.4992 19.0133C24.4977 18.8816 24.5222 18.751 24.5712 18.6287C24.6202 18.5065 24.6928 18.3952 24.7848 18.301C24.8769 18.2069 24.9865 18.1317 25.1076 18.08C25.2287 18.0282 25.3587 18.0008 25.4904 17.9993C25.6221 17.9978 25.7527 18.0222 25.8749 18.0712L28.3749 19.0712C28.497 19.1203 28.6083 19.193 28.7022 19.2851C28.7962 19.3773 28.871 19.4871 28.9224 19.6082C28.9739 19.7293 29.0009 19.8594 29.002 19.991C29.0031 20.1225 28.9782 20.2531 28.9287 20.375ZM20.9287 27.6325C20.9774 27.7545 21.0017 27.8848 21.0001 28.0162C20.9984 28.1475 20.971 28.2772 20.9192 28.398C20.8674 28.5187 20.7924 28.628 20.6984 28.7197C20.6043 28.8114 20.4932 28.8837 20.3712 28.9325C20.2492 28.9812 20.1189 29.0055 19.9875 29.0039C19.8562 29.0022 19.7264 28.9748 19.6057 28.923C19.485 28.8712 19.3757 28.7962 19.284 28.7022C19.1922 28.6081 19.12 28.497 19.0712 28.375L18.0712 25.875C17.9717 25.6287 17.9742 25.3529 18.0781 25.1084C18.1819 24.8639 18.3786 24.6707 18.6249 24.5712C18.8713 24.4718 19.147 24.4743 19.3915 24.5781C19.636 24.6819 19.8292 24.8787 19.9287 25.125L20.9287 27.6325Z" fill="#343330"/>
</svg>
