<svg width="32" height="32" viewBox="0 0 32 32" fill="none" xmlns="http://www.w3.org/2000/svg">
<path d="M28.83 6.17001C28.4586 5.79848 28.0176 5.50376 27.5322 5.30269C27.0469 5.10161 26.5266 4.99812 26.0013 4.99812C25.4759 4.99812 24.9557 5.10161 24.4703 5.30269C23.985 5.50376 23.544 5.79848 23.1725 6.17001C22.9208 6.42163 22.7038 6.70582 22.5275 7.01501L19 6.05251C19.0109 5.25671 18.7842 4.47575 18.3488 3.80953C17.9134 3.1433 17.2892 2.62211 16.5559 2.3126C15.8227 2.0031 15.0138 1.91936 14.2327 2.0721C13.4517 2.22484 12.7339 2.60711 12.1713 3.17001C11.5705 3.77218 11.177 4.54987 11.0475 5.39055C10.9181 6.23122 11.0595 7.09128 11.4513 7.84626L7.20878 11.665C6.43905 11.1563 5.51731 10.9288 4.59927 11.021C3.68123 11.1133 2.82316 11.5196 2.17003 12.1713C1.43974 12.896 1.0168 13.8743 0.989121 14.9028C0.961438 15.9313 1.33114 16.9309 2.02138 17.6939C2.71163 18.4569 3.66933 18.9246 4.69546 18.9997C5.72159 19.0749 6.73722 18.7518 7.53128 18.0975L16.2813 24.5175C16.0013 25.2187 15.9254 25.9849 16.0625 26.7274C16.1997 27.4699 16.5442 28.1585 17.0562 28.7134C17.5682 29.2684 18.2268 29.667 18.9559 29.8634C19.685 30.0597 20.4548 30.0457 21.1763 29.8229C21.8977 29.6001 22.5414 29.1777 23.0328 28.6044C23.5243 28.0312 23.8434 27.3305 23.9534 26.5835C24.0633 25.8365 23.9596 25.0736 23.6542 24.383C23.3488 23.6925 22.8542 23.1025 22.2275 22.6813L25.6513 12.9825C25.7663 12.9925 25.8813 12.9975 25.9963 12.9975C26.7872 12.9974 27.5604 12.7628 28.2181 12.3233C28.8757 11.8839 29.3883 11.2593 29.6911 10.5286C29.9938 9.79785 30.0731 8.99377 29.919 8.21797C29.7648 7.44217 29.3841 6.72949 28.825 6.17001H28.83ZM13.58 4.58376C13.8598 4.30428 14.2162 4.11402 14.6041 4.03703C14.992 3.96004 15.394 3.99978 15.7593 4.15122C16.1247 4.30266 16.4369 4.55901 16.6565 4.88786C16.8762 5.21671 16.9935 5.6033 16.9935 5.99876C16.9935 6.39423 16.8762 6.78082 16.6565 7.10967C16.4369 7.43852 16.1247 7.69487 15.7593 7.84631C15.394 7.99775 14.992 8.03749 14.6041 7.9605C14.2162 7.88351 13.8598 7.69325 13.58 7.41376C13.3944 7.22769 13.2473 7.00685 13.1471 6.76388C13.0468 6.52091 12.9955 6.26056 12.996 5.99773C12.9964 5.7349 13.0487 5.47473 13.1498 5.23212C13.2508 4.9895 13.3987 4.76918 13.585 4.58376H13.58ZM3.58003 16.415C3.39407 16.2293 3.24656 16.0087 3.14591 15.7659C3.04526 15.5231 2.99345 15.2628 2.99345 15C2.99345 14.7372 3.04526 14.4769 3.14591 14.2341C3.24656 13.9913 3.39407 13.7708 3.58003 13.585C3.85982 13.3055 4.21619 13.1153 4.60409 13.0383C4.99199 12.9613 5.39401 13.001 5.75933 13.1525C6.12466 13.3039 6.43688 13.5603 6.65655 13.8891C6.87621 14.218 6.99345 14.6045 6.99345 15C6.99345 15.3955 6.87621 15.7821 6.65655 16.1109C6.43688 16.4398 6.12466 16.6961 5.75933 16.8476C5.39401 16.999 4.99199 17.0387 4.60409 16.9617C4.21619 16.8848 3.85982 16.6945 3.58003 16.415ZM21.4113 27.415C21.0362 27.7901 20.5274 28.0009 19.9969 28.0009C19.4664 28.0009 18.9576 27.7901 18.5825 27.415C18.2074 27.0399 17.9967 26.5311 17.9967 26.0006C17.9967 25.4701 18.2074 24.9614 18.5825 24.5863C18.7683 24.4005 18.9888 24.2532 19.2314 24.1527C19.4741 24.0521 19.7342 24.0004 19.9969 24.0004C20.2596 24.0004 20.5197 24.0521 20.7624 24.1527C21.005 24.2532 21.2255 24.4005 21.4113 24.5863C21.597 24.772 21.7444 24.9925 21.8449 25.2352C21.9454 25.4779 21.9971 25.738 21.9971 26.0006C21.9971 26.2633 21.9454 26.5234 21.8449 26.7661C21.7444 27.0088 21.597 27.2293 21.4113 27.415ZM20.3425 22.0175C19.3055 21.9272 18.2742 22.2447 17.4675 22.9025L8.71753 16.4825C8.92957 15.9476 9.02435 15.3734 8.99545 14.7987C8.96656 14.224 8.81466 13.6622 8.55003 13.1513L12.7938 9.33252C13.2503 9.63511 13.7642 9.84072 14.3034 9.9366C14.8427 10.0325 15.3959 10.0166 15.9288 9.88989C16.4617 9.76321 16.9628 9.52843 17.4013 9.20012C17.8397 8.87181 18.206 8.45695 18.4775 7.98126L22 8.94501C21.9905 9.60995 22.1469 10.2668 22.4551 10.8561C22.7632 11.4454 23.2135 11.9485 23.765 12.32L20.3425 22.0175ZM27.4125 10.4125C27.2297 10.6101 27.0088 10.7688 26.7631 10.879C26.5175 10.9892 26.2521 11.0487 25.9829 11.0538C25.7137 11.059 25.4462 11.0098 25.1965 10.9091C24.9468 10.8084 24.72 10.6583 24.5297 10.4678C24.3394 10.2773 24.1895 10.0504 24.089 9.8006C23.9885 9.5508 23.9395 9.28329 23.9449 9.0141C23.9503 8.7449 24.01 8.47957 24.1205 8.23401C24.2309 7.98844 24.3897 7.7677 24.5875 7.58501C24.9626 7.2099 25.4714 6.99916 26.0019 6.99916C26.5324 6.99916 27.0412 7.2099 27.4163 7.58501C27.7914 7.96013 28.0021 8.4689 28.0021 8.99939C28.0021 9.52988 27.7914 10.0386 27.4163 10.4138L27.4125 10.4125Z" fill="#343330"/>
</svg>
