<svg width="32" height="32" viewBox="0 0 32 32" fill="none" xmlns="http://www.w3.org/2000/svg">
<path d="M28.6901 9.27624C28.5726 9.16583 28.4303 9.08544 28.2751 9.04191C28.1199 8.99838 27.9565 8.99301 27.7988 9.02624C27.6046 8.32821 27.2744 7.67542 26.8272 7.10538C26.38 6.53534 25.8246 6.05928 25.1928 5.70455C24.561 5.34981 23.8654 5.1234 23.1459 5.03832C22.4264 4.95323 21.6971 5.01115 21 5.20874C20.5613 4.25133 19.8569 3.44001 18.9706 2.8712C18.0842 2.3024 17.0532 2.00003 16.0001 2.00003C14.9469 2.00003 13.9159 2.3024 13.0295 2.8712C12.1432 3.44001 11.4388 4.25133 11.0001 5.20874C10.3031 5.01089 9.57401 4.95267 8.85454 5.03742C8.13507 5.12217 7.43942 5.34823 6.80757 5.7026C6.17571 6.05698 5.62009 6.53269 5.17261 7.10242C4.72513 7.67214 4.39462 8.32466 4.20005 9.02249C4.03578 8.98878 3.86566 8.99692 3.70536 9.04617C3.54506 9.09542 3.39971 9.18419 3.2827 9.30431C3.16569 9.42444 3.08076 9.57206 3.03574 9.7336C2.99071 9.89514 2.98704 10.0654 3.02505 10.2287L6.84505 26.4587C6.94846 26.8975 7.19707 27.2885 7.55058 27.5683C7.90408 27.8481 8.34174 28.0002 8.79255 28H23.2076C23.6584 28.0002 24.096 27.8481 24.4495 27.5683C24.803 27.2885 25.0516 26.8975 25.1551 26.4587L28.9738 10.2287C29.0136 10.059 29.0084 9.88183 28.9586 9.71475C28.9089 9.54766 28.8163 9.3965 28.6901 9.27624ZM9.50005 6.99999C10.0716 6.9984 10.6346 7.1384 11.1388 7.40749C11.2749 7.4797 11.4259 7.51947 11.5799 7.5237C11.7339 7.52793 11.8869 7.49651 12.0267 7.4319C12.1666 7.36728 12.2897 7.27121 12.3863 7.15119C12.4829 7.03117 12.5505 6.89044 12.5838 6.73999C12.7569 5.96302 13.1897 5.26826 13.8107 4.77034C14.4318 4.27241 15.204 4.00107 16.0001 4.00107C16.7961 4.00107 17.5683 4.27241 18.1894 4.77034C18.8104 5.26826 19.2432 5.96302 19.4163 6.73999C19.4496 6.89044 19.5172 7.03117 19.6138 7.15119C19.7104 7.27121 19.8335 7.36728 19.9734 7.4319C20.1132 7.49651 20.2662 7.52793 20.4202 7.5237C20.5742 7.51947 20.7252 7.4797 20.8613 7.40749C21.3242 7.16196 21.8363 7.02349 22.3598 7.00229C22.8834 6.9811 23.405 7.07772 23.8862 7.28504C24.3674 7.49235 24.796 7.80507 25.1402 8.20011C25.4844 8.59515 25.7355 9.06244 25.875 9.56749L21.055 10.9425L16.7438 9.21749C16.2671 9.02691 15.7355 9.02691 15.2588 9.21749L10.9463 10.945L6.12505 9.56749C6.32914 8.82918 6.7698 8.1782 7.37944 7.71442C7.98909 7.25064 8.73405 6.99966 9.50005 6.99999ZM8.79255 26L5.3638 11.43L10.0951 12.7812L11.8576 26H8.79255ZM18.1251 26H13.8751L12.0938 12.64L16.0001 11.0775L19.9063 12.64L18.1251 26ZM23.2076 26H20.1425L21.9051 12.7812L26.6363 11.43L23.2076 26Z" fill="#343330"/>
</svg>
