<svg width="32" height="32" viewBox="0 0 32 32" fill="none" xmlns="http://www.w3.org/2000/svg">
<path d="M16 1C13.6139 1.00265 11.3262 1.95171 9.63896 3.63896C7.95171 5.32622 7.00265 7.61386 7 10V22C7 22.5304 7.21071 23.0391 7.58579 23.4142C7.96086 23.7893 8.46957 24 9 24H13V29C13 29.7956 13.3161 30.5587 13.8787 31.1213C14.4413 31.6839 15.2044 32 16 32C16.7956 32 17.5587 31.6839 18.1213 31.1213C18.6839 30.5587 19 29.7956 19 29V24H23C23.5304 24 24.0391 23.7893 24.4142 23.4142C24.7893 23.0391 25 22.5304 25 22V10C24.9974 7.61386 24.0483 5.32622 22.361 3.63896C20.6738 1.95171 18.3861 1.00265 16 1ZM17 29C17 29.2652 16.8946 29.5196 16.7071 29.7071C16.5196 29.8946 16.2652 30 16 30C15.7348 30 15.4804 29.8946 15.2929 29.7071C15.1054 29.5196 15 29.2652 15 29V24H17V29ZM23 22H9V10C9 8.14348 9.7375 6.36301 11.0503 5.05025C12.363 3.7375 14.1435 3 16 3C17.8565 3 19.637 3.7375 20.9497 5.05025C22.2625 6.36301 23 8.14348 23 10V22ZM15 9V19C15 19.2652 14.8946 19.5196 14.7071 19.7071C14.5196 19.8946 14.2652 20 14 20C13.7348 20 13.4804 19.8946 13.2929 19.7071C13.1054 19.5196 13 19.2652 13 19V9C13 8.73478 13.1054 8.48043 13.2929 8.29289C13.4804 8.10536 13.7348 8 14 8C14.2652 8 14.5196 8.10536 14.7071 8.29289C14.8946 8.48043 15 8.73478 15 9ZM19 9V19C19 19.2652 18.8946 19.5196 18.7071 19.7071C18.5196 19.8946 18.2652 20 18 20C17.7348 20 17.4804 19.8946 17.2929 19.7071C17.1054 19.5196 17 19.2652 17 19V9C17 8.73478 17.1054 8.48043 17.2929 8.29289C17.4804 8.10536 17.7348 8 18 8C18.2652 8 18.5196 8.10536 18.7071 8.29289C18.8946 8.48043 19 8.73478 19 9Z" fill="#343330"/>
</svg>
