<svg width="32" height="32" viewBox="0 0 32 32" fill="none" xmlns="http://www.w3.org/2000/svg">
<path d="M30 16C30 16.2652 29.8946 16.5196 29.7071 16.7071C29.5196 16.8946 29.2652 17 29 17H25.6175L20.895 26.4475C20.8119 26.6136 20.6841 26.7533 20.526 26.8509C20.3679 26.9485 20.1858 27.0001 20 27H19.95C19.756 26.9904 19.569 26.9245 19.4119 26.8105C19.2547 26.6964 19.1342 26.539 19.065 26.3575L11.9187 7.595L7.91 16.4138C7.83058 16.5885 7.70255 16.7367 7.54118 16.8407C7.37982 16.9446 7.19195 16.9999 7 17H3C2.73478 17 2.48043 16.8946 2.29289 16.7071C2.10536 16.5196 2 16.2652 2 16C2 15.7348 2.10536 15.4804 2.29289 15.2929C2.48043 15.1054 2.73478 15 3 15H6.35625L11.09 4.58625C11.1716 4.40655 11.3046 4.25501 11.4721 4.15073C11.6397 4.04644 11.8344 3.99408 12.0317 4.00023C12.2289 4.00637 12.42 4.07076 12.5807 4.18528C12.7415 4.29979 12.8647 4.45931 12.935 4.64375L20.1238 23.5188L24.105 15.555C24.1878 15.3884 24.3154 15.2482 24.4735 15.1501C24.6316 15.0521 24.814 15.0001 25 15H29C29.2652 15 29.5196 15.1054 29.7071 15.2929C29.8946 15.4804 30 15.7348 30 16Z" fill="#343330"/>
</svg>
