<svg width="32" height="32" viewBox="0 0 32 32" fill="none" xmlns="http://www.w3.org/2000/svg">
<path d="M10.4062 4.99999C10.4062 4.73478 10.5116 4.48042 10.6991 4.29289C10.8867 4.10535 11.141 3.99999 11.4062 3.99999H24C24.2652 3.99999 24.5196 4.10535 24.7071 4.29289C24.8946 4.48042 25 4.73478 25 4.99999C25 5.26521 24.8946 5.51956 24.7071 5.7071C24.5196 5.89464 24.2652 5.99999 24 5.99999H23.1925L25.5362 19.2875C25.582 19.5484 25.5225 19.8168 25.3706 20.0338C25.2188 20.2508 24.987 20.3987 24.7262 20.445C24.6686 20.4559 24.61 20.4613 24.5513 20.4612C24.3163 20.461 24.089 20.3781 23.9091 20.227C23.7293 20.0759 23.6083 19.8663 23.5675 19.635L21.1612 5.99999H11.4113C11.2795 6.00065 11.1489 5.97527 11.027 5.92531C10.9051 5.87535 10.7943 5.8018 10.7009 5.70887C10.6075 5.61595 10.5334 5.50549 10.4828 5.38383C10.4323 5.26218 10.4062 5.13174 10.4062 4.99999ZM26.6725 27.74C26.4762 27.9183 26.2172 28.0114 25.9523 27.9988C25.6874 27.9861 25.4384 27.8687 25.26 27.6725L21.0125 23H17V30C17 30.2652 16.8946 30.5196 16.7071 30.7071C16.5196 30.8946 16.2652 31 16 31C15.7348 31 15.4804 30.8946 15.2929 30.7071C15.1054 30.5196 15 30.2652 15 30V23H5C4.73478 23 4.48043 22.8946 4.29289 22.7071C4.10536 22.5196 4 22.2652 4 22C4 21.7348 4.10536 21.4804 4.29289 21.2929C4.48043 21.1053 4.73478 21 5 21H6.16125L8.28 8.99999L5.26 5.67249C5.16983 5.57563 5.09979 5.46184 5.05392 5.33772C5.00806 5.21359 4.98728 5.08159 4.99281 4.94938C4.99833 4.81716 5.03004 4.68736 5.0861 4.56749C5.14216 4.44762 5.22146 4.34007 5.31939 4.25107C5.41732 4.16207 5.53194 4.09339 5.65661 4.04902C5.78128 4.00464 5.91352 3.98545 6.04566 3.99256C6.1778 3.99967 6.30721 4.03294 6.4264 4.09043C6.54559 4.14792 6.65218 4.2285 6.74 4.32749L26.74 26.3275C26.9183 26.5238 27.0114 26.7828 26.9988 27.0477C26.9861 27.3126 26.8687 27.5616 26.6725 27.74ZM19.1938 21L9.98 10.865L8.1925 21H19.1938Z" fill="#343330"/>
</svg>
