<svg width="32" height="32" viewBox="0 0 32 32" fill="none" xmlns="http://www.w3.org/2000/svg">
<path d="M6.74001 4.3275C6.65219 4.22851 6.5456 4.14794 6.42641 4.09044C6.30722 4.03295 6.1778 3.99968 6.04566 3.99258C5.91352 3.98547 5.78129 4.00466 5.65662 4.04903C5.53195 4.0934 5.41733 4.16208 5.3194 4.25108C5.22146 4.34008 5.14217 4.44763 5.08611 4.5675C5.03005 4.68737 4.99834 4.81717 4.99282 4.94939C4.98729 5.0816 5.00806 5.2136 5.05393 5.33773C5.0998 5.46186 5.16984 5.57565 5.26001 5.6725L8.42126 9.15C7.0719 9.45194 5.81359 10.0702 4.75001 10.9538C4.53116 11.1297 4.35183 11.3498 4.22368 11.5997C4.09553 11.8496 4.02144 12.1236 4.00623 12.404C3.99102 12.6844 4.03503 12.9649 4.1354 13.2272C4.23576 13.4894 4.39023 13.7276 4.58876 13.9263L10.625 19.9638L5.29251 25.2925C5.10487 25.4801 4.99945 25.7346 4.99945 26C4.99945 26.2654 5.10487 26.5199 5.29251 26.7075C5.48015 26.8951 5.73464 27.0006 6.00001 27.0006C6.26537 27.0006 6.51987 26.8951 6.70751 26.7075L12.0363 21.375L18.0725 27.4113C18.2581 27.5976 18.4786 27.7455 18.7214 27.8465C18.9642 27.9476 19.2245 27.9997 19.4875 28C19.535 28 19.5813 28 19.6288 28C19.9139 27.9803 20.1914 27.8994 20.4424 27.7628C20.6935 27.6263 20.9122 27.4373 21.0838 27.2088C21.6745 26.4308 22.1611 25.579 22.5313 24.675L25.2613 27.675C25.3491 27.774 25.4557 27.8546 25.5749 27.9121C25.694 27.9696 25.8235 28.0028 25.9556 28.0099C26.0877 28.017 26.22 27.9979 26.3446 27.9535C26.4693 27.9091 26.5839 27.8404 26.6819 27.7514C26.7798 27.6624 26.8591 27.5549 26.9152 27.435C26.9712 27.3151 27.0029 27.1853 27.0084 27.0531C27.014 26.9209 26.9932 26.7889 26.9473 26.6648C26.9015 26.5407 26.8314 26.4269 26.7413 26.33L6.74001 4.3275ZM19.4875 26L6.00001 12.51C7.27876 11.4788 8.65001 10.965 10.0825 10.9763L20.9775 22.9613C20.6988 24.195 20.03 25.2788 19.4875 26ZM29.415 13L23.835 18.5988C23.7423 18.6917 23.6321 18.7656 23.5108 18.816C23.3896 18.8664 23.2595 18.8924 23.1282 18.8926C22.9969 18.8928 22.8668 18.8671 22.7454 18.817C22.624 18.7669 22.5136 18.6934 22.4206 18.6006C22.3276 18.5079 22.2538 18.3977 22.2034 18.2765C22.153 18.1552 22.1269 18.0252 22.1268 17.8938C22.1266 17.7625 22.1523 17.6324 22.2024 17.511C22.2525 17.3896 22.326 17.2792 22.4188 17.1863L28 11.5875L20.415 4L15.2625 9.16875C15.0738 9.34873 14.8222 9.44785 14.5614 9.44498C14.3006 9.44211 14.0513 9.33748 13.8666 9.15339C13.6818 8.96931 13.5763 8.72034 13.5725 8.45958C13.5687 8.19881 13.667 7.94688 13.8463 7.7575L19 2.5875C19.1857 2.40174 19.4062 2.25438 19.6489 2.15384C19.8916 2.0533 20.1517 2.00156 20.4144 2.00156C20.6771 2.00156 20.9372 2.0533 21.1799 2.15384C21.4225 2.25438 21.643 2.40174 21.8288 2.5875L29.415 10.1725C29.7898 10.5475 30.0003 11.056 30.0003 11.5863C30.0003 12.1165 29.7898 12.625 29.415 13Z" fill="#343330"/>
</svg>
