<svg width="32" height="32" viewBox="0 0 32 32" fill="none" xmlns="http://www.w3.org/2000/svg">
<path d="M29.415 10.1713L21.8287 2.58625C21.643 2.40049 21.4225 2.25313 21.1798 2.15259C20.9371 2.05205 20.677 2.00031 20.4143 2.00031C20.1517 2.00031 19.8916 2.05205 19.6489 2.15259C19.4062 2.25313 19.1857 2.40049 19 2.58625L12.2962 9.31125C10.9637 8.89375 7.92122 8.39 4.74622 10.9538C4.52738 11.1297 4.34805 11.3498 4.2199 11.5997C4.09175 11.8496 4.01766 12.1236 4.00245 12.404C3.98724 12.6844 4.03125 12.9649 4.13161 13.2272C4.23198 13.4894 4.38645 13.7276 4.58497 13.9263L10.625 19.9638L5.29247 25.2925C5.10483 25.4801 4.99942 25.7346 4.99942 26C4.99942 26.2654 5.10483 26.5199 5.29247 26.7075C5.48011 26.8951 5.73461 27.0006 5.99997 27.0006C6.26534 27.0006 6.51983 26.8951 6.70747 26.7075L12.0362 21.375L18.0725 27.4113C18.258 27.5976 18.4785 27.7455 18.7213 27.8465C18.9641 27.9476 19.2245 27.9997 19.4875 28C19.535 28 19.5812 28 19.6287 28C19.9138 27.9803 20.1913 27.8994 20.4424 27.7628C20.6935 27.6263 20.9122 27.4373 21.0837 27.2088C23.5387 23.9463 23.3025 21.2938 22.7325 19.7088L29.4162 13C29.6019 12.8142 29.7492 12.5936 29.8496 12.3509C29.95 12.1082 30.0017 11.8481 30.0015 11.5854C30.0014 11.3227 29.9496 11.0626 29.8489 10.82C29.7483 10.5773 29.6008 10.3569 29.415 10.1713ZM28 11.5863L20.8412 18.7688C20.6934 18.9171 20.5959 19.1082 20.5625 19.315C20.529 19.5218 20.5614 19.7338 20.655 19.9213C21.8375 22.2875 20.43 24.745 19.4875 25.9988L5.99997 12.51C7.50997 11.2925 8.95497 10.9713 10.06 10.9713C10.7611 10.9617 11.4565 11.0992 12.1012 11.375C12.2893 11.4691 12.5023 11.5016 12.7099 11.4677C12.9175 11.4338 13.1091 11.3353 13.2575 11.1863L20.415 4L28 11.585V11.5863Z" fill="#343330"/>
</svg>
