<svg width="32" height="32" viewBox="0 0 32 32" fill="none" xmlns="http://www.w3.org/2000/svg">
<path d="M27.5338 19.8175C27.3912 19.7275 27.2282 19.6751 27.0599 19.6651C26.8916 19.655 26.7235 19.6877 26.5713 19.76C26.1902 19.9402 25.7698 20.0211 25.3491 19.9953C24.9284 19.9694 24.521 19.8376 24.1649 19.6121C23.8088 19.3866 23.5155 19.0747 23.3122 18.7054C23.109 18.3362 23.0024 17.9215 23.0024 17.5C23.0024 17.0785 23.109 16.6638 23.3122 16.2945C23.5155 15.9253 23.8088 15.6134 24.1649 15.3879C24.521 15.1624 24.9284 15.0305 25.3491 15.0047C25.7698 14.9788 26.1902 15.0598 26.5713 15.24C26.7237 15.3123 26.892 15.3449 27.0604 15.3347C27.2288 15.3245 27.392 15.2719 27.5346 15.1817C27.6772 15.0915 27.7946 14.9666 27.876 14.8188C27.9574 14.671 28.0001 14.505 28 14.3362V8.99998C28 8.46955 27.7893 7.96084 27.4142 7.58577C27.0391 7.2107 26.5304 6.99998 26 6.99998H21.4725C21.4911 6.83397 21.5003 6.66703 21.5 6.49998C21.4991 5.88539 21.3727 5.27745 21.1285 4.71344C20.8843 4.14943 20.5275 3.64123 20.08 3.21998C19.4603 2.638 18.6885 2.24344 17.8539 2.08201C17.0192 1.92057 16.1559 1.99886 15.3639 2.30781C14.5719 2.61675 13.8837 3.14372 13.3788 3.82768C12.8739 4.51165 12.5731 5.32463 12.5112 6.17248C12.492 6.44828 12.4979 6.72525 12.5287 6.99998H8C7.46957 6.99998 6.96086 7.2107 6.58579 7.58577C6.21071 7.96084 6 8.46955 6 8.99998V13.0275C5.83399 13.0089 5.66705 12.9997 5.5 13C4.88542 13.001 4.2775 13.1274 3.7135 13.3716C3.1495 13.6158 2.64129 13.9725 2.22 14.42C1.79569 14.8682 1.46896 15.3995 1.26047 15.9805C1.05199 16.5614 0.966274 17.1792 1.00875 17.795C1.08041 18.8792 1.54109 19.9011 2.30609 20.6727C3.07108 21.4444 4.08894 21.9139 5.1725 21.995C5.44828 22.0148 5.72531 22.009 6 21.9775V26C6 26.5304 6.21071 27.0391 6.58579 27.4142C6.96086 27.7893 7.46957 28 8 28H26C26.5304 28 27.0391 27.7893 27.4142 27.4142C27.7893 27.0391 28 26.5304 28 26V20.6637C28.0001 20.4948 27.9574 20.3285 27.8759 20.1806C27.7943 20.0326 27.6766 19.9077 27.5338 19.8175ZM26 26H8V20.6637C8.00005 20.495 7.95741 20.329 7.87603 20.1811C7.79465 20.0333 7.67719 19.9085 7.53458 19.8183C7.39197 19.7281 7.22885 19.6754 7.06041 19.6652C6.89197 19.655 6.7237 19.6876 6.57125 19.76C6.19021 19.9402 5.76978 20.0211 5.34907 19.9953C4.92836 19.9694 4.52101 19.8376 4.1649 19.6121C3.80879 19.3866 3.51548 19.0747 3.31224 18.7054C3.10899 18.3362 3.00242 17.9215 3.00242 17.5C3.00242 17.0785 3.10899 16.6638 3.31224 16.2945C3.51548 15.9253 3.80879 15.6134 4.1649 15.3879C4.52101 15.1624 4.92836 15.0305 5.34907 15.0047C5.76978 14.9788 6.19021 15.0598 6.57125 15.24C6.7237 15.3123 6.89197 15.3449 7.06041 15.3347C7.22885 15.3245 7.39197 15.2719 7.53458 15.1817C7.67719 15.0915 7.79465 14.9666 7.87603 14.8188C7.95741 14.671 8.00005 14.505 8 14.3362V8.99998H13.8362C14.005 9.00004 14.171 8.95739 14.3188 8.87601C14.4667 8.79463 14.5915 8.67717 14.6817 8.53456C14.7719 8.39195 14.8246 8.22883 14.8347 8.06039C14.8449 7.89196 14.8123 7.72368 14.74 7.57123C14.5598 7.19019 14.4789 6.76977 14.5047 6.34905C14.5306 5.92834 14.6624 5.52099 14.8879 5.16488C15.1134 4.80877 15.4253 4.51546 15.7946 4.31222C16.1638 4.10898 16.5785 4.0024 17 4.0024C17.4215 4.0024 17.8362 4.10898 18.2054 4.31222C18.5747 4.51546 18.8866 4.80877 19.1121 5.16488C19.3376 5.52099 19.4694 5.92834 19.4953 6.34905C19.5211 6.76977 19.4402 7.19019 19.26 7.57123C19.1877 7.72368 19.1551 7.89196 19.1652 8.06039C19.1754 8.22883 19.2281 8.39195 19.3183 8.53456C19.4085 8.67717 19.5333 8.79463 19.6812 8.87601C19.829 8.95739 19.995 9.00004 20.1637 8.99998H26V13.0287C25.7253 12.9973 25.4483 12.9914 25.1725 13.0112C24.0086 13.0936 22.9223 13.6249 22.1426 14.4929C21.3629 15.3609 20.9509 16.4978 20.9933 17.6638C21.0358 18.8298 21.5295 19.9338 22.3703 20.7427C23.2111 21.5517 24.3332 22.0025 25.5 22C25.6671 22.0003 25.834 21.9911 26 21.9725V26Z" fill="#343330"/>
</svg>
