<svg width="32" height="32" viewBox="0 0 32 32" fill="none" xmlns="http://www.w3.org/2000/svg">
<path d="M14 20.5C14 20.7967 13.9121 21.0867 13.7472 21.3333C13.5824 21.58 13.3481 21.7723 13.0741 21.8858C12.8 21.9993 12.4984 22.029 12.2074 21.9712C11.9164 21.9133 11.6491 21.7704 11.4394 21.5606C11.2296 21.3509 11.0867 21.0836 11.0289 20.7926C10.971 20.5016 11.0007 20.2001 11.1142 19.926C11.2277 19.6519 11.42 19.4176 11.6667 19.2528C11.9133 19.088 12.2034 19 12.5 19C12.8979 19 13.2794 19.158 13.5607 19.4393C13.842 19.7206 14 20.1022 14 20.5ZM19.5 19C19.2034 19 18.9133 19.088 18.6667 19.2528C18.42 19.4176 18.2277 19.6519 18.1142 19.926C18.0007 20.2001 17.971 20.5016 18.0289 20.7926C18.0867 21.0836 18.2296 21.3509 18.4394 21.5606C18.6491 21.7704 18.9164 21.9133 19.2074 21.9712C19.4984 22.029 19.8 21.9993 20.0741 21.8858C20.3481 21.7723 20.5824 21.58 20.7472 21.3333C20.9121 21.0867 21 20.7967 21 20.5C21 20.1022 20.842 19.7206 20.5607 19.4393C20.2794 19.158 19.8979 19 19.5 19ZM27 23.5C26.9999 24.7741 26.6254 26.02 25.923 27.083C25.2206 28.146 24.2213 28.9791 23.0493 29.4788C21.8774 29.9785 20.5843 30.1227 19.331 29.8936C18.0777 29.6645 16.9194 29.072 16 28.19C15.3809 28.7874 14.6494 29.2559 13.8478 29.5684C13.0462 29.8809 12.1906 30.0312 11.3305 30.0105C10.4704 29.9899 9.62299 29.7986 8.83737 29.448C8.05174 29.0973 7.34354 28.5942 6.75384 27.9677C6.16413 27.3413 5.70465 26.604 5.40204 25.7987C5.09944 24.9933 4.95972 24.1359 4.99099 23.2761C5.02226 22.4164 5.22391 21.5714 5.58423 20.7901C5.94454 20.0089 6.45637 19.3069 7.09003 18.725C7.21787 17.8234 7.48259 16.9467 7.87503 16.125C5.50003 11.3875 4.06628 5.09499 5.70503 2.38499C5.94895 1.95825 6.30279 1.6047 6.72972 1.36112C7.15665 1.11754 7.64106 0.992833 8.13253 0.999986C9.89753 0.999986 11.3825 2.48624 12.6875 5.54499C13.465 7.37249 14.0438 9.45999 14.4375 11.1375C15.4712 10.9547 16.5289 10.9547 17.5625 11.1375C17.9538 9.45999 18.5325 7.37249 19.3125 5.54499C20.6125 2.48624 22.1025 0.999986 23.8675 0.999986C24.359 0.992833 24.8434 1.11754 25.2703 1.36112C25.6973 1.6047 26.0511 1.95825 26.295 2.38499C27.9338 5.09499 26.5 11.3875 24.125 16.125C24.5161 16.9452 24.78 17.8203 24.9075 18.72C25.569 19.3279 26.0967 20.0668 26.4569 20.8897C26.8172 21.7127 27.0021 22.6016 27 23.5ZM19.4863 11.7037C20.7833 12.2472 21.9343 13.0882 22.8463 14.1587C23.6766 12.3089 24.2984 10.3724 24.7 8.38499C25.1363 6.11874 25.0938 4.25999 24.5838 3.41999C24.519 3.28723 24.4165 3.17655 24.2891 3.10183C24.1617 3.02711 24.015 2.99168 23.8675 2.99999C23.0413 2.99999 22.0525 4.21249 21.1525 6.32749C20.4113 8.06999 19.8588 10.0925 19.4863 11.7037ZM9.15378 14.1587C10.0657 13.0882 11.2167 12.2472 12.5138 11.7037C12.1388 10.0925 11.5888 8.06999 10.8475 6.32874C9.94753 4.21249 8.95878 2.99999 8.13253 2.99999C7.98505 2.99168 7.8384 3.02711 7.71098 3.10183C7.58356 3.17655 7.48104 3.28723 7.41628 3.41999C6.90628 4.26249 6.86378 6.12499 7.30003 8.38499C7.70167 10.3724 8.32342 12.3089 9.15378 14.1587ZM25 23.5C25.0017 22.829 24.8527 22.1662 24.5641 21.5604C24.2755 20.9547 23.8547 20.4214 23.3325 20C23.2295 19.9163 23.1442 19.813 23.0816 19.696C23.0189 19.5791 22.9801 19.4508 22.9675 19.3187C22.8001 17.5869 21.9937 15.9796 20.7055 14.81C19.4174 13.6404 17.7399 12.9925 16 12.9925C14.2602 12.9925 12.5826 13.6404 11.2945 14.81C10.0064 15.9796 9.19999 17.5869 9.03253 19.3187C9.01993 19.4508 8.98117 19.5791 8.9185 19.696C8.85584 19.813 8.77052 19.9163 8.66753 20C8.19271 20.3789 7.79954 20.8501 7.5117 21.385C7.22386 21.92 7.04732 22.5077 6.99271 23.1127C6.93811 23.7178 7.00657 24.3276 7.19397 24.9054C7.38138 25.4833 7.68384 26.0172 8.08314 26.475C8.48243 26.9329 8.97029 27.3051 9.51731 27.5693C10.0643 27.8335 10.6592 27.9842 11.266 28.0124C11.8729 28.0405 12.4791 27.9455 13.0482 27.7331C13.6174 27.5206 14.1376 27.1951 14.5775 26.7762L13.36 25.765C13.2591 25.6809 13.1757 25.5778 13.1146 25.4616C13.0535 25.3453 13.0158 25.2181 13.0039 25.0873C12.9919 24.9565 13.0059 24.8246 13.0449 24.6991C13.0839 24.5737 13.1472 24.4572 13.2313 24.3562C13.3153 24.2553 13.4184 24.1719 13.5347 24.1108C13.651 24.0497 13.7782 24.0121 13.909 24.0001C14.0398 23.9881 14.1717 24.0021 14.2971 24.0411C14.4226 24.0801 14.5391 24.1434 14.64 24.2275L16 25.3625L17.36 24.2312C17.5639 24.0615 17.8269 23.9797 18.0911 24.0039C18.3553 24.028 18.599 24.1561 18.7688 24.36C18.9385 24.5639 19.0203 24.8268 18.9962 25.091C18.972 25.3552 18.8439 25.599 18.64 25.7687L17.4225 26.78C18.0626 27.38 18.8642 27.7798 19.7286 27.9302C20.593 28.0806 21.4824 27.9751 22.2876 27.6266C23.0928 27.278 23.7785 26.7017 24.2604 25.9686C24.7423 25.2354 24.9994 24.3774 25 23.5Z" fill="#343330"/>
</svg>
