<svg width="32" height="32" viewBox="0 0 32 32" fill="none" xmlns="http://www.w3.org/2000/svg">
<path d="M28.75 3.25625C25.25 -0.235001 18.9413 0.394999 14.675 4.6625C10.7013 8.63625 9.88375 14.3837 12.6113 17.9737L8.91625 21.6687L8.83125 21.5837C8.64551 21.3978 8.42493 21.2503 8.18213 21.1496C7.93934 21.049 7.67908 20.9972 7.41625 20.9972C7.15342 20.9972 6.89317 21.049 6.65037 21.1496C6.40758 21.2503 6.187 21.3978 6.00125 21.5837L2.58625 25C2.4003 25.1857 2.25278 25.4063 2.15213 25.6491C2.05148 25.8919 1.99968 26.1522 1.99968 26.415C1.99968 26.6778 2.05148 26.9381 2.15213 27.1809C2.25278 27.4237 2.4003 27.6443 2.58625 27.83L4.1725 29.4162C4.35823 29.602 4.57872 29.7494 4.82141 29.8499C5.06409 29.9504 5.3242 30.0022 5.58688 30.0022C5.84956 30.0022 6.10967 29.9504 6.35235 29.8499C6.59503 29.7494 6.81553 29.602 7.00125 29.4162L10.4175 26C10.6033 25.8143 10.7506 25.5938 10.8512 25.3511C10.9517 25.1084 11.0035 24.8483 11.0035 24.5856C11.0035 24.3229 10.9517 24.0628 10.8512 23.8202C10.7506 23.5775 10.6033 23.357 10.4175 23.1712L10.3313 23.085L14.0263 19.39C15.4375 20.4625 17.1813 20.9887 19.0263 20.9887C21.8663 20.9887 24.9325 19.7387 27.3438 17.3262C31.6038 13.0587 32.235 6.75 28.75 3.25625ZM5.5875 28L4 26.4137L7.41625 23L8.2075 23.7925L9 24.5837L5.5875 28ZM28.0288 13H25.0075V9H29.0075C28.9927 10.3908 28.6578 11.7595 28.0288 13ZM17 18.7012C16.1249 18.4389 15.3286 17.9633 14.6827 17.3173C14.0367 16.6714 13.5611 15.8751 13.2988 15H17V18.7012ZM13 13C13.015 11.6088 13.3512 10.2398 13.9825 9H17V13H13ZM19 9H23V13H19V9ZM28.7088 7H25.0075V3.285C25.884 3.54788 26.6816 4.02422 27.3287 4.6713C27.9758 5.31838 28.4521 6.11596 28.715 6.9925L28.7088 7ZM22.9813 3H23.0013V7H19.0013V3.97C20.2373 3.34174 21.6011 3.00561 22.9875 2.9875L22.9813 3ZM17 5.2575V6.9925H15.27C15.5264 6.67274 15.8002 6.36729 16.09 6.0775C16.3787 5.78839 16.6825 5.51468 17 5.2575ZM19 18.9975V15H23V18.02C21.7618 18.6495 20.3952 18.9848 19.0063 19L19 18.9975ZM25 16.73V15H26.75C26.4932 15.3195 26.2195 15.6249 25.93 15.915C25.6377 16.2034 25.3297 16.4754 25.0075 16.73H25Z" fill="#343330"/>
</svg>
