<svg width="32" height="32" viewBox="0 0 32 32" fill="none" xmlns="http://www.w3.org/2000/svg">
<path d="M16 3C13.4288 3 10.9154 3.76244 8.77759 5.1909C6.63975 6.61935 4.97351 8.64968 3.98957 11.0251C3.00563 13.4006 2.74819 16.0144 3.2498 18.5362C3.75141 21.0579 4.98953 23.3743 6.80762 25.1924C8.6257 27.0105 10.9421 28.2486 13.4638 28.7502C15.9856 29.2518 18.5995 28.9944 20.9749 28.0104C23.3503 27.0265 25.3807 25.3603 26.8091 23.2224C28.2376 21.0846 29 18.5712 29 16C28.9964 12.5533 27.6256 9.24882 25.1884 6.81163C22.7512 4.37445 19.4467 3.00364 16 3ZM16 27C13.8244 27 11.6977 26.3549 9.88873 25.1462C8.07979 23.9375 6.66989 22.2195 5.83733 20.2095C5.00477 18.1995 4.78693 15.9878 5.21137 13.854C5.63581 11.7202 6.68345 9.7602 8.22183 8.22183C9.76021 6.68345 11.7202 5.6358 13.854 5.21136C15.9878 4.78692 18.1995 5.00476 20.2095 5.83733C22.2195 6.66989 23.9375 8.07979 25.1462 9.88873C26.3549 11.6977 27 13.8244 27 16C26.9967 18.9164 25.8367 21.7123 23.7745 23.7745C21.7123 25.8367 18.9164 26.9967 16 27ZM16 9C14.6155 9 13.2622 9.41054 12.111 10.1797C10.9599 10.9489 10.0627 12.0421 9.53285 13.3212C9.00304 14.6003 8.86441 16.0078 9.13451 17.3656C9.40461 18.7235 10.0713 19.9708 11.0503 20.9497C12.0292 21.9287 13.2765 22.5954 14.6344 22.8655C15.9922 23.1356 17.3997 22.997 18.6788 22.4672C19.9579 21.9373 21.0511 21.0401 21.8203 19.889C22.5895 18.7378 23 17.3845 23 16C22.998 14.1441 22.2599 12.3648 20.9476 11.0524C19.6352 9.74012 17.8559 9.00199 16 9ZM16 21C15.0111 21 14.0444 20.7068 13.2222 20.1573C12.3999 19.6079 11.759 18.827 11.3806 17.9134C11.0022 16.9998 10.9032 15.9945 11.0961 15.0245C11.289 14.0546 11.7652 13.1637 12.4645 12.4645C13.1637 11.7652 14.0546 11.289 15.0246 11.0961C15.9945 10.9031 16.9998 11.0022 17.9134 11.3806C18.8271 11.759 19.6079 12.3999 20.1574 13.2221C20.7068 14.0444 21 15.0111 21 16C21 17.3261 20.4732 18.5979 19.5355 19.5355C18.5979 20.4732 17.3261 21 16 21Z" fill="#343330"/>
</svg>
