<svg width="32" height="32" viewBox="0 0 32 32" fill="none" xmlns="http://www.w3.org/2000/svg">
<path d="M13 21C13 21.2652 12.8946 21.5196 12.7071 21.7071C12.5196 21.8947 12.2652 22 12 22H8C7.73478 22 7.48043 21.8947 7.29289 21.7071C7.10536 21.5196 7 21.2652 7 21C7 20.7348 7.10536 20.4804 7.29289 20.2929C7.48043 20.1054 7.73478 20 8 20H12C12.2652 20 12.5196 20.1054 12.7071 20.2929C12.8946 20.4804 13 20.7348 13 21ZM12 16H8C7.73478 16 7.48043 16.1054 7.29289 16.2929C7.10536 16.4804 7 16.7348 7 17C7 17.2652 7.10536 17.5196 7.29289 17.7071C7.48043 17.8947 7.73478 18 8 18H12C12.2652 18 12.5196 17.8947 12.7071 17.7071C12.8946 17.5196 13 17.2652 13 17C13 16.7348 12.8946 16.4804 12.7071 16.2929C12.5196 16.1054 12.2652 16 12 16ZM12 12H8C7.73478 12 7.48043 12.1054 7.29289 12.2929C7.10536 12.4804 7 12.7348 7 13C7 13.2652 7.10536 13.5196 7.29289 13.7071C7.48043 13.8947 7.73478 14 8 14H12C12.2652 14 12.5196 13.8947 12.7071 13.7071C12.8946 13.5196 13 13.2652 13 13C13 12.7348 12.8946 12.4804 12.7071 12.2929C12.5196 12.1054 12.2652 12 12 12ZM29 10V24C29 24.5304 28.7893 25.0392 28.4142 25.4142C28.0391 25.7893 27.5304 26 27 26H5C4.46957 26 3.96086 25.7893 3.58579 25.4142C3.21071 25.0392 3 24.5304 3 24V9.00001C3.00006 8.78503 3.0694 8.57578 3.19774 8.40331C3.32608 8.23084 3.50659 8.10432 3.7125 8.04251L23.7125 2.04251C23.8383 2.00476 23.9704 1.99215 24.101 2.00542C24.2317 2.01869 24.3585 2.05757 24.4742 2.11985C24.5899 2.18212 24.6921 2.26656 24.7752 2.36836C24.8582 2.47016 24.9204 2.58731 24.9581 2.71314C24.9959 2.83896 25.0085 2.97098 24.9952 3.10168C24.9819 3.23237 24.9431 3.35917 24.8808 3.47484C24.8185 3.59051 24.7341 3.69277 24.6323 3.77581C24.5305 3.85884 24.4133 3.92101 24.2875 3.95876L10.8138 8.00001H27C27.5304 8.00001 28.0391 8.21072 28.4142 8.5858C28.7893 8.96087 29 9.46958 29 10ZM27 24V10H5V24H27ZM25 17C25 17.9889 24.7068 18.9556 24.1573 19.7779C23.6079 20.6001 22.827 21.241 21.9134 21.6194C20.9998 21.9978 19.9945 22.0969 19.0245 21.9039C18.0546 21.711 17.1637 21.2348 16.4645 20.5355C15.7652 19.8363 15.289 18.9454 15.0961 17.9755C14.9031 17.0056 15.0022 16.0002 15.3806 15.0866C15.759 14.173 16.3999 13.3921 17.2221 12.8427C18.0444 12.2933 19.0111 12 20 12C21.3261 12 22.5979 12.5268 23.5355 13.4645C24.4732 14.4022 25 15.6739 25 17ZM23 17C23 16.4067 22.8241 15.8266 22.4944 15.3333C22.1648 14.84 21.6962 14.4554 21.1481 14.2284C20.5999 14.0013 19.9967 13.9419 19.4147 14.0577C18.8328 14.1734 18.2982 14.4591 17.8787 14.8787C17.4591 15.2982 17.1734 15.8328 17.0576 16.4147C16.9419 16.9967 17.0013 17.5999 17.2284 18.1481C17.4554 18.6962 17.8399 19.1648 18.3333 19.4944C18.8266 19.8241 19.4067 20 20 20C20.7956 20 21.5587 19.6839 22.1213 19.1213C22.6839 18.5587 23 17.7957 23 17Z" fill="#343330"/>
</svg>
