<svg width="32" height="32" viewBox="0 0 32 32" fill="none" xmlns="http://www.w3.org/2000/svg">
<path d="M31 9.99998V13C31 13.2652 30.8947 13.5196 30.7071 13.7071C30.5196 13.8946 30.2652 14 30 14C29.7348 14 29.4804 13.8946 29.2929 13.7071C29.1054 13.5196 29 13.2652 29 13V11H16.6938L10.9363 26.3512C10.8652 26.5426 10.7373 26.7077 10.5697 26.8242C10.4021 26.9408 10.2029 27.0032 9.99876 27.0032C9.79462 27.0032 9.59538 26.9408 9.42779 26.8242C9.2602 26.7077 9.1323 26.5426 9.06126 26.3512L3.06126 10.3512C3.01513 10.2281 2.99371 10.0971 2.99821 9.96573C3.0027 9.83433 3.03304 9.70511 3.08748 9.58544C3.14191 9.46577 3.21939 9.35799 3.31548 9.26826C3.41157 9.17853 3.5244 9.10861 3.64751 9.06248C3.77062 9.01635 3.90162 8.99493 4.03301 8.99943C4.16441 9.00392 4.29363 9.03426 4.4133 9.0887C4.53297 9.14314 4.64075 9.22061 4.73048 9.3167C4.82021 9.41279 4.89013 9.52562 4.93626 9.64873L10 23.1525L15.0638 9.65248C15.1346 9.46121 15.2623 9.2962 15.4297 9.17957C15.597 9.06294 15.796 9.00027 16 8.99998H30C30.2652 8.99998 30.5196 9.10534 30.7071 9.29287C30.8947 9.48041 31 9.73477 31 9.99998Z" fill="#343330"/>
</svg>
