<svg width="32" height="32" viewBox="0 0 32 32" fill="none" xmlns="http://www.w3.org/2000/svg">
<path d="M12 26C12 26.2652 11.8946 26.5196 11.7071 26.7071C11.5196 26.8947 11.2652 27 11 27H5.00001C4.47355 26.9997 3.95645 26.8608 3.50065 26.5974C3.04484 26.334 2.66639 25.9552 2.4033 25.4992C2.14021 25.0432 2.00175 24.526 2.00183 23.9996C2.00191 23.4731 2.14053 22.9559 2.40376 22.5L6.69001 15.0938L4.93376 15.5625C4.80654 15.5965 4.67387 15.6051 4.54333 15.5878C4.4128 15.5705 4.28694 15.5277 4.17296 15.4617C3.94276 15.3286 3.77488 15.1094 3.70626 14.8525C3.63763 14.5956 3.67388 14.3219 3.80703 14.0917C3.94018 13.8615 4.15933 13.6936 4.41626 13.625L8.51251 12.5288C8.6394 12.4947 8.77175 12.4861 8.90199 12.5032C9.03224 12.5204 9.15783 12.563 9.27159 12.6287C9.38536 12.6944 9.48506 12.7819 9.565 12.8861C9.64494 12.9904 9.70356 13.1094 9.73751 13.2363L10.8363 17.3325C10.871 17.46 10.8801 17.5931 10.863 17.7241C10.846 17.8551 10.8032 17.9814 10.7371 18.0958C10.6709 18.2102 10.5828 18.3103 10.4777 18.3904C10.3727 18.4705 10.2528 18.529 10.125 18.5625C10.0401 18.5846 9.95274 18.596 9.86501 18.5963C9.64502 18.5961 9.43124 18.5233 9.25678 18.3893C9.08233 18.2553 8.95693 18.0675 8.9 17.855L8.42501 16.0863L4.13876 23.5C4.05119 23.6517 4.00499 23.8237 4.00477 23.9988C4.00456 24.174 4.05035 24.3461 4.13756 24.498C4.22476 24.6498 4.35032 24.7761 4.50168 24.8643C4.65303 24.9524 4.82487 24.9992 5.00001 25H11C11.2652 25 11.5196 25.1054 11.7071 25.2929C11.8946 25.4804 12 25.7348 12 26ZM29.5913 22.5L26.6988 17.5C26.5604 17.2824 26.3433 17.1266 26.0928 17.0652C25.8422 17.0038 25.5777 17.0416 25.3544 17.1707C25.1311 17.2998 24.9663 17.5102 24.8944 17.7579C24.8226 18.0056 24.8492 18.2715 24.9688 18.5L27.8613 23.5C27.9488 23.6517 27.995 23.8237 27.9952 23.9988C27.9954 24.174 27.9497 24.3461 27.8625 24.498C27.7753 24.6498 27.6497 24.7761 27.4983 24.8643C27.347 24.9524 27.1751 24.9992 27 25H18.4138L19.7063 23.7075C19.8939 23.52 19.9994 23.2657 19.9995 23.0005C19.9996 22.7352 19.8944 22.4808 19.7069 22.2931C19.5194 22.1055 19.2651 22 18.9998 21.9999C18.7346 21.9998 18.4801 22.105 18.2925 22.2925L15.2925 25.2925C15.1995 25.3854 15.1258 25.4957 15.0754 25.6171C15.0251 25.7385 14.9992 25.8686 14.9992 26C14.9992 26.1314 15.0251 26.2616 15.0754 26.383C15.1258 26.5044 15.1995 26.6146 15.2925 26.7075L18.2925 29.7075C18.3854 29.8003 18.4957 29.874 18.6171 29.9242C18.7384 29.9744 18.8685 30.0002 18.9998 30.0001C19.1312 30.0001 19.2612 29.9741 19.3825 29.9238C19.5038 29.8735 19.6141 29.7998 19.7069 29.7069C19.7997 29.614 19.8733 29.5037 19.9235 29.3823C19.9737 29.261 19.9996 29.1309 19.9995 28.9996C19.9994 28.8682 19.9735 28.7382 19.9232 28.6169C19.8729 28.4956 19.7992 28.3853 19.7063 28.2925L18.4138 27H27C27.5265 26.9997 28.0436 26.8608 28.4994 26.5974C28.9552 26.334 29.3336 25.9552 29.5967 25.4992C29.8598 25.0432 29.9983 24.526 29.9982 23.9996C29.9981 23.4731 29.8595 22.9559 29.5963 22.5H29.5913ZM16 4.00002C16.1758 3.99825 16.3487 4.04373 16.5009 4.13168C16.6531 4.21964 16.7788 4.34685 16.865 4.50002L21.1513 11.9063L19.3913 11.4338C19.1382 11.3744 18.872 11.4158 18.649 11.5494C18.426 11.6829 18.2638 11.898 18.1967 12.1491C18.1295 12.4002 18.1628 12.6675 18.2894 12.8945C18.4161 13.1215 18.6261 13.2902 18.875 13.365L22.9725 14.4638C23.057 14.486 23.1439 14.4973 23.2313 14.4975C23.4512 14.4973 23.665 14.4246 23.8395 14.2906C24.0139 14.1566 24.1393 13.9688 24.1963 13.7563L25.295 9.65752C25.3327 9.52955 25.3445 9.39532 25.3295 9.26275C25.3146 9.13018 25.2732 9.00194 25.208 8.88558C25.1427 8.76922 25.0548 8.6671 24.9495 8.58523C24.8442 8.50335 24.7235 8.44338 24.5946 8.40885C24.4658 8.37432 24.3313 8.36593 24.1991 8.38416C24.067 8.40239 23.9398 8.44689 23.8251 8.51502C23.7104 8.58316 23.6105 8.67355 23.5313 8.78089C23.452 8.88823 23.3951 9.01033 23.3638 9.14002L22.8888 10.9113L18.5963 3.50002C18.3327 3.04481 17.9541 2.6669 17.4984 2.40419C17.0427 2.14147 16.526 2.00317 16 2.00317C15.474 2.00317 14.9573 2.14147 14.5016 2.40419C14.0459 2.6669 13.6673 3.04481 13.4038 3.50002L10.5088 8.50002C10.3844 8.72908 10.3543 8.99766 10.4251 9.24854C10.4958 9.49942 10.6617 9.71277 10.8874 9.84314C11.1131 9.97351 11.3808 10.0106 11.6334 9.94651C11.8861 9.88242 12.1037 9.72221 12.24 9.50002L15.135 4.50002C15.2212 4.34685 15.3469 4.21964 15.4991 4.13168C15.6513 4.04373 15.8243 3.99825 16 4.00002Z" fill="#343330"/>
</svg>
