<svg width="32" height="32" viewBox="0 0 32 32" fill="none" xmlns="http://www.w3.org/2000/svg">
<path d="M2.99999 16C3.00264 13.6139 3.9517 11.3262 5.63896 9.63897C7.32621 7.95172 9.61386 7.00265 12 7.00001H25.5862L24.2925 5.70751C24.1049 5.51987 23.9994 5.26537 23.9994 5.00001C23.9994 4.73464 24.1049 4.48015 24.2925 4.29251C24.4801 4.10487 24.7346 3.99945 25 3.99945C25.2654 3.99945 25.5199 4.10487 25.7075 4.29251L28.7075 7.29251C28.8005 7.38538 28.8742 7.49567 28.9246 7.61707C28.9749 7.73846 29.0008 7.86859 29.0008 8.00001C29.0008 8.13142 28.9749 8.26155 28.9246 8.38295C28.8742 8.50434 28.8005 8.61463 28.7075 8.70751L25.7075 11.7075C25.5199 11.8951 25.2654 12.0006 25 12.0006C24.7346 12.0006 24.4801 11.8951 24.2925 11.7075C24.1049 11.5199 23.9994 11.2654 23.9994 11C23.9994 10.7346 24.1049 10.4801 24.2925 10.2925L25.5862 9.00001H12C10.1441 9.00199 8.36476 9.74013 7.05244 11.0525C5.74011 12.3648 5.00198 14.1441 4.99999 16C4.99999 16.2652 4.89464 16.5196 4.7071 16.7071C4.51956 16.8947 4.26521 17 3.99999 17C3.73478 17 3.48042 16.8947 3.29289 16.7071C3.10535 16.5196 2.99999 16.2652 2.99999 16ZM28 15C27.7348 15 27.4804 15.1054 27.2929 15.2929C27.1053 15.4804 27 15.7348 27 16C26.998 17.8559 26.2599 19.6352 24.9475 20.9476C23.6352 22.2599 21.8559 22.998 20 23H6.41374L7.70749 21.7075C7.8004 21.6146 7.8741 21.5043 7.92439 21.3829C7.97467 21.2615 8.00055 21.1314 8.00055 21C8.00055 20.8686 7.97467 20.7385 7.92439 20.6171C7.8741 20.4957 7.8004 20.3854 7.70749 20.2925C7.61458 20.1996 7.50428 20.1259 7.38289 20.0756C7.2615 20.0253 7.13139 19.9994 6.99999 19.9994C6.8686 19.9994 6.73849 20.0253 6.6171 20.0756C6.4957 20.1259 6.3854 20.1996 6.29249 20.2925L3.29249 23.2925C3.19952 23.3854 3.12576 23.4957 3.07543 23.6171C3.02511 23.7385 2.99921 23.8686 2.99921 24C2.99921 24.1314 3.02511 24.2615 3.07543 24.3829C3.12576 24.5043 3.19952 24.6146 3.29249 24.7075L6.29249 27.7075C6.3854 27.8004 6.4957 27.8741 6.6171 27.9244C6.73849 27.9747 6.8686 28.0006 6.99999 28.0006C7.13139 28.0006 7.2615 27.9747 7.38289 27.9244C7.50428 27.8741 7.61458 27.8004 7.70749 27.7075C7.8004 27.6146 7.8741 27.5043 7.92439 27.3829C7.97467 27.2615 8.00055 27.1314 8.00055 27C8.00055 26.8686 7.97467 26.7385 7.92439 26.6171C7.8741 26.4957 7.8004 26.3854 7.70749 26.2925L6.41374 25H20C22.3861 24.9974 24.6738 24.0483 26.361 22.361C28.0483 20.6738 28.9973 18.3861 29 16C29 15.7348 28.8946 15.4804 28.7071 15.2929C28.5196 15.1054 28.2652 15 28 15Z" fill="#343330"/>
</svg>
