<svg width="32" height="32" viewBox="0 0 32 32" fill="none" xmlns="http://www.w3.org/2000/svg">
<path d="M27 11H19V5C19 4.46957 18.7893 3.96086 18.4142 3.58579C18.0391 3.21071 17.5304 3 17 3H9C8.46957 3 7.96086 3.21071 7.58579 3.58579C7.21071 3.96086 7 4.46957 7 5V11C7 11.5304 7.21071 12.0391 7.58579 12.4142C7.96086 12.7893 8.46957 13 9 13H17V19H9C8.46957 19 7.96086 19.2107 7.58579 19.5858C7.21071 19.9609 7 20.4696 7 21V27C7 27.5304 7.21071 28.0391 7.58579 28.4142C7.96086 28.7893 8.46957 29 9 29H17C17.5304 29 18.0391 28.7893 18.4142 28.4142C18.7893 28.0391 19 27.5304 19 27V21H27C27.5304 21 28.0391 20.7893 28.4142 20.4142C28.7893 20.0391 29 19.5304 29 19V13C29 12.4696 28.7893 11.9609 28.4142 11.5858C28.0391 11.2107 27.5304 11 27 11ZM17 27H9V21H17V27ZM17 5V11H9V5H17ZM27 19H19V13H27V19Z" fill="#343330"/>
</svg>
