<svg width="32" height="32" viewBox="0 0 32 32" fill="none" xmlns="http://www.w3.org/2000/svg">
<path d="M27.9712 7.25C27.6576 7.07853 27.3038 6.99424 26.9466 7.00589C26.5893 7.01754 26.2418 7.12471 25.94 7.31625L16 13.6425V8.98C15.9985 8.62396 15.9015 8.27483 15.7191 7.96907C15.5367 7.66331 15.2755 7.41214 14.9629 7.24177C14.6502 7.0714 14.2976 6.98809 13.9418 7.00053C13.5859 7.01297 13.24 7.12071 12.94 7.3125L1.91624 14.3325C1.63538 14.5108 1.4041 14.7571 1.24385 15.0486C1.0836 15.3401 0.999573 15.6673 0.999573 16C0.999573 16.3327 1.0836 16.6599 1.24385 16.9514C1.4041 17.2429 1.63538 17.4892 1.91624 17.6675L12.94 24.6875C13.24 24.8793 13.5859 24.987 13.9418 24.9995C14.2976 25.0119 14.6502 24.9286 14.9629 24.7582C15.2755 24.5879 15.5367 24.3367 15.7191 24.0309C15.9015 23.7252 15.9985 23.376 16 23.02V18.3575L25.94 24.6875C26.24 24.8793 26.5859 24.987 26.9418 24.9995C27.2976 25.0119 27.6502 24.9286 27.9629 24.7582C28.2755 24.5879 28.5367 24.3367 28.7191 24.0309C28.9015 23.7252 28.9985 23.376 29 23.02V8.98C28.999 8.62598 28.903 8.27871 28.722 7.97443C28.5411 7.67014 28.2818 7.41997 27.9712 7.25ZM14 22.9912L3.02249 16L14 9.0075V22.9912ZM27 22.9912L16.0225 16L27 9.0075V22.9912Z" fill="#343330"/>
</svg>
