<svg width="32" height="32" viewBox="0 0 32 32" fill="none" xmlns="http://www.w3.org/2000/svg">
<path d="M16 3C13.4288 3 10.9154 3.76244 8.77759 5.1909C6.63975 6.61935 4.97351 8.64968 3.98957 11.0251C3.00563 13.4006 2.74819 16.0144 3.2498 18.5362C3.75141 21.0579 4.98953 23.3743 6.80762 25.1924C8.6257 27.0105 10.9421 28.2486 13.4638 28.7502C15.9856 29.2518 18.5995 28.9944 20.9749 28.0104C23.3503 27.0265 25.3807 25.3603 26.8091 23.2224C28.2376 21.0846 29 18.5712 29 16C28.9964 12.5533 27.6256 9.24882 25.1884 6.81163C22.7512 4.37445 19.4467 3.00364 16 3ZM16 27C13.8244 27 11.6977 26.3549 9.88873 25.1462C8.07979 23.9375 6.66989 22.2195 5.83733 20.2095C5.00477 18.1995 4.78693 15.9878 5.21137 13.854C5.63581 11.7202 6.68345 9.7602 8.22183 8.22183C9.76021 6.68345 11.7202 5.6358 13.854 5.21136C15.9878 4.78692 18.1995 5.00476 20.2095 5.83733C22.2195 6.66989 23.9375 8.07979 25.1462 9.88873C26.3549 11.6977 27 13.8244 27 16C26.9967 18.9164 25.8367 21.7123 23.7745 23.7745C21.7123 25.8367 18.9164 26.9967 16 27ZM14.4475 10.605C14.2813 10.522 14.0953 10.4869 13.9103 10.5037C13.7252 10.5204 13.5485 10.5884 13.4 10.7L7.40001 15.2C7.27581 15.2931 7.17501 15.4139 7.10558 15.5528C7.03615 15.6916 7.00001 15.8448 7.00001 16C7.00001 16.1552 7.03615 16.3084 7.10558 16.4472C7.17501 16.5861 7.27581 16.7069 7.40001 16.8L13.4 21.3C13.5731 21.4298 13.7836 21.5 14 21.5C14.2652 21.5 14.5196 21.3946 14.7071 21.2071C14.8946 21.0196 15 20.7652 15 20.5V11.5C15.0001 11.3142 14.9485 11.1321 14.8509 10.974C14.7533 10.8159 14.6136 10.6881 14.4475 10.605ZM13 18.5L9.66626 16L13 13.5V18.5ZM22.4475 10.605C22.2813 10.522 22.0953 10.4869 21.9103 10.5037C21.7252 10.5204 21.5485 10.5884 21.4 10.7L15.4 15.2C15.2758 15.2931 15.175 15.4139 15.1056 15.5528C15.0362 15.6916 15 15.8448 15 16C15 16.1552 15.0362 16.3084 15.1056 16.4472C15.175 16.5861 15.2758 16.7069 15.4 16.8L21.4 21.3C21.5731 21.4298 21.7836 21.5 22 21.5C22.2652 21.5 22.5196 21.3946 22.7071 21.2071C22.8946 21.0196 23 20.7652 23 20.5V11.5C23.0001 11.3142 22.9485 11.1321 22.8509 10.974C22.7533 10.8159 22.6136 10.6881 22.4475 10.605ZM21 18.5L17.6663 16L21 13.5V18.5Z" fill="#343330"/>
</svg>
