<svg width="32" height="32" viewBox="0 0 32 32" fill="none" xmlns="http://www.w3.org/2000/svg">
<path d="M29.49 24.875C29.3752 24.9397 29.2487 24.9811 29.1178 24.9968C28.987 25.0125 28.8543 25.0021 28.7274 24.9663C28.6006 24.9306 28.4821 24.8701 28.3787 24.7883C28.2753 24.7066 28.1891 24.6052 28.125 24.49L19.415 9H17V10C17 10.2652 16.8946 10.5196 16.7071 10.7071C16.5196 10.8946 16.2652 11 16 11C15.7348 11 15.4804 10.8946 15.2929 10.7071C15.1054 10.5196 15 10.2652 15 10V9H12.585L3.875 24.49C3.74504 24.7221 3.52822 24.893 3.27224 24.9652C3.01625 25.0374 2.74206 25.005 2.51 24.875C2.27794 24.745 2.107 24.5282 2.0348 24.2722C1.9626 24.0162 1.99504 23.7421 2.125 23.51L10.29 9H3C2.73478 9 2.48043 8.89464 2.29289 8.70711C2.10536 8.51957 2 8.26522 2 8C2 7.73478 2.10536 7.48043 2.29289 7.29289C2.48043 7.10536 2.73478 7 3 7H29C29.2652 7 29.5196 7.10536 29.7071 7.29289C29.8946 7.48043 30 7.73478 30 8C30 8.26522 29.8946 8.51957 29.7071 8.70711C29.5196 8.89464 29.2652 9 29 9H21.71L29.875 23.51C29.9397 23.6248 29.9811 23.7513 29.9968 23.8822C30.0125 24.013 30.0021 24.1457 29.9663 24.2726C29.9306 24.3994 29.8701 24.5179 29.7883 24.6213C29.7066 24.7247 29.6052 24.8109 29.49 24.875ZM16 14C15.7348 14 15.4804 14.1054 15.2929 14.2929C15.1054 14.4804 15 14.7348 15 15V17C15 17.2652 15.1054 17.5196 15.2929 17.7071C15.4804 17.8946 15.7348 18 16 18C16.2652 18 16.5196 17.8946 16.7071 17.7071C16.8946 17.5196 17 17.2652 17 17V15C17 14.7348 16.8946 14.4804 16.7071 14.2929C16.5196 14.1054 16.2652 14 16 14ZM16 21C15.7348 21 15.4804 21.1054 15.2929 21.2929C15.1054 21.4804 15 21.7348 15 22V24C15 24.2652 15.1054 24.5196 15.2929 24.7071C15.4804 24.8946 15.7348 25 16 25C16.2652 25 16.5196 24.8946 16.7071 24.7071C16.8946 24.5196 17 24.2652 17 24V22C17 21.7348 16.8946 21.4804 16.7071 21.2929C16.5196 21.1054 16.2652 21 16 21Z" fill="#343330"/>
</svg>
