<svg width="32" height="32" viewBox="0 0 32 32" fill="none" xmlns="http://www.w3.org/2000/svg">
<path d="M26 14H6C5.46957 14 4.96086 14.2107 4.58579 14.5858C4.21071 14.9609 4 15.4696 4 16V19C4 19.5304 4.21071 20.0391 4.58579 20.4142C4.96086 20.7893 5.46957 21 6 21H26C26.5304 21 27.0391 20.7893 27.4142 20.4142C27.7893 20.0391 28 19.5304 28 19V16C28 15.4696 27.7893 14.9609 27.4142 14.5858C27.0391 14.2107 26.5304 14 26 14ZM26 19H6V16H26V19ZM26 5H6C5.46957 5 4.96086 5.21071 4.58579 5.58579C4.21071 5.96086 4 6.46957 4 7V10C4 10.5304 4.21071 11.0391 4.58579 11.4142C4.96086 11.7893 5.46957 12 6 12H26C26.5304 12 27.0391 11.7893 27.4142 11.4142C27.7893 11.0391 28 10.5304 28 10V7C28 6.46957 27.7893 5.96086 27.4142 5.58579C27.0391 5.21071 26.5304 5 26 5ZM26 10H6V7H26V10ZM20 27C20 27.2652 19.8946 27.5196 19.7071 27.7071C19.5196 27.8946 19.2652 28 19 28H17V30C17 30.2652 16.8946 30.5196 16.7071 30.7071C16.5196 30.8946 16.2652 31 16 31C15.7348 31 15.4804 30.8946 15.2929 30.7071C15.1054 30.5196 15 30.2652 15 30V28H13C12.7348 28 12.4804 27.8946 12.2929 27.7071C12.1054 27.5196 12 27.2652 12 27C12 26.7348 12.1054 26.4804 12.2929 26.2929C12.4804 26.1054 12.7348 26 13 26H15V24C15 23.7348 15.1054 23.4804 15.2929 23.2929C15.4804 23.1054 15.7348 23 16 23C16.2652 23 16.5196 23.1054 16.7071 23.2929C16.8946 23.4804 17 23.7348 17 24V26H19C19.2652 26 19.5196 26.1054 19.7071 26.2929C19.8946 26.4804 20 26.7348 20 27Z" fill="#343330"/>
</svg>
