<svg width="32" height="32" viewBox="0 0 32 32" fill="none" xmlns="http://www.w3.org/2000/svg">
<path d="M26 20H6C5.46957 20 4.96086 20.2107 4.58579 20.5858C4.21071 20.9609 4 21.4696 4 22V25C4 25.5304 4.21071 26.0391 4.58579 26.4142C4.96086 26.7893 5.46957 27 6 27H26C26.5304 27 27.0391 26.7893 27.4142 26.4142C27.7893 26.0391 28 25.5304 28 25V22C28 21.4696 27.7893 20.9609 27.4142 20.5858C27.0391 20.2107 26.5304 20 26 20ZM26 25H6V22H26V25ZM26 11H6C5.46957 11 4.96086 11.2107 4.58579 11.5858C4.21071 11.9609 4 12.4696 4 13V16C4 16.5304 4.21071 17.0391 4.58579 17.4142C4.96086 17.7893 5.46957 18 6 18H26C26.5304 18 27.0391 17.7893 27.4142 17.4142C27.7893 17.0391 28 16.5304 28 16V13C28 12.4696 27.7893 11.9609 27.4142 11.5858C27.0391 11.2107 26.5304 11 26 11ZM26 16H6V13H26V16ZM12 5C12 4.73478 12.1054 4.48043 12.2929 4.29289C12.4804 4.10536 12.7348 4 13 4H15V2C15 1.73478 15.1054 1.48043 15.2929 1.29289C15.4804 1.10536 15.7348 1 16 1C16.2652 1 16.5196 1.10536 16.7071 1.29289C16.8946 1.48043 17 1.73478 17 2V4H19C19.2652 4 19.5196 4.10536 19.7071 4.29289C19.8946 4.48043 20 4.73478 20 5C20 5.26522 19.8946 5.51957 19.7071 5.70711C19.5196 5.89464 19.2652 6 19 6H17V8C17 8.26522 16.8946 8.51957 16.7071 8.70711C16.5196 8.89464 16.2652 9 16 9C15.7348 9 15.4804 8.89464 15.2929 8.70711C15.1054 8.51957 15 8.26522 15 8V6H13C12.7348 6 12.4804 5.89464 12.2929 5.70711C12.1054 5.51957 12 5.26522 12 5Z" fill="#343330"/>
</svg>
