<svg width="32" height="32" viewBox="0 0 32 32" fill="none" xmlns="http://www.w3.org/2000/svg">
<path d="M13.3638 18.6363C14.2021 19.47 14.8668 20.4617 15.3193 21.5541C15.7718 22.6464 16.0032 23.8177 16 25C16 25.2652 15.8946 25.5196 15.7071 25.7071C15.5196 25.8947 15.2652 26 15 26C14.7348 26 14.4804 25.8947 14.2929 25.7071C14.1054 25.5196 14 25.2652 14 25C14 23.1435 13.2625 21.363 11.9497 20.0503C10.637 18.7375 8.85652 18 7 18C6.73478 18 6.48043 17.8947 6.29289 17.7071C6.10536 17.5196 6 17.2652 6 17C6 16.7348 6.10536 16.4804 6.29289 16.2929C6.48043 16.1054 6.73478 16 7 16C8.18235 15.9969 9.35359 16.2282 10.4459 16.6807C11.5383 17.1332 12.53 17.7979 13.3638 18.6363ZM7 10C6.73478 10 6.48043 10.1054 6.29289 10.2929C6.10536 10.4804 6 10.7348 6 11C6 11.2652 6.10536 11.5196 6.29289 11.7071C6.48043 11.8947 6.73478 12 7 12C10.4478 12 13.7544 13.3697 16.1924 15.8076C18.6304 18.2456 20 21.5522 20 25C20 25.2652 20.1054 25.5196 20.2929 25.7071C20.4804 25.8947 20.7348 26 21 26C21.2652 26 21.5196 25.8947 21.7071 25.7071C21.8946 25.5196 22 25.2652 22 25C22 21.0218 20.4196 17.2065 17.6066 14.3934C14.7936 11.5804 10.9782 10 7 10ZM21.8488 10.1513C19.9034 8.19509 17.5893 6.64418 15.0405 5.58832C12.4917 4.53246 9.75883 3.99261 7 4.00001C6.73478 4.00001 6.48043 4.10537 6.29289 4.29291C6.10536 4.48044 6 4.7348 6 5.00001C6 5.26523 6.10536 5.51958 6.29289 5.70712C6.48043 5.89466 6.73478 6.00001 7 6.00001C9.49613 5.99317 11.9688 6.4815 14.2749 7.43674C16.5811 8.39197 18.6748 9.79514 20.435 11.565C22.2049 13.3252 23.608 15.4189 24.5633 17.7251C25.5185 20.0312 26.0068 22.5039 26 25C26 25.2652 26.1054 25.5196 26.2929 25.7071C26.4804 25.8947 26.7348 26 27 26C27.2652 26 27.5196 25.8947 27.7071 25.7071C27.8946 25.5196 28 25.2652 28 25C28.0074 22.2412 27.4676 19.5083 26.4117 16.9595C25.3558 14.4107 23.8049 12.0967 21.8488 10.1513ZM7.5 23C7.20333 23 6.91332 23.088 6.66665 23.2528C6.41997 23.4176 6.22771 23.6519 6.11418 23.926C6.00065 24.2001 5.97094 24.5017 6.02882 24.7926C6.0867 25.0836 6.22956 25.3509 6.43934 25.5607C6.64912 25.7705 6.91639 25.9133 7.20737 25.9712C7.49834 26.0291 7.79994 25.9994 8.07403 25.8858C8.34811 25.7723 8.58238 25.58 8.74721 25.3334C8.91203 25.0867 9 24.7967 9 24.5C9 24.1022 8.84197 23.7207 8.56066 23.4394C8.27936 23.158 7.89783 23 7.5 23Z" fill="#343330"/>
</svg>
