<svg width="32" height="32" viewBox="0 0 32 32" fill="none" xmlns="http://www.w3.org/2000/svg">
<path d="M28 24C28 24.2652 27.8946 24.5196 27.7071 24.7071C27.5196 24.8946 27.2652 25 27 25C26.7348 25 26.4804 24.8946 26.2929 24.7071C26.1054 24.5196 26 24.2652 26 24C26 14.075 17.925 6 8 6C7.73478 6 7.48043 5.89464 7.29289 5.70711C7.10536 5.51957 7 5.26522 7 5C7 4.73478 7.10536 4.48043 7.29289 4.29289C7.48043 4.10536 7.73478 4 8 4C19.0275 4 28 12.9725 28 24ZM8 13C7.73478 13 7.48043 13.1054 7.29289 13.2929C7.10536 13.4804 7 13.7348 7 14C7 14.2652 7.10536 14.5196 7.29289 14.7071C7.48043 14.8946 7.73478 15 8 15C10.3861 15.0026 12.6738 15.9517 14.361 17.639C16.0483 19.3262 16.9974 21.6139 17 24C17 24.2652 17.1054 24.5196 17.2929 24.7071C17.4804 24.8946 17.7348 25 18 25C18.2652 25 18.5196 24.8946 18.7071 24.7071C18.8946 24.5196 19 24.2652 19 24C18.9967 21.0836 17.8367 18.2877 15.7745 16.2255C13.7123 14.1633 10.9164 13.0033 8 13ZM8.5 22C8.20333 22 7.91332 22.088 7.66665 22.2528C7.41997 22.4176 7.22771 22.6519 7.11418 22.926C7.00065 23.2001 6.97094 23.5017 7.02882 23.7926C7.0867 24.0836 7.22956 24.3509 7.43934 24.5607C7.64912 24.7704 7.91639 24.9133 8.20736 24.9712C8.49834 25.0291 8.79994 24.9993 9.07403 24.8858C9.34811 24.7723 9.58238 24.58 9.74721 24.3334C9.91203 24.0867 10 23.7967 10 23.5C10 23.1022 9.84197 22.7206 9.56066 22.4393C9.27936 22.158 8.89783 22 8.5 22Z" fill="#343330"/>
</svg>
