<svg width="32" height="32" viewBox="0 0 32 32" fill="none" xmlns="http://www.w3.org/2000/svg">
<path d="M29.415 9.17125L22.8288 2.58625C22.643 2.40049 22.4225 2.25313 22.1798 2.15259C21.9372 2.05205 21.6771 2.00031 21.4144 2.00031C21.1517 2.00031 20.8916 2.05205 20.6489 2.15259C20.4062 2.25313 20.1857 2.40049 20 2.58625L2.585 20C2.39924 20.1857 2.25188 20.4062 2.15134 20.6489C2.0508 20.8916 1.99905 21.1517 1.99905 21.4144C1.99905 21.6771 2.0508 21.9372 2.15134 22.1799C2.25188 22.4225 2.39924 22.643 2.585 22.8288L9.17125 29.4138C9.35698 29.5995 9.57747 29.7469 9.82015 29.8474C10.0628 29.948 10.3229 29.9997 10.5856 29.9997C10.8483 29.9997 11.1084 29.948 11.3511 29.8474C11.5938 29.7469 11.8143 29.5995 12 29.4138L29.415 12C29.6008 11.8143 29.7481 11.5938 29.8487 11.3511C29.9492 11.1084 30.0009 10.8483 30.0009 10.5856C30.0009 10.3229 29.9492 10.0628 29.8487 9.82016C29.7481 9.57747 29.6008 9.35698 29.415 9.17125ZM10.585 28L4 21.4138L8 17.4138L11.2925 20.7075C11.3854 20.8004 11.4957 20.8741 11.6171 20.9244C11.7385 20.9747 11.8686 21.0006 12 21.0006C12.1314 21.0006 12.2615 20.9747 12.3829 20.9244C12.5043 20.8741 12.6146 20.8004 12.7075 20.7075C12.8004 20.6146 12.8741 20.5043 12.9244 20.3829C12.9747 20.2615 13.0006 20.1314 13.0006 20C13.0006 19.8686 12.9747 19.7385 12.9244 19.6171C12.8741 19.4957 12.8004 19.3854 12.7075 19.2925L9.41375 16L12 13.4138L15.2925 16.7075C15.4801 16.8951 15.7346 17.0006 16 17.0006C16.2654 17.0006 16.5199 16.8951 16.7075 16.7075C16.8951 16.5199 17.0006 16.2654 17.0006 16C17.0006 15.7346 16.8951 15.4801 16.7075 15.2925L13.4138 12L16 9.41375L19.2925 12.7075C19.3854 12.8004 19.4957 12.8741 19.6171 12.9244C19.7385 12.9747 19.8686 13.0006 20 13.0006C20.1314 13.0006 20.2615 12.9747 20.3829 12.9244C20.5043 12.8741 20.6146 12.8004 20.7075 12.7075C20.8004 12.6146 20.8741 12.5043 20.9244 12.3829C20.9747 12.2615 21.0006 12.1314 21.0006 12C21.0006 11.8686 20.9747 11.7385 20.9244 11.6171C20.8741 11.4957 20.8004 11.3854 20.7075 11.2925L17.4138 8L21.4138 4L28 10.5863L10.585 28Z" fill="#343330"/>
</svg>
