<svg width="32" height="32" viewBox="0 0 32 32" fill="none" xmlns="http://www.w3.org/2000/svg">
<path d="M30.9012 21.5663C30.8196 21.3966 30.6916 21.2535 30.5322 21.1533C30.3728 21.0531 30.1883 21 30 21H18V18H27C27.1937 18 27.3832 17.9437 27.5455 17.838C27.7079 17.7323 27.836 17.5818 27.9144 17.4046C27.9927 17.2275 28.018 17.0314 27.987 16.8402C27.9561 16.649 27.8702 16.4709 27.74 16.3275L18 5.61377V1.00002C17.9989 0.7939 17.9341 0.593156 17.8145 0.425265C17.6949 0.257374 17.5264 0.130541 17.3319 0.0621237C17.1375 -0.00629376 16.9266 -0.0129524 16.7283 0.0430591C16.5299 0.0990705 16.3537 0.215015 16.2237 0.375025L3.22374 16.375C3.10621 16.5218 3.03246 16.6987 3.01093 16.8855C2.9894 17.0723 3.02097 17.2614 3.10202 17.4311C3.18307 17.6007 3.31031 17.7441 3.46914 17.8448C3.62797 17.9454 3.81196 17.9992 3.99998 18H16V21H1.99999C1.81153 20.9999 1.62688 21.053 1.46732 21.1533C1.30775 21.2536 1.17976 21.3969 1.09811 21.5667C1.01645 21.7366 0.984451 21.926 1.00579 22.1133C1.02714 22.3005 1.10095 22.4779 1.21874 22.625L4.91873 27.25C5.10569 27.4845 5.3432 27.6738 5.61354 27.8037C5.88388 27.9335 6.18007 28.0007 6.47999 28H25.52C25.8199 28.0007 26.1161 27.9335 26.3864 27.8037C26.6568 27.6738 26.8943 27.4845 27.0812 27.25L30.7812 22.625C30.899 22.4778 30.9728 22.3003 30.994 22.113C31.0152 21.9256 30.9831 21.7361 30.9012 21.5663ZM24.74 16H18V8.58628L24.74 16ZM6.10124 16L16 3.81628V16H6.10124ZM25.52 26H6.47999L4.07998 23H27.92L25.52 26Z" fill="#343330"/>
</svg>
