<svg width="32" height="32" viewBox="0 0 32 32" fill="none" xmlns="http://www.w3.org/2000/svg">
<path d="M28 5V9.5C28 9.76522 27.8946 10.0196 27.7071 10.2071C27.5196 10.3946 27.2652 10.5 27 10.5C26.7348 10.5 26.4804 10.3946 26.2929 10.2071C26.1054 10.0196 26 9.76522 26 9.5V6H22.5C22.2348 6 21.9804 5.89464 21.7929 5.70711C21.6054 5.51957 21.5 5.26522 21.5 5C21.5 4.73478 21.6054 4.48043 21.7929 4.29289C21.9804 4.10536 22.2348 4 22.5 4H27C27.2652 4 27.5196 4.10536 27.7071 4.29289C27.8946 4.48043 28 4.73478 28 5ZM27 21.5C26.7348 21.5 26.4804 21.6054 26.2929 21.7929C26.1054 21.9804 26 22.2348 26 22.5V26H22.5C22.2348 26 21.9804 26.1054 21.7929 26.2929C21.6054 26.4804 21.5 26.7348 21.5 27C21.5 27.2652 21.6054 27.5196 21.7929 27.7071C21.9804 27.8946 22.2348 28 22.5 28H27C27.2652 28 27.5196 27.8946 27.7071 27.7071C27.8946 27.5196 28 27.2652 28 27V22.5C28 22.2348 27.8946 21.9804 27.7071 21.7929C27.5196 21.6054 27.2652 21.5 27 21.5ZM9.5 26H6V22.5C6 22.2348 5.89464 21.9804 5.70711 21.7929C5.51957 21.6054 5.26522 21.5 5 21.5C4.73478 21.5 4.48043 21.6054 4.29289 21.7929C4.10536 21.9804 4 22.2348 4 22.5V27C4 27.2652 4.10536 27.5196 4.29289 27.7071C4.48043 27.8946 4.73478 28 5 28H9.5C9.76522 28 10.0196 27.8946 10.2071 27.7071C10.3946 27.5196 10.5 27.2652 10.5 27C10.5 26.7348 10.3946 26.4804 10.2071 26.2929C10.0196 26.1054 9.76522 26 9.5 26ZM5 10.5C5.26522 10.5 5.51957 10.3946 5.70711 10.2071C5.89464 10.0196 6 9.76522 6 9.5V6H9.5C9.76522 6 10.0196 5.89464 10.2071 5.70711C10.3946 5.51957 10.5 5.26522 10.5 5C10.5 4.73478 10.3946 4.48043 10.2071 4.29289C10.0196 4.10536 9.76522 4 9.5 4H5C4.73478 4 4.48043 4.10536 4.29289 4.29289C4.10536 4.48043 4 4.73478 4 5V9.5C4 9.76522 4.10536 10.0196 4.29289 10.2071C4.48043 10.3946 4.73478 10.5 5 10.5ZM16 25C14.22 25 12.4799 24.4722 10.9999 23.4832C9.51982 22.4943 8.36627 21.0887 7.68508 19.4442C7.0039 17.7996 6.82567 15.99 7.17293 14.2442C7.5202 12.4984 8.37737 10.8947 9.63604 9.63604C10.8947 8.37737 12.4984 7.5202 14.2442 7.17293C15.99 6.82567 17.7996 7.0039 19.4442 7.68508C21.0887 8.36627 22.4943 9.51982 23.4832 10.9999C24.4722 12.4799 25 14.22 25 16C24.9974 18.3861 24.0483 20.6738 22.361 22.361C20.6738 24.0483 18.3861 24.9974 16 25ZM23 16C23 14.6155 22.5895 13.2622 21.8203 12.111C21.0511 10.9599 19.9579 10.0627 18.6788 9.53284C17.3997 9.00303 15.9922 8.86441 14.6344 9.1345C13.2765 9.4046 12.0292 10.0713 11.0503 11.0503C10.0713 12.0292 9.4046 13.2765 9.1345 14.6344C8.86441 15.9922 9.00303 17.3997 9.53284 18.6788C10.0627 19.9579 10.9599 21.0511 12.111 21.8203C13.2622 22.5895 14.6155 23 16 23C17.8559 22.998 19.6352 22.2599 20.9476 20.9476C22.2599 19.6352 22.998 17.8559 23 16ZM14.5 14.5C14.5 14.2033 14.412 13.9133 14.2472 13.6666C14.0824 13.42 13.8481 13.2277 13.574 13.1142C13.2999 13.0006 12.9983 12.9709 12.7074 13.0288C12.4164 13.0867 12.1491 13.2296 11.9393 13.4393C11.7296 13.6491 11.5867 13.9164 11.5288 14.2074C11.4709 14.4983 11.5006 14.7999 11.6142 15.074C11.7277 15.3481 11.92 15.5824 12.1666 15.7472C12.4133 15.912 12.7033 16 13 16C13.3978 16 13.7794 15.842 14.0607 15.5607C14.342 15.2794 14.5 14.8978 14.5 14.5ZM19 13C18.7033 13 18.4133 13.088 18.1666 13.2528C17.92 13.4176 17.7277 13.6519 17.6142 13.926C17.5007 14.2001 17.4709 14.5017 17.5288 14.7926C17.5867 15.0836 17.7296 15.3509 17.9393 15.5607C18.1491 15.7704 18.4164 15.9133 18.7074 15.9712C18.9983 16.0291 19.2999 15.9994 19.574 15.8858C19.8481 15.7723 20.0824 15.58 20.2472 15.3334C20.412 15.0867 20.5 14.7967 20.5 14.5C20.5 14.1022 20.342 13.7206 20.0607 13.4393C19.7794 13.158 19.3978 13 19 13ZM18.3388 18.25C17.8625 18.6713 16.8387 19 16 19C15.1613 19 14.1375 18.6713 13.6613 18.25C13.5631 18.1607 13.4483 18.0918 13.3233 18.0474C13.1983 18.0029 13.0657 17.9838 12.9333 17.9911C12.8008 17.9984 12.6712 18.0319 12.5518 18.0898C12.4325 18.1477 12.3258 18.2287 12.2381 18.3282C12.1504 18.4277 12.0833 18.5437 12.0408 18.6694C11.9984 18.795 11.9813 18.9279 11.9907 19.0602C12 19.1925 12.0356 19.3217 12.0954 19.4401C12.1552 19.5585 12.2379 19.6639 12.3387 19.75C13.3175 20.6138 14.8825 21 16 21C17.1175 21 18.6825 20.6138 19.6612 19.75C19.7621 19.6639 19.8448 19.5585 19.9046 19.4401C19.9644 19.3217 20 19.1925 20.0093 19.0602C20.0187 18.9279 20.0016 18.795 19.9592 18.6694C19.9167 18.5437 19.8496 18.4277 19.7619 18.3282C19.6742 18.2287 19.5675 18.1477 19.4482 18.0898C19.3288 18.0319 19.1992 17.9984 19.0667 17.9911C18.9343 17.9838 18.8017 18.0029 18.6767 18.0474C18.5517 18.0918 18.4369 18.1607 18.3388 18.25Z" fill="#343330"/>
</svg>
