<svg width="32" height="32" viewBox="0 0 32 32" fill="none" xmlns="http://www.w3.org/2000/svg">
<path d="M19.7163 14.1412C19.642 14.0328 19.5898 13.9107 19.5627 13.7821C19.5356 13.6534 19.5341 13.5207 19.5584 13.3914C19.5826 13.2622 19.6322 13.139 19.7041 13.029C19.776 12.9189 19.8689 12.8241 19.9775 12.75L28.435 6.96249C28.6541 6.82696 28.917 6.7812 29.169 6.83473C29.4209 6.88827 29.6425 7.03697 29.7876 7.24985C29.9326 7.46274 29.9899 7.72338 29.9475 7.97747C29.9051 8.23155 29.7663 8.45948 29.56 8.61374L21.1013 14.4012C20.9355 14.5155 20.7389 14.5766 20.5375 14.5762C20.3757 14.5756 20.2164 14.5357 20.0733 14.4599C19.9303 14.3842 19.8077 14.2748 19.7163 14.1412ZM29.825 24.7775C29.6752 24.9963 29.4445 25.1466 29.1839 25.1953C28.9232 25.2441 28.6538 25.1873 28.435 25.0375L17 17.2125L11.6863 20.8475C12.0917 21.8771 12.1036 23.0199 11.7196 24.0577C11.3357 25.0955 10.5828 25.9554 9.60493 26.4732C8.62702 26.991 7.49262 27.1303 6.41848 26.8646C5.34433 26.5988 4.40576 25.9466 3.78209 25.0326C3.15842 24.1186 2.89338 23.0068 3.03761 21.9097C3.18184 20.8126 3.72523 19.8072 4.56395 19.0854C5.40268 18.3636 6.47793 17.9762 7.58426 17.9971C8.69059 18.018 9.75043 18.4458 10.5613 19.1987L15.2288 16L10.555 12.8012C9.74692 13.5503 8.69122 13.9755 7.58952 13.9956C6.48782 14.0157 5.41732 13.6293 4.58244 12.9102C3.74755 12.191 3.20679 11.1896 3.06341 10.0971C2.92002 9.00459 3.18407 7.89754 3.80512 6.98735C4.42617 6.07717 5.36072 5.42762 6.43029 5.16275C7.49986 4.89788 8.62953 5.03624 9.60356 5.55142C10.5776 6.0666 11.3277 6.92249 11.7108 7.95566C12.0938 8.98883 12.0828 10.1269 11.68 11.1525L29.555 23.3862C29.6643 23.4597 29.7581 23.554 29.8308 23.6637C29.9036 23.7735 29.9539 23.8965 29.979 24.0258C30.0041 24.155 30.0034 24.288 29.977 24.417C29.9506 24.546 29.8989 24.6685 29.825 24.7775ZM10 22.5C10.0002 21.9216 9.79972 21.3611 9.43288 20.9139C9.06605 20.4667 8.5555 20.1605 7.98824 20.0476C7.42098 19.9346 6.83211 20.0219 6.32196 20.2944C5.81181 20.567 5.41195 21.008 5.19051 21.5423C4.96907 22.0767 4.93975 22.6712 5.10755 23.2248C5.27536 23.7783 5.62989 24.2565 6.11076 24.5779C6.59162 24.8993 7.16906 25.0441 7.74468 24.9875C8.3203 24.9309 8.85848 24.6764 9.26753 24.2675C9.50053 24.036 9.68525 23.7606 9.81099 23.4572C9.93673 23.1538 10.001 22.8284 10 22.5ZM9.26753 11.2662C9.61724 10.9166 9.85541 10.4712 9.95194 9.98621C10.0485 9.50124 9.999 8.99853 9.8098 8.54168C9.6206 8.08482 9.30017 7.69432 8.88903 7.41959C8.47789 7.14485 7.99452 6.99821 7.50003 6.99821C7.00555 6.99821 6.52217 7.14485 6.11103 7.41959C5.69989 7.69432 5.37946 8.08482 5.19026 8.54168C5.00106 8.99853 4.9516 9.50124 5.04812 9.98621C5.14465 10.4712 5.38282 10.9166 5.73253 11.2662C5.9634 11.5006 6.23855 11.6866 6.54198 11.8137C6.84542 11.9407 7.17108 12.0061 7.50003 12.0061C7.82898 12.0061 8.15464 11.9407 8.45808 11.8137C8.76151 11.6866 9.03667 11.5006 9.26753 11.2662Z" fill="#343330"/>
</svg>
