<svg width="32" height="32" viewBox="0 0 32 32" fill="none" xmlns="http://www.w3.org/2000/svg">
<path d="M25.7075 6.29C25.8004 6.38288 25.8742 6.49317 25.9245 6.61456C25.9748 6.73596 26.0007 6.86609 26.0007 6.9975C26.0007 7.12892 25.9748 7.25905 25.9245 7.38044C25.8742 7.50184 25.8004 7.61213 25.7075 7.705L18.7075 14.705C18.52 14.8926 18.2656 14.9981 18.0004 14.9982C17.7351 14.9984 17.4807 14.8931 17.2931 14.7056C17.1054 14.5182 17 14.2638 16.9998 13.9986C16.9997 13.7333 17.105 13.4789 17.2924 13.2913L24.2924 6.29125C24.3852 6.1982 24.4955 6.12434 24.6168 6.07391C24.7382 6.02348 24.8683 5.99746 24.9997 5.99734C25.1311 5.99723 25.2613 6.02301 25.3827 6.07323C25.5041 6.12345 25.6145 6.19711 25.7075 6.29ZM31 7.30125C31.002 8.12938 30.8399 8.94971 30.523 9.71482C30.2061 10.4799 29.7407 11.1746 29.1537 11.7588L22.5 18.4125C22.315 18.5993 22.0948 18.7474 21.8521 18.8482C21.6094 18.9491 21.349 19.0007 21.0862 19H19V21.1038C18.9998 21.5398 18.8571 21.9638 18.5937 22.3113C18.5661 22.3478 18.536 22.3825 18.5037 22.415L17.5037 23.415C17.1287 23.7898 16.6202 24.0003 16.09 24.0003C15.5597 24.0003 15.0512 23.7898 14.6762 23.415L12.3375 21.075L2.71245 30.7075C2.61954 30.8004 2.50924 30.8741 2.38785 30.9244C2.26645 30.9747 2.13635 31.0006 2.00495 31.0006C1.87356 31.0006 1.74345 30.9747 1.62205 30.9244C1.50066 30.8741 1.39036 30.8004 1.29745 30.7075C1.20454 30.6146 1.13084 30.5043 1.08056 30.3829C1.03027 30.2615 1.00439 30.1314 1.00439 30C1.00439 29.8686 1.03027 29.7385 1.08056 29.6171C1.13084 29.4957 1.20454 29.3854 1.29745 29.2925L10.9287 19.6613L8.5912 17.3225C8.40544 17.1368 8.25808 16.9163 8.15754 16.6736C8.057 16.4309 8.00525 16.1708 8.00525 15.9081C8.00525 15.6454 8.057 15.3853 8.15754 15.1427C8.25808 14.9 8.40544 14.6795 8.5912 14.4938L9.5912 13.4938C9.62328 13.4615 9.65753 13.4314 9.6937 13.4038C10.0407 13.1434 10.4624 13.0018 10.8962 13H13V10.9125C12.9995 10.6501 13.051 10.3902 13.1514 10.1478C13.2518 9.90542 13.3991 9.68525 13.585 9.5L20.24 2.84625C21.1215 1.96521 22.2444 1.36524 23.4667 1.12216C24.6891 0.879082 25.9561 1.00381 27.1076 1.48058C28.2592 1.95734 29.2435 2.76475 29.9363 3.80078C30.6291 4.8368 30.9992 6.05494 31 7.30125ZM29 7.30125C28.9999 6.45015 28.7475 5.61817 28.2747 4.91049C27.8019 4.20281 27.1298 3.65122 26.3436 3.32544C25.5573 2.99966 24.6921 2.91433 23.8573 3.08023C23.0225 3.24614 22.2557 3.65583 21.6537 4.2575L15 10.9125V13C15 13.5304 14.7892 14.0391 14.4142 14.4142C14.0391 14.7893 13.5304 15 13 15H10.91L9.99995 15.9088L16.09 22L17 21.09V19C17 18.4696 17.2107 17.9609 17.5857 17.5858C17.9608 17.2107 18.4695 17 19 17H21.0862L27.74 10.345C28.1408 9.94616 28.4585 9.47179 28.6748 8.94933C28.8911 8.42687 29.0016 7.86671 29 7.30125Z" fill="#343330"/>
</svg>
