<svg width="32" height="32" viewBox="0 0 32 32" fill="none" xmlns="http://www.w3.org/2000/svg">
<path d="M31.7413 19.3288C31.5763 19.1463 28.73 16.0513 24.1163 14.2587C23.9013 11.9563 23.0588 9.8625 21.69 8.26875C19.8588 6.125 17.1975 5 14 5C7.56001 5 3.36126 10.7725 3.18626 11.0188C3.04302 11.2346 2.98912 11.4976 3.03594 11.7524C3.08275 12.0072 3.22661 12.2339 3.43723 12.3847C3.64785 12.5356 3.90878 12.5988 4.16508 12.561C4.42138 12.5233 4.65303 12.3876 4.81126 12.1825C4.85001 12.1312 8.60126 7 14 7C16.5963 7 18.7325 7.88875 20.1763 9.57125C21.1038 10.6512 21.7313 12.0325 22.01 13.5712C20.562 13.1931 19.0716 13.0012 17.575 13C14.3175 13 11.5838 13.8513 9.66751 15.4613C7.97251 16.8863 7.00001 18.875 7.00001 20.9062C6.9923 21.6952 7.14161 22.4778 7.43926 23.2086C7.73691 23.9393 8.17695 24.6035 8.73376 25.1625C9.94126 26.365 11.6163 27 13.575 27C20.0513 27 23.7225 21.7337 24.1363 16.4475C26.4221 17.4636 28.499 18.8959 30.2613 20.6712C30.3494 20.7686 30.4559 20.8476 30.5746 20.9038C30.6933 20.96 30.8219 20.9923 30.953 20.9988C31.0842 21.0053 31.2153 20.9859 31.339 20.9417C31.4627 20.8975 31.5764 20.8294 31.6738 20.7412C31.7711 20.6531 31.8501 20.5466 31.9063 20.4279C31.9625 20.3093 31.9948 20.1807 32.0013 20.0495C32.0078 19.9183 31.9884 19.7872 31.9442 19.6635C31.9 19.5398 31.8319 19.4261 31.7438 19.3288H31.7413ZM19.9338 22.0338C18.83 23.3862 16.8325 25 13.575 25C10.415 25 9.00001 22.9438 9.00001 20.9062C9.00001 18.0612 11.6838 15 17.575 15C19.1345 15.0047 20.6843 15.244 22.1725 15.71C22.1163 18.055 21.3075 20.3475 19.9338 22.0338Z" fill="#343330"/>
</svg>
