<svg width="32" height="32" viewBox="0 0 32 32" fill="none" xmlns="http://www.w3.org/2000/svg">
<path d="M25.7087 23.7075C25.5388 23.8771 25.404 24.0786 25.312 24.3004C25.22 24.5222 25.1727 24.7599 25.1727 25C25.1727 25.2401 25.22 25.4778 25.312 25.6996C25.404 25.9214 25.5388 26.1229 25.7087 26.2925C25.8964 26.4801 26.0018 26.7346 26.0018 27C26.0018 27.2654 25.8964 27.5199 25.7087 27.7075C25.5211 27.8951 25.2666 28.0005 25.0012 28.0005C24.7359 28.0005 24.4814 27.8951 24.2937 27.7075C23.5759 26.9893 23.1727 26.0154 23.1727 25C23.1727 23.9846 23.5759 23.0107 24.2937 22.2925L25.4662 21.1212C25.8092 20.7776 26.0016 20.3118 26.0011 19.8263C26.0007 19.3409 25.8074 18.8755 25.4637 18.5325C25.1201 18.1895 24.6543 17.9971 24.1688 17.9976C23.6834 17.9981 23.2179 18.1914 22.875 18.535L14.535 26.875C13.808 27.5439 12.8506 27.906 11.8629 27.8855C10.8752 27.865 9.93363 27.4635 9.23506 26.7649C8.5365 26.0663 8.13499 25.1248 8.11447 24.1371C8.09396 23.1494 8.45602 22.192 9.12498 21.465L21.465 9.12499C21.635 8.95493 21.7699 8.75304 21.862 8.53084C21.954 8.30864 22.0014 8.0705 22.0014 7.82999C22.0014 7.58949 21.954 7.35134 21.862 7.12914C21.7699 6.90695 21.635 6.70505 21.465 6.53499C21.2949 6.36493 21.093 6.23003 20.8708 6.13799C20.6486 6.04596 20.4105 5.99859 20.17 5.99859C19.9295 5.99859 19.6913 6.04596 19.4691 6.13799C19.2469 6.23003 19.045 6.36493 18.875 6.53499L10.535 14.875C9.80801 15.5439 8.8506 15.906 7.86289 15.8855C6.87518 15.865 5.93363 15.4635 5.23506 14.7649C4.5365 14.0663 4.13499 13.1248 4.11447 12.1371C4.09396 11.1494 4.45602 10.192 5.12498 9.46499L10.2925 4.29249C10.4801 4.10502 10.7345 3.99976 10.9998 3.99988C11.265 4 11.5194 4.10548 11.7069 4.29312C11.8943 4.48076 11.9996 4.73519 11.9995 5.00043C11.9993 5.26568 11.8939 5.52002 11.7062 5.70749L6.53373 10.875C6.19027 11.2186 5.99739 11.6846 5.9975 12.1704C5.99762 12.6563 6.19073 13.1222 6.53435 13.4656C6.87797 13.8091 7.34396 14.002 7.8298 14.0018C8.31563 14.0017 8.78152 13.8086 9.12498 13.465L17.465 5.12499C18.1919 4.45604 19.1494 4.09397 20.1371 4.11449C21.1248 4.135 22.0663 4.53651 22.7649 5.23508C23.4635 5.93364 23.865 6.87519 23.8855 7.8629C23.906 8.85061 23.5439 9.80802 22.875 10.535L10.535 22.875C10.1915 23.2184 9.99857 23.6843 9.99857 24.17C9.99857 24.6557 10.1915 25.1215 10.535 25.465C10.8784 25.8084 11.3443 26.0014 11.83 26.0014C12.3157 26.0014 12.7815 25.8084 13.125 25.465L21.465 17.125C22.1919 16.456 23.1494 16.094 24.1371 16.1145C25.1248 16.135 26.0663 16.5365 26.7649 17.2351C27.4635 17.9336 27.865 18.8752 27.8855 19.8629C27.906 20.8506 27.5439 21.808 26.875 22.535L25.7087 23.7075Z" fill="#343330"/>
</svg>
