<svg width="32" height="32" viewBox="0 0 32 32" fill="none" xmlns="http://www.w3.org/2000/svg">
<path d="M21.5001 8.5C21.5001 7.41221 21.1775 6.34884 20.5731 5.44437C19.9688 4.5399 19.1098 3.83495 18.1048 3.41867C17.0998 3.00238 15.994 2.89346 14.9271 3.10568C13.8602 3.3179 12.8802 3.84173 12.111 4.61092C11.3418 5.3801 10.818 6.36011 10.6057 7.42701C10.3935 8.4939 10.5024 9.59977 10.9187 10.6048C11.335 11.6098 12.0399 12.4687 12.9444 13.0731C13.8489 13.6774 14.9123 14 16.0001 14C17.4582 13.9983 18.8562 13.4184 19.8873 12.3873C20.9184 11.3562 21.4984 9.95819 21.5001 8.5ZM16.0001 12C15.3078 12 14.6311 11.7947 14.0556 11.4101C13.48 11.0256 13.0314 10.4789 12.7665 9.83939C12.5016 9.19985 12.4323 8.49612 12.5673 7.81719C12.7024 7.13825 13.0357 6.51461 13.5252 6.02513C14.0147 5.53565 14.6383 5.2023 15.3172 5.06725C15.9962 4.93221 16.6999 5.00152 17.3394 5.26642C17.979 5.53133 18.5256 5.97993 18.9102 6.55551C19.2948 7.13108 19.5001 7.80777 19.5001 8.5C19.5001 9.42826 19.1313 10.3185 18.4749 10.9749C17.8186 11.6313 16.9283 12 16.0001 12ZM26.0001 28C26.0001 28.2652 25.8947 28.5196 25.7072 28.7071C25.5196 28.8946 25.2653 29 25.0001 29H7.00006C6.79695 29 6.59867 28.9381 6.4316 28.8226C6.26453 28.7071 6.13659 28.5435 6.0648 28.3535C5.99301 28.1635 5.98077 27.9561 6.02972 27.759C6.07867 27.5619 6.18648 27.3843 6.33881 27.25L18.5976 16.4325C17.4949 16.0532 16.3227 15.9196 15.1629 16.041C14.0032 16.1623 12.884 16.5357 11.8837 17.135C10.8835 17.7344 10.0263 18.5451 9.37231 19.5105C8.71829 20.4759 8.28322 21.5726 8.09756 22.7238C8.04505 22.9756 7.8975 23.1975 7.68558 23.3434C7.47367 23.4893 7.21368 23.5478 6.95969 23.507C6.70569 23.4661 6.47722 23.3289 6.32178 23.1239C6.16634 22.9189 6.09588 22.6619 6.12506 22.4063C6.37198 20.8755 6.97149 19.4231 7.87621 18.1639C8.78092 16.9047 9.96607 15.8731 11.338 15.1506C12.7099 14.4282 14.2311 14.0346 15.7813 14.0011C17.3314 13.9676 18.8682 14.295 20.2701 14.9575L23.3388 12.25C23.5384 12.0795 23.797 11.9944 24.0589 12.0129C24.3207 12.0315 24.5647 12.1522 24.7383 12.3491C24.9119 12.546 25.0011 12.8032 24.9867 13.0653C24.9723 13.3274 24.8554 13.5733 24.6613 13.75L9.64506 27H25.0001C25.2653 27 25.5196 27.1054 25.7072 27.2929C25.8947 27.4804 26.0001 27.7348 26.0001 28ZM24.2163 18.2975C25.3811 19.9707 26.0037 21.9613 26.0001 24C26.0001 24.2652 25.8947 24.5196 25.7072 24.7071C25.5196 24.8946 25.2653 25 25.0001 25C24.7348 25 24.4805 24.8946 24.2929 24.7071C24.1054 24.5196 24.0001 24.2652 24.0001 24C24.0031 22.3694 23.5053 20.7772 22.5738 19.4388C22.4225 19.2209 22.3639 18.9519 22.4109 18.6909C22.4579 18.4299 22.6066 18.1982 22.8244 18.0469C23.0422 17.8955 23.3112 17.8369 23.5723 17.8839C23.8333 17.9309 24.065 18.0797 24.2163 18.2975Z" fill="#343330"/>
</svg>
