<svg width="32" height="32" viewBox="0 0 32 32" fill="none" xmlns="http://www.w3.org/2000/svg">
<path d="M31 17C30.7348 17 30.4804 17.1054 30.2929 17.2929C30.1053 17.4804 30 17.7348 30 18V20H24.4137L22.125 17.7075L28.4175 11.4138C28.7923 11.0387 29.0028 10.5302 29.0028 10C29.0028 9.4698 28.7923 8.96129 28.4175 8.58625L21.4175 1.58625C21.2318 1.40049 21.0113 1.25313 20.7686 1.15259C20.5259 1.05205 20.2658 1.00031 20.0031 1.00031C19.7404 1.00031 19.4803 1.05205 19.2376 1.15259C18.9949 1.25313 18.7745 1.40049 18.5887 1.58625L0.36498 19.8675C0.190571 20.0425 0.071914 20.2652 0.0239907 20.5075C-0.0239325 20.7499 0.00102749 21.001 0.095719 21.2291C0.19041 21.4573 0.350587 21.6523 0.556023 21.7895C0.761459 21.9267 1.00294 22 1.24998 22H6.17123L10.5862 26.4138C10.9613 26.7885 11.4698 26.9991 12 26.9991C12.5302 26.9991 13.0387 26.7885 13.4137 26.4138L20.7075 19.125L23 21.4138C23.185 21.6003 23.4053 21.7482 23.648 21.8488C23.8907 21.9494 24.151 22.0008 24.4137 22H30V24C30 24.2652 30.1053 24.5196 30.2929 24.7071C30.4804 24.8946 30.7348 25 31 25C31.2652 25 31.5196 24.8946 31.7071 24.7071C31.8946 24.5196 32 24.2652 32 24V18C32 17.7348 31.8946 17.4804 31.7071 17.2929C31.5196 17.1054 31.2652 17 31 17ZM20 3L21.5862 4.58625L6.17123 20H3.05748L20 3ZM12 25L7.99998 21L23 6L27 10L12 25Z" fill="#343330"/>
</svg>
