<svg width="32" height="32" viewBox="0 0 32 32" fill="none" xmlns="http://www.w3.org/2000/svg">
<path d="M13 4.99999C13 4.73478 13.1054 4.48042 13.2929 4.29289C13.4804 4.10535 13.7348 3.99999 14 3.99999H18C18.2652 3.99999 18.5196 4.10535 18.7071 4.29289C18.8946 4.48042 19 4.73478 19 4.99999C19 5.26521 18.8946 5.51956 18.7071 5.7071C18.5196 5.89464 18.2652 5.99999 18 5.99999H14C13.7348 5.99999 13.4804 5.89464 13.2929 5.7071C13.1054 5.51956 13 5.26521 13 4.99999ZM18 26H14C13.7348 26 13.4804 26.1053 13.2929 26.2929C13.1054 26.4804 13 26.7348 13 27C13 27.2652 13.1054 27.5196 13.2929 27.7071C13.4804 27.8946 13.7348 28 14 28H18C18.2652 28 18.5196 27.8946 18.7071 27.7071C18.8946 27.5196 19 27.2652 19 27C19 26.7348 18.8946 26.4804 18.7071 26.2929C18.5196 26.1053 18.2652 26 18 26ZM26 3.99999H23C22.7348 3.99999 22.4804 4.10535 22.2929 4.29289C22.1054 4.48042 22 4.73478 22 4.99999C22 5.26521 22.1054 5.51956 22.2929 5.7071C22.4804 5.89464 22.7348 5.99999 23 5.99999H26V8.99999C26 9.26521 26.1054 9.51956 26.2929 9.7071C26.4804 9.89464 26.7348 9.99999 27 9.99999C27.2652 9.99999 27.5196 9.89464 27.7071 9.7071C27.8946 9.51956 28 9.26521 28 8.99999V5.99999C28 5.46956 27.7893 4.96085 27.4142 4.58578C27.0391 4.21071 26.5304 3.99999 26 3.99999ZM27 13C26.7348 13 26.4804 13.1053 26.2929 13.2929C26.1054 13.4804 26 13.7348 26 14V18C26 18.2652 26.1054 18.5196 26.2929 18.7071C26.4804 18.8946 26.7348 19 27 19C27.2652 19 27.5196 18.8946 27.7071 18.7071C27.8946 18.5196 28 18.2652 28 18V14C28 13.7348 27.8946 13.4804 27.7071 13.2929C27.5196 13.1053 27.2652 13 27 13ZM5 19C5.26522 19 5.51957 18.8946 5.70711 18.7071C5.89464 18.5196 6 18.2652 6 18V14C6 13.7348 5.89464 13.4804 5.70711 13.2929C5.51957 13.1053 5.26522 13 5 13C4.73478 13 4.48043 13.1053 4.29289 13.2929C4.10536 13.4804 4 13.7348 4 14V18C4 18.2652 4.10536 18.5196 4.29289 18.7071C4.48043 18.8946 4.73478 19 5 19ZM9 26H6V23C6 22.7348 5.89464 22.4804 5.70711 22.2929C5.51957 22.1053 5.26522 22 5 22C4.73478 22 4.48043 22.1053 4.29289 22.2929C4.10536 22.4804 4 22.7348 4 23V26C4 26.5304 4.21071 27.0391 4.58579 27.4142C4.96086 27.7893 5.46957 28 6 28H9C9.26522 28 9.51957 27.8946 9.70711 27.7071C9.89464 27.5196 10 27.2652 10 27C10 26.7348 9.89464 26.4804 9.70711 26.2929C9.51957 26.1053 9.26522 26 9 26ZM6.74 4.32749C6.65218 4.2285 6.54559 4.14792 6.4264 4.09043C6.30721 4.03294 6.1778 3.99967 6.04566 3.99256C5.91352 3.98545 5.78128 4.00464 5.65661 4.04902C5.53194 4.09339 5.41732 4.16207 5.31939 4.25107C5.22146 4.34007 5.14216 4.44762 5.0861 4.56749C5.03004 4.68736 4.99833 4.81716 4.99281 4.94938C4.98728 5.08159 5.00806 5.21359 5.05392 5.33772C5.09979 5.46184 5.16983 5.57563 5.26 5.67249L25.26 27.6725C25.3478 27.7715 25.4544 27.8521 25.5736 27.9096C25.6928 27.967 25.8222 28.0003 25.9543 28.0074C26.0865 28.0145 26.2187 27.9953 26.3434 27.951C26.4681 27.9066 26.5827 27.8379 26.6806 27.7489C26.7785 27.6599 26.8578 27.5524 26.9139 27.4325C26.97 27.3126 27.0017 27.1828 27.0072 27.0506C27.0127 26.9184 26.9919 26.7864 26.9461 26.6623C26.9002 26.5381 26.8302 26.4243 26.74 26.3275L6.74 4.32749Z" fill="#343330"/>
</svg>
