<svg width="32" height="32" viewBox="0 0 32 32" fill="none" xmlns="http://www.w3.org/2000/svg">
<path d="M8.94876 7.68375C8.88242 7.48459 8.75509 7.31136 8.58481 7.1886C8.41453 7.06584 8.20993 6.99978 8.00001 6.99978C7.79009 6.99978 7.5855 7.06584 7.41522 7.1886C7.24494 7.31136 7.1176 7.48459 7.05126 7.68375L2.05126 22.6838C2.00115 22.8341 1.98748 22.9942 2.01138 23.1508C2.03527 23.3075 2.09606 23.4562 2.18871 23.5847C2.28137 23.7133 2.40325 23.818 2.5443 23.8902C2.68536 23.9624 2.84155 24 3.00001 24H13C13.1585 24 13.3147 23.9624 13.4557 23.8902C13.5968 23.818 13.7187 23.7133 13.8113 23.5847C13.904 23.4562 13.9648 23.3075 13.9887 23.1508C14.0125 22.9942 13.9989 22.8341 13.9488 22.6838L8.94876 7.68375ZM4.38751 22L8.00001 11.1625L11.6125 22H4.38751ZM26 9.5C26 8.21442 25.6188 6.95772 24.9046 5.8888C24.1903 4.81988 23.1752 3.98676 21.9875 3.49479C20.7997 3.00282 19.4928 2.87409 18.2319 3.1249C16.971 3.3757 15.8129 3.99477 14.9038 4.90381C13.9948 5.81285 13.3757 6.97104 13.1249 8.23192C12.8741 9.49279 13.0028 10.7997 13.4948 11.9874C13.9868 13.1752 14.8199 14.1903 15.8888 14.9046C16.9577 15.6188 18.2144 16 19.5 16C21.2233 15.998 22.8755 15.3126 24.094 14.094C25.3126 12.8754 25.998 11.2233 26 9.5ZM15 9.5C15 8.60999 15.2639 7.73996 15.7584 6.99994C16.2529 6.25992 16.9557 5.68314 17.7779 5.34255C18.6002 5.00195 19.505 4.91284 20.3779 5.08647C21.2508 5.2601 22.0527 5.68869 22.682 6.31802C23.3113 6.94736 23.7399 7.74918 23.9135 8.6221C24.0872 9.49501 23.9981 10.3998 23.6575 11.2221C23.3169 12.0443 22.7401 12.7471 22.0001 13.2416C21.2601 13.7361 20.39 14 19.5 14C18.3065 14 17.1619 13.5259 16.318 12.682C15.4741 11.8381 15 10.6935 15 9.5ZM28 18H17C16.7348 18 16.4804 18.1054 16.2929 18.2929C16.1054 18.4804 16 18.7348 16 19V26C16 26.2652 16.1054 26.5196 16.2929 26.7071C16.4804 26.8946 16.7348 27 17 27H28C28.2652 27 28.5196 26.8946 28.7071 26.7071C28.8947 26.5196 29 26.2652 29 26V19C29 18.7348 28.8947 18.4804 28.7071 18.2929C28.5196 18.1054 28.2652 18 28 18ZM27 25H18V20H27V25Z" fill="#343330"/>
</svg>
