<svg width="32" height="32" viewBox="0 0 32 32" fill="none" xmlns="http://www.w3.org/2000/svg">
<path d="M29.7075 13.2938L19.7075 3.29378C19.5678 3.15384 19.3896 3.0585 19.1957 3.01981C19.0017 2.98112 18.8006 3.00082 18.6178 3.07641C18.4351 3.15201 18.2788 3.28011 18.1688 3.44451C18.0589 3.60892 18.0001 3.80224 18 4.00003V9.04378C14.7575 9.32128 11.1763 10.9088 8.23005 13.4075C4.68255 16.4175 2.4738 20.2963 2.01005 24.3288C1.97381 24.6423 2.03737 24.9592 2.1917 25.2345C2.34603 25.5098 2.58325 25.7294 2.86962 25.8621C3.15598 25.9947 3.47689 26.0337 3.78667 25.9734C4.09646 25.9131 4.37933 25.7566 4.59505 25.5263C5.97005 24.0625 10.8625 19.4338 18 19.0263V24C18.0001 24.1978 18.0589 24.3911 18.1688 24.5555C18.2788 24.7199 18.4351 24.848 18.6178 24.9236C18.8006 24.9992 19.0017 25.0189 19.1957 24.9802C19.3896 24.9416 19.5678 24.8462 19.7075 24.7063L29.7075 14.7063C29.8946 14.5188 29.9996 14.2648 29.9996 14C29.9996 13.7352 29.8946 13.4812 29.7075 13.2938ZM20 21.5863V18C20 17.7348 19.8947 17.4805 19.7072 17.2929C19.5196 17.1054 19.2653 17 19 17C15.49 17 12.0713 17.9163 8.8388 19.725C7.19248 20.6503 5.65856 21.7627 4.26755 23.04C4.99255 20.06 6.82005 17.2263 9.5238 14.9325C12.4263 12.4713 15.9688 11 19 11C19.2653 11 19.5196 10.8947 19.7072 10.7071C19.8947 10.5196 20 10.2652 20 10V6.41503L27.5863 14L20 21.5863Z" fill="#343330"/>
</svg>
