<svg width="32" height="32" viewBox="0 0 32 32" fill="none" xmlns="http://www.w3.org/2000/svg">
<path d="M28.7075 13.7075L22.7075 19.7075C22.5199 19.8951 22.2654 20.0006 22 20.0006C21.7346 20.0006 21.4801 19.8951 21.2925 19.7075C21.1049 19.5199 20.9994 19.2654 20.9994 19C20.9994 18.7346 21.1049 18.4801 21.2925 18.2925L25.5863 14H20.625C18.1858 13.9993 15.8156 14.8094 13.8871 16.3028C11.9585 17.7962 10.581 19.8883 9.97125 22.25C9.90495 22.5069 9.73929 22.727 9.51073 22.8618C9.28217 22.9966 9.00943 23.0351 8.7525 22.9688C8.49557 22.9025 8.27551 22.7368 8.14071 22.5082C8.00592 22.2797 7.96745 22.0069 8.03375 21.75C8.75327 18.9582 10.3809 16.4849 12.6605 14.7198C14.94 12.9546 17.7419 11.9978 20.625 12H25.5888L21.2925 7.70751C21.1996 7.6146 21.1259 7.5043 21.0756 7.3829C21.0253 7.26151 20.9994 7.1314 20.9994 7.00001C20.9994 6.86861 21.0253 6.7385 21.0756 6.61711C21.1259 6.49572 21.1996 6.38542 21.2925 6.29251C21.4801 6.10487 21.7346 5.99945 22 5.99945C22.1314 5.99945 22.2615 6.02533 22.3829 6.07561C22.5043 6.1259 22.6146 6.1996 22.7075 6.29251L28.7075 12.2925C28.8005 12.3854 28.8742 12.4957 28.9246 12.6171C28.9749 12.7385 29.0008 12.8686 29.0008 13C29.0008 13.1314 28.9749 13.2615 28.9246 13.3829C28.8742 13.5043 28.8005 13.6146 28.7075 13.7075ZM24 26H5V11C5 10.7348 4.89464 10.4804 4.70711 10.2929C4.51957 10.1054 4.26522 10 4 10C3.73478 10 3.48043 10.1054 3.29289 10.2929C3.10536 10.4804 3 10.7348 3 11V27C3 27.2652 3.10536 27.5196 3.29289 27.7071C3.48043 27.8947 3.73478 28 4 28H24C24.2652 28 24.5196 27.8947 24.7071 27.7071C24.8946 27.5196 25 27.2652 25 27C25 26.7348 24.8946 26.4804 24.7071 26.2929C24.5196 26.1054 24.2652 26 24 26Z" fill="#343330"/>
</svg>
