<svg width="32" height="32" viewBox="0 0 32 32" fill="none" xmlns="http://www.w3.org/2000/svg">
<path d="M22.0001 20C21.333 19.9998 20.6726 20.1334 20.0581 20.393C19.4436 20.6526 18.8875 21.0328 18.4226 21.5112L12.6601 17.8075C13.1133 16.6451 13.1133 15.3548 12.6601 14.1925L18.4226 10.4887C19.2881 11.3754 20.4521 11.909 21.6888 11.9863C22.9255 12.0635 24.1468 11.6787 25.1159 10.9067C26.085 10.1346 26.733 9.03013 26.9341 7.80746C27.1352 6.58479 26.8751 5.33101 26.2043 4.28919C25.5335 3.24737 24.4998 2.49173 23.3035 2.16879C22.1073 1.84584 20.8337 1.97859 19.7297 2.54129C18.6258 3.104 17.7701 4.05658 17.3286 5.21434C16.887 6.3721 16.8911 7.65256 17.3401 8.80748L11.5776 12.5112C10.8836 11.7988 9.99304 11.3095 9.0196 11.1059C8.04617 10.9023 7.03412 10.9936 6.11284 11.3681C5.19155 11.7426 4.40289 12.3834 3.84765 13.2085C3.29242 14.0336 2.99585 15.0055 2.99585 16C2.99585 16.9945 3.29242 17.9664 3.84765 18.7915C4.40289 19.6166 5.19155 20.2573 6.11284 20.6319C7.03412 21.0064 8.04617 21.0977 9.0196 20.894C9.99304 20.6904 10.8836 20.2011 11.5776 19.4887L17.3401 23.1925C16.954 24.1881 16.8969 25.2812 17.177 26.3117C17.4572 27.3422 18.0599 28.2559 18.8969 28.919C19.734 29.5822 20.7613 29.9599 21.8285 29.997C22.8958 30.034 23.9468 29.7284 24.8278 29.1248C25.7088 28.5213 26.3734 27.6516 26.7243 26.643C27.0752 25.6344 27.0939 24.54 26.7778 23.5199C26.4617 22.4999 25.8274 21.6079 24.9676 20.9745C24.1079 20.3411 23.0679 19.9996 22.0001 20ZM22.0001 3.99998C22.5934 3.99998 23.1734 4.17592 23.6668 4.50557C24.1601 4.83521 24.5446 5.30375 24.7717 5.85193C24.9988 6.4001 25.0582 7.0033 24.9424 7.58525C24.8267 8.16719 24.5409 8.70174 24.1214 9.1213C23.7018 9.54085 23.1673 9.82658 22.5853 9.94233C22.0034 10.0581 21.4002 9.99868 20.852 9.77161C20.3038 9.54455 19.8353 9.16003 19.5056 8.66669C19.176 8.17334 19.0001 7.59332 19.0001 6.99998C19.0001 6.20433 19.3161 5.44126 19.8787 4.87866C20.4413 4.31605 21.2044 3.99998 22.0001 3.99998ZM8.00006 19C7.40671 19 6.82669 18.824 6.33335 18.4944C5.84 18.1647 5.45548 17.6962 5.22842 17.148C5.00136 16.5998 4.94195 15.9966 5.0577 15.4147C5.17346 14.8328 5.45918 14.2982 5.87874 13.8787C6.29829 13.4591 6.83284 13.1734 7.41479 13.0576C7.99673 12.9419 8.59993 13.0013 9.14811 13.2283C9.69628 13.4554 10.1648 13.8399 10.4945 14.3333C10.8241 14.8266 11.0001 15.4066 11.0001 16C11.0001 16.7956 10.684 17.5587 10.1214 18.1213C9.55877 18.6839 8.79571 19 8.00006 19ZM22.0001 28C21.4067 28 20.8267 27.824 20.3333 27.4944C19.84 27.1647 19.4555 26.6962 19.2284 26.148C19.0014 25.5998 18.9419 24.9966 19.0577 24.4147C19.1735 23.8328 19.4592 23.2982 19.8787 22.8787C20.2983 22.4591 20.8328 22.1734 21.4148 22.0576C21.9967 21.9419 22.5999 22.0013 23.1481 22.2283C23.6963 22.4554 24.1648 22.8399 24.4945 23.3333C24.8241 23.8266 25.0001 24.4066 25.0001 25C25.0001 25.7956 24.684 26.5587 24.1214 27.1213C23.5588 27.6839 22.7957 28 22.0001 28Z" fill="#343330"/>
</svg>
