<svg width="32" height="32" viewBox="0 0 32 32" fill="none" xmlns="http://www.w3.org/2000/svg">
<path d="M26 5H6C5.46957 5 4.96086 5.21071 4.58579 5.58579C4.21071 5.96086 4 6.46957 4 7V14C4 20.59 7.19 24.5837 9.86625 26.7738C12.7487 29.1313 15.6163 29.9312 15.7413 29.965C15.9131 30.0118 16.0944 30.0118 16.2663 29.965C16.3913 29.9312 19.255 29.1313 22.1413 26.7738C24.81 24.5837 28 20.59 28 14V7C28 6.46957 27.7893 5.96086 27.4142 5.58579C27.0391 5.21071 26.5304 5 26 5ZM20.925 25.1775C19.4591 26.3846 17.7919 27.324 16 27.9525C14.2315 27.335 12.5849 26.4123 11.135 25.2262C9.92926 24.2524 8.89388 23.0848 8.07125 21.7712L16 16.2213L23.9287 21.7712C23.1204 23.0632 22.1056 24.2138 20.925 25.1775ZM26 14C26 16.1925 25.6192 18.1858 24.8575 19.98L16.5737 14.1812C16.4056 14.0635 16.2053 14.0003 16 14.0003C15.7947 14.0003 15.5944 14.0635 15.4263 14.1812L7.14125 19.98C6.3825 18.19 6 16.1925 6 14V7H26V14Z" fill="#343330"/>
</svg>
