<svg width="32" height="32" viewBox="0 0 32 32" fill="none" xmlns="http://www.w3.org/2000/svg">
<path d="M26 5H6C5.46957 5 4.96086 5.21071 4.58579 5.58579C4.21071 5.96086 4 6.46957 4 7V14C4 20.59 7.19 24.5837 9.86625 26.7738C12.7487 29.1313 15.6163 29.9325 15.7413 29.965C15.9131 30.0118 16.0944 30.0118 16.2663 29.965C16.3913 29.9325 19.255 29.1313 22.1413 26.7738C24.81 24.5837 28 20.59 28 14V7C28 6.46957 27.7893 5.96086 27.4142 5.58579C27.0391 5.21071 26.5304 5 26 5ZM26 14C26 18.6337 24.2925 22.395 20.925 25.1775C19.4591 26.3846 17.7919 27.324 16 27.9525C14.2315 27.335 12.5849 26.4123 11.135 25.2262C7.7275 22.4387 6 18.6625 6 14V7H26V14Z" fill="#343330"/>
</svg>
