<svg width="32" height="32" viewBox="0 0 32 32" fill="none" xmlns="http://www.w3.org/2000/svg">
<path d="M15 17V12C15 11.7348 15.1054 11.4804 15.2929 11.2929C15.4804 11.1054 15.7348 11 16 11C16.2652 11 16.5196 11.1054 16.7071 11.2929C16.8946 11.4804 17 11.7348 17 12V17C17 17.2652 16.8946 17.5196 16.7071 17.7071C16.5196 17.8946 16.2652 18 16 18C15.7348 18 15.4804 17.8946 15.2929 17.7071C15.1054 17.5196 15 17.2652 15 17ZM16 23C16.2967 23 16.5867 22.912 16.8334 22.7472C17.08 22.5824 17.2723 22.3481 17.3858 22.074C17.4993 21.7999 17.5291 21.4983 17.4712 21.2074C17.4133 20.9164 17.2704 20.6491 17.0607 20.4393C16.8509 20.2296 16.5836 20.0867 16.2926 20.0288C16.0017 19.9709 15.7001 20.0007 15.426 20.1142C15.1519 20.2277 14.9176 20.42 14.7528 20.6666C14.588 20.9133 14.5 21.2033 14.5 21.5C14.5 21.8978 14.658 22.2794 14.9393 22.5607C15.2206 22.842 15.6022 23 16 23ZM28 7V14C28 20.59 24.81 24.5837 22.1338 26.7738C19.2513 29.1313 16.3838 29.9325 16.2588 29.965C16.0869 30.0118 15.9056 30.0118 15.7338 29.965C15.6088 29.9325 12.745 29.1313 9.85875 26.7738C7.19 24.5837 4 20.59 4 14V7C4 6.46957 4.21071 5.96086 4.58579 5.58579C4.96086 5.21071 5.46957 5 6 5H26C26.5304 5 27.0391 5.21071 27.4142 5.58579C27.7893 5.96086 28 6.46957 28 7ZM26 7H6V14C6 18.6625 7.7275 22.4387 11.1337 25.2262C12.5841 26.4124 14.2311 27.3351 16 27.9525C17.7924 27.3241 19.46 26.3848 20.9263 25.1775C24.2925 22.395 26 18.6337 26 14V7Z" fill="#343330"/>
</svg>
