<svg width="32" height="32" viewBox="0 0 32 32" fill="none" xmlns="http://www.w3.org/2000/svg">
<path d="M26 5H6C5.46957 5 4.96086 5.21071 4.58579 5.58579C4.21071 5.96086 4 6.46957 4 7V14C4 20.59 7.19 24.5837 9.86625 26.7738C12.7487 29.1313 15.6163 29.9325 15.7413 29.965C15.9131 30.0118 16.0944 30.0118 16.2663 29.965C16.3913 29.9325 19.255 29.1313 22.1413 26.7738C24.81 24.5837 28 20.59 28 14V7C28 6.46957 27.7893 5.96086 27.4142 5.58579C27.0391 5.21071 26.5304 5 26 5ZM26 7V14C26 14.3387 25.99 14.6713 25.9713 15H17V7H26ZM6 7H15V15H6.02875C6.01 14.6713 6 14.3387 6 14V7ZM6.2575 17H15V27.5688C13.609 26.9706 12.3079 26.1823 11.1337 25.2262C8.49 23.0637 6.85875 20.305 6.26 17H6.2575ZM20.925 25.1775C19.7351 26.1538 18.4139 26.958 17 27.5662V17H25.7388C25.145 20.28 23.5337 23.0225 20.925 25.1775Z" fill="#343330"/>
</svg>
