<svg width="32" height="32" viewBox="0 0 32 32" fill="none" xmlns="http://www.w3.org/2000/svg">
<path d="M29.55 8.83126L16.275 5.03876C16.1398 5.00002 15.998 4.99022 15.8588 5.01001L2.7175 6.88751C2.24169 6.95749 1.80675 7.19576 1.49162 7.55905C1.17649 7.92235 1.00206 8.38659 1 8.86751V23.1325C1.00206 23.6134 1.17649 24.0777 1.49162 24.441C1.80675 24.8043 2.24169 25.0425 2.7175 25.1125L15.8588 26.9875C15.9055 26.9948 15.9527 26.999 16 27C16.093 27.0002 16.1856 26.9872 16.275 26.9613L29.55 23.1688C29.9664 23.0482 30.3325 22.7962 30.5939 22.4504C30.8552 22.1045 30.9977 21.6835 31 21.25V10.75C30.9977 10.3166 30.8552 9.89548 30.5939 9.54966C30.3325 9.20384 29.9664 8.95183 29.55 8.83126ZM12 15H10V7.86751L15 7.15251V24.8475L10 24.1325V17H12C12.2652 17 12.5196 16.8947 12.7071 16.7071C12.8946 16.5196 13 16.2652 13 16C13 15.7348 12.8946 15.4804 12.7071 15.2929C12.5196 15.1054 12.2652 15 12 15ZM3 8.86751L8 8.15251V15H6C5.73478 15 5.48043 15.1054 5.29289 15.2929C5.10536 15.4804 5 15.7348 5 16C5 16.2652 5.10536 16.5196 5.29289 16.7071C5.48043 16.8947 5.73478 17 6 17H8V23.8475L3 23.1325V8.86751ZM17 24.6738V7.32626L29 10.75V21.25L17 24.6738Z" fill="#343330"/>
</svg>
