<svg width="32" height="32" viewBox="0 0 32 32" fill="none" xmlns="http://www.w3.org/2000/svg">
<path d="M25 5H22.4137L20.7075 3.2925C20.6146 3.19967 20.5042 3.12605 20.3829 3.07586C20.2615 3.02568 20.1314 2.9999 20 3H12C11.8686 2.9999 11.7385 3.02568 11.6172 3.07586C11.4958 3.12605 11.3854 3.19967 11.2925 3.2925L9.58625 5H7C6.46957 5 5.96086 5.21071 5.58579 5.58579C5.21071 5.96086 5 6.46957 5 7V26C5 26.5304 5.21071 27.0391 5.58579 27.4142C5.96086 27.7893 6.46957 28 7 28H25C25.5304 28 26.0391 27.7893 26.4142 27.4142C26.7893 27.0391 27 26.5304 27 26V7C27 6.46957 26.7893 5.96086 26.4142 5.58579C26.0391 5.21071 25.5304 5 25 5ZM16 8.1975L13.875 5H18.1375L16 8.1975ZM20.155 5.5725L21 6.41375V13L17.3213 9.82L20.155 5.5725ZM11 6.41375L11.845 5.57L14.6788 9.82L11 13V6.41375ZM7 7H9V13C8.99765 13.3806 9.10498 13.7538 9.30914 14.075C9.5133 14.3962 9.80566 14.6518 10.1512 14.8112C10.417 14.9353 10.7067 14.9997 11 15C11.4666 14.9992 11.918 14.8341 12.275 14.5337C12.2802 14.5303 12.2848 14.5261 12.2887 14.5212L15 12.185V26H7V7ZM25 26H17V12.185L19.7062 14.5225C19.7102 14.5273 19.7148 14.5315 19.72 14.535C20.0785 14.836 20.5319 15.0007 21 15C21.2953 14.9992 21.5867 14.9335 21.8538 14.8075C22.1978 14.6476 22.4888 14.3923 22.6919 14.0719C22.8951 13.7514 23.0021 13.3794 23 13V7H25V26Z" fill="#343330"/>
</svg>
