<svg width="32" height="32" viewBox="0 0 32 32" fill="none" xmlns="http://www.w3.org/2000/svg">
<path d="M29.9187 8.76C29.8168 8.44214 29.6224 8.16193 29.3603 7.95526C29.0981 7.7486 28.7803 7.62489 28.4474 7.6L23.8299 7.235L22.0537 3.0275C21.924 2.72281 21.7075 2.46299 21.4312 2.28036C21.155 2.09774 20.8311 2.00037 20.4999 2.00037C20.1688 2.00037 19.8449 2.09774 19.5687 2.28036C19.2924 2.46299 19.0759 2.72281 18.9462 3.0275L17.1699 7.235L12.5524 7.6C12.2209 7.62443 11.9041 7.74706 11.6425 7.95225C11.3809 8.15744 11.1863 8.43589 11.0836 8.75211C10.9808 9.06832 10.9746 9.40796 11.0657 9.72772C11.1568 10.0475 11.341 10.3329 11.5949 10.5475L15.1024 13.5075L14.0324 17.9312C13.9546 18.2516 13.9737 18.5879 14.0872 18.8974C14.2006 19.207 14.4035 19.4759 14.6699 19.67C14.9389 19.8682 15.2606 19.9823 15.5944 19.9976C15.9281 20.013 16.2589 19.929 16.5449 19.7562L20.4999 17.375L24.4562 19.7575C24.7424 19.9297 25.0731 20.0135 25.4067 19.9981C25.7404 19.9828 26.062 19.869 26.3312 19.6712C26.5972 19.4767 26.7996 19.2078 26.9128 18.8983C27.0261 18.5888 27.0451 18.2528 26.9674 17.9325L25.8974 13.5087L29.4049 10.5487C29.659 10.3356 29.8435 10.0515 29.9351 9.73286C30.0266 9.41417 30.0209 9.07542 29.9187 8.76ZM24.1349 12.375C23.993 12.4949 23.8873 12.652 23.8297 12.8286C23.7721 13.0053 23.7648 13.1945 23.8087 13.375L24.8437 17.6512L21.0162 15.35C20.8605 15.2563 20.6823 15.2068 20.5006 15.2068C20.3189 15.2068 20.1406 15.2563 19.9849 15.35L16.1574 17.6537L17.1924 13.375C17.2362 13.1943 17.2287 13.0051 17.1709 12.8284C17.113 12.6518 17.0071 12.4948 16.8649 12.375L13.4999 9.5325L17.9399 9.18125C18.1227 9.16675 18.2979 9.1023 18.4465 8.99494C18.5951 8.88758 18.7113 8.74144 18.7824 8.5725L20.4999 4.48875L22.2237 8.5725C22.2948 8.74144 22.4111 8.88758 22.5596 8.99494C22.7082 9.1023 22.8835 9.16675 23.0662 9.18125L27.5074 9.5325L24.1349 12.375ZM11.0099 15.3975L3.70745 22.7075C3.51981 22.8951 3.26531 23.0006 2.99995 23.0006C2.73458 23.0006 2.48009 22.8951 2.29245 22.7075C2.10481 22.5199 1.99939 22.2654 1.99939 22C1.99939 21.7346 2.10481 21.4801 2.29245 21.2925L9.5987 13.9862C9.78634 13.7986 10.0408 13.6932 10.3062 13.6932C10.5716 13.6932 10.8261 13.7986 11.0137 13.9862C11.2013 14.1739 11.3068 14.4284 11.3068 14.6937C11.3068 14.9591 11.2013 15.2136 11.0137 15.4012L11.0099 15.3975ZM12.3612 21.6312C12.5486 21.8188 12.6539 22.073 12.6539 22.3381C12.6539 22.6032 12.5486 22.8575 12.3612 23.045L5.70745 29.7075C5.61454 29.8004 5.50424 29.8741 5.38284 29.9244C5.26145 29.9747 5.13134 30.0006 4.99995 30.0006C4.86855 30.0006 4.73844 29.9747 4.61705 29.9244C4.49566 29.8741 4.38536 29.8004 4.29245 29.7075C4.19954 29.6146 4.12584 29.5043 4.07555 29.3829C4.02527 29.2615 3.99939 29.1314 3.99939 29C3.99939 28.8686 4.02527 28.7385 4.07555 28.6171C4.12584 28.4957 4.19954 28.3854 4.29245 28.2925L10.9512 21.635C11.1387 21.4476 11.393 21.3423 11.6581 21.3423C11.9232 21.3423 12.1774 21.4476 12.3649 21.635L12.3612 21.6312ZM21.4862 21.5062C21.5792 21.5991 21.6529 21.7094 21.7033 21.8308C21.7536 21.9522 21.7795 22.0823 21.7795 22.2137C21.7795 22.3452 21.7536 22.4753 21.7033 22.5967C21.6529 22.7181 21.5792 22.8284 21.4862 22.9212L14.7012 29.7062C14.5136 29.8939 14.2591 29.9993 13.9937 29.9993C13.7283 29.9993 13.4738 29.8939 13.2862 29.7062C13.0986 29.5186 12.9931 29.2641 12.9931 28.9987C12.9931 28.7334 13.0986 28.4789 13.2862 28.2912L20.0724 21.5062C20.1655 21.4126 20.2762 21.3383 20.3981 21.2876C20.52 21.237 20.6507 21.211 20.7827 21.2111C20.9147 21.2112 21.0454 21.2374 21.1672 21.2883C21.289 21.3392 21.3996 21.4137 21.4924 21.5075L21.4862 21.5062Z" fill="#343330"/>
</svg>
