<svg width="32" height="32" viewBox="0 0 32 32" fill="none" xmlns="http://www.w3.org/2000/svg">
<path d="M30.7075 7.2925L24.7075 1.2925C24.6146 1.19959 24.5043 1.12589 24.3829 1.07561C24.2615 1.02532 24.1314 0.999443 24 0.999443C23.8686 0.999443 23.7385 1.02532 23.6171 1.07561C23.4957 1.12589 23.3854 1.19959 23.2925 1.2925C23.1996 1.38541 23.1259 1.49571 23.0756 1.6171C23.0253 1.7385 22.9995 1.8686 22.9995 2C22.9995 2.13139 23.0253 2.2615 23.0756 2.3829C23.1259 2.50429 23.1996 2.61459 23.2925 2.7075L25.5863 5L16.7113 13.875L12.4138 9.585C12.0387 9.21021 11.5302 8.99968 11 8.99968C10.4698 8.99968 9.96129 9.21021 9.58626 9.585L2.58626 16.585C2.39975 16.7703 2.25189 16.9908 2.15126 17.2337C2.05062 17.4766 1.99921 17.7371 2.00001 18V28C2.00001 28.5304 2.21072 29.0391 2.5858 29.4142C2.96087 29.7893 3.46958 30 4.00001 30H14C14.2627 30.0008 14.523 29.9494 14.7657 29.8488C15.0084 29.7482 15.2287 29.6003 15.4138 29.4137L22.4138 22.4137C22.7885 22.0387 22.9991 21.5302 22.9991 21C22.9991 20.4698 22.7885 19.9613 22.4138 19.5863L18.125 15.2925L27 6.4175L29.2925 8.71125C29.3854 8.80416 29.4957 8.87786 29.6171 8.92814C29.7385 8.97843 29.8686 9.0043 30 9.0043C30.1314 9.0043 30.2615 8.97843 30.3829 8.92814C30.5043 8.87786 30.6146 8.80416 30.7075 8.71125C30.8004 8.61834 30.8741 8.50804 30.9244 8.38665C30.9747 8.26525 31.0006 8.13514 31.0006 8.00375C31.0006 7.87235 30.9747 7.74225 30.9244 7.62085C30.8741 7.49946 30.8004 7.38916 30.7075 7.29625V7.2925ZM21 21L14 28H4.00001V18L11 11L15.2925 15.2925L10.2925 20.2925C10.1996 20.3854 10.1259 20.4957 10.0756 20.6171C10.0253 20.7385 9.99945 20.8686 9.99945 21C9.99945 21.1314 10.0253 21.2615 10.0756 21.3829C10.1259 21.5043 10.1996 21.6146 10.2925 21.7075C10.4802 21.8951 10.7346 22.0006 11 22.0006C11.1314 22.0006 11.2615 21.9747 11.3829 21.9244C11.5043 21.8741 11.6146 21.8004 11.7075 21.7075L16.7075 16.7075L21 21Z" fill="#343330"/>
</svg>
