<svg width="32" height="32" viewBox="0 0 32 32" fill="none" xmlns="http://www.w3.org/2000/svg">
<path d="M27 6.00001V11C27 11.2652 26.8947 11.5196 26.7071 11.7071C26.5196 11.8946 26.2652 12 26 12C25.7348 12 25.4804 11.8946 25.2929 11.7071C25.1054 11.5196 25 11.2652 25 11V8.41376L19.535 13.875C19.3437 14.0388 19.0976 14.1244 18.846 14.1147C18.5943 14.105 18.3555 14.0007 18.1774 13.8226C17.9993 13.6445 17.895 13.4057 17.8853 13.1541C17.8756 12.9024 17.9612 12.6563 18.125 12.465L23.5863 7.00001H21C20.7348 7.00001 20.4804 6.89465 20.2929 6.70711C20.1054 6.51958 20 6.26522 20 6.00001C20 5.73479 20.1054 5.48044 20.2929 5.2929C20.4804 5.10536 20.7348 5.00001 21 5.00001H26C26.2652 5.00001 26.5196 5.10536 26.7071 5.2929C26.8947 5.48044 27 5.73479 27 6.00001ZM26 20C25.7348 20 25.4804 20.1054 25.2929 20.2929C25.1054 20.4804 25 20.7348 25 21V23.5863L6.70751 5.29251C6.51987 5.10487 6.26537 4.99945 6.00001 4.99945C5.73464 4.99945 5.48015 5.10487 5.29251 5.29251C5.10487 5.48015 4.99945 5.73464 4.99945 6.00001C4.99945 6.26537 5.10487 6.51987 5.29251 6.70751L23.5863 25H21C20.7348 25 20.4804 25.1054 20.2929 25.2929C20.1054 25.4804 20 25.7348 20 26C20 26.2652 20.1054 26.5196 20.2929 26.7071C20.4804 26.8947 20.7348 27 21 27H26C26.2652 27 26.5196 26.8947 26.7071 26.7071C26.8947 26.5196 27 26.2652 27 26V21C27 20.7348 26.8947 20.4804 26.7071 20.2929C26.5196 20.1054 26.2652 20 26 20ZM12.465 18.125L5.29251 25.2925C5.10487 25.4801 4.99945 25.7346 4.99945 26C4.99945 26.2654 5.10487 26.5199 5.29251 26.7075C5.48015 26.8951 5.73464 27.0006 6.00001 27.0006C6.26537 27.0006 6.51987 26.8951 6.70751 26.7075L13.875 19.535C14.0388 19.3437 14.1244 19.0976 14.1147 18.846C14.105 18.5943 14.0007 18.3555 13.8226 18.1774C13.6445 17.9993 13.4057 17.895 13.1541 17.8853C12.9024 17.8756 12.6563 17.9612 12.465 18.125Z" fill="#343330"/>
</svg>
