<svg width="32" height="32" viewBox="0 0 32 32" fill="none" xmlns="http://www.w3.org/2000/svg">
<path d="M29.7075 22.2925C29.8005 22.3854 29.8742 22.4957 29.9246 22.6171C29.9749 22.7385 30.0008 22.8686 30.0008 23C30.0008 23.1314 29.9749 23.2615 29.9246 23.3829C29.8742 23.5043 29.8005 23.6146 29.7075 23.7075L26.7075 26.7075C26.5199 26.8951 26.2654 27.0006 26 27.0006C25.7346 27.0006 25.4801 26.8951 25.2925 26.7075C25.1049 26.5199 24.9994 26.2654 24.9994 26C24.9994 25.7346 25.1049 25.4801 25.2925 25.2925L26.5863 24H21C20.8408 24 20.6839 23.962 20.5424 23.8892C20.4009 23.8163 20.2788 23.7108 20.1863 23.5813L10.485 10H4C3.73478 10 3.48043 9.89465 3.29289 9.70711C3.10536 9.51958 3 9.26522 3 9.00001C3 8.73479 3.10536 8.48044 3.29289 8.2929C3.48043 8.10536 3.73478 8.00001 4 8.00001H11C11.1592 8 11.3161 8.038 11.4576 8.11083C11.5991 8.18366 11.7212 8.28923 11.8138 8.41876L21.515 22H26.5863L25.2925 20.7075C25.1049 20.5199 24.9994 20.2654 24.9994 20C24.9994 19.7346 25.1049 19.4801 25.2925 19.2925C25.4801 19.1049 25.7346 18.9994 26 18.9994C26.2654 18.9994 26.5199 19.1049 26.7075 19.2925L29.7075 22.2925ZM17.875 13.375C17.9819 13.4513 18.1027 13.5059 18.2307 13.5355C18.3586 13.5651 18.4911 13.5693 18.6207 13.5477C18.7502 13.5261 18.8742 13.4792 18.9856 13.4097C19.097 13.3402 19.1937 13.2494 19.27 13.1425L21.52 10.0025H26.5912L25.2925 11.2925C25.1049 11.4801 24.9994 11.7346 24.9994 12C24.9994 12.2654 25.1049 12.5199 25.2925 12.7075C25.4801 12.8951 25.7346 13.0006 26 13.0006C26.2654 13.0006 26.5199 12.8951 26.7075 12.7075L29.7075 9.70751C29.8005 9.61463 29.8742 9.50434 29.9246 9.38295C29.9749 9.26155 30.0008 9.13142 30.0008 9.00001C30.0008 8.86859 29.9749 8.73846 29.9246 8.61707C29.8742 8.49567 29.8005 8.38538 29.7075 8.29251L26.7075 5.29251C26.5199 5.10487 26.2654 4.99945 26 4.99945C25.7346 4.99945 25.4801 5.10487 25.2925 5.29251C25.1049 5.48015 24.9994 5.73464 24.9994 6.00001C24.9994 6.26537 25.1049 6.51987 25.2925 6.70751L26.5863 8.00001H21C20.8408 8 20.6839 8.038 20.5424 8.11083C20.4009 8.18366 20.2788 8.28923 20.1863 8.41876L17.6437 11.9775C17.567 12.0844 17.512 12.2054 17.4821 12.3335C17.4521 12.4616 17.4478 12.5944 17.4693 12.7243C17.4908 12.8541 17.5377 12.9784 17.6073 13.0901C17.6769 13.2017 17.7679 13.2986 17.875 13.375ZM14.125 18.625C14.0181 18.5487 13.8973 18.4941 13.7693 18.4645C13.6414 18.4349 13.5089 18.4307 13.3793 18.4523C13.2498 18.4739 13.1258 18.5208 13.0144 18.5903C12.903 18.6599 12.8063 18.7506 12.73 18.8575L10.485 22H4C3.73478 22 3.48043 22.1054 3.29289 22.2929C3.10536 22.4804 3 22.7348 3 23C3 23.2652 3.10536 23.5196 3.29289 23.7071C3.48043 23.8947 3.73478 24 4 24H11C11.1592 24 11.3161 23.962 11.4576 23.8892C11.5991 23.8163 11.7212 23.7108 11.8138 23.5813L14.3562 20.0225C14.433 19.9156 14.488 19.7947 14.5179 19.6665C14.5479 19.5384 14.5522 19.4056 14.5307 19.2758C14.5092 19.1459 14.4623 19.0216 14.3927 18.9099C14.3231 18.7983 14.2321 18.7014 14.125 18.625Z" fill="#343330"/>
</svg>
