<svg width="32" height="32" viewBox="0 0 32 32" fill="none" xmlns="http://www.w3.org/2000/svg">
<path d="M30.75 13.3313L26.5413 8.6625C26.3538 8.45408 26.1246 8.2874 25.8685 8.17326C25.6125 8.05913 25.3353 8.0001 25.055 8H17V4C17 3.73478 16.8946 3.48043 16.7071 3.29289C16.5196 3.10536 16.2652 3 16 3C15.7348 3 15.4804 3.10536 15.2929 3.29289C15.1054 3.48043 15 3.73478 15 4V8H5C4.46957 8 3.96086 8.21071 3.58579 8.58579C3.21071 8.96086 3 9.46957 3 10V18C3 18.5304 3.21071 19.0391 3.58579 19.4142C3.96086 19.7893 4.46957 20 5 20H15V28C15 28.2652 15.1054 28.5196 15.2929 28.7071C15.4804 28.8946 15.7348 29 16 29C16.2652 29 16.5196 28.8946 16.7071 28.7071C16.8946 28.5196 17 28.2652 17 28V20H25.055C25.3353 19.9999 25.6125 19.9409 25.8685 19.8267C26.1246 19.7126 26.3538 19.5459 26.5413 19.3375L30.75 14.6687C30.9151 14.4852 31.0065 14.2469 31.0065 14C31.0065 13.7531 30.9151 13.5148 30.75 13.3313ZM25.055 18H5V10H25.055L28.655 14L25.055 18Z" fill="#343330"/>
</svg>
