<svg width="32" height="32" viewBox="0 0 32 32" fill="none" xmlns="http://www.w3.org/2000/svg">
<path d="M29 21H7.9825C8.315 20.345 8.64875 19.6712 8.9825 18.9862C10.8575 19.1925 13.055 17.8888 15.565 15.0938C16.19 16.7762 17.3712 18.96 19.3875 19C20.52 19.0225 21.6512 18.35 22.815 16.9538C23.6637 17.9688 25.4125 19 29 19C29.2652 19 29.5196 18.8946 29.7071 18.7071C29.8946 18.5196 30 18.2652 30 18C30 17.7348 29.8946 17.4804 29.7071 17.2929C29.5196 17.1054 29.2652 17 29 17C25.1962 17 24.0712 15.6938 24 14.9862C24.0113 14.7716 23.9501 14.5595 23.8263 14.3838C23.7026 14.2081 23.5234 14.0791 23.3175 14.0175C23.1036 13.9532 22.8745 13.9611 22.6656 14.04C22.4566 14.1188 22.2794 14.2642 22.1612 14.4537C20.6525 16.7712 19.7387 17.0075 19.4212 17C18.3887 16.98 17.3387 14.56 16.9787 12.8225C16.9403 12.6364 16.8497 12.4651 16.7174 12.3287C16.5852 12.1922 16.4168 12.0963 16.232 12.0521C16.0472 12.0079 15.8536 12.0173 15.674 12.0791C15.4943 12.1409 15.336 12.2527 15.2175 12.4012C12.6925 15.5688 11 16.635 9.94625 16.9112C11.0075 14.5525 11.8 12.4812 12.3075 10.7375C13.16 7.8075 13.2225 5.75875 12.4962 4.475C12.1212 3.8025 11.3287 3 9.73875 3C7.73125 3 6.1475 4.8975 5.3925 8.20625C4.94375 10.17 4.87 12.3575 5.19 14.2063C5.51 16.055 6.17375 17.4 7.13875 18.1987C6.6725 19.1637 6.1975 20.1063 5.735 21H3C2.73478 21 2.48043 21.1054 2.29289 21.2929C2.10535 21.4804 2 21.7348 2 22C2 22.2652 2.10535 22.5196 2.29289 22.7071C2.48043 22.8946 2.73478 23 3 23H4.67625C3.26125 25.625 2.16125 27.455 2.14375 27.485C2.07245 27.5976 2.02439 27.7233 2.00238 27.8548C1.98037 27.9862 1.98486 28.1207 2.01558 28.2504C2.0463 28.3801 2.10264 28.5024 2.18128 28.61C2.25992 28.7176 2.35927 28.8084 2.47351 28.877C2.58774 28.9457 2.71455 28.9908 2.84647 29.0098C2.9784 29.0287 3.11278 29.0211 3.24172 28.9874C3.37066 28.9536 3.49155 28.8945 3.5973 28.8134C3.70305 28.7322 3.79151 28.6308 3.8575 28.515C3.87625 28.4825 5.26625 26.1663 6.945 23H29C29.2652 23 29.5196 22.8946 29.7071 22.7071C29.8946 22.5196 30 22.2652 30 22C30 21.7348 29.8946 21.4804 29.7071 21.2929C29.5196 21.1054 29.2652 21 29 21ZM7.3425 8.65125C7.84 6.4675 8.80375 5 9.73875 5C10.405 5 10.6262 5.2325 10.755 5.45875C11.13 6.125 11.57 8.4825 8.0475 16.2575C7.015 14.8475 6.66375 11.625 7.3425 8.65125Z" fill="#343330"/>
</svg>
