<svg width="32" height="32" viewBox="0 0 32 32" fill="none" xmlns="http://www.w3.org/2000/svg">
<path d="M24.9762 4.24999C24.6639 4.07691 24.3109 3.99061 23.9539 4.00006C23.5969 4.00951 23.249 4.11437 22.9463 4.30374L8 13.6537V4.99999C8 4.73478 7.89464 4.48042 7.70711 4.29289C7.51957 4.10535 7.26522 3.99999 7 3.99999C6.73478 3.99999 6.48043 4.10535 6.29289 4.29289C6.10536 4.48042 6 4.73478 6 4.99999V27C6 27.2652 6.10536 27.5196 6.29289 27.7071C6.48043 27.8946 6.73478 28 7 28C7.26522 28 7.51957 27.8946 7.70711 27.7071C7.89464 27.5196 8 27.2652 8 27V18.3462L22.9463 27.6937C23.2472 27.8827 23.5933 27.9878 23.9485 27.9981C24.3038 28.0083 24.6553 27.9235 24.9667 27.7523C25.2782 27.5811 25.5382 27.3297 25.7199 27.0243C25.9015 26.7188 25.9982 26.3704 26 26.015V5.98499C26 5.6307 25.905 5.2829 25.7249 4.97777C25.5449 4.67264 25.2864 4.42133 24.9762 4.24999ZM24 26L8.02 16L24 6.00874V26Z" fill="#343330"/>
</svg>
