<svg width="32" height="32" viewBox="0 0 32 32" fill="none" xmlns="http://www.w3.org/2000/svg">
<path d="M21 19C21 21.205 18.7575 23 16 23C13.2425 23 11 21.205 11 19C11 18.7348 11.1054 18.4804 11.2929 18.2929C11.4805 18.1054 11.7348 18 12 18C12.2653 18 12.5196 18.1054 12.7072 18.2929C12.8947 18.4804 13 18.7348 13 19C13 20.0838 14.375 21 16 21C17.625 21 19 20.0838 19 19C19 17.815 17.9238 17.375 15.64 16.7175C13.6713 16.15 11.2225 15.4438 11.2225 13C11.2225 10.72 13.2763 9.00001 16 9.00001C17.965 9.00001 19.6475 9.91251 20.39 11.375C20.4541 11.4926 20.4939 11.6218 20.5071 11.7551C20.5203 11.8883 20.5066 12.0228 20.4668 12.1507C20.427 12.2785 20.3619 12.3971 20.2755 12.4993C20.189 12.6015 20.0829 12.6854 19.9634 12.7458C19.8439 12.8062 19.7136 12.8421 19.58 12.8512C19.4464 12.8603 19.3123 12.8425 19.1858 12.7988C19.0592 12.7551 18.9427 12.6865 18.8432 12.5969C18.7436 12.5074 18.6631 12.3988 18.6063 12.2775C18.205 11.4925 17.2063 11 16 11C14.4163 11 13.2225 11.86 13.2225 13C13.2225 13.875 14.3475 14.2625 16.1938 14.795C18.2225 15.375 21 16.1813 21 19ZM29 22C28.9981 23.8559 28.2599 25.6352 26.9476 26.9476C25.6353 28.2599 23.8559 28.998 22 29C20.612 29.005 19.2545 28.5926 18.1038 27.8163C16.2013 28.1528 14.2456 28.0255 12.4028 27.445C10.5599 26.8646 8.88434 25.8481 7.51815 24.4819C6.15196 23.1157 5.13551 21.4401 4.55504 19.5973C3.97457 17.7545 3.84722 15.7988 4.18379 13.8963C3.40751 12.7456 2.99508 11.3881 3.00004 10C3.00203 8.14411 3.74017 6.36478 5.05249 5.05246C6.36481 3.74013 8.14414 3.002 10 3.00001C11.3881 2.99504 12.7456 3.40748 13.8963 4.18376C15.7988 3.84719 17.7545 3.97454 19.5973 4.55501C21.4401 5.13547 23.1157 6.15193 24.4819 7.51812C25.8481 8.88431 26.8646 10.5599 27.4451 12.4027C28.0255 14.2456 28.1529 16.2012 27.8163 18.1038C28.5926 19.2545 29.005 20.612 29 22ZM27 22C27.0038 20.895 26.6377 19.8204 25.96 18.9475C25.871 18.8323 25.8081 18.6989 25.776 18.5569C25.7438 18.4148 25.7431 18.2674 25.7738 18.125C26.1278 16.4886 26.0657 14.7896 25.5931 13.1834C25.1204 11.5773 24.2525 10.1153 23.0686 8.93146C21.8847 7.74759 20.4228 6.87962 18.8166 6.40701C17.2105 5.9344 15.5114 5.87225 13.875 6.22626C13.7327 6.257 13.5853 6.25625 13.4432 6.22408C13.3011 6.19191 13.1678 6.12909 13.0525 6.04001C12.1797 5.36234 11.1051 4.99623 10 5.00001C8.67396 5.00001 7.40219 5.5268 6.46451 6.46448C5.52683 7.40216 5.00004 8.67393 5.00004 10C4.99626 11.1051 5.36237 12.1796 6.04004 13.0525C6.12912 13.1678 6.19194 13.3011 6.22411 13.4432C6.25628 13.5852 6.25703 13.7326 6.22629 13.875C5.87228 15.5114 5.93443 17.2105 6.40704 18.8166C6.87965 20.4228 7.74762 21.8847 8.93149 23.0686C10.1154 24.2524 11.5773 25.1204 13.1835 25.593C14.7896 26.0656 16.4887 26.1278 18.125 25.7738C18.2674 25.743 18.4148 25.7438 18.5569 25.7759C18.699 25.8081 18.8323 25.8709 18.9475 25.96C19.8204 26.6377 20.895 27.0038 22 27C23.3261 27 24.5979 26.4732 25.5356 25.5355C26.4733 24.5979 27 23.3261 27 22Z" fill="#343330"/>
</svg>
