<svg width="32" height="32" viewBox="0 0 32 32" fill="none" xmlns="http://www.w3.org/2000/svg">
<path d="M27.6413 16C28.3784 15.3423 28.846 14.4351 28.9542 13.4532C29.0623 12.4713 28.8033 11.484 28.2269 10.6817C27.6506 9.87939 26.7978 9.31871 25.8327 9.10767C24.8676 8.89664 23.8586 9.05019 23 9.53874V6.99999C22.9991 6.18789 22.751 5.3953 22.2888 4.7276C21.8265 4.0599 21.1719 3.54873 20.4121 3.26203C19.6523 2.97534 18.8232 2.92671 18.0351 3.12261C17.247 3.31851 16.5372 3.74966 16 4.35874C15.3423 3.62163 14.4351 3.15396 13.4532 3.04583C12.4713 2.9377 11.4841 3.19674 10.6817 3.77307C9.87942 4.3494 9.31874 5.20224 9.1077 6.1673C8.89667 7.13236 9.05022 8.14138 9.53877 8.99999H7.00002C6.18792 9.0009 5.39533 9.24898 4.72763 9.71125C4.05993 10.1735 3.54876 10.8281 3.26206 11.5879C2.97537 12.3477 2.92674 13.1768 3.12264 13.9649C3.31854 14.753 3.74969 15.4628 4.35877 16C3.62166 16.6577 3.15399 17.5649 3.04586 18.5468C2.93773 19.5287 3.19677 20.5159 3.7731 21.3183C4.34943 22.1206 5.20227 22.6813 6.16733 22.8923C7.13239 23.1033 8.14141 22.9498 9.00002 22.4612V25C9.00093 25.8121 9.24901 26.6047 9.71128 27.2724C10.1735 27.9401 10.8281 28.4513 11.5879 28.7379C12.3477 29.0246 13.1768 29.0733 13.9649 28.8774C14.753 28.6815 15.4629 28.2503 16 27.6412C16.6577 28.3783 17.5649 28.846 18.5468 28.9541C19.5288 29.0623 20.516 28.8032 21.3183 28.2269C22.1206 27.6506 22.6813 26.7977 22.8923 25.8327C23.1034 24.8676 22.9498 23.8586 22.4613 23H25C25.8121 22.9991 26.6047 22.751 27.2724 22.2887C27.9401 21.8265 28.4513 21.1719 28.738 20.4121C29.0247 19.6523 29.0733 18.8232 28.8774 18.0351C28.6815 17.247 28.2503 16.5371 27.6413 16ZM9.00002 19C9.00002 19.3956 8.88272 19.7822 8.66296 20.1111C8.4432 20.44 8.13084 20.6964 7.76539 20.8477C7.39993 20.9991 6.9978 21.0387 6.60984 20.9616C6.22188 20.8844 5.86551 20.6939 5.58581 20.4142C5.3061 20.1345 5.11562 19.7781 5.03845 19.3902C4.96128 19.0022 5.00088 18.6001 5.15226 18.2346C5.30363 17.8692 5.55998 17.5568 5.88888 17.337C6.21778 17.1173 6.60446 17 7.00002 17H9.00002V19ZM15 25C15 25.5304 14.7893 26.0391 14.4142 26.4142C14.0392 26.7893 13.5305 27 13 27C12.4696 27 11.9609 26.7893 11.5858 26.4142C11.2107 26.0391 11 25.5304 11 25V19C11 18.4696 11.2107 17.9608 11.5858 17.5858C11.9609 17.2107 12.4696 17 13 17H15V25ZM15 15H7.00002C6.46959 15 5.96088 14.7893 5.58581 14.4142C5.21073 14.0391 5.00002 13.5304 5.00002 13C5.00002 12.4696 5.21073 11.9608 5.58581 11.5858C5.96088 11.2107 6.46959 11 7.00002 11H13C13.5305 11 14.0392 11.2107 14.4142 11.5858C14.7893 11.9608 15 12.4696 15 13V15ZM15 8.99999H13C12.6045 8.99999 12.2178 8.88269 11.8889 8.66293C11.56 8.44316 11.3036 8.13081 11.1523 7.76536C11.0009 7.3999 10.9613 6.99777 11.0384 6.60981C11.1156 6.22185 11.3061 5.86548 11.5858 5.58577C11.8655 5.30607 12.2219 5.11559 12.6098 5.03842C12.9978 4.96125 13.3999 5.00085 13.7654 5.15223C14.1308 5.3036 14.4432 5.55995 14.663 5.88885C14.8827 6.21775 15 6.60443 15 6.99999V8.99999ZM17 6.99999C17 6.46956 17.2107 5.96085 17.5858 5.58577C17.9609 5.2107 18.4696 4.99999 19 4.99999C19.5305 4.99999 20.0392 5.2107 20.4142 5.58577C20.7893 5.96085 21 6.46956 21 6.99999V13C21 13.5304 20.7893 14.0391 20.4142 14.4142C20.0392 14.7893 19.5305 15 19 15H17V6.99999ZM19 27C18.4696 27 17.9609 26.7893 17.5858 26.4142C17.2107 26.0391 17 25.5304 17 25V23H19C19.5305 23 20.0392 23.2107 20.4142 23.5858C20.7893 23.9608 21 24.4696 21 25C21 25.5304 20.7893 26.0391 20.4142 26.4142C20.0392 26.7893 19.5305 27 19 27ZM25 21H19C18.4696 21 17.9609 20.7893 17.5858 20.4142C17.2107 20.0391 17 19.5304 17 19V17H25C25.5305 17 26.0392 17.2107 26.4142 17.5858C26.7893 17.9608 27 18.4696 27 19C27 19.5304 26.7893 20.0391 26.4142 20.4142C26.0392 20.7893 25.5305 21 25 21ZM25 15H23V13C23 12.6044 23.1173 12.2177 23.3371 11.8888C23.5568 11.5599 23.8692 11.3036 24.2347 11.1522C24.6001 11.0009 25.0022 10.9612 25.3902 11.0384C25.7782 11.1156 26.1345 11.3061 26.4142 11.5858C26.6939 11.8655 26.8844 12.2218 26.9616 12.6098C27.0388 12.9978 26.9992 13.3999 26.8478 13.7654C26.6964 14.1308 26.4401 14.4432 26.1112 14.6629C25.7823 14.8827 25.3956 15 25 15Z" fill="#343330"/>
</svg>
