<svg width="32" height="32" viewBox="0 0 32 32" fill="none" xmlns="http://www.w3.org/2000/svg">
<path d="M7.99997 13.125V5C7.99997 4.73478 7.89461 4.48043 7.70708 4.29289C7.51954 4.10536 7.26519 4 6.99997 4C6.73475 4 6.4804 4.10536 6.29286 4.29289C6.10533 4.48043 5.99997 4.73478 5.99997 5V13.125C5.13955 13.3453 4.37693 13.8457 3.83233 14.5473C3.28773 15.2489 2.99213 16.1118 2.99213 17C2.99213 17.8882 3.28773 18.7511 3.83233 19.4527C4.37693 20.1543 5.13955 20.6547 5.99997 20.875V27C5.99997 27.2652 6.10533 27.5196 6.29286 27.7071C6.4804 27.8946 6.73475 28 6.99997 28C7.26519 28 7.51954 27.8946 7.70708 27.7071C7.89461 27.5196 7.99997 27.2652 7.99997 27V20.875C8.86038 20.6547 9.62301 20.1543 10.1676 19.4527C10.7122 18.7511 11.0078 17.8882 11.0078 17C11.0078 16.1118 10.7122 15.2489 10.1676 14.5473C9.62301 13.8457 8.86038 13.3453 7.99997 13.125ZM6.99997 19C6.60441 19 6.21773 18.8827 5.88883 18.6629C5.55993 18.4432 5.30359 18.1308 5.15221 17.7654C5.00084 17.3999 4.96123 16.9978 5.0384 16.6098C5.11557 16.2219 5.30605 15.8655 5.58576 15.5858C5.86546 15.3061 6.22183 15.1156 6.60979 15.0384C6.99775 14.9613 7.39988 15.0009 7.76534 15.1522C8.13079 15.3036 8.44315 15.56 8.66291 15.8889C8.88267 16.2178 8.99997 16.6044 8.99997 17C8.99997 17.5304 8.78926 18.0391 8.41418 18.4142C8.03911 18.7893 7.5304 19 6.99997 19ZM17 7.125V5C17 4.73478 16.8946 4.48043 16.7071 4.29289C16.5195 4.10536 16.2652 4 16 4C15.7348 4 15.4804 4.10536 15.2929 4.29289C15.1053 4.48043 15 4.73478 15 5V7.125C14.1396 7.3453 13.3769 7.8457 12.8323 8.54731C12.2877 9.24892 11.9921 10.1118 11.9921 11C11.9921 11.8882 12.2877 12.7511 12.8323 13.4527C13.3769 14.1543 14.1396 14.6547 15 14.875V27C15 27.2652 15.1053 27.5196 15.2929 27.7071C15.4804 27.8946 15.7348 28 16 28C16.2652 28 16.5195 27.8946 16.7071 27.7071C16.8946 27.5196 17 27.2652 17 27V14.875C17.8604 14.6547 18.623 14.1543 19.1676 13.4527C19.7122 12.7511 20.0078 11.8882 20.0078 11C20.0078 10.1118 19.7122 9.24892 19.1676 8.54731C18.623 7.8457 17.8604 7.3453 17 7.125ZM16 13C15.6044 13 15.2177 12.8827 14.8888 12.6629C14.5599 12.4432 14.3036 12.1308 14.1522 11.7654C14.0008 11.3999 13.9612 10.9978 14.0384 10.6098C14.1156 10.2219 14.3061 9.86549 14.5858 9.58579C14.8655 9.30608 15.2218 9.1156 15.6098 9.03843C15.9978 8.96126 16.3999 9.00087 16.7653 9.15224C17.1308 9.30362 17.4431 9.55996 17.6629 9.88886C17.8827 10.2178 18 10.6044 18 11C18 11.5304 17.7893 12.0391 17.4142 12.4142C17.0391 12.7893 16.5304 13 16 13ZM29 21C28.9991 20.1132 28.7042 19.2517 28.1613 18.5505C27.6184 17.8493 26.8583 17.3479 26 17.125V5C26 4.73478 25.8946 4.48043 25.7071 4.29289C25.5195 4.10536 25.2652 4 25 4C24.7348 4 24.4804 4.10536 24.2929 4.29289C24.1053 4.48043 24 4.73478 24 5V17.125C23.1396 17.3453 22.3769 17.8457 21.8323 18.5473C21.2877 19.2489 20.9921 20.1118 20.9921 21C20.9921 21.8882 21.2877 22.7511 21.8323 23.4527C22.3769 24.1543 23.1396 24.6547 24 24.875V27C24 27.2652 24.1053 27.5196 24.2929 27.7071C24.4804 27.8946 24.7348 28 25 28C25.2652 28 25.5195 27.8946 25.7071 27.7071C25.8946 27.5196 26 27.2652 26 27V24.875C26.8583 24.6521 27.6184 24.1507 28.1613 23.4495C28.7042 22.7483 28.9991 21.8868 29 21ZM25 23C24.6044 23 24.2177 22.8827 23.8888 22.6629C23.5599 22.4432 23.3036 22.1308 23.1522 21.7654C23.0008 21.3999 22.9612 20.9978 23.0384 20.6098C23.1156 20.2219 23.3061 19.8655 23.5858 19.5858C23.8655 19.3061 24.2218 19.1156 24.6098 19.0384C24.9978 18.9613 25.3999 19.0009 25.7653 19.1522C26.1308 19.3036 26.4431 19.56 26.6629 19.8889C26.8827 20.2178 27 20.6044 27 21C27 21.5304 26.7893 22.0391 26.4142 22.4142C26.0391 22.7893 25.5304 23 25 23Z" fill="#343330"/>
</svg>
