<svg width="32" height="32" viewBox="0 0 32 32" fill="none" xmlns="http://www.w3.org/2000/svg">
<path d="M16 3C13.4288 3 10.9154 3.76244 8.77759 5.1909C6.63975 6.61935 4.97351 8.64968 3.98957 11.0251C3.00563 13.4006 2.74819 16.0144 3.2498 18.5362C3.75141 21.0579 4.98953 23.3743 6.80762 25.1924C8.6257 27.0105 10.9421 28.2486 13.4638 28.7502C15.9856 29.2518 18.5995 28.9944 20.9749 28.0104C23.3503 27.0265 25.3807 25.3603 26.8091 23.2224C28.2376 21.0846 29 18.5712 29 16C28.9964 12.5533 27.6256 9.24882 25.1884 6.81163C22.7512 4.37445 19.4467 3.00364 16 3ZM16 27C13.8244 27 11.6977 26.3549 9.88873 25.1462C8.07979 23.9375 6.66989 22.2195 5.83733 20.2095C5.00477 18.1995 4.78693 15.9878 5.21137 13.854C5.63581 11.7202 6.68345 9.7602 8.22183 8.22183C9.76021 6.68345 11.7202 5.6358 13.854 5.21136C15.9878 4.78692 18.1995 5.00476 20.2095 5.83733C22.2195 6.66989 23.9375 8.07979 25.1462 9.88873C26.3549 11.6977 27 13.8244 27 16C26.9967 18.9164 25.8367 21.7123 23.7745 23.7745C21.7123 25.8367 18.9164 26.9967 16 27ZM10 13.5C10 13.2033 10.088 12.9133 10.2528 12.6666C10.4176 12.42 10.6519 12.2277 10.926 12.1142C11.2001 12.0006 11.5017 11.9709 11.7926 12.0288C12.0836 12.0867 12.3509 12.2296 12.5607 12.4393C12.7704 12.6491 12.9133 12.9164 12.9712 13.2074C13.0291 13.4983 12.9994 13.7999 12.8858 14.074C12.7723 14.3481 12.58 14.5824 12.3334 14.7472C12.0867 14.912 11.7967 15 11.5 15C11.1022 15 10.7206 14.842 10.4393 14.5607C10.158 14.2794 10 13.8978 10 13.5ZM19 13.5C19 13.2033 19.088 12.9133 19.2528 12.6666C19.4176 12.42 19.6519 12.2277 19.926 12.1142C20.2001 12.0006 20.5017 11.9709 20.7926 12.0288C21.0836 12.0867 21.3509 12.2296 21.5607 12.4393C21.7704 12.6491 21.9133 12.9164 21.9712 13.2074C22.0291 13.4983 21.9994 13.7999 21.8858 14.074C21.7723 14.3481 21.58 14.5824 21.3334 14.7472C21.0867 14.912 20.7967 15 20.5 15C20.1022 15 19.7207 14.842 19.4393 14.5607C19.158 14.2794 19 13.8978 19 13.5ZM23 21C23 21.2652 22.8946 21.5196 22.7071 21.7071C22.5196 21.8946 22.2652 22 22 22C20.75 22 20.1175 21.1575 19.7 20.6C19.325 20.1 19.21 20 19 20C18.79 20 18.6788 20.095 18.3 20.6C17.8825 21.1575 17.25 22 16 22C14.75 22 14.1175 21.1575 13.7 20.6C13.325 20.1 13.21 20 13 20C12.79 20 12.6788 20.095 12.3 20.6C11.8825 21.1575 11.25 22 10 22C9.73479 22 9.48044 21.8946 9.2929 21.7071C9.10536 21.5196 9.00001 21.2652 9.00001 21C9.00001 20.7348 9.10536 20.4804 9.2929 20.2929C9.48044 20.1054 9.73479 20 10 20C10.21 20 10.3213 19.905 10.7 19.4C11.1175 18.8425 11.75 18 13 18C14.25 18 14.8825 18.8425 15.3 19.4C15.675 19.9 15.79 20 16 20C16.21 20 16.3213 19.905 16.7 19.4C17.1175 18.8425 17.75 18 19 18C20.25 18 20.8825 18.8425 21.3 19.4C21.675 19.9 21.79 20 22 20C22.2652 20 22.5196 20.1054 22.7071 20.2929C22.8946 20.4804 23 20.7348 23 21Z" fill="#343330"/>
</svg>
