<svg width="32" height="32" viewBox="0 0 32 32" fill="none" xmlns="http://www.w3.org/2000/svg">
<path d="M21.865 19.5C20.5788 21.7238 18.4412 23 16 23C13.5588 23 11.4212 21.725 10.1337 19.5C10.0681 19.3862 10.0255 19.2607 10.0083 19.1304C9.99122 19.0002 9.99991 18.8679 10.0339 18.741C10.0679 18.6142 10.1266 18.4952 10.2066 18.391C10.2865 18.2868 10.3862 18.1994 10.5 18.1338C10.6138 18.0681 10.7393 18.0255 10.8696 18.0084C10.9998 17.9912 11.1321 17.9999 11.259 18.0339C11.3858 18.0679 11.5048 18.1266 11.609 18.2066C11.7132 18.2865 11.8006 18.3862 11.8663 18.5C12.7987 20.1138 14.2662 21 16 21C17.7338 21 19.2013 20.1125 20.135 18.5C20.1975 18.3805 20.2836 18.2749 20.388 18.1895C20.4923 18.1041 20.6129 18.0407 20.7425 18.0031C20.872 17.9656 21.0078 17.9546 21.1417 17.9708C21.2756 17.9871 21.4048 18.0303 21.5215 18.0978C21.6383 18.1653 21.7402 18.2557 21.8211 18.3636C21.902 18.4715 21.9603 18.5946 21.9924 18.7256C22.0245 18.8566 22.0297 18.9927 22.0078 19.1258C21.9859 19.2589 21.9374 19.3862 21.865 19.5ZM29 16C29.0006 17.2946 28.8085 18.582 28.43 19.82C28.3818 19.9763 28.2959 20.1184 28.18 20.2338L20.2337 28.18C20.119 28.2962 19.9773 28.382 19.8213 28.43C17.2058 29.2343 14.4032 29.1929 11.8126 28.3115C9.2221 27.4301 6.97575 25.7537 5.39353 23.5211C3.81131 21.2886 2.97392 18.6137 3.00062 15.8775C3.02732 13.1412 3.91675 10.4832 5.54224 8.28192C7.16772 6.08067 9.44636 4.44846 12.0536 3.61778C14.6608 2.7871 17.4637 2.80032 20.063 3.65554C22.6623 4.51076 24.9254 6.16437 26.5301 8.38085C28.1348 10.5973 28.9991 13.2636 29 16ZM27 16C26.9971 13.6988 26.2717 11.4565 24.9261 9.58967C23.5805 7.72284 21.6827 6.32567 19.5004 5.59534C17.3181 4.86501 14.9616 4.83839 12.7634 5.51924C10.5651 6.20008 8.63622 7.55402 7.24879 9.38998C5.86135 11.2259 5.08547 13.4512 5.03063 15.7518C4.97579 18.0524 5.64475 20.3121 6.94312 22.2121C8.2415 24.1121 10.1037 25.5564 12.267 26.3413C14.4303 27.1261 16.7854 27.2118 19 26.5863L26.5863 19C26.8617 18.0238 27.001 17.0143 27 16ZM11.5 15C11.7967 15 12.0867 14.912 12.3334 14.7472C12.58 14.5824 12.7723 14.3481 12.8858 14.074C12.9994 13.7999 13.0291 13.4983 12.9712 13.2074C12.9133 12.9164 12.7704 12.6491 12.5607 12.4393C12.3509 12.2296 12.0836 12.0867 11.7926 12.0288C11.5017 11.9709 11.2001 12.0007 10.926 12.1142C10.6519 12.2277 10.4176 12.42 10.2528 12.6666C10.088 12.9133 10 13.2033 10 13.5C10 13.8978 10.158 14.2794 10.4393 14.5607C10.7206 14.842 11.1022 15 11.5 15ZM20.5 12C20.2033 12 19.9133 12.088 19.6666 12.2528C19.42 12.4176 19.2277 12.6519 19.1142 12.926C19.0007 13.2001 18.9709 13.5017 19.0288 13.7926C19.0867 14.0836 19.2296 14.3509 19.4393 14.5607C19.6491 14.7704 19.9164 14.9133 20.2074 14.9712C20.4983 15.0291 20.7999 14.9994 21.074 14.8858C21.3481 14.7723 21.5824 14.58 21.7472 14.3334C21.912 14.0867 22 13.7967 22 13.5C22 13.1022 21.842 12.7206 21.5607 12.4393C21.2794 12.158 20.8978 12 20.5 12Z" fill="#343330"/>
</svg>
