<svg width="32" height="32" viewBox="0 0 32 32" fill="none" xmlns="http://www.w3.org/2000/svg">
<path d="M22.0001 17.5C22.0001 17.7967 21.9121 18.0867 21.7473 18.3333C21.5824 18.58 21.3482 18.7723 21.0741 18.8858C20.8 18.9993 20.4984 19.029 20.2074 18.9712C19.9164 18.9133 19.6492 18.7704 19.4394 18.5607C19.2296 18.3509 19.0868 18.0836 19.0289 17.7926C18.971 17.5017 19.0007 17.2001 19.1142 16.926C19.2278 16.6519 19.42 16.4176 19.6667 16.2528C19.9134 16.088 20.2034 16 20.5001 16C20.8979 16 21.2794 16.158 21.5607 16.4393C21.842 16.7206 22.0001 17.1022 22.0001 17.5ZM16.0001 11.5C16.0001 11.2033 15.9121 10.9133 15.7473 10.6666C15.5824 10.42 15.3482 10.2277 15.0741 10.1142C14.8 10.0006 14.4984 9.97094 14.2074 10.0288C13.9164 10.0867 13.6492 10.2296 13.4394 10.4393C13.2296 10.6491 13.0868 10.9164 13.0289 11.2074C12.971 11.4983 13.0007 11.7999 13.1142 12.074C13.2278 12.3481 13.42 12.5824 13.6667 12.7472C13.9134 12.912 14.2034 13 14.5001 13C14.8979 13 15.2794 12.842 15.5607 12.5607C15.842 12.2793 16.0001 11.8978 16.0001 11.5ZM25.1251 6.74999C22.7152 4.40705 19.4915 3.08852 16.1305 3.07107C12.7695 3.05362 9.53228 4.3386 7.09822 6.6564C4.66415 8.9742 3.22238 12.1446 3.07543 15.5025C2.92848 18.8604 4.08777 22.1447 6.31005 24.6662C6.39695 24.7665 6.50292 24.8484 6.6218 24.9073C6.74067 24.9662 6.87008 25.0008 7.00247 25.0092C7.13487 25.0176 7.2676 24.9995 7.39296 24.9561C7.51831 24.9127 7.63377 24.8448 7.73262 24.7563C7.83146 24.6678 7.91171 24.5606 7.9687 24.4408C8.02568 24.321 8.05826 24.191 8.06454 24.0585C8.07081 23.926 8.05066 23.7936 8.00525 23.6689C7.95985 23.5443 7.89009 23.4299 7.80005 23.3325C6.38455 21.7497 5.4574 19.7911 5.13054 17.693C4.80367 15.5949 5.09105 13.447 5.95799 11.5086C6.82493 9.57026 8.23437 7.92423 10.0162 6.76925C11.798 5.61426 13.876 4.99967 15.9994 4.99967C18.1228 4.99967 20.2009 5.61426 21.9827 6.76925C23.7645 7.92423 25.1739 9.57026 26.0409 11.5086C26.9078 13.447 27.1952 15.5949 26.8683 17.693C26.5415 19.7911 25.6143 21.7497 24.1988 23.3325C24.0219 23.5302 23.9309 23.7902 23.9456 24.055C23.9604 24.3199 24.0798 24.5681 24.2776 24.745C24.4753 24.9219 24.7352 25.0129 25.0001 24.9982C25.265 24.9834 25.5132 24.864 25.6901 24.6662C27.9131 22.178 29.0944 18.9302 28.9892 15.5952C28.884 12.2601 27.5005 9.09323 25.1251 6.74999ZM19.0001 21H17.0001C14.2826 21 11.0001 18.77 11.0001 16C11.0003 15.7203 11.0233 15.441 11.0688 15.165C11.0918 15.0349 11.0888 14.9016 11.06 14.7726C11.0312 14.6437 10.9771 14.5218 10.9009 14.4139C10.8246 14.306 10.7278 14.2143 10.6159 14.144C10.5041 14.0738 10.3794 14.0264 10.2491 14.0046C10.1188 13.9828 9.98548 13.987 9.85683 14.017C9.72819 14.047 9.60677 14.1022 9.49958 14.1795C9.39239 14.2567 9.30157 14.3544 9.23235 14.4669C9.16313 14.5794 9.11689 14.7045 9.0963 14.835C9.03231 15.22 9.00012 15.6097 9.00005 16C9.00005 17.86 9.93255 19.6412 11.6251 21.0187C13.1751 22.2775 15.1338 23 17.0001 23H19.0001C19.2653 23 19.5196 23.1053 19.7072 23.2929C19.8947 23.4804 20.0001 23.7348 20.0001 24C20.0001 24.2652 19.8947 24.5196 19.7072 24.7071C19.5196 24.8946 19.2653 25 19.0001 25H12.0001C11.2044 25 10.4413 25.3161 9.87873 25.8787C9.31612 26.4413 9.00005 27.2043 9.00005 28C9.00005 28.7956 9.31612 29.5587 9.87873 30.1213C10.4413 30.6839 11.2044 31 12.0001 31C12.2653 31 12.5196 30.8946 12.7072 30.7071C12.8947 30.5196 13.0001 30.2652 13.0001 30C13.0001 29.7348 12.8947 29.4804 12.7072 29.2929C12.5196 29.1053 12.2653 29 12.0001 29C11.7348 29 11.4805 28.8946 11.2929 28.7071C11.1054 28.5196 11.0001 28.2652 11.0001 28C11.0001 27.7348 11.1054 27.4804 11.2929 27.2929C11.4805 27.1053 11.7348 27 12.0001 27H19.0001C19.7957 27 20.5588 26.6839 21.1214 26.1213C21.684 25.5587 22.0001 24.7956 22.0001 24C22.0001 23.2043 21.684 22.4413 21.1214 21.8787C20.5588 21.3161 19.7957 21 19.0001 21Z" fill="#343330"/>
</svg>
