<svg width="32" height="32" viewBox="0 0 32 32" fill="none" xmlns="http://www.w3.org/2000/svg">
<path d="M28.5812 16.1388L20.99 13.6088C20.5952 13.4769 20.2322 13.2643 19.9241 12.9845C19.6159 12.7048 19.3693 12.364 19.2 11.9838L16.2987 5.2C16.2987 5.2 16.2987 5.19125 16.2987 5.1875C16.0922 4.72412 15.7172 4.35656 15.2497 4.15929C14.7823 3.96201 14.2574 3.94976 13.7812 4.125L4.31625 7.56125C3.93091 7.70239 3.59813 7.95829 3.36276 8.29446C3.1274 8.63063 3.00079 9.03088 3 9.44125V24C3 24.5304 3.21071 25.0391 3.58579 25.4142C3.96086 25.7893 4.46957 26 5 26H30C30.5304 26 31.0391 25.7893 31.4142 25.4142C31.7893 25.0391 32 24.5304 32 24V20.8825C32.0001 19.833 31.6699 18.8102 31.0564 17.9588C30.4428 17.1074 29.5768 16.4706 28.5812 16.1388ZM14.465 6L15.3538 8.07875L12.6587 9.06C12.4377 9.14024 12.252 9.29583 12.1342 9.49943C12.0165 9.70303 11.9743 9.94161 12.015 10.1732C12.0558 10.4049 12.1769 10.6147 12.357 10.7659C12.5371 10.9171 12.7648 11 13 11C13.1165 10.9998 13.232 10.9791 13.3413 10.9388L16.1413 9.92125L16.7337 11.305L14.6587 12.055C14.4341 12.1327 14.2444 12.2879 14.1238 12.4927C14.0032 12.6976 13.9595 12.9388 14.0006 13.1729C14.0416 13.4071 14.1648 13.6189 14.348 13.7705C14.5311 13.9221 14.7623 14.0034 15 14C15.1165 13.9998 15.232 13.9791 15.3413 13.9388L17.5413 13.1388C17.7936 13.6033 18.1176 14.0251 18.5012 14.3888L16.6588 15.0588C16.4368 15.1384 16.2501 15.2939 16.1317 15.4978C16.0133 15.7017 15.9707 15.9409 16.0115 16.1731C16.0524 16.4054 16.174 16.6157 16.3548 16.767C16.5357 16.9183 16.7642 17.0008 17 17C17.1163 16.9997 17.2318 16.9794 17.3412 16.94L20.8412 15.6675L27.95 18.0363C28.4026 18.1876 28.8125 18.4447 29.1458 18.7862C29.4791 19.1278 29.726 19.5439 29.8662 20H5V9.44125L14.465 6ZM5 24V22H30V24H5Z" fill="#343330"/>
</svg>
