<svg width="32" height="32" viewBox="0 0 32 32" fill="none" xmlns="http://www.w3.org/2000/svg">
<path d="M28.895 20.8288L25.3162 19.04C24.3174 18.5446 23.4772 17.7794 22.8911 16.8309C22.305 15.8824 21.9963 14.7887 22 13.6737V10C22 9.73478 21.8946 9.48043 21.7071 9.29289C21.5196 9.10536 21.2652 9 21 9C19.4092 8.99835 17.884 8.36567 16.7592 7.24081C15.6343 6.11595 15.0017 4.59079 15 3C14.9998 2.81397 14.9478 2.63167 14.8497 2.47361C14.7516 2.31554 14.6113 2.18797 14.4447 2.10524C14.2781 2.02252 14.0917 1.98791 13.9065 2.00531C13.7212 2.02271 13.5445 2.09143 13.3962 2.20375L3.76625 9.5L3.74125 9.52C3.52343 9.69643 3.34513 9.91667 3.21792 10.1664C3.0907 10.4162 3.01741 10.6899 3.00279 10.9699C2.98818 11.2498 3.03257 11.5297 3.13308 11.7913C3.2336 12.053 3.38799 12.2906 3.58625 12.4888L17.8 26.7075C17.8929 26.8003 18.0033 26.8739 18.1247 26.9241C18.246 26.9743 18.3761 27.0001 18.5075 27H28C28.5304 27 29.0391 26.7893 29.4142 26.4142C29.7893 26.0391 30 25.5304 30 25V22.6175C30.0012 22.2459 29.8983 21.8814 29.703 21.5653C29.5077 21.2491 29.2278 20.994 28.895 20.8288ZM28 25H18.9212L5 11.0787L6.60875 9.85875L11.4575 14.7075C11.6451 14.8955 11.8998 15.0012 12.1654 15.0014C12.431 15.0017 12.6858 14.8964 12.8737 14.7087C13.0617 14.5211 13.1675 14.2665 13.1677 14.0009C13.1679 13.7353 13.0626 13.4805 12.875 13.2925L8.2175 8.63875L13.2175 4.85C13.5965 6.43322 14.4483 7.8636 15.6599 8.95098C16.8714 10.0384 18.3852 10.7312 20 10.9375V13.6737C19.995 15.1605 20.4067 16.6188 21.1884 17.8835C21.9701 19.1481 23.0905 20.1684 24.4225 20.8288L28 22.6175V25ZM8.85 23H4C3.73478 23 3.48043 22.8946 3.29289 22.7071C3.10536 22.5196 3 22.2652 3 22C3 21.7348 3.10536 21.4804 3.29289 21.2929C3.48043 21.1054 3.73478 21 4 21H8.85C9.11522 21 9.36957 21.1054 9.55711 21.2929C9.74464 21.4804 9.85 21.7348 9.85 22C9.85 22.2652 9.74464 22.5196 9.55711 22.7071C9.36957 22.8946 9.11522 23 8.85 23ZM13.85 26C13.85 26.2652 13.7446 26.5196 13.5571 26.7071C13.3696 26.8946 13.1152 27 12.85 27H6C5.73478 27 5.48043 26.8946 5.29289 26.7071C5.10536 26.5196 5 26.2652 5 26C5 25.7348 5.10536 25.4804 5.29289 25.2929C5.48043 25.1054 5.73478 25 6 25H12.85C13.1152 25 13.3696 25.1054 13.5571 25.2929C13.7446 25.4804 13.85 25.7348 13.85 26Z" fill="#343330"/>
</svg>
