<svg width="32" height="32" viewBox="0 0 32 32" fill="none" xmlns="http://www.w3.org/2000/svg">
<path d="M27.9712 18.7613C28.0026 18.8888 28.0085 19.0213 27.9887 19.1511C27.9689 19.281 27.9236 19.4056 27.8556 19.518C27.7876 19.6304 27.6981 19.7282 27.5922 19.806C27.4864 19.8838 27.3663 19.9399 27.2387 19.9713L24.1587 20.7213L24.9662 23.735C25.0002 23.8619 25.0089 23.9942 24.9918 24.1245C24.9746 24.2547 24.932 24.3803 24.8663 24.4941C24.8006 24.6079 24.7131 24.7076 24.6088 24.7875C24.5046 24.8674 24.3856 24.9261 24.2587 24.96C24.1745 24.9843 24.0876 24.9977 24 25C23.78 24.9998 23.5662 24.9271 23.3917 24.7931C23.2173 24.659 23.0919 24.4713 23.035 24.2588L22.07 20.6588L17 17.7325V23.5863L19.7075 26.2925C19.8004 26.3854 19.8741 26.4957 19.9243 26.6171C19.9746 26.7385 20.0005 26.8686 20.0005 27C20.0005 27.1314 19.9746 27.2615 19.9243 27.3829C19.8741 27.5043 19.8004 27.6146 19.7075 27.7075C19.6145 27.8004 19.5042 27.8741 19.3828 27.9244C19.2615 27.9747 19.1313 28.0006 19 28.0006C18.8686 28.0006 18.7384 27.9747 18.6171 27.9244C18.4957 27.8741 18.3854 27.8004 18.2925 27.7075L16 25.4138L13.7075 27.7075C13.6145 27.8004 13.5042 27.8741 13.3828 27.9244C13.2615 27.9747 13.1313 28.0006 13 28.0006C12.8686 28.0006 12.7384 27.9747 12.6171 27.9244C12.4957 27.8741 12.3854 27.8004 12.2925 27.7075C12.1995 27.6146 12.1258 27.5043 12.0756 27.3829C12.0253 27.2615 11.9994 27.1314 11.9994 27C11.9994 26.8686 12.0253 26.7385 12.0756 26.6171C12.1258 26.4957 12.1995 26.3854 12.2925 26.2925L15 23.5863V17.7325L9.9312 20.6588L8.9662 24.2588C8.90923 24.4715 8.78364 24.6594 8.60893 24.7934C8.43422 24.9275 8.22015 25.0001 7.99995 25C7.9122 24.9999 7.82483 24.9885 7.73995 24.9663C7.61304 24.9323 7.49406 24.8737 7.38982 24.7938C7.28557 24.7138 7.19809 24.6141 7.13239 24.5003C7.06669 24.3866 7.02404 24.261 7.0069 24.1307C6.98975 24.0005 6.99843 23.8681 7.03245 23.7413L7.83995 20.7275L4.75995 19.9775C4.50236 19.9142 4.28047 19.7511 4.1431 19.5242C4.00573 19.2973 3.96413 19.0251 4.02745 18.7675C4.09077 18.5099 4.25383 18.288 4.48075 18.1507C4.70767 18.0133 4.97986 17.9717 5.23745 18.035L8.9187 18.9388L14 16L8.91995 13.0675L5.2387 13.9713C5.1606 13.9906 5.08041 14.0002 4.99995 14C4.75544 14.0002 4.51934 13.9108 4.33629 13.7486C4.15323 13.5865 4.03592 13.363 4.00652 13.1202C3.97712 12.8775 4.03767 12.6324 4.17673 12.4313C4.31579 12.2302 4.52372 12.087 4.7612 12.0288L7.8412 11.2788L7.0337 8.25876C6.96508 8.00249 7.00106 7.72946 7.13375 7.49973C7.26643 7.27 7.48494 7.10238 7.7412 7.03376C7.99747 6.96513 8.2705 7.00112 8.50023 7.1338C8.72996 7.26648 8.89758 7.48499 8.9662 7.74126L9.9312 11.3413L15 14.2675V8.41376L12.2925 5.70751C12.1048 5.51987 11.9994 5.26537 11.9994 5.00001C11.9994 4.86861 12.0253 4.7385 12.0756 4.61711C12.1258 4.49572 12.1995 4.38542 12.2925 4.29251C12.3854 4.1996 12.4957 4.1259 12.6171 4.07561C12.7384 4.02533 12.8686 3.99945 13 3.99945C13.2653 3.99945 13.5198 4.10487 13.7075 4.29251L16 6.58626L18.2925 4.29251C18.4801 4.10487 18.7346 3.99945 19 3.99945C19.2653 3.99945 19.5198 4.10487 19.7075 4.29251C19.8951 4.48015 20.0005 4.73464 20.0005 5.00001C20.0005 5.26537 19.8951 5.51987 19.7075 5.70751L17 8.41376V14.2675L22.0687 11.3413L23.0337 7.74126C23.1023 7.48499 23.2699 7.26648 23.4997 7.1338C23.7294 7.00112 24.0024 6.96513 24.2587 7.03376C24.515 7.10238 24.7335 7.27 24.8662 7.49973C24.9988 7.72946 25.0348 8.00249 24.9662 8.25876L24.1587 11.2725L27.2387 12.0225C27.4828 12.0746 27.6986 12.2162 27.8437 12.4193C27.9887 12.6225 28.0526 12.8725 28.0226 13.1203C27.9927 13.3681 27.8712 13.5958 27.682 13.7586C27.4927 13.9214 27.2495 14.0075 27 14C26.9195 14.0002 26.8393 13.9906 26.7612 13.9713L23.08 13.0675L18 16L23.08 18.9325L26.7612 18.0288C26.8887 17.9974 27.0212 17.9914 27.1511 18.0113C27.2809 18.0311 27.4056 18.0763 27.5179 18.1443C27.6303 18.2124 27.7282 18.3019 27.8059 18.4077C27.8837 18.5136 27.9399 18.6337 27.9712 18.7613Z" fill="#343330"/>
</svg>
