<svg width="32" height="32" viewBox="0 0 32 32" fill="none" xmlns="http://www.w3.org/2000/svg">
<path d="M16 3C13.4288 3 10.9154 3.76244 8.77759 5.1909C6.63975 6.61935 4.9735 8.64968 3.98956 11.0251C3.00563 13.4006 2.74818 16.0144 3.24979 18.5362C3.7514 21.0579 4.98953 23.3743 6.80761 25.1924C8.62569 27.0105 10.9421 28.2486 13.4638 28.7502C15.9856 29.2518 18.5994 28.9944 20.9749 28.0104C23.3503 27.0265 25.3806 25.3603 26.8091 23.2224C28.2376 21.0846 29 18.5712 29 16C28.9964 12.5533 27.6255 9.24882 25.1884 6.81163C22.7512 4.37445 19.4467 3.00364 16 3ZM25.565 21.4275H21.3625L20.205 19.8325L21.7837 15.235L23.6587 14.6237L26.9387 17.14C26.7835 18.6491 26.3157 20.1092 25.565 21.4275ZM5.065 17.14L8.33875 14.625L10.2137 15.2362L11.7925 19.8337L10.6375 21.4275H6.435C5.68343 20.1094 5.21472 18.6492 5.05875 17.14H5.065ZM6.315 10.81L7.00375 13.135L5.08875 14.5962C5.25853 13.2704 5.67036 11.9871 6.30375 10.81H6.315ZM13.625 19L12.1925 14.8313L16 12.2137L19.8075 14.8313L18.375 19H13.625ZM25.0087 13.135L25.6975 10.81C26.3309 11.9871 26.7427 13.2704 26.9125 14.5962L25.0087 13.135ZM24.2337 8.7125L23.045 12.7225L21.1612 13.3337L17 10.4738V8.52625L20.6362 6.02625C22.0058 6.66674 23.2297 7.58094 24.2325 8.7125H24.2337ZM18.2587 5.23375L16 6.78625L13.7412 5.23375C15.231 4.92208 16.769 4.92208 18.2587 5.23375ZM11.3637 6.02625L15 8.52625V10.4738L10.84 13.3337L8.95625 12.7225L7.7675 8.7125C8.77027 7.58094 9.99417 6.66674 11.3637 6.02625ZM7.89375 23.4275H10.44L11.3362 25.9613C10.0348 25.3488 8.8654 24.4881 7.89375 23.4275ZM13.75 26.7663L12.265 22.5888L13.4187 21H18.5812L19.735 22.5888L18.2562 26.7663C16.7682 27.0781 15.2318 27.0781 13.7437 26.7663H13.75ZM20.67 25.9613L21.5662 23.4275H24.1125C23.139 24.4887 21.9675 25.3495 20.6637 25.9613H20.67Z" fill="#343330"/>
</svg>
