<svg width="32" height="32" viewBox="0 0 32 32" fill="none" xmlns="http://www.w3.org/2000/svg">
<path d="M24 2H13C12.4695 2 11.9608 2.21071 11.5858 2.58579C11.2107 2.96086 11 3.46957 11 4V13.5863L6.15622 18.4287C4.80113 19.8152 4.04737 21.6801 4.05847 23.6188C4.06957 25.5575 4.84463 27.4136 6.21551 28.7845C7.58638 30.1553 9.4425 30.9304 11.3812 30.9415C13.3199 30.9526 15.1847 30.1988 16.5712 28.8438L25.125 20.2925C25.4042 20.0138 25.6252 19.6825 25.7754 19.3177C25.9256 18.9529 26.002 18.562 26 18.1675V4C26 3.46957 25.7893 2.96086 25.4142 2.58579C25.0391 2.21071 24.5304 2 24 2ZM24 4V6H13V4H24ZM15.1562 27.4287C14.6602 27.9361 14.0686 28.34 13.4154 28.6171C12.7622 28.8942 12.0606 29.0389 11.3511 29.0429C10.6416 29.047 9.9384 28.9102 9.28214 28.6405C8.62588 28.3709 8.02964 27.9737 7.52795 27.472C7.02626 26.9703 6.62909 26.3741 6.35943 25.7178C6.08978 25.0616 5.95301 24.3583 5.95703 23.6488C5.96105 22.9394 6.1058 22.2377 6.38288 21.5846C6.65996 20.9314 7.06387 20.3397 7.57122 19.8438L12.7075 14.7075C12.8003 14.6146 12.8739 14.5042 12.9241 14.3828C12.9743 14.2615 13.0001 14.1314 13 14V8H24V13.0725C22.3351 13.3152 20.8129 14.1484 19.7114 15.4202C18.6099 16.692 18.0025 18.3175 18 20C17.9954 21.2664 18.3383 22.5098 18.9912 23.595L15.1562 27.4287ZM23.7075 18.875L20.4687 22.1138C20.1584 21.4524 19.9983 20.7305 20 20C20.0012 18.8479 20.3998 17.7314 21.1285 16.839C21.8572 15.9466 22.8714 15.3328 24 15.1012V18.1712C23.9992 18.4352 23.894 18.6882 23.7075 18.875Z" fill="#343330"/>
</svg>
