<svg width="32" height="32" viewBox="0 0 32 32" fill="none" xmlns="http://www.w3.org/2000/svg">
<path d="M4.00006 13C4.00006 12.7348 4.10541 12.4804 4.29295 12.2929C4.48048 12.1054 4.73484 12 5.00006 12H7.00006C7.26527 12 7.51963 12.1054 7.70716 12.2929C7.8947 12.4804 8.00006 12.7348 8.00006 13C8.00006 13.2652 7.8947 13.5196 7.70716 13.7071C7.51963 13.8946 7.26527 14 7.00006 14H5.00006C4.73484 14 4.48048 13.8946 4.29295 13.7071C4.10541 13.5196 4.00006 13.2652 4.00006 13ZM8.92881 7.34375C9.11645 7.53139 9.37094 7.63681 9.6363 7.63681C9.90167 7.63681 10.1562 7.53139 10.3438 7.34375C10.5314 7.15611 10.6369 6.90161 10.6369 6.63625C10.6369 6.37089 10.5314 6.11639 10.3438 5.92875L8.92881 4.515C8.73974 4.33538 8.48799 4.23672 8.22723 4.24006C7.96647 4.2434 7.71733 4.34847 7.53293 4.53287C7.34853 4.71727 7.24345 4.96641 7.24012 5.22718C7.23678 5.48794 7.33544 5.73969 7.51506 5.92875L8.92881 7.34375ZM16.0001 5C16.2653 5 16.5196 4.89464 16.7072 4.70711C16.8947 4.51957 17.0001 4.26522 17.0001 4V2C17.0001 1.73478 16.8947 1.48043 16.7072 1.29289C16.5196 1.10536 16.2653 1 16.0001 1C15.7348 1 15.4805 1.10536 15.2929 1.29289C15.1054 1.48043 15.0001 1.73478 15.0001 2V4C15.0001 4.26522 15.1054 4.51957 15.2929 4.70711C15.4805 4.89464 15.7348 5 16.0001 5ZM22.3638 7.63625C22.4952 7.63635 22.6253 7.61057 22.7467 7.56039C22.868 7.5102 22.9784 7.43658 23.0713 7.34375L24.4851 5.92875C24.6647 5.73969 24.7633 5.48794 24.76 5.22718C24.7567 4.96641 24.6516 4.71727 24.4672 4.53287C24.2828 4.34847 24.0336 4.2434 23.7729 4.24006C23.5121 4.23672 23.2604 4.33538 23.0713 4.515L21.6563 5.92875C21.5163 6.06861 21.4209 6.24686 21.3823 6.44094C21.3436 6.63503 21.3634 6.83622 21.4392 7.01904C21.5149 7.20186 21.6432 7.3581 21.8078 7.46797C21.9724 7.57784 22.1659 7.63641 22.3638 7.63625ZM24.0001 13C24.0001 13.2652 24.1054 13.5196 24.2929 13.7071C24.4805 13.8946 24.7348 14 25.0001 14H27.0001C27.2653 14 27.5196 13.8946 27.7072 13.7071C27.8947 13.5196 28.0001 13.2652 28.0001 13C28.0001 12.7348 27.8947 12.4804 27.7072 12.2929C27.5196 12.1054 27.2653 12 27.0001 12H25.0001C24.7348 12 24.4805 12.1054 24.2929 12.2929C24.1054 12.4804 24.0001 12.7348 24.0001 13ZM11.0001 14C11.2653 14 11.5196 13.8946 11.7072 13.7071C11.8947 13.5196 12.0001 13.2652 12.0001 13C12.0001 11.9391 12.4215 10.9217 13.1716 10.1716C13.9218 9.42143 14.9392 9 16.0001 9C17.0609 9 18.0783 9.42143 18.8285 10.1716C19.5786 10.9217 20.0001 11.9391 20.0001 13C20.0001 13.2652 20.1054 13.5196 20.2929 13.7071C20.4805 13.8946 20.7348 14 21.0001 14C21.2653 14 21.5196 13.8946 21.7072 13.7071C21.8947 13.5196 22.0001 13.2652 22.0001 13C22.0001 11.4087 21.3679 9.88258 20.2427 8.75736C19.1175 7.63214 17.5914 7 16.0001 7C14.4088 7 12.8826 7.63214 11.7574 8.75736C10.6322 9.88258 10.0001 11.4087 10.0001 13C10.0001 13.2652 10.1054 13.5196 10.2929 13.7071C10.4805 13.8946 10.7348 14 11.0001 14ZM29.8638 27.5C29.7762 27.6517 29.6504 27.7777 29.4988 27.8655C29.3472 27.9532 29.1752 27.9996 29.0001 28H3.00006C2.82485 28.0008 2.65251 27.9556 2.50029 27.8689C2.34806 27.7821 2.2213 27.6569 2.13268 27.5058C2.04407 27.3546 1.99673 27.1829 1.99539 27.0077C1.99405 26.8325 2.03877 26.66 2.12506 26.5075L7.21131 17.5075C7.29887 17.3528 7.42611 17.2242 7.57991 17.135C7.73371 17.0458 7.90851 16.9992 8.08631 17H23.9126C24.0904 16.9992 24.2652 17.0458 24.419 17.135C24.5728 17.2242 24.7 17.3528 24.7876 17.5075L29.8738 26.5075C29.9587 26.6595 30.0024 26.831 30.0006 27.0051C29.9989 27.1791 29.9517 27.3497 29.8638 27.5ZM23.3301 19H20.2838L20.7188 21H24.4601L23.3301 19ZM18.6726 21L18.2376 19H13.7626L13.3276 21H18.6726ZM12.8926 23L12.2413 26H19.7588L19.1076 23H12.8926ZM7.54006 21H11.2813L11.7163 19H8.67006L7.54006 21ZM4.7138 26H10.1938L10.8463 23H6.41006L4.7138 26ZM27.2863 26L25.5901 23H21.1538L21.8063 26H27.2863Z" fill="#343330"/>
</svg>
