<svg width="32" height="32" viewBox="0 0 32 32" fill="none" xmlns="http://www.w3.org/2000/svg">
<path d="M30.895 15.5525L25.895 5.5525C25.8119 5.38636 25.6841 5.24667 25.526 5.14908C25.3679 5.05149 25.1858 4.99987 25 5H7C6.81422 4.99987 6.63208 5.05149 6.47399 5.14908C6.31591 5.24667 6.18814 5.38636 6.105 5.5525L1.105 15.5525C1.03607 15.6916 1.00014 15.8447 1 16V23C1 23.5304 1.21071 24.0391 1.58579 24.4142C1.96086 24.7893 2.46957 25 3 25H29C29.5304 25 30.0391 24.7893 30.4142 24.4142C30.7893 24.0391 31 23.5304 31 23V16C30.9999 15.8447 30.9639 15.6916 30.895 15.5525ZM12.3825 7L13.8825 10H10.1175L8.6175 7H12.3825ZM18.3825 7L19.8825 10H16.1175L14.6175 7H18.3825ZM12.6175 15L11.1175 12H14.8825L16.3825 15H12.6175ZM18.6175 15L17.1175 12H20.8825L22.3825 15H18.6175ZM24.6175 15L23.1175 12H26.8825L28.3825 15H24.6175ZM25.8825 10H22.1175L20.6175 7H24.3825L25.8825 10ZM3 16.2362L7 8.23625L11 16.2362V23H3V16.2362ZM13 23V17H29V23H13Z" fill="#343330"/>
</svg>
