<svg width="32" height="32" viewBox="0 0 32 32" fill="none" xmlns="http://www.w3.org/2000/svg">
<path d="M5 16C5 15.7348 5.10536 15.4804 5.29289 15.2929C5.48043 15.1054 5.73478 15 6 15H15C15.2652 15 15.5196 15.1054 15.7071 15.2929C15.8946 15.4804 16 15.7348 16 16C16 16.2652 15.8946 16.5196 15.7071 16.7071C15.5196 16.8946 15.2652 17 15 17H6C5.73478 17 5.48043 16.8946 5.29289 16.7071C5.10536 16.5196 5 16.2652 5 16ZM6 8.99999H13C13.2652 8.99999 13.5196 8.89464 13.7071 8.7071C13.8946 8.51956 14 8.26521 14 7.99999C14 7.73478 13.8946 7.48042 13.7071 7.29289C13.5196 7.10535 13.2652 6.99999 13 6.99999H6C5.73478 6.99999 5.48043 7.10535 5.29289 7.29289C5.10536 7.48042 5 7.73478 5 7.99999C5 8.26521 5.10536 8.51956 5.29289 8.7071C5.48043 8.89464 5.73478 8.99999 6 8.99999ZM23 23H6C5.73478 23 5.48043 23.1053 5.29289 23.2929C5.10536 23.4804 5 23.7348 5 24C5 24.2652 5.10536 24.5196 5.29289 24.7071C5.48043 24.8946 5.73478 25 6 25H23C23.2652 25 23.5196 24.8946 23.7071 24.7071C23.8946 24.5196 24 24.2652 24 24C24 23.7348 23.8946 23.4804 23.7071 23.2929C23.5196 23.1053 23.2652 23 23 23ZM28.7075 10.2925L23.7075 5.29249C23.6146 5.19952 23.5043 5.12576 23.3829 5.07543C23.2615 5.02511 23.1314 4.99921 23 4.99921C22.8686 4.99921 22.7385 5.02511 22.6171 5.07543C22.4957 5.12576 22.3854 5.19952 22.2925 5.29249L17.2925 10.2925C17.1049 10.4801 16.9994 10.7346 16.9994 11C16.9994 11.2654 17.1049 11.5199 17.2925 11.7075C17.4801 11.8951 17.7346 12.0005 18 12.0005C18.2654 12.0005 18.5199 11.8951 18.7075 11.7075L22 8.41374V18C22 18.2652 22.1054 18.5196 22.2929 18.7071C22.4804 18.8946 22.7348 19 23 19C23.2652 19 23.5196 18.8946 23.7071 18.7071C23.8946 18.5196 24 18.2652 24 18V8.41374L27.2925 11.7075C27.3854 11.8004 27.4957 11.8741 27.6171 11.9244C27.7385 11.9747 27.8686 12.0005 28 12.0005C28.1314 12.0005 28.2615 11.9747 28.3829 11.9244C28.5043 11.8741 28.6146 11.8004 28.7075 11.7075C28.8004 11.6146 28.8741 11.5043 28.9244 11.3829C28.9747 11.2615 29.0006 11.1314 29.0006 11C29.0006 10.8686 28.9747 10.7385 28.9244 10.6171C28.8741 10.4957 28.8004 10.3854 28.7075 10.2925Z" fill="#343330"/>
</svg>
