<svg width="32" height="32" viewBox="0 0 32 32" fill="none" xmlns="http://www.w3.org/2000/svg">
<path d="M16.4475 2.10627C16.3086 2.03674 16.1554 2.00055 16 2.00055C15.8446 2.00055 15.6914 2.03674 15.5525 2.10627C15.04 2.36252 3 8.48001 3 17C2.99955 18.1143 3.26513 19.2127 3.77466 20.2037C4.2842 21.1947 5.02296 22.0497 5.92952 22.6977C6.83607 23.3457 7.88423 23.7679 8.98682 23.9292C10.0894 24.0904 11.2146 23.9862 12.2688 23.625L11.0425 27.7125C10.9977 27.8618 10.9884 28.0195 11.0154 28.1731C11.0423 28.3266 11.1048 28.4717 11.1979 28.5968C11.2909 28.7219 11.4119 28.8235 11.5511 28.8935C11.6904 28.9635 11.8441 29 12 29H20C20.1559 29 20.3096 28.9635 20.4489 28.8935C20.5881 28.8235 20.7091 28.7219 20.8021 28.5968C20.8952 28.4717 20.9577 28.3266 20.9846 28.1731C21.0116 28.0195 21.0023 27.8618 20.9575 27.7125L19.7313 23.625C20.7854 23.9862 21.9106 24.0904 23.0132 23.9292C24.1158 23.7679 25.1639 23.3457 26.0705 22.6977C26.977 22.0497 27.7158 21.1947 28.2253 20.2037C28.7349 19.2127 29.0005 18.1143 29 17C29 8.48001 16.96 2.36252 16.4475 2.10627ZM22 22C20.7918 22.0001 19.6244 21.5627 18.7138 20.7688C18.5503 20.6262 18.345 20.5407 18.1287 20.5251C17.9124 20.5094 17.6969 20.5645 17.5146 20.682C17.3324 20.7995 17.1933 20.9731 17.1182 21.1765C17.0432 21.38 17.0364 21.6023 17.0988 21.81L18.6563 27H13.3438L14.9013 21.81C14.9636 21.6023 14.9568 21.38 14.8818 21.1765C14.8067 20.9731 14.6676 20.7995 14.4854 20.682C14.3031 20.5645 14.0876 20.5094 13.8713 20.5251C13.655 20.5407 13.4497 20.6262 13.2863 20.7688C12.5628 21.3997 11.673 21.809 10.7232 21.9478C9.77342 22.0867 8.80372 21.9492 7.92995 21.5518C7.05618 21.1544 6.31527 20.5138 5.79572 19.7067C5.27616 18.8995 4.99993 17.9599 5 17C5 13.265 8.05125 9.93127 10.6113 7.79252C12.2894 6.40714 14.0935 5.1818 16 4.13252C17.9065 5.1818 19.7106 6.40714 21.3888 7.79252C26.0262 11.6675 27 14.9388 27 17C27 18.3261 26.4732 19.5979 25.5355 20.5355C24.5979 21.4732 23.3261 22 22 22Z" fill="#343330"/>
</svg>
