<svg width="32" height="32" viewBox="0 0 32 32" fill="none" xmlns="http://www.w3.org/2000/svg">
<path d="M20.4387 3.10126C20.2706 3.01932 20.0828 2.98619 19.8968 3.00563C19.7107 3.02508 19.5338 3.09632 19.3862 3.21126L10.6562 10H5C4.46957 10 3.96086 10.2107 3.58579 10.5858C3.21071 10.9609 3 11.4696 3 12V20C3 20.5304 3.21071 21.0392 3.58579 21.4142C3.96086 21.7893 4.46957 22 5 22H10.6562L19.3862 28.7888C19.534 28.9036 19.711 28.9747 19.8971 28.994C20.0832 29.0132 20.271 28.9799 20.4391 28.8977C20.6072 28.8155 20.7489 28.6878 20.8481 28.5291C20.9472 28.3705 20.9999 28.1871 21 28V4.00001C21 3.81267 20.9474 3.62909 20.8482 3.47019C20.749 3.31129 20.6071 3.18346 20.4387 3.10126ZM19 25.955L11.6138 20.2113C11.4386 20.074 11.2225 19.9996 11 20H5V12H11C11.2225 12.0004 11.4386 11.926 11.6138 11.7888L19 6.04501V25.955ZM31.7075 18.2925C31.8951 18.4802 32.0006 18.7346 32.0006 19C32.0006 19.2654 31.8951 19.5199 31.7075 19.7075C31.5199 19.8952 31.2654 20.0006 31 20.0006C30.7346 20.0006 30.4801 19.8952 30.2925 19.7075L28 17.4138L25.7075 19.7075C25.5199 19.8952 25.2654 20.0006 25 20.0006C24.7346 20.0006 24.4801 19.8952 24.2925 19.7075C24.1049 19.5199 23.9994 19.2654 23.9994 19C23.9994 18.7346 24.1049 18.4802 24.2925 18.2925L26.5863 16L24.2925 13.7075C24.1049 13.5199 23.9994 13.2654 23.9994 13C23.9994 12.7346 24.1049 12.4802 24.2925 12.2925C24.4801 12.1049 24.7346 11.9995 25 11.9995C25.2654 11.9995 25.5199 12.1049 25.7075 12.2925L28 14.5863L30.2925 12.2925C30.4801 12.1049 30.7346 11.9995 31 11.9995C31.2654 11.9995 31.5199 12.1049 31.7075 12.2925C31.8951 12.4802 32.0006 12.7346 32.0006 13C32.0006 13.2654 31.8951 13.5199 31.7075 13.7075L29.4137 16L31.7075 18.2925Z" fill="#343330"/>
</svg>
