<svg width="32" height="32" viewBox="0 0 32 32" fill="none" xmlns="http://www.w3.org/2000/svg">
<path d="M24 19V13C24 12.7348 24.1054 12.4804 24.2929 12.2929C24.4804 12.1054 24.7348 12 25 12C25.2652 12 25.5196 12.1054 25.7071 12.2929C25.8946 12.4804 26 12.7348 26 13V19C26 19.2652 25.8946 19.5196 25.7071 19.7071C25.5196 19.8947 25.2652 20 25 20C24.7348 20 24.4804 19.8947 24.2929 19.7071C24.1054 19.5196 24 19.2652 24 19ZM29 10C28.7348 10 28.4804 10.1054 28.2929 10.2929C28.1054 10.4804 28 10.7348 28 11V21C28 21.2652 28.1054 21.5196 28.2929 21.7071C28.4804 21.8947 28.7348 22 29 22C29.2652 22 29.5196 21.8947 29.7071 21.7071C29.8946 21.5196 30 21.2652 30 21V11C30 10.7348 29.8946 10.4804 29.7071 10.2929C29.5196 10.1054 29.2652 10 29 10ZM27.74 26.3275C27.8302 26.4244 27.9002 26.5382 27.9461 26.6623C27.9919 26.7864 28.0127 26.9184 28.0072 27.0506C28.0017 27.1828 27.97 27.3127 27.9139 27.4325C27.8578 27.5524 27.7785 27.6599 27.6806 27.7489C27.5827 27.8379 27.4681 27.9066 27.3434 27.951C27.2187 27.9954 27.0865 28.0146 26.9543 28.0074C26.8222 28.0003 26.6928 27.9671 26.5736 27.9096C26.4544 27.8521 26.3478 27.7715 26.26 27.6725L21 21.8863V28C20.9999 28.1871 20.9472 28.3705 20.8481 28.5291C20.7489 28.6878 20.6072 28.8155 20.4391 28.8977C20.271 28.9799 20.0832 29.0132 19.8971 28.994C19.711 28.9747 19.534 28.9036 19.3862 28.7888L10.6562 22H5C4.46957 22 3.96086 21.7893 3.58579 21.4142C3.21071 21.0392 3 20.5304 3 20V12C3 11.4696 3.21071 10.9609 3.58579 10.5858C3.96086 10.2107 4.46957 10 5 10H10.1938L6.26 5.67251C6.08537 5.47567 5.99537 5.21793 6.00951 4.95517C6.02364 4.69241 6.14078 4.44581 6.33552 4.26883C6.53025 4.09186 6.7869 3.99877 7.04981 4.00976C7.31272 4.02074 7.5607 4.13491 7.74 4.32751L27.74 26.3275ZM19 19.6863L12.0125 12H5V20H11C11.2225 19.9997 11.4386 20.074 11.6138 20.2113L19 25.955V19.6863ZM15.6325 8.66376L19 6.03876V13.3475C19 13.6127 19.1054 13.8671 19.2929 14.0546C19.4804 14.2422 19.7348 14.3475 20 14.3475C20.2652 14.3475 20.5196 14.2422 20.7071 14.0546C20.8946 13.8671 21 13.6127 21 13.3475V4.00001C20.9999 3.8129 20.9472 3.62957 20.8481 3.47088C20.7489 3.31219 20.6072 3.1845 20.4391 3.10234C20.271 3.02017 20.0832 2.98682 19.8971 3.00607C19.711 3.02533 19.534 3.09642 19.3862 3.21126L14.405 7.08626C14.1998 7.25046 14.0676 7.48882 14.0368 7.74979C14.006 8.01076 14.0791 8.27336 14.2404 8.48081C14.4017 8.68826 14.6382 8.82389 14.8987 8.85836C15.1592 8.89283 15.4228 8.82337 15.6325 8.66501V8.66376Z" fill="#343330"/>
</svg>
