<svg width="32" height="32" viewBox="0 0 32 32" fill="none" xmlns="http://www.w3.org/2000/svg">
<path d="M19.4387 3.10126C19.2706 3.01932 19.0828 2.98619 18.8968 3.00563C18.7107 3.02508 18.5338 3.09632 18.3862 3.21126L9.65625 10H4C3.46957 10 2.96086 10.2107 2.58579 10.5858C2.21071 10.9609 2 11.4696 2 12V20C2 20.5304 2.21071 21.0392 2.58579 21.4142C2.96086 21.7893 3.46957 22 4 22H9.65625L18.3862 28.7888C18.534 28.9036 18.711 28.9747 18.8971 28.994C19.0832 29.0132 19.271 28.9799 19.4391 28.8977C19.6072 28.8155 19.7489 28.6878 19.8481 28.5291C19.9472 28.3705 19.9999 28.1871 20 28V4.00001C20 3.81267 19.9474 3.62909 19.8482 3.47019C19.749 3.31129 19.6071 3.18346 19.4387 3.10126ZM4 12H9V20H4V12ZM18 25.955L11 20.5113V11.4888L18 6.04501V25.955ZM24.75 12.695C25.5543 13.6081 25.9981 14.7832 25.9981 16C25.9981 17.2168 25.5543 18.3919 24.75 19.305C24.5733 19.4991 24.3274 19.616 24.0653 19.6304C23.8032 19.6448 23.546 19.5556 23.3491 19.382C23.1522 19.2084 23.0315 18.9644 23.0129 18.7026C22.9944 18.4407 23.0795 18.1821 23.25 17.9825C23.7323 17.4347 23.9984 16.7299 23.9984 16C23.9984 15.2701 23.7323 14.5653 23.25 14.0175C23.0795 13.8179 22.9944 13.5593 23.0129 13.2975C23.0315 13.0356 23.1522 12.7916 23.3491 12.618C23.546 12.4444 23.8032 12.3552 24.0653 12.3696C24.3274 12.384 24.5733 12.5009 24.75 12.695ZM31 16C31.0014 18.4603 30.0947 20.8345 28.4538 22.6675C28.2756 22.8603 28.0288 22.9753 27.7667 22.9877C27.5045 23.0001 27.248 22.9089 27.0524 22.7339C26.8568 22.5588 26.7379 22.3139 26.7214 22.052C26.7048 21.79 26.7918 21.5321 26.9638 21.3338C28.2755 19.8671 29.0007 17.9684 29.0007 16.0006C29.0007 14.0329 28.2755 12.1342 26.9638 10.6675C26.8737 10.5701 26.804 10.4557 26.7586 10.3311C26.7131 10.2064 26.693 10.074 26.6993 9.94148C26.7055 9.80897 26.7381 9.67903 26.7951 9.55923C26.8521 9.43944 26.9323 9.33218 27.0312 9.2437C27.13 9.15522 27.2455 9.08729 27.3708 9.04387C27.4962 9.00045 27.6289 8.98241 27.7613 8.99079C27.8937 8.99917 28.0231 9.03381 28.142 9.09269C28.2609 9.15158 28.3669 9.23352 28.4538 9.33376C30.0952 11.166 31.002 13.54 31 16Z" fill="#343330"/>
</svg>
