<svg width="32" height="32" viewBox="0 0 32 32" fill="none" xmlns="http://www.w3.org/2000/svg">
<path d="M19.4387 3.10126C19.2706 3.01932 19.0828 2.98619 18.8968 3.00563C18.7107 3.02508 18.5338 3.09632 18.3862 3.21126L9.65625 10H4C3.46957 10 2.96086 10.2107 2.58579 10.5858C2.21071 10.9609 2 11.4696 2 12V20C2 20.5304 2.21071 21.0392 2.58579 21.4142C2.96086 21.7893 3.46957 22 4 22H9.65625L18.3862 28.7888C18.534 28.9036 18.711 28.9747 18.8971 28.994C19.0832 29.0132 19.271 28.9799 19.4391 28.8977C19.6072 28.8155 19.7489 28.6878 19.8481 28.5291C19.9472 28.3705 19.9999 28.1871 20 28V4.00001C20 3.81267 19.9474 3.62909 19.8482 3.47019C19.749 3.31129 19.6071 3.18346 19.4387 3.10126ZM4 12H9V20H4V12ZM18 25.955L11 20.5113V11.4888L18 6.04501V25.955ZM26 16C26.0009 17.2181 25.5563 18.3945 24.75 19.3075C24.5733 19.5016 24.3274 19.6185 24.0653 19.6329C23.8032 19.6473 23.546 19.5581 23.3491 19.3845C23.1522 19.2109 23.0315 18.9669 23.0129 18.7051C22.9944 18.4432 23.0795 18.1846 23.25 17.985C23.7323 17.4372 23.9984 16.7324 23.9984 16.0025C23.9984 15.2726 23.7323 14.5678 23.25 14.02C23.1607 13.9219 23.0918 13.807 23.0474 13.682C23.0029 13.5571 22.9838 13.4245 22.9911 13.292C22.9984 13.1596 23.0319 13.0299 23.0898 12.9106C23.1477 12.7912 23.2287 12.6846 23.3282 12.5968C23.4277 12.5091 23.5437 12.4421 23.6694 12.3996C23.795 12.3571 23.9279 12.3401 24.0602 12.3494C24.1925 12.3588 24.3217 12.3944 24.4401 12.4542C24.5585 12.5139 24.6639 12.5966 24.75 12.6975C25.5545 13.6097 25.9989 14.7838 26 16Z" fill="#343330"/>
</svg>
