<svg width="32" height="32" viewBox="0 0 32 32" fill="none" xmlns="http://www.w3.org/2000/svg">
<path d="M6.74 4.32749C6.65218 4.2285 6.54559 4.14792 6.4264 4.09043C6.30721 4.03293 6.1778 3.99967 6.04566 3.99256C5.91352 3.98545 5.78128 4.00464 5.65661 4.04901C5.53194 4.09339 5.41732 4.16206 5.31939 4.25106C5.22146 4.34006 5.14216 4.44761 5.0861 4.56748C5.03004 4.68735 4.99833 4.81716 4.99281 4.94937C4.98728 5.08159 5.00806 5.21358 5.05392 5.33771C5.09979 5.46184 5.16983 5.57563 5.26 5.67249L9.19375 9.99999H4C3.46957 9.99999 2.96086 10.2107 2.58579 10.5858C2.21071 10.9608 2 11.4696 2 12V20C2 20.5304 2.21071 21.0391 2.58579 21.4142C2.96086 21.7893 3.46957 22 4 22H9.65625L18.3862 28.7887C18.534 28.9036 18.711 28.9747 18.8971 28.9939C19.0832 29.0132 19.271 28.9798 19.4391 28.8977C19.6072 28.8155 19.7489 28.6878 19.8481 28.5291C19.9472 28.3704 19.9999 28.1871 20 28V21.8862L25.26 27.6725C25.3478 27.7715 25.4544 27.8521 25.5736 27.9096C25.6928 27.967 25.8222 28.0003 25.9543 28.0074C26.0865 28.0145 26.2187 27.9953 26.3434 27.951C26.4681 27.9066 26.5827 27.8379 26.6806 27.7489C26.7785 27.6599 26.8578 27.5524 26.9139 27.4325C26.97 27.3126 27.0017 27.1828 27.0072 27.0506C27.0127 26.9184 26.9919 26.7864 26.9461 26.6623C26.9002 26.5381 26.8302 26.4243 26.74 26.3275L6.74 4.32749ZM4 12H9V20H4V12ZM18 25.955L11 20.5112V11.9862L18 19.6862V25.955ZM23.25 17.9837C23.7323 17.4359 23.9984 16.7311 23.9984 16.0012C23.9984 15.2714 23.7323 14.5665 23.25 14.0187C23.1581 13.9211 23.0868 13.8059 23.0403 13.6802C22.9939 13.5544 22.9731 13.4206 22.9794 13.2867C22.9857 13.1527 23.0189 13.0214 23.0769 12.9006C23.135 12.7797 23.2167 12.6717 23.3174 12.5831C23.418 12.4945 23.5354 12.427 23.6626 12.3847C23.7898 12.3423 23.9243 12.326 24.0579 12.3367C24.1916 12.3474 24.3217 12.3848 24.4406 12.4468C24.5595 12.5088 24.6647 12.594 24.75 12.6975C25.5543 13.6106 25.9981 14.7857 25.9981 16.0025C25.9981 17.2193 25.5543 18.3944 24.75 19.3075C24.6631 19.406 24.5576 19.4864 24.4396 19.5441C24.3216 19.6019 24.1934 19.6358 24.0623 19.644C23.9312 19.6521 23.7998 19.6344 23.6755 19.5918C23.5513 19.5492 23.4366 19.4825 23.3381 19.3956C23.2396 19.3087 23.1592 19.2032 23.1015 19.0852C23.0438 18.9672 23.0098 18.839 23.0017 18.7079C22.9935 18.5768 23.0112 18.4454 23.0538 18.3211C23.0964 18.1969 23.1631 18.0822 23.25 17.9837ZM13.23 8.48374C13.1493 8.38009 13.0898 8.26155 13.0549 8.1349C13.02 8.00825 13.0104 7.87597 13.0267 7.7456C13.0429 7.61524 13.0847 7.48936 13.1496 7.37515C13.2145 7.26094 13.3013 7.16065 13.405 7.07999L18.3862 3.20499C18.5344 3.08981 18.712 3.01865 18.8987 2.99963C19.0853 2.98061 19.2736 3.0145 19.4419 3.09742C19.6103 3.18035 19.7519 3.30897 19.8506 3.46858C19.9492 3.62819 20.001 3.81234 20 3.99999V13.3537C20 13.619 19.8946 13.8733 19.7071 14.0608C19.5196 14.2484 19.2652 14.3537 19 14.3537C18.7348 14.3537 18.4804 14.2484 18.2929 14.0608C18.1054 13.8733 18 13.619 18 13.3537V6.04499L14.6325 8.66999C14.4225 8.83193 14.1567 8.90381 13.8937 8.86982C13.6307 8.83582 13.392 8.69875 13.23 8.48874V8.48374ZM31 16C31.0014 18.4602 30.0947 20.8345 28.4538 22.6675C28.2756 22.8602 28.0288 22.9752 27.7667 22.9876C27.5045 23.0001 27.248 22.9089 27.0524 22.7339C26.8568 22.5588 26.7379 22.3139 26.7214 22.052C26.7048 21.79 26.7918 21.5321 26.9638 21.3337C28.2755 19.867 29.0007 17.9683 29.0007 16.0006C29.0007 14.0329 28.2755 12.1342 26.9638 10.6675C26.8737 10.5701 26.804 10.4557 26.7586 10.3311C26.7131 10.2064 26.693 10.074 26.6993 9.94146C26.7055 9.80895 26.7381 9.67901 26.7951 9.55921C26.8521 9.43941 26.9323 9.33215 27.0312 9.24367C27.13 9.1552 27.2455 9.08727 27.3708 9.04385C27.4962 9.00043 27.6289 8.98238 27.7613 8.99077C27.8937 8.99915 28.0231 9.03379 28.142 9.09267C28.2609 9.15155 28.3669 9.2335 28.4538 9.33374C30.0952 11.166 31.002 13.54 31 16Z" fill="#343330"/>
</svg>
