<svg width="32" height="32" viewBox="0 0 32 32" fill="none" xmlns="http://www.w3.org/2000/svg">
<path d="M19.4387 3.10126C19.2706 3.01932 19.0828 2.98619 18.8968 3.00563C18.7107 3.02508 18.5338 3.09632 18.3862 3.21126L9.65625 10H4C3.46957 10 2.96086 10.2107 2.58579 10.5858C2.21071 10.9609 2 11.4696 2 12V20C2 20.5304 2.21071 21.0392 2.58579 21.4142C2.96086 21.7893 3.46957 22 4 22H9.65625L18.3862 28.7888C18.534 28.9036 18.711 28.9747 18.8971 28.994C19.0832 29.0132 19.271 28.9799 19.4391 28.8977C19.6072 28.8155 19.7489 28.6878 19.8481 28.5291C19.9472 28.3705 19.9999 28.1871 20 28V4.00001C20 3.81267 19.9474 3.62909 19.8482 3.47019C19.749 3.31129 19.6071 3.18346 19.4387 3.10126ZM4 12H9V20H4V12ZM18 25.955L11 20.5113V11.4888L18 6.04501V25.955ZM30.7075 18.2925C30.8951 18.4802 31.0006 18.7346 31.0006 19C31.0006 19.2654 30.8951 19.5199 30.7075 19.7075C30.5199 19.8952 30.2654 20.0006 30 20.0006C29.7346 20.0006 29.4801 19.8952 29.2925 19.7075L27 17.4138L24.7075 19.7075C24.5199 19.8952 24.2654 20.0006 24 20.0006C23.7346 20.0006 23.4801 19.8952 23.2925 19.7075C23.1049 19.5199 22.9994 19.2654 22.9994 19C22.9994 18.7346 23.1049 18.4802 23.2925 18.2925L25.5863 16L23.2925 13.7075C23.1049 13.5199 22.9994 13.2654 22.9994 13C22.9994 12.7346 23.1049 12.4802 23.2925 12.2925C23.4801 12.1049 23.7346 11.9995 24 11.9995C24.2654 11.9995 24.5199 12.1049 24.7075 12.2925L27 14.5863L29.2925 12.2925C29.4801 12.1049 29.7346 11.9995 30 11.9995C30.2654 11.9995 30.5199 12.1049 30.7075 12.2925C30.8951 12.4802 31.0006 12.7346 31.0006 13C31.0006 13.2654 30.8951 13.5199 30.7075 13.7075L28.4137 16L30.7075 18.2925Z" fill="#343330"/>
</svg>
