<svg width="32" height="32" viewBox="0 0 32 32" fill="none" xmlns="http://www.w3.org/2000/svg">
<path d="M14.2924 19.2925L26.2924 7.2925C26.3854 7.19959 26.4957 7.12589 26.6171 7.07561C26.7384 7.02532 26.8686 6.99944 26.9999 6.99944C27.1313 6.99944 27.2615 7.02532 27.3828 7.07561C27.5042 7.12589 27.6145 7.19959 27.7074 7.2925C27.8004 7.38541 27.8741 7.49571 27.9243 7.6171C27.9746 7.7385 28.0005 7.8686 28.0005 8C28.0005 8.13139 27.9746 8.2615 27.9243 8.3829C27.8741 8.50429 27.8004 8.61459 27.7074 8.7075L15.7074 20.7075C15.6145 20.8004 15.5042 20.8741 15.3828 20.9244C15.2615 20.9747 15.1313 21.0006 14.9999 21.0006C14.8686 21.0006 14.7384 20.9747 14.6171 20.9244C14.4957 20.8741 14.3854 20.8004 14.2924 20.7075C14.1995 20.6146 14.1258 20.5043 14.0756 20.3829C14.0253 20.2615 13.9994 20.1314 13.9994 20C13.9994 19.8686 14.0253 19.7385 14.0756 19.6171C14.1258 19.4957 14.1995 19.3854 14.2924 19.2925ZM15.9999 11C16.8686 10.9989 17.7316 11.1395 18.5549 11.4162C18.68 11.4606 18.8125 11.4796 18.945 11.4722C19.0774 11.4648 19.207 11.4311 19.3263 11.3731C19.4456 11.3151 19.5522 11.234 19.6398 11.1344C19.7274 11.0348 19.7944 10.9188 19.8367 10.7931C19.8791 10.6675 19.896 10.5346 19.8866 10.4023C19.8771 10.27 19.8414 10.1409 19.7815 10.0226C19.7217 9.90418 19.6389 9.7989 19.538 9.71284C19.4371 9.62678 19.32 9.56165 19.1937 9.52125C17.6001 8.98401 15.8968 8.85734 14.2412 9.15296C12.5857 9.44859 11.0314 10.157 9.72228 11.2125C8.41311 12.2681 7.3913 13.6368 6.75137 15.192C6.11144 16.7472 5.87406 18.4387 6.0612 20.11C6.08825 20.3544 6.20442 20.5803 6.38751 20.7445C6.5706 20.9087 6.80778 20.9996 7.0537 21C7.08995 21 7.12745 21 7.16495 20.9937C7.42849 20.9645 7.66963 20.8318 7.83536 20.6249C8.00109 20.4179 8.07782 20.1535 8.0487 19.89C8.01616 19.5944 7.99988 19.2973 7.99995 19C8.00226 16.879 8.84586 14.8455 10.3457 13.3457C11.8454 11.8459 13.8789 11.0023 15.9999 11ZM28.4674 12.625C28.4075 12.5081 28.3252 12.4042 28.2251 12.3191C28.125 12.2341 28.0092 12.1696 27.8842 12.1293C27.7591 12.089 27.6274 12.0738 27.4965 12.0844C27.3656 12.095 27.2381 12.1313 27.1212 12.1912C27.0043 12.2512 26.9004 12.3335 26.8153 12.4336C26.7303 12.5337 26.6658 12.6495 26.6255 12.7745C26.5852 12.8996 26.57 13.0313 26.5806 13.1622C26.5912 13.2931 26.6275 13.4206 26.6874 13.5375C27.4273 14.9903 27.8642 16.5784 27.9716 18.2052C28.0791 19.832 27.8548 21.4637 27.3124 23.0012L4.67495 22.9925C4.04336 21.182 3.85368 19.2468 4.12174 17.3482C4.3898 15.4495 5.10782 13.6425 6.21596 12.0776C7.32409 10.5128 8.79023 9.23551 10.4922 8.35225C12.1941 7.469 14.0825 7.00536 15.9999 7H16.1099C17.9724 7.01171 19.8059 7.46132 21.4624 8.3125C21.5796 8.377 21.7086 8.41733 21.8417 8.4311C21.9747 8.44488 22.1092 8.43181 22.2371 8.39268C22.365 8.35355 22.4838 8.28916 22.5864 8.2033C22.689 8.11745 22.7733 8.01189 22.8344 7.89286C22.8954 7.77384 22.932 7.64377 22.9419 7.51036C22.9518 7.37696 22.9348 7.24292 22.892 7.11619C22.8491 6.98946 22.7813 6.87262 22.6925 6.77257C22.6037 6.67253 22.4957 6.59132 22.3749 6.53375C19.8811 5.2564 17.0614 4.75673 14.2806 5.09936C11.4997 5.44199 8.88561 6.61116 6.77644 8.45563C4.66728 10.3001 3.16009 12.735 2.44983 15.4454C1.73957 18.1558 1.85892 21.0169 2.79245 23.6588C2.93035 24.0502 3.18609 24.3893 3.52452 24.6294C3.86295 24.8696 4.26746 24.999 4.68245 25H27.3162C27.731 25.0003 28.1356 24.8715 28.474 24.6317C28.8124 24.3918 29.0678 24.0527 29.2049 23.6612C29.8357 21.8674 30.0955 19.9641 29.9687 18.0668C29.842 16.1695 29.3312 14.3178 28.4674 12.6237V12.625Z" fill="#343330"/>
</svg>
