<svg width="32" height="32" viewBox="0 0 32 32" fill="none" xmlns="http://www.w3.org/2000/svg">
<path d="M16 3C13.4288 3 10.9154 3.76244 8.77759 5.1909C6.63975 6.61935 4.97351 8.64968 3.98957 11.0251C3.00563 13.4006 2.74819 16.0144 3.2498 18.5362C3.75141 21.0579 4.98953 23.3743 6.80762 25.1924C8.6257 27.0105 10.9421 28.2486 13.4638 28.7502C15.9856 29.2518 18.5995 28.9944 20.9749 28.0104C23.3503 27.0265 25.3807 25.3603 26.8091 23.2224C28.2376 21.0846 29 18.5712 29 16C28.9964 12.5533 27.6256 9.24882 25.1884 6.81163C22.7512 4.37445 19.4467 3.00364 16 3ZM27 16C27 16.75 24.875 18.0287 20.9038 18.6462C20.9675 17.7712 21 16.8862 21 16C21 11.97 20.3313 7.91 19.0325 5.425C21.3269 6.08663 23.3443 7.47553 24.7813 9.3827C26.2182 11.2899 26.9968 13.6121 27 16ZM16 5C17.0188 5 19 8.8825 19 16C19 17.03 18.9575 17.99 18.8838 18.8838C17.99 18.9575 17.03 19 16 19C8.88251 19 5.00001 17.0188 5.00001 16C5.00331 13.0836 6.1633 10.2877 8.22548 8.22548C10.2877 6.1633 13.0836 5.00331 16 5ZM5.42501 19.0325C7.91001 20.3312 11.97 21 16 21C16.8863 21 17.7738 20.9675 18.6463 20.9037C18.0288 24.875 16.75 27 16 27C13.6121 26.9968 11.2899 26.2182 9.3827 24.7813C7.47554 23.3443 6.08664 21.3269 5.42501 19.0325ZM19.0325 26.575C19.8188 25.075 20.3738 22.9913 20.69 20.69C22.9913 20.3738 25.065 19.815 26.575 19.0325C26.0565 20.8241 25.093 22.4553 23.7741 23.7741C22.4553 25.0929 20.8241 26.0565 19.0325 26.575Z" fill="#343330"/>
</svg>
