<svg width="32" height="32" viewBox="0 0 32 32" fill="none" xmlns="http://www.w3.org/2000/svg">
<path d="M16 3C13.4288 3 10.9154 3.76244 8.77759 5.1909C6.63975 6.61935 4.97351 8.64968 3.98957 11.0251C3.00563 13.4006 2.74819 16.0144 3.2498 18.5362C3.75141 21.0579 4.98953 23.3743 6.80762 25.1924C8.6257 27.0105 10.9421 28.2486 13.4638 28.7502C15.9856 29.2518 18.5995 28.9944 20.9749 28.0104C23.3503 27.0265 25.3807 25.3603 26.8091 23.2224C28.2376 21.0846 29 18.5712 29 16C28.9964 12.5533 27.6256 9.24882 25.1884 6.81163C22.7512 4.37445 19.4467 3.00364 16 3ZM26.9775 15.3075C23.435 17.8075 20.7813 17.1425 17.9938 15.8562C20.5013 14.0825 22.8513 11.83 22.935 7.4675C24.1138 8.42421 25.0816 9.61478 25.7773 10.9641C26.4731 12.3135 26.8817 13.7924 26.9775 15.3075ZM20.8888 6.14875C21.28 10.4637 19.375 12.43 16.875 14.2013C16.5938 11.1413 15.82 7.97625 12.0788 5.72375C13.4973 5.1817 15.0128 4.93961 16.5295 5.01276C18.0463 5.08591 19.5315 5.47271 20.8913 6.14875H20.8888ZM9.91501 6.84125C13.8463 8.66 14.5988 11.2888 14.8788 14.3413C12.0875 13.055 8.96001 12.1425 5.13751 14.2563C5.38038 12.758 5.93009 11.326 6.75219 10.05C7.57428 8.77407 8.65105 7.68166 9.91501 6.84125ZM5.02251 16.6925C8.56501 14.1925 11.2188 14.8575 14.0063 16.1437C11.5 17.9175 9.14876 20.17 9.06501 24.5325C7.88622 23.5758 6.91843 22.3852 6.22267 21.0359C5.52691 19.6865 5.11827 18.2076 5.02251 16.6925ZM11.1113 25.8512C10.72 21.5362 12.625 19.57 15.125 17.7987C15.4063 20.8587 16.18 24.0238 19.9213 26.2763C18.5027 26.8183 16.9873 27.0604 15.4705 26.9872C13.9537 26.9141 12.4685 26.5273 11.1088 25.8512H11.1113ZM22.085 25.1588C18.1538 23.34 17.4013 20.7113 17.1213 17.6588C18.7113 18.3913 20.41 19.0025 22.2838 19.0025C23.7 19.0025 25.2163 18.6525 26.8625 17.7425C26.6196 19.241 26.07 20.6731 25.2479 21.9493C24.4258 23.2255 23.349 24.3181 22.085 25.1588Z" fill="#343330"/>
</svg>
