<svg width="32" height="32" viewBox="0 0 32 32" fill="none" xmlns="http://www.w3.org/2000/svg">
<path d="M27 19C27 19.2652 26.8946 19.5196 26.7071 19.7071C26.5196 19.8946 26.2652 20 26 20H17V26.5862L19.2925 24.2925C19.4801 24.1049 19.7346 23.9994 20 23.9994C20.2654 23.9994 20.5199 24.1049 20.7075 24.2925C20.8951 24.4801 21.0006 24.7346 21.0006 25C21.0006 25.2654 20.8951 25.5199 20.7075 25.7075L16.7075 29.7075C16.6146 29.8005 16.5043 29.8742 16.3829 29.9246C16.2615 29.9749 16.1314 30.0008 16 30.0008C15.8686 30.0008 15.7385 29.9749 15.6171 29.9246C15.4957 29.8742 15.3854 29.8005 15.2925 29.7075L11.2925 25.7075C11.1049 25.5199 10.9994 25.2654 10.9994 25C10.9994 24.7346 11.1049 24.4801 11.2925 24.2925C11.4801 24.1049 11.7346 23.9994 12 23.9994C12.2654 23.9994 12.5199 24.1049 12.7075 24.2925L15 26.5862V20H6C5.73478 20 5.48043 19.8946 5.29289 19.7071C5.10536 19.5196 5 19.2652 5 19C5 18.7348 5.10536 18.4804 5.29289 18.2929C5.48043 18.1053 5.73478 18 6 18H26C26.2652 18 26.5196 18.1053 26.7071 18.2929C26.8946 18.4804 27 18.7348 27 19ZM6 14H26C26.2652 14 26.5196 13.8946 26.7071 13.7071C26.8946 13.5196 27 13.2652 27 13C27 12.7348 26.8946 12.4804 26.7071 12.2929C26.5196 12.1054 26.2652 12 26 12H17V5.41374L19.2925 7.70749C19.4801 7.89513 19.7346 8.00055 20 8.00055C20.2654 8.00055 20.5199 7.89513 20.7075 7.70749C20.8951 7.51985 21.0006 7.26536 21.0006 6.99999C21.0006 6.73463 20.8951 6.48013 20.7075 6.29249L16.7075 2.29249C16.6146 2.19952 16.5043 2.12576 16.3829 2.07543C16.2615 2.02511 16.1314 1.99921 16 1.99921C15.8686 1.99921 15.7385 2.02511 15.6171 2.07543C15.4957 2.12576 15.3854 2.19952 15.2925 2.29249L11.2925 6.29249C11.1049 6.48013 10.9994 6.73463 10.9994 6.99999C10.9994 7.26536 11.1049 7.51985 11.2925 7.70749C11.4801 7.89513 11.7346 8.00055 12 8.00055C12.2654 8.00055 12.5199 7.89513 12.7075 7.70749L15 5.41374V12H6C5.73478 12 5.48043 12.1054 5.29289 12.2929C5.10536 12.4804 5 12.7348 5 13C5 13.2652 5.10536 13.5196 5.29289 13.7071C5.48043 13.8946 5.73478 14 6 14Z" fill="#343330"/>
</svg>
