<svg width="32" height="32" viewBox="0 0 32 32" fill="none" xmlns="http://www.w3.org/2000/svg">
<path d="M14 6V26C14 26.2652 13.8946 26.5196 13.7071 26.7071C13.5196 26.8946 13.2652 27 13 27C12.7348 27 12.4804 26.8946 12.2929 26.7071C12.1054 26.5196 12 26.2652 12 26V17H5.41374L7.70749 19.2925C7.89513 19.4801 8.00055 19.7346 8.00055 20C8.00055 20.2654 7.89513 20.5199 7.70749 20.7075C7.51985 20.8951 7.26536 21.0006 6.99999 21.0006C6.73463 21.0006 6.48013 20.8951 6.29249 20.7075L2.29249 16.7075C2.19952 16.6146 2.12576 16.5043 2.07543 16.3829C2.02511 16.2615 1.99921 16.1314 1.99921 16C1.99921 15.8686 2.02511 15.7385 2.07543 15.6171C2.12576 15.4957 2.19952 15.3854 2.29249 15.2925L6.29249 11.2925C6.48013 11.1049 6.73463 10.9994 6.99999 10.9994C7.26536 10.9994 7.51985 11.1049 7.70749 11.2925C7.89513 11.4801 8.00055 11.7346 8.00055 12C8.00055 12.2654 7.89513 12.5199 7.70749 12.7075L5.41374 15H12V6C12 5.73478 12.1054 5.48043 12.2929 5.29289C12.4804 5.10536 12.7348 5 13 5C13.2652 5 13.5196 5.10536 13.7071 5.29289C13.8946 5.48043 14 5.73478 14 6ZM29.7075 15.2925L25.7075 11.2925C25.5199 11.1049 25.2654 10.9994 25 10.9994C24.7346 10.9994 24.4801 11.1049 24.2925 11.2925C24.1049 11.4801 23.9994 11.7346 23.9994 12C23.9994 12.2654 24.1049 12.5199 24.2925 12.7075L26.5862 15H20V6C20 5.73478 19.8946 5.48043 19.7071 5.29289C19.5196 5.10536 19.2652 5 19 5C18.7348 5 18.4804 5.10536 18.2929 5.29289C18.1053 5.48043 18 5.73478 18 6V26C18 26.2652 18.1053 26.5196 18.2929 26.7071C18.4804 26.8946 18.7348 27 19 27C19.2652 27 19.5196 26.8946 19.7071 26.7071C19.8946 26.5196 20 26.2652 20 26V17H26.5862L24.2925 19.2925C24.1049 19.4801 23.9994 19.7346 23.9994 20C23.9994 20.2654 24.1049 20.5199 24.2925 20.7075C24.4801 20.8951 24.7346 21.0006 25 21.0006C25.2654 21.0006 25.5199 20.8951 25.7075 20.7075L29.7075 16.7075C29.8005 16.6146 29.8742 16.5043 29.9246 16.3829C29.9749 16.2615 30.0008 16.1314 30.0008 16C30.0008 15.8686 29.9749 15.7385 29.9246 15.6171C29.8742 15.4957 29.8005 15.3854 29.7075 15.2925Z" fill="#343330"/>
</svg>
