<svg width="32" height="32" viewBox="0 0 32 32" fill="none" xmlns="http://www.w3.org/2000/svg">
<path d="M25 10C25.2652 10 25.5196 9.89464 25.7071 9.70711C25.8946 9.51957 26 9.26522 26 9C25.998 7.14409 25.2599 5.36477 23.9476 4.05245C22.6352 2.74012 20.8559 2.00199 19 2H10C9.46957 2 8.96086 2.21071 8.58579 2.58579C8.21071 2.96086 8 3.46957 8 4V10C8 10.7956 7.68393 11.5587 7.12132 12.1213C6.55871 12.6839 5.79565 13 5 13C4.73478 13 4.48043 13.1054 4.29289 13.2929C4.10536 13.4804 4 13.7348 4 14C4 14.2652 4.10536 14.5196 4.29289 14.7071C4.48043 14.8946 4.73478 15 5 15C6.32608 15 7.59785 14.4732 8.53553 13.5355C9.47322 12.5979 10 11.3261 10 10H14V13.0775C14.0013 13.5275 13.9007 13.972 13.7059 14.3777C13.5111 14.7833 13.227 15.1397 12.875 15.42L10.875 17.0187C10.2884 17.486 9.81502 18.0798 9.49032 18.7558C9.16562 19.4319 8.998 20.1726 9 20.9225V28C9 28.5304 9.21071 29.0391 9.58579 29.4142C9.96086 29.7893 10.4696 30 11 30H24C24.5304 30 25.0391 29.7893 25.4142 29.4142C25.7893 29.0391 26 28.5304 26 28V26.4338C26.0017 20.6838 24.539 15.0282 21.75 10H25ZM10 4H19C20.1522 4.00164 21.2685 4.40035 22.1611 5.12894C23.0536 5.85754 23.6677 6.8715 23.9 8H10V4ZM24 26.4338V28H11V20.9225C10.9987 20.4725 11.0993 20.028 11.2941 19.6223C11.4889 19.2167 11.773 18.8603 12.125 18.58L14.125 16.9813C14.7116 16.514 15.185 15.9202 15.5097 15.2442C15.8344 14.5681 16.002 13.8274 16 13.0775V10H19.44C22.4253 14.9617 24.0018 20.6432 24 26.4338Z" fill="#343330"/>
</svg>
