<svg width="32" height="32" viewBox="0 0 32 32" fill="none" xmlns="http://www.w3.org/2000/svg">
<path d="M28.8638 15.5C28.9958 15.7292 29.0317 16.0014 28.9635 16.257C28.8954 16.5126 28.7287 16.7308 28.5 16.8638L16.5 23.8638C16.3471 23.9529 16.1733 23.9999 15.9963 23.9999C15.8192 23.9999 15.6454 23.9529 15.4925 23.8638L3.4925 16.8638C3.26712 16.7283 3.10415 16.5096 3.03888 16.2548C2.9736 16.0001 3.01128 15.73 3.14375 15.5028C3.27622 15.2757 3.49282 15.1099 3.74666 15.0413C4.0005 14.9726 4.27114 15.0068 4.5 15.1363L16 21.8425L27.5 15.1363C27.7292 15.0042 28.0014 14.9683 28.257 15.0365C28.5126 15.1047 28.7308 15.2713 28.8638 15.5ZM3 10C3.0004 9.82486 3.04679 9.65288 3.13454 9.5013C3.22229 9.34971 3.34831 9.22383 3.5 9.13626L15.5 2.13626C15.6529 2.04709 15.8267 2.00011 16.0037 2.00011C16.1808 2.00011 16.3546 2.04709 16.5075 2.13626L28.5075 9.13626C28.6585 9.22433 28.7837 9.35042 28.8707 9.50197C28.9578 9.65352 29.0036 9.82524 29.0036 10C29.0036 10.1748 28.9578 10.3465 28.8707 10.498C28.7837 10.6496 28.6585 10.7757 28.5075 10.8638L16.5075 17.8638C16.3546 17.9529 16.1808 17.9999 16.0037 17.9999C15.8267 17.9999 15.6529 17.9529 15.5 17.8638L3.5 10.8638C3.34831 10.7762 3.22229 10.6503 3.13454 10.4987C3.04679 10.3471 3.0004 10.1752 3 10ZM5.985 10L16 15.8425L26.015 10L16 4.15751L5.985 10ZM29 24H27V22C27 21.7348 26.8946 21.4804 26.7071 21.2929C26.5196 21.1054 26.2652 21 26 21C25.7348 21 25.4804 21.1054 25.2929 21.2929C25.1054 21.4804 25 21.7348 25 22V24H23C22.7348 24 22.4804 24.1054 22.2929 24.2929C22.1054 24.4804 22 24.7348 22 25C22 25.2652 22.1054 25.5196 22.2929 25.7071C22.4804 25.8947 22.7348 26 23 26H25V28C25 28.2652 25.1054 28.5196 25.2929 28.7071C25.4804 28.8947 25.7348 29 26 29C26.2652 29 26.5196 28.8947 26.7071 28.7071C26.8946 28.5196 27 28.2652 27 28V26H29C29.2652 26 29.5196 25.8947 29.7071 25.7071C29.8946 25.5196 30 25.2652 30 25C30 24.7348 29.8946 24.4804 29.7071 24.2929C29.5196 24.1054 29.2652 24 29 24ZM17.5 26.97L16 27.845L4.5 21.1363C4.27231 21.0229 4.00997 21.0005 3.76638 21.0738C3.5228 21.147 3.31627 21.3103 3.18884 21.5305C3.06141 21.7506 3.02266 22.011 3.08046 22.2587C3.13827 22.5064 3.28829 22.7228 3.5 22.8638L15.5 29.8638C15.6529 29.9529 15.8267 29.9999 16.0037 29.9999C16.1808 29.9999 16.3546 29.9529 16.5075 29.8638L18.5075 28.6975C18.6228 28.6323 18.7239 28.5448 18.8051 28.4402C18.8863 28.3356 18.9459 28.2159 18.9804 28.0881C19.015 27.9602 19.0238 27.8268 19.0064 27.6955C18.9889 27.5643 18.9456 27.4378 18.8789 27.3234C18.8122 27.209 18.7234 27.109 18.6177 27.0292C18.5121 26.9494 18.3916 26.8913 18.2633 26.8585C18.135 26.8256 18.0015 26.8185 17.8705 26.8377C17.7394 26.8568 17.6135 26.9018 17.5 26.97Z" fill="#343330"/>
</svg>
