<svg width="32" height="32" viewBox="0 0 32 32" fill="none" xmlns="http://www.w3.org/2000/svg">
<path d="M1.5 13.875L15.5 21.875C15.6511 21.9614 15.8222 22.0068 15.9963 22.0068C16.1703 22.0068 16.3414 21.9614 16.4925 21.875L30.4925 13.875C30.6458 13.7876 30.7733 13.6612 30.8619 13.5086C30.9506 13.356 30.9973 13.1827 30.9973 13.0062C30.9973 12.8298 30.9506 12.6565 30.8619 12.5039C30.7733 12.3513 30.6458 12.2249 30.4925 12.1375L16.4925 4.1375C16.3414 4.05111 16.1703 4.00568 15.9963 4.00568C15.8222 4.00568 15.6511 4.05111 15.5 4.1375L1.5 12.1375C1.3467 12.2249 1.21925 12.3513 1.1306 12.5039C1.04195 12.6565 0.995255 12.8298 0.995255 13.0062C0.995255 13.1827 1.04195 13.356 1.1306 13.5086C1.21925 13.6612 1.3467 13.7876 1.5 13.875ZM16 6.15125L27.9838 13L16 19.8487L4.01625 13L16 6.15125ZM30.8675 17.5C30.9345 17.6142 30.9782 17.7406 30.996 17.8718C31.0137 18.003 31.0053 18.1364 30.9711 18.2643C30.9369 18.3922 30.8777 18.5121 30.7968 18.6169C30.7159 18.7217 30.615 18.8095 30.5 18.875L16.5 26.875C16.3489 26.9614 16.1778 27.0068 16.0038 27.0068C15.8297 27.0068 15.6586 26.9614 15.5075 26.875L1.5 18.875C1.38551 18.8093 1.28507 18.7218 1.20441 18.6173C1.12376 18.5128 1.06447 18.3935 1.02994 18.2661C0.99541 18.1387 0.986308 18.0057 1.00316 17.8748C1.02 17.7439 1.06247 17.6176 1.12813 17.5031C1.19379 17.3886 1.28136 17.2882 1.38584 17.2075C1.49032 17.1269 1.60966 17.0676 1.73705 17.0331C1.99433 16.9633 2.26877 16.9986 2.5 17.1312L16 24.8487L29.5 17.1312C29.614 17.0655 29.7398 17.0228 29.8702 17.0058C30.0007 16.9887 30.1332 16.9975 30.2603 17.0318C30.3873 17.0661 30.5064 17.125 30.6106 17.2054C30.7148 17.2857 30.8021 17.3858 30.8675 17.5Z" fill="#343330"/>
</svg>
