<svg width="32" height="32" viewBox="0 0 32 32" fill="none" xmlns="http://www.w3.org/2000/svg">
<path d="M27 19.0112V27C27 27.2652 26.8946 27.5196 26.7071 27.7071C26.5196 27.8946 26.2652 28 26 28H6C5.73478 28 5.48043 27.8946 5.29289 27.7071C5.10536 27.5196 5 27.2652 5 27V19.0112C5 18.746 5.10536 18.4917 5.29289 18.3041C5.48043 18.1166 5.73478 18.0112 6 18.0112C6.26522 18.0112 6.51957 18.1166 6.70711 18.3041C6.89464 18.4917 7 18.746 7 19.0112V26H25V19.0112C25 18.746 25.1054 18.4917 25.2929 18.3041C25.4804 18.1166 25.7348 18.0112 26 18.0112C26.2652 18.0112 26.5196 18.1166 26.7071 18.3041C26.8946 18.4917 27 18.746 27 19.0112ZM11 23.0112H21C21.2652 23.0112 21.5196 22.9059 21.7071 22.7183C21.8946 22.5308 22 22.2765 22 22.0112C22 21.746 21.8946 21.4917 21.7071 21.3041C21.5196 21.1166 21.2652 21.0112 21 21.0112H11C10.7348 21.0112 10.4804 21.1166 10.2929 21.3041C10.1054 21.4917 10 21.746 10 22.0112C10 22.2765 10.1054 22.5308 10.2929 22.7183C10.4804 22.9059 10.7348 23.0112 11 23.0112ZM11.61 16.3862L21.2687 18.9712C21.3535 18.9944 21.4409 19.0062 21.5287 19.0062C21.77 19.0043 22.0024 18.9153 22.1831 18.7555C22.3638 18.5958 22.4807 18.3761 22.5122 18.1369C22.5437 17.8977 22.4878 17.6553 22.3546 17.4541C22.2214 17.253 22.02 17.1068 21.7875 17.0425L12.125 14.4512C11.9945 14.403 11.8554 14.3826 11.7166 14.3912C11.5778 14.3998 11.4423 14.4373 11.3188 14.5012C11.1952 14.5652 11.0864 14.6542 10.9992 14.7626C10.9121 14.8709 10.8485 14.9963 10.8125 15.1307C10.7765 15.265 10.769 15.4054 10.7904 15.5429C10.8117 15.6803 10.8615 15.8118 10.9366 15.9289C11.0116 16.046 11.1103 16.1461 11.2262 16.223C11.3422 16.2998 11.4729 16.3516 11.61 16.375V16.3862ZM13.9163 10.145L22.5763 15.145C22.69 15.2107 22.8156 15.2533 22.9458 15.2704C23.076 15.2876 23.2084 15.2789 23.3352 15.2449C23.4621 15.2109 23.5811 15.1522 23.6852 15.0722C23.7894 14.9922 23.8769 14.8925 23.9425 14.7787C24.0744 14.5492 24.1099 14.2768 24.0412 14.0212C23.9726 13.7655 23.8054 13.5475 23.5763 13.415L14.9163 8.40874C14.8024 8.33638 14.6752 8.2878 14.5421 8.26591C14.409 8.24402 14.2729 8.24928 14.1419 8.28137C14.0109 8.31345 13.8877 8.37171 13.7798 8.45262C13.6719 8.53354 13.5815 8.63544 13.514 8.75221C13.4465 8.86897 13.4033 8.99819 13.3871 9.13207C13.3708 9.26595 13.3818 9.40175 13.4194 9.53127C13.457 9.6608 13.5203 9.78139 13.6057 9.88578C13.6911 9.99018 13.7967 10.0762 13.9163 10.1387V10.145ZM24.8325 11.77C24.9254 11.8631 25.0357 11.9369 25.1572 11.9874C25.2787 12.0378 25.4089 12.0638 25.5404 12.0639C25.6719 12.064 25.8021 12.0383 25.9237 11.988C26.0452 11.9378 26.1557 11.8641 26.2488 11.7712C26.3418 11.6783 26.4157 11.568 26.4661 11.4465C26.5166 11.3251 26.5426 11.1949 26.5427 11.0634C26.5428 10.9319 26.517 10.8016 26.4668 10.6801C26.4166 10.5585 26.3429 10.4481 26.25 10.355L19.1787 3.29249C18.9898 3.1127 18.7382 3.01381 18.4774 3.01692C18.2167 3.02002 17.9674 3.12487 17.7828 3.30911C17.5983 3.49335 17.493 3.74241 17.4894 4.00317C17.4859 4.26393 17.5843 4.51577 17.7638 4.70499L24.8325 11.77Z" fill="#343330"/>
</svg>
