<svg width="32" height="32" viewBox="0 0 32 32" fill="none" xmlns="http://www.w3.org/2000/svg">
<path d="M18 9C17.7348 9 17.4804 9.10536 17.2929 9.29289C17.1054 9.48043 17 9.73478 17 10V22C17 22.2652 17.1054 22.5196 17.2929 22.7071C17.4804 22.8946 17.7348 23 18 23H21C22.8565 23 24.637 22.2625 25.9497 20.9497C27.2625 19.637 28 17.8565 28 16C28 14.1435 27.2625 12.363 25.9497 11.0503C24.637 9.7375 22.8565 9 21 9H18ZM26 16C26 17.3261 25.4732 18.5979 24.5355 19.5355C23.5979 20.4732 22.3261 21 21 21H19V11H21C22.3261 11 23.5979 11.5268 24.5355 12.4645C25.4732 13.4021 26 14.6739 26 16ZM3 6C3 5.73478 3.10536 5.48043 3.29289 5.29289C3.48043 5.10536 3.73478 5 4 5H28C28.2652 5 28.5196 5.10536 28.7071 5.29289C28.8946 5.48043 29 5.73478 29 6C29 6.26522 28.8946 6.51957 28.7071 6.70711C28.5196 6.89464 28.2652 7 28 7H4C3.73478 7 3.48043 6.89464 3.29289 6.70711C3.10536 6.51957 3 6.26522 3 6ZM29 26C29 26.2652 28.8946 26.5196 28.7071 26.7071C28.5196 26.8946 28.2652 27 28 27H4C3.73478 27 3.48043 26.8946 3.29289 26.7071C3.10536 26.5196 3 26.2652 3 26C3 25.7348 3.10536 25.4804 3.29289 25.2929C3.48043 25.1054 3.73478 25 4 25H28C28.2652 25 28.5196 25.1054 28.7071 25.2929C28.8946 25.4804 29 25.7348 29 26ZM13 19C13 17.815 11.9237 17.375 9.64 16.7175C7.67125 16.15 5.2225 15.4438 5.2225 13C5.2225 10.72 7.27625 9 10 9C11.965 9 13.6475 9.9125 14.39 11.375C14.4541 11.4926 14.4939 11.6218 14.5071 11.755C14.5202 11.8883 14.5065 12.0228 14.4667 12.1507C14.4269 12.2785 14.3619 12.3971 14.2754 12.4993C14.189 12.6015 14.0828 12.6853 13.9634 12.7458C13.8439 12.8062 13.7135 12.8421 13.5799 12.8512C13.4463 12.8603 13.3123 12.8425 13.1857 12.7988C13.0592 12.7551 12.9426 12.6865 12.8431 12.5969C12.7436 12.5074 12.663 12.3988 12.6062 12.2775C12.205 11.4913 11.2063 11 10 11C8.41625 11 7.2225 11.86 7.2225 13C7.2225 13.875 8.3475 14.2625 10.1938 14.795C12.2225 15.375 15 16.1812 15 19C15 21.205 12.7575 23 10 23C7.2425 23 5 21.205 5 19C5 18.7348 5.10536 18.4804 5.29289 18.2929C5.48043 18.1054 5.73478 18 6 18C6.26522 18 6.51957 18.1054 6.70711 18.2929C6.89464 18.4804 7 18.7348 7 19C7 20.0837 8.375 21 10 21C11.625 21 13 20.0837 13 19Z" fill="#343330"/>
</svg>
