<svg width="32" height="32" viewBox="0 0 32 32" fill="none" xmlns="http://www.w3.org/2000/svg">
<path d="M28.6876 14.125L20.7576 11.2425L17.8751 3.31251C17.733 2.92976 17.4772 2.59965 17.142 2.36654C16.8068 2.13343 16.4083 2.00848 16.0001 2.00848C15.5918 2.00848 15.1933 2.13343 14.8581 2.36654C14.523 2.59965 14.2671 2.92976 14.1251 3.31251L11.2426 11.2425L3.31257 14.125C2.92982 14.2671 2.59971 14.5229 2.3666 14.8581C2.13349 15.1933 2.00854 15.5917 2.00854 16C2.00854 16.4083 2.13349 16.8068 2.3666 17.142C2.59971 17.4771 2.92982 17.7329 3.31257 17.875L11.2426 20.7588L14.1251 28.6875C14.2671 29.0703 14.523 29.4004 14.8581 29.6335C15.1933 29.8666 15.5918 29.9915 16.0001 29.9915C16.4083 29.9915 16.8068 29.8666 17.142 29.6335C17.4772 29.4004 17.733 29.0703 17.8751 28.6875L20.7588 20.7575L28.6876 17.875C29.0703 17.7329 29.4004 17.4771 29.6335 17.142C29.8667 16.8068 29.9916 16.4083 29.9916 16C29.9916 15.5917 29.8667 15.1933 29.6335 14.8581C29.4004 14.5229 29.0703 14.2671 28.6876 14.125ZM19.6351 19.0375C19.4979 19.0875 19.3733 19.1668 19.2701 19.2701C19.1669 19.3733 19.0875 19.4978 19.0376 19.635L16.0001 27.9875L12.9626 19.635C12.9126 19.4978 12.8333 19.3733 12.73 19.2701C12.6268 19.1668 12.5022 19.0875 12.3651 19.0375L4.01257 16L12.3651 12.9625C12.5022 12.9126 12.6268 12.8332 12.73 12.73C12.8333 12.6268 12.9126 12.5022 12.9626 12.365L16.0001 4.01251L19.0376 12.365C19.0875 12.5022 19.1669 12.6268 19.2701 12.73C19.3733 12.8332 19.4979 12.9126 19.6351 12.9625L27.9876 16L19.6351 19.0375Z" fill="#343330"/>
</svg>
