<svg width="32" height="32" viewBox="0 0 32 32" fill="none" xmlns="http://www.w3.org/2000/svg">
<path d="M29.2863 14.3562L28.6538 14.9025C28.4529 15.0757 28.1914 15.162 27.9269 15.1424C27.6623 15.1229 27.4164 14.999 27.2432 14.7981C27.07 14.5972 26.9836 14.3357 27.0032 14.0712C27.0228 13.8066 27.1466 13.5607 27.3475 13.3875L27.98 12.8412C27.995 12.8287 28.0088 12.8175 27.9963 12.7787C27.9838 12.74 27.9738 12.745 27.9538 12.7425L26.92 12.6587C26.7862 12.6521 26.6551 12.6187 26.5345 12.5604C26.4139 12.5022 26.3062 12.4203 26.2178 12.3196C26.1294 12.2189 26.0622 12.1015 26.0201 11.9743C25.978 11.8471 25.9618 11.7128 25.9726 11.5793C25.9834 11.4458 26.021 11.3158 26.083 11.197C26.145 11.0783 26.2302 10.9732 26.3337 10.888C26.4371 10.8029 26.5565 10.7393 26.685 10.7012C26.8134 10.6631 26.9482 10.6512 27.0813 10.6662L28.115 10.7487C28.5186 10.7829 28.9031 10.9353 29.2203 11.187C29.5376 11.4387 29.7735 11.7784 29.8986 12.1635C30.0236 12.5487 30.0323 12.9622 29.9233 13.3523C29.8144 13.7423 29.5928 14.0916 29.2863 14.3562ZM21.5725 19.08L22.0825 21.2325C22.1343 21.4516 22.2585 21.6467 22.435 21.7865C22.6115 21.9262 22.8299 22.0023 23.055 22.0025C23.1329 22.0025 23.2106 21.9933 23.2863 21.975C23.4141 21.9447 23.5347 21.8895 23.6412 21.8127C23.7476 21.7358 23.8379 21.6387 23.9069 21.5269C23.9758 21.4151 24.0221 21.2908 24.043 21.1612C24.0639 21.0315 24.0591 20.899 24.0288 20.7712L23.6538 19.21L24.6538 18.3525C24.8547 18.1793 24.9786 17.9333 24.9981 17.6688C25.0177 17.4042 24.9314 17.1428 24.7582 16.9419C24.6724 16.8424 24.5679 16.7608 24.4506 16.7017C24.3333 16.6426 24.2055 16.6072 24.0745 16.5975C23.8099 16.5779 23.5484 16.6643 23.3475 16.8375L21.8925 18.0875C21.7531 18.2075 21.6494 18.3636 21.5929 18.5387C21.5365 18.7138 21.5294 18.9011 21.5725 19.08ZM25.2138 25.7712C25.1526 25.5131 24.9914 25.2899 24.7657 25.1507C24.5399 25.0114 24.2681 24.9676 24.01 25.0287C23.752 25.0899 23.5287 25.2511 23.3895 25.4768C23.2502 25.7026 23.2064 25.9744 23.2675 26.2325L23.4325 26.93C23.4374 26.9408 23.4378 26.9531 23.4339 26.9642C23.4299 26.9754 23.4218 26.9846 23.4113 26.99C23.3888 27.0075 23.3825 27.0037 23.3638 26.99L22.5238 26.4737C22.2979 26.3348 22.026 26.2914 21.768 26.3529C21.51 26.4144 21.2871 26.5759 21.1482 26.8019C21.0093 27.0278 20.9658 27.2996 21.0273 27.5576C21.0889 27.8156 21.2504 28.0386 21.4763 28.1775L22.3163 28.6937C22.6618 28.9035 23.0617 29.0065 23.4655 28.9897C23.8694 28.9729 24.2593 28.8371 24.5862 28.5993C24.9131 28.3615 25.1624 28.0324 25.3028 27.6533C25.4431 27.2742 25.4683 26.8621 25.375 26.4687L25.2138 25.7712ZM21.92 12.2562L19.965 12.0975C19.7821 12.082 19.6069 12.0164 19.4587 11.9079C19.3105 11.7994 19.1951 11.6522 19.125 11.4825L17 6.34748V23.0787L17.9288 23.65C18.0407 23.7188 18.1379 23.8089 18.2149 23.9153C18.292 24.0216 18.3473 24.1421 18.3778 24.2698C18.4082 24.3976 18.4132 24.5301 18.3925 24.6597C18.3718 24.7894 18.3257 24.9137 18.2569 25.0256C18.1881 25.1375 18.098 25.2347 17.9916 25.3117C17.8853 25.3888 17.7648 25.4441 17.6371 25.4746C17.5093 25.505 17.3768 25.51 17.2472 25.4893C17.1175 25.4686 16.9932 25.4225 16.8813 25.3537L16 24.8112L9.68379 28.6962C9.33808 28.9063 8.93792 29.0095 8.53372 28.9926C8.12951 28.9758 7.73933 28.8397 7.4123 28.6015C7.08527 28.3634 6.83601 28.0338 6.69593 27.6543C6.55584 27.2747 6.53117 26.8622 6.62504 26.4687L8.34504 19.21L2.72004 14.3562C2.41417 14.0919 2.19295 13.7432 2.08402 13.3539C1.97509 12.9646 1.98328 12.5518 2.10756 12.1671C2.23184 11.7824 2.46671 11.4428 2.78283 11.1908C3.09895 10.9387 3.48231 10.7854 3.88504 10.75L11.26 10.155L14.105 3.26998C14.259 2.89475 14.5211 2.57379 14.858 2.3479C15.1949 2.12201 15.5913 2.0014 15.9969 2.0014C16.4025 2.0014 16.799 2.12201 17.1358 2.3479C17.4727 2.57379 17.7348 2.89475 17.8888 3.26998L20.7325 10.155L22.0775 10.2637C22.2089 10.2743 22.3368 10.3107 22.4541 10.3707C22.5714 10.4307 22.6757 10.5133 22.761 10.6136C22.8464 10.714 22.9112 10.8302 22.9517 10.9555C22.9921 11.0809 23.0075 11.213 22.9969 11.3444C22.9863 11.4757 22.95 11.6036 22.8899 11.7209C22.8299 11.8382 22.7474 11.9425 22.647 12.0278C22.5467 12.1132 22.4305 12.178 22.3051 12.2185C22.1797 12.2589 22.0476 12.2743 21.9163 12.2637L21.92 12.2562ZM15 23.0787V6.34748L12.875 11.4825C12.8047 11.6528 12.6887 11.8003 12.5398 11.9088C12.3909 12.0174 12.2149 12.0826 12.0313 12.0975L4.04129 12.7425C4.02254 12.7425 4.01129 12.7425 4.00004 12.7787C3.9943 12.7895 3.99279 12.802 3.99579 12.8138C3.9988 12.8256 4.00611 12.8358 4.01629 12.8425L10.1038 18.0925C10.2426 18.2121 10.3459 18.3677 10.4023 18.542C10.4588 18.7164 10.4662 18.9029 10.4238 19.0812L8.56379 26.9312C8.55898 26.942 8.5585 26.9543 8.56246 26.9655C8.56641 26.9766 8.57449 26.9859 8.58504 26.9912C8.60754 27.0087 8.61379 27.005 8.63254 26.9912L15 23.0787Z" fill="#343330"/>
</svg>
