<svg width="32" height="32" viewBox="0 0 32 32" fill="none" xmlns="http://www.w3.org/2000/svg">
<path d="M25.1512 16L28.8749 9.49999C28.9631 9.34731 29.0093 9.17404 29.0089 8.99773C29.0085 8.82143 28.9616 8.64836 28.8727 8.49608C28.7839 8.34379 28.6564 8.2177 28.5031 8.13057C28.3498 8.04345 28.1762 7.9984 27.9999 7.99999H20.5812L16.8749 1.49999C16.7875 1.34668 16.6611 1.21924 16.5086 1.13059C16.356 1.04194 16.1827 0.995239 16.0062 0.995239C15.8297 0.995239 15.6564 1.04194 15.5038 1.13059C15.3512 1.21924 15.2248 1.34668 15.1374 1.49999L11.4162 7.99999H3.99994C3.82417 7.99951 3.65138 8.04537 3.49898 8.13294C3.34659 8.22051 3.21996 8.34671 3.13187 8.49881C3.04378 8.65091 2.99733 8.82354 2.99721 8.99931C2.99709 9.17507 3.04331 9.34777 3.13119 9.49999L6.84619 16L3.13119 22.5C3.04303 22.6527 2.9968 22.8259 2.99719 23.0022C2.99759 23.1785 3.04458 23.3516 3.13341 23.5039C3.22225 23.6562 3.34976 23.7823 3.50304 23.8694C3.65631 23.9565 3.82989 24.0016 4.00619 24H11.4162L15.1312 30.5C15.2186 30.6533 15.345 30.7807 15.4976 30.8694C15.6502 30.958 15.8235 31.0047 15.9999 31.0047C16.1764 31.0047 16.3497 30.958 16.5023 30.8694C16.6549 30.7807 16.7813 30.6533 16.8687 30.5L20.5812 24H27.9999C28.1762 24.0016 28.3498 23.9565 28.5031 23.8694C28.6564 23.7823 28.7839 23.6562 28.8727 23.5039C28.9616 23.3516 29.0085 23.1785 29.0089 23.0022C29.0093 22.8259 28.9631 22.6527 28.8749 22.5L25.1512 16ZM26.2762 9.99999L23.9999 13.985L21.7237 9.99999H26.2762ZM22.8487 16L19.4212 22H12.5774L9.14994 16L12.5774 9.99999H19.4212L22.8487 16ZM15.9999 4.01499L18.2774 7.99999H13.7212L15.9999 4.01499ZM5.72244 9.99999H10.2737L7.99994 13.985L5.72244 9.99999ZM5.72244 21.99L7.99994 18.015L10.2737 22L5.72244 21.99ZM15.9999 27.985L13.7212 24H18.2774L15.9999 27.985ZM21.7237 22L23.9999 18.015L26.2762 22H21.7237Z" fill="#343330"/>
</svg>
