<svg width="32" height="32" viewBox="0 0 32 32" fill="none" xmlns="http://www.w3.org/2000/svg">
<path d="M19.455 24.91C17.8118 24.0727 16.4322 22.7974 15.4686 21.2249C14.505 19.6525 13.995 17.8442 13.995 16C13.995 14.1558 14.505 12.3475 15.4686 10.7751C16.4322 9.20263 17.8118 7.92727 19.455 7.09C19.6191 7.0062 19.7569 6.87868 19.8531 6.72151C19.9493 6.56435 20.0003 6.38365 20.0003 6.19937C20.0003 6.01509 19.9493 5.8344 19.8531 5.67723C19.7569 5.52007 19.6191 5.39255 19.455 5.30875C17.7674 4.44278 15.8968 3.99399 14 4C10.8174 4 7.76515 5.26428 5.51472 7.51472C3.26428 9.76515 2 12.8174 2 16C2 19.1826 3.26428 22.2348 5.51472 24.4853C7.76515 26.7357 10.8174 28 14 28C15.8968 28.006 17.7674 27.5572 19.455 26.6912C19.6191 26.6074 19.7569 26.4799 19.8531 26.3228C19.9493 26.1656 20.0003 25.9849 20.0003 25.8006C20.0003 25.6163 19.9493 25.4356 19.8531 25.2785C19.7569 25.1213 19.6191 24.9938 19.455 24.91ZM14 26C12.5688 25.9975 11.1547 25.6879 9.85347 25.0919C8.5522 24.496 7.39401 23.6277 6.45718 22.5456C5.52034 21.4636 4.82669 20.1931 4.42309 18.82C4.01949 17.4468 3.91535 16.003 4.11771 14.5862C4.32006 13.1693 4.8242 11.8124 5.59605 10.6071C6.36791 9.40183 7.38949 8.37629 8.59176 7.59977C9.79403 6.82326 11.149 6.31386 12.565 6.10602C13.9811 5.89818 15.4253 5.99672 16.8 6.395C15.3095 7.51381 14.0999 8.96413 13.2668 10.6312C12.4337 12.2983 12 14.1363 12 16C12 17.8636 12.4337 19.7017 13.2668 21.3688C14.0999 23.0359 15.3095 24.4862 16.8 25.605C15.8902 25.8689 14.9474 26.0019 14 26ZM31.3962 15.0812L28.0837 13.6525L27.795 9.9225C27.7794 9.72399 27.7048 9.53468 27.5809 9.37881C27.457 9.22294 27.2894 9.1076 27.0995 9.04759C26.9097 8.98757 26.7062 8.98559 26.5152 9.04192C26.3242 9.09825 26.1544 9.21031 26.0275 9.36375L23.7038 12.1775L20.24 11.3212C20.049 11.2742 19.8484 11.2846 19.6633 11.351C19.4782 11.4174 19.3168 11.537 19.1992 11.6947C19.0817 11.8524 19.0133 12.0412 19.0025 12.2376C18.9917 12.434 19.0391 12.6292 19.1388 12.7987L21.0225 16L19.1388 19.2012C19.0391 19.3708 18.9917 19.566 19.0025 19.7624C19.0133 19.9588 19.0817 20.1476 19.1992 20.3053C19.3168 20.463 19.4782 20.5826 19.6633 20.649C19.8484 20.7154 20.049 20.7258 20.24 20.6787L23.7038 19.8225L26.0275 22.6362C26.1544 22.7897 26.3242 22.9017 26.5152 22.9581C26.7062 23.0144 26.9097 23.0124 27.0995 22.9524C27.2894 22.8924 27.457 22.7771 27.5809 22.6212C27.7048 22.4653 27.7794 22.276 27.795 22.0775L28.0837 18.3475L31.3962 16.9187C31.5759 16.8415 31.729 16.7134 31.8365 16.5501C31.9441 16.3868 32.0014 16.1955 32.0014 16C32.0014 15.8045 31.9441 15.6132 31.8365 15.4499C31.729 15.2866 31.5759 15.1585 31.3962 15.0812ZM26.7362 16.75C26.5691 16.8223 26.4249 16.9389 26.3192 17.0871C26.2134 17.2354 26.1502 17.4097 26.1362 17.5912L25.9925 19.4525L24.845 18.0637C24.7512 17.95 24.6334 17.8584 24.5001 17.7955C24.3668 17.7327 24.2212 17.7 24.0737 17.7C23.9929 17.7003 23.9124 17.71 23.8337 17.7287L22.0688 18.1662L23.045 16.5075C23.1356 16.3537 23.1833 16.1785 23.1833 16C23.1833 15.8215 23.1356 15.6463 23.045 15.4925L22.0688 13.8337L23.8337 14.2712C24.0167 14.3164 24.2088 14.3089 24.3877 14.2496C24.5666 14.1903 24.7251 14.0817 24.845 13.9362L25.9925 12.5475L26.1362 14.4087C26.1502 14.5903 26.2134 14.7646 26.3192 14.9129C26.4249 15.0611 26.5691 15.1777 26.7362 15.25L28.4762 16L26.7362 16.75Z" fill="#343330"/>
</svg>
