<svg width="32" height="32" viewBox="0 0 32 32" fill="none" xmlns="http://www.w3.org/2000/svg">
<path d="M16 3C13.4288 3 10.9154 3.76244 8.77759 5.1909C6.63975 6.61935 4.97351 8.64968 3.98957 11.0251C3.00563 13.4006 2.74819 16.0144 3.2498 18.5362C3.75141 21.0579 4.98953 23.3743 6.80762 25.1924C8.6257 27.0105 10.9421 28.2486 13.4638 28.7502C15.9856 29.2518 18.5995 28.9944 20.9749 28.0104C23.3503 27.0265 25.3807 25.3603 26.8091 23.2224C28.2376 21.0846 29 18.5712 29 16C28.9964 12.5533 27.6256 9.24882 25.1884 6.81163C22.7512 4.37445 19.4467 3.00364 16 3ZM14.6738 23.24L22.4238 16.9212C22.9028 16.5174 23.2923 16.018 23.5672 15.455C23.842 14.892 23.9963 14.2777 24.0202 13.6516C24.044 13.0255 23.9368 12.4014 23.7054 11.8191C23.4741 11.2368 23.1237 10.7092 22.6767 10.2702C22.2297 9.83116 21.6959 9.4903 21.1096 9.26944C20.5233 9.04859 19.8973 8.95262 19.2717 8.98766C18.6461 9.02271 18.0348 9.18801 17.4768 9.47297C16.9188 9.75793 16.4264 10.1563 16.0313 10.6425L10.6563 17.2337L5.66001 12.25C6.59891 9.66315 8.47335 7.52219 10.9134 6.24963C13.3535 4.97708 16.1819 4.66536 18.8405 5.37601C21.4992 6.08665 23.7949 7.76803 25.2746 10.0883C26.7543 12.4086 27.3105 15.1993 26.8335 17.9096C26.3565 20.6199 24.8809 23.053 22.6979 24.7287C20.5149 26.4043 17.7831 27.2009 15.0416 26.9611C12.3001 26.7213 9.74802 25.4626 7.88906 23.4334C6.0301 21.4043 4.99928 18.752 5.00001 16C5.00036 15.5033 5.03377 15.0072 5.10001 14.515L9.42126 18.8363C9.04122 19.5449 8.91679 20.3628 9.06889 21.1524C9.22098 21.942 9.64033 22.6551 10.2564 23.1719C10.8725 23.6887 11.6477 23.9776 12.4517 23.99C13.2558 24.0024 14.0395 23.7375 14.6713 23.24H14.6738ZM15.1975 14.8188C15.4148 15.5212 15.8001 16.16 16.3201 16.6799C16.84 17.1999 17.4788 17.5852 18.1813 17.8025L15.8988 19.6637C15.7448 19.0441 15.4248 18.4781 14.9733 18.0267C14.5219 17.5752 13.9559 17.2553 13.3363 17.1012L15.1975 14.8188ZM19.5 16C19.0056 16 18.5222 15.8534 18.1111 15.5787C17.7 15.304 17.3795 14.9135 17.1903 14.4567C17.0011 13.9999 16.9516 13.4972 17.048 13.0123C17.1445 12.5273 17.3826 12.0819 17.7322 11.7322C18.0819 11.3826 18.5273 11.1445 19.0123 11.048C19.4972 10.9516 19.9999 11.0011 20.4567 11.1903C20.9135 11.3795 21.304 11.7 21.5787 12.1111C21.8534 12.5222 22 13.0055 22 13.5C22 14.163 21.7366 14.7989 21.2678 15.2678C20.7989 15.7366 20.163 16 19.5 16ZM12.5 19C12.7967 19 13.0867 19.088 13.3334 19.2528C13.58 19.4176 13.7723 19.6519 13.8858 19.926C13.9994 20.2001 14.0291 20.5017 13.9712 20.7926C13.9133 21.0836 13.7704 21.3509 13.5607 21.5607C13.3509 21.7704 13.0836 21.9133 12.7926 21.9712C12.5017 22.0291 12.2001 21.9993 11.926 21.8858C11.6519 21.7723 11.4176 21.58 11.2528 21.3334C11.088 21.0867 11 20.7967 11 20.5C11 20.1022 11.158 19.7206 11.4393 19.4393C11.7206 19.158 12.1022 19 12.5 19Z" fill="#343330"/>
</svg>
