<svg width="32" height="32" viewBox="0 0 32 32" fill="none" xmlns="http://www.w3.org/2000/svg">
<path d="M9.50001 19C8.60999 19 7.73996 19.2639 6.99994 19.7584C6.25992 20.2529 5.68314 20.9557 5.34255 21.7779C5.00195 22.6002 4.91284 23.505 5.08647 24.3779C5.26011 25.2508 5.68869 26.0526 6.31803 26.682C6.94736 27.3113 7.74919 27.7399 8.6221 27.9135C9.49501 28.0872 10.3998 27.9981 11.2221 27.6575C12.0443 27.3169 12.7472 26.7401 13.2416 26.0001C13.7361 25.26 14 24.39 14 23.5C14 22.3065 13.5259 21.1619 12.682 20.318C11.8381 19.4741 10.6935 19 9.50001 19ZM9.50001 26C9.00555 26 8.5222 25.8534 8.11108 25.5787C7.69996 25.304 7.37953 24.9135 7.19031 24.4567C7.00109 23.9999 6.95158 23.4972 7.04804 23.0123C7.14451 22.5273 7.38261 22.0819 7.73224 21.7322C8.08187 21.3826 8.52733 21.1445 9.01228 21.048C9.49723 20.9516 9.9999 21.0011 10.4567 21.1903C10.9135 21.3795 11.304 21.7 11.5787 22.1111C11.8534 22.5222 12 23.0055 12 23.5C12 23.8283 11.9353 24.1534 11.8097 24.4567C11.6841 24.76 11.4999 25.0356 11.2678 25.2678C11.0356 25.4999 10.76 25.6841 10.4567 25.8097C10.1534 25.9353 9.82831 26 9.50001 26ZM5.29251 13.2925L7.08626 11.5L5.29251 9.7075C5.10487 9.51986 4.99945 9.26536 4.99945 9C4.99945 8.73464 5.10487 8.48014 5.29251 8.2925C5.48015 8.10486 5.73464 7.99944 6.00001 7.99944C6.26537 7.99944 6.51987 8.10486 6.70751 8.2925L8.50001 10.0863L10.2925 8.2925C10.4801 8.10486 10.7346 7.99944 11 7.99944C11.2654 7.99944 11.5199 8.10486 11.7075 8.2925C11.8951 8.48014 12.0006 8.73464 12.0006 9C12.0006 9.26536 11.8951 9.51986 11.7075 9.7075L9.91376 11.5L11.7075 13.2925C11.8951 13.4801 12.0006 13.7346 12.0006 14C12.0006 14.2654 11.8951 14.5199 11.7075 14.7075C11.5199 14.8951 11.2654 15.0006 11 15.0006C10.7346 15.0006 10.4801 14.8951 10.2925 14.7075L8.50001 12.9137L6.70751 14.7075C6.51987 14.8951 6.26537 15.0006 6.00001 15.0006C5.73464 15.0006 5.48015 14.8951 5.29251 14.7075C5.10487 14.5199 4.99945 14.2654 4.99945 14C4.99945 13.7346 5.10487 13.4801 5.29251 13.2925ZM28.7075 25.2925C28.8004 25.3854 28.8741 25.4957 28.9244 25.6171C28.9747 25.7385 29.0006 25.8686 29.0006 26C29.0006 26.1314 28.9747 26.2615 28.9244 26.3829C28.8741 26.5043 28.8004 26.6146 28.7075 26.7075C28.6146 26.8004 28.5043 26.8741 28.3829 26.9244C28.2615 26.9747 28.1314 27.0006 28 27.0006C27.8686 27.0006 27.7385 26.9747 27.6171 26.9244C27.4957 26.8741 27.3854 26.8004 27.2925 26.7075L25.5 24.9137L23.7075 26.7075C23.5199 26.8951 23.2654 27.0006 23 27.0006C22.7346 27.0006 22.4801 26.8951 22.2925 26.7075C22.1049 26.5199 21.9995 26.2654 21.9995 26C21.9995 25.7346 22.1049 25.4801 22.2925 25.2925L24.0863 23.5L22.2925 21.7075C22.1049 21.5199 21.9995 21.2654 21.9995 21C21.9995 20.7346 22.1049 20.4801 22.2925 20.2925C22.4801 20.1049 22.7346 19.9994 23 19.9994C23.2654 19.9994 23.5199 20.1049 23.7075 20.2925L25.5 22.0863L27.2925 20.2925C27.4801 20.1049 27.7346 19.9994 28 19.9994C28.2654 19.9994 28.5199 20.1049 28.7075 20.2925C28.8951 20.4801 29.0006 20.7346 29.0006 21C29.0006 21.2654 28.8951 21.5199 28.7075 21.7075L26.9138 23.5L28.7075 25.2925ZM23.0588 14.1038C22.2863 16.895 19.8938 19.3075 17.2425 19.97C17.1632 19.9897 17.0818 19.9998 17 20C16.7562 19.9995 16.5209 19.91 16.3384 19.7482C16.156 19.5865 16.0389 19.3636 16.0093 19.1216C15.9796 18.8795 16.0394 18.635 16.1775 18.434C16.3155 18.2329 16.5222 18.0893 16.7588 18.03C18.7125 17.5413 20.5525 15.6663 21.1338 13.57C21.5325 12.1325 21.5363 9.945 19.295 7.7075L19 7.41375V10C19 10.2652 18.8947 10.5196 18.7071 10.7071C18.5196 10.8946 18.2652 11 18 11C17.7348 11 17.4804 10.8946 17.2929 10.7071C17.1054 10.5196 17 10.2652 17 10V5C17 4.73478 17.1054 4.48043 17.2929 4.29289C17.4804 4.10536 17.7348 4 18 4H23C23.2652 4 23.5196 4.10536 23.7071 4.29289C23.8947 4.48043 24 4.73478 24 5C24 5.26522 23.8947 5.51957 23.7071 5.70711C23.5196 5.89464 23.2652 6 23 6H20.4138L20.7075 6.2925C22.9875 8.57375 23.8225 11.3475 23.0588 14.1038Z" fill="#343330"/>
</svg>
