<svg width="32" height="32" viewBox="0 0 32 32" fill="none" xmlns="http://www.w3.org/2000/svg">
<path d="M26 26C26 26.2652 25.8946 26.5196 25.7071 26.7071C25.5196 26.8946 25.2652 27 25 27H6C5.73478 27 5.48043 26.8946 5.29289 26.7071C5.10536 26.5196 5 26.2652 5 26C5 25.7348 5.10536 25.4804 5.29289 25.2929C5.48043 25.1054 5.73478 25 6 25H25C25.2652 25 25.5196 25.1054 25.7071 25.2929C25.8946 25.4804 26 25.7348 26 26ZM25 20H13C11.4087 20 9.88258 19.3679 8.75736 18.2426C7.63214 17.1174 7 15.5913 7 14C7 12.4087 7.63214 10.8826 8.75736 9.75736C9.88258 8.63214 11.4087 8 13 8H25C25.2652 8 25.5196 7.89464 25.7071 7.70711C25.8946 7.51957 26 7.26522 26 7C26 6.73478 25.8946 6.48043 25.7071 6.29289C25.5196 6.10536 25.2652 6 25 6H13C10.8783 6 8.84344 6.84285 7.34315 8.34315C5.84285 9.84344 5 11.8783 5 14C5 16.1217 5.84285 18.1566 7.34315 19.6569C8.84344 21.1571 10.8783 22 13 22H25C25.2652 22 25.5196 21.8946 25.7071 21.7071C25.8946 21.5196 26 21.2652 26 21C26 20.7348 25.8946 20.4804 25.7071 20.2929C25.5196 20.1054 25.2652 20 25 20Z" fill="#343330"/>
</svg>
