<svg width="32" height="32" viewBox="0 0 32 32" fill="none" xmlns="http://www.w3.org/2000/svg">
<path d="M26 26C26 26.2652 25.8946 26.5196 25.7071 26.7071C25.5196 26.8946 25.2652 27 25 27H16C13.0826 27 10.2847 25.8411 8.22183 23.7782C6.15893 21.7153 5 18.9174 5 16C5 13.0826 6.15893 10.2847 8.22183 8.22183C10.2847 6.15893 13.0826 5 16 5H25C25.2652 5 25.5196 5.10536 25.7071 5.29289C25.8946 5.48043 26 5.73478 26 6C26 6.26522 25.8946 6.51957 25.7071 6.70711C25.5196 6.89464 25.2652 7 25 7H16C13.6131 7 11.3239 7.94821 9.63604 9.63604C7.94821 11.3239 7 13.6131 7 16C7 18.3869 7.94821 20.6761 9.63604 22.364C11.3239 24.0518 13.6131 25 16 25H25C25.2652 25 25.5196 25.1054 25.7071 25.2929C25.8946 25.4804 26 25.7348 26 26Z" fill="#343330"/>
</svg>
