<svg width="32" height="32" viewBox="0 0 32 32" fill="none" xmlns="http://www.w3.org/2000/svg">
<path d="M21.8288 10.1687C21.4957 8.37801 20.6798 6.71224 19.4693 5.35127C18.2587 3.99029 16.6994 2.9858 14.9598 2.44622C13.2201 1.90663 11.366 1.85246 9.59779 2.28953C7.82955 2.7266 6.21427 3.63833 4.92631 4.92629C3.63835 6.21426 2.72662 7.82953 2.28955 9.59777C1.85247 11.366 1.90665 13.22 2.44623 14.9597C2.98582 16.6994 3.99031 18.2587 5.35128 19.4693C6.71226 20.6798 8.37802 21.4957 10.1688 21.8287C10.5018 23.6195 11.3177 25.2853 12.5282 26.6462C13.7388 28.0072 15.2981 29.0117 17.0378 29.5513C18.7775 30.0909 20.6315 30.145 22.3997 29.708C24.168 29.2709 25.7833 28.3592 27.0712 27.0712C28.3592 25.7832 29.2709 24.168 29.708 22.3997C30.1451 20.6315 30.0909 18.7775 29.5513 17.0378C29.0117 15.2981 28.0072 13.7388 26.6462 12.5282C25.2853 11.3177 23.6195 10.5018 21.8288 10.1687ZM28 20C28 20.19 27.9913 20.375 27.9775 20.5637L21.7275 14.3137C21.8898 13.6372 21.9811 12.9455 22 12.25C23.72 12.6899 25.244 13.6909 26.3308 15.0947C27.4176 16.4985 28.005 18.2247 28 20ZM18.325 19.7387L24.9013 26.3162C24.2854 26.7951 23.6027 27.1813 22.875 27.4625L16.3925 20.98C17.0819 20.6414 17.7303 20.2249 18.325 19.7387ZM19.7388 18.325C20.2248 17.7311 20.6412 17.0836 20.98 16.395L27.4625 22.875C27.1811 23.6018 26.7949 24.2836 26.3163 24.8987L19.7388 18.325ZM4.00001 12C4.00001 10.4177 4.46921 8.87103 5.34826 7.55544C6.22731 6.23984 7.47674 5.21446 8.93855 4.60896C10.4004 4.00346 12.0089 3.84503 13.5607 4.15372C15.1126 4.4624 16.538 5.22432 17.6569 6.34314C18.7757 7.46196 19.5376 8.88743 19.8463 10.4393C20.155 11.9911 19.9966 13.5997 19.3911 15.0615C18.7855 16.5233 17.7602 17.7727 16.4446 18.6518C15.129 19.5308 13.5823 20 12 20C9.87899 19.9977 7.84551 19.1541 6.34572 17.6543C4.84593 16.1545 4.00233 14.121 4.00001 12ZM12.25 22C12.9449 21.983 13.6361 21.8938 14.3125 21.7337L20.5625 27.9837C20.3763 27.9975 20.1875 28.0062 19.9988 28.0062C18.2229 28.0106 16.4963 27.4222 15.0926 26.3342C13.689 25.2462 12.6886 23.7209 12.25 22Z" fill="#343330"/>
</svg>
