<svg width="32" height="32" viewBox="0 0 32 32" fill="none" xmlns="http://www.w3.org/2000/svg">
<path d="M6 17C6 16.7348 6.10536 16.4804 6.29289 16.2929C6.48043 16.1053 6.73478 16 7 16H9C9.26522 16 9.51957 16.1053 9.70711 16.2929C9.89464 16.4804 10 16.7348 10 17C10 17.2652 9.89464 17.5196 9.70711 17.7071C9.51957 17.8946 9.26522 18 9 18H7C6.73478 18 6.48043 17.8946 6.29289 17.7071C6.10536 17.5196 6 17.2652 6 17ZM26.74 26.3275C26.8302 26.4243 26.9002 26.5381 26.9461 26.6623C26.9919 26.7864 27.0127 26.9184 27.0072 27.0506C27.0017 27.1828 26.97 27.3126 26.9139 27.4325C26.8578 27.5524 26.7785 27.6599 26.6806 27.7489C26.5827 27.8379 26.4681 27.9066 26.3434 27.951C26.2187 27.9953 26.0865 28.0145 25.9543 28.0074C25.8222 28.0003 25.6928 27.967 25.5736 27.9096C25.4544 27.8521 25.3478 27.7715 25.26 27.6725L23.74 26H4C3.46957 26 2.96086 25.7893 2.58579 25.4142C2.21071 25.0391 2 24.5304 2 24V7.99999C2 7.46956 2.21071 6.96085 2.58579 6.58578C2.96086 6.21071 3.46957 5.99999 4 5.99999H5.5575L5.26 5.67249C5.16983 5.57563 5.09979 5.46184 5.05392 5.33772C5.00806 5.21359 4.98728 5.08159 4.99281 4.94938C4.99833 4.81716 5.03004 4.68736 5.0861 4.56749C5.14216 4.44762 5.22146 4.34007 5.31939 4.25107C5.41732 4.16207 5.53194 4.09339 5.65661 4.04902C5.78128 4.00464 5.91352 3.98545 6.04566 3.99256C6.1778 3.99967 6.30721 4.03294 6.4264 4.09043C6.54559 4.14792 6.65218 4.2285 6.74 4.32749L26.74 26.3275ZM21.9212 24L20.1025 22H7C6.73478 22 6.48043 21.8946 6.29289 21.7071C6.10536 21.5196 6 21.2652 6 21C6 20.7348 6.10536 20.4804 6.29289 20.2929C6.48043 20.1053 6.73478 20 7 20H18.285L16.4662 18H13C12.7348 18 12.4804 17.8946 12.2929 17.7071C12.1054 17.5196 12 17.2652 12 17C12 16.7348 12.1054 16.4804 12.2929 16.2929C12.4804 16.1053 12.7348 16 13 16H14.6488L7.375 7.99999H4V24H21.9212ZM25 18C25.2652 18 25.5196 17.8946 25.7071 17.7071C25.8946 17.5196 26 17.2652 26 17C26 16.7348 25.8946 16.4804 25.7071 16.2929C25.5196 16.1053 25.2652 16 25 16H22.315C22.0498 16 21.7954 16.1053 21.6079 16.2929C21.4204 16.4804 21.315 16.7348 21.315 17C21.315 17.2652 21.4204 17.5196 21.6079 17.7071C21.7954 17.8946 22.0498 18 22.315 18H25ZM28 5.99999H13.2238C12.9585 5.99999 12.7042 6.10535 12.5166 6.29289C12.3291 6.48042 12.2238 6.73478 12.2238 6.99999C12.2238 7.26521 12.3291 7.51956 12.5166 7.7071C12.7042 7.89464 12.9585 7.99999 13.2238 7.99999H28V24.3537C28 24.619 28.1054 24.8733 28.2929 25.0608C28.4804 25.2484 28.7348 25.3537 29 25.3537C29.2652 25.3537 29.5196 25.2484 29.7071 25.0608C29.8946 24.8733 30 24.619 30 24.3537V7.99999C30 7.46956 29.7893 6.96085 29.4142 6.58578C29.0391 6.21071 28.5304 5.99999 28 5.99999Z" fill="#343330"/>
</svg>
