<svg width="32" height="32" viewBox="0 0 32 32" fill="none" xmlns="http://www.w3.org/2000/svg">
<path d="M28 12V26C28 26.2652 27.8946 26.5196 27.7071 26.7071C27.5196 26.8946 27.2652 27 27 27C26.7348 27 26.4804 26.8946 26.2929 26.7071C26.1054 26.5196 26 26.2652 26 26V12C25.998 10.1441 25.2599 8.36477 23.9476 7.05245C22.6352 5.74012 20.8559 5.00199 19 5H13C11.1441 5.00199 9.36477 5.74012 8.05245 7.05245C6.74012 8.36477 6.00199 10.1441 6 12V26C6 26.2652 5.89464 26.5196 5.70711 26.7071C5.51957 26.8946 5.26522 27 5 27C4.73478 27 4.48043 26.8946 4.29289 26.7071C4.10536 26.5196 4 26.2652 4 26V12C4.00265 9.61386 4.95171 7.32622 6.63896 5.63896C8.32622 3.95171 10.6139 3.00265 13 3H19C21.3861 3.00265 23.6738 3.95171 25.361 5.63896C27.0483 7.32622 27.9974 9.61386 28 12ZM23 12V21C22.9999 21.6934 22.7596 22.3653 22.32 22.9016C21.8804 23.4378 21.2687 23.8052 20.5888 23.9412L20.895 24.5525C20.9538 24.67 20.9888 24.798 20.9981 24.9291C21.0074 25.0601 20.9908 25.1918 20.9493 25.3164C20.9077 25.4411 20.842 25.5563 20.7559 25.6556C20.6698 25.7549 20.565 25.8362 20.4475 25.895C20.33 25.9538 20.202 25.9888 20.0709 25.9981C19.9399 26.0074 19.8082 25.9908 19.6836 25.9493C19.5589 25.9077 19.4437 25.842 19.3444 25.7559C19.2451 25.6698 19.1638 25.565 19.105 25.4475L18.3825 24H13.6175L12.895 25.4475C12.7763 25.6849 12.5682 25.8654 12.3164 25.9493C12.0647 26.0332 11.7899 26.0137 11.5525 25.895C11.3151 25.7763 11.1346 25.5682 11.0507 25.3164C10.9668 25.0647 10.9863 24.7899 11.105 24.5525L11.4113 23.9412C10.7313 23.8052 10.1196 23.4378 9.67997 22.9016C9.24038 22.3653 9.0001 21.6934 9 21V12C9 11.2044 9.31607 10.4413 9.87868 9.87868C10.4413 9.31607 11.2044 9 12 9H20C20.7956 9 21.5587 9.31607 22.1213 9.87868C22.6839 10.4413 23 11.2044 23 12ZM11 12V18H21V12C21 11.7348 20.8946 11.4804 20.7071 11.2929C20.5196 11.1054 20.2652 11 20 11H12C11.7348 11 11.4804 11.1054 11.2929 11.2929C11.1054 11.4804 11 11.7348 11 12ZM15 20V22H17V20H15ZM12 22H13V20H11V21C11 21.2652 11.1054 21.5196 11.2929 21.7071C11.4804 21.8946 11.7348 22 12 22ZM21 21V20H19V22H20C20.2652 22 20.5196 21.8946 20.7071 21.7071C20.8946 21.5196 21 21.2652 21 21Z" fill="#343330"/>
</svg>
