<svg width="32" height="32" viewBox="0 0 32 32" fill="none" xmlns="http://www.w3.org/2000/svg">
<path d="M30 19H24.9438C24.9807 18.668 24.9994 18.3341 25 18C25 15.6131 24.0518 13.3239 22.364 11.6361C20.6761 9.94824 18.3869 9.00003 16 9.00003C13.6131 9.00003 11.3239 9.94824 9.63604 11.6361C7.94821 13.3239 7 15.6131 7 18C7.00056 18.3341 7.01934 18.668 7.05625 19H2C1.73478 19 1.48043 19.1054 1.29289 19.2929C1.10536 19.4805 1 19.7348 1 20C1 20.2652 1.10536 20.5196 1.29289 20.7071C1.48043 20.8947 1.73478 21 2 21H30C30.2652 21 30.5196 20.8947 30.7071 20.7071C30.8946 20.5196 31 20.2652 31 20C31 19.7348 30.8946 19.4805 30.7071 19.2929C30.5196 19.1054 30.2652 19 30 19ZM9 18C8.99816 17.0374 9.19489 16.0848 9.57788 15.2016C9.96087 14.3185 10.5219 13.5238 11.2259 12.8673C11.9299 12.2108 12.7618 11.7065 13.6695 11.386C14.5772 11.0655 15.5412 10.9357 16.5013 11.0047C17.4615 11.0736 18.3971 11.3398 19.2497 11.7867C20.1023 12.2336 20.8536 12.8516 21.4565 13.6019C22.0595 14.3523 22.5012 15.219 22.7541 16.1478C23.007 17.0766 23.0656 18.0476 22.9263 19H9.07375C9.02535 18.6689 9.0007 18.3347 9 18ZM27 25C27 25.2652 26.8946 25.5196 26.7071 25.7071C26.5196 25.8947 26.2652 26 26 26H6C5.73478 26 5.48043 25.8947 5.29289 25.7071C5.10536 25.5196 5 25.2652 5 25C5 24.7348 5.10536 24.4805 5.29289 24.2929C5.48043 24.1054 5.73478 24 6 24H26C26.2652 24 26.5196 24.1054 26.7071 24.2929C26.8946 24.4805 27 24.7348 27 25ZM9.105 5.44753C8.98632 5.21016 8.96679 4.93537 9.05071 4.6836C9.13463 4.43183 9.31513 4.22372 9.5525 4.10503C9.78987 3.98635 10.0647 3.96682 10.3164 4.05074C10.5682 4.13466 10.7763 4.31516 10.895 4.55253L11.895 6.55253C11.9538 6.67006 11.9888 6.79802 11.9981 6.9291C12.0074 7.06017 11.9908 7.1918 11.9493 7.31646C11.9077 7.44112 11.842 7.55638 11.7559 7.65565C11.6698 7.75492 11.565 7.83626 11.4475 7.89503C11.33 7.9538 11.202 7.98884 11.0709 7.99815C10.9399 8.00747 10.8082 7.99088 10.6836 7.94932C10.5589 7.90777 10.4436 7.84207 10.3444 7.75597C10.2451 7.66987 10.1638 7.56506 10.105 7.44753L9.105 5.44753ZM2.105 11.5525C2.16381 11.435 2.2452 11.3303 2.34451 11.2443C2.44382 11.1583 2.55911 11.0927 2.68378 11.0512C2.80846 11.0098 2.94008 10.9933 3.07112 11.0028C3.20216 11.0122 3.33006 11.0474 3.4475 11.1063L5.4475 12.1063C5.6847 12.225 5.86504 12.433 5.94885 12.6847C6.03265 12.9363 6.01306 13.211 5.89437 13.4482C5.77569 13.6854 5.56764 13.8657 5.31599 13.9495C5.06434 14.0333 4.7897 14.0137 4.5525 13.895L2.5525 12.895C2.43491 12.8363 2.33004 12.755 2.2439 12.6558C2.15775 12.5565 2.09202 12.4412 2.05046 12.3165C2.0089 12.1919 1.99232 12.0602 2.00168 11.9291C2.01104 11.798 2.04615 11.67 2.105 11.5525ZM26.105 13.4475C25.9865 13.2103 25.9671 12.9358 26.051 12.6843C26.135 12.4327 26.3153 12.2248 26.5525 12.1063L28.5525 11.1063C28.67 11.0475 28.7978 11.0125 28.9288 11.0031C29.0598 10.9938 29.1914 11.0103 29.316 11.0518C29.4406 11.0933 29.5558 11.1589 29.655 11.245C29.7543 11.331 29.8356 11.4357 29.8944 11.5532C29.9531 11.6706 29.9882 11.7985 29.9975 11.9295C30.0069 12.0605 29.9903 12.192 29.9488 12.3166C29.9074 12.4412 29.8417 12.5565 29.7557 12.6557C29.6697 12.7549 29.565 12.8363 29.4475 12.895L27.4475 13.895C27.33 13.9539 27.202 13.989 27.0709 13.9984C26.9398 14.0077 26.8082 13.9911 26.6835 13.9496C26.5588 13.908 26.4435 13.8423 26.3443 13.7561C26.245 13.67 26.1637 13.5651 26.105 13.4475ZM20.105 6.55253L21.105 4.55253C21.2237 4.31516 21.4318 4.13466 21.6836 4.05074C21.9353 3.96682 22.2101 3.98635 22.4475 4.10503C22.6849 4.22372 22.8654 4.43183 22.9493 4.6836C23.0332 4.93537 23.0137 5.21016 22.895 5.44753L21.895 7.44753C21.7763 7.6849 21.5682 7.8654 21.3164 7.94932C21.0647 8.03324 20.7899 8.01372 20.5525 7.89503C20.3151 7.77635 20.1346 7.56823 20.0507 7.31646C19.9668 7.06469 19.9863 6.7899 20.105 6.55253Z" fill="#343330"/>
</svg>
