<svg width="32" height="32" viewBox="0 0 32 32" fill="none" xmlns="http://www.w3.org/2000/svg">
<path d="M27 25C27 25.2652 26.8946 25.5196 26.7071 25.7071C26.5196 25.8946 26.2652 26 26 26H7C6.73478 26 6.48043 25.8946 6.29289 25.7071C6.10536 25.5196 6 25.2652 6 25C6 24.7348 6.10536 24.4804 6.29289 24.2929C6.48043 24.1054 6.73478 24 7 24H26C26.2652 24 26.5196 24.1054 26.7071 24.2929C26.8946 24.4804 27 24.7348 27 25ZM19 19H7C6.73478 19 6.48043 19.1054 6.29289 19.2929C6.10536 19.4804 6 19.7348 6 20C6 20.2652 6.10536 20.5196 6.29289 20.7071C6.48043 20.8946 6.73478 21 7 21H19C21.1217 21 23.1566 20.1571 24.6569 18.6569C26.1571 17.1566 27 15.1217 27 13C27 10.8783 26.1571 8.84344 24.6569 7.34315C23.1566 5.84285 21.1217 5 19 5H7C6.73478 5 6.48043 5.10536 6.29289 5.29289C6.10536 5.48043 6 5.73478 6 6C6 6.26522 6.10536 6.51957 6.29289 6.70711C6.48043 6.89464 6.73478 7 7 7H19C20.5913 7 22.1174 7.63214 23.2426 8.75736C24.3679 9.88258 25 11.4087 25 13C25 14.5913 24.3679 16.1174 23.2426 17.2426C22.1174 18.3679 20.5913 19 19 19Z" fill="#343330"/>
</svg>
