<svg width="32" height="32" viewBox="0 0 32 32" fill="none" xmlns="http://www.w3.org/2000/svg">
<path d="M28 16C27.9967 18.9164 26.8367 21.7123 24.7745 23.7745C22.7123 25.8367 19.9164 26.9967 17 27H8C7.73478 27 7.48043 26.8946 7.29289 26.7071C7.10536 26.5196 7 26.2652 7 26C7 25.7348 7.10536 25.4804 7.29289 25.2929C7.48043 25.1054 7.73478 25 8 25H17C19.3869 25 21.6761 24.0518 23.364 22.364C25.0518 20.6761 26 18.3869 26 16C26 13.6131 25.0518 11.3239 23.364 9.63604C21.6761 7.94821 19.3869 7 17 7H8C7.73478 7 7.48043 6.89464 7.29289 6.70711C7.10536 6.51957 7 6.26522 7 6C7 5.73478 7.10536 5.48043 7.29289 5.29289C7.48043 5.10536 7.73478 5 8 5H17C19.9164 5.00331 22.7123 6.1633 24.7745 8.22548C26.8367 10.2877 27.9967 13.0836 28 16Z" fill="#343330"/>
</svg>
