<svg width="32" height="32" viewBox="0 0 32 32" fill="none" xmlns="http://www.w3.org/2000/svg">
<path d="M11 22.5C11 22.7967 10.912 23.0867 10.7472 23.3333C10.5824 23.58 10.3481 23.7723 10.074 23.8858C9.79992 23.9993 9.49832 24.029 9.20735 23.9712C8.91638 23.9133 8.64911 23.7704 8.43933 23.5607C8.22955 23.3509 8.08669 23.0836 8.02881 22.7926C7.97093 22.5017 8.00064 22.2001 8.11417 21.926C8.2277 21.6519 8.41996 21.4176 8.66663 21.2528C8.91331 21.088 9.20332 21 9.49999 21C9.89781 21 10.2793 21.158 10.5606 21.4393C10.842 21.7206 11 22.1022 11 22.5ZM30 19.5237V26C30 26.5304 29.7893 27.0391 29.4142 27.4142C29.0391 27.7893 28.5304 28 28 28H9.49999C9.16733 28.0002 8.83527 27.9718 8.50749 27.915C7.07752 27.6541 5.80898 26.8377 4.97911 25.6444C4.14924 24.451 3.82554 22.9776 4.07874 21.5462L7.20374 3.65499C7.24816 3.39647 7.34318 3.14926 7.48337 2.92756C7.62355 2.70585 7.80614 2.514 8.02064 2.36302C8.23515 2.21204 8.47735 2.10491 8.73336 2.04776C8.98937 1.99061 9.25414 1.98457 9.51249 2.02999L16.355 3.24999C16.8756 3.34382 17.3379 3.6401 17.6406 4.07398C17.9432 4.50785 18.0617 5.04398 17.97 5.56499L16.46 14.19L24.9362 11.125C25.4331 10.9455 25.9808 10.9699 26.4597 11.1929C26.9387 11.4158 27.3099 11.8192 27.4925 12.315L29.875 18.8362C29.9515 19.0577 29.9937 19.2895 30 19.5237ZM12.875 23.1087L16 5.21749L9.18249 3.99999L6.05749 21.8875C5.89434 22.7973 6.09772 23.7347 6.62324 24.4951C7.14876 25.2556 7.95374 25.7772 8.86249 25.9462C9.30735 26.026 9.76363 26.0166 10.2048 25.9185C10.646 25.8205 11.0633 25.6357 11.4325 25.375C11.8111 25.1117 12.1336 24.7757 12.3812 24.3867C12.6289 23.9976 12.7967 23.5632 12.875 23.1087ZM14.5975 24.375L28 19.5137L25.615 13L16.0625 16.4625L14.84 23.4525C14.7856 23.7664 14.7045 24.075 14.5975 24.375ZM28 21.64L15.9675 26H28V21.64Z" fill="#343330"/>
</svg>
