<svg width="32" height="32" viewBox="0 0 32 32" fill="none" xmlns="http://www.w3.org/2000/svg">
<path d="M29.7075 8.29251L23.7075 2.29251C23.6146 2.1996 23.5043 2.1259 23.3829 2.07561C23.2615 2.02533 23.1314 1.99945 23 1.99945C22.8686 1.99945 22.7385 2.02533 22.6171 2.07561C22.4957 2.1259 22.3854 2.1996 22.2925 2.29251C22.1996 2.38542 22.1259 2.49572 22.0756 2.61711C22.0253 2.7385 21.9994 2.86861 21.9994 3.00001C21.9994 3.1314 22.0253 3.26151 22.0756 3.3829C22.1259 3.5043 22.1996 3.6146 22.2925 3.70751L24.5863 6.00001L21 9.58626L16.7075 5.29251C16.5199 5.10487 16.2654 4.99945 16 4.99945C15.7346 4.99945 15.4801 5.10487 15.2925 5.29251C15.1049 5.48015 14.9994 5.73464 14.9994 6.00001C14.9994 6.26537 15.1049 6.51987 15.2925 6.70751L16.0862 7.50001L5.58625 18C5.39972 18.1851 5.25184 18.4053 5.1512 18.648C5.05055 18.8907 4.99916 19.151 5 19.4138V25.5863L2.2925 28.2925C2.19959 28.3854 2.12589 28.4957 2.07561 28.6171C2.02532 28.7385 1.99944 28.8686 1.99944 29C1.99944 29.1314 2.02532 29.2615 2.07561 29.3829C2.12589 29.5043 2.19959 29.6146 2.2925 29.7075C2.48014 29.8951 2.73464 30.0006 3 30.0006C3.13139 30.0006 3.2615 29.9747 3.3829 29.9244C3.50429 29.8741 3.61459 29.8004 3.7075 29.7075L6.41375 27H12.5862C12.849 27.0008 13.1093 26.9495 13.352 26.8488C13.5947 26.7482 13.815 26.6003 14 26.4138L24.5 15.9138L25.2925 16.7075C25.3854 16.8004 25.4957 16.8741 25.6171 16.9244C25.7385 16.9747 25.8686 17.0006 26 17.0006C26.1314 17.0006 26.2615 16.9747 26.3829 16.9244C26.5043 16.8741 26.6146 16.8004 26.7075 16.7075C26.8004 16.6146 26.8741 16.5043 26.9244 16.3829C26.9747 16.2615 27.0006 16.1314 27.0006 16C27.0006 15.8686 26.9747 15.7385 26.9244 15.6171C26.8741 15.4957 26.8004 15.3854 26.7075 15.2925L22.4137 11L26 7.41376L28.2925 9.70751C28.4801 9.89515 28.7346 10.0006 29 10.0006C29.2654 10.0006 29.5199 9.89515 29.7075 9.70751C29.8951 9.51987 30.0006 9.26537 30.0006 9.00001C30.0006 8.73464 29.8951 8.48015 29.7075 8.29251ZM12.5862 25H7V19.4138L9.25 17.1638L11.7925 19.7075C11.8854 19.8004 11.9957 19.8741 12.1171 19.9244C12.2385 19.9747 12.3686 20.0006 12.5 20.0006C12.6314 20.0006 12.7615 19.9747 12.8829 19.9244C13.0043 19.8741 13.1146 19.8004 13.2075 19.7075C13.3004 19.6146 13.3741 19.5043 13.4244 19.3829C13.4747 19.2615 13.5006 19.1314 13.5006 19C13.5006 18.8686 13.4747 18.7385 13.4244 18.6171C13.3741 18.4957 13.3004 18.3854 13.2075 18.2925L10.6637 15.75L12.25 14.1638L14.7925 16.7075C14.9801 16.8951 15.2346 17.0006 15.5 17.0006C15.7654 17.0006 16.0199 16.8951 16.2075 16.7075C16.3951 16.5199 16.5006 16.2654 16.5006 16C16.5006 15.7346 16.3951 15.4801 16.2075 15.2925L13.6637 12.75L17.5 8.91376L23.0863 14.5L12.5862 25Z" fill="#343330"/>
</svg>
