<svg width="32" height="32" viewBox="0 0 32 32" fill="none" xmlns="http://www.w3.org/2000/svg">
<path d="M31.9575 20.7125C31.9581 20.7092 31.9581 20.7058 31.9575 20.7025L29.1712 11.425C29.0496 11.012 28.7971 10.6498 28.4517 10.3927C28.1063 10.1357 27.6868 9.9979 27.2563 10H26C25.7348 10 25.4804 10.1054 25.2929 10.2929C25.1054 10.4804 25 10.7348 25 11C25 11.2652 25.1054 11.5196 25.2929 11.7071C25.4804 11.8946 25.7348 12 26 12H27.2563L29.6562 20H25.75L23.1712 11.425C23.0496 11.012 22.7971 10.6498 22.4517 10.3927C22.1063 10.1357 21.6868 9.9979 21.2563 10H20C19.7348 10 19.4804 10.1054 19.2929 10.2929C19.1054 10.4804 19 10.7348 19 11C19 11.2652 19.1054 11.5196 19.2929 11.7071C19.4804 11.8946 19.7348 12 20 12H21.2563L23.6562 20H19.75L17.1712 11.425C17.0496 11.012 16.7971 10.6498 16.4517 10.3927C16.1063 10.1357 15.6868 9.9979 15.2563 10H4.75C4.31842 9.99654 3.89746 10.1337 3.55081 10.3909C3.20416 10.648 2.95069 11.011 2.82875 11.425L0.04625 20.7V20.7063C0.04625 20.7063 0.04625 20.7125 0.04625 20.7163C0.0174152 20.8082 0.00184159 20.9037 0 21C0 21.2652 0.105357 21.5196 0.292893 21.7071C0.48043 21.8946 0.734784 22 1 22H31C31.1559 22 31.3096 21.9635 31.4489 21.8935C31.5881 21.8234 31.7091 21.7218 31.8021 21.5968C31.8952 21.4717 31.9577 21.3266 31.9846 21.173C32.0116 21.0195 32.0023 20.8618 31.9575 20.7125ZM4.75 12H15.2625L17.6625 20H2.34375L4.75 12Z" fill="#343330"/>
</svg>
