<svg width="32" height="32" viewBox="0 0 32 32" fill="none" xmlns="http://www.w3.org/2000/svg">
<path d="M30.8325 15.445L25.125 6.89C24.9427 6.61673 24.6959 6.39258 24.4064 6.23735C24.1168 6.08213 23.7935 6.00061 23.465 6H4.00004C3.81895 5.99988 3.64124 6.04894 3.48585 6.14193C3.33047 6.23493 3.20325 6.36837 3.11778 6.52801C3.03231 6.68766 2.9918 6.86752 3.00056 7.04839C3.00932 7.22927 3.06704 7.40436 3.16754 7.555L8.79879 16L3.17379 24.445C3.07358 24.5952 3.0159 24.7697 3.00688 24.9501C2.99786 25.1304 3.03783 25.3098 3.12255 25.4692C3.20727 25.6287 3.33358 25.7622 3.48808 25.8557C3.64257 25.9491 3.81949 25.999 4.00004 26H23.465C23.7935 25.9994 24.1168 25.9179 24.4064 25.7626C24.6959 25.6074 24.9427 25.3833 25.125 25.11L30.8288 16.555C30.939 16.391 30.9981 16.1981 30.9988 16.0006C30.9995 15.803 30.9416 15.6097 30.8325 15.445ZM23.465 24H5.87504L10.8388 16.555C10.9484 16.3907 11.0069 16.1975 11.0069 16C11.0069 15.8025 10.9484 15.6093 10.8388 15.445L5.87504 8H23.465L28.7988 16L23.465 24Z" fill="#343330"/>
</svg>
