<svg width="32" height="32" viewBox="0 0 32 32" fill="none" xmlns="http://www.w3.org/2000/svg">
<path d="M27.7338 10.395C29.1214 13.2973 29.3848 16.6107 28.4732 19.6957C27.5616 22.7808 25.5395 25.4188 22.7972 27.1006C20.0549 28.7825 16.7868 29.3889 13.6237 28.8029C10.4606 28.2169 7.62669 26.4799 5.6689 23.9274C3.71112 21.3748 2.76825 18.1874 3.02229 14.9805C3.27632 11.7737 4.70924 8.77454 7.04449 6.56201C9.37975 4.34949 12.4518 3.08041 15.6677 2.9997C18.8836 2.919 22.0155 4.0324 24.4588 6.12501L27.2925 3.29001C27.4801 3.10237 27.7346 2.99695 28 2.99695C28.2654 2.99695 28.5199 3.10237 28.7075 3.29001C28.8951 3.47765 29.0006 3.73215 29.0006 3.99751C29.0006 4.26287 28.8951 4.51737 28.7075 4.70501L16.7075 16.705C16.5199 16.8927 16.2654 16.9981 16 16.9981C15.7346 16.9981 15.4801 16.8927 15.2925 16.705C15.1049 16.5174 14.9994 16.2629 14.9994 15.9975C14.9994 15.7321 15.1049 15.4776 15.2925 15.29L18.7575 11.825C17.8184 11.204 16.6973 10.918 15.5755 11.0134C14.4537 11.1089 13.3969 11.5801 12.5763 12.3509C11.7556 13.1217 11.2191 14.1469 11.0536 15.2605C10.8882 16.3741 11.1034 17.511 11.6644 18.4871C12.2254 19.4632 13.0995 20.2214 14.1451 20.6389C15.1906 21.0564 16.3465 21.1089 17.4256 20.7877C18.5047 20.4666 19.4438 19.7906 20.0909 18.8693C20.738 17.948 21.0552 16.8353 20.9913 15.7113C20.9839 15.5799 21.0024 15.4484 21.0458 15.3243C21.0893 15.2001 21.1567 15.0858 21.2444 14.9877C21.332 14.8896 21.4381 14.8097 21.5566 14.7527C21.6751 14.6956 21.8037 14.6624 21.935 14.655C22.2002 14.6401 22.4605 14.7311 22.6586 14.9081C22.7567 14.9958 22.8365 15.1019 22.8936 15.2204C22.9507 15.3389 22.9839 15.4674 22.9913 15.5988C23.0824 17.1897 22.628 18.7642 21.7031 20.0619C20.7782 21.3596 19.4382 22.3029 17.9046 22.7359C16.3709 23.1689 14.7355 23.0656 13.2685 22.4431C11.8015 21.8207 10.5908 20.7163 9.83652 19.3125C9.08223 17.9088 8.82949 16.2897 9.12008 14.7228C9.41067 13.1559 10.2272 11.7351 11.4347 10.6952C12.6422 9.65523 14.1684 9.05843 15.761 9.0034C17.3536 8.94837 18.9174 9.4384 20.1938 10.3925L23.0375 7.54876C20.9535 5.8185 18.3037 4.91921 15.5971 5.0236C12.8904 5.128 10.3178 6.22871 8.37324 8.11434C6.4287 9.99997 5.24939 12.5376 5.06181 15.2397C4.87423 17.9419 5.6916 20.6181 7.35695 22.7543C9.0223 24.8905 11.4182 26.3361 14.0844 26.8135C16.7507 27.2909 19.4993 26.7663 21.8024 25.3406C24.1055 23.9149 25.8006 21.6886 26.5623 19.0892C27.3239 16.4898 27.0983 13.7007 25.9288 11.2575C25.8144 11.0182 25.7998 10.7432 25.8881 10.493C25.9765 10.2429 26.1606 10.0381 26.4 9.92376C26.6394 9.80938 26.9144 9.79478 27.1645 9.88316C27.4146 9.97153 27.6194 10.1557 27.7338 10.395Z" fill="#343330"/>
</svg>
