<svg width="32" height="32" viewBox="0 0 32 32" fill="none" xmlns="http://www.w3.org/2000/svg">
<path d="M30 13H28.58L25.1562 7.00751C24.9813 6.70146 24.7286 6.44708 24.4237 6.27015C24.1188 6.09322 23.7725 6.00003 23.42 6.00001H20.6775L19.1775 2.25751C19.0302 1.88595 18.7745 1.5673 18.4437 1.34303C18.1129 1.11876 17.7222 0.999234 17.3225 1.00001H14.6775C14.2774 0.998731 13.8862 1.11802 13.5548 1.34232C13.2235 1.56663 12.9674 1.88555 12.82 2.25751L11.3225 6.00001H8.58C8.22748 6.00003 7.88123 6.09322 7.57632 6.27015C7.27141 6.44708 7.01869 6.70146 6.84375 7.00751L3.42 13H2C1.73478 13 1.48043 13.1054 1.29289 13.2929C1.10536 13.4804 1 13.7348 1 14C1 14.2652 1.10536 14.5196 1.29289 14.7071C1.48043 14.8947 1.73478 15 2 15H3V25C3 25.5304 3.21071 26.0392 3.58579 26.4142C3.96086 26.7893 4.46957 27 5 27H8C8.53043 27 9.03914 26.7893 9.41421 26.4142C9.78929 26.0392 10 25.5304 10 25V23H22V25C22 25.5304 22.2107 26.0392 22.5858 26.4142C22.9609 26.7893 23.4696 27 24 27H27C27.5304 27 28.0391 26.7893 28.4142 26.4142C28.7893 26.0392 29 25.5304 29 25V15H30C30.2652 15 30.5196 14.8947 30.7071 14.7071C30.8946 14.5196 31 14.2652 31 14C31 13.7348 30.8946 13.4804 30.7071 13.2929C30.5196 13.1054 30.2652 13 30 13ZM14.6775 3.00001H17.3225L18.5225 6.00001H13.4775L14.6775 3.00001ZM8.58 8.00001H23.42L26.2763 13H5.72375L8.58 8.00001ZM8 25H5V23H8V25ZM24 25V23H27V25H24ZM27 21H5V15H27V21ZM7 18C7 17.7348 7.10536 17.4804 7.29289 17.2929C7.48043 17.1054 7.73478 17 8 17H10C10.2652 17 10.5196 17.1054 10.7071 17.2929C10.8946 17.4804 11 17.7348 11 18C11 18.2652 10.8946 18.5196 10.7071 18.7071C10.5196 18.8947 10.2652 19 10 19H8C7.73478 19 7.48043 18.8947 7.29289 18.7071C7.10536 18.5196 7 18.2652 7 18ZM21 18C21 17.7348 21.1054 17.4804 21.2929 17.2929C21.4804 17.1054 21.7348 17 22 17H24C24.2652 17 24.5196 17.1054 24.7071 17.2929C24.8946 17.4804 25 17.7348 25 18C25 18.2652 24.8946 18.5196 24.7071 18.7071C24.5196 18.8947 24.2652 19 24 19H22C21.7348 19 21.4804 18.8947 21.2929 18.7071C21.1054 18.5196 21 18.2652 21 18Z" fill="#343330"/>
</svg>
