<svg width="32" height="32" viewBox="0 0 32 32" fill="none" xmlns="http://www.w3.org/2000/svg">
<path d="M28 20C27.4696 20 26.9609 19.7893 26.5858 19.4142C26.2107 19.0391 26 18.5304 26 18V8C26 6.14348 25.2625 4.36301 23.9497 3.05025C22.637 1.7375 20.8565 1 19 1C17.1435 1 15.363 1.7375 14.0503 3.05025C12.7375 4.36301 12 6.14348 12 8V9H9.56625C9.22107 9.00111 8.88199 9.09105 8.58162 9.26115C8.28126 9.43125 8.02974 9.6758 7.85125 9.97125L5.285 14.25C5.09911 14.5605 5.00064 14.9156 5 15.2775V27C5 27.5304 5.21071 28.0391 5.58579 28.4142C5.96086 28.7893 6.46957 29 7 29H19C19.5304 29 20.0391 28.7893 20.4142 28.4142C20.7893 28.0391 21 27.5304 21 27V15.2775C20.9998 14.9147 20.9013 14.5588 20.715 14.2475L18.1488 9.97125C17.9703 9.6758 17.7187 9.43125 17.4184 9.26115C17.118 9.09105 16.7789 9.00111 16.4338 9H14V8C14 6.67392 14.5268 5.40215 15.4645 4.46447C16.4021 3.52678 17.6739 3 19 3C20.3261 3 21.5979 3.52678 22.5355 4.46447C23.4732 5.40215 24 6.67392 24 8V18C24 19.0609 24.4214 20.0783 25.1716 20.8284C25.9217 21.5786 26.9391 22 28 22C28.2652 22 28.5196 21.8946 28.7071 21.7071C28.8946 21.5196 29 21.2652 29 21C29 20.7348 28.8946 20.4804 28.7071 20.2929C28.5196 20.1054 28.2652 20 28 20ZM16.4338 11L19 15.2775V27H7V15.2775L9.56625 11H12V17C12 17.2652 12.1054 17.5196 12.2929 17.7071C12.4804 17.8946 12.7348 18 13 18C13.2652 18 13.5196 17.8946 13.7071 17.7071C13.8946 17.5196 14 17.2652 14 17V11H16.4338Z" fill="#343330"/>
</svg>
