<svg width="32" height="32" viewBox="0 0 32 32" fill="none" xmlns="http://www.w3.org/2000/svg">
<path d="M28.61 3.27376C28.455 3.13997 28.2665 3.051 28.0647 3.01641C27.863 2.98183 27.6556 3.00296 27.465 3.07751L2.13245 12.9913C1.77343 13.1309 1.46948 13.3833 1.26636 13.7106C1.06323 14.0379 0.971929 14.4224 1.00619 14.806C1.04046 15.1897 1.19844 15.5519 1.45634 15.838C1.71425 16.1241 2.05812 16.3187 2.4362 16.3925L8.99995 17.6813V25C8.99866 25.3987 9.11712 25.7885 9.34 26.119C9.56288 26.4496 9.87989 26.7055 10.2499 26.8538C10.6194 27.0046 11.0258 27.0409 11.4161 26.9577C11.8065 26.8746 12.1628 26.6759 12.4387 26.3875L15.6037 23.105L20.625 27.5C20.9872 27.8213 21.4545 27.9992 21.9387 28C22.1509 27.9998 22.3618 27.9665 22.5637 27.9013C22.8936 27.7966 23.1904 27.6073 23.4244 27.3522C23.6584 27.0971 23.8215 26.7852 23.8974 26.4475L28.9712 4.37501C29.0166 4.17595 29.0069 3.96829 28.9433 3.77429C28.8797 3.58029 28.7644 3.40727 28.61 3.27376ZM20.9675 7.77376L9.7687 15.7938L3.5687 14.5775L20.9675 7.77376ZM10.9999 25V19.065L14.0987 21.7825L10.9999 25ZM21.9412 26L11.6062 16.9375L26.4812 6.27626L21.9412 26Z" fill="#343330"/>
</svg>
