<svg width="32" height="32" viewBox="0 0 32 32" fill="none" xmlns="http://www.w3.org/2000/svg">
<path d="M27 8.00001H18.4137L22.7075 3.70751C22.8951 3.51987 23.0006 3.26537 23.0006 3.00001C23.0006 2.73464 22.8951 2.48015 22.7075 2.29251C22.5199 2.10487 22.2654 1.99945 22 1.99945C21.7346 1.99945 21.4801 2.10487 21.2925 2.29251L16 7.58626L10.7075 2.29251C10.6146 2.1996 10.5043 2.1259 10.3829 2.07561C10.2615 2.02533 10.1314 1.99945 10 1.99945C9.86861 1.99945 9.7385 2.02533 9.6171 2.07561C9.49571 2.1259 9.38541 2.1996 9.2925 2.29251C9.10486 2.48015 8.99944 2.73464 8.99944 3.00001C8.99944 3.26537 9.10486 3.51987 9.2925 3.70751L13.5863 8.00001H5C4.46957 8.00001 3.96086 8.21072 3.58579 8.58579C3.21071 8.96087 3 9.46957 3 10V25C3 25.5304 3.21071 26.0391 3.58579 26.4142C3.96086 26.7893 4.46957 27 5 27H27C27.5304 27 28.0391 26.7893 28.4142 26.4142C28.7893 26.0391 29 25.5304 29 25V10C29 9.46957 28.7893 8.96087 28.4142 8.58579C28.0391 8.21072 27.5304 8.00001 27 8.00001ZM27 25H5V10H27V25Z" fill="#343330"/>
</svg>
