<svg width="32" height="32" viewBox="0 0 32 32" fill="none" xmlns="http://www.w3.org/2000/svg">
<path d="M25.1963 6.80751C23.3782 4.98945 21.0618 3.75136 18.54 3.24977C16.0183 2.74819 13.4044 3.00565 11.029 3.9896C8.6536 4.97355 6.62329 6.63979 5.19485 8.77763C3.7664 10.9155 3.00397 13.4289 3.00397 16C3.00397 18.5711 3.7664 21.0846 5.19485 23.2224C6.62329 25.3602 8.6536 27.0265 11.029 28.0104C13.4044 28.9944 16.0183 29.2518 18.54 28.7502C21.0618 28.2487 23.3782 27.0106 25.1963 25.1925C26.4125 23.9904 27.378 22.5589 28.037 20.981C28.696 19.403 29.0354 17.71 29.0354 16C29.0354 14.29 28.696 12.597 28.037 11.019C27.378 9.44108 26.4125 8.0096 25.1963 6.80751ZM8.21875 8.22126C10.0187 6.41885 12.3906 5.30011 14.9263 5.05751C14.6819 7.59308 13.5582 9.96329 11.75 11.7575C9.95335 13.5625 7.58266 14.6833 5.0475 14.9263C5.29219 12.3903 6.41368 10.0192 8.21875 8.22126ZM5.04125 16.935C8.11185 16.6898 10.9936 15.3549 13.1663 13.1713C15.3513 10.9993 16.6872 8.11733 16.9325 5.04626C19.5177 5.26178 21.9429 6.38628 23.7777 8.22016C25.6125 10.054 26.7382 12.4787 26.955 15.0638C23.8855 15.3151 21.0049 16.6481 18.8265 18.8251C16.648 21.0022 15.3133 23.8819 15.06 26.9513C12.4748 26.7357 10.0496 25.6112 8.21482 23.7774C6.38002 21.9435 5.25432 19.5188 5.0375 16.9338L5.04125 16.935ZM23.7813 23.7788C21.9809 25.5806 19.6093 26.6993 17.0738 26.9425C17.3235 24.4089 18.4442 22.0404 20.245 20.2408C22.0458 18.4411 24.415 17.3219 26.9488 17.0738C26.7051 19.6092 25.5849 21.9803 23.7813 23.7788Z" fill="#343330"/>
</svg>
