<svg width="32" height="32" viewBox="0 0 32 32" fill="none" xmlns="http://www.w3.org/2000/svg">
<path d="M31.9138 23.5938L23.9138 5.59375C23.8352 5.41702 23.707 5.26686 23.5449 5.16148C23.3827 5.05609 23.1934 5 23 5H9C8.80827 5.00031 8.62066 5.05574 8.45954 5.15969C8.29843 5.26363 8.17058 5.41169 8.09125 5.58625C8.0909 5.58874 8.0909 5.59126 8.09125 5.59375V5.60875L0.0862535 23.5938C0.0185641 23.746 -0.0100094 23.9128 0.00312936 24.0789C0.0162681 24.245 0.0707025 24.4051 0.161487 24.5449C0.252271 24.6846 0.376527 24.7994 0.522966 24.8789C0.669404 24.9584 0.833383 25 1 25H31C31.1666 25 31.3306 24.9584 31.477 24.8789C31.6235 24.7994 31.7477 24.6846 31.8385 24.5449C31.9293 24.4051 31.9837 24.245 31.9969 24.0789C32.01 23.9128 31.9814 23.746 31.9138 23.5938ZM8 23H2.53875L8 10.7125V23ZM10 23V10.7125L15.4613 23H10ZM17.65 23L10.5388 7H22.35L29.4613 23H17.65Z" fill="#343330"/>
</svg>
