<svg width="32" height="32" viewBox="0 0 32 32" fill="none" xmlns="http://www.w3.org/2000/svg">
<path d="M14.6638 16.75L5.66376 24.75C5.56527 24.8372 5.45055 24.9042 5.32617 24.9471C5.20179 24.9901 5.07017 25.0081 4.93884 25.0001C4.8075 24.9922 4.67901 24.9584 4.56072 24.9008C4.44242 24.8432 4.33663 24.7629 4.24938 24.6644C4.16213 24.5659 4.09514 24.4512 4.05223 24.3268C4.00931 24.2024 3.99132 24.0708 3.99927 23.9394C4.00722 23.8081 4.04096 23.6796 4.09857 23.5613C4.15617 23.443 4.23652 23.3372 4.33501 23.25L12.5 16L4.33626 8.74999C4.23777 8.66274 4.15742 8.55695 4.09982 8.43866C4.04221 8.32036 4.00847 8.19187 4.00052 8.06054C3.99257 7.9292 4.01056 7.79758 4.05348 7.6732C4.09639 7.54882 4.16338 7.43411 4.25063 7.33562C4.33788 7.23713 4.44367 7.15678 4.56197 7.09918C4.68026 7.04157 4.80875 7.00783 4.94009 6.99988C5.07142 6.99193 5.20304 7.00992 5.32742 7.05284C5.4518 7.09575 5.56652 7.16274 5.66501 7.24999L14.665 15.25C14.7714 15.3438 14.8566 15.4592 14.915 15.5886C14.9734 15.7179 15.0036 15.8581 15.0036 16C15.0036 16.1419 14.9734 16.2821 14.915 16.4114C14.8566 16.5407 14.7714 16.6562 14.665 16.75H14.6638ZM27 23H15C14.7348 23 14.4804 23.1053 14.2929 23.2929C14.1054 23.4804 14 23.7348 14 24C14 24.2652 14.1054 24.5196 14.2929 24.7071C14.4804 24.8946 14.7348 25 15 25H27C27.2652 25 27.5196 24.8946 27.7071 24.7071C27.8947 24.5196 28 24.2652 28 24C28 23.7348 27.8947 23.4804 27.7071 23.2929C27.5196 23.1053 27.2652 23 27 23Z" fill="#343330"/>
</svg>
