<svg width="32" height="32" viewBox="0 0 32 32" fill="none" xmlns="http://www.w3.org/2000/svg">
<path d="M29.7075 10.7925L22.2075 3.29249C22.1146 3.19952 22.0043 3.12576 21.8829 3.07543C21.7615 3.02511 21.6314 2.99921 21.5 2.99921C21.3686 2.99921 21.2385 3.02511 21.1171 3.07543C20.9957 3.12576 20.8854 3.19952 20.7925 3.29249L4.63875 19.4462C3.58915 20.4958 2.9995 21.9194 2.9995 23.4037C2.9995 24.8881 3.58915 26.3116 4.63875 27.3612C5.68834 28.4108 7.1119 29.0005 8.59625 29.0005C10.0806 29.0005 11.5042 28.4108 12.5537 27.3612L26.54 13.375L29.3162 12.45C29.4781 12.3962 29.6234 12.3019 29.7385 12.176C29.8536 12.0502 29.9346 11.897 29.9739 11.731C30.0131 11.565 30.0092 11.3918 29.9626 11.2277C29.9159 11.0637 29.8281 10.9143 29.7075 10.7937V10.7925ZM11.1387 25.9462C10.4603 26.6001 9.55224 26.9616 8.60999 26.9529C7.66773 26.9442 6.76653 26.5661 6.10023 25.8998C5.43392 25.2335 5.05575 24.3323 5.04706 23.39C5.03837 22.4477 5.39985 21.5397 6.05375 20.8612L9.65375 17.2612C10.7125 16.8987 12.3725 16.7612 14.5375 17.8862C15.8625 18.5787 17.06 18.8862 18.1075 18.9775L11.1387 25.9462ZM25.6837 11.5512C25.5364 11.6002 25.4024 11.6828 25.2925 11.7925L20.3462 16.7387C19.2875 17.1012 17.6275 17.2387 15.4625 16.1137C14.1375 15.4212 12.94 15.1137 11.8925 15.0225L21.5 5.41374L27.1487 11.0625L25.6837 11.5512Z" fill="#343330"/>
</svg>
