<svg width="32" height="32" viewBox="0 0 32 32" fill="none" xmlns="http://www.w3.org/2000/svg">
<path d="M28.0001 16C28.0001 16.2652 27.8947 16.5196 27.7072 16.7071C27.5196 16.8947 27.2653 17 27.0001 17H14.0001C13.7348 17 13.4805 16.8947 13.2929 16.7071C13.1054 16.5196 13.0001 16.2652 13.0001 16C13.0001 15.7348 13.1054 15.4804 13.2929 15.2929C13.4805 15.1054 13.7348 15 14.0001 15H27.0001C27.2653 15 27.5196 15.1054 27.7072 15.2929C27.8947 15.4804 28.0001 15.7348 28.0001 16ZM14.0001 9.00001H27.0001C27.2653 9.00001 27.5196 8.89465 27.7072 8.70711C27.8947 8.51958 28.0001 8.26522 28.0001 8.00001C28.0001 7.73479 27.8947 7.48044 27.7072 7.2929C27.5196 7.10536 27.2653 7.00001 27.0001 7.00001H14.0001C13.7348 7.00001 13.4805 7.10536 13.2929 7.2929C13.1054 7.48044 13.0001 7.73479 13.0001 8.00001C13.0001 8.26522 13.1054 8.51958 13.2929 8.70711C13.4805 8.89465 13.7348 9.00001 14.0001 9.00001ZM27.0001 23H5.00005C4.73484 23 4.48048 23.1054 4.29295 23.2929C4.10541 23.4804 4.00005 23.7348 4.00005 24C4.00005 24.2652 4.10541 24.5196 4.29295 24.7071C4.48048 24.8947 4.73484 25 5.00005 25H27.0001C27.2653 25 27.5196 24.8947 27.7072 24.7071C27.8947 24.5196 28.0001 24.2652 28.0001 24C28.0001 23.7348 27.8947 23.4804 27.7072 23.2929C27.5196 23.1054 27.2653 23 27.0001 23ZM9.00005 18C9.19795 18.0002 9.39144 17.9416 9.55604 17.8317C9.72063 17.7219 9.84892 17.5656 9.92468 17.3828C10.0004 17.2 10.0202 16.9988 9.98158 16.8047C9.94293 16.6106 9.84757 16.4324 9.70755 16.2925L5.4138 12L9.70755 7.70751C9.8952 7.51987 10.0006 7.26537 10.0006 7.00001C10.0006 6.73464 9.8952 6.48015 9.70755 6.29251C9.51991 6.10487 9.26542 5.99945 9.00005 5.99945C8.73469 5.99945 8.48019 6.10487 8.29255 6.29251L3.29255 11.2925C3.19958 11.3854 3.12582 11.4957 3.07549 11.6171C3.02517 11.7385 2.99927 11.8686 2.99927 12C2.99927 12.1314 3.02517 12.2615 3.07549 12.3829C3.12582 12.5043 3.19958 12.6146 3.29255 12.7075L8.29255 17.7075C8.38549 17.8003 8.49581 17.874 8.6172 17.9241C8.7386 17.9743 8.86869 18.0001 9.00005 18Z" fill="#343330"/>
</svg>
