<svg width="32" height="32" viewBox="0 0 32 32" fill="none" xmlns="http://www.w3.org/2000/svg">
<path d="M31 26C31 26.2652 30.8946 26.5196 30.7071 26.7071C30.5195 26.8946 30.2652 27 30 27H24C23.8142 27 23.6322 26.9483 23.4742 26.8506C23.3162 26.753 23.1886 26.6133 23.1055 26.4472C23.0225 26.2811 22.9873 26.0952 23.004 25.9102C23.0207 25.7252 23.0885 25.5486 23.2 25.4L28.5962 18.205C28.769 17.9747 28.89 17.7099 28.9511 17.4285C29.0121 17.1472 29.0116 16.856 28.9498 16.5748C28.8879 16.2937 28.7661 16.0292 28.5926 15.7994C28.4191 15.5697 28.1981 15.3801 27.9446 15.2436C27.6911 15.1072 27.4112 15.027 27.1239 15.0087C26.8366 14.9903 26.5487 15.0342 26.2799 15.1374C26.0112 15.2405 25.7678 15.4005 25.5666 15.6063C25.3653 15.8121 25.2108 16.059 25.1137 16.33C25.0699 16.4538 25.0021 16.5679 24.9142 16.6655C24.8263 16.7632 24.72 16.8425 24.6015 16.8991C24.4829 16.9557 24.3544 16.9884 24.2232 16.9953C24.092 17.0022 23.9607 16.9832 23.8368 16.9394C23.713 16.8955 23.599 16.8277 23.5013 16.7399C23.4037 16.652 23.3243 16.5457 23.2677 16.4271C23.2111 16.3086 23.1784 16.18 23.1715 16.0488C23.1646 15.9176 23.1836 15.7864 23.2275 15.6625C23.3647 15.2772 23.5598 14.9152 23.8062 14.5887C24.4447 13.7415 25.3936 13.1827 26.4442 13.0351C27.4947 12.8876 28.5609 13.1634 29.4081 13.8019C30.2553 14.4404 30.8141 15.3893 30.9617 16.4398C31.1093 17.4904 30.8335 18.5565 30.195 19.4037L26 25H30C30.2652 25 30.5195 25.1054 30.7071 25.2929C30.8946 25.4804 31 25.7348 31 26ZM18.655 6.25C18.5557 6.16392 18.4404 6.09826 18.3157 6.05676C18.191 6.01526 18.0594 5.99875 17.9284 6.00815C17.7973 6.01755 17.6694 6.05269 17.5519 6.11156C17.4344 6.17044 17.3297 6.25188 17.2437 6.35125L11.5 12.9725L5.75621 6.3475C5.57712 6.16953 5.33734 6.06588 5.08501 6.05738C4.83267 6.04887 4.58645 6.13613 4.39579 6.30164C4.20512 6.46715 4.08412 6.69865 4.05707 6.94968C4.03002 7.2007 4.09893 7.45267 4.24996 7.655L10.1762 14.5L4.24996 21.345C4.07624 21.5456 3.98932 21.8069 4.0083 22.0716C4.02729 22.3363 4.15064 22.5825 4.35121 22.7562C4.55178 22.93 4.81314 23.0169 5.0778 22.9979C5.34246 22.9789 5.58874 22.8556 5.76246 22.655L11.5125 16.03L17.2562 22.655C17.3422 22.7543 17.447 22.8357 17.5644 22.8945C17.6819 22.9534 17.8098 22.9885 17.9409 22.9979C18.0719 23.0073 18.2035 22.9908 18.3282 22.9493C18.4529 22.9079 18.5681 22.8423 18.6675 22.7562C18.7668 22.6702 18.8482 22.5655 18.907 22.448C18.9658 22.3305 19.001 22.2026 19.0104 22.0716C19.0198 21.9405 19.0033 21.8089 18.9618 21.6843C18.9203 21.5596 18.8547 21.4443 18.7687 21.345L12.8237 14.5L18.7562 7.655C18.9281 7.45482 19.0139 7.19482 18.995 6.93164C18.976 6.66847 18.8538 6.42346 18.655 6.25Z" fill="#343330"/>
</svg>
