<svg width="32" height="32" viewBox="0 0 32 32" fill="none" xmlns="http://www.w3.org/2000/svg">
<path d="M26.6725 27.74C26.4762 27.9183 26.2172 28.0114 25.9523 27.9988C25.6874 27.9861 25.4384 27.8687 25.26 27.6725L17 18.5862V24H20C20.2652 24 20.5196 24.1053 20.7071 24.2929C20.8947 24.4804 21 24.7348 21 25C21 25.2652 20.8947 25.5196 20.7071 25.7071C20.5196 25.8946 20.2652 26 20 26H12C11.7348 26 11.4804 25.8946 11.2929 25.7071C11.1054 25.5196 11 25.2652 11 25C11 24.7348 11.1054 24.4804 11.2929 24.2929C11.4804 24.1053 11.7348 24 12 24H15V16.3862L8.00001 8.68624V11C8.00001 11.2652 7.89465 11.5196 7.70711 11.7071C7.51958 11.8946 7.26522 12 7.00001 12C6.73479 12 6.48044 11.8946 6.2929 11.7071C6.10536 11.5196 6.00001 11.2652 6.00001 11V6.99999C6.00013 6.85723 6.03082 6.71615 6.09001 6.58624L5.26001 5.67249C5.16984 5.57563 5.09979 5.46184 5.05393 5.33772C5.00806 5.21359 4.98729 5.08159 4.99282 4.94938C4.99834 4.81716 5.03005 4.68736 5.08611 4.56749C5.14217 4.44762 5.22146 4.34007 5.3194 4.25107C5.41733 4.16207 5.53195 4.09339 5.65662 4.04902C5.78129 4.00464 5.91352 3.98545 6.04566 3.99256C6.1778 3.99967 6.30722 4.03294 6.42641 4.09043C6.5456 4.14792 6.65219 4.2285 6.74001 4.32749L26.74 26.3275C26.9183 26.5238 27.0114 26.7828 26.9988 27.0477C26.9861 27.3126 26.8688 27.5616 26.6725 27.74ZM13.2238 7.99999H15V10.0537C15 10.319 15.1054 10.5733 15.2929 10.7608C15.4804 10.9484 15.7348 11.0537 16 11.0537C16.2652 11.0537 16.5196 10.9484 16.7071 10.7608C16.8947 10.5733 17 10.319 17 10.0537V7.99999H24V11C24 11.2652 24.1054 11.5196 24.2929 11.7071C24.4804 11.8946 24.7348 12 25 12C25.2652 12 25.5196 11.8946 25.7071 11.7071C25.8947 11.5196 26 11.2652 26 11V6.99999C26 6.73478 25.8947 6.48042 25.7071 6.29289C25.5196 6.10535 25.2652 5.99999 25 5.99999H13.2238C12.9585 5.99999 12.7042 6.10535 12.5167 6.29289C12.3291 6.48042 12.2238 6.73478 12.2238 6.99999C12.2238 7.26521 12.3291 7.51956 12.5167 7.7071C12.7042 7.89464 12.9585 7.99999 13.2238 7.99999Z" fill="#343330"/>
</svg>
