<svg width="32" height="32" viewBox="0 0 32 32" fill="none" xmlns="http://www.w3.org/2000/svg">
<path d="M31 18C31 18.2652 30.8946 18.5196 30.7071 18.7071C30.5195 18.8946 30.2652 19 30 19H24C23.8142 19 23.6322 18.9483 23.4742 18.8506C23.3162 18.753 23.1886 18.6133 23.1055 18.4472C23.0225 18.2811 22.9873 18.0951 23.004 17.9102C23.0207 17.7252 23.0885 17.5486 23.2 17.4L28.5962 10.2062C28.769 9.97598 28.89 9.71112 28.9511 9.42978C29.0121 9.14844 29.0116 8.85724 28.9498 8.57608C28.8879 8.29492 28.7661 8.03043 28.5926 7.80069C28.4191 7.57094 28.1981 7.38135 27.9446 7.24488C27.6911 7.1084 27.4112 7.02826 27.1239 7.00992C26.8366 6.99158 26.5487 7.03549 26.2799 7.13863C26.0112 7.24177 25.7678 7.40172 25.5666 7.60755C25.3653 7.81338 25.2108 8.06023 25.1137 8.33124C25.07 8.4551 25.0022 8.56912 24.9144 8.6668C24.8266 8.76449 24.7204 8.84392 24.6019 8.90056C24.4834 8.95721 24.3549 8.98995 24.2237 8.99693C24.0926 9.00391 23.9613 8.98499 23.8375 8.94124C23.7136 8.8975 23.5996 8.82978 23.5019 8.74197C23.4042 8.65416 23.3248 8.54797 23.2681 8.42945C23.2115 8.31094 23.1787 8.18244 23.1718 8.05127C23.1648 7.9201 23.1837 7.78885 23.2275 7.66499C23.4201 7.12165 23.7279 6.62636 24.1297 6.21305C24.5316 5.79974 25.0181 5.47818 25.5558 5.27039C26.0935 5.06261 26.6698 4.97351 27.2452 5.0092C27.8206 5.04489 28.3814 5.20452 28.8894 5.47717C29.3973 5.74981 29.8403 6.12903 30.188 6.58883C30.5357 7.04864 30.7799 7.57817 30.9039 8.14115C31.0279 8.70414 31.0288 9.28727 30.9064 9.85061C30.784 10.414 30.5413 10.9442 30.195 11.405L26 17H30C30.2652 17 30.5195 17.1053 30.7071 17.2929C30.8946 17.4804 31 17.7348 31 18ZM18.655 9.24999C18.5558 9.16385 18.4405 9.09809 18.3159 9.05649C18.1913 9.01489 18.0597 8.99826 17.9286 9.00755C17.7975 9.01683 17.6696 9.05186 17.5521 9.11062C17.4346 9.16938 17.3298 9.25072 17.2437 9.34999L11.5 15.9737L5.75621 9.34874C5.57691 9.1723 5.3377 9.06992 5.08628 9.062C4.83485 9.05408 4.58967 9.14121 4.39963 9.30602C4.20958 9.47083 4.08863 9.70121 4.0609 9.95123C4.03316 10.2012 4.10066 10.4525 4.24996 10.655L10.1762 17.5L4.24996 24.345C4.16394 24.4443 4.09833 24.5596 4.05687 24.6843C4.0154 24.8089 3.9989 24.9405 4.0083 25.0716C4.0177 25.2026 4.05283 25.3305 4.11166 25.448C4.1705 25.5655 4.25189 25.6702 4.35121 25.7562C4.55178 25.93 4.81314 26.0169 5.0778 25.9979C5.20885 25.9885 5.33676 25.9534 5.45423 25.8945C5.57171 25.8357 5.67644 25.7543 5.76246 25.655L11.5125 19.03L17.2562 25.655C17.4299 25.8556 17.6762 25.9789 17.9409 25.9979C18.2055 26.0169 18.4669 25.93 18.6675 25.7562C18.868 25.5825 18.9914 25.3362 19.0104 25.0716C19.0293 24.8069 18.9424 24.5456 18.7687 24.345L12.8237 17.5L18.7562 10.655C18.9281 10.4548 19.0139 10.1948 18.995 9.93164C18.976 9.66847 18.8538 9.42346 18.655 9.24999Z" fill="#343330"/>
</svg>
