<svg width="32" height="32" viewBox="0 0 32 32" fill="none" xmlns="http://www.w3.org/2000/svg">
<path d="M19 7V22C19 22.2652 18.8946 22.5196 18.7071 22.7071C18.5196 22.8946 18.2652 23 18 23C17.7348 23 17.4804 22.8946 17.2929 22.7071C17.1054 22.5196 17 22.2652 17 22V15.5H6V22C6 22.2652 5.89464 22.5196 5.70711 22.7071C5.51957 22.8946 5.26522 23 5 23C4.73478 23 4.48043 22.8946 4.29289 22.7071C4.10536 22.5196 4 22.2652 4 22V7C4 6.73478 4.10536 6.48043 4.29289 6.29289C4.48043 6.10536 4.73478 6 5 6C5.26522 6 5.51957 6.10536 5.70711 6.29289C5.89464 6.48043 6 6.73478 6 7V13.5H17V7C17 6.73478 17.1054 6.48043 17.2929 6.29289C17.4804 6.10536 17.7348 6 18 6C18.2652 6 18.5196 6.10536 18.7071 6.29289C18.8946 6.48043 19 6.73478 19 7ZM32 23C32 23.2652 31.8946 23.5196 31.7071 23.7071C31.5196 23.8946 31.2652 24 31 24H30V26C30 26.2652 29.8946 26.5196 29.7071 26.7071C29.5196 26.8946 29.2652 27 29 27C28.7348 27 28.4804 26.8946 28.2929 26.7071C28.1054 26.5196 28 26.2652 28 26V24H22C21.8129 23.9999 21.6296 23.9472 21.4709 23.8481C21.3122 23.7489 21.1845 23.6072 21.1023 23.4391C21.0202 23.271 20.9868 23.0832 21.0061 22.8971C21.0253 22.711 21.0964 22.534 21.2113 22.3862L28.2113 13.3862C28.3392 13.222 28.5153 13.1018 28.7149 13.0425C28.9145 12.9831 29.1276 12.9875 29.3245 13.0551C29.5215 13.1227 29.6924 13.25 29.8135 13.4194C29.9346 13.5888 29.9998 13.7918 30 14V22H31C31.2652 22 31.5196 22.1054 31.7071 22.2929C31.8946 22.4804 32 22.7348 32 23ZM28 16.915L24.045 22H28V16.915Z" fill="#343330"/>
</svg>
