<svg width="32" height="32" viewBox="0 0 32 32" fill="none" xmlns="http://www.w3.org/2000/svg">
<path d="M7.57375 21.905C7.69259 21.961 7.8213 21.9931 7.95253 21.9993C8.08377 22.0056 8.21495 21.9859 8.33858 21.9415C8.46221 21.897 8.57587 21.8286 8.67305 21.7402C8.77024 21.6518 8.84906 21.5451 8.905 21.4263L10.9875 17H21.0125L23.095 21.4263C23.151 21.5451 23.2298 21.6518 23.327 21.7401C23.4242 21.8285 23.5379 21.8969 23.6615 21.9413C23.7851 21.9858 23.9163 22.0055 24.0475 21.9992C24.1787 21.993 24.3074 21.961 24.4263 21.905C24.5451 21.849 24.6518 21.7702 24.7401 21.673C24.8285 21.5758 24.8969 21.4621 24.9413 21.3385C24.9858 21.2149 25.0055 21.0837 24.9992 20.9525C24.993 20.8213 24.961 20.6926 24.905 20.5737L16.905 3.57375C16.8242 3.40195 16.6963 3.25669 16.536 3.15494C16.3757 3.05319 16.1898 2.99916 16 2.99916C15.8102 2.99916 15.6243 3.05319 15.464 3.15494C15.3037 3.25669 15.1758 3.40195 15.095 3.57375L7.095 20.5737C7.03898 20.6926 7.00692 20.8213 7.00066 20.9525C6.9944 21.0838 7.01406 21.2149 7.05853 21.3386C7.10299 21.4622 7.17137 21.5759 7.25978 21.6731C7.34818 21.7702 7.45487 21.8491 7.57375 21.905ZM16 6.34875L20.0713 15H11.9288L16 6.34875ZM28 27C28 27.2652 27.8946 27.5196 27.7071 27.7071C27.5196 27.8946 27.2652 28 27 28H5C4.73478 28 4.48043 27.8946 4.29289 27.7071C4.10536 27.5196 4 27.2652 4 27C4 26.7348 4.10536 26.4804 4.29289 26.2929C4.48043 26.1054 4.73478 26 5 26H27C27.2652 26 27.5196 26.1054 27.7071 26.2929C27.8946 26.4804 28 26.7348 28 27Z" fill="#343330"/>
</svg>
