<svg width="32" height="32" viewBox="0 0 32 32" fill="none" xmlns="http://www.w3.org/2000/svg">
<path d="M28.0001 16C28.0001 16.2652 27.8947 16.5196 27.7072 16.7071C27.5196 16.8947 27.2653 17 27.0001 17H14.0001C13.7348 17 13.4805 16.8947 13.2929 16.7071C13.1054 16.5196 13.0001 16.2652 13.0001 16C13.0001 15.7348 13.1054 15.4804 13.2929 15.2929C13.4805 15.1054 13.7348 15 14.0001 15H27.0001C27.2653 15 27.5196 15.1054 27.7072 15.2929C27.8947 15.4804 28.0001 15.7348 28.0001 16ZM14.0001 9.00001H27.0001C27.2653 9.00001 27.5196 8.89465 27.7072 8.70711C27.8947 8.51958 28.0001 8.26522 28.0001 8.00001C28.0001 7.73479 27.8947 7.48044 27.7072 7.2929C27.5196 7.10536 27.2653 7.00001 27.0001 7.00001H14.0001C13.7348 7.00001 13.4805 7.10536 13.2929 7.2929C13.1054 7.48044 13.0001 7.73479 13.0001 8.00001C13.0001 8.26522 13.1054 8.51958 13.2929 8.70711C13.4805 8.89465 13.7348 9.00001 14.0001 9.00001ZM27.0001 23H5.00005C4.73484 23 4.48048 23.1054 4.29295 23.2929C4.10541 23.4804 4.00005 23.7348 4.00005 24C4.00005 24.2652 4.10541 24.5196 4.29295 24.7071C4.48048 24.8947 4.73484 25 5.00005 25H27.0001C27.2653 25 27.5196 24.8947 27.7072 24.7071C27.8947 24.5196 28.0001 24.2652 28.0001 24C28.0001 23.7348 27.8947 23.4804 27.7072 23.2929C27.5196 23.1054 27.2653 23 27.0001 23ZM4.29255 17.7075C4.38543 17.8005 4.49572 17.8742 4.61711 17.9246C4.73851 17.9749 4.86864 18.0008 5.00005 18.0008C5.13147 18.0008 5.2616 17.9749 5.38299 17.9246C5.50439 17.8742 5.61468 17.8005 5.70755 17.7075L10.7076 12.7075C10.8005 12.6146 10.8743 12.5043 10.9246 12.3829C10.9749 12.2615 11.0008 12.1314 11.0008 12C11.0008 11.8686 10.9749 11.7385 10.9246 11.6171C10.8743 11.4957 10.8005 11.3854 10.7076 11.2925L5.70755 6.29251C5.51991 6.10487 5.26542 5.99945 5.00005 5.99945C4.73469 5.99945 4.48019 6.10487 4.29255 6.29251C4.10491 6.48015 3.9995 6.73464 3.9995 7.00001C3.9995 7.26537 4.10491 7.51987 4.29255 7.70751L8.5863 12L4.29255 16.2925C4.19958 16.3854 4.12582 16.4957 4.07549 16.6171C4.02517 16.7385 3.99927 16.8686 3.99927 17C3.99927 17.1314 4.02517 17.2615 4.07549 17.3829C4.12582 17.5043 4.19958 17.6146 4.29255 17.7075Z" fill="#343330"/>
</svg>
