<svg width="32" height="32" viewBox="0 0 32 32" fill="none" xmlns="http://www.w3.org/2000/svg">
<path d="M16 19.125V6C16 5.73478 15.8946 5.48043 15.7071 5.29289C15.5196 5.10536 15.2652 5 15 5C14.7348 5 14.4804 5.10536 14.2929 5.29289C14.1054 5.48043 14 5.73478 14 6V19.125C13.0573 19.3684 12.2358 19.9472 11.6894 20.753C11.143 21.5588 10.9092 22.5362 11.0319 23.502C11.1546 24.4678 11.6253 25.3557 12.3558 25.9993C13.0863 26.6429 14.0264 26.998 15 26.998C15.9736 26.998 16.9137 26.6429 17.6442 25.9993C18.3747 25.3557 18.8454 24.4678 18.9681 23.502C19.0908 22.5362 18.857 21.5588 18.3106 20.753C17.7642 19.9472 16.9427 19.3684 16 19.125ZM15 25C14.6044 25 14.2178 24.8827 13.8889 24.6629C13.56 24.4432 13.3036 24.1308 13.1522 23.7654C13.0009 23.3999 12.9613 22.9978 13.0384 22.6098C13.1156 22.2219 13.3061 21.8655 13.5858 21.5858C13.8655 21.3061 14.2219 21.1156 14.6098 21.0384C14.9978 20.9613 15.3999 21.0009 15.7654 21.1522C16.1308 21.3036 16.4432 21.56 16.6629 21.8889C16.8827 22.2178 17 22.6044 17 23C17 23.5304 16.7893 24.0391 16.4142 24.4142C16.0391 24.7893 15.5304 25 15 25ZM20 16.75V6C20 4.67392 19.4732 3.40215 18.5355 2.46447C17.5979 1.52678 16.3261 1 15 1C13.6739 1 12.4021 1.52678 11.4645 2.46447C10.5268 3.40215 10 4.67392 10 6V16.75C8.70615 17.7859 7.76599 19.1981 7.30946 20.7915C6.85293 22.3848 6.90256 24.0806 7.45149 25.6445C8.00043 27.2084 9.02156 28.5633 10.3738 29.5217C11.726 30.4802 13.3425 30.995 15 30.995C16.6575 30.995 18.274 30.4802 19.6262 29.5217C20.9784 28.5633 21.9996 27.2084 22.5485 25.6445C23.0974 24.0806 23.1471 22.3848 22.6905 20.7915C22.234 19.1981 21.2939 17.7859 20 16.75ZM15 29C13.7224 29.0001 12.4782 28.5924 11.4484 27.8363C10.4186 27.0801 9.65707 26.0151 9.27464 24.7961C8.8922 23.5771 8.90885 22.2678 9.32215 21.059C9.73545 19.8501 10.5238 18.8047 11.5725 18.075C11.7052 17.9823 11.8134 17.8589 11.8879 17.7152C11.9624 17.5715 12.0008 17.4118 12 17.25V6C12 5.20435 12.3161 4.44129 12.8787 3.87868C13.4413 3.31607 14.2044 3 15 3C15.7956 3 16.5587 3.31607 17.1213 3.87868C17.6839 4.44129 18 5.20435 18 6V17.25C18 17.411 18.0388 17.5696 18.1133 17.7124C18.1877 17.8551 18.2955 17.9778 18.4275 18.07C19.4784 18.799 20.2688 19.8446 20.6835 21.0545C21.0982 22.2643 21.1155 23.575 20.7328 24.7953C20.3501 26.0157 19.5875 27.0818 18.5562 27.8382C17.5249 28.5946 16.2789 29.0016 15 29ZM22.1625 10.0962C22.0177 9.87412 21.967 9.60356 22.0216 9.34406C22.0762 9.08457 22.2317 8.85739 22.4538 8.7125C24.3288 7.48875 25.8125 8.11875 26.8925 8.58C27.875 9 28.47 9.25 29.4538 8.61125C29.676 8.46638 29.9468 8.41574 30.2064 8.47047C30.466 8.52521 30.6933 8.68084 30.8381 8.90312C30.983 9.12541 31.0336 9.39614 30.9789 9.65576C30.9242 9.91538 30.7685 10.1426 30.5462 10.2875C29.735 10.8163 29 11 28.3363 11C27.4613 11 26.7213 10.6825 26.1075 10.4213C25.125 10 24.53 9.75 23.5462 10.3888C23.4362 10.4604 23.3131 10.5097 23.184 10.5338C23.0549 10.5579 22.9223 10.5563 22.7938 10.5291C22.6653 10.502 22.5434 10.4497 22.4351 10.3755C22.3268 10.3012 22.2341 10.2063 22.1625 10.0962ZM30.8375 12.9038C30.9823 13.1259 31.033 13.3964 30.9784 13.6559C30.9238 13.9154 30.7683 14.1426 30.5462 14.2875C29.735 14.8163 29 15 28.3363 15C27.4613 15 26.7213 14.6825 26.1075 14.4213C25.1238 14.0013 24.53 13.7488 23.5462 14.39C23.4362 14.4617 23.3131 14.5111 23.1839 14.5352C23.0548 14.5594 22.9222 14.5579 22.7936 14.5308C22.6651 14.5037 22.5431 14.4515 22.4347 14.3773C22.3263 14.303 22.2336 14.2082 22.1619 14.0981C22.017 13.8758 21.9664 13.6051 22.0211 13.3455C22.0758 13.0859 22.2315 12.8586 22.4538 12.7137C24.3288 11.49 25.8125 12.12 26.8925 12.5813C27.8762 13.0013 28.47 13.255 29.4538 12.6125C29.6759 12.4677 29.9464 12.417 30.2059 12.4716C30.4654 12.5262 30.6926 12.6817 30.8375 12.9038Z" fill="#343330"/>
</svg>
