<svg width="32" height="32" viewBox="0 0 32 32" fill="none" xmlns="http://www.w3.org/2000/svg">
<path d="M12 18.5C12 18.1717 11.9353 17.8466 11.8097 17.5433C11.6841 17.24 11.4999 16.9644 11.2678 16.7322C11.0356 16.5001 10.76 16.3159 10.4567 16.1903C10.1534 16.0647 9.8283 16 9.5 16C9.31707 15.9999 9.13765 15.9497 8.98128 15.8548C8.82491 15.7598 8.69759 15.6238 8.61316 15.4615C8.52873 15.2992 8.49043 15.1169 8.50244 14.9344C8.51444 14.7518 8.57629 14.5761 8.68125 14.4263L11.0787 11H7C6.73478 11 6.48043 10.8946 6.29289 10.7071C6.10536 10.5196 6 10.2652 6 10C6 9.73478 6.10536 9.48043 6.29289 9.29289C6.48043 9.10536 6.73478 9 7 9H13C13.1829 9.00005 13.3623 9.05028 13.5187 9.14522C13.6751 9.24017 13.8024 9.37618 13.8868 9.53847C13.9713 9.70076 14.0096 9.88309 13.9976 10.0656C13.9856 10.2482 13.9237 10.4239 13.8188 10.5737L11.1938 14.3237C12.1654 14.7136 12.9706 15.4301 13.4709 16.3498C13.9711 17.2694 14.1351 18.3347 13.9345 19.3622C13.7339 20.3898 13.1813 21.3152 12.3719 21.9792C11.5625 22.6432 10.5469 23.0042 9.5 23C8.90106 23.0019 8.30787 22.8832 7.75575 22.6511C7.20363 22.419 6.70388 22.0781 6.28625 21.6488C6.18854 21.5563 6.11048 21.4451 6.05674 21.3218C6.00301 21.1985 5.9747 21.0656 5.97352 20.9311C5.97234 20.7966 5.99831 20.6632 6.04987 20.539C6.10143 20.4147 6.17753 20.3022 6.2736 20.208C6.36968 20.1139 6.48376 20.0401 6.60902 19.9911C6.73428 19.9421 6.86814 19.9188 7.0026 19.9227C7.13705 19.9267 7.26934 19.9577 7.39153 20.0139C7.51372 20.0701 7.62332 20.1504 7.71375 20.25C8.06131 20.6049 8.50673 20.8483 8.99318 20.949C9.47964 21.0497 9.98507 21.0032 10.445 20.8154C10.9049 20.6277 11.2984 20.3071 11.5754 19.8947C11.8524 19.4823 12.0002 18.9968 12 18.5ZM20 9C21.8565 9 23.637 9.7375 24.9497 11.0503C26.2625 12.363 27 14.1435 27 16C27 17.8565 26.2625 19.637 24.9497 20.9497C23.637 22.2625 21.8565 23 20 23H17C16.7348 23 16.4804 22.8946 16.2929 22.7071C16.1054 22.5196 16 22.2652 16 22V10C16 9.73478 16.1054 9.48043 16.2929 9.29289C16.4804 9.10536 16.7348 9 17 9H20ZM20 11H18V21H20C21.3261 21 22.5979 20.4732 23.5355 19.5355C24.4732 18.5979 25 17.3261 25 16C25 14.6739 24.4732 13.4021 23.5355 12.4645C22.5979 11.5268 21.3261 11 20 11ZM4 7H28C28.2652 7 28.5196 6.89464 28.7071 6.70711C28.8946 6.51957 29 6.26522 29 6C29 5.73478 28.8946 5.48043 28.7071 5.29289C28.5196 5.10536 28.2652 5 28 5H4C3.73478 5 3.48043 5.10536 3.29289 5.29289C3.10536 5.48043 3 5.73478 3 6C3 6.26522 3.10536 6.51957 3.29289 6.70711C3.48043 6.89464 3.73478 7 4 7ZM28 25H4C3.73478 25 3.48043 25.1054 3.29289 25.2929C3.10536 25.4804 3 25.7348 3 26C3 26.2652 3.10536 26.5196 3.29289 26.7071C3.48043 26.8946 3.73478 27 4 27H28C28.2652 27 28.5196 26.8946 28.7071 26.7071C28.8946 26.5196 29 26.2652 29 26C29 25.7348 28.8946 25.4804 28.7071 25.2929C28.5196 25.1054 28.2652 25 28 25Z" fill="#343330"/>
</svg>
