<svg width="32" height="32" viewBox="0 0 32 32" fill="none" xmlns="http://www.w3.org/2000/svg">
<path d="M31.7083 11.2925L26.7083 6.29249C26.6154 6.19952 26.5051 6.12576 26.3837 6.07543C26.2623 6.02511 26.1322 5.99921 26.0008 5.99921C25.8694 5.99921 25.7392 6.02511 25.6178 6.07543C25.4964 6.12576 25.3862 6.19952 25.2933 6.29249L21.0008 10.5862L16.7083 6.29249C16.6154 6.19952 16.5051 6.12576 16.3837 6.07543C16.2623 6.02511 16.1322 5.99921 16.0008 5.99921C15.8694 5.99921 15.7392 6.02511 15.6178 6.07543C15.4964 6.12576 15.3862 6.19952 15.2933 6.29249L11.0008 10.5862L6.70829 6.29249C6.61541 6.19952 6.50513 6.12576 6.38373 6.07543C6.26233 6.02511 6.1322 5.99921 6.00079 5.99921C5.86937 5.99921 5.73924 6.02511 5.61785 6.07543C5.49645 6.12576 5.38616 6.19952 5.29329 6.29249L0.293287 11.2925C0.20031 11.3854 0.126551 11.4957 0.0762269 11.6171C0.0259026 11.7385 0 11.8686 0 12C0 12.1314 0.0259026 12.2615 0.0762269 12.3829C0.126551 12.5043 0.20031 12.6146 0.293287 12.7075L5.29329 17.7075C5.38616 17.8005 5.49645 17.8742 5.61785 17.9246C5.73924 17.9749 5.86937 18.0008 6.00079 18.0008C6.1322 18.0008 6.26233 17.9749 6.38373 17.9246C6.50513 17.8742 6.61541 17.8005 6.70829 17.7075L11.0008 13.4137L14.587 17L10.2933 21.2925C10.2003 21.3854 10.1266 21.4957 10.0762 21.6171C10.0259 21.7385 10 21.8686 10 22C10 22.1314 10.0259 22.2615 10.0762 22.3829C10.1266 22.5043 10.2003 22.6146 10.2933 22.7075L15.2933 27.7075C15.3862 27.8005 15.4964 27.8742 15.6178 27.9246C15.7392 27.9749 15.8694 28.0008 16.0008 28.0008C16.1322 28.0008 16.2623 27.9749 16.3837 27.9246C16.5051 27.8742 16.6154 27.8005 16.7083 27.7075L21.7083 22.7075C21.8013 22.6146 21.875 22.5043 21.9253 22.3829C21.9757 22.2615 22.0016 22.1314 22.0016 22C22.0016 21.8686 21.9757 21.7385 21.9253 21.6171C21.875 21.4957 21.8013 21.3854 21.7083 21.2925L17.4145 17L21.0008 13.4137L25.2933 17.7075C25.3862 17.8005 25.4964 17.8742 25.6178 17.9246C25.7392 17.9749 25.8694 18.0008 26.0008 18.0008C26.1322 18.0008 26.2623 17.9749 26.3837 17.9246C26.5051 17.8742 26.6154 17.8005 26.7083 17.7075L31.7083 12.7075C31.8013 12.6146 31.875 12.5043 31.9253 12.3829C31.9757 12.2615 32.0016 12.1314 32.0016 12C32.0016 11.8686 31.9757 11.7385 31.9253 11.6171C31.875 11.4957 31.8013 11.3854 31.7083 11.2925ZM6.00079 15.5862L2.41454 12L6.00079 8.41374L9.58704 12L6.00079 15.5862ZM16.0008 25.5862L12.4145 22L16.0008 18.4137L19.587 22L16.0008 25.5862ZM16.0008 15.5862L12.4145 12L16.0008 8.41374L19.587 12L16.0008 15.5862ZM26.0008 15.5862L22.4145 12L26.0008 8.41374L29.587 12L26.0008 15.5862Z" fill="#343330"/>
</svg>
