<svg width="32" height="32" viewBox="0 0 32 32" fill="none" xmlns="http://www.w3.org/2000/svg">
<path d="M27.7787 16.3238C25.965 18.5738 24.1737 19.7738 22.3037 19.97C22.1169 19.9898 21.9291 19.9999 21.7412 20C19.3287 20 17.3175 18.3625 15.3662 16.775C13.5025 15.2575 11.7412 13.8238 9.90372 14.025C8.58997 14.1625 7.23997 15.115 5.77872 16.935C5.60802 17.1256 5.37077 17.2435 5.11577 17.2645C4.86077 17.2855 4.60744 17.2079 4.4079 17.0477C4.20836 16.8876 4.07779 16.6571 4.04307 16.4036C4.00834 16.1501 4.0721 15.8929 4.22122 15.685C6.03497 13.435 7.82622 12.235 9.69622 12.0388C12.3612 11.7575 14.5325 13.525 16.6312 15.2338C18.495 16.7513 20.2562 18.1863 22.0937 17.9838C23.4075 17.8463 24.7575 16.8938 26.2187 15.0738C26.2979 14.9634 26.3988 14.8702 26.5152 14.8001C26.6315 14.73 26.761 14.6843 26.8956 14.6659C27.0302 14.6474 27.1672 14.6566 27.2981 14.6929C27.4291 14.7291 27.5513 14.7917 27.6572 14.8767C27.7632 14.9618 27.8507 15.0675 27.9145 15.1875C27.9782 15.3075 28.0168 15.4392 28.028 15.5747C28.0391 15.7101 28.0225 15.8463 27.9792 15.9751C27.9359 16.1039 27.8669 16.2226 27.7762 16.3238H27.7787Z" fill="#343330"/>
</svg>
