<svg width="32" height="32" viewBox="0 0 32 32" fill="none" xmlns="http://www.w3.org/2000/svg">
<path d="M29.8425 26.4612L17.1875 6.6875L19.8425 2.53875C19.9133 2.42811 19.9615 2.30462 19.9845 2.17533C20.0076 2.04604 20.0049 1.91348 19.9767 1.78521C19.9485 1.65695 19.8953 1.5355 19.8202 1.4278C19.745 1.3201 19.6494 1.22825 19.5388 1.1575C19.4281 1.08675 19.3046 1.03848 19.1753 1.01546C19.046 0.992435 18.9135 0.995101 18.7852 1.02331C18.657 1.05151 18.5355 1.10471 18.4278 1.17985C18.3201 1.25499 18.2283 1.35061 18.1575 1.46125L16 4.8325L13.8425 1.4575C13.6996 1.23405 13.4738 1.07652 13.2148 1.01956C12.9558 0.962593 12.6847 1.01086 12.4613 1.15375C12.2378 1.29663 12.0803 1.52243 12.0233 1.78146C11.9663 2.0405 12.0146 2.31155 12.1575 2.535L14.8125 6.6875L2.1575 26.4612C2.06086 26.6124 2.00665 26.7867 2.00055 26.966C1.99445 27.1453 2.03669 27.3229 2.12284 27.4802C2.20899 27.6376 2.33588 27.7689 2.4902 27.8603C2.64453 27.9518 2.82062 28 3 28H29C29.1794 28 29.3555 27.9518 29.5098 27.8603C29.6641 27.7689 29.791 27.6376 29.8772 27.4802C29.9633 27.3229 30.0056 27.1453 29.9995 26.966C29.9934 26.7867 29.9391 26.6124 29.8425 26.4612ZM10.7875 26L16 17.855L21.2125 26H10.7875ZM23.5875 26L16.8375 15.4612C16.7471 15.3198 16.6225 15.2034 16.4753 15.1228C16.328 15.0422 16.1629 14.9999 15.995 14.9999C15.8271 14.9999 15.662 15.0422 15.5147 15.1228C15.3675 15.2034 15.2429 15.3198 15.1525 15.4612L8.4125 26H4.8275L16 8.5425L27.1725 26H23.5875Z" fill="#343330"/>
</svg>
