<svg width="32" height="32" viewBox="0 0 32 32" fill="none" xmlns="http://www.w3.org/2000/svg">
<path d="M18.6575 19.9075C19.3862 21.7275 20.4375 22 21 22C21.5625 22 22.6138 21.7275 23.3425 19.9075C23.7663 18.8475 24 17.46 24 16C24 14.54 23.7663 13.1525 23.3425 12.0925C22.6138 10.2725 21.5625 10 21 10C20.4375 10 19.3862 10.2725 18.6575 12.0925C18.2337 13.1525 18 14.54 18 16C18 17.46 18.2337 18.8475 18.6575 19.9075ZM21 12.025C21.3275 12.2825 22 13.65 22 16C22 18.35 21.3275 19.7175 21 19.975C20.6725 19.7175 20 18.35 20 16C20 13.65 20.6725 12.2825 21 12.025ZM29 27H24.5513C26.64 24.7162 28 20.6838 28 16C28 8.71 24.7062 3 20.5 3H11.5C7.29375 3 4 8.71 4 16C4 23.29 7.29375 29 11.5 29H29C29.2652 29 29.5196 28.8946 29.7071 28.7071C29.8946 28.5196 30 28.2652 30 28C30 27.7348 29.8946 27.4804 29.7071 27.2929C29.5196 27.1054 29.2652 27 29 27ZM24.2175 7.99125C25.3663 10.1137 26 12.9587 26 16C26 19.0413 25.3663 21.8863 24.2175 24.0088C23.1725 25.9375 21.8525 27 20.5 27C19.1475 27 17.8275 25.9375 16.7825 24.0088C15.6337 21.8863 15 19.0413 15 16C15 12.9587 15.6337 10.1137 16.7825 7.99125C17.8275 6.0625 19.1475 5 20.5 5C21.8525 5 23.1725 6.0625 24.2175 7.99125ZM6 16C6 15.6875 6.00875 15.375 6.02125 15.07L10 12.2288L13.0538 14.41C13.0188 14.93 13 15.4613 13 16C12.9968 17.4048 13.1253 18.8067 13.3837 20.1875L10.5813 18.1875C10.4116 18.0664 10.2084 18.0012 10 18.0012C9.79157 18.0012 9.58835 18.0664 9.41875 18.1875L6.45125 20.3125C6.14596 18.8954 5.99467 17.4496 6 16ZM7.7825 7.99125C8.8275 6.0625 10.1475 5 11.5 5H16.4487C14.9612 6.625 13.8438 9.14 13.3237 12.145L10.5813 10.1862C10.4116 10.0651 10.2084 9.99998 10 9.99998C9.79157 9.99998 9.58835 10.0651 9.41875 10.1862L6.31125 12.4062C6.60625 10.75 7.10375 9.25 7.7825 7.99125ZM7.7825 24.0088C7.49484 23.4725 7.24668 22.9161 7.04 22.3438L10 20.2288L14.2425 23.2588C14.8175 24.7588 15.5675 26.0362 16.4487 27H11.5C10.1475 27 8.8275 25.9375 7.7825 24.0088Z" fill="#343330"/>
</svg>
