<svg width="32" height="32" viewBox="0 0 32 32" fill="none" xmlns="http://www.w3.org/2000/svg">
<path d="M29 5C29 5.26522 28.8946 5.51957 28.7071 5.70711C28.5196 5.89464 28.2652 6 28 6H7C6.73478 6 6.48043 5.89464 6.29289 5.70711C6.10536 5.51957 6 5.26522 6 5C6 4.73478 6.10536 4.48043 6.29289 4.29289C6.48043 4.10536 6.73478 4 7 4H28C28.2652 4 28.5196 4.10536 28.7071 4.29289C28.8946 4.48043 29 4.73478 29 5ZM23 9C23 8.73478 22.8946 8.48043 22.7071 8.29289C22.5196 8.10536 22.2652 8 22 8H4C3.73478 8 3.48043 8.10536 3.29289 8.29289C3.10536 8.48043 3 8.73478 3 9C3 9.26522 3.10536 9.51957 3.29289 9.70711C3.48043 9.89464 3.73478 10 4 10H22C22.2652 10 22.5196 9.89464 22.7071 9.70711C22.8946 9.51957 23 9.26522 23 9ZM21 13C21 12.7348 20.8946 12.4804 20.7071 12.2929C20.5196 12.1054 20.2652 12 20 12H7C6.73478 12 6.48043 12.1054 6.29289 12.2929C6.10536 12.4804 6 12.7348 6 13C6 13.2652 6.10536 13.5196 6.29289 13.7071C6.48043 13.8946 6.73478 14 7 14H20C20.2652 14 20.5196 13.8946 20.7071 13.7071C20.8946 13.5196 21 13.2652 21 13ZM23 17C23 16.7348 22.8946 16.4804 22.7071 16.2929C22.5196 16.1054 22.2652 16 22 16H11C10.7348 16 10.4804 16.1054 10.2929 16.2929C10.1054 16.4804 10 16.7348 10 17C10 17.2652 10.1054 17.5196 10.2929 17.7071C10.4804 17.8946 10.7348 18 11 18H22C22.2652 18 22.5196 17.8946 22.7071 17.7071C22.8946 17.5196 23 17.2652 23 17ZM23 20H15C14.7348 20 14.4804 20.1054 14.2929 20.2929C14.1054 20.4804 14 20.7348 14 21C14 21.2652 14.1054 21.5196 14.2929 21.7071C14.4804 21.8946 14.7348 22 15 22H23C23.2652 22 23.5196 21.8946 23.7071 21.7071C23.8946 21.5196 24 21.2652 24 21C24 20.7348 23.8946 20.4804 23.7071 20.2929C23.5196 20.1054 23.2652 20 23 20ZM20 24H16C15.7348 24 15.4804 24.1054 15.2929 24.2929C15.1054 24.4804 15 24.7348 15 25C15 25.2652 15.1054 25.5196 15.2929 25.7071C15.4804 25.8946 15.7348 26 16 26H20C20.2652 26 20.5196 25.8946 20.7071 25.7071C20.8946 25.5196 21 25.2652 21 25C21 24.7348 20.8946 24.4804 20.7071 24.2929C20.5196 24.1054 20.2652 24 20 24ZM16 28H14C13.7348 28 13.4804 28.1054 13.2929 28.2929C13.1054 28.4804 13 28.7348 13 29C13 29.2652 13.1054 29.5196 13.2929 29.7071C13.4804 29.8946 13.7348 30 14 30H16C16.2652 30 16.5196 29.8946 16.7071 29.7071C16.8946 29.5196 17 29.2652 17 29C17 28.7348 16.8946 28.4804 16.7071 28.2929C16.5196 28.1054 16.2652 28 16 28Z" fill="#343330"/>
</svg>
