<svg width="32" height="32" viewBox="0 0 32 32" fill="none" xmlns="http://www.w3.org/2000/svg">
<path d="M25 3H9C8.20435 3 7.44129 3.31607 6.87868 3.87868C6.31607 4.44129 6 5.20435 6 6V27C6 27.5304 6.21071 28.0391 6.58579 28.4142C6.96086 28.7893 7.46957 29 8 29H22C22.5304 29 23.0391 28.7893 23.4142 28.4142C23.7893 28.0391 24 27.5304 24 27V6C24 5.73478 24.1054 5.48043 24.2929 5.29289C24.4804 5.10536 24.7348 5 25 5C25.2652 5 25.5196 5.10536 25.7071 5.29289C25.8946 5.48043 26 5.73478 26 6V19C26 19.2652 26.1054 19.5196 26.2929 19.7071C26.4804 19.8946 26.7348 20 27 20C27.2652 20 27.5196 19.8946 27.7071 19.7071C27.8946 19.5196 28 19.2652 28 19V6C28 5.20435 27.6839 4.44129 27.1213 3.87868C26.5587 3.31607 25.7956 3 25 3ZM9 5H22.1712C22.0574 5.32109 21.9995 5.65933 22 6V23H8V6C8 5.73478 8.10536 5.48043 8.29289 5.29289C8.48043 5.10536 8.73478 5 9 5ZM8 27V25H22V27H8Z" fill="#343330"/>
</svg>
