<svg width="32" height="32" viewBox="0 0 32 32" fill="none" xmlns="http://www.w3.org/2000/svg">
<path d="M30 20.6763V16.75C30.0021 16.3195 29.8643 15.8999 29.6073 15.5546C29.3503 15.2092 28.988 14.9566 28.575 14.835L28.5488 14.8275L24 13.5887V9C24 8.73478 23.8946 8.48043 23.7071 8.29289C23.5196 8.10536 23.2652 8 23 8C22.7348 8 22.4804 8.10536 22.2929 8.29289C22.1054 8.48043 22 8.73478 22 9V13.0475L19 12.235V7H20C20.2652 7 20.5196 6.89464 20.7071 6.70711C20.8946 6.51957 21 6.26522 21 6C21 5.73478 20.8946 5.48043 20.7071 5.29289C20.5196 5.10536 20.2652 5 20 5H5C4.73479 5 4.48043 5.10536 4.2929 5.29289C4.10536 5.48043 4 5.73478 4 6C4 6.26522 4.10536 6.51957 4.2929 6.70711C4.48043 6.89464 4.73479 7 5 7H6V11H5C4.73479 11 4.48043 11.1054 4.2929 11.2929C4.10536 11.4804 4 11.7348 4 12C4 12.2652 4.10536 12.5196 4.2929 12.7071C4.48043 12.8946 4.73479 13 5 13H8.5C10.7536 13.0023 12.9143 13.8986 14.5079 15.4922C16.1014 17.0857 16.9977 19.2464 17 21.5V23C17 23.2652 17.1054 23.5196 17.2929 23.7071C17.4804 23.8946 17.7348 24 18 24H22.0288C22.1054 24.6949 22.3429 25.3624 22.7224 25.9496C23.102 26.5367 23.6131 27.0274 24.2153 27.3826C24.8175 27.7378 25.4941 27.9478 26.1916 27.996C26.8891 28.0442 27.5882 27.9292 28.2335 27.6601C28.8788 27.391 29.4525 26.9753 29.9091 26.4459C30.3658 25.9165 30.6928 25.288 30.8642 24.6102C31.0357 23.9324 31.0468 23.224 30.8968 22.5411C30.7468 21.8583 30.4398 21.2198 30 20.6763ZM8.5 11H8V7H17V15.3462C16.028 14.0011 14.7507 12.9057 13.2731 12.1501C11.7954 11.3946 10.1596 11.0004 8.5 11ZM19 14.3062L28 16.75V19.2625C26.8755 18.8645 25.6389 18.9292 24.5621 19.4426C23.4853 19.9559 22.6564 20.8758 22.2575 22H19V14.3062ZM26.5 26C26.0056 26 25.5222 25.8534 25.1111 25.5787C24.7 25.304 24.3795 24.9135 24.1903 24.4567C24.0011 23.9999 23.9516 23.4972 24.048 23.0123C24.1445 22.5273 24.3826 22.0819 24.7322 21.7322C25.0819 21.3826 25.5273 21.1445 26.0123 21.048C26.4972 20.9516 26.9999 21.0011 27.4567 21.1903C27.9135 21.3795 28.304 21.7 28.5787 22.1111C28.8534 22.5222 29 23.0055 29 23.5C29 24.163 28.7366 24.7989 28.2678 25.2678C27.7989 25.7366 27.163 26 26.5 26ZM8.5 15C7.21442 15 5.95772 15.3812 4.8888 16.0954C3.81988 16.8097 2.98676 17.8248 2.49479 19.0126C2.00282 20.2003 1.87409 21.5072 2.1249 22.7681C2.3757 24.029 2.99477 25.1872 3.90381 26.0962C4.81285 27.0052 5.97104 27.6243 7.23192 27.8751C8.49279 28.1259 9.79973 27.9972 10.9874 27.5052C12.1752 27.0132 13.1903 26.1801 13.9046 25.1112C14.6188 24.0423 15 22.7856 15 21.5C14.998 19.7767 14.3126 18.1246 13.094 16.906C11.8754 15.6874 10.2233 15.002 8.5 15ZM8.5 26C7.60999 26 6.73996 25.7361 5.99994 25.2416C5.25992 24.7471 4.68314 24.0443 4.34255 23.2221C4.00195 22.3998 3.91284 21.495 4.08647 20.6221C4.2601 19.7492 4.68869 18.9474 5.31802 18.318C5.94736 17.6887 6.74918 17.2601 7.6221 17.0865C8.49501 16.9128 9.39981 17.0019 10.2221 17.3425C11.0443 17.6831 11.7471 18.2599 12.2416 18.9999C12.7361 19.74 13 20.61 13 21.5C13 22.6935 12.5259 23.8381 11.682 24.682C10.8381 25.5259 9.69348 26 8.5 26ZM10 21.5C10 21.7967 9.91203 22.0867 9.74721 22.3334C9.58239 22.58 9.34812 22.7723 9.07403 22.8858C8.79994 22.9993 8.49834 23.0291 8.20737 22.9712C7.9164 22.9133 7.64912 22.7704 7.43934 22.5607C7.22956 22.3509 7.0867 22.0836 7.02882 21.7926C6.97095 21.5017 7.00065 21.2001 7.11418 20.926C7.22772 20.6519 7.41997 20.4176 7.66665 20.2528C7.91332 20.088 8.20333 20 8.5 20C8.89783 20 9.27936 20.158 9.56066 20.4393C9.84197 20.7206 10 21.1022 10 21.5Z" fill="#343330"/>
</svg>
