<svg width="32" height="32" viewBox="0 0 32 32" fill="none" xmlns="http://www.w3.org/2000/svg">
<path d="M27.965 14.7375L25.1663 4.47375C25.0508 4.05039 24.7993 3.67676 24.4505 3.41044C24.1017 3.14412 23.6751 2.9999 23.2362 3H8.76375C8.32493 2.9999 7.89825 3.14412 7.54948 3.41044C7.20071 3.67676 6.94922 4.05039 6.83375 4.47375L4.035 14.7375C3.98872 14.9094 3.98872 15.0906 4.035 15.2625L6.83375 25.5263C6.94922 25.9496 7.20071 26.3232 7.54948 26.5896C7.89825 26.8559 8.32493 27.0001 8.76375 27H10L8.2 29.4C8.12121 29.5051 8.06388 29.6246 8.03129 29.7518C7.9987 29.879 7.99148 30.0114 8.01005 30.1414C8.02862 30.2714 8.07262 30.3965 8.13953 30.5095C8.20643 30.6225 8.29494 30.7212 8.4 30.8C8.50506 30.8788 8.62461 30.9361 8.75182 30.9687C8.87903 31.0013 9.01142 31.0085 9.14142 30.99C9.27142 30.9714 9.3965 30.9274 9.50949 30.8605C9.62249 30.7936 9.72121 30.7051 9.8 30.6L12.5 27H19.5L22.2 30.6C22.3591 30.8122 22.596 30.9524 22.8586 30.99C23.1211 31.0275 23.3878 30.9591 23.6 30.8C23.8122 30.6409 23.9524 30.404 23.99 30.1414C24.0275 29.8789 23.9591 29.6122 23.8 29.4L22 27H23.2362C23.6751 27.0001 24.1017 26.8559 24.4505 26.5896C24.7993 26.3232 25.0508 25.9496 25.1663 25.5263L27.965 15.2625C28.0113 15.0906 28.0113 14.9094 27.965 14.7375ZM8.76375 5H23.2362L25.75 14.2113L16 15.9838L6.25 14.2113L8.76375 5ZM6.38875 16.2675L15 17.835V25H8.76375L6.38875 16.2675ZM23.2362 25H17V17.835L25.6175 16.2675L23.2362 25ZM11 11C11 10.7348 11.1054 10.4804 11.2929 10.2929C11.4804 10.1054 11.7348 10 12 10H20C20.2652 10 20.5196 10.1054 20.7071 10.2929C20.8946 10.4804 21 10.7348 21 11C21 11.2652 20.8946 11.5196 20.7071 11.7071C20.5196 11.8946 20.2652 12 20 12H12C11.7348 12 11.4804 11.8946 11.2929 11.7071C11.1054 11.5196 11 11.2652 11 11Z" fill="#343330"/>
</svg>
