<svg width="32" height="32" viewBox="0 0 32 32" fill="none" xmlns="http://www.w3.org/2000/svg">
<path d="M30.8937 26.5525L23.8937 12.5525C23.8107 12.3864 23.683 12.2468 23.5251 12.1491C23.3671 12.0515 23.1851 11.9998 22.9994 11.9998C22.8137 11.9998 22.6317 12.0515 22.4737 12.1491C22.3157 12.2468 22.1881 12.3864 22.105 12.5525L19.3913 17.9813C17.2641 17.8616 15.2175 17.1269 13.5 15.8663C15.5151 13.7143 16.7361 10.9395 16.9613 8H20C20.2652 8 20.5196 7.89464 20.7071 7.70711C20.8946 7.51957 21 7.26522 21 7C21 6.73478 20.8946 6.48043 20.7071 6.29289C20.5196 6.10536 20.2652 6 20 6H13V4C13 3.73478 12.8946 3.48043 12.7071 3.29289C12.5196 3.10536 12.2652 3 12 3C11.7348 3 11.4804 3.10536 11.2929 3.29289C11.1054 3.48043 11 3.73478 11 4V6H4C3.73478 6 3.48043 6.10536 3.29289 6.29289C3.10536 6.48043 3 6.73478 3 7C3 7.26522 3.10536 7.51957 3.29289 7.70711C3.48043 7.89464 3.73478 8 4 8H14.9537C14.731 10.4508 13.6907 12.7556 12 14.5437C10.9464 13.4321 10.1374 12.1121 9.625 10.6687C9.58287 10.5428 9.51607 10.4265 9.42852 10.3267C9.34096 10.2269 9.2344 10.1455 9.11505 10.0873C8.9957 10.029 8.86595 9.99518 8.73337 9.98765C8.6008 9.98013 8.46805 9.99908 8.34287 10.0434C8.2177 10.0877 8.10261 10.1565 8.00431 10.2458C7.90602 10.3351 7.82649 10.4431 7.77037 10.5634C7.71425 10.6838 7.68266 10.8141 7.67744 10.9468C7.67223 11.0795 7.6935 11.2119 7.74 11.3363C8.33658 13.0236 9.27634 14.569 10.5 15.875C8.61595 17.2595 6.33803 18.0042 4 18C3.73478 18 3.48043 18.1054 3.29289 18.2929C3.10536 18.4804 3 18.7348 3 19C3 19.2652 3.10536 19.5196 3.29289 19.7071C3.48043 19.8946 3.73478 20 4 20C6.90073 20.0032 9.71833 19.0312 12 17.24C13.862 18.6948 16.0847 19.6156 18.43 19.9037L15.105 26.5525C15.0462 26.67 15.0112 26.7978 15.0018 26.9288C14.9925 27.0598 15.009 27.1914 15.0505 27.316C15.1343 27.5676 15.3147 27.7757 15.5519 27.8944C15.7891 28.0131 16.0637 28.0327 16.3154 27.9488C16.567 27.865 16.7751 27.6847 16.8937 27.4475L18.6175 24H27.3813L29.105 27.4475C29.1881 27.6136 29.3159 27.7533 29.474 27.8509C29.6321 27.9485 29.8142 28.0001 30 28C30.1704 27.9999 30.338 27.9563 30.4869 27.8732C30.6357 27.7901 30.7608 27.6704 30.8503 27.5254C30.9399 27.3803 30.9909 27.2148 30.9985 27.0446C31.0061 26.8743 30.97 26.7049 30.8937 26.5525ZM19.6175 22L23 15.2362L26.3813 22H19.6175Z" fill="#343330"/>
</svg>
