<svg width="32" height="32" viewBox="0 0 32 32" fill="none" xmlns="http://www.w3.org/2000/svg">
<path d="M26 4H6C5.46957 4 4.96086 4.21071 4.58579 4.58579C4.21071 4.96086 4 5.46957 4 6V26C4 26.5304 4.21071 27.0391 4.58579 27.4142C4.96086 27.7893 5.46957 28 6 28H26C26.5304 28 27.0391 27.7893 27.4142 27.4142C27.7893 27.0391 28 26.5304 28 26V6C28 5.46957 27.7893 4.96086 27.4142 4.58579C27.0391 4.21071 26.5304 4 26 4ZM26 6V19H22.4125C22.15 18.9993 21.8899 19.0508 21.6474 19.1514C21.405 19.2521 21.1849 19.3999 21 19.5863L18.5863 22H13.4137L11 19.5863C10.815 19.3997 10.5947 19.2518 10.352 19.1512C10.1093 19.0506 9.84899 18.9992 9.58625 19H6V6H26ZM26 26H6V21H9.58625L12 23.4137C12.185 23.6003 12.4053 23.7482 12.648 23.8488C12.8907 23.9494 13.151 24.0008 13.4137 24H18.5863C18.849 24.0008 19.1093 23.9494 19.352 23.8488C19.5947 23.7482 19.815 23.6003 20 23.4137L22.4137 21H26V26ZM11.2925 13.7075C11.1995 13.6146 11.1258 13.5043 11.0754 13.3829C11.0251 13.2615 10.9992 13.1314 10.9992 13C10.9992 12.8686 11.0251 12.7385 11.0754 12.6171C11.1258 12.4957 11.1995 12.3854 11.2925 12.2925L15.2925 8.2925C15.3854 8.19952 15.4957 8.12576 15.6171 8.07544C15.7385 8.02512 15.8686 7.99921 16 7.99921C16.1314 7.99921 16.2615 8.02512 16.3829 8.07544C16.5043 8.12576 16.6146 8.19952 16.7075 8.2925L20.7075 12.2925C20.8004 12.3854 20.8741 12.4957 20.9244 12.6171C20.9747 12.7385 21.0006 12.8686 21.0006 13C21.0006 13.1314 20.9747 13.2615 20.9244 13.3829C20.8741 13.5043 20.8004 13.6146 20.7075 13.7075C20.6146 13.8004 20.5043 13.8741 20.3829 13.9244C20.2615 13.9747 20.1314 14.0006 20 14.0006C19.8686 14.0006 19.7385 13.9747 19.6171 13.9244C19.4957 13.8741 19.3854 13.8004 19.2925 13.7075L17 11.4137V19C17 19.2652 16.8946 19.5196 16.7071 19.7071C16.5196 19.8946 16.2652 20 16 20C15.7348 20 15.4804 19.8946 15.2929 19.7071C15.1054 19.5196 15 19.2652 15 19V11.4137L12.7075 13.7075C12.6146 13.8005 12.5043 13.8742 12.3829 13.9246C12.2615 13.9749 12.1314 14.0008 12 14.0008C11.8686 14.0008 11.7385 13.9749 11.6171 13.9246C11.4957 13.8742 11.3854 13.8005 11.2925 13.7075Z" fill="#343330"/>
</svg>
