<svg width="32" height="32" viewBox="0 0 32 32" fill="none" xmlns="http://www.w3.org/2000/svg">
<path d="M23 5H9C7.14409 5.00199 5.36477 5.74012 4.05245 7.05245C2.74012 8.36477 2.00199 10.1441 2 12V24C2 24.5304 2.21071 25.0391 2.58579 25.4142C2.96086 25.7893 3.46957 26 4 26H28C28.5304 26 29.0391 25.7893 29.4142 25.4142C29.7893 25.0391 30 24.5304 30 24V12C29.998 10.1441 29.2599 8.36477 27.9476 7.05245C26.6352 5.74012 24.8559 5.00199 23 5ZM28 12V13H24V7.1C25.1286 7.33205 26.1427 7.94613 26.8713 8.8387C27.6 9.73128 27.9986 10.8478 28 12ZM17 17H15V13H17V17ZM14 19H18C18.2652 19 18.5196 18.8946 18.7071 18.7071C18.8946 18.5196 19 18.2652 19 18V15H22V24H10V15H13V18C13 18.2652 13.1054 18.5196 13.2929 18.7071C13.4804 18.8946 13.7348 19 14 19ZM19 13V12C19 11.7348 18.8946 11.4804 18.7071 11.2929C18.5196 11.1054 18.2652 11 18 11H14C13.7348 11 13.4804 11.1054 13.2929 11.2929C13.1054 11.4804 13 11.7348 13 12V13H10V7H22V13H19ZM8 7.1V13H4V12C4.00141 10.8478 4.40003 9.73128 5.12866 8.8387C5.8573 7.94613 6.87139 7.33205 8 7.1ZM4 15H8V24H4V15ZM28 24H24V15H28V24Z" fill="#343330"/>
</svg>
