<svg width="32" height="32" viewBox="0 0 32 32" fill="none" xmlns="http://www.w3.org/2000/svg">
<path d="M22 19H26C26.5304 19 27.0391 18.7893 27.4142 18.4142C27.7893 18.0391 28 17.5304 28 17V13C28 12.4696 27.7893 11.9609 27.4142 11.5858C27.0391 11.2107 26.5304 11 26 11H22C21.4696 11 20.9609 11.2107 20.5858 11.5858C20.2107 11.9609 20 12.4696 20 13V14H11V10H12C12.5304 10 13.0391 9.78929 13.4142 9.41421C13.7893 9.03914 14 8.53043 14 8V4C14 3.46957 13.7893 2.96086 13.4142 2.58579C13.0391 2.21071 12.5304 2 12 2H8C7.46957 2 6.96086 2.21071 6.58579 2.58579C6.21071 2.96086 6 3.46957 6 4V8C6 8.53043 6.21071 9.03914 6.58579 9.41421C6.96086 9.78929 7.46957 10 8 10H9V24C9 24.7956 9.31607 25.5587 9.87868 26.1213C10.4413 26.6839 11.2044 27 12 27H20V28C20 28.5304 20.2107 29.0391 20.5858 29.4142C20.9609 29.7893 21.4696 30 22 30H26C26.5304 30 27.0391 29.7893 27.4142 29.4142C27.7893 29.0391 28 28.5304 28 28V24C28 23.4696 27.7893 22.9609 27.4142 22.5858C27.0391 22.2107 26.5304 22 26 22H22C21.4696 22 20.9609 22.2107 20.5858 22.5858C20.2107 22.9609 20 23.4696 20 24V25H12C11.7348 25 11.4804 24.8946 11.2929 24.7071C11.1054 24.5196 11 24.2652 11 24V16H20V17C20 17.5304 20.2107 18.0391 20.5858 18.4142C20.9609 18.7893 21.4696 19 22 19ZM8 4H12V8H8V4ZM22 24H26V28H22V24ZM22 13H26V17H22V13Z" fill="#343330"/>
</svg>
