<svg width="32" height="32" viewBox="0 0 32 32" fill="none" xmlns="http://www.w3.org/2000/svg">
<path d="M28.79 23.3863L23.04 16H26C26.1868 16 26.3699 15.9477 26.5285 15.849C26.687 15.7504 26.8148 15.6092 26.8973 15.4416C26.9798 15.2741 27.0137 15.0867 26.9952 14.9008C26.9767 14.715 26.9065 14.538 26.7925 14.39L16.7925 1.39001C16.6991 1.26863 16.5791 1.17034 16.4417 1.1027C16.3043 1.03505 16.1532 0.999878 16 0.999878C15.8469 0.999878 15.6958 1.03505 15.5584 1.1027C15.421 1.17034 15.3009 1.26863 15.2075 1.39001L5.20752 14.39C5.09358 14.538 5.02337 14.715 5.00485 14.9008C4.98633 15.0867 5.02023 15.2741 5.10272 15.4416C5.18522 15.6092 5.31299 15.7504 5.47158 15.849C5.63017 15.9477 5.81323 16 6.00002 16H8.95502L3.20502 23.3863C3.08984 23.5344 3.01868 23.712 2.99966 23.8987C2.98064 24.0853 3.01453 24.2736 3.09746 24.4419C3.18038 24.6103 3.309 24.7519 3.46861 24.8506C3.62822 24.9493 3.81237 25.001 4.00002 25H15V30C15 30.2652 15.1054 30.5196 15.2929 30.7071C15.4804 30.8946 15.7348 31 16 31C16.2652 31 16.5196 30.8946 16.7071 30.7071C16.8947 30.5196 17 30.2652 17 30V25H28C28.1872 25.0001 28.3707 24.9476 28.5296 24.8486C28.6885 24.7495 28.8164 24.6078 28.8987 24.4397C28.981 24.2715 29.0145 24.0836 28.9952 23.8974C28.976 23.7112 28.9049 23.5341 28.79 23.3863ZM6.04502 23L11.795 15.6138C11.9102 15.4656 11.9814 15.288 12.0004 15.1014C12.0194 14.9147 11.9855 14.7264 11.9026 14.5581C11.8197 14.3897 11.691 14.2481 11.5314 14.1494C11.3718 14.0508 11.1877 13.999 11 14H8.03127L16 3.64001L23.9688 14H21C20.8129 14.0001 20.6296 14.0528 20.4709 14.1519C20.3122 14.2511 20.1845 14.3928 20.1023 14.5609C20.0202 14.729 19.9868 14.9168 20.0061 15.1029C20.0253 15.289 20.0964 15.466 20.2113 15.6138L25.955 23H6.04502Z" fill="#343330"/>
</svg>
