<svg width="32" height="32" viewBox="0 0 32 32" fill="none" xmlns="http://www.w3.org/2000/svg">
<path d="M24.7625 7.82369C24.0391 6.0965 22.8214 4.62161 21.2624 3.58433C19.7034 2.54706 17.8726 1.99365 16 1.99365C14.1275 1.99365 12.2967 2.54706 10.7376 3.58433C9.17862 4.62161 7.96092 6.0965 7.23753 7.82369C5.67529 8.53774 4.3511 9.68562 3.42258 11.1307C2.49405 12.5758 2.00028 14.2573 2.00003 15.9749C1.98753 20.7499 6.00003 24.8749 10.7675 24.9999C12.2339 25.0354 13.6868 24.7122 15 24.0587V28.9999C15 29.2652 15.1054 29.5195 15.2929 29.7071C15.4805 29.8946 15.7348 29.9999 16 29.9999C16.2652 29.9999 16.5196 29.8946 16.7071 29.7071C16.8947 29.5195 17 29.2652 17 28.9999V24.0587C18.2432 24.676 19.612 24.9981 21 24.9999H21.2275C26 24.8749 30.0138 20.7499 30 15.9749C29.9998 14.2573 29.506 12.5758 28.5775 11.1307C27.649 9.68562 26.3248 8.53774 24.7625 7.82369ZM21.1813 22.9999C19.69 23.0388 18.2253 22.6009 17 21.7499V16.6249L22.4475 13.9024C22.5651 13.8437 22.6699 13.7623 22.756 13.6631C22.8421 13.5638 22.9078 13.4485 22.9493 13.3239C22.9909 13.1992 23.0075 13.0676 22.9982 12.9365C22.9888 12.8054 22.9538 12.6775 22.895 12.5599C22.8363 12.4424 22.7549 12.3376 22.6556 12.2515C22.5564 12.1654 22.4411 12.0997 22.3165 12.0582C22.1918 12.0166 22.0602 12 21.9291 12.0093C21.798 12.0186 21.6701 12.0537 21.5525 12.1124L17 14.3824V10.9999C17 10.7347 16.8947 10.4804 16.7071 10.2928C16.5196 10.1053 16.2652 9.99994 16 9.99994C15.7348 9.99994 15.4805 10.1053 15.2929 10.2928C15.1054 10.4804 15 10.7347 15 10.9999V17.3824L10.4475 15.1049C10.2102 14.9863 9.93537 14.9667 9.6836 15.0507C9.43183 15.1346 9.22371 15.3151 9.10503 15.5524C8.98634 15.7898 8.96682 16.0646 9.05074 16.3164C9.13466 16.5681 9.31516 16.7763 9.55253 16.8949L15 19.6174V21.7424C13.7751 22.594 12.3101 23.032 10.8188 22.9924C7.11253 22.9037 3.99003 19.6899 4.00003 15.9799C3.99908 14.5847 4.41684 13.2212 5.19927 12.066C5.98169 10.9107 7.09277 10.0168 8.38878 9.49994C8.51879 9.44774 8.63638 9.36879 8.73393 9.26823C8.83147 9.16767 8.9068 9.04773 8.95503 8.91619C9.4825 7.47168 10.4413 6.22423 11.7014 5.34284C12.9616 4.46145 14.4622 3.98874 16 3.98874C17.5378 3.98874 19.0385 4.46145 20.2986 5.34284C21.5588 6.22423 22.5176 7.47168 23.045 8.91619C23.0933 9.04773 23.1686 9.16767 23.2661 9.26823C23.3637 9.36879 23.4813 9.44774 23.6113 9.49994C24.9071 10.0171 26.018 10.9111 26.8004 12.0663C27.5827 13.2214 28.0006 14.5847 28 15.9799C28.01 19.6899 24.8875 22.9037 21.1813 22.9999Z" fill="#343330"/>
</svg>
