<svg width="32" height="32" viewBox="0 0 32 32" fill="none" xmlns="http://www.w3.org/2000/svg">
<path d="M29.7237 6.65372C28.9418 5.81625 27.996 5.1485 26.9452 4.69195C25.8943 4.23541 24.7608 3.99982 23.615 3.99982C22.4692 3.99982 21.3357 4.23541 20.2848 4.69195C19.234 5.1485 18.2882 5.81625 17.5062 6.65372C16.9041 7.28551 16.3967 8.00129 16 8.77872C15.6052 8.00169 15.1 7.28592 14.5 6.65372C13.7181 5.81625 12.7723 5.1485 11.7214 4.69195C10.6705 4.23541 9.53701 3.99982 8.39125 3.99982C7.24548 3.99982 6.11196 4.23541 5.06108 4.69195C4.01021 5.1485 3.06443 5.81625 2.2825 6.65372C2.17161 6.77022 2.09046 6.91175 2.04593 7.06629C2.0014 7.22084 1.9948 7.38385 2.0267 7.54148C2.05859 7.69912 2.12804 7.84674 2.22915 7.97182C2.33026 8.0969 2.46005 8.19575 2.6075 8.25997L9.625 11.3187C7.33969 11.9297 5.39032 13.4228 4.205 15.47C3.61031 16.4848 3.22436 17.6081 3.06981 18.7742C2.91526 19.9402 2.99522 21.1253 3.305 22.26C3.34782 22.4181 3.42882 22.5632 3.54088 22.6827C3.65294 22.8022 3.79263 22.8923 3.94768 22.9451C4.10272 22.998 4.26837 23.0119 4.43007 22.9857C4.59176 22.9595 4.74455 22.894 4.875 22.795L15 15.085V28C15 28.2652 15.1054 28.5195 15.2929 28.7071C15.4804 28.8946 15.7348 29 16 29C16.2652 29 16.5196 28.8946 16.7071 28.7071C16.8946 28.5195 17 28.2652 17 28V15.085L27.125 22.795C27.2555 22.8943 27.4084 22.96 27.5702 22.9864C27.7321 23.0127 27.8979 22.9988 28.0531 22.946C28.2084 22.8931 28.3482 22.8029 28.4604 22.6833C28.5725 22.5637 28.6535 22.4183 28.6962 22.26C29.006 21.1253 29.086 19.9402 28.9314 18.7742C28.7769 17.6081 28.3909 16.4848 27.7962 15.47C26.6106 13.4225 24.6608 11.9294 22.375 11.3187L29.4025 8.25997C29.55 8.19575 29.6797 8.0969 29.7808 7.97182C29.882 7.84674 29.9514 7.69912 29.9833 7.54148C30.0152 7.38385 30.0086 7.22084 29.9641 7.06629C29.9195 6.91175 29.8384 6.77022 29.7275 6.65372H29.7237ZM8.385 5.99997C9.25947 6.00194 10.1242 6.18333 10.9258 6.53294C11.7273 6.88254 12.4486 7.39291 13.045 8.03247C13.9361 8.97024 14.5527 10.1346 14.8275 11.3987L4.875 7.06622C5.91365 6.37119 7.13525 6.0001 8.385 5.99997ZM5 20.1875C4.95225 18.8864 5.27614 17.5986 5.93375 16.475C6.39342 15.6817 7.00564 14.9873 7.73509 14.4318C8.46454 13.8763 9.29677 13.4709 10.1837 13.2387C10.7803 13.0796 11.3951 12.9993 12.0125 13C12.6999 12.9999 13.3835 13.1014 14.0412 13.3012L5 20.1875ZM26.0625 16.475C26.7214 17.5982 27.0466 18.886 27 20.1875L17.9625 13.3C19.4736 12.8437 21.0943 12.9087 22.564 13.4845C24.0338 14.0603 25.2673 15.1136 26.0662 16.475H26.0625ZM17.1725 11.3987C17.4473 10.1346 18.0639 8.97024 18.955 8.03247C19.5514 7.39291 20.2727 6.88254 21.0742 6.53294C21.8758 6.18333 22.7405 6.00194 23.615 5.99997C24.8647 6.0001 26.0863 6.37119 27.125 7.06622L17.1725 11.3987Z" fill="#343330"/>
</svg>
