<svg width="32" height="32" viewBox="0 0 32 32" fill="none" xmlns="http://www.w3.org/2000/svg">
<path d="M30 16V24C30 24.2652 29.8947 24.5196 29.7071 24.7071C29.5196 24.8947 29.2652 25 29 25H21C20.7348 25 20.4804 24.8947 20.2929 24.7071C20.1054 24.5196 20 24.2652 20 24C20 23.7348 20.1054 23.4804 20.2929 23.2929C20.4804 23.1054 20.7348 23 21 23H26.5863L17 13.4138L12.7075 17.7075C12.6146 17.8005 12.5043 17.8742 12.3829 17.9246C12.2615 17.9749 12.1314 18.0008 12 18.0008C11.8686 18.0008 11.7385 17.9749 11.6171 17.9246C11.4957 17.8742 11.3854 17.8005 11.2925 17.7075L2.29251 8.70751C2.10487 8.51987 1.99945 8.26537 1.99945 8.00001C1.99945 7.73464 2.10487 7.48015 2.29251 7.29251C2.48015 7.10487 2.73464 6.99945 3.00001 6.99945C3.26537 6.99945 3.51987 7.10487 3.70751 7.29251L12 15.5863L16.2925 11.2925C16.3854 11.1995 16.4957 11.1258 16.6171 11.0754C16.7385 11.0251 16.8686 10.9992 17 10.9992C17.1314 10.9992 17.2615 11.0251 17.3829 11.0754C17.5043 11.1258 17.6146 11.1995 17.7075 11.2925L28 21.5863V16C28 15.7348 28.1054 15.4804 28.2929 15.2929C28.4804 15.1054 28.7348 15 29 15C29.2652 15 29.5196 15.1054 29.7071 15.2929C29.8947 15.4804 30 15.7348 30 16Z" fill="#343330"/>
</svg>
