<svg width="32" height="32" viewBox="0 0 32 32" fill="none" xmlns="http://www.w3.org/2000/svg">
<path d="M20 27C20 27.2652 19.8946 27.5196 19.7071 27.7071C19.5196 27.8946 19.2652 28 19 28H13C12.7348 28 12.4804 27.8946 12.2929 27.7071C12.1054 27.5196 12 27.2652 12 27C12 26.7348 12.1054 26.4804 12.2929 26.2929C12.4804 26.1054 12.7348 26 13 26H19C19.2652 26 19.5196 26.1054 19.7071 26.2929C19.8946 26.4804 20 26.7348 20 27ZM29.6 23.5113L29.0175 22.5C28.8849 22.2703 28.6664 22.1026 28.4102 22.0339C28.154 21.9652 27.881 22.0011 27.6512 22.1338C27.4215 22.2664 27.2538 22.4848 27.1852 22.741C27.1165 22.9972 27.1524 23.2703 27.285 23.5L27.8662 24.5113C27.9526 24.6574 27.9981 24.824 27.9981 24.9938C27.9981 25.1635 27.9526 25.3301 27.8662 25.4763C27.771 25.6388 27.6341 25.7731 27.4698 25.8654C27.3055 25.9576 27.1197 26.0045 26.9312 26.0013H24C23.7348 26.0013 23.4804 26.1066 23.2929 26.2941C23.1054 26.4817 23 26.736 23 27.0013C23 27.2665 23.1054 27.5208 23.2929 27.7084C23.4804 27.8959 23.7348 28.0013 24 28.0013H26.9312C27.4709 28.0065 28.0022 27.8682 28.4707 27.6005C28.9393 27.3327 29.3281 26.9451 29.5975 26.4775C29.8609 26.0277 30 25.516 30.0005 24.9947C30.0009 24.4735 29.8627 23.9615 29.6 23.5113ZM8 26H5.06875C4.88034 26.0033 4.69446 25.9564 4.53016 25.8641C4.36586 25.7719 4.22904 25.6376 4.13375 25.475C4.04743 25.3289 4.00189 25.1622 4.00189 24.9925C4.00189 24.8228 4.04743 24.6561 4.13375 24.51L4.715 23.5C4.78066 23.3862 4.82327 23.2607 4.8404 23.1304C4.85753 23.0002 4.84884 22.8679 4.81483 22.741C4.78082 22.6142 4.72216 22.4952 4.64219 22.391C4.56222 22.2868 4.46251 22.1994 4.34875 22.1338C4.23499 22.0681 4.10941 22.0255 3.97919 22.0084C3.84896 21.9912 3.71664 21.9999 3.58977 22.0339C3.4629 22.0679 3.34398 22.1266 3.23978 22.2066C3.13558 22.2865 3.04816 22.3862 2.9825 22.5L2.4 23.51C2.13717 23.9599 1.99866 24.4715 1.99866 24.9925C1.99866 25.5135 2.13717 26.0252 2.4 26.475C2.6694 26.9432 3.05861 27.3313 3.52763 27.5993C3.99666 27.8673 4.52858 28.0056 5.06875 28H8C8.26521 28 8.51957 27.8946 8.7071 27.7071C8.89464 27.5196 9 27.2652 9 27C9 26.7348 8.89464 26.4804 8.7071 26.2929C8.51957 26.1054 8.26521 26 8 26ZM25.2725 19C25.4481 19 25.6205 18.9539 25.7726 18.8661C25.9246 18.7784 26.0509 18.6521 26.1387 18.5001C26.2265 18.3481 26.2727 18.1756 26.2727 18.0001C26.2727 17.8245 26.2265 17.652 26.1387 17.5L23.2637 12.5C23.1311 12.2703 22.9127 12.1026 22.6565 12.0339C22.4003 11.9652 22.1272 12.0011 21.8975 12.1338C21.6678 12.2664 21.5001 12.4848 21.4314 12.741C21.3627 12.9972 21.3986 13.2703 21.5312 13.5L24.4062 18.5C24.494 18.6521 24.6203 18.7783 24.7724 18.8661C24.9244 18.9539 25.0969 19 25.2725 19ZM18.6687 4.52751C18.3956 4.06241 18.0056 3.67678 17.5375 3.40883C17.0694 3.14088 16.5394 2.99992 16 2.99992C15.4606 2.99992 14.9306 3.14088 14.4625 3.40883C13.9944 3.67678 13.6044 4.06241 13.3312 4.52751L11.625 7.50001C11.4924 7.72975 11.4565 8.00276 11.5252 8.25898C11.5938 8.51521 11.7615 8.73365 11.9912 8.86626C12.221 8.99886 12.494 9.03478 12.7502 8.96609C13.0064 8.89741 13.2249 8.72975 13.3575 8.50001L15.07 5.52751C15.1672 5.36572 15.3047 5.23185 15.4689 5.13891C15.6332 5.04597 15.8187 4.99712 16.0075 4.99712C16.1962 4.99712 16.3818 5.04597 16.5461 5.13891C16.7103 5.23185 16.8478 5.36572 16.945 5.52751L18.6475 8.50001C18.7354 8.65224 18.8619 8.77862 19.0142 8.8664C19.1665 8.95418 19.3392 9.00026 19.515 9.00001C19.6906 9.00061 19.8632 8.95444 20.015 8.86626C20.2437 8.73264 20.4101 8.51374 20.4776 8.25759C20.5451 8.00144 20.5082 7.72898 20.375 7.50001L18.6687 4.52751ZM10.1062 12.1338C9.87663 12.0015 9.6039 11.9658 9.34797 12.0344C9.09203 12.1031 8.87382 12.2706 8.74125 12.5L5.86625 17.5C5.80059 17.6138 5.75799 17.7395 5.74089 17.8698C5.7238 18.0001 5.73253 18.1325 5.7666 18.2594C5.80066 18.3864 5.8594 18.5053 5.93944 18.6096C6.01949 18.7138 6.11928 18.8012 6.23312 18.8669C6.34696 18.9325 6.47262 18.9751 6.60292 18.9922C6.73322 19.0093 6.86562 19.0006 6.99254 18.9665C7.11947 18.9325 7.23844 18.8737 7.34267 18.7937C7.4469 18.7136 7.53434 18.6138 7.6 18.5L10.475 13.5C10.5406 13.3861 10.5831 13.2604 10.6 13.1301C10.617 12.9997 10.6081 12.8673 10.5738 12.7404C10.5396 12.6135 10.4807 12.4947 10.4004 12.3906C10.3202 12.2865 10.2202 12.1992 10.1062 12.1338Z" fill="#343330"/>
</svg>
