<svg width="32" height="32" viewBox="0 0 32 32" fill="none" xmlns="http://www.w3.org/2000/svg">
<path d="M11 28C11 28.3956 10.8827 28.7823 10.6629 29.1111C10.4432 29.44 10.1308 29.6964 9.76537 29.8478C9.39992 29.9991 8.99779 30.0387 8.60983 29.9616C8.22186 29.8844 7.8655 29.6939 7.58579 29.4142C7.30609 29.1345 7.11561 28.7781 7.03844 28.3902C6.96127 28.0022 7.00087 27.6001 7.15225 27.2346C7.30362 26.8692 7.55997 26.5568 7.88887 26.3371C8.21776 26.1173 8.60444 26 9.00001 26C9.53044 26 10.0391 26.2107 10.4142 26.5858C10.7893 26.9609 11 27.4696 11 28ZM27 26C26.6044 26 26.2178 26.1173 25.8889 26.3371C25.56 26.5568 25.3036 26.8692 25.1522 27.2346C25.0009 27.6001 24.9613 28.0022 25.0384 28.3902C25.1156 28.7781 25.3061 29.1345 25.5858 29.4142C25.8655 29.6939 26.2219 29.8844 26.6098 29.9616C26.9978 30.0387 27.3999 29.9991 27.7654 29.8478C28.1308 29.6964 28.4432 29.44 28.6629 29.1111C28.8827 28.7823 29 28.3956 29 28C29 27.4696 28.7893 26.9609 28.4142 26.5858C28.0391 26.2107 27.5304 26 27 26ZM30 22H7.00001V9.41376C7.00085 9.15102 6.94945 8.89073 6.84881 8.64803C6.74817 8.40533 6.60028 8.18505 6.41376 8.00001L3.70751 5.29251C3.6146 5.1996 3.5043 5.1259 3.3829 5.07561C3.26151 5.02533 3.1314 4.99945 3.00001 4.99945C2.73464 4.99945 2.48015 5.10487 2.29251 5.29251C2.1996 5.38542 2.1259 5.49572 2.07561 5.61711C2.02533 5.7385 1.99945 5.86861 1.99945 6.00001C1.99945 6.26537 2.10487 6.51987 2.29251 6.70751L5.00001 9.41376V22H4.00001C3.73479 22 3.48044 22.1054 3.2929 22.2929C3.10536 22.4804 3.00001 22.7348 3.00001 23C3.00001 23.2652 3.10536 23.5196 3.2929 23.7071C3.48044 23.8947 3.73479 24 4.00001 24H30C30.2652 24 30.5196 23.8947 30.7071 23.7071C30.8947 23.5196 31 23.2652 31 23C31 22.7348 30.8947 22.4804 30.7071 22.2929C30.5196 22.1054 30.2652 22 30 22Z" fill="#343330"/>
</svg>
