<svg width="32" height="32" viewBox="0 0 32 32" fill="none" xmlns="http://www.w3.org/2000/svg">
<path d="M28 12.1V12C27.998 10.1441 27.2599 8.36477 25.9476 7.05245C24.6352 5.74012 22.8559 5.00199 21 5H20C19.4696 5 18.9609 5.21071 18.5858 5.58579C18.2107 5.96086 18 6.46957 18 7V22H16V9C16 8.73478 15.8946 8.48043 15.7071 8.29289C15.5196 8.10536 15.2652 8 15 8H2C1.46957 8 0.960859 8.21071 0.585786 8.58579C0.210714 8.96086 0 9.46957 0 10L0 23C0.000913299 23.8121 0.248994 24.6047 0.71126 25.2724C1.17353 25.9401 1.82808 26.4513 2.58789 26.738C3.3477 27.0246 4.17678 27.0733 4.9649 26.8774C5.75302 26.6815 6.46285 26.2503 7 25.6413C7.48014 26.1867 8.0998 26.591 8.79242 26.8109C9.48504 27.0307 10.2245 27.0577 10.9313 26.889C11.6381 26.7202 12.2856 26.3621 12.8042 25.8532C13.3228 25.3442 13.693 24.7035 13.875 24H24.125C24.3668 24.9445 24.9453 25.7681 25.7516 26.3162C26.558 26.8642 27.5367 27.0988 28.5039 26.976C29.4711 26.8532 30.3601 26.3814 31.0039 25.6492C31.6477 24.917 32.0019 23.9749 32 23V17C31.9986 15.8478 31.6 14.7313 30.8713 13.8387C30.1427 12.9461 29.1286 12.3321 28 12.1ZM20 7H21C22.3261 7 23.5979 7.52678 24.5355 8.46447C25.4732 9.40215 26 10.6739 26 12V13C26 13.2652 26.1054 13.5196 26.2929 13.7071C26.4804 13.8946 26.7348 14 27 14C27.7956 14 28.5587 14.3161 29.1213 14.8787C29.6839 15.4413 30 16.2044 30 17V19.5387C29.3929 19.1851 28.7026 18.9991 28 19C27.1132 19.0008 26.2517 19.2958 25.5505 19.8387C24.8493 20.3815 24.3479 21.1417 24.125 22H20V7ZM14 10V22H13.875C13.693 21.2965 13.3228 20.6558 12.8042 20.1468C12.2856 19.6379 11.6381 19.2798 10.9313 19.111C10.2245 18.9423 9.48504 18.9693 8.79242 19.1891C8.0998 19.409 7.48014 19.8133 7 20.3587C6.39074 19.6638 5.559 19.2021 4.64698 19.0525C3.73497 18.9029 2.79932 19.0748 2 19.5387V10H14ZM4 25C3.60444 25 3.21776 24.8827 2.88886 24.6629C2.55996 24.4432 2.30362 24.1308 2.15224 23.7654C2.00087 23.3999 1.96126 22.9978 2.03843 22.6098C2.1156 22.2219 2.30608 21.8655 2.58579 21.5858C2.86549 21.3061 3.22186 21.1156 3.60982 21.0384C3.99778 20.9613 4.39991 21.0009 4.76537 21.1522C5.13082 21.3036 5.44318 21.56 5.66294 21.8889C5.8827 22.2178 6 22.6044 6 23C6 23.5304 5.78929 24.0391 5.41421 24.4142C5.03914 24.7893 4.53043 25 4 25ZM10 25C9.60444 25 9.21776 24.8827 8.88886 24.6629C8.55996 24.4432 8.30362 24.1308 8.15224 23.7654C8.00087 23.3999 7.96126 22.9978 8.03843 22.6098C8.1156 22.2219 8.30608 21.8655 8.58579 21.5858C8.86549 21.3061 9.22186 21.1156 9.60982 21.0384C9.99778 20.9613 10.3999 21.0009 10.7654 21.1522C11.1308 21.3036 11.4432 21.56 11.6629 21.8889C11.8827 22.2178 12 22.6044 12 23C12 23.5304 11.7893 24.0391 11.4142 24.4142C11.0391 24.7893 10.5304 25 10 25ZM28 25C27.6044 25 27.2178 24.8827 26.8889 24.6629C26.56 24.4432 26.3036 24.1308 26.1522 23.7654C26.0009 23.3999 25.9613 22.9978 26.0384 22.6098C26.1156 22.2219 26.3061 21.8655 26.5858 21.5858C26.8655 21.3061 27.2219 21.1156 27.6098 21.0384C27.9978 20.9613 28.3999 21.0009 28.7654 21.1522C29.1308 21.3036 29.4432 21.56 29.6629 21.8889C29.8827 22.2178 30 22.6044 30 23C30 23.5304 29.7893 24.0391 29.4142 24.4142C29.0391 24.7893 28.5304 25 28 25Z" fill="#343330"/>
</svg>
