<svg width="32" height="32" viewBox="0 0 32 32" fill="none" xmlns="http://www.w3.org/2000/svg">
<path d="M24 15C24.2652 15 24.5196 14.8946 24.7071 14.7071C24.8946 14.5196 25 14.2652 25 14V9C25 8.73478 24.8946 8.48043 24.7071 8.29289C24.5196 8.10536 24.2652 8 24 8H19V3C19 2.73478 18.8946 2.48043 18.7071 2.29289C18.5196 2.10536 18.2652 2 18 2H14C13.7348 2 13.4804 2.10536 13.2929 2.29289C13.1054 2.48043 13 2.73478 13 3C13 4.32608 12.4732 5.59785 11.5355 6.53553C10.5979 7.47322 9.32608 8 8 8C7.73478 8 7.48043 8.10536 7.29289 8.29289C7.10536 8.48043 7 8.73478 7 9V14C7 14.2652 7.10536 14.5196 7.29289 14.7071C7.48043 14.8946 7.73478 15 8 15H11V22C11.0023 24.121 11.8459 26.1545 13.3457 27.6543C14.8455 29.1541 16.879 29.9977 19 30H24C24.2652 30 24.5196 29.8946 24.7071 29.7071C24.8946 29.5196 25 29.2652 25 29V23C25 22.7348 24.8946 22.4804 24.7071 22.2929C24.5196 22.1054 24.2652 22 24 22H20C19.7348 22 19.4804 21.8946 19.2929 21.7071C19.1054 21.5196 19 21.2652 19 21V15H24ZM20 24H23V28H19C17.4092 27.9983 15.884 27.3657 14.7592 26.2408C13.6343 25.116 13.0017 23.5908 13 22V14C13 13.7348 12.8946 13.4804 12.7071 13.2929C12.5196 13.1054 12.2652 13 12 13H9V9.92875C10.4948 9.71046 11.8792 9.01556 12.9474 7.94738C14.0156 6.87919 14.7105 5.49478 14.9288 4H17V9C17 9.26522 17.1054 9.51957 17.2929 9.70711C17.4804 9.89464 17.7348 10 18 10H23V13H18C17.7348 13 17.4804 13.1054 17.2929 13.2929C17.1054 13.4804 17 13.7348 17 14V21C17 21.7956 17.3161 22.5587 17.8787 23.1213C18.4413 23.6839 19.2044 24 20 24Z" fill="#343330"/>
</svg>
