<svg width="32" height="32" viewBox="0 0 32 32" fill="none" xmlns="http://www.w3.org/2000/svg">
<path d="M30 15.8288C29.7717 13.2112 28.8142 10.71 27.2362 8.60905C25.6582 6.50812 23.5228 4.8916 21.0725 3.94297C18.6221 2.99433 15.9549 2.75157 13.3736 3.24222C10.7923 3.73288 8.40015 4.9373 6.46875 6.71881C3.89032 9.08757 2.29732 12.3396 2.00625 15.8288C1.98251 16.105 2.01644 16.383 2.10587 16.6454C2.1953 16.9077 2.33829 17.1486 2.52576 17.3528C2.71322 17.5569 2.94108 17.7199 3.19486 17.8313C3.44865 17.9427 3.72283 18.0002 4 18.0001H15V25.0001C15 26.0609 15.4214 27.0783 16.1716 27.8285C16.9217 28.5786 17.9391 29.0001 19 29.0001C20.0609 29.0001 21.0783 28.5786 21.8284 27.8285C22.5786 27.0783 23 26.0609 23 25.0001C23 24.7348 22.8946 24.4805 22.7071 24.293C22.5196 24.1054 22.2652 24.0001 22 24.0001C21.7348 24.0001 21.4804 24.1054 21.2929 24.293C21.1054 24.4805 21 24.7348 21 25.0001C21 25.5305 20.7893 26.0392 20.4142 26.4143C20.0391 26.7893 19.5304 27.0001 19 27.0001C18.4696 27.0001 17.9609 26.7893 17.5858 26.4143C17.2107 26.0392 17 25.5305 17 25.0001V18.0001H28C28.2777 18.0011 28.5526 17.9443 28.8071 17.8332C29.0616 17.7222 29.2902 17.5593 29.4784 17.3551C29.6665 17.1508 29.8101 16.9096 29.8999 16.6469C29.9897 16.3841 30.0238 16.1055 30 15.8288ZM4 16.0001C4.22163 13.424 5.26807 10.9882 6.98396 9.05405C8.69986 7.11996 10.9937 5.79076 13.525 5.26381C12.06 7.25006 10.2312 10.7638 10.0212 16.0001H4ZM12.0187 16.0001C12.1925 12.1538 13.335 9.39881 14.3062 7.72006C14.7851 6.88613 15.353 6.10657 16 5.39506C16.6457 6.10668 17.2124 6.88623 17.69 7.72006C19.35 10.5876 19.875 13.6601 19.9775 16.0001H12.0187ZM21.975 16.0001C21.765 10.7638 19.9362 7.25006 18.475 5.25756C21.0079 5.78334 23.3034 7.11301 25.0196 9.04865C26.7359 10.9843 27.7812 13.4224 28 16.0001H21.975Z" fill="#343330"/>
</svg>
