<svg width="32" height="32" viewBox="0 0 32 32" fill="none" xmlns="http://www.w3.org/2000/svg">
<path d="M26 8V18C26 20.6522 24.9464 23.1957 23.0711 25.0711C21.1957 26.9464 18.6522 28 16 28C13.3478 28 10.8043 26.9464 8.92893 25.0711C7.05357 23.1957 6 20.6522 6 18V8C6 7.73478 6.10536 7.48043 6.29289 7.29289C6.48043 7.10536 6.73478 7 7 7C7.26522 7 7.51957 7.10536 7.70711 7.29289C7.89464 7.48043 8 7.73478 8 8V18C8 20.1217 8.84285 22.1566 10.3431 23.6569C11.8434 25.1571 13.8783 26 16 26C18.1217 26 20.1566 25.1571 21.6569 23.6569C23.1571 22.1566 24 20.1217 24 18V8C24 7.73478 24.1054 7.48043 24.2929 7.29289C24.4804 7.10536 24.7348 7 25 7C25.2652 7 25.5196 7.10536 25.7071 7.29289C25.8946 7.48043 26 7.73478 26 8Z" fill="#343330"/>
</svg>
