<svg width="32" height="32" viewBox="0 0 32 32" fill="none" xmlns="http://www.w3.org/2000/svg">
<path d="M21.8287 10.1713C21.4962 8.38015 20.6806 6.71391 19.4702 5.35245C18.2598 3.991 16.7005 2.98605 14.9606 2.44612C13.2208 1.90618 11.3665 1.85178 9.59793 2.28878C7.82941 2.72578 6.21385 3.63758 4.9257 4.92573C3.63755 6.21388 2.72575 7.82944 2.28875 9.59796C1.85175 11.3665 1.90615 13.2208 2.44609 14.9607C2.98602 16.7005 3.99097 18.2599 5.35242 19.4703C6.71388 20.6807 8.38012 21.4962 10.1712 21.8288C10.5038 23.6199 11.3193 25.2861 12.5297 26.6476C13.7401 28.009 15.2994 29.014 17.0393 29.5539C18.7792 30.0938 20.6335 30.1482 22.402 29.7112C24.1705 29.2742 25.7861 28.3624 27.0742 27.0743C28.3624 25.7861 29.2742 24.1706 29.7112 22.402C30.1482 20.6335 30.0938 18.7792 29.5539 17.0393C29.0139 15.2995 28.009 13.7402 26.6475 12.5297C25.2861 11.3193 23.6198 10.5038 21.8287 10.1713ZM28 20C28 20.19 27.9912 20.375 27.9775 20.5638L21.7275 14.3138C21.8899 13.6372 21.9812 12.9455 22 12.25C23.7167 12.6957 25.2371 13.6983 26.3229 15.1008C27.4087 16.5033 27.9985 18.2263 28 20ZM5.68372 7.09875L12.2612 13.675C11.7752 14.2689 11.3588 14.9164 11.02 15.605L4.53747 9.125C4.81871 8.39731 5.20489 7.71467 5.68372 7.09875ZM9.12497 4.5375L15.6075 11.02C14.9189 11.3588 14.2714 11.7753 13.6775 12.2613L7.09872 5.68375C7.71464 5.20492 8.39728 4.81874 9.12497 4.5375ZM16.8075 18.3913L13.6112 15.195C14.0637 14.5951 14.5975 14.0612 15.1975 13.6088L18.3937 16.805C17.9405 17.4051 17.4058 17.939 16.805 18.3913H16.8075ZM19.4137 15L17 12.5863C17.9525 12.1983 18.9714 11.9991 20 12C20.0008 13.0285 19.8017 14.0475 19.4137 15ZM12.5862 17L15 19.4138C14.0474 19.8018 13.0285 20.0009 12 20C11.9991 18.9715 12.1982 17.9526 12.5862 17ZM18.325 19.7388L24.9012 26.3163C24.2853 26.7951 23.6027 27.1813 22.875 27.4625L16.3925 20.98C17.0819 20.6414 17.7303 20.2249 18.325 19.7388ZM19.7387 18.325C20.2247 17.7311 20.6412 17.0836 20.98 16.395L27.4625 22.875C27.181 23.6018 26.7948 24.2836 26.3162 24.8988L19.7387 18.325ZM19.75 10.0063C19.0555 10.0232 18.3647 10.1124 17.6887 10.2725L11.4387 4.0225C11.625 4.00875 11.81 4 12 4C13.7745 4.00183 15.4982 4.59256 16.9007 5.67956C18.3033 6.76656 19.3055 8.28835 19.75 10.0063ZM3.99997 12C3.99997 11.81 4.00872 11.625 4.02247 11.4363L10.2725 17.6863C10.1122 18.363 10.023 19.0547 10.0062 19.75C8.28832 19.3055 6.76653 18.3034 5.67953 16.9008C4.59253 15.4982 4.0018 13.7745 3.99997 12ZM12.25 22C12.9444 21.9831 13.6353 21.8939 14.3112 21.7338L20.5612 27.9838C20.375 27.9975 20.1862 28.0063 19.9975 28.0063C18.2234 28.0039 16.5003 27.4129 15.0982 26.3259C13.6961 25.239 12.6944 23.7175 12.25 22Z" fill="#343330"/>
</svg>
