<svg width="32" height="32" viewBox="0 0 32 32" fill="none" xmlns="http://www.w3.org/2000/svg">
<path d="M30 17V25C30 25.5304 29.7893 26.0391 29.4142 26.4142C29.0391 26.7893 28.5304 27 28 27H4C3.46957 27 2.96086 26.7893 2.58579 26.4142C2.21071 26.0391 2 25.5304 2 25V17C2 16.4696 2.21071 15.9609 2.58579 15.5858C2.96086 15.2107 3.46957 15 4 15H10C10.2652 15 10.5196 15.1054 10.7071 15.2929C10.8946 15.4804 11 15.7348 11 16C11 16.2652 10.8946 16.5196 10.7071 16.7071C10.5196 16.8946 10.2652 17 10 17H4V25H28V17H22C21.7348 17 21.4804 16.8946 21.2929 16.7071C21.1054 16.5196 21 16.2652 21 16C21 15.7348 21.1054 15.4804 21.2929 15.2929C21.4804 15.1054 21.7348 15 22 15H28C28.5304 15 29.0391 15.2107 29.4142 15.5858C29.7893 15.9609 30 16.4696 30 17ZM10.7075 9.7075L15 5.41375V16C15 16.2652 15.1054 16.5196 15.2929 16.7071C15.4804 16.8946 15.7348 17 16 17C16.2652 17 16.5196 16.8946 16.7071 16.7071C16.8946 16.5196 17 16.2652 17 16V5.41375L21.2925 9.7075C21.4801 9.89514 21.7346 10.0006 22 10.0006C22.2654 10.0006 22.5199 9.89514 22.7075 9.7075C22.8951 9.51986 23.0006 9.26537 23.0006 9C23.0006 8.73464 22.8951 8.48014 22.7075 8.2925L16.7075 2.2925C16.6146 2.19952 16.5043 2.12577 16.3829 2.07544C16.2615 2.02512 16.1314 1.99921 16 1.99921C15.8686 1.99921 15.7385 2.02512 15.6171 2.07544C15.4957 2.12577 15.3854 2.19952 15.2925 2.2925L9.2925 8.2925C9.10486 8.48014 8.99944 8.73464 8.99944 9C8.99944 9.26537 9.10486 9.51986 9.2925 9.7075C9.48014 9.89514 9.73464 10.0006 10 10.0006C10.2654 10.0006 10.5199 9.89514 10.7075 9.7075ZM25 21C25 20.7033 24.912 20.4133 24.7472 20.1666C24.5824 19.92 24.3481 19.7277 24.074 19.6142C23.7999 19.5007 23.4983 19.4709 23.2074 19.5288C22.9164 19.5867 22.6491 19.7296 22.4393 19.9393C22.2296 20.1491 22.0867 20.4164 22.0288 20.7074C21.9709 20.9983 22.0007 21.2999 22.1142 21.574C22.2277 21.8481 22.42 22.0824 22.6666 22.2472C22.9133 22.412 23.2033 22.5 23.5 22.5C23.8978 22.5 24.2794 22.342 24.5607 22.0607C24.842 21.7794 25 21.3978 25 21Z" fill="#343330"/>
</svg>
