<svg width="32" height="32" viewBox="0 0 32 32" fill="none" xmlns="http://www.w3.org/2000/svg">
<path d="M28 18V26C28 26.2652 27.8946 26.5196 27.7071 26.7071C27.5196 26.8946 27.2652 27 27 27H5C4.73478 27 4.48043 26.8946 4.29289 26.7071C4.10536 26.5196 4 26.2652 4 26V18C4 17.7348 4.10536 17.4804 4.29289 17.2929C4.48043 17.1054 4.73478 17 5 17C5.26522 17 5.51957 17.1054 5.70711 17.2929C5.89464 17.4804 6 17.7348 6 18V25H26V18C26 17.7348 26.1054 17.4804 26.2929 17.2929C26.4804 17.1054 26.7348 17 27 17C27.2652 17 27.5196 17.1054 27.7071 17.2929C27.8946 17.4804 28 17.7348 28 18ZM11.7075 9.7075L15 6.41375V18C15 18.2652 15.1054 18.5196 15.2929 18.7071C15.4804 18.8946 15.7348 19 16 19C16.2652 19 16.5196 18.8946 16.7071 18.7071C16.8946 18.5196 17 18.2652 17 18V6.41375L20.2925 9.7075C20.4801 9.89514 20.7346 10.0006 21 10.0006C21.2654 10.0006 21.5199 9.89514 21.7075 9.7075C21.8951 9.51986 22.0006 9.26537 22.0006 9C22.0006 8.73464 21.8951 8.48014 21.7075 8.2925L16.7075 3.2925C16.6146 3.19952 16.5043 3.12577 16.3829 3.07544C16.2615 3.02512 16.1314 2.99921 16 2.99921C15.8686 2.99921 15.7385 3.02512 15.6171 3.07544C15.4957 3.12577 15.3854 3.19952 15.2925 3.2925L10.2925 8.2925C10.1049 8.48014 9.99944 8.73464 9.99944 9C9.99944 9.26537 10.1049 9.51986 10.2925 9.7075C10.4801 9.89514 10.7346 10.0006 11 10.0006C11.2654 10.0006 11.5199 9.89514 11.7075 9.7075Z" fill="#343330"/>
</svg>
