<svg width="32" height="32" viewBox="0 0 32 32" fill="none" xmlns="http://www.w3.org/2000/svg">
<path d="M30.6 18.8C30.495 18.8788 30.3754 18.9361 30.2482 18.9687C30.121 19.0013 29.9886 19.0085 29.8586 18.99C29.7286 18.9714 29.6035 18.9274 29.4905 18.8605C29.3775 18.7936 29.2788 18.7051 29.2 18.6C28.5973 17.7898 27.8127 17.1325 26.9096 16.6809C26.0064 16.2293 25.0098 15.9961 24 16C23.8034 16 23.6111 15.942 23.4472 15.8333C23.2834 15.7246 23.1552 15.5699 23.0788 15.3888C23.0269 15.2657 23.0001 15.1336 23.0001 15C23.0001 14.8665 23.0269 14.7343 23.0788 14.6113C23.1552 14.4301 23.2834 14.2755 23.4472 14.1668C23.6111 14.058 23.8034 14 24 14C24.5611 14 25.1109 13.8426 25.5871 13.5457C26.0632 13.2488 26.4465 12.8244 26.6935 12.3206C26.9405 11.8168 27.0412 11.2538 26.9843 10.6956C26.9273 10.1374 26.715 9.60636 26.3714 9.1628C26.0278 8.71923 25.5666 8.38092 25.0404 8.18629C24.5141 7.99166 23.9439 7.94851 23.3943 8.06175C22.8448 8.17499 22.338 8.44007 21.9315 8.82688C21.5251 9.2137 21.2353 9.70675 21.095 10.25C21.0622 10.3772 21.0046 10.4967 20.9256 10.6017C20.8466 10.7067 20.7477 10.7951 20.6345 10.8618C20.5213 10.9285 20.3961 10.9723 20.266 10.9907C20.1359 11.0091 20.0035 11.0016 19.8763 10.9688C19.749 10.9359 19.6295 10.8784 19.5246 10.7994C19.4196 10.7203 19.3312 10.6214 19.2645 10.5083C19.1977 10.3951 19.1539 10.2699 19.1356 10.1398C19.1172 10.0097 19.1247 9.87724 19.1575 9.75002C19.3522 8.99666 19.72 8.29914 20.2318 7.71296C20.7435 7.12678 21.3849 6.66811 22.1051 6.37346C22.8252 6.0788 23.6042 5.9563 24.3801 6.01568C25.1559 6.07507 25.9072 6.31471 26.5741 6.71553C27.241 7.11636 27.8052 7.66731 28.2217 8.32454C28.6383 8.98178 28.8957 9.72715 28.9734 10.5014C29.0512 11.2756 28.9472 12.0573 28.6697 12.7842C28.3922 13.5112 27.9489 14.1633 27.375 14.6888C28.7348 15.2775 29.9168 16.2118 30.8038 17.3988C30.8826 17.5041 30.9398 17.6239 30.9722 17.7514C31.0046 17.8789 31.0115 18.0115 30.9926 18.1417C30.9737 18.2718 30.9293 18.397 30.8619 18.51C30.7945 18.6229 30.7055 18.7215 30.6 18.8ZM23.865 26.5C23.9374 26.6138 23.986 26.7411 24.0078 26.8742C24.0297 27.0073 24.0245 27.1434 23.9924 27.2744C23.9603 27.4054 23.902 27.5286 23.8211 27.6365C23.7402 27.7444 23.6383 27.8348 23.5215 27.9023C23.4048 27.9698 23.2756 28.0129 23.1417 28.0292C23.0078 28.0455 22.872 28.0345 22.7425 27.9969C22.6129 27.9593 22.4924 27.8959 22.388 27.8105C22.2836 27.7251 22.1975 27.6195 22.135 27.5C21.5051 26.4334 20.6079 25.5494 19.532 24.9353C18.4562 24.3212 17.2388 23.9982 16 23.9982C14.7612 23.9982 13.5438 24.3212 12.468 24.9353C11.3921 25.5494 10.495 26.4334 9.86501 27.5C9.8025 27.6195 9.71646 27.7251 9.61206 27.8105C9.50767 27.8959 9.38708 27.9593 9.25755 27.9969C9.12802 28.0345 8.99223 28.0455 8.85835 28.0292C8.72446 28.0129 8.59525 27.9698 8.47848 27.9023C8.36172 27.8348 8.25981 27.7444 8.1789 27.6365C8.09798 27.5286 8.03973 27.4054 8.00764 27.2744C7.97556 27.1434 7.9703 27.0073 7.99219 26.8742C8.01408 26.7411 8.06266 26.6138 8.13501 26.5C9.10451 24.8342 10.5828 23.5234 12.3525 22.76C11.3567 21.9976 10.6248 20.9422 10.2598 19.7423C9.89473 18.5424 9.91489 17.2583 10.3174 16.0704C10.7199 14.8825 11.4846 13.8507 12.5038 13.1199C13.5231 12.389 14.7458 11.996 16 11.996C17.2542 11.996 18.4769 12.389 19.4962 13.1199C20.5155 13.8507 21.2801 14.8825 21.6826 16.0704C22.0851 17.2583 22.1053 18.5424 21.7403 19.7423C21.3752 20.9422 20.6434 21.9976 19.6475 22.76C21.4173 23.5234 22.8955 24.8342 23.865 26.5ZM16 22C16.7911 22 17.5645 21.7654 18.2223 21.3259C18.8801 20.8864 19.3928 20.2617 19.6955 19.5308C19.9983 18.7998 20.0775 17.9956 19.9232 17.2197C19.7688 16.4437 19.3878 15.731 18.8284 15.1716C18.269 14.6122 17.5563 14.2312 16.7804 14.0769C16.0045 13.9225 15.2002 14.0018 14.4693 14.3045C13.7384 14.6073 13.1137 15.1199 12.6741 15.7777C12.2346 16.4355 12 17.2089 12 18C12 19.0609 12.4214 20.0783 13.1716 20.8284C13.9217 21.5786 14.9391 22 16 22ZM9.00001 15C9.00001 14.7348 8.89466 14.4804 8.70712 14.2929C8.51958 14.1054 8.26523 14 8.00001 14C7.43892 14 6.88909 13.8426 6.41297 13.5457C5.93686 13.2488 5.55353 12.8244 5.30655 12.3206C5.05957 11.8168 4.95882 11.2538 5.01576 10.6956C5.0727 10.1374 5.28503 9.60636 5.62865 9.1628C5.97226 8.71923 6.43339 8.38092 6.95964 8.18629C7.48589 7.99166 8.05618 7.94851 8.60572 8.06175C9.15527 8.17499 9.66204 8.44007 10.0685 8.82688C10.4749 9.2137 10.7647 9.70675 10.905 10.25C10.9713 10.5069 11.137 10.727 11.3655 10.8618C11.5941 10.9966 11.8668 11.0351 12.1238 10.9688C12.3807 10.9025 12.6008 10.7368 12.7355 10.5083C12.8703 10.2797 12.9088 10.0069 12.8425 9.75002C12.6478 8.99666 12.28 8.29914 11.7683 7.71296C11.2566 7.12678 10.6151 6.66811 9.89495 6.37346C9.17479 6.0788 8.3958 5.9563 7.61996 6.01568C6.84412 6.07507 6.09285 6.31471 5.42592 6.71553C4.75899 7.11636 4.19482 7.66731 3.77829 8.32454C3.36176 8.98178 3.10437 9.72715 3.0266 10.5014C2.94883 11.2756 3.05283 12.0573 3.33032 12.7842C3.60781 13.5112 4.05113 14.1633 4.62501 14.6888C3.26662 15.2781 2.08591 16.2123 1.20001 17.3988C1.04072 17.6109 0.972231 17.8777 1.00962 18.1404C1.04701 18.403 1.18721 18.6401 1.39939 18.7994C1.61156 18.9587 1.87832 19.0272 2.14099 18.9898C2.40366 18.9524 2.64072 18.8122 2.80001 18.6C3.40275 17.7898 4.18728 17.1325 5.09046 16.6809C5.99364 16.2293 6.99023 15.9961 8.00001 16C8.26523 16 8.51958 15.8947 8.70712 15.7071C8.89466 15.5196 9.00001 15.2652 9.00001 15Z" fill="#343330"/>
</svg>
