<svg width="32" height="32" viewBox="0 0 32 32" fill="none" xmlns="http://www.w3.org/2000/svg">
<path d="M12.0325 4.62501C11.9675 4.36894 12.0065 4.09757 12.1409 3.87016C12.2753 3.64275 12.4943 3.47777 12.75 3.41126C14.8817 2.86145 17.1182 2.86145 19.25 3.41126C19.4861 3.47171 19.692 3.61632 19.829 3.81791C19.966 4.0195 20.0247 4.26418 19.994 4.50598C19.9633 4.74778 19.8453 4.97003 19.6623 5.13098C19.4792 5.29193 19.2437 5.38048 19 5.38001C18.9156 5.37956 18.8316 5.36865 18.75 5.3475C16.9462 4.88178 15.0537 4.88178 13.25 5.3475C13.1226 5.38015 12.99 5.38736 12.8598 5.3687C12.7296 5.35005 12.6044 5.3059 12.4913 5.23879C12.3783 5.17168 12.2795 5.08292 12.2008 4.9776C12.122 4.87228 12.0648 4.75246 12.0325 4.62501ZM4.16871 13.75C4.29527 13.7852 4.42752 13.795 4.5579 13.7791C4.68827 13.7631 4.81423 13.7216 4.92857 13.6569C5.04291 13.5923 5.14339 13.5057 5.22427 13.4022C5.30515 13.2987 5.36485 13.1803 5.39996 13.0538C5.89819 11.2592 6.84449 9.62081 8.14996 8.2925C8.32087 8.1008 8.41147 7.85068 8.40298 7.59398C8.39449 7.33729 8.28756 7.0937 8.10435 6.9137C7.92114 6.73371 7.6757 6.6311 7.41889 6.62716C7.16209 6.62321 6.91361 6.71822 6.72496 6.8925C5.18269 8.46198 4.06439 10.3975 3.47496 12.5175C3.43957 12.644 3.42945 12.7762 3.44516 12.9066C3.46087 13.037 3.50212 13.163 3.56654 13.2775C3.63096 13.3919 3.7173 13.4925 3.82062 13.5736C3.92394 13.6547 4.04222 13.7146 4.16871 13.75ZM18.75 26.6525C16.9462 27.1182 15.0537 27.1182 13.25 26.6525C12.9948 26.5908 12.7255 26.6318 12.5003 26.7669C12.2752 26.902 12.1122 27.1202 12.0465 27.3744C11.9809 27.6287 12.0179 27.8985 12.1495 28.1257C12.2811 28.3529 12.4968 28.5192 12.75 28.5888C14.8817 29.1386 17.1182 29.1386 19.25 28.5888C19.5032 28.5192 19.7188 28.3529 19.8505 28.1257C19.9821 27.8985 20.019 27.6287 19.9534 27.3744C19.8877 27.1202 19.7247 26.902 19.4996 26.7669C19.2744 26.6318 19.0052 26.5908 18.75 26.6525ZM26.6 13.0563C26.6709 13.3119 26.8405 13.5288 27.0714 13.6594C27.3023 13.79 27.5756 13.8235 27.8312 13.7525C28.0868 13.6816 28.3038 13.512 28.4343 13.2811C28.5649 13.0502 28.5984 12.7769 28.5275 12.5213C27.9376 10.4014 26.8194 8.46599 25.2775 6.89625C25.1863 6.79892 25.0766 6.72079 24.9549 6.66647C24.8331 6.61215 24.7017 6.58274 24.5683 6.57996C24.435 6.57718 24.3025 6.60109 24.1786 6.65028C24.0546 6.69947 23.9418 6.77296 23.8467 6.86641C23.7515 6.95986 23.6761 7.07139 23.6247 7.19444C23.5733 7.31749 23.5471 7.44957 23.5475 7.58291C23.5479 7.71626 23.575 7.84817 23.6272 7.97089C23.6793 8.09361 23.7555 8.20466 23.8512 8.2975C25.1543 9.62625 26.0995 11.2634 26.5987 13.0563H26.6ZM28.53 19.48C27.8684 21.8652 26.5376 24.011 24.695 25.6638C24.581 25.7666 24.4449 25.8419 24.2971 25.8837C24.1494 25.9255 23.994 25.9327 23.8431 25.9047C23.6921 25.8768 23.5496 25.8145 23.4266 25.7227C23.3036 25.6308 23.2033 25.5118 23.1337 25.375C22.465 24.0575 21.4445 22.9509 20.1853 22.1779C18.9261 21.4049 17.4775 20.9957 16 20.9957C14.5224 20.9957 13.0738 21.4049 11.8146 22.1779C10.5554 22.9509 9.53491 24.0575 8.86621 25.375C8.79665 25.5117 8.69657 25.6306 8.57371 25.7224C8.45086 25.8143 8.30852 25.8766 8.15771 25.9047C8.00691 25.9327 7.85167 25.9257 7.70402 25.8841C7.55637 25.8426 7.42025 25.7676 7.30621 25.665C5.46351 24.0113 4.13275 21.8647 3.47121 19.4788C3.40043 19.2232 3.43408 18.9499 3.56477 18.7191C3.69546 18.4883 3.91248 18.3189 4.16808 18.2481C4.42368 18.1774 4.69693 18.211 4.92772 18.3417C5.15851 18.4724 5.32793 18.6894 5.39871 18.945C5.84602 20.561 6.65858 22.0527 7.77371 23.305C8.88947 21.6867 10.4597 20.4353 12.2862 19.7088C11.3061 18.9372 10.5909 17.8795 10.2399 16.6825C9.88891 15.4856 9.91969 14.2091 10.3279 13.0305C10.7362 11.8518 11.5016 10.8298 12.5177 10.1064C13.5338 9.38297 14.7501 8.99424 15.9975 8.99424C17.2448 8.99424 18.4611 9.38297 19.4772 10.1064C20.4933 10.8298 21.2587 11.8518 21.667 13.0305C22.0752 14.2091 22.106 15.4856 21.755 16.6825C21.4041 17.8795 20.6888 18.9372 19.7087 19.7088C21.5352 20.4353 23.1054 21.6867 24.2212 23.305C25.3363 22.0527 26.1489 20.561 26.5962 18.945C26.6313 18.8184 26.691 18.7 26.7719 18.5966C26.8528 18.4931 26.9533 18.4065 27.0676 18.3419C27.182 18.2772 27.3079 18.2357 27.4383 18.2197C27.5687 18.2038 27.7009 18.2136 27.8275 18.2488C27.954 18.2839 28.0724 18.3436 28.1759 18.4245C28.2794 18.5054 28.3659 18.6058 28.4306 18.7202C28.4952 18.8345 28.5367 18.9605 28.5527 19.0908C28.5687 19.2212 28.5588 19.3534 28.5237 19.48H28.53ZM16 19C16.7911 19 17.5644 18.7654 18.2222 18.3259C18.88 17.8864 19.3927 17.2616 19.6955 16.5307C19.9982 15.7998 20.0774 14.9956 19.9231 14.2196C19.7688 13.4437 19.3878 12.731 18.8284 12.1716C18.269 11.6122 17.5562 11.2312 16.7803 11.0769C16.0044 10.9225 15.2001 11.0017 14.4692 11.3045C13.7383 11.6072 13.1136 12.1199 12.6741 12.7777C12.2346 13.4355 12 14.2089 12 15C12 16.0609 12.4214 17.0783 13.1715 17.8284C13.9217 18.5786 14.9391 19 16 19Z" fill="#343330"/>
</svg>
