<svg width="32" height="32" viewBox="0 0 32 32" fill="none" xmlns="http://www.w3.org/2000/svg">
<path d="M31.7081 16.7075L28.7081 19.7075C28.6152 19.8005 28.5049 19.8742 28.3835 19.9245C28.2621 19.9749 28.132 20.0008 28.0006 20.0008C27.8691 20.0008 27.739 19.9749 27.6176 19.9245C27.4962 19.8742 27.3859 19.8005 27.2931 19.7075L24.2931 16.7075C24.1054 16.5198 24 16.2653 24 16C24 15.7346 24.1054 15.4801 24.2931 15.2925C24.4807 15.1048 24.7352 14.9994 25.0006 14.9994C25.2659 14.9994 25.5204 15.1048 25.7081 15.2925L27.0006 16.5862V16C27.0017 13.6708 26.2635 11.4013 24.8922 9.51854C23.5209 7.63577 21.5874 6.23687 19.3702 5.52337C17.1529 4.80987 14.7664 4.8186 12.5545 5.54829C10.3425 6.27799 8.41928 7.69098 7.06181 9.58373C6.90699 9.79922 6.6729 9.94438 6.41106 9.98728C6.14921 10.0302 5.88104 9.9673 5.66556 9.81248C5.45007 9.65766 5.30491 9.42358 5.26201 9.16173C5.21911 8.89988 5.28199 8.63172 5.43681 8.41623C7.04117 6.17938 9.31416 4.50954 11.9283 3.64725C14.5425 2.78497 17.3629 2.77476 19.9833 3.61809C22.6036 4.46143 24.8887 6.11477 26.5092 8.33995C28.1297 10.5651 29.002 13.2473 29.0006 16V16.5862L30.2931 15.2925C30.4807 15.1048 30.7352 14.9994 31.0006 14.9994C31.2659 14.9994 31.5204 15.1048 31.7081 15.2925C31.8957 15.4801 32.0011 15.7346 32.0011 16C32.0011 16.2653 31.8957 16.5198 31.7081 16.7075ZM26.5606 23.5825C24.9557 25.8176 22.6831 27.4859 20.0697 28.3472C17.4564 29.2085 14.6372 29.2184 12.0178 28.3754C9.39854 27.5324 7.11427 25.88 5.49385 23.6562C3.87343 21.4323 3.00045 18.7516 3.00056 16V15.4137L1.70806 16.7075C1.52042 16.8951 1.26592 17.0005 1.00056 17.0005C0.735192 17.0005 0.480697 16.8951 0.293056 16.7075C0.105415 16.5198 0 16.2653 0 16C0 15.7346 0.105415 15.4801 0.293056 15.2925L3.29306 12.2925C3.38593 12.1995 3.49622 12.1257 3.61762 12.0754C3.73901 12.0251 3.86914 11.9992 4.00056 11.9992C4.13197 11.9992 4.2621 12.0251 4.3835 12.0754C4.50489 12.1257 4.61518 12.1995 4.70806 12.2925L7.70806 15.2925C7.8957 15.4801 8.00111 15.7346 8.00111 16C8.00111 16.2653 7.8957 16.5198 7.70806 16.7075C7.52042 16.8951 7.26592 17.0005 7.00056 17.0005C6.73519 17.0005 6.4807 16.8951 6.29306 16.7075L5.00056 15.4137V16C4.99819 18.6927 5.98787 21.292 7.78056 23.3012C8.89585 21.6851 10.4641 20.4348 12.2881 19.7075C11.3083 18.9358 10.5933 17.878 10.2426 16.6811C9.89195 15.4842 9.92293 14.2078 10.3313 13.0294C10.7396 11.851 11.5051 10.8291 12.5211 10.1058C13.5372 9.3826 14.7534 8.99395 16.0006 8.99395C17.2477 8.99395 18.4639 9.3826 19.48 10.1058C20.496 10.8291 21.2615 11.851 21.6698 13.0294C22.0782 14.2078 22.1092 15.4842 21.7585 16.6811C21.4078 17.878 20.6928 18.9358 19.7131 19.7075C21.5387 20.4349 23.108 21.6867 24.2231 23.305C24.4759 23.021 24.7141 22.7244 24.9368 22.4162C25.0916 22.2007 25.3257 22.0556 25.5876 22.0127C25.8494 21.9698 26.1176 22.0327 26.3331 22.1875C26.5485 22.3423 26.6937 22.5764 26.7366 22.8382C26.7795 23.1001 26.7166 23.3682 26.5618 23.5837L26.5606 23.5825ZM16.0006 19C16.7917 19 17.565 18.7654 18.2228 18.3259C18.8806 17.8863 19.3933 17.2616 19.6961 16.5307C19.9988 15.7998 20.078 14.9955 19.9237 14.2196C19.7694 13.4437 19.3884 12.731 18.829 12.1716C18.2696 11.6121 17.5568 11.2312 16.7809 11.0768C16.005 10.9225 15.2007 11.0017 14.4698 11.3045C13.7389 11.6072 13.1142 12.1199 12.6747 12.7777C12.2352 13.4355 12.0006 14.2089 12.0006 15C12.0006 16.0608 12.422 17.0783 13.1721 17.8284C13.9223 18.5786 14.9397 19 16.0006 19ZM16.0006 27C18.4411 26.9968 20.8116 26.1839 22.7406 24.6887C22.0171 23.5573 21.0205 22.6262 19.8427 21.9813C18.6648 21.3364 17.3435 20.9983 16.0006 20.9983C14.6577 20.9983 13.3364 21.3364 12.1585 21.9813C10.9806 22.6262 9.98397 23.5573 9.26056 24.6887C11.1866 26.1893 13.559 27.0028 16.0006 27Z" fill="#343330"/>
</svg>
