<svg width="33" height="32" viewBox="0 0 33 32" fill="none" xmlns="http://www.w3.org/2000/svg">
<path d="M18 19.71C19.5676 18.7336 20.7746 17.2733 21.4383 15.5498C22.1021 13.8264 22.1864 11.9337 21.6787 10.1581C21.1709 8.38242 20.0987 6.82045 18.6242 5.70847C17.1496 4.59649 15.3531 3.995 13.5063 3.995C11.6594 3.995 9.86286 4.59649 8.38834 5.70847C6.91381 6.82045 5.84156 8.38242 5.33381 10.1581C4.82606 11.9337 4.91044 13.8264 5.57417 15.5498C6.2379 17.2733 7.44488 18.7336 9.0125 19.71C6.43125 20.555 4.10875 22.1337 2.24125 24.3562C2.15375 24.4563 2.08708 24.5728 2.04513 24.6989C2.00318 24.8251 1.98679 24.9583 1.99693 25.0908C2.00707 25.2233 2.04353 25.3525 2.10418 25.4708C2.16483 25.5891 2.24845 25.6941 2.35015 25.7797C2.45186 25.8653 2.5696 25.9297 2.6965 25.9692C2.8234 26.0088 2.95691 26.0226 3.08923 26.01C3.22155 25.9973 3.35001 25.9584 3.46712 25.8955C3.58422 25.8327 3.68762 25.7471 3.77125 25.6437C6.28125 22.6487 9.73875 21 13.5 21C17.2613 21 20.7188 22.6487 23.2338 25.6437C23.4045 25.847 23.649 25.974 23.9134 25.997C24.1778 26.02 24.4405 25.937 24.6438 25.7662C24.847 25.5955 24.974 25.351 24.997 25.0866C25.02 24.8222 24.937 24.5595 24.7663 24.3562C22.8975 22.1337 20.575 20.555 18 19.71ZM7 12.5C7 11.2144 7.38122 9.95771 8.09545 8.88879C8.80968 7.81987 9.82484 6.98675 11.0126 6.49478C12.2003 6.00281 13.5072 5.87409 14.7681 6.12489C16.029 6.37569 17.1872 6.99476 18.0962 7.9038C19.0052 8.81284 19.6243 9.97103 19.8751 11.2319C20.1259 12.4928 19.9972 13.7997 19.5052 14.9874C19.0132 16.1752 18.1801 17.1903 17.1112 17.9045C16.0423 18.6188 14.7856 19 13.5 19C11.7767 18.998 10.1246 18.3126 8.906 17.094C7.68744 15.8754 7.00199 14.2233 7 12.5ZM31.5313 17.8837L30.9488 17.5475C31.0171 17.1857 31.0171 16.8143 30.9488 16.4525L31.5313 16.1162C31.645 16.0506 31.7447 15.9632 31.8247 15.859C31.9047 15.7548 31.9633 15.6358 31.9973 15.509C32.0313 15.3821 32.04 15.2498 32.0229 15.1196C32.0058 14.9893 31.9632 14.8638 31.8975 14.75C31.8318 14.6362 31.7444 14.5365 31.6402 14.4566C31.536 14.3766 31.4171 14.3179 31.2902 14.2839C31.1634 14.2499 31.031 14.2412 30.9008 14.2583C30.7706 14.2755 30.645 14.3181 30.5313 14.3837L29.9475 14.7212C29.6681 14.4816 29.3469 14.2955 29 14.1725V13.5C29 13.2348 28.8946 12.9804 28.7071 12.7929C28.5196 12.6054 28.2652 12.5 28 12.5C27.7348 12.5 27.4804 12.6054 27.2929 12.7929C27.1054 12.9804 27 13.2348 27 13.5V14.1725C26.6531 14.2955 26.3319 14.4816 26.0525 14.7212L25.4688 14.3837C25.355 14.3181 25.2294 14.2755 25.0992 14.2583C24.969 14.2412 24.8366 14.2499 24.7098 14.2839C24.5829 14.3179 24.464 14.3766 24.3598 14.4566C24.2556 14.5365 24.1682 14.6362 24.1025 14.75C24.0368 14.8638 23.9942 14.9893 23.9771 15.1196C23.96 15.2498 23.9687 15.3821 24.0027 15.509C24.0367 15.6358 24.0953 15.7548 24.1753 15.859C24.2553 15.9632 24.355 16.0506 24.4688 16.1162L25.0513 16.4525C24.9829 16.8143 24.9829 17.1857 25.0513 17.5475L24.4688 17.8837C24.355 17.9494 24.2553 18.0368 24.1753 18.141C24.0953 18.2452 24.0367 18.3641 24.0027 18.491C23.9687 18.6179 23.96 18.7502 23.9771 18.8804C23.9942 19.0107 24.0368 19.1362 24.1025 19.25C24.1682 19.3638 24.2556 19.4635 24.3598 19.5434C24.464 19.6234 24.5829 19.6821 24.7098 19.7161C24.8366 19.7501 24.969 19.7588 25.0992 19.7416C25.2294 19.7245 25.355 19.6819 25.4688 19.6162L26.0525 19.2787C26.3319 19.5184 26.6531 19.7045 27 19.8275V20.5C27 20.7652 27.1054 21.0196 27.2929 21.2071C27.4804 21.3946 27.7348 21.5 28 21.5C28.2652 21.5 28.5196 21.3946 28.7071 21.2071C28.8946 21.0196 29 20.7652 29 20.5V19.8275C29.3469 19.7045 29.6681 19.5184 29.9475 19.2787L30.5313 19.6162C30.6831 19.7044 30.8557 19.7505 31.0313 19.75C31.2515 19.7501 31.4655 19.6775 31.6403 19.5435C31.815 19.4094 31.9406 19.2215 31.9976 19.0088C32.0546 18.7961 32.0397 18.5705 31.9554 18.3671C31.8711 18.1637 31.722 17.9938 31.5313 17.8837ZM27 17C27 16.8022 27.0586 16.6089 27.1685 16.4444C27.2784 16.28 27.4346 16.1518 27.6173 16.0761C27.8 16.0004 28.0011 15.9806 28.1951 16.0192C28.3891 16.0578 28.5673 16.153 28.7071 16.2929C28.847 16.4327 28.9422 16.6109 28.9808 16.8049C29.0194 16.9989 28.9996 17.2 28.9239 17.3827C28.8482 17.5654 28.72 17.7216 28.5556 17.8315C28.3911 17.9413 28.1978 18 28 18C27.7348 18 27.4804 17.8946 27.2929 17.7071C27.1054 17.5196 27 17.2652 27 17Z" fill="#343330"/>
</svg>
