<svg width="32" height="32" viewBox="0 0 32 32" fill="none" xmlns="http://www.w3.org/2000/svg">
<path d="M21 7C21 6.73478 21.1054 6.48043 21.2929 6.29289C21.4804 6.10536 21.7348 6 22 6H28C28.2652 6 28.5196 6.10536 28.7071 6.29289C28.8946 6.48043 29 6.73478 29 7C29 7.26522 28.8946 7.51957 28.7071 7.70711C28.5196 7.89464 28.2652 8 28 8H22C21.7348 8 21.4804 7.89464 21.2929 7.70711C21.1054 7.51957 21 7.26522 21 7ZM28.26 11.6663C29.2088 14.3537 29.2476 17.2787 28.3702 19.9903C27.4929 22.702 25.7482 25.0499 23.4049 26.6723C21.0617 28.2947 18.2499 29.1014 15.403 28.9683C12.556 28.8352 9.83184 27.7695 7.65022 25.9356C5.4686 24.1016 3.9506 21.6011 3.33015 18.8194C2.70969 16.0377 3.02121 13.1291 4.2167 10.5419C5.41218 7.95471 7.4253 5.83242 9.94583 4.50208C12.4664 3.17174 15.3544 2.70719 18.165 3.18C18.4246 3.22591 18.6555 3.37245 18.8076 3.58776C18.9597 3.80308 19.0206 4.06973 18.9772 4.32973C18.9337 4.58973 18.7893 4.82203 18.5754 4.97611C18.3615 5.13019 18.0954 5.19359 17.835 5.1525C16.2577 4.88716 14.6415 4.96872 13.0988 5.39151C11.5562 5.8143 10.1243 6.56816 8.90265 7.60063C7.68101 8.63309 6.69903 9.91937 6.02505 11.3699C5.35107 12.8205 5.00127 14.4005 5 16C4.99763 18.6927 5.98731 21.292 7.78 23.3013C8.89529 21.6851 10.4635 20.4348 12.2875 19.7075C11.3077 18.9358 10.5928 17.878 10.2421 16.6811C9.8914 15.4843 9.92238 14.2079 10.3307 13.0294C10.7391 11.851 11.5045 10.8291 12.5206 10.1059C13.5366 9.38262 14.7528 8.99397 16 8.99397C17.2472 8.99397 18.4634 9.38262 19.4794 10.1059C20.4955 10.8291 21.2609 11.851 21.6693 13.0294C22.0776 14.2079 22.1086 15.4843 21.7579 16.6811C21.4072 17.878 20.6923 18.9358 19.7125 19.7075C21.5365 20.4348 23.1047 21.6851 24.22 23.3013C25.5264 21.8325 26.4153 20.0404 26.7943 18.1116C27.1733 16.1828 27.0285 14.1876 26.375 12.3338C26.3312 12.2099 26.3122 12.0786 26.3191 11.9474C26.326 11.8162 26.3587 11.6877 26.4152 11.5691C26.4718 11.4505 26.5512 11.3443 26.6489 11.2564C26.7465 11.1685 26.8605 11.1007 26.9844 11.0569C27.1082 11.013 27.2395 10.994 27.3707 11.0009C27.5019 11.0078 27.6305 11.0405 27.749 11.0971C27.8676 11.1537 27.9739 11.2331 28.0617 11.3307C28.1496 11.4284 28.2174 11.5424 28.2613 11.6663H28.26ZM16 19C16.7911 19 17.5645 18.7654 18.2223 18.3259C18.8801 17.8864 19.3928 17.2616 19.6955 16.5307C19.9983 15.7998 20.0775 14.9956 19.9231 14.2196C19.7688 13.4437 19.3878 12.731 18.8284 12.1716C18.269 11.6122 17.5563 11.2312 16.7804 11.0769C16.0044 10.9225 15.2002 11.0017 14.4693 11.3045C13.7384 11.6072 13.1136 12.1199 12.6741 12.7777C12.2346 13.4355 12 14.2089 12 15C12 16.0609 12.4214 17.0783 13.1716 17.8284C13.9217 18.5786 14.9391 19 16 19ZM16 27C18.4417 27.0025 20.8141 26.1885 22.74 24.6875C22.0166 23.5561 21.02 22.625 19.8421 21.9801C18.6642 21.3351 17.3429 20.9971 16 20.9971C14.6571 20.9971 13.3358 21.3351 12.1579 21.9801C10.98 22.625 9.98342 23.5561 9.26 24.6875C11.1859 26.1885 13.5583 27.0025 16 27Z" fill="#343330"/>
</svg>
