<svg width="32" height="32" viewBox="0 0 32 32" fill="none" xmlns="http://www.w3.org/2000/svg">
<path d="M18 19.71C19.5676 18.7336 20.7746 17.2733 21.4383 15.5498C22.1021 13.8264 22.1865 11.9337 21.6787 10.1581C21.171 8.38242 20.0987 6.82045 18.6242 5.70847C17.1497 4.59649 15.3531 3.995 13.5063 3.995C11.6595 3.995 9.86288 4.59649 8.38835 5.70847C6.91383 6.82045 5.84158 8.38242 5.33383 10.1581C4.82608 11.9337 4.91045 13.8264 5.57418 15.5498C6.23792 17.2733 7.4449 18.7336 9.01252 19.71C6.43127 20.555 4.10877 22.1337 2.24127 24.3562C2.07053 24.5593 1.98746 24.8219 2.01031 25.0862C2.03317 25.3505 2.16009 25.5949 2.36314 25.7656C2.5662 25.9364 2.82876 26.0194 3.09307 25.9966C3.35738 25.9737 3.60178 25.8468 3.77252 25.6437C6.28127 22.6487 9.73877 21 13.5 21C17.2613 21 20.7188 22.6487 23.2338 25.6437C23.4045 25.8468 23.6489 25.9737 23.9132 25.9966C24.1775 26.0194 24.4401 25.9364 24.6431 25.7656C24.8462 25.5949 24.9731 25.3505 24.996 25.0862C25.0188 24.8219 24.9357 24.5593 24.765 24.3562C22.8975 22.1337 20.575 20.555 18 19.71ZM7.00002 12.5C7.00002 11.2144 7.38124 9.95771 8.09546 8.88879C8.80969 7.81987 9.82486 6.98675 11.0126 6.49478C12.2003 6.00281 13.5072 5.87409 14.7681 6.12489C16.029 6.37569 17.1872 6.99476 18.0962 7.9038C19.0053 8.81284 19.6243 9.97103 19.8751 11.2319C20.1259 12.4928 19.9972 13.7997 19.5052 14.9874C19.0133 16.1752 18.1801 17.1903 17.1112 17.9045C16.0423 18.6188 14.7856 19 13.5 19C11.7767 18.998 10.1246 18.3126 8.90602 17.094C7.68746 15.8754 7.002 14.2233 7.00002 12.5ZM31.7075 16.7075L27.7075 20.7075C27.6146 20.8005 27.5044 20.8742 27.383 20.9246C27.2616 20.9749 27.1314 21.0008 27 21.0008C26.8686 21.0008 26.7385 20.9749 26.6171 20.9246C26.4957 20.8742 26.3854 20.8005 26.2925 20.7075L24.2925 18.7075C24.1049 18.5199 23.9995 18.2654 23.9995 18C23.9995 17.7346 24.1049 17.4801 24.2925 17.2925C24.4802 17.1049 24.7347 16.9994 25 16.9994C25.2654 16.9994 25.5199 17.1049 25.7075 17.2925L27 18.5862L30.2925 15.2925C30.4802 15.1049 30.7347 14.9994 31 14.9994C31.2654 14.9994 31.5199 15.1049 31.7075 15.2925C31.8952 15.4801 32.0006 15.7346 32.0006 16C32.0006 16.2654 31.8952 16.5199 31.7075 16.7075Z" fill="#343330"/>
</svg>
