<svg width="32" height="32" viewBox="0 0 32 32" fill="none" xmlns="http://www.w3.org/2000/svg">
<path d="M31.7588 13.3488L26.0662 6.71625C25.8785 6.49198 25.6439 6.31161 25.3789 6.18786C25.1139 6.06411 24.825 5.99998 24.5325 6H4C3.46957 6 2.96086 6.21071 2.58579 6.58579C2.21071 6.96086 2 7.46957 2 8V22C2 22.5304 2.21071 23.0391 2.58579 23.4142C2.96086 23.7893 3.46957 24 4 24H6.125C6.3453 24.8604 6.8457 25.623 7.54731 26.1676C8.24892 26.7122 9.11183 27.0078 10 27.0078C10.8882 27.0078 11.7511 26.7122 12.4527 26.1676C13.1543 25.623 13.6547 24.8604 13.875 24H20.125C20.3453 24.8604 20.8457 25.623 21.5473 26.1676C22.2489 26.7122 23.1118 27.0078 24 27.0078C24.8882 27.0078 25.7511 26.7122 26.4527 26.1676C27.1543 25.623 27.6547 24.8604 27.875 24H30C30.5304 24 31.0391 23.7893 31.4142 23.4142C31.7893 23.0391 32 22.5304 32 22V14C32 13.7611 31.9144 13.53 31.7588 13.3488ZM28.8237 13H22V8H24.5325L28.8237 13ZM13 13V8H20V13H13ZM11 8V13H4V8H11ZM10 25C9.60444 25 9.21776 24.8827 8.88886 24.6629C8.55996 24.4432 8.30362 24.1308 8.15224 23.7654C8.00087 23.3999 7.96126 22.9978 8.03843 22.6098C8.1156 22.2219 8.30608 21.8655 8.58579 21.5858C8.86549 21.3061 9.22186 21.1156 9.60982 21.0384C9.99778 20.9613 10.3999 21.0009 10.7654 21.1522C11.1308 21.3036 11.4432 21.56 11.6629 21.8889C11.8827 22.2178 12 22.6044 12 23C12 23.5304 11.7893 24.0391 11.4142 24.4142C11.0391 24.7893 10.5304 25 10 25ZM24 25C23.6044 25 23.2178 24.8827 22.8889 24.6629C22.56 24.4432 22.3036 24.1308 22.1522 23.7654C22.0009 23.3999 21.9613 22.9978 22.0384 22.6098C22.1156 22.2219 22.3061 21.8655 22.5858 21.5858C22.8655 21.3061 23.2219 21.1156 23.6098 21.0384C23.9978 20.9613 24.3999 21.0009 24.7654 21.1522C25.1308 21.3036 25.4432 21.56 25.6629 21.8889C25.8827 22.2178 26 22.6044 26 23C26 23.5304 25.7893 24.0391 25.4142 24.4142C25.0391 24.7893 24.5304 25 24 25ZM27.875 22C27.6547 21.1396 27.1543 20.377 26.4527 19.8324C25.7511 19.2878 24.8882 18.9922 24 18.9922C23.1118 18.9922 22.2489 19.2878 21.5473 19.8324C20.8457 20.377 20.3453 21.1396 20.125 22H13.875C13.6547 21.1396 13.1543 20.377 12.4527 19.8324C11.7511 19.2878 10.8882 18.9922 10 18.9922C9.11183 18.9922 8.24892 19.2878 7.54731 19.8324C6.8457 20.377 6.3453 21.1396 6.125 22H4V15H30V22H27.875Z" fill="#343330"/>
</svg>
