<svg width="32" height="32" viewBox="0 0 32 32" fill="none" xmlns="http://www.w3.org/2000/svg">
<path d="M29.7075 17.7075L25.7075 21.7075C25.5199 21.8951 25.2654 22.0005 25 22.0005C24.7346 22.0005 24.4801 21.8951 24.2925 21.7075C24.1049 21.5199 23.9994 21.2654 23.9994 21C23.9994 20.7346 24.1049 20.4801 24.2925 20.2925L26.5863 18H15.4137L8.41375 25H12C12.2652 25 12.5196 25.1053 12.7071 25.2929C12.8946 25.4804 13 25.7348 13 26C13 26.2652 12.8946 26.5196 12.7071 26.7071C12.5196 26.8946 12.2652 27 12 27H6C5.73478 27 5.48043 26.8946 5.29289 26.7071C5.10536 26.5196 5 26.2652 5 26V20C5 19.7348 5.10536 19.4804 5.29289 19.2929C5.48043 19.1053 5.73478 19 6 19C6.26522 19 6.51957 19.1053 6.70711 19.2929C6.89464 19.4804 7 19.7348 7 20V23.5862L14 16.5862V5.41374L11.7075 7.70749C11.5199 7.89513 11.2654 8.00055 11 8.00055C10.7346 8.00055 10.4801 7.89513 10.2925 7.70749C10.1049 7.51985 9.99944 7.26536 9.99944 6.99999C9.99944 6.73463 10.1049 6.48013 10.2925 6.29249L14.2925 2.29249C14.3854 2.19952 14.4957 2.12576 14.6171 2.07543C14.7385 2.02511 14.8686 1.99921 15 1.99921C15.1314 1.99921 15.2615 2.02511 15.3829 2.07543C15.5043 2.12576 15.6146 2.19952 15.7075 2.29249L19.7075 6.29249C19.8951 6.48013 20.0006 6.73463 20.0006 6.99999C20.0006 7.26536 19.8951 7.51985 19.7075 7.70749C19.5199 7.89513 19.2654 8.00055 19 8.00055C18.7346 8.00055 18.4801 7.89513 18.2925 7.70749L16 5.41374V16H26.5863L24.2925 13.7075C24.1049 13.5199 23.9994 13.2654 23.9994 13C23.9994 12.7346 24.1049 12.4801 24.2925 12.2925C24.4801 12.1049 24.7346 11.9994 25 11.9994C25.2654 11.9994 25.5199 12.1049 25.7075 12.2925L29.7075 16.2925C29.8005 16.3854 29.8742 16.4957 29.9246 16.6171C29.9749 16.7385 30.0008 16.8686 30.0008 17C30.0008 17.1314 29.9749 17.2615 29.9246 17.3829C29.8742 17.5043 29.8005 17.6146 29.7075 17.7075Z" fill="#343330"/>
</svg>
