<svg width="32" height="32" viewBox="0 0 32 32" fill="none" xmlns="http://www.w3.org/2000/svg">
<path d="M28.7076 24.7075L24.7076 28.7075C24.5199 28.8951 24.2654 29.0005 24.0001 29.0005C23.7347 29.0005 23.4802 28.8951 23.2926 28.7075C23.1049 28.5199 22.9995 28.2654 22.9995 28C22.9995 27.7346 23.1049 27.4801 23.2926 27.2925L25.5863 25H10.0001C9.73485 25 9.4805 24.8946 9.29296 24.7071C9.10542 24.5196 9.00007 24.2652 9.00007 24V7.41374L6.70757 9.70749C6.51993 9.89513 6.26543 10.0005 6.00007 10.0005C5.7347 10.0005 5.48021 9.89513 5.29257 9.70749C5.10493 9.51985 4.99951 9.26536 4.99951 8.99999C4.99951 8.73463 5.10493 8.48013 5.29257 8.29249L9.29257 4.29249C9.38544 4.19952 9.49573 4.12576 9.61713 4.07543C9.73853 4.02511 9.86865 3.99921 10.0001 3.99921C10.1315 3.99921 10.2616 4.02511 10.383 4.07543C10.5044 4.12576 10.6147 4.19952 10.7076 4.29249L14.7076 8.29249C14.8952 8.48013 15.0006 8.73463 15.0006 8.99999C15.0006 9.26536 14.8952 9.51985 14.7076 9.70749C14.5199 9.89513 14.2654 10.0005 14.0001 10.0005C13.7347 10.0005 13.4802 9.89513 13.2926 9.70749L11.0001 7.41374V23H25.5863L23.2926 20.7075C23.1049 20.5199 22.9995 20.2654 22.9995 20C22.9995 19.7346 23.1049 19.4801 23.2926 19.2925C23.4802 19.1049 23.7347 18.9994 24.0001 18.9994C24.2654 18.9994 24.5199 19.1049 24.7076 19.2925L28.7076 23.2925C28.8005 23.3854 28.8743 23.4957 28.9246 23.6171C28.975 23.7385 29.0009 23.8686 29.0009 24C29.0009 24.1314 28.975 24.2615 28.9246 24.3829C28.8743 24.5043 28.8005 24.6146 28.7076 24.7075Z" fill="#343330"/>
</svg>
