<svg width="32" height="32" viewBox="0 0 32 32" fill="none" xmlns="http://www.w3.org/2000/svg">
<path d="M31.4713 9.12499C31.3118 9.03952 31.1321 8.99891 30.9514 9.00749C30.7707 9.01608 30.5956 9.07354 30.445 9.17374L26 12.1312V8.99999C26 8.46956 25.7893 7.96085 25.4142 7.58578C25.0391 7.21071 24.5304 6.99999 24 6.99999H14.1325C13.8673 6.99999 13.6129 7.10535 13.4254 7.29289C13.2379 7.48042 13.1325 7.73478 13.1325 7.99999C13.1325 8.26521 13.2379 8.51956 13.4254 8.7071C13.6129 8.89464 13.8673 8.99999 14.1325 8.99999H24V19.9537C24 20.219 24.1054 20.4733 24.2929 20.6608C24.4804 20.8484 24.7348 20.9537 25 20.9537C25.2652 20.9537 25.5196 20.8484 25.7071 20.6608C25.8946 20.4733 26 20.219 26 19.9537V19.875L30.445 22.8387C30.6101 22.9459 30.8032 23.002 31 23C31.2652 23 31.5196 22.8946 31.7071 22.7071C31.8946 22.5196 32 22.2652 32 22V9.99999C31.9987 9.82007 31.949 9.64381 31.8559 9.48981C31.7628 9.33582 31.63 9.20978 31.4713 9.12499ZM30 20.1312L26 17.465V14.535L30 11.875V20.1312ZM6.74 4.32749C6.65218 4.2285 6.54559 4.14792 6.4264 4.09043C6.30721 4.03294 6.1778 3.99967 6.04566 3.99256C5.91352 3.98545 5.78128 4.00464 5.65661 4.04902C5.53194 4.09339 5.41732 4.16207 5.31939 4.25107C5.22146 4.34007 5.14216 4.44762 5.0861 4.56749C5.03004 4.68736 4.99833 4.81716 4.99281 4.94938C4.98728 5.08159 5.00806 5.21359 5.05392 5.33772C5.09979 5.46184 5.16983 5.57563 5.26 5.67249L6.46625 6.99999H4C3.46957 6.99999 2.96086 7.21071 2.58579 7.58578C2.21071 7.96085 2 8.46956 2 8.99999V23C2 23.5304 2.21071 24.0391 2.58579 24.4142C2.96086 24.7893 3.46957 25 4 25H22.83L25.26 27.6725C25.3478 27.7715 25.4544 27.8521 25.5736 27.9096C25.6928 27.967 25.8222 28.0003 25.9543 28.0074C26.0865 28.0145 26.2187 27.9953 26.3434 27.951C26.4681 27.9066 26.5827 27.8379 26.6806 27.7489C26.7785 27.6599 26.8578 27.5524 26.9139 27.4325C26.97 27.3126 27.0017 27.1828 27.0072 27.0506C27.0127 26.9184 26.9919 26.7864 26.9461 26.6623C26.9002 26.5381 26.8302 26.4243 26.74 26.3275L6.74 4.32749ZM4 23V8.99999H8.285L21.0125 23H4Z" fill="#343330"/>
</svg>
