<svg width="32" height="32" viewBox="0 0 32 32" fill="none" xmlns="http://www.w3.org/2000/svg">
<path d="M15.4362 12.3512L12.4362 20.3512C12.3652 20.5426 12.2373 20.7077 12.0697 20.8242C11.9021 20.9408 11.7029 21.0033 11.4987 21.0033C11.2946 21.0033 11.0954 20.9408 10.9278 20.8242C10.7602 20.7077 10.6323 20.5426 10.5612 20.3512L7.56125 12.3512C7.46809 12.1026 7.47752 11.8271 7.58747 11.5855C7.69741 11.3438 7.89886 11.1557 8.1475 11.0625C8.39614 10.9693 8.6716 10.9788 8.91329 11.0887C9.15498 11.1987 9.34309 11.4001 9.43625 11.6488L11.5 17.1488L13.5638 11.6488C13.6099 11.5256 13.6798 11.4128 13.7695 11.3167C13.8593 11.2206 13.967 11.1432 14.0867 11.0887C14.2064 11.0343 14.3356 11.0039 14.467 10.9994C14.5984 10.9949 14.7294 11.0164 14.8525 11.0625C14.9756 11.1086 15.0884 11.1786 15.1845 11.2683C15.2806 11.358 15.3581 11.4658 15.4125 11.5855C15.467 11.7051 15.4973 11.8344 15.5018 11.9657C15.5063 12.0971 15.4849 12.2281 15.4388 12.3512H15.4362ZM32 16C31.997 18.6513 30.9425 21.1931 29.0678 23.0678C27.1931 24.9425 24.6513 25.997 22 26H10C7.34784 26 4.8043 24.9464 2.92893 23.0711C1.05357 21.1957 0 18.6522 0 16C0 13.3478 1.05357 10.8043 2.92893 8.92893C4.8043 7.05357 7.34784 6 10 6H22C24.6513 6.00298 27.1931 7.0575 29.0678 8.93222C30.9425 10.8069 31.997 13.3487 32 16ZM30 16C29.9977 13.879 29.1541 11.8455 27.6543 10.3457C26.1545 8.84591 24.121 8.00232 22 8H10C7.87827 8 5.84344 8.84285 4.34315 10.3431C2.84285 11.8434 2 13.8783 2 16C2 18.1217 2.84285 20.1566 4.34315 21.6569C5.84344 23.1571 7.87827 24 10 24H22C24.121 23.9977 26.1545 23.1541 27.6543 21.6543C29.1541 20.1545 29.9977 18.121 30 16ZM22.605 17.2938L23.875 19.5C24.0066 19.7304 24.0413 20.0037 23.9715 20.2596C23.9016 20.5156 23.7329 20.7334 23.5025 20.865C23.2721 20.9966 22.9988 21.0313 22.7429 20.9615C22.4869 20.8916 22.2691 20.7229 22.1375 20.4925L20.7075 17.9925C20.6413 17.9925 20.5737 17.9988 20.5063 17.9988H19V19.9988C19 20.264 18.8946 20.5183 18.7071 20.7059C18.5196 20.8934 18.2652 20.9988 18 20.9988C17.7348 20.9988 17.4804 20.8934 17.2929 20.7059C17.1054 20.5183 17 20.264 17 19.9988V12C17 11.7348 17.1054 11.4804 17.2929 11.2929C17.4804 11.1054 17.7348 11 18 11H20.5C21.2334 11.0007 21.9481 11.2318 22.5431 11.6606C23.1381 12.0894 23.5833 12.6943 23.816 13.3898C24.0486 14.0854 24.0569 14.8364 23.8396 15.5369C23.6223 16.2374 23.1904 16.852 22.605 17.2938ZM19 16H20.5C20.8978 16 21.2794 15.842 21.5607 15.5607C21.842 15.2794 22 14.8978 22 14.5C22 14.1022 21.842 13.7206 21.5607 13.4393C21.2794 13.158 20.8978 13 20.5 13H19V16Z" fill="#343330"/>
</svg>
