<svg width="32" height="32" viewBox="0 0 32 32" fill="none" xmlns="http://www.w3.org/2000/svg">
<path d="M22.8813 7H9.00004C7.78236 6.99999 6.57734 7.24709 5.45792 7.72633C4.33851 8.20556 3.32799 8.90697 2.48753 9.7881C1.64707 10.6692 0.994153 11.7117 0.568306 12.8525C0.14246 13.9933 -0.047461 15.2087 0.0100408 16.425C0.221291 21.0112 3.98004 24.7738 8.56629 24.99C10.5475 25.0825 12.5663 24.2525 14.7388 22.4525C15.0947 22.1582 15.542 21.9972 16.0038 21.9972C16.4656 21.9972 16.9129 22.1582 17.2688 22.4525C18.59 23.5487 20.625 25 23 25C24.192 25.0001 25.3721 24.7634 26.4718 24.3037C27.5716 23.844 28.5691 23.1705 29.4064 22.3221C30.2437 21.4738 30.9041 20.4676 31.3493 19.3619C31.7946 18.2562 32.0158 17.0731 32 15.8813C31.9363 10.9838 27.845 7 22.8813 7ZM27.9825 20.9175C27.3329 21.5793 26.5574 22.1045 25.7017 22.4622C24.846 22.8198 23.9274 23.0027 23 23C21.265 23 19.625 21.8113 18.5438 20.9163C17.8289 20.3256 16.9305 20.0025 16.0032 20.0025C15.0758 20.0025 14.1774 20.3256 13.4625 20.9163C11.69 22.375 10.1175 23.0613 8.66004 22.9925C6.92506 22.8982 5.28614 22.166 4.0582 20.9367C2.83026 19.7073 2.09993 18.0676 2.00754 16.3325C1.96254 15.3863 2.11007 14.4408 2.44118 13.5533C2.77229 12.6657 3.28009 11.8546 3.93384 11.1691C4.58759 10.4836 5.37367 9.93785 6.2445 9.565C7.11532 9.19216 8.05276 8.99995 9.00004 9H22.8813C26.7563 9 29.95 12.0988 30 15.9062C30.0148 16.8339 29.844 17.7551 29.4975 18.6157C29.151 19.4763 28.6359 20.2589 27.9825 20.9175ZM23 12C23 12.2652 22.8947 12.5196 22.7071 12.7071C22.5196 12.8946 22.2653 13 22 13H10C9.73482 13 9.48047 12.8946 9.29293 12.7071C9.1054 12.5196 9.00004 12.2652 9.00004 12C9.00004 11.7348 9.1054 11.4804 9.29293 11.2929C9.48047 11.1054 9.73482 11 10 11H22C22.2653 11 22.5196 11.1054 22.7071 11.2929C22.8947 11.4804 23 11.7348 23 12Z" fill="#343330"/>
</svg>
