<svg width="32" height="32" viewBox="0 0 32 32" fill="none" xmlns="http://www.w3.org/2000/svg">
<path d="M16 8.99994C16.2652 8.99994 16.5196 9.1053 16.7071 9.29283C16.8947 9.48037 17 9.73472 17 9.99994V16.9999C17 17.2652 16.8947 17.5195 16.7071 17.707C16.5196 17.8946 16.2652 17.9999 16 17.9999C15.7348 17.9999 15.4804 17.8946 15.2929 17.707C15.1054 17.5195 15 17.2652 15 16.9999V9.99994C15 9.73472 15.1054 9.48037 15.2929 9.29283C15.4804 9.1053 15.7348 8.99994 16 8.99994ZM14.5 21.4999C14.5 21.7966 14.588 22.0866 14.7528 22.3333C14.9176 22.58 15.1519 22.7722 15.426 22.8858C15.7001 22.9993 16.0017 23.029 16.2926 22.9711C16.5836 22.9132 16.8509 22.7704 17.0607 22.5606C17.2704 22.3508 17.4133 22.0835 17.4712 21.7926C17.5291 21.5016 17.4994 21.2 17.3858 20.9259C17.2723 20.6518 17.08 20.4176 16.8334 20.2527C16.5867 20.0879 16.2967 19.9999 16 19.9999C15.6022 19.9999 15.2207 20.158 14.9393 20.4393C14.658 20.7206 14.5 21.1021 14.5 21.4999ZM30 15.9999C30.0007 16.2619 29.9495 16.5214 29.8493 16.7634C29.7491 17.0054 29.6019 17.2252 29.4163 17.4099L17.41 29.4174C17.0353 29.7899 16.5284 29.999 16 29.999C15.4716 29.999 14.9647 29.7899 14.59 29.4174L2.59001 17.4099C2.21751 17.0352 2.00842 16.5283 2.00842 15.9999C2.00842 15.4716 2.21751 14.9647 2.59001 14.5899L14.5963 2.58244C14.971 2.20994 15.4779 2.00085 16.0063 2.00085C16.5346 2.00085 17.0415 2.20994 17.4163 2.58244L29.4225 14.5899C29.6071 14.7752 29.7531 14.9952 29.8522 15.2372C29.9513 15.4792 30.0016 15.7384 30 15.9999ZM28 15.9999L16 3.99994L4.00001 15.9999L16 27.9999L28 15.9999Z" fill="#343330"/>
</svg>
