<svg width="32" height="32" viewBox="0 0 32 32" fill="none" xmlns="http://www.w3.org/2000/svg">
<path d="M26 4H6C5.46957 4 4.96086 4.21071 4.58579 4.58579C4.21071 4.96086 4 5.46957 4 6V26C4 26.5304 4.21071 27.0391 4.58579 27.4142C4.96086 27.7893 5.46957 28 6 28H26C26.5304 28 27.0391 27.7893 27.4142 27.4142C27.7893 27.0391 28 26.5304 28 26V6C28 5.46957 27.7893 4.96086 27.4142 4.58579C27.0391 4.21071 26.5304 4 26 4ZM26 26H6V6H26V26ZM16 8C14.4177 8 12.871 8.46919 11.5554 9.34824C10.2398 10.2273 9.21447 11.4767 8.60896 12.9385C8.00346 14.4003 7.84504 16.0089 8.15372 17.5607C8.4624 19.1126 9.22433 20.538 10.3431 21.6569C11.462 22.7757 12.8874 23.5376 14.4393 23.8463C15.9911 24.155 17.5997 23.9965 19.0615 23.391C20.5233 22.7855 21.7727 21.7602 22.6518 20.4446C23.5308 19.129 24 17.5823 24 16C23.9977 13.879 23.1541 11.8455 21.6543 10.3457C20.1545 8.84591 18.121 8.00232 16 8ZM16 22C14.8133 22 13.6533 21.6481 12.6666 20.9888C11.6799 20.3295 10.9108 19.3925 10.4567 18.2961C10.0026 17.1997 9.88378 15.9933 10.1153 14.8295C10.3468 13.6656 10.9182 12.5965 11.7574 11.7574C12.5965 10.9182 13.6656 10.3468 14.8295 10.1153C15.9933 9.88378 17.1997 10.0026 18.2961 10.4567C19.3925 10.9108 20.3295 11.6799 20.9888 12.6666C21.6481 13.6533 22 14.8133 22 16C21.9983 17.5908 21.3657 19.116 20.2408 20.2408C19.116 21.3657 17.5908 21.9983 16 22ZM25 8.5C25 8.79667 24.912 9.08668 24.7472 9.33335C24.5824 9.58003 24.3481 9.77229 24.074 9.88582C23.7999 9.99935 23.4983 10.0291 23.2074 9.97118C22.9164 9.9133 22.6491 9.77044 22.4393 9.56066C22.2296 9.35088 22.0867 9.08361 22.0288 8.79264C21.9709 8.50166 22.0007 8.20006 22.1142 7.92597C22.2277 7.65189 22.42 7.41762 22.6666 7.2528C22.9133 7.08797 23.2033 7 23.5 7C23.8978 7 24.2794 7.15804 24.5607 7.43934C24.842 7.72064 25 8.10218 25 8.5ZM15.7075 14.7075L13.7075 16.7075C13.5199 16.8951 13.2654 17.0006 13 17.0006C12.7346 17.0006 12.4801 16.8951 12.2925 16.7075C12.1049 16.5199 11.9994 16.2654 11.9994 16C11.9994 15.7346 12.1049 15.4801 12.2925 15.2925L14.2925 13.2925C14.4801 13.1049 14.7346 12.9994 15 12.9994C15.2654 12.9994 15.5199 13.1049 15.7075 13.2925C15.8951 13.4801 16.0006 13.7346 16.0006 14C16.0006 14.2654 15.8951 14.5199 15.7075 14.7075ZM19.7075 14.2925C19.8005 14.3854 19.8742 14.4957 19.9246 14.6171C19.9749 14.7385 20.0008 14.8686 20.0008 15C20.0008 15.1314 19.9749 15.2615 19.9246 15.3829C19.8742 15.5043 19.8005 15.6146 19.7075 15.7075L15.7075 19.7075C15.6146 19.8004 15.5043 19.8741 15.3829 19.9244C15.2615 19.9747 15.1314 20.0006 15 20.0006C14.8686 20.0006 14.7385 19.9747 14.6171 19.9244C14.4957 19.8741 14.3854 19.8004 14.2925 19.7075C14.1996 19.6146 14.1259 19.5043 14.0756 19.3829C14.0253 19.2615 13.9994 19.1314 13.9994 19C13.9994 18.8686 14.0253 18.7385 14.0756 18.6171C14.1259 18.4957 14.1996 18.3854 14.2925 18.2925L18.2925 14.2925C18.3854 14.1995 18.4957 14.1258 18.6171 14.0754C18.7385 14.0251 18.8686 13.9992 19 13.9992C19.1314 13.9992 19.2615 14.0251 19.3829 14.0754C19.5043 14.1258 19.6146 14.1995 19.7075 14.2925Z" fill="#343330"/>
</svg>
