<svg width="32" height="32" viewBox="0 0 32 32" fill="none" xmlns="http://www.w3.org/2000/svg">
<path d="M7.00001 12V20C7.00001 20.2652 6.89465 20.5196 6.70711 20.7071C6.51958 20.8946 6.26522 21 6.00001 21C5.73479 21 5.48044 20.8946 5.2929 20.7071C5.10536 20.5196 5.00001 20.2652 5.00001 20V12C5.00001 11.7348 5.10536 11.4804 5.2929 11.2929C5.48044 11.1054 5.73479 11 6.00001 11C6.26522 11 6.51958 11.1054 6.70711 11.2929C6.89465 11.4804 7.00001 11.7348 7.00001 12ZM6.74001 4.3275C6.65219 4.22851 6.5456 4.14793 6.42641 4.09044C6.30722 4.03294 6.1778 3.99968 6.04566 3.99257C5.91352 3.98546 5.78129 4.00465 5.65662 4.04902C5.53195 4.0934 5.41733 4.16208 5.3194 4.25107C5.22146 4.34007 5.14217 4.44762 5.08611 4.56749C5.03005 4.68736 4.99834 4.81717 4.99282 4.94938C4.98729 5.0816 5.00806 5.2136 5.05393 5.33772C5.09979 5.46185 5.16984 5.57564 5.26001 5.6725L10 10.8862V28C10 28.2652 10.1054 28.5196 10.2929 28.7071C10.4804 28.8946 10.7348 29 11 29C11.2652 29 11.5196 28.8946 11.7071 28.7071C11.8946 28.5196 12 28.2652 12 28V13.0863L15 16.3862V24C15 24.2652 15.1054 24.5196 15.2929 24.7071C15.4804 24.8946 15.7348 25 16 25C16.2652 25 16.5196 24.8946 16.7071 24.7071C16.8947 24.5196 17 24.2652 17 24V18.5863L25.26 27.6725C25.3478 27.7715 25.4544 27.8521 25.5736 27.9096C25.6928 27.9671 25.8222 28.0003 25.9544 28.0074C26.0865 28.0145 26.2187 27.9953 26.3434 27.951C26.4681 27.9066 26.5827 27.8379 26.6806 27.7489C26.7786 27.6599 26.8578 27.5524 26.9139 27.4325C26.97 27.3126 27.0017 27.1828 27.0072 27.0506C27.0127 26.9184 26.992 26.7864 26.9461 26.6623C26.9002 26.5381 26.8302 26.4244 26.74 26.3275L6.74001 4.3275ZM11 5.55375C11.2652 5.55375 11.5196 5.44839 11.7071 5.26086C11.8946 5.07332 12 4.81897 12 4.55375V4C12 3.73478 11.8946 3.48043 11.7071 3.29289C11.5196 3.10536 11.2652 3 11 3C10.7348 3 10.4804 3.10536 10.2929 3.29289C10.1054 3.48043 10 3.73478 10 4V4.55375C10 4.81897 10.1054 5.07332 10.2929 5.26086C10.4804 5.44839 10.7348 5.55375 11 5.55375ZM16 11.0538C16.2652 11.0538 16.5196 10.9484 16.7071 10.7609C16.8947 10.5733 17 10.319 17 10.0538V8C17 7.73478 16.8947 7.48043 16.7071 7.29289C16.5196 7.10536 16.2652 7 16 7C15.7348 7 15.4804 7.10536 15.2929 7.29289C15.1054 7.48043 15 7.73478 15 8V10.0538C15 10.319 15.1054 10.5733 15.2929 10.7609C15.4804 10.9484 15.7348 11.0538 16 11.0538ZM21 16.5537C21.2652 16.5537 21.5196 16.4484 21.7071 16.2609C21.8947 16.0733 22 15.819 22 15.5538V12C22 11.7348 21.8947 11.4804 21.7071 11.2929C21.5196 11.1054 21.2652 11 21 11C20.7348 11 20.4804 11.1054 20.2929 11.2929C20.1054 11.4804 20 11.7348 20 12V15.5538C20 15.819 20.1054 16.0733 20.2929 16.2609C20.4804 16.4484 20.7348 16.5537 21 16.5537ZM26 9C25.7348 9 25.4804 9.10536 25.2929 9.29289C25.1054 9.48043 25 9.73478 25 10V21.0537C25 21.319 25.1054 21.5733 25.2929 21.7609C25.4804 21.9484 25.7348 22.0537 26 22.0537C26.2652 22.0537 26.5196 21.9484 26.7071 21.7609C26.8947 21.5733 27 21.319 27 21.0537V10C27 9.73478 26.8947 9.48043 26.7071 9.29289C26.5196 9.10536 26.2652 9 26 9Z" fill="#343330"/>
</svg>
