<svg width="32" height="32" viewBox="0 0 32 32" fill="none" xmlns="http://www.w3.org/2000/svg">
<path d="M27.7701 22.1563C27.9395 22.3595 28.0215 22.6216 27.9981 22.8852C27.9747 23.1488 27.8477 23.3923 27.6451 23.5625C25.4751 25.3613 23.5376 26 21.7701 26C19.4476 26 17.4176 24.8975 15.5288 23.875C12.3601 22.155 9.6238 20.67 5.64505 23.9675C5.54417 24.0526 5.42744 24.1169 5.30159 24.1566C5.17575 24.1964 5.04328 24.2109 4.91182 24.1992C4.78036 24.1875 4.65251 24.1499 4.53565 24.0886C4.41879 24.0273 4.31522 23.9434 4.23092 23.8419C4.14661 23.7403 4.08324 23.6231 4.04446 23.497C4.00568 23.3708 3.99225 23.2382 4.00496 23.1069C4.01766 22.9755 4.05624 22.8479 4.11847 22.7316C4.1807 22.6152 4.26536 22.5123 4.36755 22.4288C9.3888 18.2688 13.1576 20.3138 16.4838 22.1188C19.6526 23.8375 22.3888 25.3225 26.3676 22.0263C26.5712 21.8585 26.8329 21.7781 27.0956 21.8024C27.3583 21.8268 27.6007 21.954 27.7701 22.1563ZM26.3613 15.0313C22.3826 18.3288 19.6463 16.8438 16.4776 15.1238C13.1513 13.32 9.38255 11.275 4.3613 15.435C4.1596 15.6051 4.03331 15.8481 4.00996 16.1109C3.98661 16.3738 4.06809 16.6352 4.23664 16.8382C4.40519 17.0412 4.64715 17.1694 4.9098 17.1948C5.17244 17.2202 5.43448 17.1407 5.6388 16.9738C9.61755 13.6763 12.3538 15.1613 15.5226 16.8813C17.4113 17.905 19.4413 19.0063 21.7638 19.0063C23.5313 19.0063 25.4688 18.3675 27.6388 16.5688C27.741 16.4852 27.8257 16.3823 27.8879 16.266C27.9501 16.1496 27.9887 16.022 28.0014 15.8907C28.0141 15.7593 28.0007 15.6267 27.9619 15.5006C27.9231 15.3744 27.8597 15.2572 27.7754 15.1556C27.6911 15.0541 27.5876 14.9703 27.4707 14.9089C27.3538 14.8476 27.226 14.81 27.0945 14.7983C26.9631 14.7867 26.8306 14.8011 26.7048 14.8409C26.5789 14.8806 26.4622 14.9449 26.3613 15.03V15.0313ZM5.6388 9.97501C9.61755 6.67876 12.3538 8.16376 15.5226 9.88251C17.4113 10.9075 19.4413 12.0075 21.7638 12.0075C23.5313 12.0075 25.4688 11.3675 27.6388 9.57001C27.741 9.4865 27.8257 9.38358 27.8879 9.2672C27.9501 9.15082 27.9887 9.02327 28.0014 8.8919C28.0141 8.76054 28.0007 8.62796 27.9619 8.50181C27.9231 8.37566 27.8597 8.25844 27.7754 8.15689C27.6911 8.05535 27.5876 7.9715 27.4707 7.91018C27.3538 7.84885 27.226 7.81126 27.0945 7.79959C26.9631 7.78791 26.8306 7.80236 26.7048 7.84213C26.5789 7.88189 26.4622 7.94617 26.3613 8.03126C22.3826 11.3288 19.6463 9.84376 16.4776 8.12376C13.1513 6.32251 9.38255 4.27751 4.3613 8.43751C4.25554 8.51981 4.1674 8.62254 4.10212 8.73958C4.03685 8.85661 3.99576 8.98558 3.9813 9.11881C3.96684 9.25204 3.97931 9.38682 4.01797 9.51513C4.05662 9.64345 4.12068 9.76269 4.20632 9.86576C4.29197 9.96884 4.39745 10.0536 4.51652 10.1152C4.63558 10.1767 4.7658 10.2136 4.89942 10.2238C5.03305 10.234 5.16736 10.2172 5.29437 10.1745C5.42139 10.1317 5.53852 10.0639 5.6388 9.97501Z" fill="#343330"/>
</svg>
