<svg width="32" height="32" viewBox="0 0 32 32" fill="none" xmlns="http://www.w3.org/2000/svg">
<path d="M29.81 16.585L23.31 25.585C23.2174 25.7141 23.0954 25.8192 22.9541 25.8917C22.8128 25.9642 22.6563 26.0021 22.4975 26.0021C22.3387 26.0021 22.1821 25.9642 22.0409 25.8917C21.8996 25.8192 21.7776 25.7141 21.685 25.585L9.5 8.70752L3.81125 16.5825C3.73443 16.6892 3.63734 16.7797 3.52553 16.8489C3.41372 16.9181 3.28939 16.9646 3.15962 16.9857C3.02985 17.0068 2.89719 17.0022 2.76921 16.972C2.64123 16.9419 2.52045 16.8868 2.41375 16.81C2.30705 16.7332 2.21653 16.6361 2.14735 16.5243C2.07817 16.4125 2.03169 16.2882 2.01057 16.1584C1.98944 16.0286 1.99408 15.896 2.02423 15.768C2.05437 15.64 2.10943 15.5192 2.18625 15.4125L8.68625 6.41252C8.77883 6.28348 8.90082 6.17835 9.04211 6.10583C9.1834 6.03331 9.33993 5.99548 9.49875 5.99548C9.65756 5.99548 9.8141 6.03331 9.95539 6.10583C10.0967 6.17835 10.2187 6.28348 10.3112 6.41252L22.5 23.2875L28.1887 15.4125C28.2656 15.3058 28.3627 15.2153 28.4745 15.1461C28.5863 15.0769 28.7106 15.0305 28.8404 15.0093C28.9702 14.9882 29.1028 14.9929 29.2308 15.023C29.3588 15.0531 29.4795 15.1082 29.5862 15.185C29.6929 15.2618 29.7835 15.3589 29.8526 15.4707C29.9218 15.5825 29.9683 15.7069 29.9894 15.8367C30.0106 15.9664 30.0059 16.0991 29.9758 16.2271C29.9456 16.355 29.8906 16.4758 29.8137 16.5825L29.81 16.585Z" fill="#343330"/>
</svg>
