<svg width="32" height="32" viewBox="0 0 32 32" fill="none" xmlns="http://www.w3.org/2000/svg">
<path d="M29.5237 16.8512L16.5237 24.8512C16.3723 24.9444 16.1987 24.9954 16.0209 24.9991C15.8431 25.0029 15.6675 24.9591 15.5123 24.8724C15.357 24.7856 15.2277 24.6591 15.1377 24.5057C15.0476 24.3524 15.0001 24.1778 15 24V9.78999L3.52374 16.8512C3.29835 16.98 3.03171 17.0161 2.78021 16.9518C2.52871 16.8876 2.31204 16.728 2.17601 16.507C2.03998 16.2859 1.99526 16.0206 2.05128 15.7671C2.10731 15.5136 2.2597 15.2919 2.47624 15.1487L15.4762 7.14874C15.6277 7.0556 15.8013 7.00454 15.9791 7.00083C16.1569 6.99711 16.3325 7.04088 16.4877 7.1276C16.6429 7.21433 16.7723 7.34089 16.8623 7.49423C16.9524 7.64758 16.9999 7.82216 17 7.99999V22.21L28.4762 15.1487C28.7016 15.02 28.9683 14.9839 29.2198 15.0482C29.4713 15.1124 29.6879 15.2719 29.824 15.493C29.96 15.7141 30.0047 15.9794 29.9487 16.2329C29.8927 16.4863 29.7403 16.7081 29.5237 16.8512Z" fill="#343330"/>
</svg>
