<svg width="32" height="32" viewBox="0 0 32 32" fill="none" xmlns="http://www.w3.org/2000/svg">
<path d="M26.74 26.3275L6.74 4.32748C6.65218 4.22849 6.54559 4.14791 6.4264 4.09042C6.30721 4.03293 6.1778 3.99966 6.04566 3.99255C5.91352 3.98545 5.78128 4.00463 5.65661 4.04901C5.53194 4.09338 5.41732 4.16206 5.31939 4.25106C5.22146 4.34006 5.14216 4.44761 5.0861 4.56748C5.03004 4.68735 4.99833 4.81715 4.99281 4.94937C4.98728 5.08158 5.00806 5.21358 5.05392 5.33771C5.09979 5.46184 5.16983 5.57563 5.26 5.67248L7.3525 7.97498C6.51177 9.42151 6.04743 11.0559 6.00199 12.7284C5.95655 14.4008 6.33147 16.058 7.09241 17.548C7.85336 19.0381 8.976 20.3134 10.3575 21.2571C11.739 22.2009 13.3353 22.783 15 22.95V25H4C3.73478 25 3.48043 25.1053 3.29289 25.2929C3.10536 25.4804 3 25.7348 3 26C3 26.2652 3.10536 26.5196 3.29289 26.7071C3.48043 26.8946 3.73478 27 4 27H24.6488L25.26 27.6725C25.3478 27.7715 25.4544 27.8521 25.5736 27.9095C25.6928 27.967 25.8222 28.0003 25.9543 28.0074C26.0865 28.0145 26.2187 27.9953 26.3434 27.951C26.4681 27.9066 26.5827 27.8379 26.6806 27.7489C26.7785 27.6599 26.8578 27.5524 26.9139 27.4325C26.97 27.3126 27.0017 27.1828 27.0072 27.0506C27.0127 26.9184 26.9919 26.7864 26.9461 26.6623C26.9002 26.5381 26.8302 26.4243 26.74 26.3275ZM8 13C7.99825 11.805 8.2657 10.6249 8.7825 9.54748L11.085 12.08C10.9498 12.802 10.9754 13.545 11.16 14.256C11.3445 14.967 11.6834 15.6287 12.1527 16.1939C12.6219 16.7591 13.2099 17.2139 13.8749 17.5261C14.5398 17.8382 15.2654 18 16 18C16.15 18 16.2987 17.9925 16.4475 17.9787L18.75 20.5137C17.541 20.9563 16.2431 21.1005 14.9664 20.9342C13.6898 20.7679 12.4721 20.2959 11.4169 19.5583C10.3617 18.8208 9.50004 17.8394 8.90518 16.6977C8.31031 15.5559 7.9998 14.2874 8 13ZM17 25V22.9487C18.1005 22.8389 19.1751 22.547 20.18 22.085L22.83 25H17ZM10.69 5.66373C10.6251 5.54957 10.5833 5.42373 10.567 5.29341C10.5507 5.16308 10.5602 5.03082 10.595 4.90418C10.6298 4.77754 10.6893 4.659 10.7699 4.55533C10.8505 4.45166 10.9508 4.3649 11.065 4.29998C13.0395 3.17892 15.3367 2.76316 17.5788 3.12107C19.8209 3.47899 21.8745 4.58927 23.4019 6.26932C24.9292 7.94938 25.8393 10.0992 25.9825 12.3652C26.1258 14.6312 25.4936 16.8785 24.19 18.7375C24.0377 18.9546 23.8053 19.1024 23.544 19.1482C23.2828 19.194 23.014 19.1342 22.7969 18.9819C22.5797 18.8295 22.432 18.5972 22.3862 18.3359C22.3403 18.0746 22.4002 17.8059 22.5525 17.5887C23.5954 16.1015 24.1011 14.3037 23.9865 12.4909C23.8719 10.6781 23.1438 8.95825 21.922 7.6142C20.7001 6.27016 19.0573 5.38194 17.2635 5.09561C15.4698 4.80928 13.6321 5.14188 12.0525 6.03873C11.822 6.16948 11.5491 6.20343 11.2937 6.13312C11.0382 6.06281 10.8211 5.89399 10.69 5.66373ZM18.8538 13.9287C19.0004 13.4783 19.0383 12.9996 18.9644 12.5317C18.8904 12.0639 18.7068 11.6201 18.4284 11.2369C18.15 10.8536 17.7848 10.5418 17.3627 10.3268C16.9407 10.1118 16.4737 9.9998 16 9.99998C15.7797 9.99978 15.5601 10.0237 15.345 10.0712C15.2131 10.1117 15.0742 10.1245 14.9371 10.1087C14.8 10.0929 14.6677 10.049 14.5484 9.97954C14.4292 9.91012 14.3256 9.81678 14.2442 9.70537C14.1627 9.59397 14.1052 9.46691 14.0753 9.33221C14.0454 9.1975 14.0436 9.05806 14.0702 8.92265C14.0968 8.78724 14.1511 8.6588 14.2298 8.54541C14.3084 8.43202 14.4096 8.33613 14.5271 8.26377C14.6446 8.19142 14.7758 8.14416 14.9125 8.12498C15.7725 7.93457 16.6676 7.97475 17.5072 8.24146C18.3467 8.50816 19.1009 8.99192 19.6933 9.64377C20.2858 10.2956 20.6956 11.0924 20.8811 11.9535C21.0667 12.8146 21.0214 13.7095 20.75 14.5475C20.6632 14.7936 20.4836 14.996 20.2496 15.1115C20.0156 15.2271 19.7456 15.2465 19.4975 15.1657C19.2493 15.085 19.0426 14.9104 18.9213 14.6793C18.8001 14.4482 18.7741 14.1788 18.8487 13.9287H18.8538Z" fill="#343330"/>
</svg>
