<svg width="32" height="32" viewBox="0 0 32 32" fill="none" xmlns="http://www.w3.org/2000/svg">
<path d="M21 13C21 12.0111 20.7068 11.0444 20.1573 10.2221C19.6079 9.3999 18.827 8.75904 17.9134 8.3806C16.9998 8.00216 15.9945 7.90314 15.0245 8.09607C14.0546 8.289 13.1637 8.7652 12.4645 9.46446C11.7652 10.1637 11.289 11.0546 11.0961 12.0245C10.9031 12.9944 11.0022 13.9998 11.3806 14.9134C11.759 15.827 12.3999 16.6079 13.2221 17.1573C14.0444 17.7068 15.0111 18 16 18C17.3261 18 18.5979 17.4732 19.5355 16.5355C20.4732 15.5978 21 14.3261 21 13ZM13 13C13 12.4067 13.1759 11.8266 13.5056 11.3333C13.8352 10.8399 14.3038 10.4554 14.8519 10.2284C15.4001 10.0013 16.0033 9.94188 16.5853 10.0576C17.1672 10.1734 17.7018 10.4591 18.1213 10.8787C18.5409 11.2982 18.8266 11.8328 18.9424 12.4147C19.0581 12.9967 18.9987 13.5999 18.7716 14.148C18.5446 14.6962 18.1601 15.1648 17.6667 15.4944C17.1734 15.824 16.5933 16 16 16C15.2044 16 14.4413 15.6839 13.8787 15.1213C13.3161 14.5587 13 13.7956 13 13ZM28 25H17V22.95C19.5526 22.6934 21.909 21.4656 23.5818 19.5205C25.2547 17.5754 26.1159 15.0618 25.9875 12.4995C25.859 9.93721 24.7507 7.5223 22.8918 5.75422C21.0329 3.98613 18.5655 3.00012 16 3.00012C13.4345 3.00012 10.9671 3.98613 9.1082 5.75422C7.24927 7.5223 6.14098 9.93721 6.01254 12.4995C5.8841 15.0618 6.74535 17.5754 8.41816 19.5205C10.091 21.4656 12.4474 22.6934 15 22.95V25H4C3.73478 25 3.48043 25.1054 3.29289 25.2929C3.10536 25.4804 3 25.7348 3 26C3 26.2652 3.10536 26.5196 3.29289 26.7071C3.48043 26.8946 3.73478 27 4 27H28C28.2652 27 28.5196 26.8946 28.7071 26.7071C28.8946 26.5196 29 26.2652 29 26C29 25.7348 28.8946 25.4804 28.7071 25.2929C28.5196 25.1054 28.2652 25 28 25ZM8 13C8 11.4177 8.46919 9.87103 9.34824 8.55543C10.2273 7.23984 11.4767 6.21446 12.9385 5.60896C14.4003 5.00346 16.0089 4.84503 17.5607 5.15371C19.1126 5.4624 20.538 6.22432 21.6569 7.34314C22.7757 8.46196 23.5376 9.88743 23.8463 11.4393C24.155 12.9911 23.9965 14.5997 23.391 16.0615C22.7855 17.5233 21.7602 18.7727 20.4446 19.6518C19.129 20.5308 17.5823 21 16 21C13.879 20.9977 11.8455 20.1541 10.3457 18.6543C8.84591 17.1545 8.00232 15.121 8 13Z" fill="#343330"/>
</svg>
