<svg width="32" height="32" viewBox="0 0 32 32" fill="none" xmlns="http://www.w3.org/2000/svg">
<path d="M22.27 22H13.915C13.7637 22.8957 13.4109 23.7453 12.8834 24.4848C12.3558 25.2243 11.6673 25.8343 10.8696 26.2689C10.072 26.7036 9.18603 26.9514 8.27864 26.9937C7.37126 27.0361 6.4661 26.8719 5.63143 26.5134C4.79676 26.155 4.05437 25.6117 3.46024 24.9246C2.86611 24.2375 2.43575 23.4244 2.20162 22.5467C1.96749 21.669 1.93571 20.7497 2.10865 19.8579C2.2816 18.9661 2.65477 18.1253 3.20002 17.3988C3.35932 17.1866 3.59637 17.0464 3.85904 17.009C4.12171 16.9716 4.38847 17.0401 4.60065 17.1994C4.81282 17.3587 4.95302 17.5957 4.99041 17.8584C5.0278 18.1211 4.95932 18.3878 4.80002 18.6C4.2782 19.2911 3.9972 20.1341 4.00002 21C4.00002 22.0609 4.42145 23.0783 5.1716 23.8284C5.92174 24.5786 6.93916 25 8.00002 25C9.06089 25 10.0783 24.5786 10.8285 23.8284C11.5786 23.0783 12 22.0609 12 21C12 20.7348 12.1054 20.4804 12.2929 20.2929C12.4805 20.1054 12.7348 20 13 20H22.27C22.4902 19.6187 22.83 19.3207 23.2367 19.1523C23.6435 18.9838 24.0944 18.9542 24.5197 19.0682C24.945 19.1821 25.3208 19.4332 25.5888 19.7825C25.8568 20.1318 26.0021 20.5597 26.0021 21C26.0021 21.4403 25.8568 21.8682 25.5888 22.2175C25.3208 22.5668 24.945 22.8179 24.5197 22.9319C24.0944 23.0458 23.6435 23.0163 23.2367 22.8478C22.83 22.6793 22.4902 22.3813 22.27 22ZM8.00002 23C8.34642 23.0001 8.68691 22.9103 8.98815 22.7393C9.28939 22.5682 9.54104 22.3219 9.71847 22.0244C9.89589 21.7269 9.993 21.3884 10.0003 21.0421C10.0076 20.6957 9.92478 20.3535 9.76002 20.0488L14.2313 12.7813C14.37 12.5555 14.4135 12.2838 14.3521 12.026C14.2907 11.7682 14.1294 11.5453 13.9038 11.4063C13.3693 11.0772 12.9197 10.627 12.5914 10.092C12.2632 9.55706 12.0654 8.95235 12.0141 8.32679C11.9628 7.70123 12.0595 7.07238 12.2963 6.49109C12.533 5.9098 12.9033 5.39239 13.377 4.98069C13.8508 4.56899 14.4148 4.27456 15.0235 4.12121C15.6321 3.96786 16.2683 3.95989 16.8806 4.09795C17.4929 4.236 18.0641 4.51621 18.548 4.91591C19.0319 5.31561 19.415 5.82358 19.6663 6.39876C19.7724 6.64193 19.9707 6.833 20.2177 6.92993C20.4646 7.02686 20.74 7.02172 20.9831 6.91563C21.2263 6.80955 21.4174 6.61121 21.5143 6.36425C21.6113 6.11728 21.6061 5.84193 21.5 5.59876C21.1398 4.77529 20.5992 4.04328 19.9181 3.45679C19.237 2.8703 18.4328 2.44432 17.565 2.21032C16.6972 1.97632 15.7879 1.94028 14.9043 2.10486C14.0207 2.26944 13.1854 2.63044 12.46 3.16118C11.7346 3.69193 11.1377 4.37886 10.7135 5.17123C10.2892 5.9636 10.0484 6.84117 10.0088 7.73911C9.9692 8.63704 10.1318 9.5324 10.4847 10.359C10.8376 11.1857 11.3717 11.9225 12.0475 12.515L8.05502 19C8.03627 19 8.01877 19 8.00002 19C7.46959 19 6.96088 19.2107 6.58581 19.5858C6.21074 19.9609 6.00002 20.4696 6.00002 21C6.00002 21.5304 6.21074 22.0392 6.58581 22.4142C6.96088 22.7893 7.46959 23 8.00002 23ZM24 15C23.229 15.0001 22.4652 15.1482 21.75 15.4363L17.76 8.95001C17.968 8.56474 18.0438 8.12187 17.9758 7.68937C17.9078 7.25686 17.6997 6.85862 17.3836 6.55576C17.0674 6.25289 16.6606 6.06214 16.2256 6.01277C15.7906 5.9634 15.3514 6.05813 14.9754 6.28245C14.5994 6.50676 14.3074 6.84825 14.1442 7.25451C13.981 7.66078 13.9556 8.10937 14.0719 8.53144C14.1883 8.95352 14.4399 9.32576 14.7882 9.59105C15.1365 9.85633 15.5622 10 16 10H16.055L20.5275 17.2688C20.6667 17.4942 20.8897 17.6552 21.1475 17.7164C21.4053 17.7775 21.6769 17.7339 21.9025 17.595C22.429 17.2705 23.0236 17.0724 23.6395 17.0164C24.2555 16.9604 24.876 17.0481 25.4524 17.2724C26.0288 17.4967 26.5453 17.8517 26.9613 18.3093C27.3773 18.7669 27.6816 19.3148 27.8502 19.9099C28.0187 20.505 28.047 21.131 27.9327 21.7389C27.8185 22.3467 27.5649 22.9198 27.1918 23.413C26.8186 23.9063 26.3362 24.3063 25.7824 24.5817C25.2286 24.8571 24.6185 25.0002 24 25C23.7348 25 23.4805 25.1054 23.2929 25.2929C23.1054 25.4804 23 25.7348 23 26C23 26.2652 23.1054 26.5196 23.2929 26.7071C23.4805 26.8947 23.7348 27 24 27C25.5913 27 27.1174 26.3679 28.2427 25.2427C29.3679 24.1174 30 22.5913 30 21C30 19.4087 29.3679 17.8826 28.2427 16.7574C27.1174 15.6321 25.5913 15 24 15Z" fill="#343330"/>
</svg>
