<svg width="32" height="32" viewBox="0 0 32 32" fill="none" xmlns="http://www.w3.org/2000/svg">
<path d="M31.9487 23.6837C31.9072 23.5592 31.8415 23.444 31.7555 23.3447C31.6694 23.2455 31.5647 23.1642 31.4472 23.1055C31.3297 23.0467 31.2019 23.0117 31.0709 23.0024C30.9398 22.9931 30.8083 23.0097 30.6837 23.0512L28.5062 23.7775L24.8937 16.5525C24.8107 16.3865 24.6831 16.247 24.5252 16.1494C24.3674 16.0518 24.1855 16.0001 24 16H14V13H21C21.2652 13 21.5195 12.8946 21.7071 12.7071C21.8946 12.5196 22 12.2652 22 12C22 11.7348 21.8946 11.4804 21.7071 11.2929C21.5195 11.1054 21.2652 11 21 11H14V9.875C14.9426 9.6316 15.7641 9.05277 16.3106 8.24699C16.857 7.44121 17.0907 6.46381 16.9681 5.498C16.8454 4.53218 16.3747 3.64426 15.6442 3.00068C14.9137 2.35709 13.9735 2.00201 13 2.00201C12.0264 2.00201 11.0862 2.35709 10.3557 3.00068C9.62522 3.64426 9.15451 4.53218 9.03184 5.498C8.90916 6.46381 9.14294 7.44121 9.68935 8.24699C10.2358 9.05277 11.0573 9.6316 12 9.875V11.2262C9.84378 11.7191 7.94457 12.9886 6.66482 14.7925C5.38507 16.5965 4.81439 18.8085 5.06171 21.0064C5.30903 23.2043 6.35703 25.2342 8.00568 26.7086C9.65433 28.183 11.7882 28.9987 14 29C18.19 29 21.9612 26.1612 22.9687 22.25C23.0015 22.1228 23.009 21.9903 22.9906 21.8602C22.9723 21.7301 22.9285 21.6049 22.8617 21.4918C22.795 21.3786 22.7066 21.2797 22.6017 21.2007C22.4967 21.1216 22.3772 21.0641 22.25 21.0312C22.1227 20.9984 21.9903 20.991 21.8602 21.0093C21.7301 21.0277 21.6049 21.0715 21.4917 21.1382C21.3786 21.205 21.2796 21.2933 21.2006 21.3983C21.1216 21.5033 21.064 21.6228 21.0312 21.75C20.2612 24.75 17.2387 27 14 27C12.319 26.9994 10.6943 26.394 9.42291 25.2942C8.15153 24.1945 7.31835 22.674 7.07566 21.0106C6.83296 19.3472 7.19695 17.6521 8.10111 16.2349C9.00526 14.8178 10.3892 13.7734 12 13.2925V17C12 17.2652 12.1053 17.5196 12.2929 17.7071C12.4804 17.8946 12.7347 18 13 18H23.3812L27.105 25.4475C27.2129 25.6627 27.3948 25.8317 27.6173 25.9235C27.8398 26.0154 28.0879 26.0239 28.3162 25.9475L31.3162 24.9475C31.5675 24.8636 31.7753 24.6834 31.8939 24.4465C32.0125 24.2095 32.0322 23.9352 31.9487 23.6837ZM11 6C11 5.60443 11.1173 5.21776 11.337 4.88886C11.5568 4.55996 11.8691 4.30361 12.2346 4.15224C12.6 4.00086 13.0022 3.96126 13.3901 4.03843C13.7781 4.1156 14.1345 4.30608 14.4142 4.58578C14.6939 4.86549 14.8844 5.22185 14.9615 5.60982C15.0387 5.99778 14.9991 6.39991 14.8477 6.76536C14.6963 7.13082 14.44 7.44317 14.1111 7.66294C13.7822 7.8827 13.3955 8 13 8C12.4695 8 11.9608 7.78928 11.5857 7.41421C11.2107 7.03914 11 6.53043 11 6Z" fill="#343330"/>
</svg>
