<svg width="32" height="32" viewBox="0 0 32 32" fill="none" xmlns="http://www.w3.org/2000/svg">
<path d="M17.5 25.5C17.5 25.7967 17.412 26.0867 17.2472 26.3334C17.0824 26.58 16.8481 26.7723 16.574 26.8858C16.2999 26.9994 15.9983 27.0291 15.7074 26.9712C15.4164 26.9133 15.1491 26.7704 14.9393 26.5607C14.7296 26.3509 14.5867 26.0836 14.5288 25.7926C14.4709 25.5017 14.5006 25.2001 14.6142 24.926C14.7277 24.6519 14.92 24.4176 15.1666 24.2528C15.4133 24.088 15.7033 24 16 24C16.3978 24 16.7793 24.158 17.0606 24.4393C17.342 24.7206 17.5 25.1022 17.5 25.5ZM21.5887 19.8163C19.9644 18.6357 18.008 17.9999 16 17.9999C13.992 17.9999 12.0356 18.6357 10.4112 19.8163C10.1967 19.9724 10.0531 20.2074 10.0118 20.4694C9.97055 20.7315 10.0351 20.9993 10.1912 21.2138C10.3474 21.4282 10.5823 21.5719 10.8444 21.6132C11.1065 21.6544 11.3742 21.5899 11.5887 21.4338C12.8706 20.5015 14.4149 19.9993 16 19.9993C17.585 19.9993 19.1293 20.5015 20.4112 21.4338C20.5174 21.5111 20.6378 21.5667 20.7656 21.5975C20.8933 21.6283 21.0258 21.6336 21.1556 21.6132C21.2853 21.5928 21.4098 21.547 21.5219 21.4784C21.6339 21.4099 21.7314 21.32 21.8087 21.2138C21.8861 21.1075 21.9417 20.9871 21.9725 20.8594C22.0033 20.7317 22.0086 20.5992 21.9882 20.4694C21.9677 20.3397 21.922 20.2152 21.8534 20.1031C21.7849 19.991 21.6949 19.8936 21.5887 19.8163Z" fill="#343330"/>
</svg>
