<svg width="32" height="32" viewBox="0 0 32 32" fill="none" xmlns="http://www.w3.org/2000/svg">
<path d="M28.7075 12.2925C28.8004 12.3854 28.8741 12.4957 28.9244 12.6171C28.9747 12.7385 29.0005 12.8686 29.0005 13C29.0005 13.1314 28.9747 13.2615 28.9244 13.3829C28.8741 13.5043 28.8004 13.6146 28.7075 13.7075C28.6146 13.8004 28.5043 13.8741 28.3829 13.9244C28.2615 13.9747 28.1314 14.0006 28 14.0006C27.8686 14.0006 27.7385 13.9747 27.6171 13.9244C27.4957 13.8741 27.3854 13.8004 27.2925 13.7075L25 11.4138L22.7075 13.7075C22.5198 13.8951 22.2653 14.0006 22 14.0006C21.7346 14.0006 21.4801 13.8951 21.2925 13.7075C21.1048 13.5199 20.9994 13.2654 20.9994 13C20.9994 12.7346 21.1048 12.4801 21.2925 12.2925L23.5862 10L21.2925 7.7075C21.1996 7.61459 21.1259 7.50429 21.0756 7.3829C21.0253 7.2615 20.9994 7.1314 20.9994 7C20.9994 6.86861 21.0253 6.7385 21.0756 6.61711C21.1259 6.49571 21.1996 6.38541 21.2925 6.2925C21.4801 6.10486 21.7346 5.99945 22 5.99945C22.1314 5.99945 22.2615 6.02533 22.3829 6.07561C22.5043 6.12589 22.6146 6.19959 22.7075 6.2925L25 8.58625L27.2925 6.2925C27.3854 6.19959 27.4957 6.12589 27.6171 6.07561C27.7385 6.02533 27.8686 5.99945 28 5.99945C28.1314 5.99945 28.2615 6.02533 28.3829 6.07561C28.5043 6.12589 28.6146 6.19959 28.7075 6.2925C28.8004 6.38541 28.8741 6.49571 28.9244 6.61711C28.9747 6.7385 29.0005 6.86861 29.0005 7C29.0005 7.1314 28.9747 7.2615 28.9244 7.3829C28.8741 7.50429 28.8004 7.61459 28.7075 7.7075L26.4137 10L28.7075 12.2925ZM16 24C15.7033 24 15.4133 24.088 15.1666 24.2528C14.92 24.4176 14.7277 24.6519 14.6142 24.926C14.5006 25.2001 14.4709 25.5017 14.5288 25.7926C14.5867 26.0836 14.7295 26.3509 14.9393 26.5607C15.1491 26.7704 15.4164 26.9133 15.7073 26.9712C15.9983 27.0291 16.2999 26.9994 16.574 26.8858C16.8481 26.7723 17.0824 26.58 17.2472 26.3334C17.412 26.0867 17.5 25.7967 17.5 25.5C17.5 25.1022 17.3419 24.7206 17.0606 24.4393C16.7793 24.158 16.3978 24 16 24ZM21.5887 19.8163C19.9644 18.6357 18.008 17.9999 16 17.9999C13.992 17.9999 12.0356 18.6357 10.4112 19.8163C10.1967 19.9724 10.0531 20.2074 10.0118 20.4694C9.97054 20.7315 10.0351 20.9993 10.1912 21.2138C10.3474 21.4282 10.5823 21.5719 10.8444 21.6132C11.1065 21.6544 11.3742 21.5899 11.5887 21.4338C12.8706 20.5015 14.4149 19.9993 16 19.9993C17.585 19.9993 19.1293 20.5015 20.4112 21.4338C20.5174 21.5111 20.6378 21.5667 20.7655 21.5975C20.8933 21.6283 21.0258 21.6336 21.1555 21.6132C21.2853 21.5928 21.4098 21.547 21.5219 21.4784C21.6339 21.4099 21.7314 21.32 21.8087 21.2138C21.8861 21.1075 21.9417 20.9871 21.9725 20.8594C22.0033 20.7317 22.0086 20.5992 21.9882 20.4694C21.9677 20.3397 21.9219 20.2152 21.8534 20.1031C21.7849 19.991 21.6949 19.8936 21.5887 19.8163ZM16.9525 8.0225C17.0838 8.02874 17.2151 8.00905 17.3388 7.96456C17.4625 7.92007 17.5762 7.85164 17.6735 7.7632C17.7708 7.67475 17.8497 7.56801 17.9057 7.44907C17.9617 7.33013 17.9937 7.20132 18 7.07C18.0062 6.93868 17.9865 6.80742 17.942 6.6837C17.8975 6.55999 17.8291 6.44625 17.7407 6.34898C17.6522 6.25171 17.5455 6.17282 17.4266 6.1168C17.3076 6.06078 17.1788 6.02874 17.0475 6.0225C16.7 6.00625 16.3475 5.9975 16 5.9975C11.0283 6.00136 6.21105 7.7246 2.36499 10.875C2.26346 10.9584 2.17935 11.061 2.11746 11.1769C2.05557 11.2928 2.01712 11.4197 2.00429 11.5505C1.99146 11.6812 2.00452 11.8132 2.04271 11.9389C2.0809 12.0646 2.14347 12.1816 2.22686 12.2831C2.31025 12.3847 2.41282 12.4688 2.52871 12.5307C2.64461 12.5925 2.77156 12.631 2.90232 12.6438C3.16639 12.6697 3.42994 12.5897 3.63499 12.4213C7.12284 9.56456 11.4916 8.00247 16 8C16.3162 8 16.6362 8.0075 16.9525 8.0225ZM16.9325 14.0313C17.0638 14.0401 17.1956 14.023 17.3203 13.981C17.445 13.9389 17.5602 13.8727 17.6594 13.7861C17.7585 13.6995 17.8396 13.5942 17.898 13.4763C17.9565 13.3584 17.9911 13.2301 18 13.0988C18.0088 12.9674 17.9918 12.8356 17.9497 12.7109C17.9076 12.5862 17.8414 12.471 17.7548 12.3719C17.6682 12.2727 17.563 12.1916 17.445 12.1332C17.3271 12.0748 17.1988 12.0401 17.0675 12.0313C16.7137 12.0075 16.355 11.995 16 11.995C12.5041 11.9813 9.10839 13.1618 6.37499 15.3413C6.21201 15.4704 6.09334 15.6471 6.03551 15.8469C5.97767 16.0466 5.98354 16.2594 6.05231 16.4557C6.12107 16.6519 6.2493 16.8219 6.41916 16.9418C6.58901 17.0618 6.79204 17.1258 6.99999 17.125C7.22693 17.1266 7.44755 17.0503 7.62499 16.9088C10.0041 15.0141 12.9586 13.9879 16 14C16.31 14 16.625 14.01 16.9325 14.0313Z" fill="#343330"/>
</svg>
