<svg width="32" height="32" viewBox="0 0 32 32" fill="none" xmlns="http://www.w3.org/2000/svg">
<path d="M17.5 25.5C17.5 25.7967 17.4121 26.0867 17.2472 26.3334C17.0824 26.58 16.8481 26.7723 16.574 26.8858C16.3 26.9993 15.9984 27.0291 15.7074 26.9712C15.4164 26.9133 15.1491 26.7704 14.9394 26.5607C14.7296 26.3509 14.5867 26.0836 14.5288 25.7926C14.471 25.5017 14.5007 25.2001 14.6142 24.926C14.7277 24.6519 14.92 24.4176 15.1667 24.2528C15.4133 24.088 15.7034 24 16 24C16.3978 24 16.7794 24.158 17.0607 24.4393C17.342 24.7206 17.5 25.1022 17.5 25.5ZM25.625 15.3462C22.8867 13.1783 19.4964 11.9987 16.0038 11.9987C12.5111 11.9987 9.12085 13.1783 6.38252 15.3462C6.17466 15.511 6.04076 15.7516 6.01029 16.0151C5.97981 16.2786 6.05526 16.5434 6.22002 16.7512C6.38479 16.9591 6.62538 17.093 6.88887 17.1235C7.15236 17.154 7.41716 17.0785 7.62502 16.9137C10.0098 15.026 12.9623 13.999 16.0038 13.999C19.0453 13.999 21.9977 15.026 24.3825 16.9137C24.4854 16.9953 24.6034 17.0559 24.7297 17.0919C24.856 17.1279 24.9882 17.1386 25.1187 17.1235C25.2492 17.1084 25.3754 17.0678 25.4901 17.0039C25.6049 16.94 25.7059 16.8542 25.7875 16.7512C25.8691 16.6483 25.9296 16.5303 25.9656 16.404C26.0016 16.2777 26.0124 16.1456 25.9973 16.0151C25.9822 15.8846 25.9416 15.7584 25.8777 15.6436C25.8138 15.5289 25.728 15.4278 25.625 15.3462ZM21.5925 19.8162C19.9682 18.6357 18.0118 17.9999 16.0038 17.9999C13.9958 17.9999 12.0394 18.6357 10.415 19.8162C10.2005 19.9724 10.0568 20.2074 10.0156 20.4694C9.97433 20.7315 10.0389 20.9993 10.195 21.2138C10.3512 21.4282 10.5861 21.5719 10.8482 21.6132C11.1103 21.6544 11.378 21.5899 11.5925 21.4338C12.8744 20.5015 14.4187 19.9993 16.0038 19.9993C17.5888 19.9993 19.1331 20.5015 20.415 21.4338C20.5212 21.5111 20.6416 21.5667 20.7693 21.5975C20.897 21.6283 21.0296 21.6336 21.1593 21.6132C21.2891 21.5928 21.4136 21.547 21.5257 21.4784C21.6377 21.4099 21.7352 21.32 21.8125 21.2138C21.8898 21.1075 21.9455 20.9871 21.9763 20.8594C22.0071 20.7317 22.0124 20.5992 21.992 20.4694C21.9715 20.3397 21.9257 20.2152 21.8572 20.1031C21.7887 19.991 21.6987 19.8936 21.5925 19.8162Z" fill="#343330"/>
</svg>
