<svg width="32" height="32" viewBox="0 0 32 32" fill="none" xmlns="http://www.w3.org/2000/svg">
<path d="M26 17H16C15.7348 17 15.4804 17.1053 15.2929 17.2929C15.1054 17.4804 15 17.7348 15 18V25.1812C14.9997 25.4156 15.0818 25.6427 15.2319 25.8227C15.382 26.0027 15.5906 26.1243 15.8212 26.1662L25.8213 27.9837C25.8802 27.9948 25.94 28.0002 26 28C26.2652 28 26.5196 27.8946 26.7071 27.7071C26.8946 27.5195 27 27.2652 27 27V18C27 17.7348 26.8946 17.4804 26.7071 17.2929C26.5196 17.1053 26.2652 17 26 17ZM25 25.8012L17 24.3475V19H25V25.8012ZM12 17H4C3.73478 17 3.48043 17.1053 3.29289 17.2929C3.10536 17.4804 3 17.7348 3 18V23C3.00003 23.2342 3.08226 23.4609 3.23234 23.6407C3.38242 23.8205 3.59083 23.9419 3.82125 23.9837L11.8212 25.4387C11.8803 25.4491 11.9401 25.4546 12 25.455C12.2652 25.455 12.5196 25.3496 12.7071 25.1621C12.8946 24.9745 13 24.7202 13 24.455V18C13 17.7348 12.8946 17.4804 12.7071 17.2929C12.5196 17.1053 12.2652 17 12 17ZM11 23.2562L5 22.165V19H11V23.2562ZM26.6413 4.23247C26.5288 4.13855 26.397 4.07049 26.2553 4.03312C26.1136 3.99575 25.9654 3.98998 25.8213 4.01622L15.8212 5.83497C15.5908 5.87683 15.3824 5.99823 15.2323 6.17801C15.0823 6.35779 15 6.58454 15 6.81872V14C15 14.2652 15.1054 14.5195 15.2929 14.7071C15.4804 14.8946 15.7348 15 16 15H26C26.2652 15 26.5196 14.8946 26.7071 14.7071C26.8946 14.5195 27 14.2652 27 14V4.99997C27 4.85358 26.9679 4.70897 26.9059 4.57635C26.8439 4.44374 26.7536 4.32635 26.6413 4.23247ZM25 13H17V7.65247L25 6.19872V13ZM12.6412 6.77747C12.5288 6.68355 12.397 6.61549 12.2553 6.57812C12.1136 6.54075 11.9654 6.53498 11.8212 6.56122L3.82125 8.01622C3.59083 8.05808 3.38242 8.17948 3.23234 8.35926C3.08226 8.53904 3.00003 8.76579 3 8.99997V14C3 14.2652 3.10536 14.5195 3.29289 14.7071C3.48043 14.8946 3.73478 15 4 15H12C12.2652 15 12.5196 14.8946 12.7071 14.7071C12.8946 14.5195 13 14.2652 13 14V7.54497C13 7.39858 12.9679 7.25397 12.9059 7.12135C12.8439 6.98874 12.7536 6.87135 12.6412 6.77747ZM11 13H5V9.83497L11 8.74997V13Z" fill="#343330"/>
</svg>
