<svg width="32" height="32" viewBox="0 0 32 32" fill="none" xmlns="http://www.w3.org/2000/svg">
<path d="M28 28H22.8675L22.08 22.485L22.485 22.7237C22.7114 22.8571 22.9618 22.9445 23.2219 22.9811C23.4821 23.0176 23.7469 23.0026 24.0012 22.9367C24.2555 22.8709 24.4944 22.7556 24.7042 22.5975C24.9139 22.4393 25.0905 22.2414 25.2237 22.015L26.7237 19.4725C26.8571 19.2461 26.9445 18.9957 26.9811 18.7356C27.0176 18.4754 27.0026 18.2106 26.9367 17.9563C26.8709 17.702 26.7556 17.4631 26.5975 17.2533C26.4393 17.0436 26.2414 16.867 26.015 16.7337L21.64 14.1575L26.7262 5.51624C26.8596 5.28989 26.947 5.03949 26.9836 4.77933C27.0201 4.51918 27.0051 4.25437 26.9392 4.00004C26.8734 3.74571 26.7581 3.50684 26.6 3.29707C26.4418 3.0873 26.2439 2.91075 26.0175 2.77749L23.475 1.27749C23.2486 1.14415 22.9982 1.05671 22.7381 1.02016C22.4779 0.983618 22.2131 0.998684 21.9588 1.0645C21.7045 1.13032 21.4656 1.2456 21.2558 1.40375C21.0461 1.56191 20.8695 1.75984 20.7362 1.98624L18.16 6.36124L9.515 1.27749C9.28865 1.14415 9.03824 1.05671 8.77809 1.02016C8.51793 0.983618 8.25313 0.998684 7.9988 1.0645C7.74447 1.13032 7.5056 1.2456 7.29583 1.40375C7.08606 1.56191 6.90951 1.75984 6.77625 1.98624L5.27625 4.52749C5.14271 4.7539 5.05511 5.00441 5.01846 5.26469C4.98181 5.52498 4.99683 5.78993 5.06265 6.04441C5.12848 6.29889 5.24382 6.53789 5.40209 6.74776C5.56035 6.95763 5.75843 7.13424 5.985 7.26749L10.36 9.84374L5.27625 18.485C5.14291 18.7113 5.05547 18.9618 5.01892 19.2219C4.98237 19.4821 4.99744 19.7469 5.06326 20.0012C5.12907 20.2555 5.24435 20.4944 5.40251 20.7042C5.56066 20.9139 5.7586 21.0905 5.985 21.2237L8.5275 22.7237C8.92457 22.9617 9.39346 23.0503 9.85 22.9737L9.1325 28H4C3.73478 28 3.48043 28.1054 3.29289 28.2929C3.10536 28.4804 3 28.7348 3 29C3 29.2652 3.10536 29.5196 3.29289 29.7071C3.48043 29.8946 3.73478 30 4 30H28C28.2652 30 28.5196 29.8946 28.7071 29.7071C28.8946 29.5196 29 29.2652 29 29C29 28.7348 28.8946 28.4804 28.7071 28.2929C28.5196 28.1054 28.2652 28 28 28ZM25 18.4575L23.5 21L14.8588 15.9137L16.3587 13.37L25 18.4575ZM22.4575 2.99999L25 4.49999L19.9137 13.1425L17.375 11.6462L22.4575 2.99999ZM7 5.54374L8.5 2.99999L17.1425 8.08749L15.6425 10.6312L7 5.54374ZM9.5425 21L7 19.5L12.0863 10.8575L14.6313 12.3575L9.5425 21ZM11.1525 28L12.25 20.35L13.8462 17.6375L19.875 21.1875L20.8487 28H11.1525Z" fill="#343330"/>
</svg>
