<svg width="32" height="32" viewBox="0 0 32 32" fill="none" xmlns="http://www.w3.org/2000/svg">
<path d="M25.6662 12.9587L22.945 3.7175C22.884 3.51046 22.7577 3.3287 22.5849 3.19937C22.4121 3.07005 22.2021 3.00011 21.9862 3H10.0137C9.79791 3.00011 9.5879 3.07005 9.4151 3.19937C9.24229 3.3287 9.11597 3.51046 9.05499 3.7175L6.33374 12.9587C5.90679 14.3752 5.88445 15.8828 6.26923 17.3113C6.65402 18.7397 7.43059 20.0322 8.51124 21.0425C10.2889 22.7095 12.5729 23.7343 15 23.9538V29H11C10.7348 29 10.4804 29.1054 10.2929 29.2929C10.1054 29.4804 9.99999 29.7348 9.99999 30C9.99999 30.2652 10.1054 30.5196 10.2929 30.7071C10.4804 30.8946 10.7348 31 11 31H21C21.2652 31 21.5196 30.8946 21.7071 30.7071C21.8946 30.5196 22 30.2652 22 30C22 29.7348 21.8946 29.4804 21.7071 29.2929C21.5196 29.1054 21.2652 29 21 29H17V23.9538C19.427 23.7341 21.711 22.7094 23.4887 21.0425C24.5694 20.0322 25.346 18.7397 25.7308 17.3113C26.1155 15.8828 26.0932 14.3752 25.6662 12.9587ZM10.7612 5H21.2387L23.75 13.5238C23.7612 13.5613 23.7712 13.5987 23.7812 13.6362C21.1037 14.5962 18.0887 13.4362 16.4525 12.6075C13.3037 11.0138 10.8037 10.8113 8.95999 11.1163L10.7612 5ZM22.125 19.5812C20.4645 21.1361 18.2748 22.0012 16 22.0012C13.7252 22.0012 11.5355 21.1361 9.87499 19.5812C9.06634 18.8234 8.48566 17.8547 8.19852 16.7843C7.91137 15.7139 7.9292 14.5845 8.24999 13.5238L8.30624 13.3337C9.80624 12.8263 12.19 12.6912 15.5475 14.3925C16.9412 15.0988 19.1925 15.9987 21.6012 15.9987C22.4063 16.0027 23.2079 15.8933 23.9825 15.6737C23.8805 17.1645 23.2166 18.561 22.125 19.5812Z" fill="#343330"/>
</svg>
