<svg width="32" height="32" viewBox="0 0 32 32" fill="none" xmlns="http://www.w3.org/2000/svg">
<path d="M28.345 8.62499C28.2843 8.47507 28.1882 8.34209 28.0649 8.23747C27.9415 8.13284 27.7947 8.0597 27.6369 8.0243C27.479 7.9889 27.315 7.99231 27.1588 8.03423C27.0026 8.07615 26.8589 8.15534 26.74 8.26499L21.7025 12.9137L19.5487 12.4512L19.0862 10.2975L23.735 5.25999C23.8447 5.14111 23.9238 4.9974 23.9658 4.8412C24.0077 4.68499 24.0111 4.52095 23.9757 4.36313C23.9403 4.20532 23.8671 4.05845 23.7625 3.93511C23.6579 3.81177 23.5249 3.71565 23.375 3.65499C22.0087 3.10229 20.5275 2.8936 19.0616 3.04727C17.5958 3.20094 16.1901 3.71226 14.9681 4.53631C13.7461 5.36036 12.7452 6.47191 12.0533 7.77331C11.3614 9.0747 10.9997 10.5261 11 12C10.9984 13.2446 11.2537 14.4761 11.75 15.6175L4.22375 22.125C4.205 22.14 4.1875 22.1575 4.17 22.1737C3.41977 22.924 2.99829 23.9415 2.99829 25.0025C2.99829 25.5278 3.10177 26.048 3.30281 26.5334C3.50385 27.0188 3.79852 27.4598 4.17 27.8312C4.54147 28.2027 4.98248 28.4974 5.46784 28.6984C5.9532 28.8995 6.4734 29.003 6.99875 29.003C8.05973 29.003 9.07727 28.5815 9.8275 27.8312C9.84375 27.815 9.86125 27.7962 9.87625 27.7787L16.3825 20.25C17.753 20.8516 19.252 21.1019 20.7436 20.9782C22.2353 20.8546 23.6725 20.3608 24.9253 19.5417C26.178 18.7226 27.2067 17.604 27.9182 16.2871C28.6297 14.9703 29.0015 13.4968 29 12C29.0019 10.8432 28.7795 9.69706 28.345 8.62499ZM20 19C18.8163 18.9984 17.6523 18.6974 16.6162 18.125C16.4155 18.0141 16.1828 17.9756 15.957 18.0159C15.7313 18.0561 15.5262 18.1728 15.3762 18.3462L8.38875 26.4387C8.01062 26.798 7.50712 26.9953 6.9856 26.9886C6.46408 26.9819 5.96579 26.7718 5.59699 26.403C5.22819 26.0342 5.01805 25.5359 5.01137 25.0144C5.00469 24.4929 5.20201 23.9894 5.56125 23.6112L13.6475 16.625C13.8213 16.4749 13.9381 16.2697 13.9784 16.0436C14.0187 15.8176 13.98 15.5846 13.8687 15.3837C13.2313 14.2308 12.9321 12.9214 13.0057 11.606C13.0792 10.2906 13.5224 9.02265 14.2844 7.94793C15.0464 6.87322 16.0963 6.03536 17.3132 5.53068C18.5301 5.026 19.8648 4.87498 21.1637 5.09499L17.2637 9.32124C17.1552 9.43896 17.0766 9.58101 17.0344 9.73545C16.9922 9.88989 16.9877 10.0522 17.0212 10.2087L17.7287 13.5C17.7692 13.6882 17.8632 13.8608 17.9993 13.9969C18.1355 14.1331 18.308 14.227 18.4962 14.2675L21.79 14.975C21.9465 15.0086 22.1089 15.0041 22.2633 14.9619C22.4177 14.9197 22.5598 14.841 22.6775 14.7325L26.9037 10.8325C27.0722 11.8363 27.02 12.8647 26.7508 13.8462C26.4816 14.8278 26.0017 15.7389 25.3447 16.5162C24.6876 17.2935 23.8692 17.9184 22.9462 18.3473C22.0232 18.7762 21.0178 18.999 20 19Z" fill="#343330"/>
</svg>
